M48
; DRILL file {KiCad 6.0.2+dfsg-1} date Mon 28 Nov 2022 11:13:54 AM EST
; FORMAT={-:-/ absolute / inch / decimal}
; #@! TF.CreationDate,2022-11-28T11:13:54-05:00
; #@! TF.GenerationSoftware,Kicad,Pcbnew,6.0.2+dfsg-1
; #@! TF.FileFunction,Plated,1,2,PTH
FMAT,2
INCH
; #@! TA.AperFunction,Plated,PTH,ViaDrill
T1C0.0157
; #@! TA.AperFunction,Plated,PTH,ComponentDrill
T2C0.0315
; #@! TA.AperFunction,Plated,PTH,ComponentDrill
T3C0.0394
; #@! TA.AperFunction,Plated,PTH,ComponentDrill
T4C0.0500
; #@! TA.AperFunction,Plated,PTH,ComponentDrill
T5C0.0512
; #@! TA.AperFunction,Plated,PTH,ComponentDrill
T6C0.1000
%
G90
G05
T1
X3.525Y-2.5
X3.525Y-3.075
X3.575Y-2.5
X3.575Y-3.075
X3.725Y-3.05
X3.725Y-3.1
X3.725Y-3.15
X3.725Y-3.2
X3.725Y-3.25
X3.775Y-3.05
X3.775Y-3.1
X3.775Y-3.15
X3.775Y-3.2
X3.775Y-3.25
X3.825Y-3.05
X3.825Y-3.1
X3.825Y-3.15
X3.825Y-3.2
X3.825Y-3.25
X3.875Y-1.875
X3.875Y-3.05
X3.875Y-3.1
X3.875Y-3.15
X3.875Y-3.2
X3.875Y-3.25
X3.925Y-3.05
X3.925Y-3.1
X3.925Y-3.15
X3.925Y-3.2
X3.925Y-3.25
X4.1Y-1.875
X4.175Y-2.025
X4.725Y-2.675
X4.725Y-3.075
X4.775Y-2.675
X4.775Y-3.075
X4.925Y-3.05
X4.925Y-3.1
X4.925Y-3.15
X4.925Y-3.2
X4.925Y-3.25
X4.975Y-3.05
X4.975Y-3.1
X4.975Y-3.15
X4.975Y-3.2
X4.975Y-3.25
X5.025Y-3.05
X5.025Y-3.1
X5.025Y-3.15
X5.025Y-3.2
X5.025Y-3.25
X5.075Y-3.05
X5.075Y-3.1
X5.075Y-3.15
X5.075Y-3.2
X5.075Y-3.25
X5.125Y-3.05
X5.125Y-3.1
X5.125Y-3.15
X5.125Y-3.2
X5.125Y-3.25
T2
X2.4872Y-3.125
X2.625Y-3.125
T3
X3.725Y-1.775
X3.825Y-1.775
X3.925Y-1.775
X4.025Y-1.775
X4.125Y-1.775
X4.225Y-1.775
T5
X2.2834Y-4.3474
X2.8634Y-4.3474
X3.7834Y-4.3474
X4.3634Y-4.3474
T6
X3.05Y-3.0701
X3.05Y-3.2701
X3.05Y-3.4299
X3.05Y-3.6299
T4
G00X2.4914Y-3.6274
M15
G01X2.3355Y-3.6274
M16
G05
G00X2.8068Y-3.6274
M15
G01X2.6501Y-3.6274
M16
G05
G00X3.9914Y-3.6274
M15
G01X3.8355Y-3.6274
M16
G05
G00X4.3068Y-3.6274
M15
G01X4.1501Y-3.6274
M16
G05
T0
M30
