%TF.GenerationSoftware,KiCad,Pcbnew,6.0.2+dfsg-1*%
%TF.CreationDate,2022-11-28T11:13:56-05:00*%
%TF.ProjectId,bts7960-clone-board,62747337-3936-4302-9d63-6c6f6e652d62,rev?*%
%TF.SameCoordinates,Original*%
%TF.FileFunction,Copper,L1,Top*%
%TF.FilePolarity,Positive*%
%FSLAX46Y46*%
G04 Gerber Fmt 4.6, Leading zero omitted, Abs format (unit mm)*
G04 Created by KiCad (PCBNEW 6.0.2+dfsg-1) date 2022-11-28 11:13:56*
%MOMM*%
%LPD*%
G01*
G04 APERTURE LIST*
G04 Aperture macros list*
%AMRoundRect*
0 Rectangle with rounded corners*
0 $1 Rounding radius*
0 $2 $3 $4 $5 $6 $7 $8 $9 X,Y pos of 4 corners*
0 Add a 4 corners polygon primitive as box body*
4,1,4,$2,$3,$4,$5,$6,$7,$8,$9,$2,$3,0*
0 Add four circle primitives for the rounded corners*
1,1,$1+$1,$2,$3*
1,1,$1+$1,$4,$5*
1,1,$1+$1,$6,$7*
1,1,$1+$1,$8,$9*
0 Add four rect primitives between the rounded corners*
20,1,$1+$1,$2,$3,$4,$5,0*
20,1,$1+$1,$4,$5,$6,$7,0*
20,1,$1+$1,$6,$7,$8,$9,0*
20,1,$1+$1,$8,$9,$2,$3,0*%
G04 Aperture macros list end*
%TA.AperFunction,SMDPad,CuDef*%
%ADD10RoundRect,0.225000X0.250000X-0.225000X0.250000X0.225000X-0.250000X0.225000X-0.250000X-0.225000X0*%
%TD*%
%TA.AperFunction,SMDPad,CuDef*%
%ADD11RoundRect,0.200000X0.275000X-0.200000X0.275000X0.200000X-0.275000X0.200000X-0.275000X-0.200000X0*%
%TD*%
%TA.AperFunction,ComponentPad*%
%ADD12R,1.700000X1.700000*%
%TD*%
%TA.AperFunction,ComponentPad*%
%ADD13O,1.700000X1.700000*%
%TD*%
%TA.AperFunction,SMDPad,CuDef*%
%ADD14RoundRect,0.225000X-0.250000X0.225000X-0.250000X-0.225000X0.250000X-0.225000X0.250000X0.225000X0*%
%TD*%
%TA.AperFunction,SMDPad,CuDef*%
%ADD15R,0.800000X4.600000*%
%TD*%
%TA.AperFunction,SMDPad,CuDef*%
%ADD16R,10.800000X9.400000*%
%TD*%
%TA.AperFunction,ComponentPad*%
%ADD17C,2.500000*%
%TD*%
%TA.AperFunction,ComponentPad*%
%ADD18O,7.000000X3.000000*%
%TD*%
%TA.AperFunction,ComponentPad*%
%ADD19R,1.600000X1.600000*%
%TD*%
%TA.AperFunction,ComponentPad*%
%ADD20C,1.600000*%
%TD*%
%TA.AperFunction,SMDPad,CuDef*%
%ADD21RoundRect,0.100000X-0.100000X0.637500X-0.100000X-0.637500X0.100000X-0.637500X0.100000X0.637500X0*%
%TD*%
%TA.AperFunction,ComponentPad*%
%ADD22C,3.500000*%
%TD*%
%TA.AperFunction,ViaPad*%
%ADD23C,0.800000*%
%TD*%
%TA.AperFunction,Conductor*%
%ADD24C,1.270000*%
%TD*%
%TA.AperFunction,Conductor*%
%ADD25C,0.350000*%
%TD*%
G04 APERTURE END LIST*
D10*
%TO.P,C11,1*%
%TO.N,MOTOR_A*%
X125730000Y-85865000D03*
%TO.P,C11,2*%
%TO.N,GND*%
X125730000Y-84315000D03*
%TD*%
D11*
%TO.P,R2,1*%
%TO.N,GND*%
X102870000Y-49720000D03*
%TO.P,R2,2*%
%TO.N,BACKWARD_MOTOR*%
X102870000Y-48070000D03*
%TD*%
%TO.P,R7,1*%
%TO.N,INH_B*%
X99060000Y-61785000D03*
%TO.P,R7,2*%
%TO.N,Net-(U1-Pad12)*%
X99060000Y-60135000D03*
%TD*%
D12*
%TO.P,J1,1,Pin_1*%
%TO.N,+3.3V*%
X107315000Y-45085000D03*
D13*
%TO.P,J1,2,Pin_2*%
%TO.N,FOREWARD_MOTOR*%
X104775000Y-45085000D03*
%TO.P,J1,3,Pin_3*%
%TO.N,BACKWARD_MOTOR*%
X102235000Y-45085000D03*
%TO.P,J1,4,Pin_4*%
%TO.N,ON*%
X99695000Y-45085000D03*
%TO.P,J1,5,Pin_5*%
%TO.N,+12V*%
X97155000Y-45085000D03*
%TO.P,J1,6,Pin_6*%
%TO.N,GND*%
X94615000Y-45085000D03*
%TD*%
D14*
%TO.P,C9,1*%
%TO.N,+12V*%
X111760000Y-84315000D03*
%TO.P,C9,2*%
%TO.N,MOTOR_A*%
X111760000Y-85865000D03*
%TD*%
D15*
%TO.P,Q2,1*%
%TO.N,GND*%
X92075000Y-81220000D03*
%TO.P,Q2,2,IN*%
%TO.N,IN_B*%
X90805000Y-81220000D03*
%TO.P,Q2,3,INH*%
%TO.N,INH_B*%
X89535000Y-81220000D03*
%TO.P,Q2,4*%
%TO.N,MOTOR_B*%
X88265000Y-81220000D03*
%TO.P,Q2,5,SR*%
%TO.N,Net-(C5-Pad1)*%
X86995000Y-81220000D03*
%TO.P,Q2,6,IS*%
%TO.N,Net-(C6-Pad1)*%
X85725000Y-81220000D03*
%TO.P,Q2,7*%
%TO.N,+12V*%
X84455000Y-81220000D03*
D16*
%TO.P,Q2,8*%
%TO.N,MOTOR_B*%
X88265000Y-90370000D03*
%TD*%
D10*
%TO.P,C3,1*%
%TO.N,Net-(C3-Pad1)*%
X116205000Y-76340000D03*
%TO.P,C3,2*%
%TO.N,GND*%
X116205000Y-74790000D03*
%TD*%
D17*
%TO.P,J2,*%
%TO.N,*%
X57999000Y-110423000D03*
X72731000Y-110423000D03*
D18*
%TO.P,J2,1,+*%
%TO.N,12V_UNFUSED*%
X69302000Y-92135000D03*
%TO.P,J2,2,-*%
%TO.N,GND*%
X61301000Y-92135000D03*
%TD*%
D11*
%TO.P,R11,1*%
%TO.N,Net-(C6-Pad1)*%
X87630000Y-76390000D03*
%TO.P,R11,2*%
%TO.N,GND*%
X87630000Y-74740000D03*
%TD*%
D10*
%TO.P,C4,1*%
%TO.N,Net-(C4-Pad1)*%
X120015000Y-76340000D03*
%TO.P,C4,2*%
%TO.N,GND*%
X120015000Y-74790000D03*
%TD*%
D11*
%TO.P,R9,1*%
%TO.N,Net-(C4-Pad1)*%
X121920000Y-76390000D03*
%TO.P,R9,2*%
%TO.N,GND*%
X121920000Y-74740000D03*
%TD*%
D10*
%TO.P,C12,1*%
%TO.N,MOTOR_B*%
X95250000Y-85865000D03*
%TO.P,C12,2*%
%TO.N,GND*%
X95250000Y-84315000D03*
%TD*%
D11*
%TO.P,R4,1*%
%TO.N,IN_A*%
X104775000Y-61785000D03*
%TO.P,R4,2*%
%TO.N,Net-(U1-Pad18)*%
X104775000Y-60135000D03*
%TD*%
D10*
%TO.P,C5,1*%
%TO.N,Net-(C5-Pad1)*%
X89535000Y-76340000D03*
%TO.P,C5,2*%
%TO.N,GND*%
X89535000Y-74790000D03*
%TD*%
D19*
%TO.P,C1,1*%
%TO.N,+12V*%
X66675000Y-79375000D03*
D20*
%TO.P,C1,2*%
%TO.N,GND*%
X63175000Y-79375000D03*
%TD*%
D15*
%TO.P,Q1,1*%
%TO.N,GND*%
X122555000Y-81220000D03*
%TO.P,Q1,2,IN*%
%TO.N,IN_A*%
X121285000Y-81220000D03*
%TO.P,Q1,3,INH*%
%TO.N,INH_A*%
X120015000Y-81220000D03*
%TO.P,Q1,4*%
%TO.N,MOTOR_A*%
X118745000Y-81220000D03*
%TO.P,Q1,5,SR*%
%TO.N,Net-(C4-Pad1)*%
X117475000Y-81220000D03*
%TO.P,Q1,6,IS*%
%TO.N,Net-(C3-Pad1)*%
X116205000Y-81220000D03*
%TO.P,Q1,7*%
%TO.N,+12V*%
X114935000Y-81220000D03*
D16*
%TO.P,Q1,8*%
%TO.N,MOTOR_A*%
X118745000Y-90370000D03*
%TD*%
D14*
%TO.P,C10,1*%
%TO.N,+12V*%
X81280000Y-84315000D03*
%TO.P,C10,2*%
%TO.N,MOTOR_B*%
X81280000Y-85865000D03*
%TD*%
D21*
%TO.P,U1,1,1OE*%
%TO.N,GND*%
X104525000Y-52382500D03*
%TO.P,U1,2,1A1*%
%TO.N,FOREWARD_MOTOR*%
X103875000Y-52382500D03*
%TO.P,U1,3,2Y4*%
%TO.N,unconnected-(U1-Pad3)*%
X103225000Y-52382500D03*
%TO.P,U1,4,1A2*%
%TO.N,BACKWARD_MOTOR*%
X102575000Y-52382500D03*
%TO.P,U1,5,2Y3*%
%TO.N,unconnected-(U1-Pad5)*%
X101925000Y-52382500D03*
%TO.P,U1,6,1A3*%
%TO.N,ON*%
X101275000Y-52382500D03*
%TO.P,U1,7,2Y2*%
%TO.N,unconnected-(U1-Pad7)*%
X100625000Y-52382500D03*
%TO.P,U1,8,1A4*%
%TO.N,ON*%
X99975000Y-52382500D03*
%TO.P,U1,9,2Y1*%
%TO.N,unconnected-(U1-Pad9)*%
X99325000Y-52382500D03*
%TO.P,U1,10,GND*%
%TO.N,GND*%
X98675000Y-52382500D03*
%TO.P,U1,11,2A1*%
%TO.N,unconnected-(U1-Pad11)*%
X98675000Y-58107500D03*
%TO.P,U1,12,1Y4*%
%TO.N,Net-(U1-Pad12)*%
X99325000Y-58107500D03*
%TO.P,U1,13,2A2*%
%TO.N,unconnected-(U1-Pad13)*%
X99975000Y-58107500D03*
%TO.P,U1,14,1Y3*%
%TO.N,Net-(U1-Pad14)*%
X100625000Y-58107500D03*
%TO.P,U1,15,2A3*%
%TO.N,unconnected-(U1-Pad15)*%
X101275000Y-58107500D03*
%TO.P,U1,16,1Y2*%
%TO.N,Net-(U1-Pad16)*%
X101925000Y-58107500D03*
%TO.P,U1,17,2A4*%
%TO.N,unconnected-(U1-Pad17)*%
X102575000Y-58107500D03*
%TO.P,U1,18,1Y1*%
%TO.N,Net-(U1-Pad18)*%
X103225000Y-58107500D03*
%TO.P,U1,19,2OE*%
%TO.N,GND*%
X103875000Y-58107500D03*
%TO.P,U1,20,VCC*%
%TO.N,+3.3V*%
X104525000Y-58107500D03*
%TD*%
D11*
%TO.P,R8,1*%
%TO.N,Net-(C3-Pad1)*%
X118110000Y-76390000D03*
%TO.P,R8,2*%
%TO.N,GND*%
X118110000Y-74740000D03*
%TD*%
D10*
%TO.P,C2,1*%
%TO.N,+3.3V*%
X106045000Y-56020000D03*
%TO.P,C2,2*%
%TO.N,GND*%
X106045000Y-54470000D03*
%TD*%
%TO.P,C6,1*%
%TO.N,Net-(C6-Pad1)*%
X85725000Y-76340000D03*
%TO.P,C6,2*%
%TO.N,GND*%
X85725000Y-74790000D03*
%TD*%
D11*
%TO.P,R1,1*%
%TO.N,GND*%
X106045000Y-49720000D03*
%TO.P,R1,2*%
%TO.N,FOREWARD_MOTOR*%
X106045000Y-48070000D03*
%TD*%
D22*
%TO.P,F1,1*%
%TO.N,12V_UNFUSED*%
X77470000Y-87120000D03*
X77470000Y-92200000D03*
%TO.P,F1,2*%
%TO.N,+12V*%
X77470000Y-77980000D03*
X77470000Y-83060000D03*
%TD*%
D10*
%TO.P,C7,1*%
%TO.N,+12V*%
X83820000Y-76340000D03*
%TO.P,C7,2*%
%TO.N,GND*%
X83820000Y-74790000D03*
%TD*%
D11*
%TO.P,R10,1*%
%TO.N,Net-(C5-Pad1)*%
X91440000Y-76390000D03*
%TO.P,R10,2*%
%TO.N,GND*%
X91440000Y-74740000D03*
%TD*%
%TO.P,R6,1*%
%TO.N,IN_B*%
X100965000Y-61785000D03*
%TO.P,R6,2*%
%TO.N,Net-(U1-Pad14)*%
X100965000Y-60135000D03*
%TD*%
D17*
%TO.P,J3,*%
%TO.N,*%
X110831000Y-110423000D03*
X96099000Y-110423000D03*
D18*
%TO.P,J3,1,+*%
%TO.N,MOTOR_A*%
X107402000Y-92135000D03*
%TO.P,J3,2,-*%
%TO.N,MOTOR_B*%
X99401000Y-92135000D03*
%TD*%
D10*
%TO.P,C8,1*%
%TO.N,+12V*%
X114300000Y-77610000D03*
%TO.P,C8,2*%
%TO.N,GND*%
X114300000Y-76060000D03*
%TD*%
D11*
%TO.P,R3,1*%
%TO.N,GND*%
X99695000Y-49720000D03*
%TO.P,R3,2*%
%TO.N,ON*%
X99695000Y-48070000D03*
%TD*%
%TO.P,R5,1*%
%TO.N,INH_A*%
X102870000Y-61785000D03*
%TO.P,R5,2*%
%TO.N,Net-(U1-Pad16)*%
X102870000Y-60135000D03*
%TD*%
D23*
%TO.N,GND*%
X95885000Y-77470000D03*
X125095000Y-82550000D03*
X125095000Y-78740000D03*
X127635000Y-77470000D03*
X99695000Y-77470000D03*
X98425000Y-77470000D03*
X130175000Y-80010000D03*
X126365000Y-82550000D03*
X130175000Y-77470000D03*
X125095000Y-77470000D03*
X126365000Y-77470000D03*
X130175000Y-82550000D03*
X99695000Y-78740000D03*
X127635000Y-82550000D03*
X126365000Y-80010000D03*
X94615000Y-77470000D03*
X94615000Y-82550000D03*
X95885000Y-82550000D03*
X127635000Y-81280000D03*
X98425000Y-47625000D03*
X106045000Y-51435000D03*
X125095000Y-80010000D03*
X127635000Y-80010000D03*
X130175000Y-78740000D03*
X97155000Y-77470000D03*
X130175000Y-81280000D03*
X99695000Y-82550000D03*
X97155000Y-82550000D03*
X94615000Y-78740000D03*
X94615000Y-80010000D03*
X104140000Y-47625000D03*
X98425000Y-78740000D03*
X128905000Y-80010000D03*
X98425000Y-81280000D03*
X126365000Y-81280000D03*
X128905000Y-77470000D03*
X125095000Y-81280000D03*
X127635000Y-78740000D03*
X126365000Y-78740000D03*
X95885000Y-81280000D03*
X94615000Y-81280000D03*
X95885000Y-80010000D03*
X97155000Y-78740000D03*
X97155000Y-81280000D03*
X128905000Y-82550000D03*
X128905000Y-78740000D03*
X98425000Y-80010000D03*
X99695000Y-81280000D03*
X98425000Y-82550000D03*
X95885000Y-78740000D03*
X99695000Y-80010000D03*
X128905000Y-81280000D03*
X97155000Y-80010000D03*
%TO.N,IN_A*%
X121285000Y-67945000D03*
X121285000Y-78105000D03*
%TO.N,INH_A*%
X120015000Y-78105000D03*
X120015000Y-67945000D03*
%TO.N,IN_B*%
X90805000Y-78105000D03*
X90805000Y-63500000D03*
%TO.N,INH_B*%
X89535000Y-63500000D03*
X89535000Y-78105000D03*
%TD*%
D24*
%TO.N,+12V*%
X97155000Y-46355000D02*
X97155000Y-45085000D01*
X66675000Y-76835000D02*
X97155000Y-46355000D01*
X66675000Y-79375000D02*
X66675000Y-76835000D01*
D25*
%TO.N,GND*%
X106045000Y-49720000D02*
X106045000Y-51435000D01*
X104525000Y-52382500D02*
X104525000Y-52950000D01*
X85725000Y-74740000D02*
X83820000Y-74740000D01*
X104140000Y-47625000D02*
X104140000Y-48450000D01*
X116205000Y-74740000D02*
X115570000Y-74740000D01*
X92289520Y-75589520D02*
X92289520Y-81005480D01*
X98675000Y-52382500D02*
X98675000Y-50740000D01*
X98675000Y-50740000D02*
X99695000Y-49720000D01*
X104525000Y-52950000D02*
X106045000Y-54470000D01*
X98425000Y-47625000D02*
X98425000Y-48450000D01*
X121920000Y-74740000D02*
X122769520Y-75589520D01*
X92289520Y-81005480D02*
X92075000Y-81220000D01*
X91440000Y-74740000D02*
X92289520Y-75589520D01*
X122769520Y-81005480D02*
X122555000Y-81220000D01*
X104140000Y-48450000D02*
X102870000Y-49720000D01*
X115570000Y-74740000D02*
X114300000Y-76010000D01*
X91440000Y-74740000D02*
X89535000Y-74740000D01*
X120015000Y-74740000D02*
X118110000Y-74740000D01*
X87630000Y-74740000D02*
X85725000Y-74740000D01*
X122769520Y-75589520D02*
X122769520Y-81005480D01*
X106045000Y-51435000D02*
X105472500Y-51435000D01*
X98425000Y-48450000D02*
X99695000Y-49720000D01*
X121920000Y-74740000D02*
X120015000Y-74740000D01*
X103875000Y-58107500D02*
X103875000Y-56640000D01*
X89535000Y-74740000D02*
X87630000Y-74740000D01*
X103875000Y-56640000D02*
X106045000Y-54470000D01*
X118110000Y-74740000D02*
X116205000Y-74740000D01*
X105472500Y-51435000D02*
X104525000Y-52382500D01*
%TO.N,+3.3V*%
X107315000Y-54750000D02*
X106045000Y-56020000D01*
X104525000Y-58107500D02*
X104525000Y-57540000D01*
X107315000Y-45085000D02*
X107315000Y-54750000D01*
X104525000Y-57540000D02*
X106045000Y-56020000D01*
%TO.N,BACKWARD_MOTOR*%
X102020480Y-48919520D02*
X102870000Y-48070000D01*
X102575000Y-52382500D02*
X102575000Y-50712493D01*
X102235000Y-45085000D02*
X102235000Y-47435000D01*
X102020480Y-50157973D02*
X102020480Y-48919520D01*
X102575000Y-50712493D02*
X102020480Y-50157973D01*
X102235000Y-47435000D02*
X102870000Y-48070000D01*
%TO.N,FOREWARD_MOTOR*%
X104775000Y-45085000D02*
X104775000Y-46800000D01*
X103875000Y-52382500D02*
X103875000Y-50240000D01*
X104775000Y-46800000D02*
X106045000Y-48070000D01*
X103875000Y-50240000D02*
X106045000Y-48070000D01*
%TO.N,ON*%
X101275000Y-52382500D02*
X101275000Y-49650000D01*
X99975000Y-50727493D02*
X100544520Y-50157973D01*
X100544520Y-50157973D02*
X100544520Y-48919520D01*
X99975000Y-52382500D02*
X99975000Y-50727493D01*
X101275000Y-49650000D02*
X99695000Y-48070000D01*
X100544520Y-48919520D02*
X99695000Y-48070000D01*
X99695000Y-45085000D02*
X99695000Y-48070000D01*
%TO.N,MOTOR_A*%
X118745000Y-81220000D02*
X118745000Y-90370000D01*
%TO.N,MOTOR_B*%
X88265000Y-81220000D02*
X88265000Y-90370000D01*
%TO.N,IN_A*%
X104775000Y-61785000D02*
X115125000Y-61785000D01*
X121285000Y-78105000D02*
X121285000Y-81220000D01*
X115125000Y-61785000D02*
X121285000Y-67945000D01*
%TO.N,INH_A*%
X102870000Y-61785000D02*
X103950000Y-62865000D01*
X103950000Y-62865000D02*
X114935000Y-62865000D01*
X120015000Y-78105000D02*
X120015000Y-81220000D01*
X114935000Y-62865000D02*
X120015000Y-67945000D01*
%TO.N,IN_B*%
X99885000Y-62865000D02*
X91440000Y-62865000D01*
X91440000Y-62865000D02*
X90805000Y-63500000D01*
X100965000Y-61785000D02*
X99885000Y-62865000D01*
X90805000Y-78105000D02*
X90805000Y-81220000D01*
%TO.N,INH_B*%
X89535000Y-78105000D02*
X89535000Y-81220000D01*
X99060000Y-61785000D02*
X91250000Y-61785000D01*
X91250000Y-61785000D02*
X89535000Y-63500000D01*
%TO.N,Net-(U1-Pad18)*%
X103225000Y-58107500D02*
X103225000Y-58944022D01*
X103225000Y-58944022D02*
X104415978Y-60135000D01*
X104415978Y-60135000D02*
X104775000Y-60135000D01*
%TO.N,Net-(U1-Pad16)*%
X101925000Y-59190000D02*
X102870000Y-60135000D01*
X101925000Y-58107500D02*
X101925000Y-59190000D01*
%TO.N,Net-(U1-Pad14)*%
X100625000Y-58107500D02*
X100625000Y-59795000D01*
X100625000Y-59795000D02*
X100965000Y-60135000D01*
%TO.N,Net-(U1-Pad12)*%
X99325000Y-58107500D02*
X99325000Y-59870000D01*
X99325000Y-59870000D02*
X99060000Y-60135000D01*
%TO.N,Net-(C3-Pad1)*%
X118110000Y-76390000D02*
X116205000Y-76390000D01*
X116205000Y-76390000D02*
X116205000Y-81220000D01*
%TO.N,Net-(C4-Pad1)*%
X121920000Y-76390000D02*
X120015000Y-76390000D01*
X120015000Y-76390000D02*
X117475000Y-78930000D01*
X117475000Y-78930000D02*
X117475000Y-81220000D01*
%TO.N,Net-(C5-Pad1)*%
X86995000Y-78930000D02*
X86995000Y-81220000D01*
X91440000Y-76390000D02*
X89535000Y-76390000D01*
X89535000Y-76390000D02*
X86995000Y-78930000D01*
%TO.N,Net-(C6-Pad1)*%
X87630000Y-76390000D02*
X85725000Y-76390000D01*
X85725000Y-76390000D02*
X85725000Y-81220000D01*
%TD*%
%TA.AperFunction,Conductor*%
%TO.N,+12V*%
G36*
X83112298Y-75594552D02*
G01*
X83118528Y-75598392D01*
X83118529Y-75598393D01*
X83214091Y-75657298D01*
X83257899Y-75684302D01*
X83420243Y-75738149D01*
X83427080Y-75738849D01*
X83427082Y-75738850D01*
X83468401Y-75743083D01*
X83521268Y-75748500D01*
X84118732Y-75748500D01*
X84121978Y-75748163D01*
X84121982Y-75748163D01*
X84156083Y-75744625D01*
X84221019Y-75737887D01*
X84313214Y-75707128D01*
X84384162Y-75704544D01*
X84406337Y-75712457D01*
X84445008Y-75730489D01*
X84464026Y-75741468D01*
X84474069Y-75748500D01*
X84627314Y-75855804D01*
X84644138Y-75869922D01*
X84708345Y-75934129D01*
X84742371Y-75996441D01*
X84744594Y-76036065D01*
X84741828Y-76063066D01*
X84741500Y-76066268D01*
X84741500Y-76613732D01*
X84752113Y-76716019D01*
X84806244Y-76878268D01*
X84896248Y-77023713D01*
X84901430Y-77028886D01*
X85004518Y-77131794D01*
X85038597Y-77194076D01*
X85041500Y-77220967D01*
X85041500Y-78433934D01*
X85021498Y-78502055D01*
X84991068Y-78534758D01*
X84961739Y-78556739D01*
X84874385Y-78673295D01*
X84823255Y-78809684D01*
X84816500Y-78871866D01*
X84816500Y-83568134D01*
X84823255Y-83630316D01*
X84874385Y-83766705D01*
X84874823Y-83767289D01*
X84889103Y-83832596D01*
X84866627Y-83896013D01*
X84799196Y-83992314D01*
X84785078Y-84009138D01*
X84644138Y-84150078D01*
X84627314Y-84164196D01*
X84464026Y-84278532D01*
X84445015Y-84289508D01*
X84287193Y-84363102D01*
X84264357Y-84373751D01*
X84243717Y-84381263D01*
X84051178Y-84432854D01*
X84029555Y-84436666D01*
X83873516Y-84450318D01*
X83825474Y-84454521D01*
X83814493Y-84455000D01*
X66680507Y-84455000D01*
X66669526Y-84454521D01*
X66621484Y-84450318D01*
X66465445Y-84436666D01*
X66443822Y-84432854D01*
X66251283Y-84381263D01*
X66230643Y-84373751D01*
X66207807Y-84363102D01*
X66049985Y-84289508D01*
X66030974Y-84278532D01*
X65867686Y-84164196D01*
X65850862Y-84150078D01*
X65709922Y-84009138D01*
X65695804Y-83992314D01*
X65628373Y-83896013D01*
X65581468Y-83829026D01*
X65570492Y-83810015D01*
X65486249Y-83629357D01*
X65478737Y-83608718D01*
X65427147Y-83416182D01*
X65423333Y-83394552D01*
X65405479Y-83190474D01*
X65405000Y-83179493D01*
X65405000Y-75565000D01*
X83082694Y-75565000D01*
X83112298Y-75594552D01*
G37*
%TD.AperFunction*%
%TD*%
%TA.AperFunction,Conductor*%
%TO.N,+12V*%
G36*
X113592298Y-76864552D02*
G01*
X113737899Y-76954302D01*
X113900243Y-77008149D01*
X113907080Y-77008849D01*
X113907082Y-77008850D01*
X113948401Y-77013083D01*
X114001268Y-77018500D01*
X114598732Y-77018500D01*
X114601978Y-77018163D01*
X114601982Y-77018163D01*
X114636083Y-77014625D01*
X114701019Y-77007887D01*
X114854726Y-76956606D01*
X114856324Y-76956073D01*
X114856326Y-76956072D01*
X114863268Y-76953756D01*
X115008713Y-76863752D01*
X115013886Y-76858570D01*
X115037415Y-76835000D01*
X115268468Y-76835000D01*
X115277659Y-76852536D01*
X115286244Y-76878268D01*
X115290096Y-76884492D01*
X115290096Y-76884493D01*
X115372394Y-77017485D01*
X115376248Y-77023713D01*
X115381430Y-77028886D01*
X115484518Y-77131794D01*
X115518597Y-77194076D01*
X115521500Y-77220967D01*
X115521500Y-78433934D01*
X115501498Y-78502055D01*
X115471068Y-78534758D01*
X115441739Y-78556739D01*
X115354385Y-78673295D01*
X115303255Y-78809684D01*
X115296500Y-78871866D01*
X115296500Y-83568134D01*
X115303255Y-83630316D01*
X115354385Y-83766705D01*
X115354823Y-83767289D01*
X115369103Y-83832596D01*
X115346627Y-83896013D01*
X115279196Y-83992314D01*
X115265078Y-84009138D01*
X115124138Y-84150078D01*
X115107314Y-84164196D01*
X114944026Y-84278532D01*
X114925015Y-84289508D01*
X114767193Y-84363102D01*
X114744357Y-84373751D01*
X114723717Y-84381263D01*
X114531178Y-84432854D01*
X114509555Y-84436666D01*
X114353516Y-84450318D01*
X114305474Y-84454521D01*
X114294493Y-84455000D01*
X105415507Y-84455000D01*
X105404526Y-84454521D01*
X105356484Y-84450318D01*
X105200445Y-84436666D01*
X105178822Y-84432854D01*
X104986283Y-84381263D01*
X104965643Y-84373751D01*
X104942807Y-84363102D01*
X104784985Y-84289508D01*
X104765974Y-84278532D01*
X104602686Y-84164196D01*
X104585862Y-84150078D01*
X104444922Y-84009138D01*
X104430804Y-83992314D01*
X104363373Y-83896013D01*
X104316468Y-83829026D01*
X104305492Y-83810015D01*
X104221249Y-83629357D01*
X104213737Y-83608718D01*
X104162147Y-83416182D01*
X104158333Y-83394552D01*
X104140479Y-83190474D01*
X104140000Y-83179493D01*
X104140000Y-76835000D01*
X113562694Y-76835000D01*
X113592298Y-76864552D01*
G37*
%TD.AperFunction*%
%TD*%
%TA.AperFunction,Conductor*%
%TO.N,GND*%
G36*
X63505474Y-75565479D02*
G01*
X63553516Y-75569682D01*
X63709555Y-75583334D01*
X63731178Y-75587146D01*
X63881625Y-75627458D01*
X63923718Y-75638737D01*
X63944358Y-75646249D01*
X64125015Y-75730492D01*
X64144026Y-75741468D01*
X64285489Y-75840522D01*
X64307314Y-75855804D01*
X64324138Y-75869922D01*
X64465078Y-76010862D01*
X64479196Y-76027686D01*
X64593532Y-76190974D01*
X64604508Y-76209985D01*
X64678102Y-76367807D01*
X64688751Y-76390643D01*
X64696263Y-76411282D01*
X64747853Y-76603818D01*
X64751667Y-76625448D01*
X64769521Y-76829526D01*
X64770000Y-76840507D01*
X64770000Y-93980000D01*
X57150000Y-93980000D01*
X57150000Y-76840507D01*
X57150479Y-76829526D01*
X57168333Y-76625448D01*
X57172147Y-76603818D01*
X57223737Y-76411282D01*
X57231249Y-76390643D01*
X57241898Y-76367807D01*
X57315492Y-76209985D01*
X57326468Y-76190974D01*
X57440804Y-76027686D01*
X57454922Y-76010862D01*
X57595862Y-75869922D01*
X57612686Y-75855804D01*
X57634511Y-75840522D01*
X57775974Y-75741468D01*
X57794985Y-75730492D01*
X57975642Y-75646249D01*
X57996282Y-75638737D01*
X58038375Y-75627458D01*
X58188822Y-75587146D01*
X58210445Y-75583334D01*
X58366484Y-75569682D01*
X58414526Y-75565479D01*
X58425507Y-75565000D01*
X63494493Y-75565000D01*
X63505474Y-75565479D01*
G37*
%TD.AperFunction*%
%TD*%
%TA.AperFunction,Conductor*%
%TO.N,+12V*%
G36*
X114305474Y-64770479D02*
G01*
X114353516Y-64774682D01*
X114509555Y-64788334D01*
X114531178Y-64792146D01*
X114681625Y-64832458D01*
X114723718Y-64843737D01*
X114744358Y-64851249D01*
X114925015Y-64935492D01*
X114944026Y-64946468D01*
X115085489Y-65045522D01*
X115107314Y-65060804D01*
X115124138Y-65074922D01*
X115265078Y-65215862D01*
X115279196Y-65232686D01*
X115393532Y-65395974D01*
X115404508Y-65414985D01*
X115478102Y-65572807D01*
X115488751Y-65595643D01*
X115496263Y-65616282D01*
X115547853Y-65808818D01*
X115551667Y-65830448D01*
X115569521Y-66034526D01*
X115570000Y-66045507D01*
X115570000Y-73870431D01*
X115549998Y-73938552D01*
X115510304Y-73977574D01*
X115496287Y-73986248D01*
X115491114Y-73991430D01*
X115436177Y-74046463D01*
X115383422Y-74078067D01*
X115378473Y-74079561D01*
X115370996Y-74080866D01*
X115364048Y-74083916D01*
X115364041Y-74083918D01*
X115314659Y-74105595D01*
X115308554Y-74108086D01*
X115258118Y-74127145D01*
X115258115Y-74127147D01*
X115251011Y-74129831D01*
X115244754Y-74134131D01*
X115240286Y-74136467D01*
X115230840Y-74141725D01*
X115226474Y-74144307D01*
X115219515Y-74147362D01*
X115170696Y-74184823D01*
X115165377Y-74188686D01*
X115126679Y-74215283D01*
X115114674Y-74223534D01*
X115109623Y-74229203D01*
X115074768Y-74268323D01*
X115069787Y-74273598D01*
X114278790Y-75064595D01*
X114216478Y-75098621D01*
X114189695Y-75101500D01*
X114001268Y-75101500D01*
X113998022Y-75101837D01*
X113998018Y-75101837D01*
X113963917Y-75105375D01*
X113898981Y-75112113D01*
X113892440Y-75114295D01*
X113892441Y-75114295D01*
X113743676Y-75163927D01*
X113743674Y-75163928D01*
X113736732Y-75166244D01*
X113591287Y-75256248D01*
X113470448Y-75377298D01*
X113466608Y-75383528D01*
X113466607Y-75383529D01*
X113401212Y-75489620D01*
X113380698Y-75522899D01*
X113326851Y-75685243D01*
X113316500Y-75786268D01*
X113316500Y-76333732D01*
X113327113Y-76436019D01*
X113329295Y-76442559D01*
X113378644Y-76590474D01*
X113381244Y-76598268D01*
X113471248Y-76743713D01*
X113476430Y-76748886D01*
X113518752Y-76791134D01*
X113592298Y-76864552D01*
X113598528Y-76868392D01*
X113598529Y-76868393D01*
X113703432Y-76933056D01*
X113737899Y-76954302D01*
X113900243Y-77008149D01*
X113907080Y-77008849D01*
X113907082Y-77008850D01*
X113948401Y-77013083D01*
X114001268Y-77018500D01*
X114598732Y-77018500D01*
X114601978Y-77018163D01*
X114601982Y-77018163D01*
X114636083Y-77014625D01*
X114701019Y-77007887D01*
X114854726Y-76956606D01*
X114856324Y-76956073D01*
X114856326Y-76956072D01*
X114863268Y-76953756D01*
X115008713Y-76863752D01*
X115068964Y-76803396D01*
X115131245Y-76769317D01*
X115202065Y-76774320D01*
X115258938Y-76816816D01*
X115277659Y-76852536D01*
X115286244Y-76878268D01*
X115290096Y-76884492D01*
X115290096Y-76884493D01*
X115372394Y-77017485D01*
X115376248Y-77023713D01*
X115451110Y-77098444D01*
X115484518Y-77131794D01*
X115518597Y-77194076D01*
X115521500Y-77220967D01*
X115521500Y-78433934D01*
X115501498Y-78502055D01*
X115471068Y-78534758D01*
X115441739Y-78556739D01*
X115354385Y-78673295D01*
X115303255Y-78809684D01*
X115296500Y-78871866D01*
X115296500Y-83568134D01*
X115303255Y-83630316D01*
X115354385Y-83766705D01*
X115354823Y-83767289D01*
X115369103Y-83832596D01*
X115346627Y-83896013D01*
X115279196Y-83992314D01*
X115265078Y-84009138D01*
X115124138Y-84150078D01*
X115107314Y-84164196D01*
X114944026Y-84278532D01*
X114925015Y-84289508D01*
X114767193Y-84363102D01*
X114744357Y-84373751D01*
X114723717Y-84381263D01*
X114531178Y-84432854D01*
X114509555Y-84436666D01*
X114353516Y-84450318D01*
X114305474Y-84454521D01*
X114294493Y-84455000D01*
X105415507Y-84455000D01*
X105404526Y-84454521D01*
X105356484Y-84450318D01*
X105200445Y-84436666D01*
X105178822Y-84432854D01*
X104986283Y-84381263D01*
X104965643Y-84373751D01*
X104942807Y-84363102D01*
X104784985Y-84289508D01*
X104765974Y-84278532D01*
X104602686Y-84164196D01*
X104585862Y-84150078D01*
X104444922Y-84009138D01*
X104430804Y-83992314D01*
X104363373Y-83896013D01*
X104316468Y-83829026D01*
X104305492Y-83810015D01*
X104221249Y-83629357D01*
X104213737Y-83608718D01*
X104162147Y-83416182D01*
X104158333Y-83394552D01*
X104140479Y-83190474D01*
X104140000Y-83179493D01*
X104140000Y-74930000D01*
X104120706Y-74709467D01*
X104063410Y-74495634D01*
X104031254Y-74426676D01*
X103972178Y-74299987D01*
X103972175Y-74299982D01*
X103969852Y-74295000D01*
X103869712Y-74151985D01*
X103846035Y-74118171D01*
X103846033Y-74118168D01*
X103842876Y-74113660D01*
X103686340Y-73957124D01*
X103681832Y-73953967D01*
X103681829Y-73953965D01*
X103562530Y-73870431D01*
X103505000Y-73830148D01*
X103500018Y-73827825D01*
X103500013Y-73827822D01*
X103309348Y-73738913D01*
X103309346Y-73738912D01*
X103304366Y-73736590D01*
X103299058Y-73735168D01*
X103299056Y-73735167D01*
X103095848Y-73680718D01*
X103095846Y-73680718D01*
X103090533Y-73679294D01*
X102962363Y-73668081D01*
X102872724Y-73660238D01*
X102872717Y-73660238D01*
X102870000Y-73660000D01*
X83502500Y-73660000D01*
X83499427Y-73660303D01*
X83499420Y-73660303D01*
X83386216Y-73671453D01*
X83316676Y-73678302D01*
X83137994Y-73732505D01*
X83132539Y-73735421D01*
X83132536Y-73735422D01*
X83130351Y-73736590D01*
X82973319Y-73820525D01*
X82828981Y-73938981D01*
X82710525Y-74083319D01*
X82707608Y-74088777D01*
X82707607Y-74088778D01*
X82654206Y-74188686D01*
X82622505Y-74247994D01*
X82568302Y-74426676D01*
X82550000Y-74612500D01*
X82564710Y-74761858D01*
X82550000Y-74930000D01*
X82550000Y-84455000D01*
X66680507Y-84455000D01*
X66669526Y-84454521D01*
X66621484Y-84450318D01*
X66465445Y-84436666D01*
X66443822Y-84432854D01*
X66251283Y-84381263D01*
X66230643Y-84373751D01*
X66207807Y-84363102D01*
X66049985Y-84289508D01*
X66030974Y-84278532D01*
X65867686Y-84164196D01*
X65850862Y-84150078D01*
X65709922Y-84009138D01*
X65695804Y-83992314D01*
X65628373Y-83896013D01*
X65581468Y-83829026D01*
X65570492Y-83810015D01*
X65486249Y-83629357D01*
X65478737Y-83608718D01*
X65427147Y-83416182D01*
X65423333Y-83394552D01*
X65405479Y-83190474D01*
X65405000Y-83179493D01*
X65405000Y-66045507D01*
X65405479Y-66034526D01*
X65423333Y-65830448D01*
X65427147Y-65808818D01*
X65478737Y-65616282D01*
X65486249Y-65595643D01*
X65496898Y-65572807D01*
X65570492Y-65414985D01*
X65581468Y-65395974D01*
X65695804Y-65232686D01*
X65709922Y-65215862D01*
X65850862Y-65074922D01*
X65867686Y-65060804D01*
X65889511Y-65045522D01*
X66030974Y-64946468D01*
X66049985Y-64935492D01*
X66230642Y-64851249D01*
X66251282Y-64843737D01*
X66293375Y-64832458D01*
X66443822Y-64792146D01*
X66465445Y-64788334D01*
X66621484Y-64774682D01*
X66669526Y-64770479D01*
X66680507Y-64770000D01*
X114294493Y-64770000D01*
X114305474Y-64770479D01*
G37*
%TD.AperFunction*%
%TD*%
%TA.AperFunction,Conductor*%
%TO.N,GND*%
G36*
X132085474Y-76835479D02*
G01*
X132133516Y-76839682D01*
X132289555Y-76853334D01*
X132311178Y-76857146D01*
X132378362Y-76875148D01*
X132503718Y-76908737D01*
X132524358Y-76916249D01*
X132705015Y-77000492D01*
X132724026Y-77011468D01*
X132865489Y-77110522D01*
X132887314Y-77125804D01*
X132904138Y-77139922D01*
X133045078Y-77280862D01*
X133059196Y-77297686D01*
X133173532Y-77460974D01*
X133184508Y-77479985D01*
X133258102Y-77637807D01*
X133268751Y-77660643D01*
X133276263Y-77681282D01*
X133327853Y-77873818D01*
X133331666Y-77895445D01*
X133333958Y-77921635D01*
X133349521Y-78099526D01*
X133350000Y-78110507D01*
X133350000Y-84455000D01*
X123195507Y-84455000D01*
X123184526Y-84454521D01*
X123136484Y-84450318D01*
X122980445Y-84436666D01*
X122958822Y-84432854D01*
X122766283Y-84381263D01*
X122745643Y-84373751D01*
X122722807Y-84363102D01*
X122564985Y-84289508D01*
X122545974Y-84278532D01*
X122382686Y-84164196D01*
X122365862Y-84150078D01*
X122224922Y-84009138D01*
X122210804Y-83992314D01*
X122143373Y-83896013D01*
X122120685Y-83828739D01*
X122135082Y-83767416D01*
X122135615Y-83766705D01*
X122186745Y-83630316D01*
X122193500Y-83568134D01*
X122193500Y-78871866D01*
X122186745Y-78809684D01*
X122135615Y-78673295D01*
X122112240Y-78642105D01*
X122087392Y-78575600D01*
X122103946Y-78503542D01*
X122119527Y-78476556D01*
X122178542Y-78294928D01*
X122198504Y-78105000D01*
X122178542Y-77915072D01*
X122119527Y-77733444D01*
X122068112Y-77644391D01*
X122051374Y-77575396D01*
X122063036Y-77528141D01*
X122085492Y-77479985D01*
X122096468Y-77460974D01*
X122173879Y-77350420D01*
X122229337Y-77306092D01*
X122265564Y-77297219D01*
X122325062Y-77291753D01*
X122359815Y-77280862D01*
X122481450Y-77242744D01*
X122481452Y-77242743D01*
X122488699Y-77240472D01*
X122635381Y-77151639D01*
X122756639Y-77030381D01*
X122816472Y-76931584D01*
X122868869Y-76883677D01*
X122891634Y-76875149D01*
X122958822Y-76857146D01*
X122980445Y-76853334D01*
X123136484Y-76839682D01*
X123184526Y-76835479D01*
X123195507Y-76835000D01*
X132074493Y-76835000D01*
X132085474Y-76835479D01*
G37*
%TD.AperFunction*%
%TD*%
%TA.AperFunction,Conductor*%
%TO.N,12V_UNFUSED*%
G36*
X76506388Y-85102994D02*
G01*
X76600145Y-85149230D01*
X76600152Y-85149233D01*
X76603855Y-85151059D01*
X76607769Y-85152388D01*
X76607770Y-85152388D01*
X76880290Y-85244896D01*
X76880294Y-85244897D01*
X76884203Y-85246224D01*
X76888247Y-85247028D01*
X76888253Y-85247030D01*
X77170535Y-85303180D01*
X77170541Y-85303181D01*
X77174574Y-85303983D01*
X77178679Y-85304252D01*
X77178686Y-85304253D01*
X77465881Y-85323076D01*
X77470000Y-85323346D01*
X77474119Y-85323076D01*
X77761314Y-85304253D01*
X77761321Y-85304252D01*
X77765426Y-85303983D01*
X77769459Y-85303181D01*
X77769465Y-85303180D01*
X78051747Y-85247030D01*
X78051753Y-85247028D01*
X78055797Y-85246224D01*
X78059706Y-85244897D01*
X78059710Y-85244896D01*
X78332230Y-85152388D01*
X78332231Y-85152388D01*
X78336145Y-85151059D01*
X78339848Y-85149233D01*
X78339855Y-85149230D01*
X78433612Y-85102994D01*
X78489340Y-85090000D01*
X78734493Y-85090000D01*
X78745474Y-85090479D01*
X78793516Y-85094682D01*
X78949555Y-85108334D01*
X78971178Y-85112146D01*
X79109577Y-85149230D01*
X79163718Y-85163737D01*
X79184358Y-85171249D01*
X79365015Y-85255492D01*
X79384026Y-85266468D01*
X79525489Y-85365522D01*
X79547314Y-85380804D01*
X79564138Y-85394922D01*
X79705078Y-85535862D01*
X79719196Y-85552686D01*
X79833532Y-85715974D01*
X79844508Y-85734985D01*
X79918102Y-85892807D01*
X79928751Y-85915643D01*
X79936263Y-85936282D01*
X79987853Y-86128818D01*
X79991667Y-86150448D01*
X80009521Y-86354526D01*
X80010000Y-86365507D01*
X80010000Y-92704493D01*
X80009521Y-92715474D01*
X79991667Y-92919552D01*
X79987853Y-92941182D01*
X79936263Y-93133718D01*
X79928751Y-93154357D01*
X79844508Y-93335015D01*
X79833532Y-93354026D01*
X79734478Y-93495489D01*
X79719196Y-93517314D01*
X79705078Y-93534138D01*
X79564138Y-93675078D01*
X79547314Y-93689196D01*
X79384026Y-93803532D01*
X79365015Y-93814508D01*
X79207193Y-93888102D01*
X79184357Y-93898751D01*
X79163717Y-93906263D01*
X78971178Y-93957854D01*
X78949555Y-93961666D01*
X78793516Y-93975318D01*
X78745474Y-93979521D01*
X78734493Y-93980000D01*
X67315507Y-93980000D01*
X67304526Y-93979521D01*
X67256484Y-93975318D01*
X67100445Y-93961666D01*
X67078822Y-93957854D01*
X66886283Y-93906263D01*
X66865643Y-93898751D01*
X66842807Y-93888102D01*
X66684985Y-93814508D01*
X66665974Y-93803532D01*
X66502686Y-93689196D01*
X66485862Y-93675078D01*
X66344922Y-93534138D01*
X66330804Y-93517314D01*
X66315522Y-93495489D01*
X66216468Y-93354026D01*
X66205492Y-93335015D01*
X66121249Y-93154357D01*
X66113737Y-93133718D01*
X66062147Y-92941182D01*
X66058333Y-92919552D01*
X66040479Y-92715474D01*
X66040000Y-92704493D01*
X66040000Y-86365507D01*
X66040479Y-86354526D01*
X66058333Y-86150448D01*
X66062147Y-86128818D01*
X66113737Y-85936282D01*
X66121249Y-85915643D01*
X66131898Y-85892807D01*
X66205492Y-85734985D01*
X66216468Y-85715974D01*
X66330804Y-85552686D01*
X66344922Y-85535862D01*
X66485862Y-85394922D01*
X66502686Y-85380804D01*
X66524511Y-85365522D01*
X66665974Y-85266468D01*
X66684985Y-85255492D01*
X66865642Y-85171249D01*
X66886282Y-85163737D01*
X66940423Y-85149230D01*
X67078822Y-85112146D01*
X67100445Y-85108334D01*
X67256484Y-85094682D01*
X67304526Y-85090479D01*
X67315507Y-85090000D01*
X76450660Y-85090000D01*
X76506388Y-85102994D01*
G37*
%TD.AperFunction*%
%TD*%
%TA.AperFunction,Conductor*%
%TO.N,GND*%
G36*
X132085474Y-76835479D02*
G01*
X132133516Y-76839682D01*
X132289555Y-76853334D01*
X132311178Y-76857146D01*
X132444535Y-76892879D01*
X132503718Y-76908737D01*
X132524358Y-76916249D01*
X132705015Y-77000492D01*
X132724026Y-77011468D01*
X132865489Y-77110522D01*
X132887314Y-77125804D01*
X132904138Y-77139922D01*
X133045078Y-77280862D01*
X133059196Y-77297686D01*
X133173532Y-77460974D01*
X133184508Y-77479985D01*
X133258102Y-77637807D01*
X133268751Y-77660643D01*
X133276263Y-77681282D01*
X133327853Y-77873818D01*
X133331667Y-77895448D01*
X133349521Y-78099526D01*
X133350000Y-78110507D01*
X133350000Y-106039493D01*
X133349521Y-106050474D01*
X133331667Y-106254552D01*
X133327853Y-106276182D01*
X133276263Y-106468718D01*
X133268751Y-106489357D01*
X133184508Y-106670015D01*
X133173532Y-106689026D01*
X133074478Y-106830489D01*
X133059196Y-106852314D01*
X133045078Y-106869138D01*
X132904138Y-107010078D01*
X132887314Y-107024196D01*
X132724026Y-107138532D01*
X132705015Y-107149508D01*
X132547193Y-107223102D01*
X132524357Y-107233751D01*
X132503717Y-107241263D01*
X132311178Y-107292854D01*
X132289555Y-107296666D01*
X132133516Y-107310318D01*
X132085474Y-107314521D01*
X132074493Y-107315000D01*
X58425507Y-107315000D01*
X58414526Y-107314521D01*
X58366484Y-107310318D01*
X58210445Y-107296666D01*
X58188822Y-107292854D01*
X57996283Y-107241263D01*
X57975643Y-107233751D01*
X57952807Y-107223102D01*
X57794985Y-107149508D01*
X57775974Y-107138532D01*
X57612686Y-107024196D01*
X57595862Y-107010078D01*
X57454922Y-106869138D01*
X57440804Y-106852314D01*
X57425522Y-106830489D01*
X57326468Y-106689026D01*
X57315492Y-106670015D01*
X57231249Y-106489357D01*
X57223737Y-106468718D01*
X57172147Y-106276182D01*
X57168333Y-106254552D01*
X57150479Y-106050474D01*
X57150000Y-106039493D01*
X57150000Y-90170000D01*
X64770000Y-90170000D01*
X64770000Y-94615000D01*
X64789294Y-94835533D01*
X64846590Y-95049366D01*
X64848912Y-95054346D01*
X64848913Y-95054348D01*
X64937822Y-95245013D01*
X64937825Y-95245018D01*
X64940148Y-95250000D01*
X65067124Y-95431340D01*
X65223660Y-95587876D01*
X65228168Y-95591033D01*
X65228171Y-95591035D01*
X65303628Y-95643871D01*
X65405000Y-95714852D01*
X65409982Y-95717175D01*
X65409987Y-95717178D01*
X65600652Y-95806087D01*
X65605634Y-95808410D01*
X65610942Y-95809832D01*
X65610944Y-95809833D01*
X65814152Y-95864282D01*
X65814154Y-95864282D01*
X65819467Y-95865706D01*
X65947637Y-95876919D01*
X66037276Y-95884762D01*
X66037283Y-95884762D01*
X66040000Y-95885000D01*
X125730000Y-95885000D01*
X125732717Y-95884762D01*
X125732724Y-95884762D01*
X125822363Y-95876919D01*
X125950533Y-95865706D01*
X125955846Y-95864282D01*
X125955848Y-95864282D01*
X126159056Y-95809833D01*
X126159058Y-95809832D01*
X126164366Y-95808410D01*
X126169348Y-95806087D01*
X126360013Y-95717178D01*
X126360018Y-95717175D01*
X126365000Y-95714852D01*
X126466372Y-95643871D01*
X126541829Y-95591035D01*
X126541832Y-95591033D01*
X126546340Y-95587876D01*
X126702876Y-95431340D01*
X126829852Y-95250000D01*
X126832175Y-95245018D01*
X126832178Y-95245013D01*
X126921087Y-95054348D01*
X126921088Y-95054346D01*
X126923410Y-95049366D01*
X126980706Y-94835533D01*
X127000000Y-94615000D01*
X127000000Y-76835000D01*
X132074493Y-76835000D01*
X132085474Y-76835479D01*
G37*
%TD.AperFunction*%
%TD*%
%TA.AperFunction,Conductor*%
%TO.N,MOTOR_A*%
G36*
X111040613Y-85110002D02*
G01*
X111048044Y-85115306D01*
X111052298Y-85119552D01*
X111197899Y-85209302D01*
X111360243Y-85263149D01*
X111367080Y-85263849D01*
X111367082Y-85263850D01*
X111408401Y-85268083D01*
X111461268Y-85273500D01*
X112058732Y-85273500D01*
X112061978Y-85273163D01*
X112061982Y-85273163D01*
X112096083Y-85269625D01*
X112161019Y-85262887D01*
X112314726Y-85211606D01*
X112316324Y-85211073D01*
X112316326Y-85211072D01*
X112323268Y-85208756D01*
X112468713Y-85118752D01*
X112470866Y-85116596D01*
X112535049Y-85090617D01*
X112547502Y-85090000D01*
X124942492Y-85090000D01*
X125010613Y-85110002D01*
X125018044Y-85115306D01*
X125022298Y-85119552D01*
X125167899Y-85209302D01*
X125330243Y-85263149D01*
X125337080Y-85263849D01*
X125337082Y-85263850D01*
X125378401Y-85268083D01*
X125431268Y-85273500D01*
X125709341Y-85273500D01*
X125781612Y-85296287D01*
X125902314Y-85380804D01*
X125919138Y-85394922D01*
X126060078Y-85535862D01*
X126074196Y-85552686D01*
X126188532Y-85715974D01*
X126199508Y-85734985D01*
X126273102Y-85892807D01*
X126283751Y-85915643D01*
X126291263Y-85936282D01*
X126342853Y-86128818D01*
X126346667Y-86150448D01*
X126364521Y-86354526D01*
X126365000Y-86365507D01*
X126365000Y-93974493D01*
X126364521Y-93985474D01*
X126346667Y-94189552D01*
X126342853Y-94211182D01*
X126291263Y-94403718D01*
X126283751Y-94424357D01*
X126199508Y-94605015D01*
X126188532Y-94624026D01*
X126089478Y-94765489D01*
X126074196Y-94787314D01*
X126060078Y-94804138D01*
X125919138Y-94945078D01*
X125902314Y-94959196D01*
X125739026Y-95073532D01*
X125720015Y-95084508D01*
X125562193Y-95158102D01*
X125539357Y-95168751D01*
X125518717Y-95176263D01*
X125326178Y-95227854D01*
X125304555Y-95231666D01*
X125148516Y-95245318D01*
X125100474Y-95249521D01*
X125089493Y-95250000D01*
X105415507Y-95250000D01*
X105404526Y-95249521D01*
X105356484Y-95245318D01*
X105200445Y-95231666D01*
X105178822Y-95227854D01*
X104986283Y-95176263D01*
X104965643Y-95168751D01*
X104942807Y-95158102D01*
X104784985Y-95084508D01*
X104765974Y-95073532D01*
X104602686Y-94959196D01*
X104585862Y-94945078D01*
X104444922Y-94804138D01*
X104430804Y-94787314D01*
X104415522Y-94765489D01*
X104316468Y-94624026D01*
X104305492Y-94605015D01*
X104221249Y-94424357D01*
X104213737Y-94403718D01*
X104162147Y-94211182D01*
X104158333Y-94189552D01*
X104140479Y-93985474D01*
X104140000Y-93974493D01*
X104140000Y-86365507D01*
X104140479Y-86354526D01*
X104158333Y-86150448D01*
X104162147Y-86128818D01*
X104213737Y-85936282D01*
X104221249Y-85915643D01*
X104231898Y-85892807D01*
X104305492Y-85734985D01*
X104316468Y-85715974D01*
X104430804Y-85552686D01*
X104444922Y-85535862D01*
X104585862Y-85394922D01*
X104602686Y-85380804D01*
X104755931Y-85273500D01*
X104765974Y-85266468D01*
X104784985Y-85255492D01*
X104965642Y-85171249D01*
X104986282Y-85163737D01*
X105028375Y-85152458D01*
X105178822Y-85112146D01*
X105200445Y-85108334D01*
X105356484Y-85094682D01*
X105404526Y-85090479D01*
X105415507Y-85090000D01*
X110972492Y-85090000D01*
X111040613Y-85110002D01*
G37*
%TD.AperFunction*%
%TD*%
%TA.AperFunction,Conductor*%
%TO.N,MOTOR_B*%
G36*
X94530613Y-85110002D02*
G01*
X94538044Y-85115306D01*
X94542298Y-85119552D01*
X94687899Y-85209302D01*
X94850243Y-85263149D01*
X94857080Y-85263849D01*
X94857082Y-85263850D01*
X94898401Y-85268083D01*
X94951268Y-85273500D01*
X95548732Y-85273500D01*
X95551978Y-85273163D01*
X95551982Y-85273163D01*
X95586083Y-85269625D01*
X95651019Y-85262887D01*
X95804726Y-85211606D01*
X95806324Y-85211073D01*
X95806326Y-85211072D01*
X95813268Y-85208756D01*
X95958713Y-85118752D01*
X95960866Y-85116596D01*
X96025049Y-85090617D01*
X96037502Y-85090000D01*
X101594493Y-85090000D01*
X101605474Y-85090479D01*
X101653516Y-85094682D01*
X101809555Y-85108334D01*
X101831178Y-85112146D01*
X101981625Y-85152458D01*
X102023718Y-85163737D01*
X102044358Y-85171249D01*
X102225015Y-85255492D01*
X102244026Y-85266468D01*
X102254069Y-85273500D01*
X102407314Y-85380804D01*
X102424138Y-85394922D01*
X102565078Y-85535862D01*
X102579196Y-85552686D01*
X102693532Y-85715974D01*
X102704508Y-85734985D01*
X102778102Y-85892807D01*
X102788751Y-85915643D01*
X102796263Y-85936282D01*
X102847853Y-86128818D01*
X102851667Y-86150448D01*
X102869521Y-86354526D01*
X102870000Y-86365507D01*
X102870000Y-93974493D01*
X102869521Y-93985474D01*
X102851667Y-94189552D01*
X102847853Y-94211182D01*
X102796263Y-94403718D01*
X102788751Y-94424357D01*
X102704508Y-94605015D01*
X102693532Y-94624026D01*
X102594478Y-94765489D01*
X102579196Y-94787314D01*
X102565078Y-94804138D01*
X102424138Y-94945078D01*
X102407314Y-94959196D01*
X102244026Y-95073532D01*
X102225015Y-95084508D01*
X102067193Y-95158102D01*
X102044357Y-95168751D01*
X102023717Y-95176263D01*
X101831178Y-95227854D01*
X101809555Y-95231666D01*
X101653516Y-95245318D01*
X101605474Y-95249521D01*
X101594493Y-95250000D01*
X81920507Y-95250000D01*
X81909526Y-95249521D01*
X81861484Y-95245318D01*
X81705445Y-95231666D01*
X81683822Y-95227854D01*
X81491283Y-95176263D01*
X81470643Y-95168751D01*
X81447807Y-95158102D01*
X81289985Y-95084508D01*
X81270974Y-95073532D01*
X81107686Y-94959196D01*
X81090862Y-94945078D01*
X80949922Y-94804138D01*
X80935804Y-94787314D01*
X80920522Y-94765489D01*
X80821468Y-94624026D01*
X80810492Y-94605015D01*
X80726249Y-94424357D01*
X80718737Y-94403718D01*
X80667147Y-94211182D01*
X80663333Y-94189552D01*
X80645479Y-93985474D01*
X80645000Y-93974493D01*
X80645000Y-86365507D01*
X80645479Y-86354526D01*
X80663333Y-86150448D01*
X80667147Y-86128818D01*
X80718737Y-85936282D01*
X80726249Y-85915643D01*
X80736898Y-85892807D01*
X80810492Y-85734985D01*
X80821468Y-85715974D01*
X80935804Y-85552686D01*
X80949922Y-85535862D01*
X81090862Y-85394922D01*
X81107686Y-85380804D01*
X81228388Y-85296287D01*
X81300659Y-85273500D01*
X81578732Y-85273500D01*
X81581978Y-85273163D01*
X81581982Y-85273163D01*
X81616083Y-85269625D01*
X81681019Y-85262887D01*
X81834726Y-85211606D01*
X81836324Y-85211073D01*
X81836326Y-85211072D01*
X81843268Y-85208756D01*
X81988713Y-85118752D01*
X81990866Y-85116596D01*
X82055049Y-85090617D01*
X82067502Y-85090000D01*
X94462492Y-85090000D01*
X94530613Y-85110002D01*
G37*
%TD.AperFunction*%
%TD*%
%TA.AperFunction,Conductor*%
%TO.N,GND*%
G36*
X101605474Y-76835479D02*
G01*
X101653516Y-76839682D01*
X101809555Y-76853334D01*
X101831178Y-76857146D01*
X101898362Y-76875148D01*
X102023718Y-76908737D01*
X102044358Y-76916249D01*
X102225015Y-77000492D01*
X102244026Y-77011468D01*
X102385489Y-77110522D01*
X102407314Y-77125804D01*
X102424138Y-77139922D01*
X102565078Y-77280862D01*
X102579196Y-77297686D01*
X102693532Y-77460974D01*
X102704508Y-77479985D01*
X102778102Y-77637807D01*
X102788751Y-77660643D01*
X102796263Y-77681282D01*
X102847853Y-77873818D01*
X102851666Y-77895445D01*
X102853958Y-77921635D01*
X102869521Y-78099526D01*
X102870000Y-78110507D01*
X102870000Y-83179493D01*
X102869521Y-83190474D01*
X102851667Y-83394552D01*
X102847853Y-83416182D01*
X102796263Y-83608718D01*
X102788751Y-83629357D01*
X102704508Y-83810015D01*
X102693532Y-83829026D01*
X102646627Y-83896013D01*
X102579196Y-83992314D01*
X102565078Y-84009138D01*
X102424138Y-84150078D01*
X102407314Y-84164196D01*
X102244026Y-84278532D01*
X102225015Y-84289508D01*
X102067193Y-84363102D01*
X102044357Y-84373751D01*
X102023717Y-84381263D01*
X101831178Y-84432854D01*
X101809555Y-84436666D01*
X101653516Y-84450318D01*
X101605474Y-84454521D01*
X101594493Y-84455000D01*
X92715507Y-84455000D01*
X92704526Y-84454521D01*
X92656484Y-84450318D01*
X92500445Y-84436666D01*
X92478822Y-84432854D01*
X92286283Y-84381263D01*
X92265643Y-84373751D01*
X92242807Y-84363102D01*
X92084985Y-84289508D01*
X92065974Y-84278532D01*
X91902686Y-84164196D01*
X91885862Y-84150078D01*
X91744922Y-84009138D01*
X91730804Y-83992314D01*
X91663373Y-83896013D01*
X91640685Y-83828739D01*
X91655082Y-83767416D01*
X91655615Y-83766705D01*
X91706745Y-83630316D01*
X91713500Y-83568134D01*
X91713500Y-78871866D01*
X91706745Y-78809684D01*
X91655615Y-78673295D01*
X91632240Y-78642105D01*
X91607392Y-78575600D01*
X91623946Y-78503542D01*
X91639527Y-78476556D01*
X91698542Y-78294928D01*
X91718504Y-78105000D01*
X91698542Y-77915072D01*
X91639527Y-77733444D01*
X91588112Y-77644391D01*
X91571374Y-77575396D01*
X91583036Y-77528141D01*
X91605492Y-77479985D01*
X91616468Y-77460974D01*
X91693879Y-77350420D01*
X91749337Y-77306092D01*
X91785564Y-77297219D01*
X91845062Y-77291753D01*
X91879815Y-77280862D01*
X92001450Y-77242744D01*
X92001452Y-77242743D01*
X92008699Y-77240472D01*
X92155381Y-77151639D01*
X92276639Y-77030381D01*
X92336472Y-76931584D01*
X92388869Y-76883677D01*
X92411634Y-76875149D01*
X92478822Y-76857146D01*
X92500445Y-76853334D01*
X92656484Y-76839682D01*
X92704526Y-76835479D01*
X92715507Y-76835000D01*
X101594493Y-76835000D01*
X101605474Y-76835479D01*
G37*
%TD.AperFunction*%
%TD*%
M02*
