M48
; DRILL file {KiCad 6.0.2+dfsg-1} date Sat 04 Feb 2023 11:29:27 PM EST
; FORMAT={-:-/ absolute / inch / decimal}
; #@! TF.CreationDate,2023-02-04T23:29:27-05:00
; #@! TF.GenerationSoftware,Kicad,Pcbnew,6.0.2+dfsg-1
; #@! TF.FileFunction,Plated,1,2,PTH
FMAT,2
INCH
; #@! TA.AperFunction,Plated,PTH,ViaDrill
T1C0.0157
; #@! TA.AperFunction,Plated,PTH,ComponentDrill
T2C0.0394
; #@! TA.AperFunction,Plated,PTH,ComponentDrill
T3C0.0500
; #@! TA.AperFunction,Plated,PTH,ComponentDrill
T4C0.0512
%
G90
G05
T1
X2.99Y-1.625
X3.175Y-1.575
X3.18Y-1.72
X3.47Y-1.57
X3.79Y-1.625
X3.87Y-1.47
X3.975Y-1.62
X4.27Y-1.565
X4.28Y-1.465
X4.355Y-1.66
X4.355Y-1.76
X4.355Y-1.795
X4.355Y-1.83
X4.39Y-1.66
X4.39Y-1.76
X4.39Y-1.795
X4.39Y-1.83
X4.425Y-1.66
X4.425Y-1.76
X4.425Y-1.795
X4.425Y-1.83
T2
X3.7006Y-0.99
X3.8006Y-0.99
X3.9006Y-0.99
X4.0006Y-0.99
X4.1006Y-0.99
X4.2006Y-0.99
X4.3006Y-0.99
X4.4006Y-0.99
T4
X2.91Y-2.5711
X3.49Y-2.5711
X3.71Y-2.5711
X4.29Y-2.5711
X4.51Y-2.5711
X5.09Y-2.5711
T3
G00X3.118Y-1.8511
M15
G01X2.962Y-1.8511
M16
G05
G00X3.4333Y-1.8511
M15
G01X3.2767Y-1.8511
M16
G05
G00X3.918Y-1.8511
M15
G01X3.762Y-1.8511
M16
G05
G00X4.2333Y-1.8511
M15
G01X4.0767Y-1.8511
M16
G05
G00X4.718Y-1.8511
M15
G01X4.562Y-1.8511
M16
G05
G00X5.0333Y-1.8511
M15
G01X4.8767Y-1.8511
M16
G05
T0
M30
