%TF.GenerationSoftware,KiCad,Pcbnew,6.0.2+dfsg-1*%
%TF.CreationDate,2023-02-04T23:29:27-05:00*%
%TF.ProjectId,ups-test,7570732d-7465-4737-942e-6b696361645f,rev?*%
%TF.SameCoordinates,Original*%
%TF.FileFunction,Paste,Top*%
%TF.FilePolarity,Positive*%
%FSLAX46Y46*%
G04 Gerber Fmt 4.6, Leading zero omitted, Abs format (unit mm)*
G04 Created by KiCad (PCBNEW 6.0.2+dfsg-1) date 2023-02-04 23:29:27*
%MOMM*%
%LPD*%
G01*
G04 APERTURE LIST*
G04 Aperture macros list*
%AMRoundRect*
0 Rectangle with rounded corners*
0 $1 Rounding radius*
0 $2 $3 $4 $5 $6 $7 $8 $9 X,Y pos of 4 corners*
0 Add a 4 corners polygon primitive as box body*
4,1,4,$2,$3,$4,$5,$6,$7,$8,$9,$2,$3,0*
0 Add four circle primitives for the rounded corners*
1,1,$1+$1,$2,$3*
1,1,$1+$1,$4,$5*
1,1,$1+$1,$6,$7*
1,1,$1+$1,$8,$9*
0 Add four rect primitives between the rounded corners*
20,1,$1+$1,$2,$3,$4,$5,0*
20,1,$1+$1,$4,$5,$6,$7,0*
20,1,$1+$1,$6,$7,$8,$9,0*
20,1,$1+$1,$8,$9,$2,$3,0*%
G04 Aperture macros list end*
%ADD10RoundRect,0.250000X-0.450000X0.262500X-0.450000X-0.262500X0.450000X-0.262500X0.450000X0.262500X0*%
%ADD11RoundRect,0.140000X-0.140000X-0.170000X0.140000X-0.170000X0.140000X0.170000X-0.140000X0.170000X0*%
%ADD12RoundRect,0.225000X0.225000X0.250000X-0.225000X0.250000X-0.225000X-0.250000X0.225000X-0.250000X0*%
%ADD13RoundRect,0.135000X0.135000X0.185000X-0.135000X0.185000X-0.135000X-0.185000X0.135000X-0.185000X0*%
%ADD14RoundRect,0.200000X-0.200000X-0.275000X0.200000X-0.275000X0.200000X0.275000X-0.200000X0.275000X0*%
%ADD15R,2.750000X3.050000*%
%ADD16R,1.200000X2.200000*%
%ADD17RoundRect,0.250000X0.450000X-0.262500X0.450000X0.262500X-0.450000X0.262500X-0.450000X-0.262500X0*%
%ADD18RoundRect,0.150000X0.825000X0.150000X-0.825000X0.150000X-0.825000X-0.150000X0.825000X-0.150000X0*%
%ADD19RoundRect,0.150000X-0.512500X-0.150000X0.512500X-0.150000X0.512500X0.150000X-0.512500X0.150000X0*%
%ADD20RoundRect,0.140000X0.170000X-0.140000X0.170000X0.140000X-0.170000X0.140000X-0.170000X-0.140000X0*%
%ADD21R,3.050000X2.750000*%
%ADD22R,2.200000X1.200000*%
%ADD23RoundRect,0.100000X0.712500X0.100000X-0.712500X0.100000X-0.712500X-0.100000X0.712500X-0.100000X0*%
%ADD24RoundRect,0.250000X-0.250000X-0.475000X0.250000X-0.475000X0.250000X0.475000X-0.250000X0.475000X0*%
%ADD25RoundRect,0.135000X-0.185000X0.135000X-0.185000X-0.135000X0.185000X-0.135000X0.185000X0.135000X0*%
%ADD26RoundRect,0.100000X0.100000X-0.712500X0.100000X0.712500X-0.100000X0.712500X-0.100000X-0.712500X0*%
G04 APERTURE END LIST*
D10*
%TO.C,R5*%
X107442000Y-40743500D03*
X107442000Y-42568500D03*
%TD*%
D11*
%TO.C,C1*%
X76482000Y-31750000D03*
X77442000Y-31750000D03*
%TD*%
D12*
%TO.C,C8*%
X97041000Y-42164000D03*
X95491000Y-42164000D03*
%TD*%
D13*
%TO.C,R1*%
X75567000Y-31750000D03*
X74547000Y-31750000D03*
%TD*%
D14*
%TO.C,R7*%
X111062000Y-36195000D03*
X112712000Y-36195000D03*
%TD*%
D15*
%TO.C,Q2*%
X103378000Y-32840000D03*
X100328000Y-32840000D03*
X103378000Y-29490000D03*
X100328000Y-29490000D03*
D16*
X99573000Y-37465000D03*
X104133000Y-37465000D03*
%TD*%
D17*
%TO.C,R4*%
X89154000Y-42695500D03*
X89154000Y-40870500D03*
%TD*%
D12*
%TO.C,C5*%
X76721000Y-42164000D03*
X75171000Y-42164000D03*
%TD*%
D18*
%TO.C,U4*%
X104202000Y-43688000D03*
X104202000Y-42418000D03*
X104202000Y-41148000D03*
X104202000Y-39878000D03*
X99252000Y-39878000D03*
X99252000Y-41148000D03*
X99252000Y-42418000D03*
X99252000Y-43688000D03*
%TD*%
D19*
%TO.C,U5*%
X107066500Y-36261000D03*
X107066500Y-37211000D03*
X107066500Y-38161000D03*
X109341500Y-38161000D03*
X109341500Y-36261000D03*
%TD*%
D12*
%TO.C,C6*%
X97041000Y-43688000D03*
X95491000Y-43688000D03*
%TD*%
D20*
%TO.C,C2*%
X90805000Y-37056000D03*
X90805000Y-36096000D03*
%TD*%
D21*
%TO.C,Q3*%
X116503000Y-42673000D03*
X116503000Y-39623000D03*
X119853000Y-39623000D03*
X119853000Y-42673000D03*
D22*
X111878000Y-38868000D03*
X111878000Y-43428000D03*
%TD*%
D23*
%TO.C,U2*%
X96727500Y-38313000D03*
X96727500Y-37663000D03*
X96727500Y-37013000D03*
X96727500Y-36363000D03*
X92502500Y-36363000D03*
X92502500Y-37013000D03*
X92502500Y-37663000D03*
X92502500Y-38313000D03*
%TD*%
D12*
%TO.C,C4*%
X76721000Y-43688000D03*
X75171000Y-43688000D03*
%TD*%
D24*
%TO.C,C9*%
X107000000Y-34036000D03*
X108900000Y-34036000D03*
%TD*%
D12*
%TO.C,C7*%
X76721000Y-40005000D03*
X75171000Y-40005000D03*
%TD*%
%TO.C,C3*%
X97041000Y-40005000D03*
X95491000Y-40005000D03*
%TD*%
D18*
%TO.C,U3*%
X83882000Y-43688000D03*
X83882000Y-42418000D03*
X83882000Y-41148000D03*
X83882000Y-39878000D03*
X78932000Y-39878000D03*
X78932000Y-41148000D03*
X78932000Y-42418000D03*
X78932000Y-43688000D03*
%TD*%
D15*
%TO.C,Q1*%
X80015000Y-32840000D03*
X83065000Y-29490000D03*
X80015000Y-29490000D03*
X83065000Y-32840000D03*
D16*
X79260000Y-37465000D03*
X83820000Y-37465000D03*
%TD*%
D17*
%TO.C,R6*%
X109474000Y-42568500D03*
X109474000Y-40743500D03*
%TD*%
D25*
%TO.C,R2*%
X90805000Y-37971000D03*
X90805000Y-38991000D03*
%TD*%
D26*
%TO.C,U1*%
X75225000Y-37672500D03*
X75875000Y-37672500D03*
X76525000Y-37672500D03*
X77175000Y-37672500D03*
X77175000Y-33447500D03*
X76525000Y-33447500D03*
X75875000Y-33447500D03*
X75225000Y-33447500D03*
%TD*%
D10*
%TO.C,R3*%
X87122000Y-40870500D03*
X87122000Y-42695500D03*
%TD*%
M02*
