%TF.GenerationSoftware,KiCad,Pcbnew,6.0.2+dfsg-1*%
%TF.CreationDate,2023-02-04T23:29:27-05:00*%
%TF.ProjectId,ups-test,7570732d-7465-4737-942e-6b696361645f,rev?*%
%TF.SameCoordinates,Original*%
%TF.FileFunction,Copper,L2,Bot*%
%TF.FilePolarity,Positive*%
%FSLAX46Y46*%
G04 Gerber Fmt 4.6, Leading zero omitted, Abs format (unit mm)*
G04 Created by KiCad (PCBNEW 6.0.2+dfsg-1) date 2023-02-04 23:29:27*
%MOMM*%
%LPD*%
G01*
G04 APERTURE LIST*
%TA.AperFunction,ComponentPad*%
%ADD10R,1.700000X1.700000*%
%TD*%
%TA.AperFunction,ComponentPad*%
%ADD11O,1.700000X1.700000*%
%TD*%
%TA.AperFunction,ComponentPad*%
%ADD12C,2.500000*%
%TD*%
%TA.AperFunction,ComponentPad*%
%ADD13O,7.000000X3.000000*%
%TD*%
%TA.AperFunction,ViaPad*%
%ADD14C,0.800000*%
%TD*%
%TA.AperFunction,Conductor*%
%ADD15C,0.250000*%
%TD*%
G04 APERTURE END LIST*
D10*
%TO.P,J4,1,Pin_1*%
%TO.N,GND*%
X93995000Y-25146000D03*
D11*
%TO.P,J4,2,Pin_2*%
%TO.N,SENSE_PS*%
X96535000Y-25146000D03*
%TO.P,J4,3,Pin_3*%
%TO.N,PS_VOLTAGE*%
X99075000Y-25146000D03*
%TO.P,J4,4,Pin_4*%
%TO.N,SENSE_BATT*%
X101615000Y-25146000D03*
%TO.P,J4,5,Pin_5*%
%TO.N,BATTERY_VOLTAGE*%
X104155000Y-25146000D03*
%TO.P,J4,6,Pin_6*%
%TO.N,LOAD_TRIGGER*%
X106695000Y-25146000D03*
%TO.P,J4,7,Pin_7*%
%TO.N,+3V3*%
X109235000Y-25146000D03*
%TO.P,J4,8,Pin_8*%
%TO.N,OUT*%
X111775000Y-25146000D03*
%TD*%
D12*
%TO.P,J2,*%
%TO.N,*%
X94234000Y-65306000D03*
X108966000Y-65306000D03*
D13*
%TO.P,J2,1,+*%
%TO.N,+BATT*%
X105537000Y-47018000D03*
%TO.P,J2,2,-*%
%TO.N,GND*%
X97536000Y-47018000D03*
%TD*%
D12*
%TO.P,J3,*%
%TO.N,*%
X129286000Y-65306000D03*
X114554000Y-65306000D03*
D13*
%TO.P,J3,1,+*%
%TO.N,OUT*%
X125857000Y-47018000D03*
%TO.P,J3,2,-*%
%TO.N,LOAD_OUT*%
X117856000Y-47018000D03*
%TD*%
D12*
%TO.P,J1,*%
%TO.N,*%
X88646000Y-65306000D03*
X73914000Y-65306000D03*
D13*
%TO.P,J1,1,+*%
%TO.N,+12V*%
X85217000Y-47018000D03*
%TO.P,J1,2,-*%
%TO.N,GND*%
X77216000Y-47018000D03*
%TD*%
D14*
%TO.N,GND*%
X80645000Y-40005000D03*
%TO.N,+3V3*%
X80772000Y-43688000D03*
X100965000Y-41148000D03*
%TO.N,GND*%
X112395000Y-45593000D03*
X110617000Y-42164000D03*
X111506000Y-45593000D03*
X112395000Y-42164000D03*
X110617000Y-46482000D03*
X111506000Y-46482000D03*
X110617000Y-45593000D03*
X112395000Y-46482000D03*
X111506000Y-44704000D03*
X110617000Y-44704000D03*
X98298000Y-37338000D03*
X111506000Y-42164000D03*
X112395000Y-44704000D03*
%TO.N,SENSE_PS*%
X75946000Y-41275000D03*
%TO.N,SENSE_BATT*%
X96266000Y-41275000D03*
%TO.N,BATTERY_VOLTAGE*%
X108458000Y-39751000D03*
%TO.N,PS_VOLTAGE*%
X88138000Y-39878000D03*
%TO.N,LOAD_TRIGGER*%
X108712000Y-37211000D03*
%TD*%
D15*
%TO.N,+3V3*%
X100965000Y-41148000D02*
X109220000Y-41148000D01*
X109220000Y-41148000D02*
X110363000Y-40005000D01*
X110363000Y-40005000D02*
X110363000Y-26274000D01*
X110363000Y-26274000D02*
X109235000Y-25146000D01*
X80772000Y-43688000D02*
X98425000Y-43688000D01*
X98425000Y-43688000D02*
X100965000Y-41148000D01*
%TO.N,SENSE_PS*%
X75946000Y-41275000D02*
X82042000Y-41275000D01*
X96520000Y-26797000D02*
X96520000Y-25146000D01*
X82042000Y-41275000D02*
X96520000Y-26797000D01*
%TO.N,SENSE_BATT*%
X96266000Y-41275000D02*
X101600000Y-35941000D01*
X101600000Y-35941000D02*
X101600000Y-25146000D01*
%TO.N,BATTERY_VOLTAGE*%
X104140000Y-35433000D02*
X104140000Y-25146000D01*
X108458000Y-39751000D02*
X104140000Y-35433000D01*
%TO.N,PS_VOLTAGE*%
X88138000Y-39878000D02*
X99060000Y-28956000D01*
X99060000Y-28956000D02*
X99060000Y-25146000D01*
%TO.N,LOAD_TRIGGER*%
X106680000Y-35179000D02*
X106680000Y-25146000D01*
X108712000Y-37211000D02*
X106680000Y-35179000D01*
%TD*%
%TA.AperFunction,Conductor*%
%TO.N,GND*%
G36*
X95751608Y-24150002D02*
G01*
X95798101Y-24203658D01*
X95808205Y-24273932D01*
X95778711Y-24338512D01*
X95766565Y-24350732D01*
X95730392Y-24382455D01*
X95604720Y-24541869D01*
X95602031Y-24546980D01*
X95602029Y-24546983D01*
X95589073Y-24571609D01*
X95510203Y-24721515D01*
X95450007Y-24915378D01*
X95426148Y-25116964D01*
X95439424Y-25319522D01*
X95440845Y-25325118D01*
X95440846Y-25325123D01*
X95462508Y-25410414D01*
X95489392Y-25516269D01*
X95491809Y-25521512D01*
X95529010Y-25602208D01*
X95574377Y-25700616D01*
X95691533Y-25866389D01*
X95836938Y-26008035D01*
X95841742Y-26011245D01*
X95879138Y-26036232D01*
X96005720Y-26120812D01*
X96011020Y-26123089D01*
X96011029Y-26123094D01*
X96064237Y-26145953D01*
X96118930Y-26191221D01*
X96140500Y-26261721D01*
X96140500Y-26587616D01*
X96120498Y-26655737D01*
X96103595Y-26676711D01*
X81921711Y-40858595D01*
X81859399Y-40892621D01*
X81832616Y-40895500D01*
X76545682Y-40895500D01*
X76477561Y-40875498D01*
X76451114Y-40849860D01*
X76449878Y-40850949D01*
X76444855Y-40845251D01*
X76440553Y-40838992D01*
X76430717Y-40830228D01*
X76361434Y-40768500D01*
X76322275Y-40733611D01*
X76314889Y-40729700D01*
X76188988Y-40663039D01*
X76188989Y-40663039D01*
X76182274Y-40659484D01*
X76028633Y-40620892D01*
X76021034Y-40620852D01*
X76021033Y-40620852D01*
X75955181Y-40620507D01*
X75870221Y-40620062D01*
X75862841Y-40621834D01*
X75862839Y-40621834D01*
X75723563Y-40655271D01*
X75723560Y-40655272D01*
X75716184Y-40657043D01*
X75575414Y-40729700D01*
X75456039Y-40833838D01*
X75364950Y-40963444D01*
X75307406Y-41111037D01*
X75306414Y-41118570D01*
X75306414Y-41118571D01*
X75300220Y-41165623D01*
X75286729Y-41268096D01*
X75290305Y-41300487D01*
X75302464Y-41410615D01*
X75304113Y-41425553D01*
X75306723Y-41432684D01*
X75306723Y-41432686D01*
X75345780Y-41539414D01*
X75358553Y-41574319D01*
X75362789Y-41580622D01*
X75362789Y-41580623D01*
X75411859Y-41653646D01*
X75446908Y-41705805D01*
X75452527Y-41710918D01*
X75452528Y-41710919D01*
X75554488Y-41803695D01*
X75564076Y-41812419D01*
X75703293Y-41888008D01*
X75856522Y-41928207D01*
X75940477Y-41929526D01*
X76007319Y-41930576D01*
X76007322Y-41930576D01*
X76014916Y-41930695D01*
X76169332Y-41895329D01*
X76239742Y-41859917D01*
X76304072Y-41827563D01*
X76304075Y-41827561D01*
X76310855Y-41824151D01*
X76316626Y-41819222D01*
X76316629Y-41819220D01*
X76425542Y-41726199D01*
X76425543Y-41726198D01*
X76431314Y-41721269D01*
X76441586Y-41706974D01*
X76497581Y-41663326D01*
X76543909Y-41654500D01*
X81988080Y-41654500D01*
X82012028Y-41657049D01*
X82013693Y-41657128D01*
X82023876Y-41659320D01*
X82034217Y-41658096D01*
X82057223Y-41655373D01*
X82063154Y-41655023D01*
X82063146Y-41654928D01*
X82068324Y-41654500D01*
X82073524Y-41654500D01*
X82078653Y-41653646D01*
X82078656Y-41653646D01*
X82092565Y-41651331D01*
X82098443Y-41650494D01*
X82139001Y-41645694D01*
X82139002Y-41645694D01*
X82149341Y-41644470D01*
X82157593Y-41640507D01*
X82166626Y-41639004D01*
X82175795Y-41634057D01*
X82175797Y-41634056D01*
X82211732Y-41614666D01*
X82217025Y-41611969D01*
X82256082Y-41593215D01*
X82256086Y-41593212D01*
X82263232Y-41589781D01*
X82267508Y-41586186D01*
X82269431Y-41584263D01*
X82271363Y-41582491D01*
X82271442Y-41582448D01*
X82271555Y-41582572D01*
X82272095Y-41582096D01*
X82277814Y-41579010D01*
X82314417Y-41539413D01*
X82317846Y-41535848D01*
X96750216Y-27103478D01*
X96768964Y-27088336D01*
X96770189Y-27087221D01*
X96778940Y-27081571D01*
X96785387Y-27073393D01*
X96785389Y-27073391D01*
X96799729Y-27055200D01*
X96803675Y-27050759D01*
X96803602Y-27050697D01*
X96806961Y-27046733D01*
X96810638Y-27043056D01*
X96821892Y-27027308D01*
X96825398Y-27022638D01*
X96857156Y-26982353D01*
X96860188Y-26973719D01*
X96865514Y-26966266D01*
X96880203Y-26917150D01*
X96882036Y-26911508D01*
X96896390Y-26870633D01*
X96896390Y-26870632D01*
X96899018Y-26863149D01*
X96899500Y-26857584D01*
X96899500Y-26854876D01*
X96899614Y-26852242D01*
X96899643Y-26852144D01*
X96899807Y-26852151D01*
X96899851Y-26851447D01*
X96901713Y-26845222D01*
X96899597Y-26791365D01*
X96899500Y-26786418D01*
X96899500Y-26279043D01*
X96919502Y-26210922D01*
X96973158Y-26164429D01*
X96975593Y-26163463D01*
X96980699Y-26161190D01*
X96986165Y-26159334D01*
X97010059Y-26145953D01*
X97089165Y-26101651D01*
X97163276Y-26060147D01*
X97172149Y-26052768D01*
X97314913Y-25934031D01*
X97319345Y-25930345D01*
X97449147Y-25774276D01*
X97548334Y-25597165D01*
X97550190Y-25591698D01*
X97550192Y-25591693D01*
X97611728Y-25410414D01*
X97611729Y-25410409D01*
X97613584Y-25404945D01*
X97614412Y-25399236D01*
X97614413Y-25399231D01*
X97642179Y-25207727D01*
X97642712Y-25204053D01*
X97644232Y-25146000D01*
X97625658Y-24943859D01*
X97624090Y-24938299D01*
X97572125Y-24754046D01*
X97572124Y-24754044D01*
X97570557Y-24748487D01*
X97559978Y-24727033D01*
X97483331Y-24571609D01*
X97480776Y-24566428D01*
X97359320Y-24403779D01*
X97324757Y-24371829D01*
X97299546Y-24348524D01*
X97263101Y-24287596D01*
X97265382Y-24216636D01*
X97305665Y-24158174D01*
X97371160Y-24130771D01*
X97385075Y-24130000D01*
X98223487Y-24130000D01*
X98291608Y-24150002D01*
X98338101Y-24203658D01*
X98348205Y-24273932D01*
X98318711Y-24338512D01*
X98306565Y-24350732D01*
X98270392Y-24382455D01*
X98144720Y-24541869D01*
X98142031Y-24546980D01*
X98142029Y-24546983D01*
X98129073Y-24571609D01*
X98050203Y-24721515D01*
X97990007Y-24915378D01*
X97966148Y-25116964D01*
X97979424Y-25319522D01*
X97980845Y-25325118D01*
X97980846Y-25325123D01*
X98002508Y-25410414D01*
X98029392Y-25516269D01*
X98031809Y-25521512D01*
X98069010Y-25602208D01*
X98114377Y-25700616D01*
X98231533Y-25866389D01*
X98376938Y-26008035D01*
X98381742Y-26011245D01*
X98419138Y-26036232D01*
X98545720Y-26120812D01*
X98551020Y-26123089D01*
X98551029Y-26123094D01*
X98604237Y-26145953D01*
X98658930Y-26191221D01*
X98680500Y-26261721D01*
X98680500Y-28746616D01*
X98660498Y-28814737D01*
X98643595Y-28835711D01*
X88292411Y-39186895D01*
X88230099Y-39220921D01*
X88202658Y-39223798D01*
X88062221Y-39223062D01*
X88054841Y-39224834D01*
X88054839Y-39224834D01*
X87915563Y-39258271D01*
X87915560Y-39258272D01*
X87908184Y-39260043D01*
X87767414Y-39332700D01*
X87648039Y-39436838D01*
X87556950Y-39566444D01*
X87499406Y-39714037D01*
X87498414Y-39721570D01*
X87498414Y-39721571D01*
X87492220Y-39768623D01*
X87478729Y-39871096D01*
X87485088Y-39928695D01*
X87492891Y-39999365D01*
X87496113Y-40028553D01*
X87498723Y-40035684D01*
X87498723Y-40035686D01*
X87530420Y-40122301D01*
X87550553Y-40177319D01*
X87554789Y-40183622D01*
X87554789Y-40183623D01*
X87620487Y-40281391D01*
X87638908Y-40308805D01*
X87644527Y-40313918D01*
X87644528Y-40313919D01*
X87746488Y-40406695D01*
X87756076Y-40415419D01*
X87895293Y-40491008D01*
X88048522Y-40531207D01*
X88132477Y-40532526D01*
X88199319Y-40533576D01*
X88199322Y-40533576D01*
X88206916Y-40533695D01*
X88361332Y-40498329D01*
X88431742Y-40462917D01*
X88496072Y-40430563D01*
X88496075Y-40430561D01*
X88502855Y-40427151D01*
X88508626Y-40422222D01*
X88508629Y-40422220D01*
X88617536Y-40329204D01*
X88617536Y-40329203D01*
X88623314Y-40324269D01*
X88715755Y-40195624D01*
X88774842Y-40048641D01*
X88797162Y-39891807D01*
X88797307Y-39878000D01*
X88791437Y-39829496D01*
X88803109Y-39759468D01*
X88827429Y-39725265D01*
X99290216Y-29262478D01*
X99308964Y-29247336D01*
X99310189Y-29246221D01*
X99318940Y-29240571D01*
X99325387Y-29232393D01*
X99325389Y-29232391D01*
X99339729Y-29214200D01*
X99343676Y-29209758D01*
X99343603Y-29209696D01*
X99346961Y-29205733D01*
X99350638Y-29202056D01*
X99353660Y-29197827D01*
X99361859Y-29186354D01*
X99365422Y-29181608D01*
X99390707Y-29149533D01*
X99397156Y-29141353D01*
X99400189Y-29132717D01*
X99405514Y-29125265D01*
X99420204Y-29076145D01*
X99422039Y-29070498D01*
X99436391Y-29029630D01*
X99436391Y-29029628D01*
X99439018Y-29022149D01*
X99439500Y-29016584D01*
X99439500Y-29013877D01*
X99439614Y-29011245D01*
X99439644Y-29011144D01*
X99439807Y-29011151D01*
X99439851Y-29010451D01*
X99441714Y-29004222D01*
X99439597Y-28950350D01*
X99439500Y-28945402D01*
X99439500Y-26279043D01*
X99459502Y-26210922D01*
X99513158Y-26164429D01*
X99515593Y-26163463D01*
X99520699Y-26161190D01*
X99526165Y-26159334D01*
X99550059Y-26145953D01*
X99629165Y-26101651D01*
X99703276Y-26060147D01*
X99712149Y-26052768D01*
X99854913Y-25934031D01*
X99859345Y-25930345D01*
X99989147Y-25774276D01*
X100088334Y-25597165D01*
X100090190Y-25591698D01*
X100090192Y-25591693D01*
X100151728Y-25410414D01*
X100151729Y-25410409D01*
X100153584Y-25404945D01*
X100154412Y-25399236D01*
X100154413Y-25399231D01*
X100182179Y-25207727D01*
X100182712Y-25204053D01*
X100184232Y-25146000D01*
X100165658Y-24943859D01*
X100164090Y-24938299D01*
X100112125Y-24754046D01*
X100112124Y-24754044D01*
X100110557Y-24748487D01*
X100099978Y-24727033D01*
X100023331Y-24571609D01*
X100020776Y-24566428D01*
X99899320Y-24403779D01*
X99864757Y-24371829D01*
X99839546Y-24348524D01*
X99803101Y-24287596D01*
X99805382Y-24216636D01*
X99845665Y-24158174D01*
X99911160Y-24130771D01*
X99925075Y-24130000D01*
X100763487Y-24130000D01*
X100831608Y-24150002D01*
X100878101Y-24203658D01*
X100888205Y-24273932D01*
X100858711Y-24338512D01*
X100846565Y-24350732D01*
X100810392Y-24382455D01*
X100684720Y-24541869D01*
X100682031Y-24546980D01*
X100682029Y-24546983D01*
X100669073Y-24571609D01*
X100590203Y-24721515D01*
X100530007Y-24915378D01*
X100506148Y-25116964D01*
X100519424Y-25319522D01*
X100520845Y-25325118D01*
X100520846Y-25325123D01*
X100542508Y-25410414D01*
X100569392Y-25516269D01*
X100571809Y-25521512D01*
X100609010Y-25602208D01*
X100654377Y-25700616D01*
X100771533Y-25866389D01*
X100916938Y-26008035D01*
X100921742Y-26011245D01*
X100959138Y-26036232D01*
X101085720Y-26120812D01*
X101091020Y-26123089D01*
X101091029Y-26123094D01*
X101144237Y-26145953D01*
X101198930Y-26191221D01*
X101220500Y-26261721D01*
X101220500Y-35731616D01*
X101200498Y-35799737D01*
X101183595Y-35820711D01*
X96420411Y-40583895D01*
X96358099Y-40617921D01*
X96330658Y-40620798D01*
X96190221Y-40620062D01*
X96182841Y-40621834D01*
X96182839Y-40621834D01*
X96043563Y-40655271D01*
X96043560Y-40655272D01*
X96036184Y-40657043D01*
X95895414Y-40729700D01*
X95776039Y-40833838D01*
X95684950Y-40963444D01*
X95627406Y-41111037D01*
X95626414Y-41118570D01*
X95626414Y-41118571D01*
X95620220Y-41165623D01*
X95606729Y-41268096D01*
X95610305Y-41300487D01*
X95622464Y-41410615D01*
X95624113Y-41425553D01*
X95626723Y-41432684D01*
X95626723Y-41432686D01*
X95665780Y-41539414D01*
X95678553Y-41574319D01*
X95682789Y-41580622D01*
X95682789Y-41580623D01*
X95731859Y-41653646D01*
X95766908Y-41705805D01*
X95772527Y-41710918D01*
X95772528Y-41710919D01*
X95874488Y-41803695D01*
X95884076Y-41812419D01*
X96023293Y-41888008D01*
X96176522Y-41928207D01*
X96260477Y-41929526D01*
X96327319Y-41930576D01*
X96327322Y-41930576D01*
X96334916Y-41930695D01*
X96489332Y-41895329D01*
X96559742Y-41859917D01*
X96624072Y-41827563D01*
X96624075Y-41827561D01*
X96630855Y-41824151D01*
X96636626Y-41819222D01*
X96636629Y-41819220D01*
X96745536Y-41726204D01*
X96745536Y-41726203D01*
X96751314Y-41721269D01*
X96843755Y-41592624D01*
X96902842Y-41445641D01*
X96925162Y-41288807D01*
X96925307Y-41275000D01*
X96919437Y-41226496D01*
X96931109Y-41156468D01*
X96955429Y-41122265D01*
X101830216Y-36247478D01*
X101848964Y-36232336D01*
X101850189Y-36231221D01*
X101858940Y-36225571D01*
X101865387Y-36217393D01*
X101865389Y-36217391D01*
X101879729Y-36199200D01*
X101883678Y-36194756D01*
X101883604Y-36194694D01*
X101886957Y-36190737D01*
X101890638Y-36187056D01*
X101901865Y-36171346D01*
X101905421Y-36166609D01*
X101930708Y-36134532D01*
X101937156Y-36126353D01*
X101940189Y-36117716D01*
X101945513Y-36110266D01*
X101960202Y-36061151D01*
X101962034Y-36055514D01*
X101976390Y-36014633D01*
X101976390Y-36014632D01*
X101979018Y-36007149D01*
X101979500Y-36001584D01*
X101979500Y-35998876D01*
X101979614Y-35996242D01*
X101979643Y-35996144D01*
X101979807Y-35996151D01*
X101979851Y-35995447D01*
X101981713Y-35989222D01*
X101979597Y-35935365D01*
X101979500Y-35930418D01*
X101979500Y-26279043D01*
X101999502Y-26210922D01*
X102053158Y-26164429D01*
X102055593Y-26163463D01*
X102060699Y-26161190D01*
X102066165Y-26159334D01*
X102090059Y-26145953D01*
X102169165Y-26101651D01*
X102243276Y-26060147D01*
X102252149Y-26052768D01*
X102394913Y-25934031D01*
X102399345Y-25930345D01*
X102529147Y-25774276D01*
X102628334Y-25597165D01*
X102630190Y-25591698D01*
X102630192Y-25591693D01*
X102691728Y-25410414D01*
X102691729Y-25410409D01*
X102693584Y-25404945D01*
X102694412Y-25399236D01*
X102694413Y-25399231D01*
X102722179Y-25207727D01*
X102722712Y-25204053D01*
X102724232Y-25146000D01*
X102705658Y-24943859D01*
X102704090Y-24938299D01*
X102652125Y-24754046D01*
X102652124Y-24754044D01*
X102650557Y-24748487D01*
X102639978Y-24727033D01*
X102563331Y-24571609D01*
X102560776Y-24566428D01*
X102439320Y-24403779D01*
X102404757Y-24371829D01*
X102379546Y-24348524D01*
X102343101Y-24287596D01*
X102345382Y-24216636D01*
X102385665Y-24158174D01*
X102451160Y-24130771D01*
X102465075Y-24130000D01*
X103303487Y-24130000D01*
X103371608Y-24150002D01*
X103418101Y-24203658D01*
X103428205Y-24273932D01*
X103398711Y-24338512D01*
X103386565Y-24350732D01*
X103350392Y-24382455D01*
X103224720Y-24541869D01*
X103222031Y-24546980D01*
X103222029Y-24546983D01*
X103209073Y-24571609D01*
X103130203Y-24721515D01*
X103070007Y-24915378D01*
X103046148Y-25116964D01*
X103059424Y-25319522D01*
X103060845Y-25325118D01*
X103060846Y-25325123D01*
X103082508Y-25410414D01*
X103109392Y-25516269D01*
X103111809Y-25521512D01*
X103149010Y-25602208D01*
X103194377Y-25700616D01*
X103311533Y-25866389D01*
X103456938Y-26008035D01*
X103461742Y-26011245D01*
X103499138Y-26036232D01*
X103625720Y-26120812D01*
X103631020Y-26123089D01*
X103631029Y-26123094D01*
X103684237Y-26145953D01*
X103738930Y-26191221D01*
X103760500Y-26261721D01*
X103760500Y-35379080D01*
X103757951Y-35403028D01*
X103757872Y-35404693D01*
X103755680Y-35414876D01*
X103756904Y-35425217D01*
X103759627Y-35448223D01*
X103759977Y-35454154D01*
X103760072Y-35454146D01*
X103760500Y-35459324D01*
X103760500Y-35464524D01*
X103761354Y-35469653D01*
X103761354Y-35469656D01*
X103763669Y-35483565D01*
X103764506Y-35489443D01*
X103770530Y-35540341D01*
X103774493Y-35548593D01*
X103775996Y-35557626D01*
X103780943Y-35566795D01*
X103780944Y-35566797D01*
X103800334Y-35602732D01*
X103803031Y-35608025D01*
X103821785Y-35647082D01*
X103821788Y-35647086D01*
X103825219Y-35654232D01*
X103828814Y-35658508D01*
X103830737Y-35660431D01*
X103832509Y-35662363D01*
X103832552Y-35662442D01*
X103832428Y-35662555D01*
X103832904Y-35663095D01*
X103835990Y-35668814D01*
X103843635Y-35675881D01*
X103875586Y-35705416D01*
X103879152Y-35708846D01*
X107768249Y-39597943D01*
X107802275Y-39660255D01*
X107804076Y-39703482D01*
X107798729Y-39744096D01*
X107804417Y-39795616D01*
X107814582Y-39887682D01*
X107816113Y-39901553D01*
X107818723Y-39908684D01*
X107818723Y-39908686D01*
X107867808Y-40042817D01*
X107870553Y-40050319D01*
X107874789Y-40056622D01*
X107874789Y-40056623D01*
X107951100Y-40170185D01*
X107958908Y-40181805D01*
X107964527Y-40186918D01*
X107964528Y-40186919D01*
X108068352Y-40281391D01*
X108076076Y-40288419D01*
X108215293Y-40364008D01*
X108368522Y-40404207D01*
X108452477Y-40405526D01*
X108519319Y-40406576D01*
X108519322Y-40406576D01*
X108526916Y-40406695D01*
X108681332Y-40371329D01*
X108765089Y-40329204D01*
X108816072Y-40303563D01*
X108816075Y-40303561D01*
X108822855Y-40300151D01*
X108828626Y-40295222D01*
X108828629Y-40295220D01*
X108937536Y-40202204D01*
X108937536Y-40202203D01*
X108943314Y-40197269D01*
X109035755Y-40068624D01*
X109094842Y-39921641D01*
X109105350Y-39847806D01*
X109116581Y-39768891D01*
X109116581Y-39768888D01*
X109117162Y-39764807D01*
X109117307Y-39751000D01*
X109115561Y-39736567D01*
X109099188Y-39601273D01*
X109098276Y-39593733D01*
X109042280Y-39445546D01*
X108968152Y-39337689D01*
X108956855Y-39321251D01*
X108956854Y-39321249D01*
X108952553Y-39314992D01*
X108834275Y-39209611D01*
X108694274Y-39135484D01*
X108540633Y-39096892D01*
X108533034Y-39096852D01*
X108533033Y-39096852D01*
X108472626Y-39096536D01*
X108391335Y-39096110D01*
X108323321Y-39075752D01*
X108302901Y-39059207D01*
X104556405Y-35312711D01*
X104522379Y-35250399D01*
X104519500Y-35223616D01*
X104519500Y-26279043D01*
X104539502Y-26210922D01*
X104593158Y-26164429D01*
X104595593Y-26163463D01*
X104600699Y-26161190D01*
X104606165Y-26159334D01*
X104630059Y-26145953D01*
X104709165Y-26101651D01*
X104783276Y-26060147D01*
X104792149Y-26052768D01*
X104934913Y-25934031D01*
X104939345Y-25930345D01*
X105069147Y-25774276D01*
X105168334Y-25597165D01*
X105170190Y-25591698D01*
X105170192Y-25591693D01*
X105231728Y-25410414D01*
X105231729Y-25410409D01*
X105233584Y-25404945D01*
X105234412Y-25399236D01*
X105234413Y-25399231D01*
X105262179Y-25207727D01*
X105262712Y-25204053D01*
X105264232Y-25146000D01*
X105245658Y-24943859D01*
X105244090Y-24938299D01*
X105192125Y-24754046D01*
X105192124Y-24754044D01*
X105190557Y-24748487D01*
X105179978Y-24727033D01*
X105103331Y-24571609D01*
X105100776Y-24566428D01*
X104979320Y-24403779D01*
X104944757Y-24371829D01*
X104919546Y-24348524D01*
X104883101Y-24287596D01*
X104885382Y-24216636D01*
X104925665Y-24158174D01*
X104991160Y-24130771D01*
X105005075Y-24130000D01*
X105843487Y-24130000D01*
X105911608Y-24150002D01*
X105958101Y-24203658D01*
X105968205Y-24273932D01*
X105938711Y-24338512D01*
X105926565Y-24350732D01*
X105890392Y-24382455D01*
X105764720Y-24541869D01*
X105762031Y-24546980D01*
X105762029Y-24546983D01*
X105749073Y-24571609D01*
X105670203Y-24721515D01*
X105610007Y-24915378D01*
X105586148Y-25116964D01*
X105599424Y-25319522D01*
X105600845Y-25325118D01*
X105600846Y-25325123D01*
X105622508Y-25410414D01*
X105649392Y-25516269D01*
X105651809Y-25521512D01*
X105689010Y-25602208D01*
X105734377Y-25700616D01*
X105851533Y-25866389D01*
X105996938Y-26008035D01*
X106001742Y-26011245D01*
X106039138Y-26036232D01*
X106165720Y-26120812D01*
X106171020Y-26123089D01*
X106171029Y-26123094D01*
X106224237Y-26145953D01*
X106278930Y-26191221D01*
X106300500Y-26261721D01*
X106300500Y-35125080D01*
X106297951Y-35149028D01*
X106297872Y-35150693D01*
X106295680Y-35160876D01*
X106296904Y-35171217D01*
X106299627Y-35194223D01*
X106299977Y-35200154D01*
X106300072Y-35200146D01*
X106300500Y-35205324D01*
X106300500Y-35210524D01*
X106301354Y-35215653D01*
X106301354Y-35215656D01*
X106303669Y-35229565D01*
X106304506Y-35235443D01*
X106310530Y-35286341D01*
X106314493Y-35294593D01*
X106315996Y-35303626D01*
X106320943Y-35312795D01*
X106320944Y-35312797D01*
X106340334Y-35348732D01*
X106343031Y-35354025D01*
X106361785Y-35393082D01*
X106361788Y-35393086D01*
X106365219Y-35400232D01*
X106368814Y-35404508D01*
X106370737Y-35406431D01*
X106372509Y-35408363D01*
X106372552Y-35408442D01*
X106372428Y-35408555D01*
X106372904Y-35409095D01*
X106375990Y-35414814D01*
X106383635Y-35421881D01*
X106415586Y-35451416D01*
X106419152Y-35454846D01*
X108022249Y-37057943D01*
X108056275Y-37120255D01*
X108058076Y-37163482D01*
X108052729Y-37204096D01*
X108070113Y-37361553D01*
X108124553Y-37510319D01*
X108212908Y-37641805D01*
X108218527Y-37646918D01*
X108218528Y-37646919D01*
X108229903Y-37657269D01*
X108330076Y-37748419D01*
X108469293Y-37824008D01*
X108622522Y-37864207D01*
X108706477Y-37865526D01*
X108773319Y-37866576D01*
X108773322Y-37866576D01*
X108780916Y-37866695D01*
X108935332Y-37831329D01*
X109005742Y-37795917D01*
X109070072Y-37763563D01*
X109070075Y-37763561D01*
X109076855Y-37760151D01*
X109082626Y-37755222D01*
X109082629Y-37755220D01*
X109191536Y-37662204D01*
X109191536Y-37662203D01*
X109197314Y-37657269D01*
X109289755Y-37528624D01*
X109348842Y-37381641D01*
X109371162Y-37224807D01*
X109371307Y-37211000D01*
X109369561Y-37196567D01*
X109353188Y-37061273D01*
X109352276Y-37053733D01*
X109296280Y-36905546D01*
X109206553Y-36774992D01*
X109088275Y-36669611D01*
X108948274Y-36595484D01*
X108794633Y-36556892D01*
X108787034Y-36556852D01*
X108787033Y-36556852D01*
X108726626Y-36556536D01*
X108645335Y-36556110D01*
X108577321Y-36535752D01*
X108556901Y-36519207D01*
X107096405Y-35058711D01*
X107062379Y-34996399D01*
X107059500Y-34969616D01*
X107059500Y-26279043D01*
X107079502Y-26210922D01*
X107133158Y-26164429D01*
X107135593Y-26163463D01*
X107140699Y-26161190D01*
X107146165Y-26159334D01*
X107170059Y-26145953D01*
X107249165Y-26101651D01*
X107323276Y-26060147D01*
X107332149Y-26052768D01*
X107474913Y-25934031D01*
X107479345Y-25930345D01*
X107609147Y-25774276D01*
X107708334Y-25597165D01*
X107710190Y-25591698D01*
X107710192Y-25591693D01*
X107771728Y-25410414D01*
X107771729Y-25410409D01*
X107773584Y-25404945D01*
X107774412Y-25399236D01*
X107774413Y-25399231D01*
X107802179Y-25207727D01*
X107802712Y-25204053D01*
X107804232Y-25146000D01*
X107785658Y-24943859D01*
X107784090Y-24938299D01*
X107732125Y-24754046D01*
X107732124Y-24754044D01*
X107730557Y-24748487D01*
X107719978Y-24727033D01*
X107643331Y-24571609D01*
X107640776Y-24566428D01*
X107519320Y-24403779D01*
X107484757Y-24371829D01*
X107459546Y-24348524D01*
X107423101Y-24287596D01*
X107425382Y-24216636D01*
X107465665Y-24158174D01*
X107531160Y-24130771D01*
X107545075Y-24130000D01*
X108383487Y-24130000D01*
X108451608Y-24150002D01*
X108498101Y-24203658D01*
X108508205Y-24273932D01*
X108478711Y-24338512D01*
X108466565Y-24350732D01*
X108430392Y-24382455D01*
X108304720Y-24541869D01*
X108302031Y-24546980D01*
X108302029Y-24546983D01*
X108289073Y-24571609D01*
X108210203Y-24721515D01*
X108150007Y-24915378D01*
X108126148Y-25116964D01*
X108139424Y-25319522D01*
X108140845Y-25325118D01*
X108140846Y-25325123D01*
X108162508Y-25410414D01*
X108189392Y-25516269D01*
X108191809Y-25521512D01*
X108229010Y-25602208D01*
X108274377Y-25700616D01*
X108391533Y-25866389D01*
X108536938Y-26008035D01*
X108541742Y-26011245D01*
X108579138Y-26036232D01*
X108705720Y-26120812D01*
X108711023Y-26123090D01*
X108711026Y-26123092D01*
X108886921Y-26198662D01*
X108892228Y-26200942D01*
X108965244Y-26217464D01*
X109084579Y-26244467D01*
X109084584Y-26244468D01*
X109090216Y-26245742D01*
X109095987Y-26245969D01*
X109095989Y-26245969D01*
X109155756Y-26248317D01*
X109293053Y-26253712D01*
X109405941Y-26237344D01*
X109488231Y-26225413D01*
X109488236Y-26225412D01*
X109493945Y-26224584D01*
X109505956Y-26220507D01*
X109592229Y-26191221D01*
X109630991Y-26178063D01*
X109701926Y-26175107D01*
X109760587Y-26208281D01*
X109946595Y-26394289D01*
X109980621Y-26456601D01*
X109983500Y-26483384D01*
X109983500Y-39795616D01*
X109963498Y-39863737D01*
X109946595Y-39884711D01*
X109099711Y-40731595D01*
X109037399Y-40765621D01*
X109010616Y-40768500D01*
X101564682Y-40768500D01*
X101496561Y-40748498D01*
X101470114Y-40722860D01*
X101468878Y-40723949D01*
X101463855Y-40718251D01*
X101459553Y-40711992D01*
X101341275Y-40606611D01*
X101333889Y-40602700D01*
X101207988Y-40536039D01*
X101207989Y-40536039D01*
X101201274Y-40532484D01*
X101047633Y-40493892D01*
X101040034Y-40493852D01*
X101040033Y-40493852D01*
X100974181Y-40493507D01*
X100889221Y-40493062D01*
X100881841Y-40494834D01*
X100881839Y-40494834D01*
X100742563Y-40528271D01*
X100742560Y-40528272D01*
X100735184Y-40530043D01*
X100594414Y-40602700D01*
X100475039Y-40706838D01*
X100383950Y-40836444D01*
X100326406Y-40984037D01*
X100305729Y-41141096D01*
X100306563Y-41148647D01*
X100311963Y-41197566D01*
X100299557Y-41267470D01*
X100275819Y-41300487D01*
X98304711Y-43271595D01*
X98242399Y-43305621D01*
X98215616Y-43308500D01*
X81371682Y-43308500D01*
X81303561Y-43288498D01*
X81277114Y-43262860D01*
X81275878Y-43263949D01*
X81270855Y-43258251D01*
X81266553Y-43251992D01*
X81148275Y-43146611D01*
X81140889Y-43142700D01*
X81014988Y-43076039D01*
X81014989Y-43076039D01*
X81008274Y-43072484D01*
X80854633Y-43033892D01*
X80847034Y-43033852D01*
X80847033Y-43033852D01*
X80781181Y-43033507D01*
X80696221Y-43033062D01*
X80688841Y-43034834D01*
X80688839Y-43034834D01*
X80549563Y-43068271D01*
X80549560Y-43068272D01*
X80542184Y-43070043D01*
X80401414Y-43142700D01*
X80282039Y-43246838D01*
X80190950Y-43376444D01*
X80133406Y-43524037D01*
X80112729Y-43681096D01*
X80130113Y-43838553D01*
X80132723Y-43845684D01*
X80132723Y-43845686D01*
X80171780Y-43952414D01*
X80184553Y-43987319D01*
X80188789Y-43993622D01*
X80188789Y-43993623D01*
X80237859Y-44066646D01*
X80272908Y-44118805D01*
X80278527Y-44123918D01*
X80278528Y-44123919D01*
X80289903Y-44134269D01*
X80390076Y-44225419D01*
X80529293Y-44301008D01*
X80682522Y-44341207D01*
X80766477Y-44342526D01*
X80833319Y-44343576D01*
X80833322Y-44343576D01*
X80840916Y-44343695D01*
X80995332Y-44308329D01*
X81065742Y-44272917D01*
X81130072Y-44240563D01*
X81130075Y-44240561D01*
X81136855Y-44237151D01*
X81142626Y-44232222D01*
X81142629Y-44232220D01*
X81251542Y-44139199D01*
X81251543Y-44139198D01*
X81257314Y-44134269D01*
X81267586Y-44119974D01*
X81323581Y-44076326D01*
X81369909Y-44067500D01*
X98371080Y-44067500D01*
X98395028Y-44070049D01*
X98396693Y-44070128D01*
X98406876Y-44072320D01*
X98417217Y-44071096D01*
X98440223Y-44068373D01*
X98446154Y-44068023D01*
X98446146Y-44067928D01*
X98451324Y-44067500D01*
X98456524Y-44067500D01*
X98461653Y-44066646D01*
X98461656Y-44066646D01*
X98475565Y-44064331D01*
X98481443Y-44063494D01*
X98522001Y-44058694D01*
X98522002Y-44058694D01*
X98532341Y-44057470D01*
X98540593Y-44053507D01*
X98549626Y-44052004D01*
X98558795Y-44047057D01*
X98558797Y-44047056D01*
X98594732Y-44027666D01*
X98600025Y-44024969D01*
X98639082Y-44006215D01*
X98639086Y-44006212D01*
X98646232Y-44002781D01*
X98650508Y-43999186D01*
X98652431Y-43997263D01*
X98654363Y-43995491D01*
X98654442Y-43995448D01*
X98654555Y-43995572D01*
X98655095Y-43995096D01*
X98660814Y-43992010D01*
X98697417Y-43952413D01*
X98700846Y-43948848D01*
X100811179Y-41838516D01*
X100873491Y-41804490D01*
X100902253Y-41801627D01*
X101026318Y-41803576D01*
X101026321Y-41803576D01*
X101033916Y-41803695D01*
X101188332Y-41768329D01*
X101272099Y-41726199D01*
X101323072Y-41700563D01*
X101323075Y-41700561D01*
X101329855Y-41697151D01*
X101335626Y-41692222D01*
X101335629Y-41692220D01*
X101444542Y-41599199D01*
X101444543Y-41599198D01*
X101450314Y-41594269D01*
X101460586Y-41579974D01*
X101516581Y-41536326D01*
X101562909Y-41527500D01*
X109166080Y-41527500D01*
X109190028Y-41530049D01*
X109191693Y-41530128D01*
X109201876Y-41532320D01*
X109212217Y-41531096D01*
X109235223Y-41528373D01*
X109241154Y-41528023D01*
X109241146Y-41527928D01*
X109246324Y-41527500D01*
X109251524Y-41527500D01*
X109256653Y-41526646D01*
X109256656Y-41526646D01*
X109270565Y-41524331D01*
X109276443Y-41523494D01*
X109317001Y-41518694D01*
X109317002Y-41518694D01*
X109327341Y-41517470D01*
X109335593Y-41513507D01*
X109344626Y-41512004D01*
X109353795Y-41507057D01*
X109353797Y-41507056D01*
X109389732Y-41487666D01*
X109395025Y-41484969D01*
X109434082Y-41466215D01*
X109434086Y-41466212D01*
X109441232Y-41462781D01*
X109445508Y-41459186D01*
X109447431Y-41457263D01*
X109449363Y-41455491D01*
X109449442Y-41455448D01*
X109449555Y-41455572D01*
X109450095Y-41455096D01*
X109455814Y-41452010D01*
X109492417Y-41412413D01*
X109495846Y-41408848D01*
X110593216Y-40311478D01*
X110611964Y-40296336D01*
X110613191Y-40295220D01*
X110621940Y-40289571D01*
X110628387Y-40281393D01*
X110628389Y-40281391D01*
X110642729Y-40263200D01*
X110646675Y-40258759D01*
X110646602Y-40258697D01*
X110649961Y-40254733D01*
X110653638Y-40251056D01*
X110664892Y-40235308D01*
X110668398Y-40230638D01*
X110700156Y-40190353D01*
X110703188Y-40181719D01*
X110708514Y-40174266D01*
X110723203Y-40125150D01*
X110725036Y-40119508D01*
X110739390Y-40078633D01*
X110739390Y-40078632D01*
X110742018Y-40071149D01*
X110742500Y-40065584D01*
X110742500Y-40062876D01*
X110742614Y-40060242D01*
X110742643Y-40060144D01*
X110742807Y-40060151D01*
X110742851Y-40059447D01*
X110744713Y-40053222D01*
X110742597Y-39999365D01*
X110742500Y-39994418D01*
X110742500Y-26327920D01*
X110745049Y-26303972D01*
X110745128Y-26302307D01*
X110747320Y-26292124D01*
X110743373Y-26258777D01*
X110743023Y-26252846D01*
X110742928Y-26252854D01*
X110742500Y-26247676D01*
X110742500Y-26242476D01*
X110739522Y-26224584D01*
X110739331Y-26223435D01*
X110738494Y-26217557D01*
X110733694Y-26176999D01*
X110733694Y-26176998D01*
X110732470Y-26166659D01*
X110728507Y-26158407D01*
X110727004Y-26149374D01*
X110702665Y-26104266D01*
X110699969Y-26098975D01*
X110681215Y-26059918D01*
X110681212Y-26059914D01*
X110677781Y-26052768D01*
X110674186Y-26048492D01*
X110672263Y-26046569D01*
X110670491Y-26044637D01*
X110670448Y-26044558D01*
X110670572Y-26044445D01*
X110670096Y-26043905D01*
X110667010Y-26038186D01*
X110627413Y-26001583D01*
X110623848Y-25998154D01*
X110297281Y-25671587D01*
X110263255Y-25609275D01*
X110267063Y-25541991D01*
X110275795Y-25516269D01*
X110313584Y-25404945D01*
X110314412Y-25399236D01*
X110314413Y-25399231D01*
X110342179Y-25207727D01*
X110342712Y-25204053D01*
X110344232Y-25146000D01*
X110325658Y-24943859D01*
X110324090Y-24938299D01*
X110272125Y-24754046D01*
X110272124Y-24754044D01*
X110270557Y-24748487D01*
X110259978Y-24727033D01*
X110183331Y-24571609D01*
X110180776Y-24566428D01*
X110059320Y-24403779D01*
X110024757Y-24371829D01*
X109999546Y-24348524D01*
X109963101Y-24287596D01*
X109965382Y-24216636D01*
X110005665Y-24158174D01*
X110071160Y-24130771D01*
X110085075Y-24130000D01*
X110923487Y-24130000D01*
X110991608Y-24150002D01*
X111038101Y-24203658D01*
X111048205Y-24273932D01*
X111018711Y-24338512D01*
X111006565Y-24350732D01*
X110970392Y-24382455D01*
X110844720Y-24541869D01*
X110842031Y-24546980D01*
X110842029Y-24546983D01*
X110829073Y-24571609D01*
X110750203Y-24721515D01*
X110690007Y-24915378D01*
X110666148Y-25116964D01*
X110679424Y-25319522D01*
X110680845Y-25325118D01*
X110680846Y-25325123D01*
X110702508Y-25410414D01*
X110729392Y-25516269D01*
X110731809Y-25521512D01*
X110769010Y-25602208D01*
X110814377Y-25700616D01*
X110931533Y-25866389D01*
X111076938Y-26008035D01*
X111081742Y-26011245D01*
X111119138Y-26036232D01*
X111245720Y-26120812D01*
X111251023Y-26123090D01*
X111251026Y-26123092D01*
X111426921Y-26198662D01*
X111432228Y-26200942D01*
X111505244Y-26217464D01*
X111624579Y-26244467D01*
X111624584Y-26244468D01*
X111630216Y-26245742D01*
X111635987Y-26245969D01*
X111635989Y-26245969D01*
X111695756Y-26248317D01*
X111833053Y-26253712D01*
X111945941Y-26237344D01*
X112028231Y-26225413D01*
X112028236Y-26225412D01*
X112033945Y-26224584D01*
X112039409Y-26222729D01*
X112039414Y-26222728D01*
X112220693Y-26161192D01*
X112220698Y-26161190D01*
X112226165Y-26159334D01*
X112250059Y-26145953D01*
X112329165Y-26101651D01*
X112403276Y-26060147D01*
X112412149Y-26052768D01*
X112554913Y-25934031D01*
X112559345Y-25930345D01*
X112689147Y-25774276D01*
X112788334Y-25597165D01*
X112790190Y-25591698D01*
X112790192Y-25591693D01*
X112851728Y-25410414D01*
X112851729Y-25410409D01*
X112853584Y-25404945D01*
X112854412Y-25399236D01*
X112854413Y-25399231D01*
X112882179Y-25207727D01*
X112882712Y-25204053D01*
X112884232Y-25146000D01*
X112865658Y-24943859D01*
X112864090Y-24938299D01*
X112812125Y-24754046D01*
X112812124Y-24754044D01*
X112810557Y-24748487D01*
X112799978Y-24727033D01*
X112723331Y-24571609D01*
X112720776Y-24566428D01*
X112599320Y-24403779D01*
X112564757Y-24371829D01*
X112539546Y-24348524D01*
X112503101Y-24287596D01*
X112505382Y-24216636D01*
X112545665Y-24158174D01*
X112611160Y-24130771D01*
X112625075Y-24130000D01*
X130543589Y-24130000D01*
X130568171Y-24132421D01*
X130628622Y-24144446D01*
X130674042Y-24163260D01*
X130714766Y-24190471D01*
X130749529Y-24225234D01*
X130776740Y-24265958D01*
X130795554Y-24311378D01*
X130807579Y-24371829D01*
X130810000Y-24396411D01*
X130810000Y-64466746D01*
X130789998Y-64534867D01*
X130736342Y-64581360D01*
X130666068Y-64591464D01*
X130601488Y-64561970D01*
X130576567Y-64532581D01*
X130536224Y-64466746D01*
X130506930Y-64418943D01*
X130353132Y-64238868D01*
X130173057Y-64085070D01*
X129971141Y-63961336D01*
X129966571Y-63959443D01*
X129966567Y-63959441D01*
X129756927Y-63872605D01*
X129756925Y-63872604D01*
X129752354Y-63870711D01*
X129672501Y-63851540D01*
X129526896Y-63816583D01*
X129526890Y-63816582D01*
X129522083Y-63815428D01*
X129286000Y-63796848D01*
X129049917Y-63815428D01*
X129045110Y-63816582D01*
X129045104Y-63816583D01*
X128899499Y-63851540D01*
X128819646Y-63870711D01*
X128815075Y-63872604D01*
X128815073Y-63872605D01*
X128605433Y-63959441D01*
X128605429Y-63959443D01*
X128600859Y-63961336D01*
X128398943Y-64085070D01*
X128218868Y-64238868D01*
X128065070Y-64418943D01*
X127941336Y-64620859D01*
X127850711Y-64839646D01*
X127795428Y-65069917D01*
X127776848Y-65306000D01*
X127795428Y-65542083D01*
X127850711Y-65772354D01*
X127852604Y-65776925D01*
X127852605Y-65776927D01*
X127889410Y-65865782D01*
X127896999Y-65936372D01*
X127865220Y-65999859D01*
X127804161Y-66036086D01*
X127773001Y-66040000D01*
X116066999Y-66040000D01*
X115998878Y-66019998D01*
X115952385Y-65966342D01*
X115942281Y-65896068D01*
X115950590Y-65865782D01*
X115987395Y-65776927D01*
X115987396Y-65776925D01*
X115989289Y-65772354D01*
X116044572Y-65542083D01*
X116063152Y-65306000D01*
X116044572Y-65069917D01*
X115989289Y-64839646D01*
X115898664Y-64620859D01*
X115774930Y-64418943D01*
X115621132Y-64238868D01*
X115441057Y-64085070D01*
X115239141Y-63961336D01*
X115234571Y-63959443D01*
X115234567Y-63959441D01*
X115024927Y-63872605D01*
X115024925Y-63872604D01*
X115020354Y-63870711D01*
X114940501Y-63851540D01*
X114794896Y-63816583D01*
X114794890Y-63816582D01*
X114790083Y-63815428D01*
X114554000Y-63796848D01*
X114317917Y-63815428D01*
X114313110Y-63816582D01*
X114313104Y-63816583D01*
X114167499Y-63851540D01*
X114087646Y-63870711D01*
X114083075Y-63872604D01*
X114083073Y-63872605D01*
X113873433Y-63959441D01*
X113873429Y-63959443D01*
X113868859Y-63961336D01*
X113666943Y-64085070D01*
X113486868Y-64238868D01*
X113333070Y-64418943D01*
X113209336Y-64620859D01*
X113118711Y-64839646D01*
X113063428Y-65069917D01*
X113044848Y-65306000D01*
X113063428Y-65542083D01*
X113118711Y-65772354D01*
X113120604Y-65776925D01*
X113120605Y-65776927D01*
X113157410Y-65865782D01*
X113164999Y-65936372D01*
X113133220Y-65999859D01*
X113072161Y-66036086D01*
X113041001Y-66040000D01*
X110478999Y-66040000D01*
X110410878Y-66019998D01*
X110364385Y-65966342D01*
X110354281Y-65896068D01*
X110362590Y-65865782D01*
X110399395Y-65776927D01*
X110399396Y-65776925D01*
X110401289Y-65772354D01*
X110456572Y-65542083D01*
X110475152Y-65306000D01*
X110456572Y-65069917D01*
X110401289Y-64839646D01*
X110310664Y-64620859D01*
X110186930Y-64418943D01*
X110033132Y-64238868D01*
X109853057Y-64085070D01*
X109651141Y-63961336D01*
X109646571Y-63959443D01*
X109646567Y-63959441D01*
X109436927Y-63872605D01*
X109436925Y-63872604D01*
X109432354Y-63870711D01*
X109352501Y-63851540D01*
X109206896Y-63816583D01*
X109206890Y-63816582D01*
X109202083Y-63815428D01*
X108966000Y-63796848D01*
X108729917Y-63815428D01*
X108725110Y-63816582D01*
X108725104Y-63816583D01*
X108579499Y-63851540D01*
X108499646Y-63870711D01*
X108495075Y-63872604D01*
X108495073Y-63872605D01*
X108285433Y-63959441D01*
X108285429Y-63959443D01*
X108280859Y-63961336D01*
X108078943Y-64085070D01*
X107898868Y-64238868D01*
X107745070Y-64418943D01*
X107621336Y-64620859D01*
X107530711Y-64839646D01*
X107475428Y-65069917D01*
X107456848Y-65306000D01*
X107475428Y-65542083D01*
X107530711Y-65772354D01*
X107532604Y-65776925D01*
X107532605Y-65776927D01*
X107569410Y-65865782D01*
X107576999Y-65936372D01*
X107545220Y-65999859D01*
X107484161Y-66036086D01*
X107453001Y-66040000D01*
X95746999Y-66040000D01*
X95678878Y-66019998D01*
X95632385Y-65966342D01*
X95622281Y-65896068D01*
X95630590Y-65865782D01*
X95667395Y-65776927D01*
X95667396Y-65776925D01*
X95669289Y-65772354D01*
X95724572Y-65542083D01*
X95743152Y-65306000D01*
X95724572Y-65069917D01*
X95669289Y-64839646D01*
X95578664Y-64620859D01*
X95454930Y-64418943D01*
X95301132Y-64238868D01*
X95121057Y-64085070D01*
X94919141Y-63961336D01*
X94914571Y-63959443D01*
X94914567Y-63959441D01*
X94704927Y-63872605D01*
X94704925Y-63872604D01*
X94700354Y-63870711D01*
X94620501Y-63851540D01*
X94474896Y-63816583D01*
X94474890Y-63816582D01*
X94470083Y-63815428D01*
X94234000Y-63796848D01*
X93997917Y-63815428D01*
X93993110Y-63816582D01*
X93993104Y-63816583D01*
X93847499Y-63851540D01*
X93767646Y-63870711D01*
X93763075Y-63872604D01*
X93763073Y-63872605D01*
X93553433Y-63959441D01*
X93553429Y-63959443D01*
X93548859Y-63961336D01*
X93346943Y-64085070D01*
X93166868Y-64238868D01*
X93013070Y-64418943D01*
X92889336Y-64620859D01*
X92798711Y-64839646D01*
X92743428Y-65069917D01*
X92724848Y-65306000D01*
X92743428Y-65542083D01*
X92798711Y-65772354D01*
X92800604Y-65776925D01*
X92800605Y-65776927D01*
X92837410Y-65865782D01*
X92844999Y-65936372D01*
X92813220Y-65999859D01*
X92752161Y-66036086D01*
X92721001Y-66040000D01*
X90158999Y-66040000D01*
X90090878Y-66019998D01*
X90044385Y-65966342D01*
X90034281Y-65896068D01*
X90042590Y-65865782D01*
X90079395Y-65776927D01*
X90079396Y-65776925D01*
X90081289Y-65772354D01*
X90136572Y-65542083D01*
X90155152Y-65306000D01*
X90136572Y-65069917D01*
X90081289Y-64839646D01*
X89990664Y-64620859D01*
X89866930Y-64418943D01*
X89713132Y-64238868D01*
X89533057Y-64085070D01*
X89331141Y-63961336D01*
X89326571Y-63959443D01*
X89326567Y-63959441D01*
X89116927Y-63872605D01*
X89116925Y-63872604D01*
X89112354Y-63870711D01*
X89032501Y-63851540D01*
X88886896Y-63816583D01*
X88886890Y-63816582D01*
X88882083Y-63815428D01*
X88646000Y-63796848D01*
X88409917Y-63815428D01*
X88405110Y-63816582D01*
X88405104Y-63816583D01*
X88259499Y-63851540D01*
X88179646Y-63870711D01*
X88175075Y-63872604D01*
X88175073Y-63872605D01*
X87965433Y-63959441D01*
X87965429Y-63959443D01*
X87960859Y-63961336D01*
X87758943Y-64085070D01*
X87578868Y-64238868D01*
X87425070Y-64418943D01*
X87301336Y-64620859D01*
X87210711Y-64839646D01*
X87155428Y-65069917D01*
X87136848Y-65306000D01*
X87155428Y-65542083D01*
X87210711Y-65772354D01*
X87212604Y-65776925D01*
X87212605Y-65776927D01*
X87249410Y-65865782D01*
X87256999Y-65936372D01*
X87225220Y-65999859D01*
X87164161Y-66036086D01*
X87133001Y-66040000D01*
X75426999Y-66040000D01*
X75358878Y-66019998D01*
X75312385Y-65966342D01*
X75302281Y-65896068D01*
X75310590Y-65865782D01*
X75347395Y-65776927D01*
X75347396Y-65776925D01*
X75349289Y-65772354D01*
X75404572Y-65542083D01*
X75423152Y-65306000D01*
X75404572Y-65069917D01*
X75349289Y-64839646D01*
X75258664Y-64620859D01*
X75134930Y-64418943D01*
X74981132Y-64238868D01*
X74801057Y-64085070D01*
X74599141Y-63961336D01*
X74594571Y-63959443D01*
X74594567Y-63959441D01*
X74384927Y-63872605D01*
X74384925Y-63872604D01*
X74380354Y-63870711D01*
X74300501Y-63851540D01*
X74154896Y-63816583D01*
X74154890Y-63816582D01*
X74150083Y-63815428D01*
X73914000Y-63796848D01*
X73677917Y-63815428D01*
X73673110Y-63816582D01*
X73673104Y-63816583D01*
X73527499Y-63851540D01*
X73447646Y-63870711D01*
X73443075Y-63872604D01*
X73443073Y-63872605D01*
X73233433Y-63959441D01*
X73233429Y-63959443D01*
X73228859Y-63961336D01*
X73026943Y-64085070D01*
X72846868Y-64238868D01*
X72693070Y-64418943D01*
X72663777Y-64466746D01*
X72623433Y-64532581D01*
X72570785Y-64580212D01*
X72500744Y-64591819D01*
X72435546Y-64563716D01*
X72395892Y-64504826D01*
X72390000Y-64466746D01*
X72390000Y-47125410D01*
X81460862Y-47125410D01*
X81496028Y-47383804D01*
X81569000Y-47634162D01*
X81678177Y-47870984D01*
X81680737Y-47874889D01*
X81680740Y-47874894D01*
X81818592Y-48085154D01*
X81818596Y-48085159D01*
X81821158Y-48089067D01*
X81994804Y-48283621D01*
X82195300Y-48450371D01*
X82418240Y-48585655D01*
X82422548Y-48587462D01*
X82422549Y-48587462D01*
X82654413Y-48684691D01*
X82654418Y-48684693D01*
X82658728Y-48686500D01*
X82663260Y-48687651D01*
X82663263Y-48687652D01*
X82788765Y-48719525D01*
X82911480Y-48750690D01*
X83128072Y-48772500D01*
X87283206Y-48772500D01*
X87285531Y-48772327D01*
X87285537Y-48772327D01*
X87472407Y-48758440D01*
X87472411Y-48758439D01*
X87477059Y-48758094D01*
X87731405Y-48700542D01*
X87974450Y-48606027D01*
X87978504Y-48603710D01*
X87978508Y-48603708D01*
X88069295Y-48551818D01*
X88200855Y-48476625D01*
X88405647Y-48315180D01*
X88584326Y-48125239D01*
X88732968Y-47910973D01*
X88750760Y-47874894D01*
X88846241Y-47681278D01*
X88846242Y-47681275D01*
X88848306Y-47677090D01*
X88863488Y-47629663D01*
X88926382Y-47433179D01*
X88927807Y-47428728D01*
X88934393Y-47388292D01*
X88968974Y-47175955D01*
X88969725Y-47171344D01*
X88970326Y-47125410D01*
X101780862Y-47125410D01*
X101816028Y-47383804D01*
X101889000Y-47634162D01*
X101998177Y-47870984D01*
X102000737Y-47874889D01*
X102000740Y-47874894D01*
X102138592Y-48085154D01*
X102138596Y-48085159D01*
X102141158Y-48089067D01*
X102314804Y-48283621D01*
X102515300Y-48450371D01*
X102738240Y-48585655D01*
X102742548Y-48587462D01*
X102742549Y-48587462D01*
X102974413Y-48684691D01*
X102974418Y-48684693D01*
X102978728Y-48686500D01*
X102983260Y-48687651D01*
X102983263Y-48687652D01*
X103108765Y-48719525D01*
X103231480Y-48750690D01*
X103448072Y-48772500D01*
X107603206Y-48772500D01*
X107605531Y-48772327D01*
X107605537Y-48772327D01*
X107792407Y-48758440D01*
X107792411Y-48758439D01*
X107797059Y-48758094D01*
X108051405Y-48700542D01*
X108294450Y-48606027D01*
X108298504Y-48603710D01*
X108298508Y-48603708D01*
X108389295Y-48551818D01*
X108520855Y-48476625D01*
X108725647Y-48315180D01*
X108904326Y-48125239D01*
X109052968Y-47910973D01*
X109070760Y-47874894D01*
X109166241Y-47681278D01*
X109166242Y-47681275D01*
X109168306Y-47677090D01*
X109183488Y-47629663D01*
X109246382Y-47433179D01*
X109247807Y-47428728D01*
X109254393Y-47388292D01*
X109288974Y-47175955D01*
X109289725Y-47171344D01*
X109290326Y-47125410D01*
X114099862Y-47125410D01*
X114135028Y-47383804D01*
X114208000Y-47634162D01*
X114317177Y-47870984D01*
X114319737Y-47874889D01*
X114319740Y-47874894D01*
X114457592Y-48085154D01*
X114457596Y-48085159D01*
X114460158Y-48089067D01*
X114633804Y-48283621D01*
X114834300Y-48450371D01*
X115057240Y-48585655D01*
X115061548Y-48587462D01*
X115061549Y-48587462D01*
X115293413Y-48684691D01*
X115293418Y-48684693D01*
X115297728Y-48686500D01*
X115302260Y-48687651D01*
X115302263Y-48687652D01*
X115427765Y-48719525D01*
X115550480Y-48750690D01*
X115767072Y-48772500D01*
X119922206Y-48772500D01*
X119924531Y-48772327D01*
X119924537Y-48772327D01*
X120111407Y-48758440D01*
X120111411Y-48758439D01*
X120116059Y-48758094D01*
X120370405Y-48700542D01*
X120613450Y-48606027D01*
X120617504Y-48603710D01*
X120617508Y-48603708D01*
X120708295Y-48551818D01*
X120839855Y-48476625D01*
X121044647Y-48315180D01*
X121223326Y-48125239D01*
X121371968Y-47910973D01*
X121389760Y-47874894D01*
X121485241Y-47681278D01*
X121485242Y-47681275D01*
X121487306Y-47677090D01*
X121502488Y-47629663D01*
X121565382Y-47433179D01*
X121566807Y-47428728D01*
X121573393Y-47388292D01*
X121607974Y-47175955D01*
X121608725Y-47171344D01*
X121609326Y-47125410D01*
X122100862Y-47125410D01*
X122136028Y-47383804D01*
X122209000Y-47634162D01*
X122318177Y-47870984D01*
X122320737Y-47874889D01*
X122320740Y-47874894D01*
X122458592Y-48085154D01*
X122458596Y-48085159D01*
X122461158Y-48089067D01*
X122634804Y-48283621D01*
X122835300Y-48450371D01*
X123058240Y-48585655D01*
X123062548Y-48587462D01*
X123062549Y-48587462D01*
X123294413Y-48684691D01*
X123294418Y-48684693D01*
X123298728Y-48686500D01*
X123303260Y-48687651D01*
X123303263Y-48687652D01*
X123428765Y-48719525D01*
X123551480Y-48750690D01*
X123768072Y-48772500D01*
X127923206Y-48772500D01*
X127925531Y-48772327D01*
X127925537Y-48772327D01*
X128112407Y-48758440D01*
X128112411Y-48758439D01*
X128117059Y-48758094D01*
X128371405Y-48700542D01*
X128614450Y-48606027D01*
X128618504Y-48603710D01*
X128618508Y-48603708D01*
X128709295Y-48551818D01*
X128840855Y-48476625D01*
X129045647Y-48315180D01*
X129224326Y-48125239D01*
X129372968Y-47910973D01*
X129390760Y-47874894D01*
X129486241Y-47681278D01*
X129486242Y-47681275D01*
X129488306Y-47677090D01*
X129503488Y-47629663D01*
X129566382Y-47433179D01*
X129567807Y-47428728D01*
X129574393Y-47388292D01*
X129608974Y-47175955D01*
X129609725Y-47171344D01*
X129613138Y-46910590D01*
X129577972Y-46652196D01*
X129505000Y-46401838D01*
X129395823Y-46165016D01*
X129393260Y-46161106D01*
X129255408Y-45950846D01*
X129255404Y-45950841D01*
X129252842Y-45946933D01*
X129079196Y-45752379D01*
X128878700Y-45585629D01*
X128655760Y-45450345D01*
X128651451Y-45448538D01*
X128419587Y-45351309D01*
X128419582Y-45351307D01*
X128415272Y-45349500D01*
X128410740Y-45348349D01*
X128410737Y-45348348D01*
X128285235Y-45316475D01*
X128162520Y-45285310D01*
X127945928Y-45263500D01*
X123790794Y-45263500D01*
X123788469Y-45263673D01*
X123788463Y-45263673D01*
X123601593Y-45277560D01*
X123601589Y-45277561D01*
X123596941Y-45277906D01*
X123342595Y-45335458D01*
X123099550Y-45429973D01*
X123095496Y-45432290D01*
X123095492Y-45432292D01*
X123059669Y-45452767D01*
X122873145Y-45559375D01*
X122668353Y-45720820D01*
X122489674Y-45910761D01*
X122341032Y-46125027D01*
X122338966Y-46129217D01*
X122338964Y-46129220D01*
X122321312Y-46165016D01*
X122225694Y-46358910D01*
X122224272Y-46363353D01*
X122224271Y-46363355D01*
X122193977Y-46457993D01*
X122146193Y-46607272D01*
X122145443Y-46611879D01*
X122145442Y-46611882D01*
X122138122Y-46656827D01*
X122104275Y-46864656D01*
X122100862Y-47125410D01*
X121609326Y-47125410D01*
X121612138Y-46910590D01*
X121576972Y-46652196D01*
X121504000Y-46401838D01*
X121394823Y-46165016D01*
X121392260Y-46161106D01*
X121254408Y-45950846D01*
X121254404Y-45950841D01*
X121251842Y-45946933D01*
X121078196Y-45752379D01*
X120877700Y-45585629D01*
X120654760Y-45450345D01*
X120650451Y-45448538D01*
X120418587Y-45351309D01*
X120418582Y-45351307D01*
X120414272Y-45349500D01*
X120409740Y-45348349D01*
X120409737Y-45348348D01*
X120284235Y-45316475D01*
X120161520Y-45285310D01*
X119944928Y-45263500D01*
X115789794Y-45263500D01*
X115787469Y-45263673D01*
X115787463Y-45263673D01*
X115600593Y-45277560D01*
X115600589Y-45277561D01*
X115595941Y-45277906D01*
X115341595Y-45335458D01*
X115098550Y-45429973D01*
X115094496Y-45432290D01*
X115094492Y-45432292D01*
X115058669Y-45452767D01*
X114872145Y-45559375D01*
X114667353Y-45720820D01*
X114488674Y-45910761D01*
X114340032Y-46125027D01*
X114337966Y-46129217D01*
X114337964Y-46129220D01*
X114320312Y-46165016D01*
X114224694Y-46358910D01*
X114223272Y-46363353D01*
X114223271Y-46363355D01*
X114192977Y-46457993D01*
X114145193Y-46607272D01*
X114144443Y-46611879D01*
X114144442Y-46611882D01*
X114137122Y-46656827D01*
X114103275Y-46864656D01*
X114099862Y-47125410D01*
X109290326Y-47125410D01*
X109293138Y-46910590D01*
X109257972Y-46652196D01*
X109185000Y-46401838D01*
X109075823Y-46165016D01*
X109073260Y-46161106D01*
X108935408Y-45950846D01*
X108935404Y-45950841D01*
X108932842Y-45946933D01*
X108759196Y-45752379D01*
X108558700Y-45585629D01*
X108335760Y-45450345D01*
X108331451Y-45448538D01*
X108099587Y-45351309D01*
X108099582Y-45351307D01*
X108095272Y-45349500D01*
X108090740Y-45348349D01*
X108090737Y-45348348D01*
X107965235Y-45316475D01*
X107842520Y-45285310D01*
X107625928Y-45263500D01*
X103470794Y-45263500D01*
X103468469Y-45263673D01*
X103468463Y-45263673D01*
X103281593Y-45277560D01*
X103281589Y-45277561D01*
X103276941Y-45277906D01*
X103022595Y-45335458D01*
X102779550Y-45429973D01*
X102775496Y-45432290D01*
X102775492Y-45432292D01*
X102739669Y-45452767D01*
X102553145Y-45559375D01*
X102348353Y-45720820D01*
X102169674Y-45910761D01*
X102021032Y-46125027D01*
X102018966Y-46129217D01*
X102018964Y-46129220D01*
X102001312Y-46165016D01*
X101905694Y-46358910D01*
X101904272Y-46363353D01*
X101904271Y-46363355D01*
X101873977Y-46457993D01*
X101826193Y-46607272D01*
X101825443Y-46611879D01*
X101825442Y-46611882D01*
X101818122Y-46656827D01*
X101784275Y-46864656D01*
X101780862Y-47125410D01*
X88970326Y-47125410D01*
X88973138Y-46910590D01*
X88937972Y-46652196D01*
X88865000Y-46401838D01*
X88755823Y-46165016D01*
X88753260Y-46161106D01*
X88615408Y-45950846D01*
X88615404Y-45950841D01*
X88612842Y-45946933D01*
X88439196Y-45752379D01*
X88238700Y-45585629D01*
X88015760Y-45450345D01*
X88011451Y-45448538D01*
X87779587Y-45351309D01*
X87779582Y-45351307D01*
X87775272Y-45349500D01*
X87770740Y-45348349D01*
X87770737Y-45348348D01*
X87645235Y-45316475D01*
X87522520Y-45285310D01*
X87305928Y-45263500D01*
X83150794Y-45263500D01*
X83148469Y-45263673D01*
X83148463Y-45263673D01*
X82961593Y-45277560D01*
X82961589Y-45277561D01*
X82956941Y-45277906D01*
X82702595Y-45335458D01*
X82459550Y-45429973D01*
X82455496Y-45432290D01*
X82455492Y-45432292D01*
X82419669Y-45452767D01*
X82233145Y-45559375D01*
X82028353Y-45720820D01*
X81849674Y-45910761D01*
X81701032Y-46125027D01*
X81698966Y-46129217D01*
X81698964Y-46129220D01*
X81681312Y-46165016D01*
X81585694Y-46358910D01*
X81584272Y-46363353D01*
X81584271Y-46363355D01*
X81553977Y-46457993D01*
X81506193Y-46607272D01*
X81505443Y-46611879D01*
X81505442Y-46611882D01*
X81498122Y-46656827D01*
X81464275Y-46864656D01*
X81460862Y-47125410D01*
X72390000Y-47125410D01*
X72390000Y-24396411D01*
X72392421Y-24371829D01*
X72404446Y-24311378D01*
X72423260Y-24265958D01*
X72450471Y-24225234D01*
X72485234Y-24190471D01*
X72525958Y-24163260D01*
X72571378Y-24144446D01*
X72631829Y-24132421D01*
X72656411Y-24130000D01*
X95683487Y-24130000D01*
X95751608Y-24150002D01*
G37*
%TD.AperFunction*%
%TD*%
M02*
