%TF.GenerationSoftware,KiCad,Pcbnew,6.0.2+dfsg-1*%
%TF.CreationDate,2023-02-04T23:29:27-05:00*%
%TF.ProjectId,ups-test,7570732d-7465-4737-942e-6b696361645f,rev?*%
%TF.SameCoordinates,Original*%
%TF.FileFunction,Soldermask,Top*%
%TF.FilePolarity,Negative*%
%FSLAX46Y46*%
G04 Gerber Fmt 4.6, Leading zero omitted, Abs format (unit mm)*
G04 Created by KiCad (PCBNEW 6.0.2+dfsg-1) date 2023-02-04 23:29:27*
%MOMM*%
%LPD*%
G01*
G04 APERTURE LIST*
G04 Aperture macros list*
%AMRoundRect*
0 Rectangle with rounded corners*
0 $1 Rounding radius*
0 $2 $3 $4 $5 $6 $7 $8 $9 X,Y pos of 4 corners*
0 Add a 4 corners polygon primitive as box body*
4,1,4,$2,$3,$4,$5,$6,$7,$8,$9,$2,$3,0*
0 Add four circle primitives for the rounded corners*
1,1,$1+$1,$2,$3*
1,1,$1+$1,$4,$5*
1,1,$1+$1,$6,$7*
1,1,$1+$1,$8,$9*
0 Add four rect primitives between the rounded corners*
20,1,$1+$1,$2,$3,$4,$5,0*
20,1,$1+$1,$4,$5,$6,$7,0*
20,1,$1+$1,$6,$7,$8,$9,0*
20,1,$1+$1,$8,$9,$2,$3,0*%
G04 Aperture macros list end*
%ADD10R,1.700000X1.700000*%
%ADD11O,1.700000X1.700000*%
%ADD12RoundRect,0.250000X-0.450000X0.262500X-0.450000X-0.262500X0.450000X-0.262500X0.450000X0.262500X0*%
%ADD13RoundRect,0.140000X-0.140000X-0.170000X0.140000X-0.170000X0.140000X0.170000X-0.140000X0.170000X0*%
%ADD14RoundRect,0.225000X0.225000X0.250000X-0.225000X0.250000X-0.225000X-0.250000X0.225000X-0.250000X0*%
%ADD15RoundRect,0.135000X0.135000X0.185000X-0.135000X0.185000X-0.135000X-0.185000X0.135000X-0.185000X0*%
%ADD16RoundRect,0.200000X-0.200000X-0.275000X0.200000X-0.275000X0.200000X0.275000X-0.200000X0.275000X0*%
%ADD17R,1.200000X2.200000*%
%ADD18R,5.800000X6.400000*%
%ADD19RoundRect,0.250000X0.450000X-0.262500X0.450000X0.262500X-0.450000X0.262500X-0.450000X-0.262500X0*%
%ADD20RoundRect,0.150000X0.825000X0.150000X-0.825000X0.150000X-0.825000X-0.150000X0.825000X-0.150000X0*%
%ADD21RoundRect,0.150000X-0.512500X-0.150000X0.512500X-0.150000X0.512500X0.150000X-0.512500X0.150000X0*%
%ADD22RoundRect,0.140000X0.170000X-0.140000X0.170000X0.140000X-0.170000X0.140000X-0.170000X-0.140000X0*%
%ADD23C,2.500000*%
%ADD24O,7.000000X3.000000*%
%ADD25R,2.200000X1.200000*%
%ADD26R,6.400000X5.800000*%
%ADD27RoundRect,0.100000X0.712500X0.100000X-0.712500X0.100000X-0.712500X-0.100000X0.712500X-0.100000X0*%
%ADD28RoundRect,0.250000X-0.250000X-0.475000X0.250000X-0.475000X0.250000X0.475000X-0.250000X0.475000X0*%
%ADD29RoundRect,0.135000X-0.185000X0.135000X-0.185000X-0.135000X0.185000X-0.135000X0.185000X0.135000X0*%
%ADD30RoundRect,0.100000X0.100000X-0.712500X0.100000X0.712500X-0.100000X0.712500X-0.100000X-0.712500X0*%
G04 APERTURE END LIST*
D10*
%TO.C,J4*%
X93995000Y-25146000D03*
D11*
X96535000Y-25146000D03*
X99075000Y-25146000D03*
X101615000Y-25146000D03*
X104155000Y-25146000D03*
X106695000Y-25146000D03*
X109235000Y-25146000D03*
X111775000Y-25146000D03*
%TD*%
D12*
%TO.C,R5*%
X107442000Y-40743500D03*
X107442000Y-42568500D03*
%TD*%
D13*
%TO.C,C1*%
X76482000Y-31750000D03*
X77442000Y-31750000D03*
%TD*%
D14*
%TO.C,C8*%
X97041000Y-42164000D03*
X95491000Y-42164000D03*
%TD*%
D15*
%TO.C,R1*%
X75567000Y-31750000D03*
X74547000Y-31750000D03*
%TD*%
D16*
%TO.C,R7*%
X111062000Y-36195000D03*
X112712000Y-36195000D03*
%TD*%
D17*
%TO.C,Q2*%
X99573000Y-37465000D03*
D18*
X101853000Y-31165000D03*
D17*
X104133000Y-37465000D03*
%TD*%
D19*
%TO.C,R4*%
X89154000Y-42695500D03*
X89154000Y-40870500D03*
%TD*%
D14*
%TO.C,C5*%
X76721000Y-42164000D03*
X75171000Y-42164000D03*
%TD*%
D20*
%TO.C,U4*%
X104202000Y-43688000D03*
X104202000Y-42418000D03*
X104202000Y-41148000D03*
X104202000Y-39878000D03*
X99252000Y-39878000D03*
X99252000Y-41148000D03*
X99252000Y-42418000D03*
X99252000Y-43688000D03*
%TD*%
D21*
%TO.C,U5*%
X107066500Y-36261000D03*
X107066500Y-37211000D03*
X107066500Y-38161000D03*
X109341500Y-38161000D03*
X109341500Y-36261000D03*
%TD*%
D14*
%TO.C,C6*%
X97041000Y-43688000D03*
X95491000Y-43688000D03*
%TD*%
D22*
%TO.C,C2*%
X90805000Y-37056000D03*
X90805000Y-36096000D03*
%TD*%
D23*
%TO.C,J2*%
X94234000Y-65306000D03*
X108966000Y-65306000D03*
D24*
X105537000Y-47018000D03*
X97536000Y-47018000D03*
%TD*%
D25*
%TO.C,Q3*%
X111878000Y-38868000D03*
D26*
X118178000Y-41148000D03*
D25*
X111878000Y-43428000D03*
%TD*%
D27*
%TO.C,U2*%
X96727500Y-38313000D03*
X96727500Y-37663000D03*
X96727500Y-37013000D03*
X96727500Y-36363000D03*
X92502500Y-36363000D03*
X92502500Y-37013000D03*
X92502500Y-37663000D03*
X92502500Y-38313000D03*
%TD*%
D14*
%TO.C,C4*%
X76721000Y-43688000D03*
X75171000Y-43688000D03*
%TD*%
D28*
%TO.C,C9*%
X107000000Y-34036000D03*
X108900000Y-34036000D03*
%TD*%
D14*
%TO.C,C7*%
X76721000Y-40005000D03*
X75171000Y-40005000D03*
%TD*%
%TO.C,C3*%
X97041000Y-40005000D03*
X95491000Y-40005000D03*
%TD*%
D20*
%TO.C,U3*%
X83882000Y-43688000D03*
X83882000Y-42418000D03*
X83882000Y-41148000D03*
X83882000Y-39878000D03*
X78932000Y-39878000D03*
X78932000Y-41148000D03*
X78932000Y-42418000D03*
X78932000Y-43688000D03*
%TD*%
D17*
%TO.C,Q1*%
X79260000Y-37465000D03*
D18*
X81540000Y-31165000D03*
D17*
X83820000Y-37465000D03*
%TD*%
D19*
%TO.C,R6*%
X109474000Y-42568500D03*
X109474000Y-40743500D03*
%TD*%
D29*
%TO.C,R2*%
X90805000Y-37971000D03*
X90805000Y-38991000D03*
%TD*%
D30*
%TO.C,U1*%
X75225000Y-37672500D03*
X75875000Y-37672500D03*
X76525000Y-37672500D03*
X77175000Y-37672500D03*
X77175000Y-33447500D03*
X76525000Y-33447500D03*
X75875000Y-33447500D03*
X75225000Y-33447500D03*
%TD*%
D23*
%TO.C,J3*%
X129286000Y-65306000D03*
X114554000Y-65306000D03*
D24*
X125857000Y-47018000D03*
X117856000Y-47018000D03*
%TD*%
D12*
%TO.C,R3*%
X87122000Y-40870500D03*
X87122000Y-42695500D03*
%TD*%
D23*
%TO.C,J1*%
X88646000Y-65306000D03*
X73914000Y-65306000D03*
D24*
X85217000Y-47018000D03*
X77216000Y-47018000D03*
%TD*%
M02*
