%TF.GenerationSoftware,KiCad,Pcbnew,6.0.2+dfsg-1*%
%TF.CreationDate,2022-12-03T09:23:02-05:00*%
%TF.ProjectId,wiz5500-clone-4layer,77697a35-3530-4302-9d63-6c6f6e652d34,rev?*%
%TF.SameCoordinates,Original*%
%TF.FileFunction,Legend,Top*%
%TF.FilePolarity,Positive*%
%FSLAX46Y46*%
G04 Gerber Fmt 4.6, Leading zero omitted, Abs format (unit mm)*
G04 Created by KiCad (PCBNEW 6.0.2+dfsg-1) date 2022-12-03 09:23:02*
%MOMM*%
%LPD*%
G01*
G04 APERTURE LIST*
%ADD10C,0.150000*%
%ADD11C,0.120000*%
%ADD12C,0.127000*%
%ADD13C,0.200000*%
G04 APERTURE END LIST*
D10*
X58045000Y-112277857D02*
X58009285Y-112349285D01*
X58009285Y-112456428D01*
X58045000Y-112563571D01*
X58116428Y-112635000D01*
X58187857Y-112670714D01*
X58330714Y-112706428D01*
X58437857Y-112706428D01*
X58580714Y-112670714D01*
X58652142Y-112635000D01*
X58723571Y-112563571D01*
X58759285Y-112456428D01*
X58759285Y-112385000D01*
X58723571Y-112277857D01*
X58687857Y-112242142D01*
X58437857Y-112242142D01*
X58437857Y-112385000D01*
X58080714Y-111956428D02*
X58045000Y-111920714D01*
X58009285Y-111849285D01*
X58009285Y-111670714D01*
X58045000Y-111599285D01*
X58080714Y-111563571D01*
X58152142Y-111527857D01*
X58223571Y-111527857D01*
X58330714Y-111563571D01*
X58759285Y-111992142D01*
X58759285Y-111527857D01*
X58009285Y-111277857D02*
X58009285Y-110813571D01*
X58295000Y-111063571D01*
X58295000Y-110956428D01*
X58330714Y-110885000D01*
X58366428Y-110849285D01*
X58437857Y-110813571D01*
X58616428Y-110813571D01*
X58687857Y-110849285D01*
X58723571Y-110885000D01*
X58759285Y-110956428D01*
X58759285Y-111170714D01*
X58723571Y-111242142D01*
X58687857Y-111277857D01*
X58545000Y-99595714D02*
X58545000Y-99238571D01*
X58759285Y-99667142D02*
X58009285Y-99417142D01*
X58759285Y-99167142D01*
X58009285Y-98774285D02*
X58009285Y-98702857D01*
X58045000Y-98631428D01*
X58080714Y-98595714D01*
X58152142Y-98560000D01*
X58295000Y-98524285D01*
X58473571Y-98524285D01*
X58616428Y-98560000D01*
X58687857Y-98595714D01*
X58723571Y-98631428D01*
X58759285Y-98702857D01*
X58759285Y-98774285D01*
X58723571Y-98845714D01*
X58687857Y-98881428D01*
X58616428Y-98917142D01*
X58473571Y-98952857D01*
X58295000Y-98952857D01*
X58152142Y-98917142D01*
X58080714Y-98881428D01*
X58045000Y-98845714D01*
X58009285Y-98774285D01*
X46589404Y-112212380D02*
X46256071Y-111736190D01*
X46017976Y-112212380D02*
X46017976Y-111212380D01*
X46398928Y-111212380D01*
X46494166Y-111260000D01*
X46541785Y-111307619D01*
X46589404Y-111402857D01*
X46589404Y-111545714D01*
X46541785Y-111640952D01*
X46494166Y-111688571D01*
X46398928Y-111736190D01*
X46017976Y-111736190D01*
X47017976Y-111212380D02*
X47017976Y-112021904D01*
X47065595Y-112117142D01*
X47113214Y-112164761D01*
X47208452Y-112212380D01*
X47398928Y-112212380D01*
X47494166Y-112164761D01*
X47541785Y-112117142D01*
X47589404Y-112021904D01*
X47589404Y-111212380D01*
X48065595Y-112212380D02*
X48065595Y-111212380D01*
X48637023Y-112212380D01*
X48637023Y-111212380D01*
X58006640Y-82235780D02*
X58006640Y-81771495D01*
X58292355Y-82021495D01*
X58292355Y-81914352D01*
X58328069Y-81842923D01*
X58363783Y-81807209D01*
X58435212Y-81771495D01*
X58613783Y-81771495D01*
X58685212Y-81807209D01*
X58720926Y-81842923D01*
X58756640Y-81914352D01*
X58756640Y-82128638D01*
X58720926Y-82200066D01*
X58685212Y-82235780D01*
X58363783Y-81450066D02*
X58363783Y-81200066D01*
X58756640Y-81092923D02*
X58756640Y-81450066D01*
X58006640Y-81450066D01*
X58006640Y-81092923D01*
X58756640Y-80771495D02*
X58006640Y-80771495D01*
X58756640Y-80342923D01*
X58006640Y-80342923D01*
X58542355Y-86910738D02*
X58542355Y-86553595D01*
X58756640Y-86982167D02*
X58006640Y-86732167D01*
X58756640Y-86482167D01*
X58756640Y-85803595D02*
X58399497Y-86053595D01*
X58756640Y-86232167D02*
X58006640Y-86232167D01*
X58006640Y-85946452D01*
X58042355Y-85875024D01*
X58078069Y-85839309D01*
X58149497Y-85803595D01*
X58256640Y-85803595D01*
X58328069Y-85839309D01*
X58363783Y-85875024D01*
X58399497Y-85946452D01*
X58399497Y-86232167D01*
X28315000Y-116268571D02*
X28350714Y-116197142D01*
X28350714Y-116090000D01*
X28315000Y-115982857D01*
X28243571Y-115911428D01*
X28172142Y-115875714D01*
X28029285Y-115840000D01*
X27922142Y-115840000D01*
X27779285Y-115875714D01*
X27707857Y-115911428D01*
X27636428Y-115982857D01*
X27600714Y-116090000D01*
X27600714Y-116161428D01*
X27636428Y-116268571D01*
X27672142Y-116304285D01*
X27922142Y-116304285D01*
X27922142Y-116161428D01*
X27600714Y-116625714D02*
X28350714Y-116625714D01*
X27600714Y-117054285D01*
X28350714Y-117054285D01*
X27600714Y-117411428D02*
X28350714Y-117411428D01*
X28350714Y-117590000D01*
X28315000Y-117697142D01*
X28243571Y-117768571D01*
X28172142Y-117804285D01*
X28029285Y-117840000D01*
X27922142Y-117840000D01*
X27779285Y-117804285D01*
X27707857Y-117768571D01*
X27636428Y-117697142D01*
X27600714Y-117590000D01*
X27600714Y-117411428D01*
X28315000Y-98542142D02*
X28350714Y-98470714D01*
X28350714Y-98363571D01*
X28315000Y-98256428D01*
X28243571Y-98185000D01*
X28172142Y-98149285D01*
X28029285Y-98113571D01*
X27922142Y-98113571D01*
X27779285Y-98149285D01*
X27707857Y-98185000D01*
X27636428Y-98256428D01*
X27600714Y-98363571D01*
X27600714Y-98435000D01*
X27636428Y-98542142D01*
X27672142Y-98577857D01*
X27922142Y-98577857D01*
X27922142Y-98435000D01*
X28350714Y-99042142D02*
X28350714Y-99113571D01*
X28315000Y-99185000D01*
X28279285Y-99220714D01*
X28207857Y-99256428D01*
X28065000Y-99292142D01*
X27886428Y-99292142D01*
X27743571Y-99256428D01*
X27672142Y-99220714D01*
X27636428Y-99185000D01*
X27600714Y-99113571D01*
X27600714Y-99042142D01*
X27636428Y-98970714D01*
X27672142Y-98935000D01*
X27743571Y-98899285D01*
X27886428Y-98863571D01*
X28065000Y-98863571D01*
X28207857Y-98899285D01*
X28279285Y-98935000D01*
X28315000Y-98970714D01*
X28350714Y-99042142D01*
X28029285Y-99720714D02*
X28065000Y-99649285D01*
X28100714Y-99613571D01*
X28172142Y-99577857D01*
X28207857Y-99577857D01*
X28279285Y-99613571D01*
X28315000Y-99649285D01*
X28350714Y-99720714D01*
X28350714Y-99863571D01*
X28315000Y-99935000D01*
X28279285Y-99970714D01*
X28207857Y-100006428D01*
X28172142Y-100006428D01*
X28100714Y-99970714D01*
X28065000Y-99935000D01*
X28029285Y-99863571D01*
X28029285Y-99720714D01*
X27993571Y-99649285D01*
X27957857Y-99613571D01*
X27886428Y-99577857D01*
X27743571Y-99577857D01*
X27672142Y-99613571D01*
X27636428Y-99649285D01*
X27600714Y-99720714D01*
X27600714Y-99863571D01*
X27636428Y-99935000D01*
X27672142Y-99970714D01*
X27743571Y-100006428D01*
X27886428Y-100006428D01*
X27957857Y-99970714D01*
X27993571Y-99935000D01*
X28029285Y-99863571D01*
X58045000Y-79311428D02*
X58009285Y-79382857D01*
X58009285Y-79490000D01*
X58045000Y-79597142D01*
X58116428Y-79668571D01*
X58187857Y-79704285D01*
X58330714Y-79740000D01*
X58437857Y-79740000D01*
X58580714Y-79704285D01*
X58652142Y-79668571D01*
X58723571Y-79597142D01*
X58759285Y-79490000D01*
X58759285Y-79418571D01*
X58723571Y-79311428D01*
X58687857Y-79275714D01*
X58437857Y-79275714D01*
X58437857Y-79418571D01*
X58759285Y-78954285D02*
X58009285Y-78954285D01*
X58759285Y-78525714D01*
X58009285Y-78525714D01*
X58759285Y-78168571D02*
X58009285Y-78168571D01*
X58009285Y-77990000D01*
X58045000Y-77882857D01*
X58116428Y-77811428D01*
X58187857Y-77775714D01*
X58330714Y-77740000D01*
X58437857Y-77740000D01*
X58580714Y-77775714D01*
X58652142Y-77811428D01*
X58723571Y-77882857D01*
X58759285Y-77990000D01*
X58759285Y-78168571D01*
X28315000Y-75682142D02*
X28350714Y-75610714D01*
X28350714Y-75503571D01*
X28315000Y-75396428D01*
X28243571Y-75325000D01*
X28172142Y-75289285D01*
X28029285Y-75253571D01*
X27922142Y-75253571D01*
X27779285Y-75289285D01*
X27707857Y-75325000D01*
X27636428Y-75396428D01*
X27600714Y-75503571D01*
X27600714Y-75575000D01*
X27636428Y-75682142D01*
X27672142Y-75717857D01*
X27922142Y-75717857D01*
X27922142Y-75575000D01*
X28350714Y-76182142D02*
X28350714Y-76253571D01*
X28315000Y-76325000D01*
X28279285Y-76360714D01*
X28207857Y-76396428D01*
X28065000Y-76432142D01*
X27886428Y-76432142D01*
X27743571Y-76396428D01*
X27672142Y-76360714D01*
X27636428Y-76325000D01*
X27600714Y-76253571D01*
X27600714Y-76182142D01*
X27636428Y-76110714D01*
X27672142Y-76075000D01*
X27743571Y-76039285D01*
X27886428Y-76003571D01*
X28065000Y-76003571D01*
X28207857Y-76039285D01*
X28279285Y-76075000D01*
X28315000Y-76110714D01*
X28350714Y-76182142D01*
X27600714Y-77146428D02*
X27600714Y-76717857D01*
X27600714Y-76932142D02*
X28350714Y-76932142D01*
X28243571Y-76860714D01*
X28172142Y-76789285D01*
X28136428Y-76717857D01*
X28315000Y-106162142D02*
X28350714Y-106090714D01*
X28350714Y-105983571D01*
X28315000Y-105876428D01*
X28243571Y-105805000D01*
X28172142Y-105769285D01*
X28029285Y-105733571D01*
X27922142Y-105733571D01*
X27779285Y-105769285D01*
X27707857Y-105805000D01*
X27636428Y-105876428D01*
X27600714Y-105983571D01*
X27600714Y-106055000D01*
X27636428Y-106162142D01*
X27672142Y-106197857D01*
X27922142Y-106197857D01*
X27922142Y-106055000D01*
X27600714Y-106912142D02*
X27600714Y-106483571D01*
X27600714Y-106697857D02*
X28350714Y-106697857D01*
X28243571Y-106626428D01*
X28172142Y-106555000D01*
X28136428Y-106483571D01*
X28350714Y-107376428D02*
X28350714Y-107447857D01*
X28315000Y-107519285D01*
X28279285Y-107555000D01*
X28207857Y-107590714D01*
X28065000Y-107626428D01*
X27886428Y-107626428D01*
X27743571Y-107590714D01*
X27672142Y-107555000D01*
X27636428Y-107519285D01*
X27600714Y-107447857D01*
X27600714Y-107376428D01*
X27636428Y-107305000D01*
X27672142Y-107269285D01*
X27743571Y-107233571D01*
X27886428Y-107197857D01*
X28065000Y-107197857D01*
X28207857Y-107233571D01*
X28279285Y-107269285D01*
X28315000Y-107305000D01*
X28350714Y-107376428D01*
X28315000Y-121402142D02*
X28350714Y-121330714D01*
X28350714Y-121223571D01*
X28315000Y-121116428D01*
X28243571Y-121045000D01*
X28172142Y-121009285D01*
X28029285Y-120973571D01*
X27922142Y-120973571D01*
X27779285Y-121009285D01*
X27707857Y-121045000D01*
X27636428Y-121116428D01*
X27600714Y-121223571D01*
X27600714Y-121295000D01*
X27636428Y-121402142D01*
X27672142Y-121437857D01*
X27922142Y-121437857D01*
X27922142Y-121295000D01*
X27600714Y-122152142D02*
X27600714Y-121723571D01*
X27600714Y-121937857D02*
X28350714Y-121937857D01*
X28243571Y-121866428D01*
X28172142Y-121795000D01*
X28136428Y-121723571D01*
X28350714Y-122830714D02*
X28350714Y-122473571D01*
X27993571Y-122437857D01*
X28029285Y-122473571D01*
X28065000Y-122545000D01*
X28065000Y-122723571D01*
X28029285Y-122795000D01*
X27993571Y-122830714D01*
X27922142Y-122866428D01*
X27743571Y-122866428D01*
X27672142Y-122830714D01*
X27636428Y-122795000D01*
X27600714Y-122723571D01*
X27600714Y-122545000D01*
X27636428Y-122473571D01*
X27672142Y-122437857D01*
X28315000Y-93462142D02*
X28350714Y-93390714D01*
X28350714Y-93283571D01*
X28315000Y-93176428D01*
X28243571Y-93105000D01*
X28172142Y-93069285D01*
X28029285Y-93033571D01*
X27922142Y-93033571D01*
X27779285Y-93069285D01*
X27707857Y-93105000D01*
X27636428Y-93176428D01*
X27600714Y-93283571D01*
X27600714Y-93355000D01*
X27636428Y-93462142D01*
X27672142Y-93497857D01*
X27922142Y-93497857D01*
X27922142Y-93355000D01*
X28350714Y-93962142D02*
X28350714Y-94033571D01*
X28315000Y-94105000D01*
X28279285Y-94140714D01*
X28207857Y-94176428D01*
X28065000Y-94212142D01*
X27886428Y-94212142D01*
X27743571Y-94176428D01*
X27672142Y-94140714D01*
X27636428Y-94105000D01*
X27600714Y-94033571D01*
X27600714Y-93962142D01*
X27636428Y-93890714D01*
X27672142Y-93855000D01*
X27743571Y-93819285D01*
X27886428Y-93783571D01*
X28065000Y-93783571D01*
X28207857Y-93819285D01*
X28279285Y-93855000D01*
X28315000Y-93890714D01*
X28350714Y-93962142D01*
X28350714Y-94855000D02*
X28350714Y-94712142D01*
X28315000Y-94640714D01*
X28279285Y-94605000D01*
X28172142Y-94533571D01*
X28029285Y-94497857D01*
X27743571Y-94497857D01*
X27672142Y-94533571D01*
X27636428Y-94569285D01*
X27600714Y-94640714D01*
X27600714Y-94783571D01*
X27636428Y-94855000D01*
X27672142Y-94890714D01*
X27743571Y-94926428D01*
X27922142Y-94926428D01*
X27993571Y-94890714D01*
X28029285Y-94855000D01*
X28065000Y-94783571D01*
X28065000Y-94640714D01*
X28029285Y-94569285D01*
X27993571Y-94533571D01*
X27922142Y-94497857D01*
X28315000Y-90868571D02*
X28350714Y-90797142D01*
X28350714Y-90690000D01*
X28315000Y-90582857D01*
X28243571Y-90511428D01*
X28172142Y-90475714D01*
X28029285Y-90440000D01*
X27922142Y-90440000D01*
X27779285Y-90475714D01*
X27707857Y-90511428D01*
X27636428Y-90582857D01*
X27600714Y-90690000D01*
X27600714Y-90761428D01*
X27636428Y-90868571D01*
X27672142Y-90904285D01*
X27922142Y-90904285D01*
X27922142Y-90761428D01*
X27600714Y-91225714D02*
X28350714Y-91225714D01*
X27600714Y-91654285D01*
X28350714Y-91654285D01*
X27600714Y-92011428D02*
X28350714Y-92011428D01*
X28350714Y-92190000D01*
X28315000Y-92297142D01*
X28243571Y-92368571D01*
X28172142Y-92404285D01*
X28029285Y-92440000D01*
X27922142Y-92440000D01*
X27779285Y-92404285D01*
X27707857Y-92368571D01*
X27636428Y-92297142D01*
X27600714Y-92190000D01*
X27600714Y-92011428D01*
X58759285Y-102153571D02*
X58402142Y-102403571D01*
X58759285Y-102582142D02*
X58009285Y-102582142D01*
X58009285Y-102296428D01*
X58045000Y-102225000D01*
X58080714Y-102189285D01*
X58152142Y-102153571D01*
X58259285Y-102153571D01*
X58330714Y-102189285D01*
X58366428Y-102225000D01*
X58402142Y-102296428D01*
X58402142Y-102582142D01*
X58009285Y-101832142D02*
X58616428Y-101832142D01*
X58687857Y-101796428D01*
X58723571Y-101760714D01*
X58759285Y-101689285D01*
X58759285Y-101546428D01*
X58723571Y-101475000D01*
X58687857Y-101439285D01*
X58616428Y-101403571D01*
X58009285Y-101403571D01*
X58759285Y-101046428D02*
X58009285Y-101046428D01*
X58759285Y-100617857D01*
X58009285Y-100617857D01*
X58045000Y-104711428D02*
X58009285Y-104782857D01*
X58009285Y-104890000D01*
X58045000Y-104997142D01*
X58116428Y-105068571D01*
X58187857Y-105104285D01*
X58330714Y-105140000D01*
X58437857Y-105140000D01*
X58580714Y-105104285D01*
X58652142Y-105068571D01*
X58723571Y-104997142D01*
X58759285Y-104890000D01*
X58759285Y-104818571D01*
X58723571Y-104711428D01*
X58687857Y-104675714D01*
X58437857Y-104675714D01*
X58437857Y-104818571D01*
X58759285Y-104354285D02*
X58009285Y-104354285D01*
X58759285Y-103925714D01*
X58009285Y-103925714D01*
X58759285Y-103568571D02*
X58009285Y-103568571D01*
X58009285Y-103390000D01*
X58045000Y-103282857D01*
X58116428Y-103211428D01*
X58187857Y-103175714D01*
X58330714Y-103140000D01*
X58437857Y-103140000D01*
X58580714Y-103175714D01*
X58652142Y-103211428D01*
X58723571Y-103282857D01*
X58759285Y-103390000D01*
X58759285Y-103568571D01*
X28315000Y-80762142D02*
X28350714Y-80690714D01*
X28350714Y-80583571D01*
X28315000Y-80476428D01*
X28243571Y-80405000D01*
X28172142Y-80369285D01*
X28029285Y-80333571D01*
X27922142Y-80333571D01*
X27779285Y-80369285D01*
X27707857Y-80405000D01*
X27636428Y-80476428D01*
X27600714Y-80583571D01*
X27600714Y-80655000D01*
X27636428Y-80762142D01*
X27672142Y-80797857D01*
X27922142Y-80797857D01*
X27922142Y-80655000D01*
X28350714Y-81262142D02*
X28350714Y-81333571D01*
X28315000Y-81405000D01*
X28279285Y-81440714D01*
X28207857Y-81476428D01*
X28065000Y-81512142D01*
X27886428Y-81512142D01*
X27743571Y-81476428D01*
X27672142Y-81440714D01*
X27636428Y-81405000D01*
X27600714Y-81333571D01*
X27600714Y-81262142D01*
X27636428Y-81190714D01*
X27672142Y-81155000D01*
X27743571Y-81119285D01*
X27886428Y-81083571D01*
X28065000Y-81083571D01*
X28207857Y-81119285D01*
X28279285Y-81155000D01*
X28315000Y-81190714D01*
X28350714Y-81262142D01*
X28279285Y-81797857D02*
X28315000Y-81833571D01*
X28350714Y-81905000D01*
X28350714Y-82083571D01*
X28315000Y-82155000D01*
X28279285Y-82190714D01*
X28207857Y-82226428D01*
X28136428Y-82226428D01*
X28029285Y-82190714D01*
X27600714Y-81762142D01*
X27600714Y-82226428D01*
X58045000Y-122491428D02*
X58009285Y-122562857D01*
X58009285Y-122670000D01*
X58045000Y-122777142D01*
X58116428Y-122848571D01*
X58187857Y-122884285D01*
X58330714Y-122920000D01*
X58437857Y-122920000D01*
X58580714Y-122884285D01*
X58652142Y-122848571D01*
X58723571Y-122777142D01*
X58759285Y-122670000D01*
X58759285Y-122598571D01*
X58723571Y-122491428D01*
X58687857Y-122455714D01*
X58437857Y-122455714D01*
X58437857Y-122598571D01*
X58759285Y-122134285D02*
X58009285Y-122134285D01*
X58759285Y-121705714D01*
X58009285Y-121705714D01*
X58759285Y-121348571D02*
X58009285Y-121348571D01*
X58009285Y-121170000D01*
X58045000Y-121062857D01*
X58116428Y-120991428D01*
X58187857Y-120955714D01*
X58330714Y-120920000D01*
X58437857Y-120920000D01*
X58580714Y-120955714D01*
X58652142Y-120991428D01*
X58723571Y-121062857D01*
X58759285Y-121170000D01*
X58759285Y-121348571D01*
X58006640Y-76791735D02*
X58756640Y-76541735D01*
X58006640Y-76291735D01*
X58720926Y-76077450D02*
X58756640Y-75970307D01*
X58756640Y-75791735D01*
X58720926Y-75720307D01*
X58685212Y-75684593D01*
X58613783Y-75648878D01*
X58542355Y-75648878D01*
X58470926Y-75684593D01*
X58435212Y-75720307D01*
X58399497Y-75791735D01*
X58363783Y-75934593D01*
X58328069Y-76006021D01*
X58292355Y-76041735D01*
X58220926Y-76077450D01*
X58149497Y-76077450D01*
X58078069Y-76041735D01*
X58042355Y-76006021D01*
X58006640Y-75934593D01*
X58006640Y-75756021D01*
X58042355Y-75648878D01*
X28315000Y-101082142D02*
X28350714Y-101010714D01*
X28350714Y-100903571D01*
X28315000Y-100796428D01*
X28243571Y-100725000D01*
X28172142Y-100689285D01*
X28029285Y-100653571D01*
X27922142Y-100653571D01*
X27779285Y-100689285D01*
X27707857Y-100725000D01*
X27636428Y-100796428D01*
X27600714Y-100903571D01*
X27600714Y-100975000D01*
X27636428Y-101082142D01*
X27672142Y-101117857D01*
X27922142Y-101117857D01*
X27922142Y-100975000D01*
X28350714Y-101582142D02*
X28350714Y-101653571D01*
X28315000Y-101725000D01*
X28279285Y-101760714D01*
X28207857Y-101796428D01*
X28065000Y-101832142D01*
X27886428Y-101832142D01*
X27743571Y-101796428D01*
X27672142Y-101760714D01*
X27636428Y-101725000D01*
X27600714Y-101653571D01*
X27600714Y-101582142D01*
X27636428Y-101510714D01*
X27672142Y-101475000D01*
X27743571Y-101439285D01*
X27886428Y-101403571D01*
X28065000Y-101403571D01*
X28207857Y-101439285D01*
X28279285Y-101475000D01*
X28315000Y-101510714D01*
X28350714Y-101582142D01*
X27600714Y-102189285D02*
X27600714Y-102332142D01*
X27636428Y-102403571D01*
X27672142Y-102439285D01*
X27779285Y-102510714D01*
X27922142Y-102546428D01*
X28207857Y-102546428D01*
X28279285Y-102510714D01*
X28315000Y-102475000D01*
X28350714Y-102403571D01*
X28350714Y-102260714D01*
X28315000Y-102189285D01*
X28279285Y-102153571D01*
X28207857Y-102117857D01*
X28029285Y-102117857D01*
X27957857Y-102153571D01*
X27922142Y-102189285D01*
X27886428Y-102260714D01*
X27886428Y-102403571D01*
X27922142Y-102475000D01*
X27957857Y-102510714D01*
X28029285Y-102546428D01*
X58045000Y-107197857D02*
X58009285Y-107269285D01*
X58009285Y-107376428D01*
X58045000Y-107483571D01*
X58116428Y-107555000D01*
X58187857Y-107590714D01*
X58330714Y-107626428D01*
X58437857Y-107626428D01*
X58580714Y-107590714D01*
X58652142Y-107555000D01*
X58723571Y-107483571D01*
X58759285Y-107376428D01*
X58759285Y-107305000D01*
X58723571Y-107197857D01*
X58687857Y-107162142D01*
X58437857Y-107162142D01*
X58437857Y-107305000D01*
X58080714Y-106876428D02*
X58045000Y-106840714D01*
X58009285Y-106769285D01*
X58009285Y-106590714D01*
X58045000Y-106519285D01*
X58080714Y-106483571D01*
X58152142Y-106447857D01*
X58223571Y-106447857D01*
X58330714Y-106483571D01*
X58759285Y-106912142D01*
X58759285Y-106447857D01*
X58009285Y-105769285D02*
X58009285Y-106126428D01*
X58366428Y-106162142D01*
X58330714Y-106126428D01*
X58295000Y-106055000D01*
X58295000Y-105876428D01*
X58330714Y-105805000D01*
X58366428Y-105769285D01*
X58437857Y-105733571D01*
X58616428Y-105733571D01*
X58687857Y-105769285D01*
X58723571Y-105805000D01*
X58759285Y-105876428D01*
X58759285Y-106055000D01*
X58723571Y-106126428D01*
X58687857Y-106162142D01*
X58545000Y-94515714D02*
X58545000Y-94158571D01*
X58759285Y-94587142D02*
X58009285Y-94337142D01*
X58759285Y-94087142D01*
X58080714Y-93872857D02*
X58045000Y-93837142D01*
X58009285Y-93765714D01*
X58009285Y-93587142D01*
X58045000Y-93515714D01*
X58080714Y-93480000D01*
X58152142Y-93444285D01*
X58223571Y-93444285D01*
X58330714Y-93480000D01*
X58759285Y-93908571D01*
X58759285Y-93444285D01*
X58545000Y-89435714D02*
X58545000Y-89078571D01*
X58759285Y-89507142D02*
X58009285Y-89257142D01*
X58759285Y-89007142D01*
X58009285Y-88828571D02*
X58009285Y-88364285D01*
X58295000Y-88614285D01*
X58295000Y-88507142D01*
X58330714Y-88435714D01*
X58366428Y-88400000D01*
X58437857Y-88364285D01*
X58616428Y-88364285D01*
X58687857Y-88400000D01*
X58723571Y-88435714D01*
X58759285Y-88507142D01*
X58759285Y-88721428D01*
X58723571Y-88792857D01*
X58687857Y-88828571D01*
X58009285Y-84605714D02*
X58009285Y-84141428D01*
X58295000Y-84391428D01*
X58295000Y-84284285D01*
X58330714Y-84212857D01*
X58366428Y-84177142D01*
X58437857Y-84141428D01*
X58616428Y-84141428D01*
X58687857Y-84177142D01*
X58723571Y-84212857D01*
X58759285Y-84284285D01*
X58759285Y-84498571D01*
X58723571Y-84570000D01*
X58687857Y-84605714D01*
X58687857Y-83820000D02*
X58723571Y-83784285D01*
X58759285Y-83820000D01*
X58723571Y-83855714D01*
X58687857Y-83820000D01*
X58759285Y-83820000D01*
X58009285Y-83534285D02*
X58009285Y-83070000D01*
X58295000Y-83320000D01*
X58295000Y-83212857D01*
X58330714Y-83141428D01*
X58366428Y-83105714D01*
X58437857Y-83070000D01*
X58616428Y-83070000D01*
X58687857Y-83105714D01*
X58723571Y-83141428D01*
X58759285Y-83212857D01*
X58759285Y-83427142D01*
X58723571Y-83498571D01*
X58687857Y-83534285D01*
X28315000Y-88382142D02*
X28350714Y-88310714D01*
X28350714Y-88203571D01*
X28315000Y-88096428D01*
X28243571Y-88025000D01*
X28172142Y-87989285D01*
X28029285Y-87953571D01*
X27922142Y-87953571D01*
X27779285Y-87989285D01*
X27707857Y-88025000D01*
X27636428Y-88096428D01*
X27600714Y-88203571D01*
X27600714Y-88275000D01*
X27636428Y-88382142D01*
X27672142Y-88417857D01*
X27922142Y-88417857D01*
X27922142Y-88275000D01*
X28350714Y-88882142D02*
X28350714Y-88953571D01*
X28315000Y-89025000D01*
X28279285Y-89060714D01*
X28207857Y-89096428D01*
X28065000Y-89132142D01*
X27886428Y-89132142D01*
X27743571Y-89096428D01*
X27672142Y-89060714D01*
X27636428Y-89025000D01*
X27600714Y-88953571D01*
X27600714Y-88882142D01*
X27636428Y-88810714D01*
X27672142Y-88775000D01*
X27743571Y-88739285D01*
X27886428Y-88703571D01*
X28065000Y-88703571D01*
X28207857Y-88739285D01*
X28279285Y-88775000D01*
X28315000Y-88810714D01*
X28350714Y-88882142D01*
X28350714Y-89810714D02*
X28350714Y-89453571D01*
X27993571Y-89417857D01*
X28029285Y-89453571D01*
X28065000Y-89525000D01*
X28065000Y-89703571D01*
X28029285Y-89775000D01*
X27993571Y-89810714D01*
X27922142Y-89846428D01*
X27743571Y-89846428D01*
X27672142Y-89810714D01*
X27636428Y-89775000D01*
X27600714Y-89703571D01*
X27600714Y-89525000D01*
X27636428Y-89453571D01*
X27672142Y-89417857D01*
X28315000Y-96002142D02*
X28350714Y-95930714D01*
X28350714Y-95823571D01*
X28315000Y-95716428D01*
X28243571Y-95645000D01*
X28172142Y-95609285D01*
X28029285Y-95573571D01*
X27922142Y-95573571D01*
X27779285Y-95609285D01*
X27707857Y-95645000D01*
X27636428Y-95716428D01*
X27600714Y-95823571D01*
X27600714Y-95895000D01*
X27636428Y-96002142D01*
X27672142Y-96037857D01*
X27922142Y-96037857D01*
X27922142Y-95895000D01*
X28350714Y-96502142D02*
X28350714Y-96573571D01*
X28315000Y-96645000D01*
X28279285Y-96680714D01*
X28207857Y-96716428D01*
X28065000Y-96752142D01*
X27886428Y-96752142D01*
X27743571Y-96716428D01*
X27672142Y-96680714D01*
X27636428Y-96645000D01*
X27600714Y-96573571D01*
X27600714Y-96502142D01*
X27636428Y-96430714D01*
X27672142Y-96395000D01*
X27743571Y-96359285D01*
X27886428Y-96323571D01*
X28065000Y-96323571D01*
X28207857Y-96359285D01*
X28279285Y-96395000D01*
X28315000Y-96430714D01*
X28350714Y-96502142D01*
X28350714Y-97002142D02*
X28350714Y-97502142D01*
X27600714Y-97180714D01*
X58045000Y-114817857D02*
X58009285Y-114889285D01*
X58009285Y-114996428D01*
X58045000Y-115103571D01*
X58116428Y-115175000D01*
X58187857Y-115210714D01*
X58330714Y-115246428D01*
X58437857Y-115246428D01*
X58580714Y-115210714D01*
X58652142Y-115175000D01*
X58723571Y-115103571D01*
X58759285Y-114996428D01*
X58759285Y-114925000D01*
X58723571Y-114817857D01*
X58687857Y-114782142D01*
X58437857Y-114782142D01*
X58437857Y-114925000D01*
X58080714Y-114496428D02*
X58045000Y-114460714D01*
X58009285Y-114389285D01*
X58009285Y-114210714D01*
X58045000Y-114139285D01*
X58080714Y-114103571D01*
X58152142Y-114067857D01*
X58223571Y-114067857D01*
X58330714Y-114103571D01*
X58759285Y-114532142D01*
X58759285Y-114067857D01*
X58080714Y-113782142D02*
X58045000Y-113746428D01*
X58009285Y-113675000D01*
X58009285Y-113496428D01*
X58045000Y-113425000D01*
X58080714Y-113389285D01*
X58152142Y-113353571D01*
X58223571Y-113353571D01*
X58330714Y-113389285D01*
X58759285Y-113817857D01*
X58759285Y-113353571D01*
X28315000Y-83302142D02*
X28350714Y-83230714D01*
X28350714Y-83123571D01*
X28315000Y-83016428D01*
X28243571Y-82945000D01*
X28172142Y-82909285D01*
X28029285Y-82873571D01*
X27922142Y-82873571D01*
X27779285Y-82909285D01*
X27707857Y-82945000D01*
X27636428Y-83016428D01*
X27600714Y-83123571D01*
X27600714Y-83195000D01*
X27636428Y-83302142D01*
X27672142Y-83337857D01*
X27922142Y-83337857D01*
X27922142Y-83195000D01*
X28350714Y-83802142D02*
X28350714Y-83873571D01*
X28315000Y-83945000D01*
X28279285Y-83980714D01*
X28207857Y-84016428D01*
X28065000Y-84052142D01*
X27886428Y-84052142D01*
X27743571Y-84016428D01*
X27672142Y-83980714D01*
X27636428Y-83945000D01*
X27600714Y-83873571D01*
X27600714Y-83802142D01*
X27636428Y-83730714D01*
X27672142Y-83695000D01*
X27743571Y-83659285D01*
X27886428Y-83623571D01*
X28065000Y-83623571D01*
X28207857Y-83659285D01*
X28279285Y-83695000D01*
X28315000Y-83730714D01*
X28350714Y-83802142D01*
X28350714Y-84302142D02*
X28350714Y-84766428D01*
X28065000Y-84516428D01*
X28065000Y-84623571D01*
X28029285Y-84695000D01*
X27993571Y-84730714D01*
X27922142Y-84766428D01*
X27743571Y-84766428D01*
X27672142Y-84730714D01*
X27636428Y-84695000D01*
X27600714Y-84623571D01*
X27600714Y-84409285D01*
X27636428Y-84337857D01*
X27672142Y-84302142D01*
X58045000Y-117411428D02*
X58009285Y-117482857D01*
X58009285Y-117590000D01*
X58045000Y-117697142D01*
X58116428Y-117768571D01*
X58187857Y-117804285D01*
X58330714Y-117840000D01*
X58437857Y-117840000D01*
X58580714Y-117804285D01*
X58652142Y-117768571D01*
X58723571Y-117697142D01*
X58759285Y-117590000D01*
X58759285Y-117518571D01*
X58723571Y-117411428D01*
X58687857Y-117375714D01*
X58437857Y-117375714D01*
X58437857Y-117518571D01*
X58759285Y-117054285D02*
X58009285Y-117054285D01*
X58759285Y-116625714D01*
X58009285Y-116625714D01*
X58759285Y-116268571D02*
X58009285Y-116268571D01*
X58009285Y-116090000D01*
X58045000Y-115982857D01*
X58116428Y-115911428D01*
X58187857Y-115875714D01*
X58330714Y-115840000D01*
X58437857Y-115840000D01*
X58580714Y-115875714D01*
X58652142Y-115911428D01*
X58723571Y-115982857D01*
X58759285Y-116090000D01*
X58759285Y-116268571D01*
X58045000Y-119951428D02*
X58009285Y-120022857D01*
X58009285Y-120130000D01*
X58045000Y-120237142D01*
X58116428Y-120308571D01*
X58187857Y-120344285D01*
X58330714Y-120380000D01*
X58437857Y-120380000D01*
X58580714Y-120344285D01*
X58652142Y-120308571D01*
X58723571Y-120237142D01*
X58759285Y-120130000D01*
X58759285Y-120058571D01*
X58723571Y-119951428D01*
X58687857Y-119915714D01*
X58437857Y-119915714D01*
X58437857Y-120058571D01*
X58759285Y-119594285D02*
X58009285Y-119594285D01*
X58759285Y-119165714D01*
X58009285Y-119165714D01*
X58759285Y-118808571D02*
X58009285Y-118808571D01*
X58009285Y-118630000D01*
X58045000Y-118522857D01*
X58116428Y-118451428D01*
X58187857Y-118415714D01*
X58330714Y-118380000D01*
X58437857Y-118380000D01*
X58580714Y-118415714D01*
X58652142Y-118451428D01*
X58723571Y-118522857D01*
X58759285Y-118630000D01*
X58759285Y-118808571D01*
X38223357Y-111688571D02*
X38366214Y-111736190D01*
X38413833Y-111783809D01*
X38461452Y-111879047D01*
X38461452Y-112021904D01*
X38413833Y-112117142D01*
X38366214Y-112164761D01*
X38270976Y-112212380D01*
X37890023Y-112212380D01*
X37890023Y-111212380D01*
X38223357Y-111212380D01*
X38318595Y-111260000D01*
X38366214Y-111307619D01*
X38413833Y-111402857D01*
X38413833Y-111498095D01*
X38366214Y-111593333D01*
X38318595Y-111640952D01*
X38223357Y-111688571D01*
X37890023Y-111688571D01*
X39080500Y-111212380D02*
X39270976Y-111212380D01*
X39366214Y-111260000D01*
X39461452Y-111355238D01*
X39509071Y-111545714D01*
X39509071Y-111879047D01*
X39461452Y-112069523D01*
X39366214Y-112164761D01*
X39270976Y-112212380D01*
X39080500Y-112212380D01*
X38985261Y-112164761D01*
X38890023Y-112069523D01*
X38842404Y-111879047D01*
X38842404Y-111545714D01*
X38890023Y-111355238D01*
X38985261Y-111260000D01*
X39080500Y-111212380D01*
X40128119Y-111212380D02*
X40318595Y-111212380D01*
X40413833Y-111260000D01*
X40509071Y-111355238D01*
X40556690Y-111545714D01*
X40556690Y-111879047D01*
X40509071Y-112069523D01*
X40413833Y-112164761D01*
X40318595Y-112212380D01*
X40128119Y-112212380D01*
X40032880Y-112164761D01*
X39937642Y-112069523D01*
X39890023Y-111879047D01*
X39890023Y-111545714D01*
X39937642Y-111355238D01*
X40032880Y-111260000D01*
X40128119Y-111212380D01*
X40842404Y-111212380D02*
X41413833Y-111212380D01*
X41128119Y-112212380D02*
X41128119Y-111212380D01*
X28315000Y-85842142D02*
X28350714Y-85770714D01*
X28350714Y-85663571D01*
X28315000Y-85556428D01*
X28243571Y-85485000D01*
X28172142Y-85449285D01*
X28029285Y-85413571D01*
X27922142Y-85413571D01*
X27779285Y-85449285D01*
X27707857Y-85485000D01*
X27636428Y-85556428D01*
X27600714Y-85663571D01*
X27600714Y-85735000D01*
X27636428Y-85842142D01*
X27672142Y-85877857D01*
X27922142Y-85877857D01*
X27922142Y-85735000D01*
X28350714Y-86342142D02*
X28350714Y-86413571D01*
X28315000Y-86485000D01*
X28279285Y-86520714D01*
X28207857Y-86556428D01*
X28065000Y-86592142D01*
X27886428Y-86592142D01*
X27743571Y-86556428D01*
X27672142Y-86520714D01*
X27636428Y-86485000D01*
X27600714Y-86413571D01*
X27600714Y-86342142D01*
X27636428Y-86270714D01*
X27672142Y-86235000D01*
X27743571Y-86199285D01*
X27886428Y-86163571D01*
X28065000Y-86163571D01*
X28207857Y-86199285D01*
X28279285Y-86235000D01*
X28315000Y-86270714D01*
X28350714Y-86342142D01*
X28100714Y-87235000D02*
X27600714Y-87235000D01*
X28386428Y-87056428D02*
X27850714Y-86877857D01*
X27850714Y-87342142D01*
X28315000Y-108702142D02*
X28350714Y-108630714D01*
X28350714Y-108523571D01*
X28315000Y-108416428D01*
X28243571Y-108345000D01*
X28172142Y-108309285D01*
X28029285Y-108273571D01*
X27922142Y-108273571D01*
X27779285Y-108309285D01*
X27707857Y-108345000D01*
X27636428Y-108416428D01*
X27600714Y-108523571D01*
X27600714Y-108595000D01*
X27636428Y-108702142D01*
X27672142Y-108737857D01*
X27922142Y-108737857D01*
X27922142Y-108595000D01*
X27600714Y-109452142D02*
X27600714Y-109023571D01*
X27600714Y-109237857D02*
X28350714Y-109237857D01*
X28243571Y-109166428D01*
X28172142Y-109095000D01*
X28136428Y-109023571D01*
X27600714Y-110166428D02*
X27600714Y-109737857D01*
X27600714Y-109952142D02*
X28350714Y-109952142D01*
X28243571Y-109880714D01*
X28172142Y-109809285D01*
X28136428Y-109737857D01*
X58045000Y-109737857D02*
X58009285Y-109809285D01*
X58009285Y-109916428D01*
X58045000Y-110023571D01*
X58116428Y-110095000D01*
X58187857Y-110130714D01*
X58330714Y-110166428D01*
X58437857Y-110166428D01*
X58580714Y-110130714D01*
X58652142Y-110095000D01*
X58723571Y-110023571D01*
X58759285Y-109916428D01*
X58759285Y-109845000D01*
X58723571Y-109737857D01*
X58687857Y-109702142D01*
X58437857Y-109702142D01*
X58437857Y-109845000D01*
X58080714Y-109416428D02*
X58045000Y-109380714D01*
X58009285Y-109309285D01*
X58009285Y-109130714D01*
X58045000Y-109059285D01*
X58080714Y-109023571D01*
X58152142Y-108987857D01*
X58223571Y-108987857D01*
X58330714Y-109023571D01*
X58759285Y-109452142D01*
X58759285Y-108987857D01*
X58259285Y-108345000D02*
X58759285Y-108345000D01*
X57973571Y-108523571D02*
X58509285Y-108702142D01*
X58509285Y-108237857D01*
X28315000Y-113782142D02*
X28350714Y-113710714D01*
X28350714Y-113603571D01*
X28315000Y-113496428D01*
X28243571Y-113425000D01*
X28172142Y-113389285D01*
X28029285Y-113353571D01*
X27922142Y-113353571D01*
X27779285Y-113389285D01*
X27707857Y-113425000D01*
X27636428Y-113496428D01*
X27600714Y-113603571D01*
X27600714Y-113675000D01*
X27636428Y-113782142D01*
X27672142Y-113817857D01*
X27922142Y-113817857D01*
X27922142Y-113675000D01*
X27600714Y-114532142D02*
X27600714Y-114103571D01*
X27600714Y-114317857D02*
X28350714Y-114317857D01*
X28243571Y-114246428D01*
X28172142Y-114175000D01*
X28136428Y-114103571D01*
X28350714Y-114782142D02*
X28350714Y-115246428D01*
X28065000Y-114996428D01*
X28065000Y-115103571D01*
X28029285Y-115175000D01*
X27993571Y-115210714D01*
X27922142Y-115246428D01*
X27743571Y-115246428D01*
X27672142Y-115210714D01*
X27636428Y-115175000D01*
X27600714Y-115103571D01*
X27600714Y-114889285D01*
X27636428Y-114817857D01*
X27672142Y-114782142D01*
X28315000Y-73142142D02*
X28350714Y-73070714D01*
X28350714Y-72963571D01*
X28315000Y-72856428D01*
X28243571Y-72785000D01*
X28172142Y-72749285D01*
X28029285Y-72713571D01*
X27922142Y-72713571D01*
X27779285Y-72749285D01*
X27707857Y-72785000D01*
X27636428Y-72856428D01*
X27600714Y-72963571D01*
X27600714Y-73035000D01*
X27636428Y-73142142D01*
X27672142Y-73177857D01*
X27922142Y-73177857D01*
X27922142Y-73035000D01*
X28350714Y-73642142D02*
X28350714Y-73713571D01*
X28315000Y-73785000D01*
X28279285Y-73820714D01*
X28207857Y-73856428D01*
X28065000Y-73892142D01*
X27886428Y-73892142D01*
X27743571Y-73856428D01*
X27672142Y-73820714D01*
X27636428Y-73785000D01*
X27600714Y-73713571D01*
X27600714Y-73642142D01*
X27636428Y-73570714D01*
X27672142Y-73535000D01*
X27743571Y-73499285D01*
X27886428Y-73463571D01*
X28065000Y-73463571D01*
X28207857Y-73499285D01*
X28279285Y-73535000D01*
X28315000Y-73570714D01*
X28350714Y-73642142D01*
X28350714Y-74356428D02*
X28350714Y-74427857D01*
X28315000Y-74499285D01*
X28279285Y-74535000D01*
X28207857Y-74570714D01*
X28065000Y-74606428D01*
X27886428Y-74606428D01*
X27743571Y-74570714D01*
X27672142Y-74535000D01*
X27636428Y-74499285D01*
X27600714Y-74427857D01*
X27600714Y-74356428D01*
X27636428Y-74285000D01*
X27672142Y-74249285D01*
X27743571Y-74213571D01*
X27886428Y-74177857D01*
X28065000Y-74177857D01*
X28207857Y-74213571D01*
X28279285Y-74249285D01*
X28315000Y-74285000D01*
X28350714Y-74356428D01*
X28315000Y-78168571D02*
X28350714Y-78097142D01*
X28350714Y-77990000D01*
X28315000Y-77882857D01*
X28243571Y-77811428D01*
X28172142Y-77775714D01*
X28029285Y-77740000D01*
X27922142Y-77740000D01*
X27779285Y-77775714D01*
X27707857Y-77811428D01*
X27636428Y-77882857D01*
X27600714Y-77990000D01*
X27600714Y-78061428D01*
X27636428Y-78168571D01*
X27672142Y-78204285D01*
X27922142Y-78204285D01*
X27922142Y-78061428D01*
X27600714Y-78525714D02*
X28350714Y-78525714D01*
X27600714Y-78954285D01*
X28350714Y-78954285D01*
X27600714Y-79311428D02*
X28350714Y-79311428D01*
X28350714Y-79490000D01*
X28315000Y-79597142D01*
X28243571Y-79668571D01*
X28172142Y-79704285D01*
X28029285Y-79740000D01*
X27922142Y-79740000D01*
X27779285Y-79704285D01*
X27707857Y-79668571D01*
X27636428Y-79597142D01*
X27600714Y-79490000D01*
X27600714Y-79311428D01*
X28315000Y-118862142D02*
X28350714Y-118790714D01*
X28350714Y-118683571D01*
X28315000Y-118576428D01*
X28243571Y-118505000D01*
X28172142Y-118469285D01*
X28029285Y-118433571D01*
X27922142Y-118433571D01*
X27779285Y-118469285D01*
X27707857Y-118505000D01*
X27636428Y-118576428D01*
X27600714Y-118683571D01*
X27600714Y-118755000D01*
X27636428Y-118862142D01*
X27672142Y-118897857D01*
X27922142Y-118897857D01*
X27922142Y-118755000D01*
X27600714Y-119612142D02*
X27600714Y-119183571D01*
X27600714Y-119397857D02*
X28350714Y-119397857D01*
X28243571Y-119326428D01*
X28172142Y-119255000D01*
X28136428Y-119183571D01*
X28100714Y-120255000D02*
X27600714Y-120255000D01*
X28386428Y-120076428D02*
X27850714Y-119897857D01*
X27850714Y-120362142D01*
X58009285Y-74285000D02*
X58759285Y-74035000D01*
X58009285Y-73785000D01*
X58366428Y-73285000D02*
X58402142Y-73177857D01*
X58437857Y-73142142D01*
X58509285Y-73106428D01*
X58616428Y-73106428D01*
X58687857Y-73142142D01*
X58723571Y-73177857D01*
X58759285Y-73249285D01*
X58759285Y-73535000D01*
X58009285Y-73535000D01*
X58009285Y-73285000D01*
X58045000Y-73213571D01*
X58080714Y-73177857D01*
X58152142Y-73142142D01*
X58223571Y-73142142D01*
X58295000Y-73177857D01*
X58330714Y-73213571D01*
X58366428Y-73285000D01*
X58366428Y-73535000D01*
X58545000Y-97055714D02*
X58545000Y-96698571D01*
X58759285Y-97127142D02*
X58009285Y-96877142D01*
X58759285Y-96627142D01*
X58759285Y-95984285D02*
X58759285Y-96412857D01*
X58759285Y-96198571D02*
X58009285Y-96198571D01*
X58116428Y-96270000D01*
X58187857Y-96341428D01*
X58223571Y-96412857D01*
X28315000Y-103568571D02*
X28350714Y-103497142D01*
X28350714Y-103390000D01*
X28315000Y-103282857D01*
X28243571Y-103211428D01*
X28172142Y-103175714D01*
X28029285Y-103140000D01*
X27922142Y-103140000D01*
X27779285Y-103175714D01*
X27707857Y-103211428D01*
X27636428Y-103282857D01*
X27600714Y-103390000D01*
X27600714Y-103461428D01*
X27636428Y-103568571D01*
X27672142Y-103604285D01*
X27922142Y-103604285D01*
X27922142Y-103461428D01*
X27600714Y-103925714D02*
X28350714Y-103925714D01*
X27600714Y-104354285D01*
X28350714Y-104354285D01*
X27600714Y-104711428D02*
X28350714Y-104711428D01*
X28350714Y-104890000D01*
X28315000Y-104997142D01*
X28243571Y-105068571D01*
X28172142Y-105104285D01*
X28029285Y-105140000D01*
X27922142Y-105140000D01*
X27779285Y-105104285D01*
X27707857Y-105068571D01*
X27636428Y-104997142D01*
X27600714Y-104890000D01*
X27600714Y-104711428D01*
X58045000Y-92011428D02*
X58009285Y-92082857D01*
X58009285Y-92190000D01*
X58045000Y-92297142D01*
X58116428Y-92368571D01*
X58187857Y-92404285D01*
X58330714Y-92440000D01*
X58437857Y-92440000D01*
X58580714Y-92404285D01*
X58652142Y-92368571D01*
X58723571Y-92297142D01*
X58759285Y-92190000D01*
X58759285Y-92118571D01*
X58723571Y-92011428D01*
X58687857Y-91975714D01*
X58437857Y-91975714D01*
X58437857Y-92118571D01*
X58759285Y-91654285D02*
X58009285Y-91654285D01*
X58759285Y-91225714D01*
X58009285Y-91225714D01*
X58759285Y-90868571D02*
X58009285Y-90868571D01*
X58009285Y-90690000D01*
X58045000Y-90582857D01*
X58116428Y-90511428D01*
X58187857Y-90475714D01*
X58330714Y-90440000D01*
X58437857Y-90440000D01*
X58580714Y-90475714D01*
X58652142Y-90511428D01*
X58723571Y-90582857D01*
X58759285Y-90690000D01*
X58759285Y-90868571D01*
X28315000Y-111242142D02*
X28350714Y-111170714D01*
X28350714Y-111063571D01*
X28315000Y-110956428D01*
X28243571Y-110885000D01*
X28172142Y-110849285D01*
X28029285Y-110813571D01*
X27922142Y-110813571D01*
X27779285Y-110849285D01*
X27707857Y-110885000D01*
X27636428Y-110956428D01*
X27600714Y-111063571D01*
X27600714Y-111135000D01*
X27636428Y-111242142D01*
X27672142Y-111277857D01*
X27922142Y-111277857D01*
X27922142Y-111135000D01*
X27600714Y-111992142D02*
X27600714Y-111563571D01*
X27600714Y-111777857D02*
X28350714Y-111777857D01*
X28243571Y-111706428D01*
X28172142Y-111635000D01*
X28136428Y-111563571D01*
X28279285Y-112277857D02*
X28315000Y-112313571D01*
X28350714Y-112385000D01*
X28350714Y-112563571D01*
X28315000Y-112635000D01*
X28279285Y-112670714D01*
X28207857Y-112706428D01*
X28136428Y-112706428D01*
X28029285Y-112670714D01*
X27600714Y-112242142D01*
X27600714Y-112706428D01*
X38560952Y-59357619D02*
X38608571Y-59310000D01*
X38703809Y-59262380D01*
X38941904Y-59262380D01*
X39037142Y-59310000D01*
X39084761Y-59357619D01*
X39132380Y-59452857D01*
X39132380Y-59548095D01*
X39084761Y-59690952D01*
X38513333Y-60262380D01*
X39132380Y-60262380D01*
X40037142Y-59262380D02*
X39560952Y-59262380D01*
X39513333Y-59738571D01*
X39560952Y-59690952D01*
X39656190Y-59643333D01*
X39894285Y-59643333D01*
X39989523Y-59690952D01*
X40037142Y-59738571D01*
X40084761Y-59833809D01*
X40084761Y-60071904D01*
X40037142Y-60167142D01*
X39989523Y-60214761D01*
X39894285Y-60262380D01*
X39656190Y-60262380D01*
X39560952Y-60214761D01*
X39513333Y-60167142D01*
X40513333Y-60167142D02*
X40560952Y-60214761D01*
X40513333Y-60262380D01*
X40465714Y-60214761D01*
X40513333Y-60167142D01*
X40513333Y-60262380D01*
X41418095Y-59595714D02*
X41418095Y-60262380D01*
X41179999Y-59214761D02*
X40941904Y-59929047D01*
X41560952Y-59929047D01*
X42132380Y-59262380D02*
X42227619Y-59262380D01*
X42322857Y-59310000D01*
X42370476Y-59357619D01*
X42418095Y-59452857D01*
X42465714Y-59643333D01*
X42465714Y-59881428D01*
X42418095Y-60071904D01*
X42370476Y-60167142D01*
X42322857Y-60214761D01*
X42227619Y-60262380D01*
X42132380Y-60262380D01*
X42037142Y-60214761D01*
X41989523Y-60167142D01*
X41941904Y-60071904D01*
X41894285Y-59881428D01*
X41894285Y-59643333D01*
X41941904Y-59452857D01*
X41989523Y-59357619D01*
X42037142Y-59310000D01*
X42132380Y-59262380D01*
X43084761Y-59262380D02*
X43179999Y-59262380D01*
X43275238Y-59310000D01*
X43322857Y-59357619D01*
X43370476Y-59452857D01*
X43418095Y-59643333D01*
X43418095Y-59881428D01*
X43370476Y-60071904D01*
X43322857Y-60167142D01*
X43275238Y-60214761D01*
X43179999Y-60262380D01*
X43084761Y-60262380D01*
X42989523Y-60214761D01*
X42941904Y-60167142D01*
X42894285Y-60071904D01*
X42846666Y-59881428D01*
X42846666Y-59643333D01*
X42894285Y-59452857D01*
X42941904Y-59357619D01*
X42989523Y-59310000D01*
X43084761Y-59262380D01*
X44037142Y-59262380D02*
X44132380Y-59262380D01*
X44227619Y-59310000D01*
X44275238Y-59357619D01*
X44322857Y-59452857D01*
X44370476Y-59643333D01*
X44370476Y-59881428D01*
X44322857Y-60071904D01*
X44275238Y-60167142D01*
X44227619Y-60214761D01*
X44132380Y-60262380D01*
X44037142Y-60262380D01*
X43941904Y-60214761D01*
X43894285Y-60167142D01*
X43846666Y-60071904D01*
X43799047Y-59881428D01*
X43799047Y-59643333D01*
X43846666Y-59452857D01*
X43894285Y-59357619D01*
X43941904Y-59310000D01*
X44037142Y-59262380D01*
X45560952Y-60262380D02*
X45560952Y-59595714D01*
X45560952Y-59690952D02*
X45608571Y-59643333D01*
X45703809Y-59595714D01*
X45846666Y-59595714D01*
X45941904Y-59643333D01*
X45989523Y-59738571D01*
X45989523Y-60262380D01*
X45989523Y-59738571D02*
X46037142Y-59643333D01*
X46132380Y-59595714D01*
X46275238Y-59595714D01*
X46370476Y-59643333D01*
X46418095Y-59738571D01*
X46418095Y-60262380D01*
X46894285Y-60262380D02*
X46894285Y-59595714D01*
X46894285Y-59690952D02*
X46941904Y-59643333D01*
X47037142Y-59595714D01*
X47180000Y-59595714D01*
X47275238Y-59643333D01*
X47322857Y-59738571D01*
X47322857Y-60262380D01*
X47322857Y-59738571D02*
X47370476Y-59643333D01*
X47465714Y-59595714D01*
X47608571Y-59595714D01*
X47703809Y-59643333D01*
X47751428Y-59738571D01*
X47751428Y-60262380D01*
X30480000Y-73160000D02*
X30480000Y-60373580D01*
X55880000Y-73160000D02*
X55880000Y-60373580D01*
X30480000Y-60960000D02*
X55880000Y-60960000D01*
X30480000Y-60960000D02*
X55880000Y-60960000D01*
X30480000Y-60960000D02*
X31606504Y-61546421D01*
X30480000Y-60960000D02*
X31606504Y-60373579D01*
X55880000Y-60960000D02*
X54753496Y-60373579D01*
X55880000Y-60960000D02*
X54753496Y-61546421D01*
D11*
%TO.C,U2*%
X39370000Y-76180000D02*
X41320000Y-76180000D01*
X39370000Y-81300000D02*
X41320000Y-81300000D01*
X39370000Y-76180000D02*
X35920000Y-76180000D01*
X39370000Y-81300000D02*
X37420000Y-81300000D01*
D12*
%TO.C,SW1*%
X41830500Y-105400000D02*
X37330500Y-105400000D01*
X37030500Y-106770000D02*
X37030500Y-109130000D01*
X42130500Y-109130000D02*
X42130500Y-106770000D01*
X41830500Y-110500000D02*
X37330500Y-110500000D01*
D13*
X35430500Y-106075000D02*
G75*
G03*
X35430500Y-106075000I-100000J0D01*
G01*
D11*
%TO.C,C5*%
X44302000Y-84435836D02*
X44302000Y-84220164D01*
X43582000Y-84435836D02*
X43582000Y-84220164D01*
%TO.C,C17*%
X48662000Y-120757836D02*
X48662000Y-120542164D01*
X49382000Y-120757836D02*
X49382000Y-120542164D01*
%TO.C,C2*%
X44090000Y-97809164D02*
X44090000Y-98024836D01*
X44810000Y-97809164D02*
X44810000Y-98024836D01*
%TO.C,R4*%
X42038000Y-97763359D02*
X42038000Y-98070641D01*
X42798000Y-97763359D02*
X42798000Y-98070641D01*
%TO.C,R7*%
X49884359Y-104774000D02*
X50191641Y-104774000D01*
X49884359Y-104014000D02*
X50191641Y-104014000D01*
D12*
%TO.C,SW2*%
X49877500Y-109130000D02*
X49877500Y-106770000D01*
X49577500Y-110500000D02*
X45077500Y-110500000D01*
X49577500Y-105400000D02*
X45077500Y-105400000D01*
X44777500Y-106770000D02*
X44777500Y-109130000D01*
D13*
X43177500Y-106075000D02*
G75*
G03*
X43177500Y-106075000I-100000J0D01*
G01*
D11*
%TO.C,R1*%
X47090359Y-74804000D02*
X47397641Y-74804000D01*
X47090359Y-75564000D02*
X47397641Y-75564000D01*
%TO.C,C11*%
X48154000Y-87483836D02*
X48154000Y-87268164D01*
X48874000Y-87483836D02*
X48874000Y-87268164D01*
%TO.C,C35*%
X47390164Y-124058000D02*
X47605836Y-124058000D01*
X47390164Y-123338000D02*
X47605836Y-123338000D01*
%TO.C,C12*%
X47136164Y-73808000D02*
X47351836Y-73808000D01*
X47136164Y-74528000D02*
X47351836Y-74528000D01*
%TO.C,C4*%
X47392000Y-84435836D02*
X47392000Y-84220164D01*
X48112000Y-84435836D02*
X48112000Y-84220164D01*
%TO.C,C8*%
X37953836Y-91969000D02*
X37738164Y-91969000D01*
X37953836Y-92689000D02*
X37738164Y-92689000D01*
%TO.C,C19*%
X36937836Y-117750000D02*
X36722164Y-117750000D01*
X36937836Y-118470000D02*
X36722164Y-118470000D01*
%TO.C,J2*%
X29150000Y-123250000D02*
X31810000Y-123250000D01*
X31810000Y-74930000D02*
X31810000Y-123250000D01*
X29150000Y-74930000D02*
X29150000Y-123250000D01*
X29150000Y-73660000D02*
X29150000Y-72330000D01*
X29150000Y-72330000D02*
X30480000Y-72330000D01*
X29150000Y-74930000D02*
X31810000Y-74930000D01*
%TO.C,R12*%
X46877500Y-80247258D02*
X46877500Y-79772742D01*
X45832500Y-80247258D02*
X45832500Y-79772742D01*
%TO.C,R14*%
X37212000Y-127788641D02*
X37212000Y-127481359D01*
X37972000Y-127788641D02*
X37972000Y-127481359D01*
%TO.C,C1*%
X47096000Y-84435836D02*
X47096000Y-84220164D01*
X46376000Y-84435836D02*
X46376000Y-84220164D01*
%TO.C,C37*%
X52978164Y-116226000D02*
X53193836Y-116226000D01*
X52978164Y-116946000D02*
X53193836Y-116946000D01*
%TO.C,R28*%
X51207641Y-116206000D02*
X50900359Y-116206000D01*
X51207641Y-116966000D02*
X50900359Y-116966000D01*
%TO.C,R22*%
X42292000Y-127407641D02*
X42292000Y-127100359D01*
X43052000Y-127407641D02*
X43052000Y-127100359D01*
%TO.C,R16*%
X36956000Y-127788641D02*
X36956000Y-127481359D01*
X36196000Y-127788641D02*
X36196000Y-127481359D01*
%TO.C,D1*%
X47982000Y-75858000D02*
X45432000Y-75858000D01*
X47982000Y-77558000D02*
X45432000Y-77558000D01*
X47982000Y-77558000D02*
X47982000Y-75858000D01*
D12*
%TO.C,P1*%
X39176000Y-72700000D02*
X39406000Y-72700000D01*
X39176000Y-72700000D02*
X39176000Y-70850000D01*
X46676000Y-72700000D02*
X46676000Y-70850000D01*
X46676000Y-72700000D02*
X46446000Y-72700000D01*
D13*
X44326000Y-73950000D02*
G75*
G03*
X44326000Y-73950000I-100000J0D01*
G01*
D11*
%TO.C,R8*%
X50418000Y-76300359D02*
X50418000Y-76607641D01*
X49658000Y-76300359D02*
X49658000Y-76607641D01*
%TO.C,C3*%
X42566000Y-84435836D02*
X42566000Y-84220164D01*
X43286000Y-84435836D02*
X43286000Y-84220164D01*
%TO.C,C31*%
X44048000Y-127742836D02*
X44048000Y-127527164D01*
X43328000Y-127742836D02*
X43328000Y-127527164D01*
%TO.C,C6*%
X45318000Y-84435836D02*
X45318000Y-84220164D01*
X44598000Y-84435836D02*
X44598000Y-84220164D01*
%TO.C,C23*%
X42779836Y-125582000D02*
X42564164Y-125582000D01*
X42779836Y-124862000D02*
X42564164Y-124862000D01*
%TO.C,C29*%
X56320000Y-136035252D02*
X56320000Y-133712748D01*
X52900000Y-136035252D02*
X52900000Y-133712748D01*
%TO.C,R17*%
X38228000Y-127788641D02*
X38228000Y-127481359D01*
X38988000Y-127788641D02*
X38988000Y-127481359D01*
%TO.C,Y1*%
X41180000Y-102742000D02*
X45180000Y-102742000D01*
X41180000Y-99442000D02*
X41180000Y-102742000D01*
%TO.C,C32*%
X48112000Y-127869836D02*
X48112000Y-127654164D01*
X47392000Y-127869836D02*
X47392000Y-127654164D01*
%TO.C,J1*%
X37024000Y-97917000D02*
X37024000Y-96587000D01*
X39684000Y-99187000D02*
X39684000Y-104327000D01*
X37024000Y-96587000D02*
X38354000Y-96587000D01*
X37024000Y-104327000D02*
X39684000Y-104327000D01*
X37024000Y-99187000D02*
X37024000Y-104327000D01*
X37024000Y-99187000D02*
X39684000Y-99187000D01*
%TO.C,R11*%
X45439359Y-113918000D02*
X45746641Y-113918000D01*
X45439359Y-113158000D02*
X45746641Y-113158000D01*
D12*
%TO.C,P2*%
X35180000Y-150450000D02*
X51180000Y-150450000D01*
X35180000Y-129100000D02*
X35180000Y-150450000D01*
X51180000Y-129100000D02*
X35180000Y-129100000D01*
X51180000Y-150450000D02*
X51180000Y-129100000D01*
D11*
%TO.C,C18*%
X37318836Y-125624000D02*
X37103164Y-125624000D01*
X37318836Y-126344000D02*
X37103164Y-126344000D01*
%TO.C,R25*%
X49023000Y-127862359D02*
X49023000Y-128169641D01*
X49783000Y-127862359D02*
X49783000Y-128169641D01*
%TO.C,R27*%
X49402000Y-118771641D02*
X49402000Y-118464359D01*
X48642000Y-118771641D02*
X48642000Y-118464359D01*
%TO.C,C9*%
X43794000Y-97809164D02*
X43794000Y-98024836D01*
X43074000Y-97809164D02*
X43074000Y-98024836D01*
%TO.C,C7*%
X38588836Y-87778000D02*
X38373164Y-87778000D01*
X38588836Y-88498000D02*
X38373164Y-88498000D01*
%TO.C,U1*%
X50546000Y-75220000D02*
X49746000Y-75220000D01*
X50546000Y-75220000D02*
X51346000Y-75220000D01*
X50546000Y-72100000D02*
X51346000Y-72100000D01*
X50546000Y-72100000D02*
X48746000Y-72100000D01*
%TO.C,C13*%
X52980000Y-72917164D02*
X52980000Y-73132836D01*
X53700000Y-72917164D02*
X53700000Y-73132836D01*
%TO.C,C27*%
X45614000Y-99675836D02*
X45614000Y-99460164D01*
X46334000Y-99675836D02*
X46334000Y-99460164D01*
%TO.C,C15*%
X35579164Y-114152000D02*
X35794836Y-114152000D01*
X35579164Y-113432000D02*
X35794836Y-113432000D01*
%TO.C,R20*%
X35940000Y-127788641D02*
X35940000Y-127481359D01*
X35180000Y-127788641D02*
X35180000Y-127481359D01*
%TO.C,R18*%
X47344359Y-114428000D02*
X47651641Y-114428000D01*
X47344359Y-115188000D02*
X47651641Y-115188000D01*
%TO.C,Y2*%
X49689000Y-120649000D02*
X53689000Y-120649000D01*
X49689000Y-117349000D02*
X49689000Y-120649000D01*
%TO.C,C20*%
X36937836Y-120121000D02*
X36722164Y-120121000D01*
X36937836Y-119401000D02*
X36722164Y-119401000D01*
%TO.C,R9*%
X44972500Y-80247258D02*
X44972500Y-79772742D01*
X43927500Y-80247258D02*
X43927500Y-79772742D01*
%TO.C,J3*%
X57210000Y-120650000D02*
X57210000Y-72330000D01*
X57210000Y-123250000D02*
X55880000Y-123250000D01*
X57210000Y-72330000D02*
X54550000Y-72330000D01*
X57210000Y-120650000D02*
X54550000Y-120650000D01*
X54550000Y-120650000D02*
X54550000Y-72330000D01*
X57210000Y-121920000D02*
X57210000Y-123250000D01*
%TO.C,U3*%
X40020000Y-122990000D02*
X39570000Y-122990000D01*
X46790000Y-122990000D02*
X46790000Y-122540000D01*
X46340000Y-115770000D02*
X46790000Y-115770000D01*
X39570000Y-115770000D02*
X39570000Y-116220000D01*
X46340000Y-122990000D02*
X46790000Y-122990000D01*
X39570000Y-122990000D02*
X39570000Y-122540000D01*
X40020000Y-115770000D02*
X39570000Y-115770000D01*
X46790000Y-115770000D02*
X46790000Y-116220000D01*
X39570000Y-116220000D02*
X38280000Y-116220000D01*
%TO.C,R6*%
X43280359Y-105028000D02*
X43587641Y-105028000D01*
X43280359Y-104268000D02*
X43587641Y-104268000D01*
%TO.C,R2*%
X44324000Y-74522359D02*
X44324000Y-74829641D01*
X45084000Y-74522359D02*
X45084000Y-74829641D01*
%TO.C,C28*%
X51414000Y-76561836D02*
X51414000Y-76346164D01*
X50694000Y-76561836D02*
X50694000Y-76346164D01*
%TO.C,C34*%
X44811836Y-125836000D02*
X44596164Y-125836000D01*
X44811836Y-125116000D02*
X44596164Y-125116000D01*
%TO.C,R21*%
X46356000Y-127153641D02*
X46356000Y-126846359D01*
X47116000Y-127153641D02*
X47116000Y-126846359D01*
%TO.C,R10*%
X40004000Y-127788641D02*
X40004000Y-127481359D01*
X39244000Y-127788641D02*
X39244000Y-127481359D01*
%TO.C,R15*%
X49148000Y-84481641D02*
X49148000Y-84174359D01*
X48388000Y-84481641D02*
X48388000Y-84174359D01*
%TO.C,C14*%
X52470164Y-76560000D02*
X52685836Y-76560000D01*
X52470164Y-75840000D02*
X52685836Y-75840000D01*
%TO.C,R26*%
X36958000Y-121258359D02*
X36958000Y-121565641D01*
X37718000Y-121258359D02*
X37718000Y-121565641D01*
%TO.C,R13*%
X50164000Y-84174359D02*
X50164000Y-84481641D01*
X49404000Y-84174359D02*
X49404000Y-84481641D01*
%TO.C,R3*%
X45340000Y-74829641D02*
X45340000Y-74522359D01*
X46100000Y-74829641D02*
X46100000Y-74522359D01*
%TO.C,C25*%
X40747836Y-75798000D02*
X40532164Y-75798000D01*
X40747836Y-75078000D02*
X40532164Y-75078000D01*
%TO.C,U4*%
X40620000Y-94710000D02*
X39970000Y-94710000D01*
X46540000Y-94710000D02*
X47190000Y-94710000D01*
X46540000Y-87490000D02*
X47190000Y-87490000D01*
X47190000Y-94710000D02*
X47190000Y-94060000D01*
X47190000Y-87490000D02*
X47190000Y-88140000D01*
X40620000Y-87490000D02*
X39970000Y-87490000D01*
X39970000Y-94710000D02*
X39970000Y-94060000D01*
%TO.C,C26*%
X43326164Y-103018000D02*
X43541836Y-103018000D01*
X43326164Y-103738000D02*
X43541836Y-103738000D01*
%TO.C,C30*%
X40280000Y-127742836D02*
X40280000Y-127527164D01*
X41000000Y-127742836D02*
X41000000Y-127527164D01*
%TO.C,C33*%
X44344000Y-127742836D02*
X44344000Y-127527164D01*
X45064000Y-127742836D02*
X45064000Y-127527164D01*
%TO.C,L1*%
X36180348Y-115726385D02*
X36180348Y-116051943D01*
X35160348Y-115726385D02*
X35160348Y-116051943D01*
%TO.C,C10*%
X51327164Y-94255000D02*
X51542836Y-94255000D01*
X51327164Y-94975000D02*
X51542836Y-94975000D01*
%TO.C,C22*%
X40747836Y-124862000D02*
X40532164Y-124862000D01*
X40747836Y-125582000D02*
X40532164Y-125582000D01*
%TO.C,Q1*%
X48732000Y-80264000D02*
X48732000Y-81939000D01*
X51852000Y-80264000D02*
X51852000Y-79614000D01*
X51852000Y-80264000D02*
X51852000Y-80914000D01*
X48732000Y-80264000D02*
X48732000Y-79614000D01*
%TO.C,R24*%
X41276000Y-127788641D02*
X41276000Y-127481359D01*
X42036000Y-127788641D02*
X42036000Y-127481359D01*
%TO.C,C24*%
X46628164Y-125582000D02*
X46843836Y-125582000D01*
X46628164Y-124862000D02*
X46843836Y-124862000D01*
%TO.C,R5*%
X48642000Y-76300359D02*
X48642000Y-76607641D01*
X49402000Y-76300359D02*
X49402000Y-76607641D01*
%TO.C,C21*%
X38246164Y-123550000D02*
X38461836Y-123550000D01*
X38246164Y-122830000D02*
X38461836Y-122830000D01*
%TO.C,C36*%
X51672164Y-121772000D02*
X51887836Y-121772000D01*
X51672164Y-121052000D02*
X51887836Y-121052000D01*
%TO.C,R23*%
X45340000Y-127788641D02*
X45340000Y-127481359D01*
X46100000Y-127788641D02*
X46100000Y-127481359D01*
%TO.C,R19*%
X50420000Y-127862359D02*
X50420000Y-128169641D01*
X51180000Y-127862359D02*
X51180000Y-128169641D01*
%TO.C,C16*%
X41255836Y-113178000D02*
X41040164Y-113178000D01*
X41255836Y-113898000D02*
X41040164Y-113898000D01*
%TD*%
M02*
