%TF.GenerationSoftware,KiCad,Pcbnew,6.0.2+dfsg-1*%
%TF.CreationDate,2022-12-03T09:23:02-05:00*%
%TF.ProjectId,wiz5500-clone-4layer,77697a35-3530-4302-9d63-6c6f6e652d34,rev?*%
%TF.SameCoordinates,Original*%
%TF.FileFunction,Soldermask,Bot*%
%TF.FilePolarity,Negative*%
%FSLAX46Y46*%
G04 Gerber Fmt 4.6, Leading zero omitted, Abs format (unit mm)*
G04 Created by KiCad (PCBNEW 6.0.2+dfsg-1) date 2022-12-03 09:23:02*
%MOMM*%
%LPD*%
G01*
G04 APERTURE LIST*
%ADD10R,1.700000X1.700000*%
%ADD11O,1.700000X1.700000*%
%ADD12C,3.250000*%
%ADD13R,1.408000X1.408000*%
%ADD14C,1.408000*%
%ADD15C,1.530000*%
%ADD16C,2.400000*%
G04 APERTURE END LIST*
D10*
%TO.C,J2*%
X30480000Y-73660000D03*
D11*
X30480000Y-76200000D03*
X30480000Y-78740000D03*
X30480000Y-81280000D03*
X30480000Y-83820000D03*
X30480000Y-86360000D03*
X30480000Y-88900000D03*
X30480000Y-91440000D03*
X30480000Y-93980000D03*
X30480000Y-96520000D03*
X30480000Y-99060000D03*
X30480000Y-101600000D03*
X30480000Y-104140000D03*
X30480000Y-106680000D03*
X30480000Y-109220000D03*
X30480000Y-111760000D03*
X30480000Y-114300000D03*
X30480000Y-116840000D03*
X30480000Y-119380000D03*
X30480000Y-121920000D03*
%TD*%
D10*
%TO.C,J1*%
X38354000Y-97917000D03*
D11*
X38354000Y-100457000D03*
X38354000Y-102997000D03*
%TD*%
D12*
%TO.C,P2*%
X48895000Y-139700000D03*
X37465000Y-139700000D03*
D13*
X38735000Y-133350000D03*
D14*
X40005000Y-130810000D03*
X41275000Y-133350000D03*
X42545000Y-130810000D03*
X43815000Y-133350000D03*
X45085000Y-130810000D03*
X46355000Y-133350000D03*
X47625000Y-130810000D03*
D15*
X36855000Y-144780000D03*
X39422000Y-143080000D03*
X46938000Y-144780000D03*
X49505000Y-143080000D03*
D16*
X50930000Y-136650000D03*
X35430000Y-136650000D03*
%TD*%
D10*
%TO.C,J3*%
X55880000Y-121920000D03*
D11*
X55880000Y-119380000D03*
X55880000Y-116840000D03*
X55880000Y-114300000D03*
X55880000Y-111760000D03*
X55880000Y-109220000D03*
X55880000Y-106680000D03*
X55880000Y-104140000D03*
X55880000Y-101600000D03*
X55880000Y-99060000D03*
X55880000Y-96520000D03*
X55880000Y-93980000D03*
X55880000Y-91440000D03*
X55880000Y-88900000D03*
X55880000Y-86360000D03*
X55880000Y-83820000D03*
X55880000Y-81280000D03*
X55880000Y-78740000D03*
X55880000Y-76200000D03*
X55880000Y-73660000D03*
%TD*%
M02*
