M48
; DRILL file {KiCad 6.0.2+dfsg-1} date Sat 03 Dec 2022 09:23:04 AM EST
; FORMAT={-:-/ absolute / inch / decimal}
; #@! TF.CreationDate,2022-12-03T09:23:04-05:00
; #@! TF.GenerationSoftware,Kicad,Pcbnew,6.0.2+dfsg-1
; #@! TF.FileFunction,Plated,1,4,PTH
FMAT,2
INCH
; #@! TA.AperFunction,Plated,PTH,ViaDrill
T1C0.0118
; #@! TA.AperFunction,Plated,PTH,ComponentDrill
T2C0.0354
; #@! TA.AperFunction,Plated,PTH,ComponentDrill
T3C0.0394
; #@! TA.AperFunction,Plated,PTH,ComponentDrill
T4C0.0402
; #@! TA.AperFunction,Plated,PTH,ComponentDrill
T5C0.0630
%
G90
G05
T1
X1.38Y-4.65
X1.4Y-4.53
X1.4Y-4.59
X1.4Y-5.0
X1.43Y-3.64
X1.43Y-4.48
X1.44Y-4.33
X1.45Y-4.96
X1.45Y-4.6055
X1.46Y-3.47
X1.46Y-4.5
X1.46Y-4.53
X1.48Y-5.0
X1.485Y-4.5898
X1.5Y-3.17
X1.52Y-5.0
X1.53Y-4.85
X1.55Y-4.94
X1.5571Y-2.7629
X1.56Y-5.0
X1.575Y-3.455
X1.59Y-4.68
X1.5903Y-2.8497
X1.6Y-4.8
X1.6Y-5.0
X1.615Y-4.12
X1.62Y-3.49
X1.62Y-3.63
X1.63Y-2.77
X1.64Y-4.47
X1.65Y-4.65
X1.65Y-4.68
X1.65Y-4.72
X1.65Y-4.75
X1.6533Y-3.025
X1.6567Y-3.9465
X1.66Y-4.93
X1.67Y-3.54
X1.67Y-3.63
X1.675Y-4.8
X1.68Y-4.33
X1.68Y-4.65
X1.68Y-4.68
X1.68Y-4.72
X1.68Y-4.75
X1.68Y-4.99
X1.71Y-3.68
X1.71Y-3.8361
X1.71Y-4.65
X1.71Y-4.68
X1.71Y-4.72
X1.71Y-4.75
X1.7157Y-3.5866
X1.7294Y-3.3394
X1.73Y-2.77
X1.73Y-3.26
X1.74Y-3.48
X1.74Y-4.33
X1.74Y-4.65
X1.74Y-4.68
X1.74Y-4.72
X1.74Y-4.75
X1.74Y-4.94
X1.7433Y-4.0135
X1.75Y-3.8739
X1.75Y-4.81
X1.76Y-3.54
X1.76Y-3.63
X1.76Y-5.0
X1.7694Y-3.3394
X1.7748Y-3.811
X1.7879Y-2.8514
X1.8023Y-3.8121
X1.81Y-3.49
X1.81Y-3.64
X1.81Y-4.65
X1.815Y-3.575
X1.8171Y-4.61
X1.83Y-3.01
X1.8457Y-3.811
X1.86Y-3.26
X1.87Y-3.43
X1.8712Y-3.811
X1.88Y-2.78
X1.88Y-3.3389
X1.89Y-4.52
X1.89Y-4.87
X1.9Y-3.735
X1.9256Y-3.735
X1.9259Y-4.385
X1.93Y-4.7311
X1.94Y-3.18
X1.94Y-3.21
X1.94Y-4.285
X1.9452Y-2.9374
X1.9511Y-3.735
X1.96Y-3.34
X1.975Y-4.465
X1.9767Y-3.735
X1.98Y-4.33
X1.99Y-2.85
X1.9917Y-4.6515
X2.01Y-2.9911
X2.02Y-2.89
X2.02Y-3.21
X2.0348Y-2.8626
X2.035Y-4.0
X2.05Y-3.725
X2.0783Y-4.7185
X2.09Y-3.0
X2.1Y-2.89
X2.1Y-5.22
X2.1Y-5.4
X2.11Y-4.59
X2.125Y-5.22
X2.125Y-5.4
X2.15Y-5.22
X2.15Y-5.4
X2.175Y-5.22
X2.175Y-5.4
X2.2Y-5.22
X2.2Y-5.4
T2
X1.525Y-5.25
X1.575Y-5.15
X1.625Y-5.25
X1.675Y-5.15
X1.725Y-5.25
X1.775Y-5.15
X1.825Y-5.25
X1.875Y-5.15
T3
X1.2Y-2.9
X1.2Y-3.0
X1.2Y-3.1
X1.2Y-3.2
X1.2Y-3.3
X1.2Y-3.4
X1.2Y-3.5
X1.2Y-3.6
X1.2Y-3.7
X1.2Y-3.8
X1.2Y-3.9
X1.2Y-4.0
X1.2Y-4.1
X1.2Y-4.2
X1.2Y-4.3
X1.2Y-4.4
X1.2Y-4.5
X1.2Y-4.6
X1.2Y-4.7
X1.2Y-4.8
X1.51Y-3.855
X1.51Y-3.955
X1.51Y-4.055
X2.2Y-2.9
X2.2Y-3.0
X2.2Y-3.1
X2.2Y-3.2
X2.2Y-3.3
X2.2Y-3.4
X2.2Y-3.5
X2.2Y-3.6
X2.2Y-3.7
X2.2Y-3.8
X2.2Y-3.9
X2.2Y-4.0
X2.2Y-4.1
X2.2Y-4.2
X2.2Y-4.3
X2.2Y-4.4
X2.2Y-4.5
X2.2Y-4.6
X2.2Y-4.7
X2.2Y-4.8
T4
X1.451Y-5.7
X1.552Y-5.6331
X1.848Y-5.7
X1.949Y-5.6331
T5
X1.3949Y-5.3799
X2.0051Y-5.3799
T0
M30
