%TF.GenerationSoftware,KiCad,Pcbnew,6.0.2+dfsg-1*%
%TF.CreationDate,2022-12-03T09:23:02-05:00*%
%TF.ProjectId,wiz5500-clone-4layer,77697a35-3530-4302-9d63-6c6f6e652d34,rev?*%
%TF.SameCoordinates,Original*%
%TF.FileFunction,Copper,L2,Inr*%
%TF.FilePolarity,Positive*%
%FSLAX46Y46*%
G04 Gerber Fmt 4.6, Leading zero omitted, Abs format (unit mm)*
G04 Created by KiCad (PCBNEW 6.0.2+dfsg-1) date 2022-12-03 09:23:02*
%MOMM*%
%LPD*%
G01*
G04 APERTURE LIST*
%TA.AperFunction,ComponentPad*%
%ADD10R,1.700000X1.700000*%
%TD*%
%TA.AperFunction,ComponentPad*%
%ADD11O,1.700000X1.700000*%
%TD*%
%TA.AperFunction,ComponentPad*%
%ADD12R,1.408000X1.408000*%
%TD*%
%TA.AperFunction,ComponentPad*%
%ADD13C,1.408000*%
%TD*%
%TA.AperFunction,ComponentPad*%
%ADD14C,1.530000*%
%TD*%
%TA.AperFunction,ComponentPad*%
%ADD15C,2.400000*%
%TD*%
%TA.AperFunction,ViaPad*%
%ADD16C,0.500000*%
%TD*%
%TA.AperFunction,Conductor*%
%ADD17C,0.200000*%
%TD*%
G04 APERTURE END LIST*
D10*
%TO.N,GPIO0*%
%TO.C,J2*%
X30480000Y-73660000D03*
D11*
%TO.N,GPIO1*%
X30480000Y-76200000D03*
%TO.N,GND*%
X30480000Y-78740000D03*
%TO.N,GPIO2*%
X30480000Y-81280000D03*
%TO.N,GPIO3*%
X30480000Y-83820000D03*
%TO.N,GPIO4*%
X30480000Y-86360000D03*
%TO.N,GPIO5*%
X30480000Y-88900000D03*
%TO.N,GND*%
X30480000Y-91440000D03*
%TO.N,GPIO6*%
X30480000Y-93980000D03*
%TO.N,GPIO7*%
X30480000Y-96520000D03*
%TO.N,GPIO8*%
X30480000Y-99060000D03*
%TO.N,GPIO9*%
X30480000Y-101600000D03*
%TO.N,GND*%
X30480000Y-104140000D03*
%TO.N,GPIO10*%
X30480000Y-106680000D03*
%TO.N,GPIO11*%
X30480000Y-109220000D03*
%TO.N,GPIO12*%
X30480000Y-111760000D03*
%TO.N,GPIO13*%
X30480000Y-114300000D03*
%TO.N,GND*%
X30480000Y-116840000D03*
%TO.N,GPIO14*%
X30480000Y-119380000D03*
%TO.N,GPIO15*%
X30480000Y-121920000D03*
%TD*%
D10*
%TO.N,SWCLK*%
%TO.C,J1*%
X38354000Y-97917000D03*
D11*
%TO.N,GND*%
X38354000Y-100457000D03*
%TO.N,SWDIO*%
X38354000Y-102997000D03*
%TD*%
D12*
%TO.N,Net-(P2-Pad1)*%
%TO.C,P2*%
X38735000Y-133350000D03*
D13*
%TO.N,Net-(C30-Pad1)*%
X40005000Y-130810000D03*
%TO.N,Net-(P2-Pad3)*%
X41275000Y-133350000D03*
%TO.N,Net-(C31-Pad1)*%
X42545000Y-130810000D03*
%TO.N,Net-(C33-Pad1)*%
X43815000Y-133350000D03*
%TO.N,Net-(C32-Pad1)*%
X45085000Y-130810000D03*
%TO.N,unconnected-(P2-Pad7)*%
X46355000Y-133350000D03*
%TO.N,GND*%
X47625000Y-130810000D03*
D14*
%TO.N,Net-(P2-Pad9)*%
X36855000Y-144780000D03*
%TO.N,+3V3*%
X39422000Y-143080000D03*
%TO.N,Net-(P2-Pad11)*%
X46938000Y-144780000D03*
%TO.N,+3V3*%
X49505000Y-143080000D03*
D15*
%TO.N,GNDPWR*%
X50930000Y-136650000D03*
X35430000Y-136650000D03*
%TD*%
D10*
%TO.N,GND*%
%TO.C,J3*%
X55880000Y-121920000D03*
D11*
X55880000Y-119380000D03*
X55880000Y-116840000D03*
%TO.N,GPIO22*%
X55880000Y-114300000D03*
%TO.N,GPIO23*%
X55880000Y-111760000D03*
%TO.N,GPIO24*%
X55880000Y-109220000D03*
%TO.N,GPIO25*%
X55880000Y-106680000D03*
%TO.N,GND*%
X55880000Y-104140000D03*
%TO.N,RUN*%
X55880000Y-101600000D03*
%TO.N,GPIO26{slash}ADC0*%
X55880000Y-99060000D03*
%TO.N,GPIO27{slash}ADC1*%
X55880000Y-96520000D03*
%TO.N,GPIO28{slash}ADC2*%
X55880000Y-93980000D03*
%TO.N,GND*%
X55880000Y-91440000D03*
%TO.N,GPIO29{slash}ADC3*%
X55880000Y-88900000D03*
%TO.N,ADC_VREF*%
X55880000Y-86360000D03*
%TO.N,+3V3*%
X55880000Y-83820000D03*
%TO.N,3V3_EN*%
X55880000Y-81280000D03*
%TO.N,GND*%
X55880000Y-78740000D03*
%TO.N,VSYS*%
X55880000Y-76200000D03*
%TO.N,VBUS*%
X55880000Y-73660000D03*
%TD*%
D16*
%TO.N,GND*%
X44196000Y-109982000D03*
X52070000Y-94615000D03*
X53975000Y-132588000D03*
X50292000Y-109982000D03*
X53086000Y-76200000D03*
X36322000Y-92456000D03*
X35052000Y-118110000D03*
X43580000Y-91100000D03*
X47498000Y-87122000D03*
X44704000Y-89916000D03*
X50589000Y-118149000D03*
X36830000Y-125984000D03*
X43434000Y-119888000D03*
X44450000Y-98397000D03*
X42672000Y-119888000D03*
X44704000Y-92202000D03*
X42080000Y-100242000D03*
X42164000Y-125222000D03*
X51054000Y-75974000D03*
X43434000Y-118872000D03*
X42418000Y-89916000D03*
X54610000Y-132588000D03*
X53594000Y-116586000D03*
X41910000Y-119888000D03*
X52789000Y-119849000D03*
X47244000Y-82804000D03*
X55245000Y-132588000D03*
X44196000Y-118110000D03*
X44704000Y-127000000D03*
X41402000Y-70358000D03*
X53340000Y-73406000D03*
X55880000Y-132588000D03*
X42418000Y-92202000D03*
X44196000Y-118872000D03*
X43434000Y-120650000D03*
X42672000Y-118872000D03*
X40394750Y-72381250D03*
X47752000Y-70612000D03*
X45413500Y-72425000D03*
X49022000Y-120170000D03*
X43434000Y-118110000D03*
X44196000Y-120650000D03*
X40640000Y-127000000D03*
X53340000Y-132588000D03*
X41910000Y-120650000D03*
X42672000Y-118110000D03*
X41910000Y-118872000D03*
X44196000Y-119888000D03*
X44196000Y-125476000D03*
X44280000Y-101942000D03*
X36576000Y-109982000D03*
X43942000Y-82804000D03*
X38862000Y-123190000D03*
X42672000Y-120650000D03*
X37084000Y-88138000D03*
X42672000Y-109982000D03*
X38100000Y-80518000D03*
X39551000Y-70177000D03*
X41910000Y-118110000D03*
X48006000Y-123698000D03*
X43942000Y-70358000D03*
X36322000Y-113792000D03*
%TO.N,+3V3*%
X35560000Y-115062000D03*
X45974000Y-92456000D03*
X43928000Y-84822000D03*
X44196000Y-88392000D03*
X41995000Y-76835000D03*
X45974000Y-88646000D03*
X50546000Y-72390000D03*
X49784000Y-84836000D03*
X44944000Y-84822000D03*
X37084000Y-114300000D03*
X41656000Y-113538000D03*
X49276000Y-81534000D03*
X43434000Y-93472000D03*
X51308000Y-73406000D03*
X37084000Y-115062000D03*
X51683500Y-72710000D03*
X47752000Y-84808000D03*
X49276000Y-80772000D03*
X41148000Y-88646000D03*
X41148000Y-92202000D03*
X43434000Y-97437000D03*
%TO.N,+3.3VA*%
X40640000Y-121920000D03*
X39624000Y-127000000D03*
X37592000Y-127000000D03*
X35560000Y-116586000D03*
X44450000Y-122174000D03*
X40386000Y-118872000D03*
X42545000Y-121920000D03*
%TO.N,GNDPWR*%
X53975000Y-137160000D03*
X55880000Y-137160000D03*
X55245000Y-137160000D03*
X54610000Y-137160000D03*
X53340000Y-137160000D03*
%TO.N,SWCLK*%
X45080000Y-96800000D03*
%TO.N,SWDIO*%
X45777858Y-96827131D03*
%TO.N,GPIO29{slash}ADC3*%
X51308000Y-81534000D03*
%TO.N,3V3_EN*%
X49408500Y-74610000D03*
%TO.N,GPIO24*%
X46101000Y-90805000D03*
X46482000Y-76454000D03*
%TO.N,QSPI_SS_N*%
X41021000Y-104648000D03*
X40005000Y-87757000D03*
%TO.N,RUN*%
X51689000Y-101600000D03*
%TO.N,GPIO20*%
X48917981Y-111379000D03*
X49559006Y-94869000D03*
%TO.N,Net-(R17-Pad2)*%
X38608000Y-127000000D03*
X37719000Y-116580500D03*
%TO.N,GPIO21*%
X48006000Y-114808000D03*
X50208509Y-94869000D03*
%TO.N,Net-(R20-Pad2)*%
X35560000Y-127000000D03*
X36830011Y-116980755D03*
%TO.N,Net-(R22-Pad2)*%
X42672000Y-126746000D03*
X39370000Y-125476000D03*
%TO.N,GPIO17*%
X45974000Y-118110000D03*
X47529503Y-96800000D03*
%TO.N,GPIO18*%
X50165000Y-113411000D03*
X48260000Y-94869000D03*
%TO.N,GPIO16*%
X46155500Y-117094000D03*
X46880000Y-96800000D03*
%TO.N,GPIO19*%
X48909503Y-94869000D03*
X49276000Y-108839000D03*
%TD*%
D17*
%TO.N,SWCLK*%
X38354000Y-97917000D02*
X40767000Y-97917000D01*
X44932000Y-96800000D02*
X45080000Y-96800000D01*
X43180000Y-98552000D02*
X44932000Y-96800000D01*
X40767000Y-97917000D02*
X41402000Y-98552000D01*
X41402000Y-98552000D02*
X43180000Y-98552000D01*
%TO.N,SWDIO*%
X45777858Y-96827131D02*
X45759285Y-96827131D01*
X45759285Y-96827131D02*
X45759285Y-97426419D01*
X45759285Y-97426419D02*
X45624480Y-97561224D01*
X41290127Y-102997000D02*
X38354000Y-102997000D01*
X45624480Y-98662647D02*
X41290127Y-102997000D01*
X45624480Y-97561224D02*
X45624480Y-98662647D01*
%TO.N,GPIO29{slash}ADC3*%
X51308000Y-84328000D02*
X55880000Y-88900000D01*
X51308000Y-81534000D02*
X51308000Y-84328000D01*
%TO.N,3V3_EN*%
X54102000Y-81280000D02*
X55880000Y-81280000D01*
X49408500Y-74610000D02*
X49408500Y-76586500D01*
X49408500Y-76586500D02*
X54102000Y-81280000D01*
%TO.N,GPIO24*%
X46990000Y-89916000D02*
X46101000Y-90805000D01*
X46990000Y-88392000D02*
X46990000Y-89916000D01*
X46482000Y-87884000D02*
X46990000Y-88392000D01*
X46482000Y-76454000D02*
X46482000Y-87884000D01*
%TO.N,QSPI_SS_N*%
X36576000Y-104648000D02*
X41021000Y-104648000D01*
X34756489Y-102828489D02*
X36576000Y-104648000D01*
X39735873Y-87757000D02*
X34756489Y-92736384D01*
X40005000Y-87757000D02*
X39735873Y-87757000D01*
X34756489Y-92736384D02*
X34756489Y-102828489D01*
%TO.N,RUN*%
X51689000Y-101600000D02*
X55880000Y-101600000D01*
%TO.N,GPIO20*%
X49559006Y-108415590D02*
X49775511Y-108632095D01*
X49559006Y-94869000D02*
X49559006Y-108415590D01*
X49775511Y-110521470D02*
X48917981Y-111379000D01*
X49775511Y-108632095D02*
X49775511Y-110521470D01*
%TO.N,Net-(R17-Pad2)*%
X36594520Y-124209393D02*
X36594520Y-118298110D01*
X37379511Y-116919989D02*
X37719000Y-116580500D01*
X36594520Y-118298110D02*
X37379511Y-117513119D01*
X37379511Y-117513119D02*
X37379511Y-116919989D01*
X38608000Y-126222873D02*
X36594520Y-124209393D01*
X38608000Y-127000000D02*
X38608000Y-126222873D01*
%TO.N,GPIO21*%
X51028090Y-114071910D02*
X51028090Y-95688581D01*
X48006000Y-114808000D02*
X50292000Y-114808000D01*
X51028090Y-95688581D02*
X50208509Y-94869000D01*
X50292000Y-114808000D02*
X51028090Y-114071910D01*
%TO.N,Net-(R20-Pad2)*%
X36195000Y-117615766D02*
X36830011Y-116980755D01*
X35560000Y-127000000D02*
X36195000Y-126365000D01*
X36195000Y-126365000D02*
X36195000Y-117615766D01*
%TO.N,Net-(R22-Pad2)*%
X39370000Y-125476000D02*
X41402000Y-125476000D01*
X41402000Y-125476000D02*
X42672000Y-126746000D01*
%TO.N,GPIO17*%
X47529503Y-96800000D02*
X47529503Y-97025561D01*
X46736000Y-117348000D02*
X45974000Y-118110000D01*
X47529503Y-97025561D02*
X46736000Y-97819064D01*
X46736000Y-97819064D02*
X46736000Y-117348000D01*
%TO.N,GPIO18*%
X48260000Y-111506000D02*
X48260000Y-94869000D01*
X50165000Y-113411000D02*
X48260000Y-111506000D01*
%TO.N,GPIO16*%
X45974000Y-97706000D02*
X46880000Y-96800000D01*
X46155500Y-117094000D02*
X45974000Y-116912500D01*
X45974000Y-116912500D02*
X45974000Y-97706000D01*
%TO.N,GPIO19*%
X48909503Y-94869000D02*
X48909503Y-108472503D01*
X48909503Y-108472503D02*
X49276000Y-108839000D01*
%TD*%
M02*
