%TF.GenerationSoftware,KiCad,Pcbnew,6.0.2+dfsg-1*%
%TF.CreationDate,2022-12-03T09:23:02-05:00*%
%TF.ProjectId,wiz5500-clone-4layer,77697a35-3530-4302-9d63-6c6f6e652d34,rev?*%
%TF.SameCoordinates,Original*%
%TF.FileFunction,Copper,L1,Top*%
%TF.FilePolarity,Positive*%
%FSLAX46Y46*%
G04 Gerber Fmt 4.6, Leading zero omitted, Abs format (unit mm)*
G04 Created by KiCad (PCBNEW 6.0.2+dfsg-1) date 2022-12-03 09:23:02*
%MOMM*%
%LPD*%
G01*
G04 APERTURE LIST*
G04 Aperture macros list*
%AMRoundRect*
0 Rectangle with rounded corners*
0 $1 Rounding radius*
0 $2 $3 $4 $5 $6 $7 $8 $9 X,Y pos of 4 corners*
0 Add a 4 corners polygon primitive as box body*
4,1,4,$2,$3,$4,$5,$6,$7,$8,$9,$2,$3,0*
0 Add four circle primitives for the rounded corners*
1,1,$1+$1,$2,$3*
1,1,$1+$1,$4,$5*
1,1,$1+$1,$6,$7*
1,1,$1+$1,$8,$9*
0 Add four rect primitives between the rounded corners*
20,1,$1+$1,$2,$3,$4,$5,0*
20,1,$1+$1,$4,$5,$6,$7,0*
20,1,$1+$1,$6,$7,$8,$9,0*
20,1,$1+$1,$8,$9,$2,$3,0*%
G04 Aperture macros list end*
%TA.AperFunction,SMDPad,CuDef*%
%ADD10RoundRect,0.150000X-0.825000X-0.150000X0.825000X-0.150000X0.825000X0.150000X-0.825000X0.150000X0*%
%TD*%
%TA.AperFunction,SMDPad,CuDef*%
%ADD11R,1.000000X0.750000*%
%TD*%
%TA.AperFunction,SMDPad,CuDef*%
%ADD12RoundRect,0.140000X0.170000X-0.140000X0.170000X0.140000X-0.170000X0.140000X-0.170000X-0.140000X0*%
%TD*%
%TA.AperFunction,SMDPad,CuDef*%
%ADD13RoundRect,0.140000X-0.170000X0.140000X-0.170000X-0.140000X0.170000X-0.140000X0.170000X0.140000X0*%
%TD*%
%TA.AperFunction,SMDPad,CuDef*%
%ADD14RoundRect,0.135000X-0.185000X0.135000X-0.185000X-0.135000X0.185000X-0.135000X0.185000X0.135000X0*%
%TD*%
%TA.AperFunction,SMDPad,CuDef*%
%ADD15RoundRect,0.135000X-0.135000X-0.185000X0.135000X-0.185000X0.135000X0.185000X-0.135000X0.185000X0*%
%TD*%
%TA.AperFunction,SMDPad,CuDef*%
%ADD16RoundRect,0.140000X-0.140000X-0.170000X0.140000X-0.170000X0.140000X0.170000X-0.140000X0.170000X0*%
%TD*%
%TA.AperFunction,SMDPad,CuDef*%
%ADD17RoundRect,0.140000X0.140000X0.170000X-0.140000X0.170000X-0.140000X-0.170000X0.140000X-0.170000X0*%
%TD*%
%TA.AperFunction,ComponentPad*%
%ADD18R,1.700000X1.700000*%
%TD*%
%TA.AperFunction,ComponentPad*%
%ADD19O,1.700000X1.700000*%
%TD*%
%TA.AperFunction,SMDPad,CuDef*%
%ADD20RoundRect,0.200000X0.275000X-0.200000X0.275000X0.200000X-0.275000X0.200000X-0.275000X-0.200000X0*%
%TD*%
%TA.AperFunction,SMDPad,CuDef*%
%ADD21RoundRect,0.135000X0.185000X-0.135000X0.185000X0.135000X-0.185000X0.135000X-0.185000X-0.135000X0*%
%TD*%
%TA.AperFunction,SMDPad,CuDef*%
%ADD22RoundRect,0.135000X0.135000X0.185000X-0.135000X0.185000X-0.135000X-0.185000X0.135000X-0.185000X0*%
%TD*%
%TA.AperFunction,SMDPad,CuDef*%
%ADD23R,0.600000X0.450000*%
%TD*%
%TA.AperFunction,SMDPad,CuDef*%
%ADD24R,0.450000X1.380000*%
%TD*%
%TA.AperFunction,SMDPad,CuDef*%
%ADD25R,1.425000X1.550000*%
%TD*%
%TA.AperFunction,SMDPad,CuDef*%
%ADD26R,1.650000X1.300000*%
%TD*%
%TA.AperFunction,SMDPad,CuDef*%
%ADD27R,1.800000X1.900000*%
%TD*%
%TA.AperFunction,SMDPad,CuDef*%
%ADD28R,1.000000X1.900000*%
%TD*%
%TA.AperFunction,SMDPad,CuDef*%
%ADD29RoundRect,0.249999X1.450001X-0.450001X1.450001X0.450001X-1.450001X0.450001X-1.450001X-0.450001X0*%
%TD*%
%TA.AperFunction,SMDPad,CuDef*%
%ADD30R,1.400000X1.200000*%
%TD*%
%TA.AperFunction,ComponentPad*%
%ADD31R,1.408000X1.408000*%
%TD*%
%TA.AperFunction,ComponentPad*%
%ADD32C,1.408000*%
%TD*%
%TA.AperFunction,ComponentPad*%
%ADD33C,1.530000*%
%TD*%
%TA.AperFunction,ComponentPad*%
%ADD34C,2.400000*%
%TD*%
%TA.AperFunction,SMDPad,CuDef*%
%ADD35RoundRect,0.150000X-0.512500X-0.150000X0.512500X-0.150000X0.512500X0.150000X-0.512500X0.150000X0*%
%TD*%
%TA.AperFunction,SMDPad,CuDef*%
%ADD36RoundRect,0.075000X-0.662500X-0.075000X0.662500X-0.075000X0.662500X0.075000X-0.662500X0.075000X0*%
%TD*%
%TA.AperFunction,SMDPad,CuDef*%
%ADD37RoundRect,0.075000X-0.075000X-0.662500X0.075000X-0.662500X0.075000X0.662500X-0.075000X0.662500X0*%
%TD*%
%TA.AperFunction,SMDPad,CuDef*%
%ADD38R,3.600000X3.600000*%
%TD*%
%TA.AperFunction,SMDPad,CuDef*%
%ADD39RoundRect,0.050000X-0.387500X-0.050000X0.387500X-0.050000X0.387500X0.050000X-0.387500X0.050000X0*%
%TD*%
%TA.AperFunction,SMDPad,CuDef*%
%ADD40RoundRect,0.050000X-0.050000X-0.387500X0.050000X-0.387500X0.050000X0.387500X-0.050000X0.387500X0*%
%TD*%
%TA.AperFunction,SMDPad,CuDef*%
%ADD41R,3.200000X3.200000*%
%TD*%
%TA.AperFunction,SMDPad,CuDef*%
%ADD42RoundRect,0.218750X-0.256250X0.218750X-0.256250X-0.218750X0.256250X-0.218750X0.256250X0.218750X0*%
%TD*%
%TA.AperFunction,SMDPad,CuDef*%
%ADD43RoundRect,0.150000X0.150000X-0.587500X0.150000X0.587500X-0.150000X0.587500X-0.150000X-0.587500X0*%
%TD*%
%TA.AperFunction,ViaPad*%
%ADD44C,0.500000*%
%TD*%
%TA.AperFunction,Conductor*%
%ADD45C,0.200000*%
%TD*%
%TA.AperFunction,Conductor*%
%ADD46C,0.400000*%
%TD*%
%TA.AperFunction,Conductor*%
%ADD47C,0.300000*%
%TD*%
G04 APERTURE END LIST*
D10*
%TO.P,U2,1,CS#*%
%TO.N,QSPI_SS_N*%
X36895000Y-76835000D03*
%TO.P,U2,2,SO*%
%TO.N,QSPI_SD1*%
X36895000Y-78105000D03*
%TO.P,U2,3,WP#*%
%TO.N,QSPI_SD2*%
X36895000Y-79375000D03*
%TO.P,U2,4,GND*%
%TO.N,GND*%
X36895000Y-80645000D03*
%TO.P,U2,5,SI*%
%TO.N,QSPI_SD0*%
X41845000Y-80645000D03*
%TO.P,U2,6,SCLK*%
%TO.N,QSPI_SCLK*%
X41845000Y-79375000D03*
%TO.P,U2,7,HOLD#*%
%TO.N,QSPI_SD3*%
X41845000Y-78105000D03*
%TO.P,U2,8,VCC*%
%TO.N,+3V3*%
X41845000Y-76835000D03*
%TD*%
D11*
%TO.P,SW1,1,1*%
%TO.N,Net-(R6-Pad2)*%
X36580500Y-106075000D03*
X42580500Y-106075000D03*
%TO.P,SW1,2,2*%
%TO.N,GND*%
X36580500Y-109825000D03*
X42580500Y-109825000D03*
%TD*%
D12*
%TO.P,C5,1*%
%TO.N,+3V3*%
X43942000Y-84808000D03*
%TO.P,C5,2*%
%TO.N,GND*%
X43942000Y-83848000D03*
%TD*%
%TO.P,C17,1*%
%TO.N,+3V3*%
X49022000Y-121130000D03*
%TO.P,C17,2*%
%TO.N,GND*%
X49022000Y-120170000D03*
%TD*%
D13*
%TO.P,C2,1*%
%TO.N,+1V1*%
X44450000Y-97437000D03*
%TO.P,C2,2*%
%TO.N,GND*%
X44450000Y-98397000D03*
%TD*%
D14*
%TO.P,R4,1*%
%TO.N,XOUT*%
X42418000Y-97407000D03*
%TO.P,R4,2*%
%TO.N,Net-(C27-Pad1)*%
X42418000Y-98427000D03*
%TD*%
D15*
%TO.P,R7,1*%
%TO.N,RUN*%
X49528000Y-104394000D03*
%TO.P,R7,2*%
%TO.N,Net-(R7-Pad2)*%
X50548000Y-104394000D03*
%TD*%
D11*
%TO.P,SW2,1,1*%
%TO.N,Net-(R7-Pad2)*%
X44327500Y-106075000D03*
X50327500Y-106075000D03*
%TO.P,SW2,2,2*%
%TO.N,GND*%
X44327500Y-109825000D03*
X50327500Y-109825000D03*
%TD*%
D15*
%TO.P,R1,1*%
%TO.N,VSYS*%
X46734000Y-75184000D03*
%TO.P,R1,2*%
%TO.N,3V3_EN*%
X47754000Y-75184000D03*
%TD*%
D12*
%TO.P,C11,1*%
%TO.N,+3V3*%
X48514000Y-87856000D03*
%TO.P,C11,2*%
%TO.N,GND*%
X48514000Y-86896000D03*
%TD*%
D16*
%TO.P,C35,1*%
%TO.N,Net-(C35-Pad1)*%
X47018000Y-123698000D03*
%TO.P,C35,2*%
%TO.N,GND*%
X47978000Y-123698000D03*
%TD*%
%TO.P,C12,1*%
%TO.N,VSYS*%
X46764000Y-74168000D03*
%TO.P,C12,2*%
%TO.N,GND*%
X47724000Y-74168000D03*
%TD*%
D12*
%TO.P,C4,1*%
%TO.N,+3V3*%
X47752000Y-84808000D03*
%TO.P,C4,2*%
%TO.N,GND*%
X47752000Y-83848000D03*
%TD*%
D17*
%TO.P,C8,1*%
%TO.N,+3V3*%
X38326000Y-92329000D03*
%TO.P,C8,2*%
%TO.N,GND*%
X37366000Y-92329000D03*
%TD*%
%TO.P,C19,1*%
%TO.N,+3.3VA*%
X37310000Y-118110000D03*
%TO.P,C19,2*%
%TO.N,GND*%
X36350000Y-118110000D03*
%TD*%
D18*
%TO.P,J2,1,Pin_1*%
%TO.N,GPIO0*%
X30480000Y-73660000D03*
D19*
%TO.P,J2,2,Pin_2*%
%TO.N,GPIO1*%
X30480000Y-76200000D03*
%TO.P,J2,3,Pin_3*%
%TO.N,GND*%
X30480000Y-78740000D03*
%TO.P,J2,4,Pin_4*%
%TO.N,GPIO2*%
X30480000Y-81280000D03*
%TO.P,J2,5,Pin_5*%
%TO.N,GPIO3*%
X30480000Y-83820000D03*
%TO.P,J2,6,Pin_6*%
%TO.N,GPIO4*%
X30480000Y-86360000D03*
%TO.P,J2,7,Pin_7*%
%TO.N,GPIO5*%
X30480000Y-88900000D03*
%TO.P,J2,8,Pin_8*%
%TO.N,GND*%
X30480000Y-91440000D03*
%TO.P,J2,9,Pin_9*%
%TO.N,GPIO6*%
X30480000Y-93980000D03*
%TO.P,J2,10,Pin_10*%
%TO.N,GPIO7*%
X30480000Y-96520000D03*
%TO.P,J2,11,Pin_11*%
%TO.N,GPIO8*%
X30480000Y-99060000D03*
%TO.P,J2,12,Pin_12*%
%TO.N,GPIO9*%
X30480000Y-101600000D03*
%TO.P,J2,13,Pin_13*%
%TO.N,GND*%
X30480000Y-104140000D03*
%TO.P,J2,14,Pin_14*%
%TO.N,GPIO10*%
X30480000Y-106680000D03*
%TO.P,J2,15,Pin_15*%
%TO.N,GPIO11*%
X30480000Y-109220000D03*
%TO.P,J2,16,Pin_16*%
%TO.N,GPIO12*%
X30480000Y-111760000D03*
%TO.P,J2,17,Pin_17*%
%TO.N,GPIO13*%
X30480000Y-114300000D03*
%TO.P,J2,18,Pin_18*%
%TO.N,GND*%
X30480000Y-116840000D03*
%TO.P,J2,19,Pin_19*%
%TO.N,GPIO14*%
X30480000Y-119380000D03*
%TO.P,J2,20,Pin_20*%
%TO.N,GPIO15*%
X30480000Y-121920000D03*
%TD*%
D20*
%TO.P,R12,1*%
%TO.N,/RUSB_D_N*%
X46355000Y-80835000D03*
%TO.P,R12,2*%
%TO.N,USB_D_N*%
X46355000Y-79185000D03*
%TD*%
D21*
%TO.P,R14,1*%
%TO.N,Net-(P2-Pad3)*%
X37592000Y-128145000D03*
%TO.P,R14,2*%
%TO.N,+3.3VA*%
X37592000Y-127125000D03*
%TD*%
D12*
%TO.P,C1,1*%
%TO.N,+1V1*%
X46736000Y-84808000D03*
%TO.P,C1,2*%
%TO.N,GND*%
X46736000Y-83848000D03*
%TD*%
D16*
%TO.P,C37,1*%
%TO.N,Net-(C37-Pad1)*%
X52606000Y-116586000D03*
%TO.P,C37,2*%
%TO.N,GND*%
X53566000Y-116586000D03*
%TD*%
D22*
%TO.P,R28,1*%
%TO.N,Net-(C37-Pad1)*%
X51564000Y-116586000D03*
%TO.P,R28,2*%
%TO.N,XO*%
X50544000Y-116586000D03*
%TD*%
D21*
%TO.P,R22,1*%
%TO.N,Net-(C31-Pad2)*%
X42672000Y-127764000D03*
%TO.P,R22,2*%
%TO.N,Net-(R22-Pad2)*%
X42672000Y-126744000D03*
%TD*%
%TO.P,R16,1*%
%TO.N,Net-(P2-Pad1)*%
X36576000Y-128145000D03*
%TO.P,R16,2*%
%TO.N,+3.3VA*%
X36576000Y-127125000D03*
%TD*%
D23*
%TO.P,D1,1,K*%
%TO.N,VSYS*%
X47532000Y-76708000D03*
%TO.P,D1,2,A*%
%TO.N,VBUS*%
X45432000Y-76708000D03*
%TD*%
D24*
%TO.P,P1,1,VBUS*%
%TO.N,VBUS*%
X44226000Y-72510000D03*
%TO.P,P1,2,D-*%
%TO.N,USB_D_N*%
X43576000Y-72510000D03*
%TO.P,P1,3,D+*%
%TO.N,USB_D_P*%
X42926000Y-72510000D03*
%TO.P,P1,4,ID*%
%TO.N,unconnected-(P1-Pad4)*%
X42276000Y-72510000D03*
%TO.P,P1,5,GND*%
%TO.N,GND*%
X41626000Y-72510000D03*
D25*
%TO.P,P1,S1,SHIELD*%
X45413500Y-72425000D03*
%TO.P,P1,S2,SHIELD*%
X40438500Y-72425000D03*
D26*
%TO.P,P1,S3,SHIELD*%
X46301000Y-69850000D03*
D27*
%TO.P,P1,S4,SHIELD*%
X44076000Y-69850000D03*
D28*
%TO.P,P1,S5,SHIELD*%
X41376000Y-69850000D03*
D26*
%TO.P,P1,S6,SHIELD*%
X39551000Y-69850000D03*
%TD*%
D14*
%TO.P,R8,1*%
%TO.N,GND*%
X50038000Y-75944000D03*
%TO.P,R8,2*%
%TO.N,Net-(C28-Pad1)*%
X50038000Y-76964000D03*
%TD*%
D12*
%TO.P,C3,1*%
%TO.N,+1V1*%
X42926000Y-84808000D03*
%TO.P,C3,2*%
%TO.N,GND*%
X42926000Y-83848000D03*
%TD*%
%TO.P,C31,1*%
%TO.N,Net-(C31-Pad1)*%
X43688000Y-128115000D03*
%TO.P,C31,2*%
%TO.N,Net-(C31-Pad2)*%
X43688000Y-127155000D03*
%TD*%
%TO.P,C6,1*%
%TO.N,+3V3*%
X44958000Y-84808000D03*
%TO.P,C6,2*%
%TO.N,GND*%
X44958000Y-83848000D03*
%TD*%
D17*
%TO.P,C23,1*%
%TO.N,+3.3VA*%
X43152000Y-125222000D03*
%TO.P,C23,2*%
%TO.N,GND*%
X42192000Y-125222000D03*
%TD*%
D29*
%TO.P,C29,1*%
%TO.N,GNDPWR*%
X54610000Y-136924000D03*
%TO.P,C29,2*%
%TO.N,GND*%
X54610000Y-132824000D03*
%TD*%
D21*
%TO.P,R17,1*%
%TO.N,Net-(P2-Pad3)*%
X38608000Y-128145000D03*
%TO.P,R17,2*%
%TO.N,Net-(R17-Pad2)*%
X38608000Y-127125000D03*
%TD*%
D30*
%TO.P,Y1,1,1*%
%TO.N,XIN*%
X42080000Y-101942000D03*
%TO.P,Y1,2,2*%
%TO.N,GND*%
X44280000Y-101942000D03*
%TO.P,Y1,3,3*%
%TO.N,Net-(C27-Pad1)*%
X44280000Y-100242000D03*
%TO.P,Y1,4,4*%
%TO.N,GND*%
X42080000Y-100242000D03*
%TD*%
D12*
%TO.P,C32,1*%
%TO.N,Net-(C32-Pad1)*%
X47752000Y-128242000D03*
%TO.P,C32,2*%
%TO.N,Net-(C32-Pad2)*%
X47752000Y-127282000D03*
%TD*%
D18*
%TO.P,J1,1,Pin_1*%
%TO.N,SWCLK*%
X38354000Y-97917000D03*
D19*
%TO.P,J1,2,Pin_2*%
%TO.N,GND*%
X38354000Y-100457000D03*
%TO.P,J1,3,Pin_3*%
%TO.N,SWDIO*%
X38354000Y-102997000D03*
%TD*%
D15*
%TO.P,R11,1*%
%TO.N,+3V3*%
X45083000Y-113538000D03*
%TO.P,R11,2*%
%TO.N,GPIO20*%
X46103000Y-113538000D03*
%TD*%
D31*
%TO.P,P2,1*%
%TO.N,Net-(P2-Pad1)*%
X38735000Y-133350000D03*
D32*
%TO.P,P2,2*%
%TO.N,Net-(C30-Pad1)*%
X40005000Y-130810000D03*
%TO.P,P2,3*%
%TO.N,Net-(P2-Pad3)*%
X41275000Y-133350000D03*
%TO.P,P2,4*%
%TO.N,Net-(C31-Pad1)*%
X42545000Y-130810000D03*
%TO.P,P2,5*%
%TO.N,Net-(C33-Pad1)*%
X43815000Y-133350000D03*
%TO.P,P2,6*%
%TO.N,Net-(C32-Pad1)*%
X45085000Y-130810000D03*
%TO.P,P2,7*%
%TO.N,unconnected-(P2-Pad7)*%
X46355000Y-133350000D03*
%TO.P,P2,8*%
%TO.N,GND*%
X47625000Y-130810000D03*
D33*
%TO.P,P2,9*%
%TO.N,Net-(P2-Pad9)*%
X36855000Y-144780000D03*
%TO.P,P2,10*%
%TO.N,+3V3*%
X39422000Y-143080000D03*
%TO.P,P2,11*%
%TO.N,Net-(P2-Pad11)*%
X46938000Y-144780000D03*
%TO.P,P2,12*%
%TO.N,+3V3*%
X49505000Y-143080000D03*
D34*
%TO.P,P2,SH*%
%TO.N,GNDPWR*%
X50930000Y-136650000D03*
X35430000Y-136650000D03*
%TD*%
D17*
%TO.P,C18,1*%
%TO.N,+3.3VA*%
X37691000Y-125984000D03*
%TO.P,C18,2*%
%TO.N,GND*%
X36731000Y-125984000D03*
%TD*%
D14*
%TO.P,R25,1*%
%TO.N,LINKn*%
X49403000Y-127506000D03*
%TO.P,R25,2*%
%TO.N,Net-(P2-Pad9)*%
X49403000Y-128526000D03*
%TD*%
D21*
%TO.P,R27,1*%
%TO.N,XI*%
X49022000Y-119128000D03*
%TO.P,R27,2*%
%TO.N,XO*%
X49022000Y-118108000D03*
%TD*%
D13*
%TO.P,C9,1*%
%TO.N,+3V3*%
X43434000Y-97437000D03*
%TO.P,C9,2*%
%TO.N,GND*%
X43434000Y-98397000D03*
%TD*%
D17*
%TO.P,C7,1*%
%TO.N,+3V3*%
X38961000Y-88138000D03*
%TO.P,C7,2*%
%TO.N,GND*%
X38001000Y-88138000D03*
%TD*%
D35*
%TO.P,U1,1,IN*%
%TO.N,VSYS*%
X49408500Y-72710000D03*
%TO.P,U1,2,GND*%
%TO.N,GND*%
X49408500Y-73660000D03*
%TO.P,U1,3,EN*%
%TO.N,3V3_EN*%
X49408500Y-74610000D03*
%TO.P,U1,4,BYP*%
%TO.N,Net-(C14-Pad1)*%
X51683500Y-74610000D03*
%TO.P,U1,5,OUT*%
%TO.N,+3V3*%
X51683500Y-72710000D03*
%TD*%
D13*
%TO.P,C13,1*%
%TO.N,+3V3*%
X53340000Y-72545000D03*
%TO.P,C13,2*%
%TO.N,GND*%
X53340000Y-73505000D03*
%TD*%
D12*
%TO.P,C27,1*%
%TO.N,Net-(C27-Pad1)*%
X45974000Y-100048000D03*
%TO.P,C27,2*%
%TO.N,GND*%
X45974000Y-99088000D03*
%TD*%
D16*
%TO.P,C15,1*%
%TO.N,+3V3*%
X35207000Y-113792000D03*
%TO.P,C15,2*%
%TO.N,GND*%
X36167000Y-113792000D03*
%TD*%
D21*
%TO.P,R20,1*%
%TO.N,Net-(P2-Pad1)*%
X35560000Y-128145000D03*
%TO.P,R20,2*%
%TO.N,Net-(R20-Pad2)*%
X35560000Y-127125000D03*
%TD*%
D15*
%TO.P,R18,1*%
%TO.N,+3V3*%
X46988000Y-114808000D03*
%TO.P,R18,2*%
%TO.N,GPIO21*%
X48008000Y-114808000D03*
%TD*%
D30*
%TO.P,Y2,1,1*%
%TO.N,XI*%
X50589000Y-119849000D03*
%TO.P,Y2,2,2*%
%TO.N,GND*%
X52789000Y-119849000D03*
%TO.P,Y2,3,3*%
%TO.N,Net-(C37-Pad1)*%
X52789000Y-118149000D03*
%TO.P,Y2,4,4*%
%TO.N,GND*%
X50589000Y-118149000D03*
%TD*%
D17*
%TO.P,C20,1*%
%TO.N,+3.3VA*%
X37310000Y-119761000D03*
%TO.P,C20,2*%
%TO.N,GND*%
X36350000Y-119761000D03*
%TD*%
D20*
%TO.P,R9,1*%
%TO.N,/RUSB_D_P*%
X44450000Y-80835000D03*
%TO.P,R9,2*%
%TO.N,USB_D_P*%
X44450000Y-79185000D03*
%TD*%
D18*
%TO.P,J3,1,Pin_1*%
%TO.N,GND*%
X55880000Y-121920000D03*
D19*
%TO.P,J3,2,Pin_2*%
X55880000Y-119380000D03*
%TO.P,J3,3,Pin_3*%
X55880000Y-116840000D03*
%TO.P,J3,4,Pin_4*%
%TO.N,GPIO22*%
X55880000Y-114300000D03*
%TO.P,J3,5,Pin_5*%
%TO.N,GPIO23*%
X55880000Y-111760000D03*
%TO.P,J3,6,Pin_6*%
%TO.N,GPIO24*%
X55880000Y-109220000D03*
%TO.P,J3,7,Pin_7*%
%TO.N,GPIO25*%
X55880000Y-106680000D03*
%TO.P,J3,8,Pin_8*%
%TO.N,GND*%
X55880000Y-104140000D03*
%TO.P,J3,9,Pin_9*%
%TO.N,RUN*%
X55880000Y-101600000D03*
%TO.P,J3,10,Pin_10*%
%TO.N,GPIO26{slash}ADC0*%
X55880000Y-99060000D03*
%TO.P,J3,11,Pin_11*%
%TO.N,GPIO27{slash}ADC1*%
X55880000Y-96520000D03*
%TO.P,J3,12,Pin_12*%
%TO.N,GPIO28{slash}ADC2*%
X55880000Y-93980000D03*
%TO.P,J3,13,Pin_13*%
%TO.N,GND*%
X55880000Y-91440000D03*
%TO.P,J3,14,Pin_14*%
%TO.N,GPIO29{slash}ADC3*%
X55880000Y-88900000D03*
%TO.P,J3,15,Pin_15*%
%TO.N,ADC_VREF*%
X55880000Y-86360000D03*
%TO.P,J3,16,Pin_16*%
%TO.N,+3V3*%
X55880000Y-83820000D03*
%TO.P,J3,17,Pin_17*%
%TO.N,3V3_EN*%
X55880000Y-81280000D03*
%TO.P,J3,18,Pin_18*%
%TO.N,GND*%
X55880000Y-78740000D03*
%TO.P,J3,19,Pin_19*%
%TO.N,VSYS*%
X55880000Y-76200000D03*
%TO.P,J3,20,Pin_20*%
%TO.N,VBUS*%
X55880000Y-73660000D03*
%TD*%
D36*
%TO.P,U3,1,TXN*%
%TO.N,Net-(R17-Pad2)*%
X39017500Y-116630000D03*
%TO.P,U3,2,TXP*%
%TO.N,Net-(R20-Pad2)*%
X39017500Y-117130000D03*
%TO.P,U3,3,AGND*%
%TO.N,GND*%
X39017500Y-117630000D03*
%TO.P,U3,4,AVDD*%
%TO.N,+3.3VA*%
X39017500Y-118130000D03*
%TO.P,U3,5,RXN*%
%TO.N,Net-(R21-Pad2)*%
X39017500Y-118630000D03*
%TO.P,U3,6,RXP*%
%TO.N,Net-(R22-Pad2)*%
X39017500Y-119130000D03*
%TO.P,U3,7,DNC*%
%TO.N,unconnected-(U3-Pad7)*%
X39017500Y-119630000D03*
%TO.P,U3,8,AVDD*%
%TO.N,+3.3VA*%
X39017500Y-120130000D03*
%TO.P,U3,9,AGND*%
%TO.N,GND*%
X39017500Y-120630000D03*
%TO.P,U3,10,EXRES1*%
%TO.N,Net-(R26-Pad2)*%
X39017500Y-121130000D03*
%TO.P,U3,11,AVDD*%
%TO.N,+3.3VA*%
X39017500Y-121630000D03*
%TO.P,U3,12,NC*%
%TO.N,unconnected-(U3-Pad12)*%
X39017500Y-122130000D03*
D37*
%TO.P,U3,13,NC*%
%TO.N,unconnected-(U3-Pad13)*%
X40430000Y-123542500D03*
%TO.P,U3,14,AGND*%
%TO.N,GND*%
X40930000Y-123542500D03*
%TO.P,U3,15,AVDD*%
%TO.N,+3.3VA*%
X41430000Y-123542500D03*
%TO.P,U3,16,AGND*%
%TO.N,GND*%
X41930000Y-123542500D03*
%TO.P,U3,17,AVDD*%
%TO.N,+3.3VA*%
X42430000Y-123542500D03*
%TO.P,U3,18,VBG*%
%TO.N,unconnected-(U3-Pad18)*%
X42930000Y-123542500D03*
%TO.P,U3,19,AGND*%
%TO.N,GND*%
X43430000Y-123542500D03*
%TO.P,U3,20,TOCAP*%
%TO.N,Net-(C34-Pad1)*%
X43930000Y-123542500D03*
%TO.P,U3,21,AVDD*%
%TO.N,+3.3VA*%
X44430000Y-123542500D03*
%TO.P,U3,22,1V2O*%
%TO.N,Net-(C35-Pad1)*%
X44930000Y-123542500D03*
%TO.P,U3,23,RSVD*%
%TO.N,unconnected-(U3-Pad23)*%
X45430000Y-123542500D03*
%TO.P,U3,24,SPDLED*%
%TO.N,unconnected-(U3-Pad24)*%
X45930000Y-123542500D03*
D36*
%TO.P,U3,25,LINKLED*%
%TO.N,LINKn*%
X47342500Y-122130000D03*
%TO.P,U3,26,DUPLED*%
%TO.N,unconnected-(U3-Pad26)*%
X47342500Y-121630000D03*
%TO.P,U3,27,ACTLED*%
%TO.N,ACTn*%
X47342500Y-121130000D03*
%TO.P,U3,28,VDD*%
%TO.N,+3V3*%
X47342500Y-120630000D03*
%TO.P,U3,29,GND*%
%TO.N,GND*%
X47342500Y-120130000D03*
%TO.P,U3,30,XI/CLKIN*%
%TO.N,XI*%
X47342500Y-119630000D03*
%TO.P,U3,31,XO*%
%TO.N,XO*%
X47342500Y-119130000D03*
%TO.P,U3,32,SCSn*%
%TO.N,GPIO17*%
X47342500Y-118630000D03*
%TO.P,U3,33,SCLK*%
%TO.N,GPIO18*%
X47342500Y-118130000D03*
%TO.P,U3,34,MISO*%
%TO.N,GPIO16*%
X47342500Y-117630000D03*
%TO.P,U3,35,MOSI*%
%TO.N,GPIO19*%
X47342500Y-117130000D03*
%TO.P,U3,36,INTn*%
%TO.N,GPIO21*%
X47342500Y-116630000D03*
D37*
%TO.P,U3,37,RSTn*%
%TO.N,GPIO20*%
X45930000Y-115217500D03*
%TO.P,U3,38,RSVD*%
%TO.N,unconnected-(U3-Pad38)*%
X45430000Y-115217500D03*
%TO.P,U3,39,RSVD*%
%TO.N,unconnected-(U3-Pad39)*%
X44930000Y-115217500D03*
%TO.P,U3,40,RSVD*%
%TO.N,unconnected-(U3-Pad40)*%
X44430000Y-115217500D03*
%TO.P,U3,41,RSVD*%
%TO.N,unconnected-(U3-Pad41)*%
X43930000Y-115217500D03*
%TO.P,U3,42,RSVD*%
%TO.N,unconnected-(U3-Pad42)*%
X43430000Y-115217500D03*
%TO.P,U3,43,PMODE2*%
%TO.N,+3V3*%
X42930000Y-115217500D03*
%TO.P,U3,44,PMODE1*%
X42430000Y-115217500D03*
%TO.P,U3,45,PMODE0*%
X41930000Y-115217500D03*
%TO.P,U3,46,NC*%
%TO.N,unconnected-(U3-Pad46)*%
X41430000Y-115217500D03*
%TO.P,U3,47,NC*%
%TO.N,unconnected-(U3-Pad47)*%
X40930000Y-115217500D03*
%TO.P,U3,48,AGND*%
%TO.N,GND*%
X40430000Y-115217500D03*
D38*
%TO.P,U3,49,GND*%
X43180000Y-119380000D03*
%TD*%
D15*
%TO.P,R6,1*%
%TO.N,QSPI_SS_N*%
X42924000Y-104648000D03*
%TO.P,R6,2*%
%TO.N,Net-(R6-Pad2)*%
X43944000Y-104648000D03*
%TD*%
D14*
%TO.P,R2,1*%
%TO.N,VBUS*%
X44704000Y-74166000D03*
%TO.P,R2,2*%
%TO.N,GPIO24*%
X44704000Y-75186000D03*
%TD*%
D12*
%TO.P,C28,1*%
%TO.N,Net-(C28-Pad1)*%
X51054000Y-76934000D03*
%TO.P,C28,2*%
%TO.N,GND*%
X51054000Y-75974000D03*
%TD*%
D17*
%TO.P,C34,1*%
%TO.N,Net-(C34-Pad1)*%
X45184000Y-125476000D03*
%TO.P,C34,2*%
%TO.N,GND*%
X44224000Y-125476000D03*
%TD*%
D21*
%TO.P,R21,1*%
%TO.N,Net-(C32-Pad2)*%
X46736000Y-127510000D03*
%TO.P,R21,2*%
%TO.N,Net-(R21-Pad2)*%
X46736000Y-126490000D03*
%TD*%
%TO.P,R10,1*%
%TO.N,Net-(C30-Pad1)*%
X39624000Y-128145000D03*
%TO.P,R10,2*%
%TO.N,+3.3VA*%
X39624000Y-127125000D03*
%TD*%
%TO.P,R15,1*%
%TO.N,Net-(R15-Pad1)*%
X48768000Y-84838000D03*
%TO.P,R15,2*%
%TO.N,ADC_VREF*%
X48768000Y-83818000D03*
%TD*%
D16*
%TO.P,C14,1*%
%TO.N,Net-(C14-Pad1)*%
X52098000Y-76200000D03*
%TO.P,C14,2*%
%TO.N,GND*%
X53058000Y-76200000D03*
%TD*%
D14*
%TO.P,R26,1*%
%TO.N,GND*%
X37338000Y-120902000D03*
%TO.P,R26,2*%
%TO.N,Net-(R26-Pad2)*%
X37338000Y-121922000D03*
%TD*%
%TO.P,R13,1*%
%TO.N,ADC_VREF*%
X49784000Y-83818000D03*
%TO.P,R13,2*%
%TO.N,+3V3*%
X49784000Y-84838000D03*
%TD*%
D21*
%TO.P,R3,1*%
%TO.N,GPIO24*%
X45720000Y-75186000D03*
%TO.P,R3,2*%
%TO.N,GND*%
X45720000Y-74166000D03*
%TD*%
D17*
%TO.P,C25,1*%
%TO.N,+3V3*%
X41120000Y-75438000D03*
%TO.P,C25,2*%
%TO.N,GND*%
X40160000Y-75438000D03*
%TD*%
D39*
%TO.P,U4,1,IOVDD*%
%TO.N,+3V3*%
X40142500Y-88500000D03*
%TO.P,U4,2,GPIO0*%
%TO.N,GPIO0*%
X40142500Y-88900000D03*
%TO.P,U4,3,GPIO1*%
%TO.N,GPIO1*%
X40142500Y-89300000D03*
%TO.P,U4,4,GPIO2*%
%TO.N,GPIO2*%
X40142500Y-89700000D03*
%TO.P,U4,5,GPIO3*%
%TO.N,GPIO3*%
X40142500Y-90100000D03*
%TO.P,U4,6,GPIO4*%
%TO.N,GPIO4*%
X40142500Y-90500000D03*
%TO.P,U4,7,GPIO5*%
%TO.N,GPIO5*%
X40142500Y-90900000D03*
%TO.P,U4,8,GPIO6*%
%TO.N,GPIO6*%
X40142500Y-91300000D03*
%TO.P,U4,9,GPIO7*%
%TO.N,GPIO7*%
X40142500Y-91700000D03*
%TO.P,U4,10,IOVDD*%
%TO.N,+3V3*%
X40142500Y-92100000D03*
%TO.P,U4,11,GPIO8*%
%TO.N,GPIO8*%
X40142500Y-92500000D03*
%TO.P,U4,12,GPIO9*%
%TO.N,GPIO9*%
X40142500Y-92900000D03*
%TO.P,U4,13,GPIO10*%
%TO.N,GPIO10*%
X40142500Y-93300000D03*
%TO.P,U4,14,GPIO11*%
%TO.N,GPIO11*%
X40142500Y-93700000D03*
D40*
%TO.P,U4,15,GPIO12*%
%TO.N,GPIO12*%
X40980000Y-94537500D03*
%TO.P,U4,16,GPIO13*%
%TO.N,GPIO13*%
X41380000Y-94537500D03*
%TO.P,U4,17,GPIO14*%
%TO.N,GPIO14*%
X41780000Y-94537500D03*
%TO.P,U4,18,GPIO15*%
%TO.N,GPIO15*%
X42180000Y-94537500D03*
%TO.P,U4,19,TESTEN*%
%TO.N,GND*%
X42580000Y-94537500D03*
%TO.P,U4,20,XIN*%
%TO.N,XIN*%
X42980000Y-94537500D03*
%TO.P,U4,21,XOUT*%
%TO.N,XOUT*%
X43380000Y-94537500D03*
%TO.P,U4,22,IOVDD*%
%TO.N,+3V3*%
X43780000Y-94537500D03*
%TO.P,U4,23,DVDD*%
%TO.N,+1V1*%
X44180000Y-94537500D03*
%TO.P,U4,24,SWCLK*%
%TO.N,SWCLK*%
X44580000Y-94537500D03*
%TO.P,U4,25,SWDIO*%
%TO.N,SWDIO*%
X44980000Y-94537500D03*
%TO.P,U4,26,RUN*%
%TO.N,RUN*%
X45380000Y-94537500D03*
%TO.P,U4,27,GPIO16*%
%TO.N,GPIO16*%
X45780000Y-94537500D03*
%TO.P,U4,28,GPIO17*%
%TO.N,GPIO17*%
X46180000Y-94537500D03*
D39*
%TO.P,U4,29,GPIO18*%
%TO.N,GPIO18*%
X47017500Y-93700000D03*
%TO.P,U4,30,GPIO19*%
%TO.N,GPIO19*%
X47017500Y-93300000D03*
%TO.P,U4,31,GPIO20*%
%TO.N,GPIO20*%
X47017500Y-92900000D03*
%TO.P,U4,32,GPIO21*%
%TO.N,GPIO21*%
X47017500Y-92500000D03*
%TO.P,U4,33,IOVDD*%
%TO.N,+3V3*%
X47017500Y-92100000D03*
%TO.P,U4,34,GPIO22*%
%TO.N,GPIO22*%
X47017500Y-91700000D03*
%TO.P,U4,35,GPIO23*%
%TO.N,GPIO23*%
X47017500Y-91300000D03*
%TO.P,U4,36,GPIO24*%
%TO.N,GPIO24*%
X47017500Y-90900000D03*
%TO.P,U4,37,GPIO25*%
%TO.N,GPIO25*%
X47017500Y-90500000D03*
%TO.P,U4,38,GPIO26/ADC0*%
%TO.N,GPIO26{slash}ADC0*%
X47017500Y-90100000D03*
%TO.P,U4,39,GPIO27/ADC1*%
%TO.N,GPIO27{slash}ADC1*%
X47017500Y-89700000D03*
%TO.P,U4,40,GPIO28/ADC2*%
%TO.N,GPIO28{slash}ADC2*%
X47017500Y-89300000D03*
%TO.P,U4,41,GPIO29/ADC3*%
%TO.N,GPIO29{slash}ADC3*%
X47017500Y-88900000D03*
%TO.P,U4,42,IOVDD*%
%TO.N,+3V3*%
X47017500Y-88500000D03*
D40*
%TO.P,U4,43,ADC_AVDD*%
%TO.N,Net-(R15-Pad1)*%
X46180000Y-87662500D03*
%TO.P,U4,44,VREG_VIN*%
%TO.N,+3V3*%
X45780000Y-87662500D03*
%TO.P,U4,45,VREG_VOUT*%
%TO.N,+1V1*%
X45380000Y-87662500D03*
%TO.P,U4,46,USB_DM*%
%TO.N,/RUSB_D_N*%
X44980000Y-87662500D03*
%TO.P,U4,47,USB_DP*%
%TO.N,/RUSB_D_P*%
X44580000Y-87662500D03*
%TO.P,U4,48,USB_VDD*%
%TO.N,+3V3*%
X44180000Y-87662500D03*
%TO.P,U4,49,IOVDD*%
X43780000Y-87662500D03*
%TO.P,U4,50,DVDD*%
%TO.N,+1V1*%
X43380000Y-87662500D03*
%TO.P,U4,51,QSPI_SD3*%
%TO.N,QSPI_SD3*%
X42980000Y-87662500D03*
%TO.P,U4,52,QSPI_SCLK*%
%TO.N,QSPI_SCLK*%
X42580000Y-87662500D03*
%TO.P,U4,53,QSPI_SD0*%
%TO.N,QSPI_SD0*%
X42180000Y-87662500D03*
%TO.P,U4,54,QSPI_SD2*%
%TO.N,QSPI_SD2*%
X41780000Y-87662500D03*
%TO.P,U4,55,QSPI_SD1*%
%TO.N,QSPI_SD1*%
X41380000Y-87662500D03*
%TO.P,U4,56,QSPI_SS_N*%
%TO.N,QSPI_SS_N*%
X40980000Y-87662500D03*
D41*
%TO.P,U4,57,GND*%
%TO.N,GND*%
X43580000Y-91100000D03*
%TD*%
D16*
%TO.P,C26,1*%
%TO.N,XIN*%
X42954000Y-103378000D03*
%TO.P,C26,2*%
%TO.N,GND*%
X43914000Y-103378000D03*
%TD*%
D12*
%TO.P,C30,1*%
%TO.N,Net-(C30-Pad1)*%
X40640000Y-128115000D03*
%TO.P,C30,2*%
%TO.N,GND*%
X40640000Y-127155000D03*
%TD*%
%TO.P,C33,1*%
%TO.N,Net-(C33-Pad1)*%
X44704000Y-128115000D03*
%TO.P,C33,2*%
%TO.N,GND*%
X44704000Y-127155000D03*
%TD*%
D42*
%TO.P,L1,1,1*%
%TO.N,+3V3*%
X35670348Y-115101664D03*
%TO.P,L1,2,2*%
%TO.N,+3.3VA*%
X35670348Y-116676664D03*
%TD*%
D16*
%TO.P,C10,1*%
%TO.N,+3V3*%
X50955000Y-94615000D03*
%TO.P,C10,2*%
%TO.N,GND*%
X51915000Y-94615000D03*
%TD*%
D17*
%TO.P,C22,1*%
%TO.N,+3.3VA*%
X41120000Y-125222000D03*
%TO.P,C22,2*%
%TO.N,GND*%
X40160000Y-125222000D03*
%TD*%
D43*
%TO.P,Q1,1,G*%
%TO.N,+3V3*%
X49342000Y-81201500D03*
%TO.P,Q1,2,S*%
%TO.N,GPIO29{slash}ADC3*%
X51242000Y-81201500D03*
%TO.P,Q1,3,D*%
%TO.N,Net-(C28-Pad1)*%
X50292000Y-79326500D03*
%TD*%
D21*
%TO.P,R24,1*%
%TO.N,Net-(C33-Pad1)*%
X41656000Y-128145000D03*
%TO.P,R24,2*%
%TO.N,Net-(C31-Pad2)*%
X41656000Y-127125000D03*
%TD*%
D16*
%TO.P,C24,1*%
%TO.N,+3.3VA*%
X46256000Y-125222000D03*
%TO.P,C24,2*%
%TO.N,GND*%
X47216000Y-125222000D03*
%TD*%
D14*
%TO.P,R5,1*%
%TO.N,VSYS*%
X49022000Y-75944000D03*
%TO.P,R5,2*%
%TO.N,Net-(C28-Pad1)*%
X49022000Y-76964000D03*
%TD*%
D16*
%TO.P,C21,1*%
%TO.N,+3.3VA*%
X37874000Y-123190000D03*
%TO.P,C21,2*%
%TO.N,GND*%
X38834000Y-123190000D03*
%TD*%
%TO.P,C36,1*%
%TO.N,XI*%
X51300000Y-121412000D03*
%TO.P,C36,2*%
%TO.N,GND*%
X52260000Y-121412000D03*
%TD*%
D21*
%TO.P,R23,1*%
%TO.N,Net-(C33-Pad1)*%
X45720000Y-128145000D03*
%TO.P,R23,2*%
%TO.N,Net-(C32-Pad2)*%
X45720000Y-127125000D03*
%TD*%
D14*
%TO.P,R19,1*%
%TO.N,ACTn*%
X50800000Y-127506000D03*
%TO.P,R19,2*%
%TO.N,Net-(P2-Pad11)*%
X50800000Y-128526000D03*
%TD*%
D17*
%TO.P,C16,1*%
%TO.N,+3V3*%
X41628000Y-113538000D03*
%TO.P,C16,2*%
%TO.N,GND*%
X40668000Y-113538000D03*
%TD*%
D44*
%TO.N,GND*%
X44196000Y-109982000D03*
X52070000Y-94615000D03*
X53975000Y-132588000D03*
X50292000Y-109982000D03*
X53086000Y-76200000D03*
X36322000Y-92456000D03*
X35052000Y-118110000D03*
X43580000Y-91100000D03*
X47498000Y-87122000D03*
X44704000Y-89916000D03*
X50589000Y-118149000D03*
X36830000Y-125984000D03*
X43434000Y-119888000D03*
X44450000Y-98397000D03*
X42672000Y-119888000D03*
X44704000Y-92202000D03*
X42080000Y-100242000D03*
X42164000Y-125222000D03*
X51054000Y-75974000D03*
X43434000Y-118872000D03*
X42418000Y-89916000D03*
X54610000Y-132588000D03*
X53594000Y-116586000D03*
X41910000Y-119888000D03*
X52789000Y-119849000D03*
X47244000Y-82804000D03*
X55245000Y-132588000D03*
X44196000Y-118110000D03*
X44704000Y-127000000D03*
X41402000Y-70358000D03*
X53340000Y-73406000D03*
X55880000Y-132588000D03*
X42418000Y-92202000D03*
X44196000Y-118872000D03*
X43434000Y-120650000D03*
X42672000Y-118872000D03*
X40394750Y-72381250D03*
X47752000Y-70612000D03*
X45413500Y-72425000D03*
X49022000Y-120170000D03*
X43434000Y-118110000D03*
X44196000Y-120650000D03*
X40640000Y-127000000D03*
X53340000Y-132588000D03*
X41910000Y-120650000D03*
X42672000Y-118110000D03*
X41910000Y-118872000D03*
X44196000Y-119888000D03*
X44196000Y-125476000D03*
X44280000Y-101942000D03*
X36576000Y-109982000D03*
X43942000Y-82804000D03*
X38862000Y-123190000D03*
X42672000Y-120650000D03*
X37084000Y-88138000D03*
X42672000Y-109982000D03*
X38100000Y-80518000D03*
X39551000Y-70177000D03*
X41910000Y-118110000D03*
X48006000Y-123698000D03*
X43942000Y-70358000D03*
X36322000Y-113792000D03*
%TO.N,+3V3*%
X35560000Y-115062000D03*
X45974000Y-92456000D03*
X43928000Y-84822000D03*
X44196000Y-88392000D03*
X41995000Y-76835000D03*
X45974000Y-88646000D03*
X50546000Y-72390000D03*
X49784000Y-84836000D03*
X44944000Y-84822000D03*
X37084000Y-114300000D03*
X41656000Y-113538000D03*
X49276000Y-81534000D03*
X43434000Y-93472000D03*
X51308000Y-73406000D03*
X37084000Y-115062000D03*
X51683500Y-72710000D03*
X47752000Y-84808000D03*
X49276000Y-80772000D03*
X41148000Y-88646000D03*
X41148000Y-92202000D03*
X43434000Y-97437000D03*
%TO.N,+3.3VA*%
X40640000Y-121920000D03*
X39624000Y-127000000D03*
X37592000Y-127000000D03*
X35560000Y-116586000D03*
X44450000Y-122174000D03*
X40386000Y-118872000D03*
X42545000Y-121920000D03*
%TO.N,GNDPWR*%
X53975000Y-137160000D03*
X55880000Y-137160000D03*
X55245000Y-137160000D03*
X54610000Y-137160000D03*
X53340000Y-137160000D03*
%TO.N,SWCLK*%
X45080000Y-96800000D03*
%TO.N,SWDIO*%
X45777858Y-96827131D03*
%TO.N,GPIO29{slash}ADC3*%
X51308000Y-81534000D03*
%TO.N,3V3_EN*%
X49408500Y-74610000D03*
%TO.N,GPIO24*%
X46101000Y-90805000D03*
X46482000Y-76454000D03*
%TO.N,QSPI_SS_N*%
X41021000Y-104648000D03*
X40005000Y-87757000D03*
%TO.N,RUN*%
X51689000Y-101600000D03*
%TO.N,GPIO20*%
X48917981Y-111379000D03*
X49559006Y-94869000D03*
%TO.N,Net-(R17-Pad2)*%
X38608000Y-127000000D03*
X37719000Y-116580500D03*
%TO.N,GPIO21*%
X48006000Y-114808000D03*
X50208509Y-94869000D03*
%TO.N,Net-(R20-Pad2)*%
X35560000Y-127000000D03*
X36830011Y-116980755D03*
%TO.N,Net-(R22-Pad2)*%
X42672000Y-126746000D03*
X39370000Y-125476000D03*
%TO.N,GPIO17*%
X45974000Y-118110000D03*
X47529503Y-96800000D03*
%TO.N,GPIO18*%
X50165000Y-113411000D03*
X48260000Y-94869000D03*
%TO.N,GPIO16*%
X46155500Y-117094000D03*
X46880000Y-96800000D03*
%TO.N,GPIO19*%
X48909503Y-94869000D03*
X49276000Y-108839000D03*
%TD*%
D45*
%TO.N,+1V1*%
X44180000Y-94076415D02*
X44180000Y-94537500D01*
X43380000Y-87662500D02*
X43380000Y-88338000D01*
X45380000Y-87662500D02*
X45380000Y-86954000D01*
X45429511Y-89250489D02*
X45429511Y-92826904D01*
X45380000Y-89250489D02*
X45429511Y-89250489D01*
X45380000Y-87662500D02*
X45380000Y-89250489D01*
X45380000Y-86954000D02*
X46736000Y-85598000D01*
X45380000Y-88478000D02*
X45380000Y-87662500D01*
X45429511Y-92826904D02*
X44180000Y-94076415D01*
X43380000Y-88338000D02*
X43942000Y-88900000D01*
X46736000Y-85598000D02*
X46736000Y-84808000D01*
X44180000Y-94537500D02*
X44180000Y-97167000D01*
X44180000Y-97167000D02*
X44450000Y-97437000D01*
X44958000Y-88900000D02*
X45380000Y-88478000D01*
X43380000Y-85262000D02*
X43380000Y-87662500D01*
X42926000Y-84808000D02*
X43380000Y-85262000D01*
X43942000Y-88900000D02*
X44958000Y-88900000D01*
%TO.N,GND*%
X48006000Y-74168000D02*
X48514000Y-73660000D01*
X46301000Y-69850000D02*
X46990000Y-69850000D01*
X39551000Y-71537500D02*
X40394750Y-72381250D01*
X42580000Y-92100000D02*
X43580000Y-91100000D01*
X43430000Y-123542500D02*
X43430000Y-119630000D01*
X50589000Y-118149000D02*
X51089000Y-118149000D01*
X45283000Y-98397000D02*
X45974000Y-99088000D01*
X50038000Y-75944000D02*
X51024000Y-75944000D01*
X44958000Y-83848000D02*
X43942000Y-83848000D01*
X39017500Y-120630000D02*
X41930000Y-120630000D01*
X36872000Y-80518000D02*
X36745000Y-80645000D01*
X42580000Y-94537500D02*
X42580000Y-92100000D01*
X36322000Y-92456000D02*
X37239000Y-92456000D01*
X43914000Y-102308000D02*
X44280000Y-101942000D01*
X44076000Y-69850000D02*
X41376000Y-69850000D01*
X36350000Y-119914000D02*
X37338000Y-120902000D01*
X43434000Y-98397000D02*
X44450000Y-98397000D01*
X40430000Y-115217500D02*
X40430000Y-116630000D01*
X41430000Y-117630000D02*
X43180000Y-119380000D01*
X47498000Y-87122000D02*
X48288000Y-87122000D01*
X51089000Y-118149000D02*
X52789000Y-119849000D01*
X37084000Y-88138000D02*
X38001000Y-88138000D01*
X47342500Y-120130000D02*
X48982000Y-120130000D01*
X45413500Y-73859500D02*
X45720000Y-74166000D01*
X42080000Y-100242000D02*
X42580000Y-100242000D01*
X38100000Y-80518000D02*
X36872000Y-80518000D01*
X41541000Y-72425000D02*
X41626000Y-72510000D01*
X40394750Y-72381250D02*
X40438500Y-72425000D01*
X41930000Y-123542500D02*
X41930000Y-120630000D01*
X47216000Y-124460000D02*
X47978000Y-123698000D01*
X49686006Y-73660000D02*
X50320520Y-74294514D01*
X47244000Y-83340000D02*
X47752000Y-83848000D01*
X47216000Y-125222000D02*
X47216000Y-124460000D01*
X39017500Y-117630000D02*
X41430000Y-117630000D01*
X43430000Y-119630000D02*
X43180000Y-119380000D01*
X48288000Y-87122000D02*
X48514000Y-86896000D01*
X37610000Y-120630000D02*
X37338000Y-120902000D01*
X40430000Y-116630000D02*
X43180000Y-119380000D01*
X39551000Y-69850000D02*
X39551000Y-70177000D01*
X43914000Y-103378000D02*
X43914000Y-102308000D01*
X46990000Y-69850000D02*
X47752000Y-70612000D01*
X40160000Y-124516000D02*
X38834000Y-123190000D01*
X48982000Y-120130000D02*
X49022000Y-120170000D01*
X47724000Y-74168000D02*
X48006000Y-74168000D01*
X40438500Y-72425000D02*
X41541000Y-72425000D01*
X41376000Y-69850000D02*
X39551000Y-69850000D01*
X39551000Y-70177000D02*
X39551000Y-71537500D01*
X42926000Y-83848000D02*
X43942000Y-83848000D01*
X40430000Y-115217500D02*
X40430000Y-113776000D01*
X37239000Y-92456000D02*
X37366000Y-92329000D01*
X49408500Y-73660000D02*
X49686006Y-73660000D01*
X45413500Y-72425000D02*
X45413500Y-73859500D01*
X40160000Y-125222000D02*
X40160000Y-124516000D01*
X40930000Y-124452000D02*
X40160000Y-125222000D01*
X36350000Y-119761000D02*
X36350000Y-119914000D01*
X48514000Y-73660000D02*
X49408500Y-73660000D01*
X50320520Y-74294514D02*
X50320520Y-75661480D01*
X43942000Y-82804000D02*
X43942000Y-83848000D01*
X39017500Y-120630000D02*
X37610000Y-120630000D01*
X40438500Y-75159500D02*
X40438500Y-72425000D01*
X46301000Y-69850000D02*
X44076000Y-69850000D01*
X42580000Y-100242000D02*
X44280000Y-101942000D01*
X51024000Y-75944000D02*
X51054000Y-75974000D01*
X40930000Y-123542500D02*
X40930000Y-124452000D01*
X41930000Y-120630000D02*
X43180000Y-119380000D01*
X36350000Y-118110000D02*
X35052000Y-118110000D01*
X47244000Y-82804000D02*
X47244000Y-83340000D01*
X46736000Y-83848000D02*
X47752000Y-83848000D01*
X44450000Y-98397000D02*
X45283000Y-98397000D01*
X52260000Y-120378000D02*
X52789000Y-119849000D01*
X50320520Y-75661480D02*
X50038000Y-75944000D01*
X40430000Y-113776000D02*
X40668000Y-113538000D01*
X52260000Y-121412000D02*
X52260000Y-120378000D01*
X40160000Y-75438000D02*
X40438500Y-75159500D01*
%TO.N,+3V3*%
X40142500Y-92100000D02*
X38555000Y-92100000D01*
X50546000Y-72390000D02*
X51363500Y-72390000D01*
X45780000Y-87201415D02*
X47752000Y-85229415D01*
D46*
X33782000Y-145288000D02*
X34798000Y-146304000D01*
X48768000Y-146304000D02*
X49505000Y-145567000D01*
D45*
X43780000Y-84970000D02*
X43928000Y-84822000D01*
X46355480Y-116204520D02*
X46988000Y-115572000D01*
X48522000Y-120630000D02*
X49022000Y-121130000D01*
X43780000Y-97091000D02*
X43434000Y-97437000D01*
X46120000Y-88500000D02*
X45974000Y-88646000D01*
X41656000Y-113538000D02*
X45083000Y-113538000D01*
X38555000Y-92100000D02*
X38326000Y-92329000D01*
X45780000Y-87662500D02*
X45780000Y-88452000D01*
D46*
X40640000Y-146304000D02*
X48768000Y-146304000D01*
D45*
X37084000Y-114300000D02*
X36282336Y-115101664D01*
X44196000Y-88392000D02*
X43942000Y-88392000D01*
X47017500Y-92100000D02*
X48440000Y-92100000D01*
X45229511Y-117330489D02*
X45466000Y-117566978D01*
X44180000Y-87662500D02*
X44180000Y-85586000D01*
X41120000Y-75960000D02*
X41995000Y-76835000D01*
X43780000Y-94537500D02*
X43780000Y-97091000D01*
X47017500Y-88500000D02*
X47870000Y-88500000D01*
X47752000Y-85229415D02*
X47752000Y-84808000D01*
X43780000Y-93818000D02*
X43434000Y-93472000D01*
D46*
X38354000Y-146304000D02*
X39422000Y-145236000D01*
D45*
X44944000Y-84822000D02*
X44958000Y-84808000D01*
X51308000Y-73085500D02*
X51683500Y-72710000D01*
D46*
X34798000Y-146304000D02*
X38354000Y-146304000D01*
D45*
X42930000Y-115217500D02*
X42930000Y-115913940D01*
X41628000Y-113538000D02*
X41656000Y-113538000D01*
X44196000Y-88392000D02*
X44196000Y-88139585D01*
X43942000Y-88392000D02*
X43780000Y-88230000D01*
X51363500Y-72390000D02*
X51683500Y-72710000D01*
X46208000Y-120630000D02*
X47342500Y-120630000D01*
X41120000Y-75438000D02*
X41120000Y-75960000D01*
X44180000Y-85586000D02*
X44944000Y-84822000D01*
X35207000Y-113792000D02*
X35207000Y-114638316D01*
X46330000Y-92100000D02*
X45974000Y-92456000D01*
X40142500Y-88500000D02*
X41002000Y-88500000D01*
X42430000Y-115217500D02*
X42930000Y-115217500D01*
D46*
X49505000Y-145567000D02*
X49505000Y-143080000D01*
X54610000Y-83820000D02*
X55880000Y-83820000D01*
D45*
X40142500Y-92100000D02*
X41046000Y-92100000D01*
X43220580Y-116204520D02*
X46355480Y-116204520D01*
X37084000Y-115062000D02*
X35710012Y-115062000D01*
D46*
X33782000Y-116078000D02*
X33782000Y-145288000D01*
D45*
X43780000Y-87662500D02*
X43780000Y-84970000D01*
X45780000Y-88452000D02*
X45974000Y-88646000D01*
D46*
X49342000Y-81201500D02*
X51325500Y-83185000D01*
D45*
X45466000Y-117566978D02*
X45466000Y-119888000D01*
X35207000Y-114638316D02*
X35670348Y-115101664D01*
X51308000Y-73406000D02*
X51308000Y-73085500D01*
D46*
X51325500Y-83185000D02*
X53975000Y-83185000D01*
D45*
X41002000Y-88500000D02*
X41148000Y-88646000D01*
X36282336Y-115101664D02*
X35670348Y-115101664D01*
X44180000Y-88123585D02*
X44180000Y-87662500D01*
X44196000Y-88139585D02*
X44180000Y-88123585D01*
D46*
X35670348Y-115101664D02*
X34758336Y-115101664D01*
D45*
X43928000Y-84822000D02*
X43942000Y-84808000D01*
X39323000Y-88500000D02*
X38961000Y-88138000D01*
X41930000Y-113840000D02*
X41628000Y-113538000D01*
X45466000Y-119888000D02*
X46208000Y-120630000D01*
X44346549Y-117330489D02*
X45229511Y-117330489D01*
X53175000Y-72710000D02*
X53340000Y-72545000D01*
X41046000Y-92100000D02*
X41148000Y-92202000D01*
X43780000Y-88230000D02*
X43780000Y-87662500D01*
X47017500Y-88500000D02*
X46120000Y-88500000D01*
X43780000Y-94537500D02*
X43780000Y-93818000D01*
X40142500Y-88500000D02*
X39323000Y-88500000D01*
X47870000Y-88500000D02*
X48514000Y-87856000D01*
X47017500Y-92100000D02*
X46330000Y-92100000D01*
X47342500Y-120630000D02*
X48522000Y-120630000D01*
D46*
X39422000Y-143080000D02*
X39422000Y-145086000D01*
D45*
X42930000Y-115913940D02*
X43220580Y-116204520D01*
D46*
X39422000Y-145236000D02*
X39422000Y-143080000D01*
D45*
X42930000Y-115913940D02*
X44346549Y-117330489D01*
X41930000Y-115217500D02*
X41930000Y-113840000D01*
X45780000Y-87662500D02*
X45780000Y-87201415D01*
X48440000Y-92100000D02*
X50955000Y-94615000D01*
X46988000Y-115572000D02*
X46988000Y-114808000D01*
X51683500Y-72710000D02*
X53175000Y-72710000D01*
D46*
X34758336Y-115101664D02*
X33782000Y-116078000D01*
D45*
X35710012Y-115062000D02*
X35670348Y-115101664D01*
D46*
X39422000Y-145086000D02*
X40640000Y-146304000D01*
D45*
X41930000Y-115217500D02*
X42430000Y-115217500D01*
D46*
X53975000Y-83185000D02*
X54610000Y-83820000D01*
D45*
%TO.N,VSYS*%
X52361486Y-74060480D02*
X52596006Y-74295000D01*
X52596006Y-74295000D02*
X53975000Y-74295000D01*
X46736000Y-75912000D02*
X47532000Y-76708000D01*
X49408500Y-72710000D02*
X49723000Y-72710000D01*
X48226994Y-72710000D02*
X46736000Y-74200994D01*
X53975000Y-74295000D02*
X55880000Y-76200000D01*
X48296000Y-75944000D02*
X49022000Y-75944000D01*
X47532000Y-76708000D02*
X48296000Y-75944000D01*
X46736000Y-74200994D02*
X46736000Y-75912000D01*
X49723000Y-72710000D02*
X51073480Y-74060480D01*
X49408500Y-72710000D02*
X48226994Y-72710000D01*
X51073480Y-74060480D02*
X52361486Y-74060480D01*
%TO.N,Net-(C14-Pad1)*%
X51683500Y-75785500D02*
X51683500Y-74610000D01*
X52098000Y-76200000D02*
X51683500Y-75785500D01*
%TO.N,+3.3VA*%
X40640000Y-121920000D02*
X40350000Y-121630000D01*
X37310000Y-118110000D02*
X38997500Y-118110000D01*
X41430000Y-123542500D02*
X41430000Y-124912000D01*
X42430000Y-123542500D02*
X42430000Y-122035000D01*
X37907520Y-123156480D02*
X37874000Y-123190000D01*
X39017500Y-118130000D02*
X39898000Y-118130000D01*
X45748000Y-124714000D02*
X46256000Y-125222000D01*
X44430000Y-123542500D02*
X44430000Y-124238940D01*
X37691000Y-127026000D02*
X37592000Y-127125000D01*
X42430000Y-123542500D02*
X42430000Y-124500000D01*
X37907520Y-121858480D02*
X37907520Y-123156480D01*
X38136000Y-121630000D02*
X37907520Y-121858480D01*
X44430000Y-123542500D02*
X44430000Y-122194000D01*
X36576000Y-127125000D02*
X37592000Y-127125000D01*
X41430000Y-122710000D02*
X40640000Y-121920000D01*
X41430000Y-124912000D02*
X41120000Y-125222000D01*
X44905060Y-124714000D02*
X45748000Y-124714000D01*
X41430000Y-123542500D02*
X41430000Y-122710000D01*
X39017500Y-121630000D02*
X38136000Y-121630000D01*
X42430000Y-124500000D02*
X43152000Y-125222000D01*
X39017500Y-120130000D02*
X39890000Y-120130000D01*
X37691000Y-125984000D02*
X37691000Y-127026000D01*
X44430000Y-124238940D02*
X44905060Y-124714000D01*
X39890000Y-120130000D02*
X40386000Y-119634000D01*
X40386000Y-119634000D02*
X40386000Y-118872000D01*
X37679000Y-120130000D02*
X37310000Y-119761000D01*
X39017500Y-120130000D02*
X37679000Y-120130000D01*
X38997500Y-118110000D02*
X39017500Y-118130000D01*
X39898000Y-118130000D02*
X40386000Y-118618000D01*
X40386000Y-118618000D02*
X40386000Y-118872000D01*
X44430000Y-122194000D02*
X44450000Y-122174000D01*
X42430000Y-122035000D02*
X42545000Y-121920000D01*
X40350000Y-121630000D02*
X39017500Y-121630000D01*
%TO.N,XIN*%
X41080489Y-97349511D02*
X41080489Y-101141511D01*
X41080489Y-101141511D02*
X41880978Y-101942000D01*
X42080000Y-101942000D02*
X42080000Y-102504000D01*
X42980000Y-95450000D02*
X41080489Y-97349511D01*
X42980000Y-94537500D02*
X42980000Y-95450000D01*
X41880978Y-101942000D02*
X42080000Y-101942000D01*
X42080000Y-102504000D02*
X42954000Y-103378000D01*
%TO.N,Net-(C27-Pad1)*%
X42418000Y-98427000D02*
X42465000Y-98427000D01*
X42465000Y-98427000D02*
X44280000Y-100242000D01*
X44474000Y-100048000D02*
X44280000Y-100242000D01*
X45974000Y-100048000D02*
X44474000Y-100048000D01*
%TO.N,Net-(C28-Pad1)*%
X50038000Y-76964000D02*
X51024000Y-76964000D01*
X50292000Y-77218000D02*
X50038000Y-76964000D01*
X51024000Y-76964000D02*
X51054000Y-76934000D01*
X50292000Y-79326500D02*
X50292000Y-77218000D01*
X49022000Y-76964000D02*
X50038000Y-76964000D01*
%TO.N,Net-(C30-Pad1)*%
X40005000Y-130810000D02*
X40005000Y-128526000D01*
X39624000Y-128145000D02*
X40610000Y-128145000D01*
X40005000Y-128526000D02*
X39624000Y-128145000D01*
X40610000Y-128145000D02*
X40640000Y-128115000D01*
%TO.N,Net-(C31-Pad1)*%
X42545000Y-130810000D02*
X42545000Y-129258000D01*
X42545000Y-129258000D02*
X43688000Y-128115000D01*
%TO.N,Net-(C31-Pad2)*%
X42033000Y-127125000D02*
X42672000Y-127764000D01*
X43281000Y-127155000D02*
X42672000Y-127764000D01*
X41656000Y-127125000D02*
X42033000Y-127125000D01*
X43688000Y-127155000D02*
X43281000Y-127155000D01*
%TO.N,Net-(C32-Pad1)*%
X47752000Y-128242000D02*
X47653000Y-128242000D01*
X47653000Y-128242000D02*
X45085000Y-130810000D01*
%TO.N,Net-(C32-Pad2)*%
X46351000Y-127125000D02*
X46736000Y-127510000D01*
X47752000Y-127282000D02*
X46964000Y-127282000D01*
X45720000Y-127125000D02*
X46351000Y-127125000D01*
X46964000Y-127282000D02*
X46736000Y-127510000D01*
%TO.N,Net-(C33-Pad1)*%
X45720000Y-128145000D02*
X44734000Y-128145000D01*
X41591489Y-131507489D02*
X43434000Y-133350000D01*
X43815000Y-129004000D02*
X43815000Y-133350000D01*
X41591489Y-128209511D02*
X41591489Y-131507489D01*
X44704000Y-128115000D02*
X43815000Y-129004000D01*
X43434000Y-133350000D02*
X43815000Y-133350000D01*
X44734000Y-128145000D02*
X44704000Y-128115000D01*
X41656000Y-128145000D02*
X41591489Y-128209511D01*
%TO.N,Net-(C34-Pad1)*%
X43930000Y-123542500D02*
X43930000Y-124238940D01*
X45167060Y-125476000D02*
X45184000Y-125476000D01*
X43930000Y-124238940D02*
X45167060Y-125476000D01*
%TO.N,Net-(C35-Pad1)*%
X45220580Y-122555480D02*
X46609480Y-122555480D01*
X46609480Y-122555480D02*
X47018000Y-122964000D01*
X47018000Y-122964000D02*
X47018000Y-123698000D01*
X44930000Y-122846060D02*
X45220580Y-122555480D01*
X44930000Y-123542500D02*
X44930000Y-122846060D01*
%TO.N,XI*%
X49743000Y-119849000D02*
X49022000Y-119128000D01*
X51300000Y-120560000D02*
X50589000Y-119849000D01*
X47342500Y-119630000D02*
X48520000Y-119630000D01*
X48520000Y-119630000D02*
X49022000Y-119128000D01*
X50589000Y-119849000D02*
X49743000Y-119849000D01*
X51300000Y-121412000D02*
X51300000Y-120560000D01*
%TO.N,Net-(C37-Pad1)*%
X52606000Y-116586000D02*
X52606000Y-117966000D01*
X51564000Y-116586000D02*
X52606000Y-116586000D01*
X52606000Y-117966000D02*
X52789000Y-118149000D01*
%TO.N,VBUS*%
X44134480Y-74735520D02*
X44134480Y-75485480D01*
X45357000Y-76708000D02*
X45432000Y-76708000D01*
X44704000Y-74166000D02*
X44134480Y-74735520D01*
D46*
X44226000Y-71525978D02*
X44504978Y-71247000D01*
D45*
X44226000Y-72256000D02*
X44226000Y-73688000D01*
D46*
X44504978Y-71247000D02*
X53467000Y-71247000D01*
X53467000Y-71247000D02*
X55880000Y-73660000D01*
D45*
X44226000Y-73688000D02*
X44704000Y-74166000D01*
D46*
X44226000Y-72510000D02*
X44226000Y-71525978D01*
D45*
X44134480Y-75485480D02*
X45357000Y-76708000D01*
%TO.N,SWCLK*%
X44579520Y-94537980D02*
X44579520Y-96099520D01*
X44579520Y-96099520D02*
X45080000Y-96600000D01*
X44580000Y-94537500D02*
X44579520Y-94537980D01*
X45080000Y-96600000D02*
X45080000Y-96800000D01*
%TO.N,SWDIO*%
X45777858Y-96697858D02*
X44980000Y-95900000D01*
X44980000Y-95900000D02*
X44980000Y-94537500D01*
X45777858Y-96827131D02*
X45777858Y-96697858D01*
%TO.N,USB_D_N*%
X43576000Y-76406000D02*
X46355000Y-79185000D01*
X43576000Y-72510000D02*
X43576000Y-76406000D01*
%TO.N,USB_D_P*%
X42926000Y-76375994D02*
X44450000Y-77899994D01*
X44450000Y-77899994D02*
X44450000Y-79185000D01*
X42926000Y-72510000D02*
X42926000Y-76375994D01*
%TO.N,Net-(P2-Pad1)*%
X35560000Y-128145000D02*
X36576000Y-128145000D01*
X37084000Y-131699000D02*
X38735000Y-133350000D01*
X36576000Y-128145000D02*
X37084000Y-128653000D01*
X37084000Y-128653000D02*
X37084000Y-131699000D01*
%TO.N,Net-(P2-Pad3)*%
X41196531Y-133350000D02*
X41275000Y-133350000D01*
X37592000Y-128145000D02*
X37592000Y-129745469D01*
X38608000Y-128145000D02*
X37592000Y-128145000D01*
X37592000Y-129745469D02*
X41196531Y-133350000D01*
D46*
%TO.N,Net-(P2-Pad9)*%
X49403000Y-132475425D02*
X40019425Y-141859000D01*
X40019425Y-141859000D02*
X38100000Y-141859000D01*
X49403000Y-128526000D02*
X49403000Y-132475425D01*
X38100000Y-141859000D02*
X36855000Y-143104000D01*
X36855000Y-143104000D02*
X36855000Y-144780000D01*
%TO.N,Net-(P2-Pad11)*%
X46870479Y-144712479D02*
X46938000Y-144780000D01*
X46870479Y-135882521D02*
X46870479Y-144712479D01*
X50800000Y-128526000D02*
X50165000Y-129161000D01*
X50165000Y-129161000D02*
X50165000Y-132588000D01*
X50165000Y-132588000D02*
X46870479Y-135882521D01*
D45*
%TO.N,GPIO29{slash}ADC3*%
X55880000Y-88900000D02*
X47017500Y-88900000D01*
%TO.N,3V3_EN*%
X47754000Y-75184000D02*
X48834500Y-75184000D01*
X48834500Y-75184000D02*
X49408500Y-74610000D01*
%TO.N,GPIO24*%
X46386480Y-76056775D02*
X46482000Y-76152295D01*
X53467000Y-106807000D02*
X55880000Y-109220000D01*
X47017500Y-90900000D02*
X50539976Y-90900000D01*
X46386480Y-75852480D02*
X46386480Y-76056775D01*
X50539976Y-90900000D02*
X53467000Y-93827024D01*
X46482000Y-76152295D02*
X46482000Y-76454000D01*
X47017500Y-90900000D02*
X46196000Y-90900000D01*
X44704000Y-75186000D02*
X45720000Y-75186000D01*
X45720000Y-75186000D02*
X46386480Y-75852480D01*
X46196000Y-90900000D02*
X46101000Y-90805000D01*
X53467000Y-93827024D02*
X53467000Y-106807000D01*
%TO.N,XOUT*%
X43380000Y-96445000D02*
X42418000Y-97407000D01*
X43380000Y-94537500D02*
X43380000Y-96445000D01*
%TO.N,QSPI_SS_N*%
X40980000Y-86940296D02*
X35210480Y-81170776D01*
X35814000Y-76835000D02*
X36745000Y-76835000D01*
X40005000Y-87757000D02*
X40099500Y-87662500D01*
X40980000Y-87662500D02*
X40980000Y-86940296D01*
X40099500Y-87662500D02*
X40980000Y-87662500D01*
X35210480Y-77438520D02*
X35814000Y-76835000D01*
X35210480Y-81170776D02*
X35210480Y-77438520D01*
X42924000Y-104648000D02*
X41021000Y-104648000D01*
%TO.N,Net-(R6-Pad2)*%
X36580500Y-106075000D02*
X42580500Y-106075000D01*
X42580500Y-106075000D02*
X42580500Y-106011500D01*
X42580500Y-106011500D02*
X43944000Y-104648000D01*
%TO.N,RUN*%
X50902873Y-101600000D02*
X46330489Y-97027616D01*
X50927000Y-101600000D02*
X49528000Y-102999000D01*
X46330489Y-96673362D02*
X45379520Y-95722393D01*
X45379520Y-95722393D02*
X45379520Y-94537980D01*
X45379520Y-94537980D02*
X45380000Y-94537500D01*
X51689000Y-101600000D02*
X50927000Y-101600000D01*
X51689000Y-101600000D02*
X50902873Y-101600000D01*
X46330489Y-97027616D02*
X46330489Y-96673362D01*
X49528000Y-102999000D02*
X49528000Y-104394000D01*
%TO.N,Net-(R7-Pad2)*%
X50327500Y-106075000D02*
X50548000Y-105854500D01*
X50548000Y-105854500D02*
X50548000Y-104394000D01*
X44327500Y-106075000D02*
X50327500Y-106075000D01*
%TO.N,/RUSB_D_P*%
X44580000Y-87662500D02*
X44580000Y-86230000D01*
X45720000Y-82105000D02*
X44450000Y-80835000D01*
X45720000Y-85090000D02*
X45720000Y-82105000D01*
X44580000Y-86230000D02*
X45720000Y-85090000D01*
%TO.N,GPIO20*%
X45930000Y-113711000D02*
X45930000Y-115217500D01*
X47879000Y-113538000D02*
X46103000Y-113538000D01*
X48917981Y-111379000D02*
X48917981Y-112499019D01*
X49559006Y-94869000D02*
X49559006Y-94357834D01*
X46103000Y-113538000D02*
X45930000Y-113711000D01*
X49559006Y-94357834D02*
X48101172Y-92900000D01*
X48101172Y-92900000D02*
X47017500Y-92900000D01*
X48917981Y-112499019D02*
X47879000Y-113538000D01*
%TO.N,/RUSB_D_N*%
X46069519Y-85234777D02*
X46069519Y-81120481D01*
X44980000Y-86324296D02*
X46069519Y-85234777D01*
X44980000Y-87662500D02*
X44980000Y-86324296D01*
X46069519Y-81120481D02*
X46355000Y-80835000D01*
%TO.N,ADC_VREF*%
X48768000Y-83818000D02*
X49784000Y-83818000D01*
D46*
X49784000Y-83818000D02*
X53338000Y-83818000D01*
X53338000Y-83818000D02*
X55880000Y-86360000D01*
D45*
%TO.N,Net-(R15-Pad1)*%
X46180000Y-87295711D02*
X48637711Y-84838000D01*
X46180000Y-87662500D02*
X46180000Y-87295711D01*
X48637711Y-84838000D02*
X48768000Y-84838000D01*
%TO.N,Net-(R17-Pad2)*%
X37719000Y-116580500D02*
X37768500Y-116630000D01*
X37768500Y-116630000D02*
X39017500Y-116630000D01*
%TO.N,GPIO21*%
X48304000Y-92500000D02*
X47017500Y-92500000D01*
X48006000Y-114808000D02*
X48006000Y-115966500D01*
X48006000Y-115966500D02*
X47342500Y-116630000D01*
X50208509Y-94404509D02*
X48304000Y-92500000D01*
X50208509Y-94869000D02*
X50208509Y-94404509D01*
D47*
%TO.N,ACTn*%
X48109651Y-121130000D02*
X48379520Y-121399869D01*
X50165000Y-123506782D02*
X50165000Y-126871000D01*
X48379520Y-121721302D02*
X50165000Y-123506782D01*
X50165000Y-126871000D02*
X50800000Y-127506000D01*
X47342500Y-121130000D02*
X48109651Y-121130000D01*
X48379520Y-121399869D02*
X48379520Y-121721302D01*
D45*
%TO.N,Net-(R20-Pad2)*%
X36830011Y-116980755D02*
X37342128Y-116980755D01*
X37491373Y-117130000D02*
X39017500Y-117130000D01*
X37342128Y-116980755D02*
X37491373Y-117130000D01*
%TO.N,Net-(R21-Pad2)*%
X36016480Y-118669520D02*
X38977980Y-118669520D01*
X46357000Y-126111000D02*
X39243000Y-126111000D01*
X38977980Y-118669520D02*
X39017500Y-118630000D01*
X39243000Y-126111000D02*
X35306000Y-122174000D01*
X35306000Y-119380000D02*
X36016480Y-118669520D01*
X35306000Y-122174000D02*
X35306000Y-119380000D01*
X46736000Y-126490000D02*
X46357000Y-126111000D01*
%TO.N,Net-(R22-Pad2)*%
X35655520Y-121958514D02*
X35655520Y-119524776D01*
X39173006Y-125476000D02*
X35655520Y-121958514D01*
X36050296Y-119130000D02*
X39017500Y-119130000D01*
X39370000Y-125476000D02*
X39173006Y-125476000D01*
X35655520Y-119524776D02*
X36050296Y-119130000D01*
D47*
%TO.N,LINKn*%
X47342500Y-122130000D02*
X48152500Y-122130000D01*
X48152500Y-122130000D02*
X49403000Y-123380500D01*
X49403000Y-123380500D02*
X49403000Y-127506000D01*
D45*
%TO.N,Net-(R26-Pad2)*%
X39017500Y-121130000D02*
X38130000Y-121130000D01*
X38130000Y-121130000D02*
X37338000Y-121922000D01*
%TO.N,XO*%
X49022000Y-117916978D02*
X50352978Y-116586000D01*
X48038940Y-119130000D02*
X49022000Y-118146940D01*
X47342500Y-119130000D02*
X48038940Y-119130000D01*
X49022000Y-118146940D02*
X49022000Y-118108000D01*
X50352978Y-116586000D02*
X50544000Y-116586000D01*
X49022000Y-118108000D02*
X49022000Y-117916978D01*
%TO.N,QSPI_SD1*%
X35560000Y-78359000D02*
X35560000Y-81026000D01*
X35560000Y-81026000D02*
X41380000Y-86846000D01*
X36745000Y-78105000D02*
X35814000Y-78105000D01*
X41380000Y-86846000D02*
X41380000Y-87662500D01*
X35814000Y-78105000D02*
X35560000Y-78359000D01*
%TO.N,QSPI_SD2*%
X38735000Y-79375000D02*
X41148000Y-81788000D01*
X41780000Y-86738000D02*
X41780000Y-87662500D01*
X41148000Y-86106000D02*
X41780000Y-86738000D01*
X36745000Y-79375000D02*
X36554283Y-79375000D01*
X41148000Y-81788000D02*
X41148000Y-86106000D01*
X36745000Y-79375000D02*
X38735000Y-79375000D01*
%TO.N,QSPI_SD0*%
X41995000Y-80645000D02*
X41497520Y-81142480D01*
X41497520Y-85961224D02*
X42180000Y-86643704D01*
X42180000Y-86643704D02*
X42180000Y-87662500D01*
X41497520Y-81142480D02*
X41497520Y-85961224D01*
%TO.N,QSPI_SCLK*%
X43119520Y-80308803D02*
X43119520Y-81086480D01*
X43119520Y-81086480D02*
X41847040Y-82358960D01*
X41847040Y-85816448D02*
X42580000Y-86549409D01*
X41995000Y-79375000D02*
X42185717Y-79375000D01*
X42185717Y-79375000D02*
X43119520Y-80308803D01*
X41847040Y-82358960D02*
X41847040Y-85816448D01*
X42580000Y-86549409D02*
X42580000Y-87662500D01*
%TO.N,QSPI_SD3*%
X43519040Y-81181256D02*
X42196560Y-82503736D01*
X43307000Y-78105000D02*
X43519040Y-78317040D01*
X42196560Y-85651116D02*
X42980000Y-86434556D01*
X43519040Y-78317040D02*
X43519040Y-81181256D01*
X41995000Y-78105000D02*
X43307000Y-78105000D01*
X42196560Y-82503736D02*
X42196560Y-85651116D01*
X42980000Y-86434556D02*
X42980000Y-87662500D01*
%TO.N,GPIO17*%
X47529503Y-96800000D02*
X47529503Y-96649503D01*
X45974000Y-118110000D02*
X46494000Y-118630000D01*
X46180000Y-95300000D02*
X46180000Y-94537500D01*
X46494000Y-118630000D02*
X47342500Y-118630000D01*
X47529503Y-96649503D02*
X46180000Y-95300000D01*
%TO.N,GPIO18*%
X50165000Y-115994775D02*
X48329520Y-117830255D01*
X48329520Y-117830255D02*
X48329520Y-117839420D01*
X50165000Y-113411000D02*
X50165000Y-115994775D01*
X48260000Y-94361000D02*
X47599000Y-93700000D01*
X47599000Y-93700000D02*
X47017500Y-93700000D01*
X48260000Y-94869000D02*
X48260000Y-94361000D01*
X48329520Y-117839420D02*
X48038940Y-118130000D01*
X48038940Y-118130000D02*
X47342500Y-118130000D01*
%TO.N,GPIO16*%
X46155500Y-117094000D02*
X46155500Y-117210151D01*
X45780000Y-95500000D02*
X46880000Y-96600000D01*
X46155500Y-117210151D02*
X46575349Y-117630000D01*
X46880000Y-96600000D02*
X46880000Y-96800000D01*
X46575349Y-117630000D02*
X47342500Y-117630000D01*
X45780000Y-94537500D02*
X45780000Y-95500000D01*
%TO.N,GPIO19*%
X49467492Y-109030492D02*
X49467492Y-116013508D01*
X48909503Y-94202626D02*
X48006397Y-93299520D01*
X49276000Y-108839000D02*
X49467492Y-109030492D01*
X48006397Y-93299520D02*
X47017980Y-93299520D01*
X47017980Y-93299520D02*
X47017500Y-93300000D01*
X48909503Y-94869000D02*
X48909503Y-94202626D01*
X48351000Y-117130000D02*
X47342500Y-117130000D01*
X49467492Y-116013508D02*
X48351000Y-117130000D01*
%TO.N,GPIO0*%
X40142500Y-88900000D02*
X35280024Y-88900000D01*
X35280024Y-88900000D02*
X34544000Y-88163976D01*
X34544000Y-77724000D02*
X30480000Y-73660000D01*
X34544000Y-88163976D02*
X34544000Y-77724000D01*
%TO.N,GPIO1*%
X39040024Y-89300000D02*
X39039544Y-89300480D01*
X40142500Y-89300000D02*
X39040024Y-89300000D01*
X39039544Y-89300480D02*
X35115498Y-89300480D01*
X34194480Y-88379462D02*
X34194480Y-79914480D01*
X35115498Y-89300480D02*
X34194480Y-88379462D01*
X34194480Y-79914480D02*
X30480000Y-76200000D01*
%TO.N,GPIO2*%
X33844960Y-88594948D02*
X33844960Y-84644960D01*
X33844960Y-84644960D02*
X30480000Y-81280000D01*
X40142500Y-89700000D02*
X34950012Y-89700000D01*
X34950012Y-89700000D02*
X33844960Y-88594948D01*
%TO.N,GPIO3*%
X40142500Y-90100000D02*
X38380000Y-90100000D01*
X38379040Y-90100960D02*
X34785966Y-90100960D01*
X33495440Y-88810434D02*
X33495440Y-86835440D01*
X38380000Y-90100000D02*
X38379040Y-90100960D01*
X34785966Y-90100960D02*
X33495440Y-88810434D01*
X33495440Y-86835440D02*
X30480000Y-83820000D01*
%TO.N,GPIO4*%
X38544526Y-90500480D02*
X34620480Y-90500480D01*
X34620480Y-90500480D02*
X30480000Y-86360000D01*
X38545006Y-90500000D02*
X38544526Y-90500480D01*
X40142500Y-90500000D02*
X38545006Y-90500000D01*
%TO.N,GPIO5*%
X32480000Y-90900000D02*
X30480000Y-88900000D01*
X40142500Y-90900000D02*
X32480000Y-90900000D01*
%TO.N,GPIO6*%
X33160000Y-91300000D02*
X30480000Y-93980000D01*
X40142500Y-91300000D02*
X33160000Y-91300000D01*
%TO.N,GPIO7*%
X35300000Y-91700000D02*
X30480000Y-96520000D01*
X40142500Y-91700000D02*
X35300000Y-91700000D01*
%TO.N,GPIO8*%
X40142500Y-92500000D02*
X39367112Y-92500000D01*
X36340000Y-93200000D02*
X30480000Y-99060000D01*
X39367112Y-92500000D02*
X38667112Y-93200000D01*
X38667112Y-93200000D02*
X36340000Y-93200000D01*
%TO.N,GPIO9*%
X39461408Y-92900000D02*
X38761888Y-93599520D01*
X32285479Y-99794521D02*
X30480000Y-101600000D01*
X40142500Y-92900000D02*
X39461408Y-92900000D01*
X36505486Y-93599520D02*
X32285479Y-97819527D01*
X32285479Y-97819527D02*
X32285479Y-99794521D01*
X38761888Y-93599520D02*
X36505486Y-93599520D01*
%TO.N,GPIO10*%
X32634999Y-104525001D02*
X30480000Y-106680000D01*
X39555704Y-93300000D02*
X38856664Y-93999040D01*
X38856664Y-93999040D02*
X36670972Y-93999040D01*
X32634999Y-98035013D02*
X32634999Y-104525001D01*
X40142500Y-93300000D02*
X39555704Y-93300000D01*
X36670972Y-93999040D02*
X32634999Y-98035013D01*
%TO.N,GPIO11*%
X36836458Y-94398560D02*
X32984519Y-98250499D01*
X39650000Y-93700000D02*
X38951440Y-94398560D01*
X32984519Y-98250499D02*
X32984519Y-106715481D01*
X40142500Y-93700000D02*
X39650000Y-93700000D01*
X32984519Y-106715481D02*
X30480000Y-109220000D01*
X38951440Y-94398560D02*
X36836458Y-94398560D01*
%TO.N,GPIO12*%
X40980000Y-94537500D02*
X40980000Y-94974999D01*
X40980000Y-94974999D02*
X40610559Y-95344440D01*
X36455584Y-95344440D02*
X33334039Y-98465985D01*
X33334039Y-108905961D02*
X30480000Y-111760000D01*
X40610559Y-95344440D02*
X36455584Y-95344440D01*
X33334039Y-98465985D02*
X33334039Y-108905961D01*
%TO.N,GPIO13*%
X32447961Y-112332039D02*
X30480000Y-114300000D01*
X33683559Y-109121447D02*
X32447961Y-110357045D01*
X33683559Y-98681471D02*
X33683559Y-109121447D01*
X36671070Y-95693960D02*
X33683559Y-98681471D01*
X32447961Y-110357045D02*
X32447961Y-112332039D01*
X40755335Y-95693960D02*
X36671070Y-95693960D01*
X41380000Y-95069295D02*
X40755335Y-95693960D01*
X41380000Y-94537500D02*
X41380000Y-95069295D01*
%TO.N,GPIO14*%
X32797480Y-117062520D02*
X30480000Y-119380000D01*
X36886556Y-96043480D02*
X34033079Y-98896957D01*
X41780000Y-94537500D02*
X41780000Y-95234301D01*
X34033079Y-98896957D02*
X34033079Y-109336933D01*
X41780000Y-95234301D02*
X40970821Y-96043480D01*
X40970821Y-96043480D02*
X36886556Y-96043480D01*
X34033079Y-109336933D02*
X32797481Y-110572531D01*
X32797481Y-110572531D02*
X32797480Y-117062520D01*
%TO.N,GPIO15*%
X34382599Y-109552419D02*
X33147000Y-110788018D01*
X37102042Y-96393000D02*
X34382599Y-99112443D01*
X41186307Y-96393000D02*
X37102042Y-96393000D01*
X42180000Y-94537500D02*
X42180000Y-95399307D01*
X33147000Y-119253000D02*
X30480000Y-121920000D01*
X33147000Y-110788018D02*
X33147000Y-119253000D01*
X42180000Y-95399307D02*
X41186307Y-96393000D01*
X34382599Y-99112443D02*
X34382599Y-109552419D01*
%TO.N,GPIO22*%
X52667960Y-94157996D02*
X52667960Y-111087960D01*
X50209964Y-91700000D02*
X52667960Y-94157996D01*
X47017500Y-91700000D02*
X50209964Y-91700000D01*
X52667960Y-111087960D02*
X55880000Y-114300000D01*
%TO.N,GPIO23*%
X50374970Y-91300000D02*
X53067480Y-93992510D01*
X53067480Y-93992510D02*
X53067480Y-108947480D01*
X47017500Y-91300000D02*
X50374970Y-91300000D01*
X53067480Y-108947480D02*
X55880000Y-111760000D01*
%TO.N,GPIO25*%
X53931449Y-104731449D02*
X55880000Y-106680000D01*
X53931449Y-93726467D02*
X53931449Y-104731449D01*
X47017500Y-90500000D02*
X50704982Y-90500000D01*
X50704982Y-90500000D02*
X53931449Y-93726467D01*
%TO.N,GPIO26{slash}ADC0*%
X54330969Y-97510969D02*
X55880000Y-99060000D01*
X50869988Y-90100000D02*
X54330969Y-93560981D01*
X47017500Y-90100000D02*
X50869988Y-90100000D01*
X54330969Y-93560981D02*
X54330969Y-97510969D01*
%TO.N,GPIO27{slash}ADC1*%
X47017500Y-89700000D02*
X51034994Y-89700000D01*
X51034994Y-89700000D02*
X54730489Y-93395495D01*
X54730489Y-93395495D02*
X54730489Y-95370489D01*
X54730489Y-95370489D02*
X55880000Y-96520000D01*
%TO.N,GPIO28{slash}ADC2*%
X51200000Y-89300000D02*
X55880000Y-93980000D01*
X47017500Y-89300000D02*
X51200000Y-89300000D01*
%TD*%
M02*
