%TF.GenerationSoftware,KiCad,Pcbnew,6.0.2+dfsg-1*%
%TF.CreationDate,2022-12-03T09:23:02-05:00*%
%TF.ProjectId,wiz5500-clone-4layer,77697a35-3530-4302-9d63-6c6f6e652d34,rev?*%
%TF.SameCoordinates,Original*%
%TF.FileFunction,Soldermask,Top*%
%TF.FilePolarity,Negative*%
%FSLAX46Y46*%
G04 Gerber Fmt 4.6, Leading zero omitted, Abs format (unit mm)*
G04 Created by KiCad (PCBNEW 6.0.2+dfsg-1) date 2022-12-03 09:23:02*
%MOMM*%
%LPD*%
G01*
G04 APERTURE LIST*
G04 Aperture macros list*
%AMRoundRect*
0 Rectangle with rounded corners*
0 $1 Rounding radius*
0 $2 $3 $4 $5 $6 $7 $8 $9 X,Y pos of 4 corners*
0 Add a 4 corners polygon primitive as box body*
4,1,4,$2,$3,$4,$5,$6,$7,$8,$9,$2,$3,0*
0 Add four circle primitives for the rounded corners*
1,1,$1+$1,$2,$3*
1,1,$1+$1,$4,$5*
1,1,$1+$1,$6,$7*
1,1,$1+$1,$8,$9*
0 Add four rect primitives between the rounded corners*
20,1,$1+$1,$2,$3,$4,$5,0*
20,1,$1+$1,$4,$5,$6,$7,0*
20,1,$1+$1,$6,$7,$8,$9,0*
20,1,$1+$1,$8,$9,$2,$3,0*%
G04 Aperture macros list end*
%ADD10RoundRect,0.150000X-0.825000X-0.150000X0.825000X-0.150000X0.825000X0.150000X-0.825000X0.150000X0*%
%ADD11R,1.000000X0.750000*%
%ADD12RoundRect,0.140000X0.170000X-0.140000X0.170000X0.140000X-0.170000X0.140000X-0.170000X-0.140000X0*%
%ADD13RoundRect,0.140000X-0.170000X0.140000X-0.170000X-0.140000X0.170000X-0.140000X0.170000X0.140000X0*%
%ADD14RoundRect,0.135000X-0.185000X0.135000X-0.185000X-0.135000X0.185000X-0.135000X0.185000X0.135000X0*%
%ADD15RoundRect,0.135000X-0.135000X-0.185000X0.135000X-0.185000X0.135000X0.185000X-0.135000X0.185000X0*%
%ADD16RoundRect,0.140000X-0.140000X-0.170000X0.140000X-0.170000X0.140000X0.170000X-0.140000X0.170000X0*%
%ADD17RoundRect,0.140000X0.140000X0.170000X-0.140000X0.170000X-0.140000X-0.170000X0.140000X-0.170000X0*%
%ADD18R,1.700000X1.700000*%
%ADD19O,1.700000X1.700000*%
%ADD20RoundRect,0.200000X0.275000X-0.200000X0.275000X0.200000X-0.275000X0.200000X-0.275000X-0.200000X0*%
%ADD21RoundRect,0.135000X0.185000X-0.135000X0.185000X0.135000X-0.185000X0.135000X-0.185000X-0.135000X0*%
%ADD22RoundRect,0.135000X0.135000X0.185000X-0.135000X0.185000X-0.135000X-0.185000X0.135000X-0.185000X0*%
%ADD23R,0.600000X0.450000*%
%ADD24R,0.450000X1.380000*%
%ADD25R,1.425000X1.550000*%
%ADD26R,1.650000X1.300000*%
%ADD27R,1.800000X1.900000*%
%ADD28R,1.000000X1.900000*%
%ADD29RoundRect,0.249999X1.450001X-0.450001X1.450001X0.450001X-1.450001X0.450001X-1.450001X-0.450001X0*%
%ADD30R,1.400000X1.200000*%
%ADD31C,3.250000*%
%ADD32R,1.408000X1.408000*%
%ADD33C,1.408000*%
%ADD34C,1.530000*%
%ADD35C,2.400000*%
%ADD36RoundRect,0.150000X-0.512500X-0.150000X0.512500X-0.150000X0.512500X0.150000X-0.512500X0.150000X0*%
%ADD37RoundRect,0.075000X-0.662500X-0.075000X0.662500X-0.075000X0.662500X0.075000X-0.662500X0.075000X0*%
%ADD38RoundRect,0.075000X-0.075000X-0.662500X0.075000X-0.662500X0.075000X0.662500X-0.075000X0.662500X0*%
%ADD39R,3.600000X3.600000*%
%ADD40RoundRect,0.050000X-0.387500X-0.050000X0.387500X-0.050000X0.387500X0.050000X-0.387500X0.050000X0*%
%ADD41RoundRect,0.050000X-0.050000X-0.387500X0.050000X-0.387500X0.050000X0.387500X-0.050000X0.387500X0*%
%ADD42R,3.200000X3.200000*%
%ADD43RoundRect,0.218750X-0.256250X0.218750X-0.256250X-0.218750X0.256250X-0.218750X0.256250X0.218750X0*%
%ADD44RoundRect,0.150000X0.150000X-0.587500X0.150000X0.587500X-0.150000X0.587500X-0.150000X-0.587500X0*%
G04 APERTURE END LIST*
D10*
%TO.C,U2*%
X36895000Y-76835000D03*
X36895000Y-78105000D03*
X36895000Y-79375000D03*
X36895000Y-80645000D03*
X41845000Y-80645000D03*
X41845000Y-79375000D03*
X41845000Y-78105000D03*
X41845000Y-76835000D03*
%TD*%
D11*
%TO.C,SW1*%
X36580500Y-106075000D03*
X42580500Y-106075000D03*
X36580500Y-109825000D03*
X42580500Y-109825000D03*
%TD*%
D12*
%TO.C,C5*%
X43942000Y-84808000D03*
X43942000Y-83848000D03*
%TD*%
%TO.C,C17*%
X49022000Y-121130000D03*
X49022000Y-120170000D03*
%TD*%
D13*
%TO.C,C2*%
X44450000Y-97437000D03*
X44450000Y-98397000D03*
%TD*%
D14*
%TO.C,R4*%
X42418000Y-97407000D03*
X42418000Y-98427000D03*
%TD*%
D15*
%TO.C,R7*%
X49528000Y-104394000D03*
X50548000Y-104394000D03*
%TD*%
D11*
%TO.C,SW2*%
X44327500Y-106075000D03*
X50327500Y-106075000D03*
X44327500Y-109825000D03*
X50327500Y-109825000D03*
%TD*%
D15*
%TO.C,R1*%
X46734000Y-75184000D03*
X47754000Y-75184000D03*
%TD*%
D12*
%TO.C,C11*%
X48514000Y-87856000D03*
X48514000Y-86896000D03*
%TD*%
D16*
%TO.C,C35*%
X47018000Y-123698000D03*
X47978000Y-123698000D03*
%TD*%
%TO.C,C12*%
X46764000Y-74168000D03*
X47724000Y-74168000D03*
%TD*%
D12*
%TO.C,C4*%
X47752000Y-84808000D03*
X47752000Y-83848000D03*
%TD*%
D17*
%TO.C,C8*%
X38326000Y-92329000D03*
X37366000Y-92329000D03*
%TD*%
%TO.C,C19*%
X37310000Y-118110000D03*
X36350000Y-118110000D03*
%TD*%
D18*
%TO.C,J2*%
X30480000Y-73660000D03*
D19*
X30480000Y-76200000D03*
X30480000Y-78740000D03*
X30480000Y-81280000D03*
X30480000Y-83820000D03*
X30480000Y-86360000D03*
X30480000Y-88900000D03*
X30480000Y-91440000D03*
X30480000Y-93980000D03*
X30480000Y-96520000D03*
X30480000Y-99060000D03*
X30480000Y-101600000D03*
X30480000Y-104140000D03*
X30480000Y-106680000D03*
X30480000Y-109220000D03*
X30480000Y-111760000D03*
X30480000Y-114300000D03*
X30480000Y-116840000D03*
X30480000Y-119380000D03*
X30480000Y-121920000D03*
%TD*%
D20*
%TO.C,R12*%
X46355000Y-80835000D03*
X46355000Y-79185000D03*
%TD*%
D21*
%TO.C,R14*%
X37592000Y-128145000D03*
X37592000Y-127125000D03*
%TD*%
D12*
%TO.C,C1*%
X46736000Y-84808000D03*
X46736000Y-83848000D03*
%TD*%
D16*
%TO.C,C37*%
X52606000Y-116586000D03*
X53566000Y-116586000D03*
%TD*%
D22*
%TO.C,R28*%
X51564000Y-116586000D03*
X50544000Y-116586000D03*
%TD*%
D21*
%TO.C,R22*%
X42672000Y-127764000D03*
X42672000Y-126744000D03*
%TD*%
%TO.C,R16*%
X36576000Y-128145000D03*
X36576000Y-127125000D03*
%TD*%
D23*
%TO.C,D1*%
X47532000Y-76708000D03*
X45432000Y-76708000D03*
%TD*%
D24*
%TO.C,P1*%
X44226000Y-72510000D03*
X43576000Y-72510000D03*
X42926000Y-72510000D03*
X42276000Y-72510000D03*
X41626000Y-72510000D03*
D25*
X45413500Y-72425000D03*
X40438500Y-72425000D03*
D26*
X46301000Y-69850000D03*
D27*
X44076000Y-69850000D03*
D28*
X41376000Y-69850000D03*
D26*
X39551000Y-69850000D03*
%TD*%
D14*
%TO.C,R8*%
X50038000Y-75944000D03*
X50038000Y-76964000D03*
%TD*%
D12*
%TO.C,C3*%
X42926000Y-84808000D03*
X42926000Y-83848000D03*
%TD*%
%TO.C,C31*%
X43688000Y-128115000D03*
X43688000Y-127155000D03*
%TD*%
%TO.C,C6*%
X44958000Y-84808000D03*
X44958000Y-83848000D03*
%TD*%
D17*
%TO.C,C23*%
X43152000Y-125222000D03*
X42192000Y-125222000D03*
%TD*%
D29*
%TO.C,C29*%
X54610000Y-136924000D03*
X54610000Y-132824000D03*
%TD*%
D21*
%TO.C,R17*%
X38608000Y-128145000D03*
X38608000Y-127125000D03*
%TD*%
D30*
%TO.C,Y1*%
X42080000Y-101942000D03*
X44280000Y-101942000D03*
X44280000Y-100242000D03*
X42080000Y-100242000D03*
%TD*%
D12*
%TO.C,C32*%
X47752000Y-128242000D03*
X47752000Y-127282000D03*
%TD*%
D18*
%TO.C,J1*%
X38354000Y-97917000D03*
D19*
X38354000Y-100457000D03*
X38354000Y-102997000D03*
%TD*%
D15*
%TO.C,R11*%
X45083000Y-113538000D03*
X46103000Y-113538000D03*
%TD*%
D31*
%TO.C,P2*%
X48895000Y-139700000D03*
X37465000Y-139700000D03*
D32*
X38735000Y-133350000D03*
D33*
X40005000Y-130810000D03*
X41275000Y-133350000D03*
X42545000Y-130810000D03*
X43815000Y-133350000D03*
X45085000Y-130810000D03*
X46355000Y-133350000D03*
X47625000Y-130810000D03*
D34*
X36855000Y-144780000D03*
X39422000Y-143080000D03*
X46938000Y-144780000D03*
X49505000Y-143080000D03*
D35*
X50930000Y-136650000D03*
X35430000Y-136650000D03*
%TD*%
D17*
%TO.C,C18*%
X37691000Y-125984000D03*
X36731000Y-125984000D03*
%TD*%
D14*
%TO.C,R25*%
X49403000Y-127506000D03*
X49403000Y-128526000D03*
%TD*%
D21*
%TO.C,R27*%
X49022000Y-119128000D03*
X49022000Y-118108000D03*
%TD*%
D13*
%TO.C,C9*%
X43434000Y-97437000D03*
X43434000Y-98397000D03*
%TD*%
D17*
%TO.C,C7*%
X38961000Y-88138000D03*
X38001000Y-88138000D03*
%TD*%
D36*
%TO.C,U1*%
X49408500Y-72710000D03*
X49408500Y-73660000D03*
X49408500Y-74610000D03*
X51683500Y-74610000D03*
X51683500Y-72710000D03*
%TD*%
D13*
%TO.C,C13*%
X53340000Y-72545000D03*
X53340000Y-73505000D03*
%TD*%
D12*
%TO.C,C27*%
X45974000Y-100048000D03*
X45974000Y-99088000D03*
%TD*%
D16*
%TO.C,C15*%
X35207000Y-113792000D03*
X36167000Y-113792000D03*
%TD*%
D21*
%TO.C,R20*%
X35560000Y-128145000D03*
X35560000Y-127125000D03*
%TD*%
D15*
%TO.C,R18*%
X46988000Y-114808000D03*
X48008000Y-114808000D03*
%TD*%
D30*
%TO.C,Y2*%
X50589000Y-119849000D03*
X52789000Y-119849000D03*
X52789000Y-118149000D03*
X50589000Y-118149000D03*
%TD*%
D17*
%TO.C,C20*%
X37310000Y-119761000D03*
X36350000Y-119761000D03*
%TD*%
D20*
%TO.C,R9*%
X44450000Y-80835000D03*
X44450000Y-79185000D03*
%TD*%
D18*
%TO.C,J3*%
X55880000Y-121920000D03*
D19*
X55880000Y-119380000D03*
X55880000Y-116840000D03*
X55880000Y-114300000D03*
X55880000Y-111760000D03*
X55880000Y-109220000D03*
X55880000Y-106680000D03*
X55880000Y-104140000D03*
X55880000Y-101600000D03*
X55880000Y-99060000D03*
X55880000Y-96520000D03*
X55880000Y-93980000D03*
X55880000Y-91440000D03*
X55880000Y-88900000D03*
X55880000Y-86360000D03*
X55880000Y-83820000D03*
X55880000Y-81280000D03*
X55880000Y-78740000D03*
X55880000Y-76200000D03*
X55880000Y-73660000D03*
%TD*%
D37*
%TO.C,U3*%
X39017500Y-116630000D03*
X39017500Y-117130000D03*
X39017500Y-117630000D03*
X39017500Y-118130000D03*
X39017500Y-118630000D03*
X39017500Y-119130000D03*
X39017500Y-119630000D03*
X39017500Y-120130000D03*
X39017500Y-120630000D03*
X39017500Y-121130000D03*
X39017500Y-121630000D03*
X39017500Y-122130000D03*
D38*
X40430000Y-123542500D03*
X40930000Y-123542500D03*
X41430000Y-123542500D03*
X41930000Y-123542500D03*
X42430000Y-123542500D03*
X42930000Y-123542500D03*
X43430000Y-123542500D03*
X43930000Y-123542500D03*
X44430000Y-123542500D03*
X44930000Y-123542500D03*
X45430000Y-123542500D03*
X45930000Y-123542500D03*
D37*
X47342500Y-122130000D03*
X47342500Y-121630000D03*
X47342500Y-121130000D03*
X47342500Y-120630000D03*
X47342500Y-120130000D03*
X47342500Y-119630000D03*
X47342500Y-119130000D03*
X47342500Y-118630000D03*
X47342500Y-118130000D03*
X47342500Y-117630000D03*
X47342500Y-117130000D03*
X47342500Y-116630000D03*
D38*
X45930000Y-115217500D03*
X45430000Y-115217500D03*
X44930000Y-115217500D03*
X44430000Y-115217500D03*
X43930000Y-115217500D03*
X43430000Y-115217500D03*
X42930000Y-115217500D03*
X42430000Y-115217500D03*
X41930000Y-115217500D03*
X41430000Y-115217500D03*
X40930000Y-115217500D03*
X40430000Y-115217500D03*
D39*
X43180000Y-119380000D03*
%TD*%
D15*
%TO.C,R6*%
X42924000Y-104648000D03*
X43944000Y-104648000D03*
%TD*%
D14*
%TO.C,R2*%
X44704000Y-74166000D03*
X44704000Y-75186000D03*
%TD*%
D12*
%TO.C,C28*%
X51054000Y-76934000D03*
X51054000Y-75974000D03*
%TD*%
D17*
%TO.C,C34*%
X45184000Y-125476000D03*
X44224000Y-125476000D03*
%TD*%
D21*
%TO.C,R21*%
X46736000Y-127510000D03*
X46736000Y-126490000D03*
%TD*%
%TO.C,R10*%
X39624000Y-128145000D03*
X39624000Y-127125000D03*
%TD*%
%TO.C,R15*%
X48768000Y-84838000D03*
X48768000Y-83818000D03*
%TD*%
D16*
%TO.C,C14*%
X52098000Y-76200000D03*
X53058000Y-76200000D03*
%TD*%
D14*
%TO.C,R26*%
X37338000Y-120902000D03*
X37338000Y-121922000D03*
%TD*%
%TO.C,R13*%
X49784000Y-83818000D03*
X49784000Y-84838000D03*
%TD*%
D21*
%TO.C,R3*%
X45720000Y-75186000D03*
X45720000Y-74166000D03*
%TD*%
D17*
%TO.C,C25*%
X41120000Y-75438000D03*
X40160000Y-75438000D03*
%TD*%
D40*
%TO.C,U4*%
X40142500Y-88500000D03*
X40142500Y-88900000D03*
X40142500Y-89300000D03*
X40142500Y-89700000D03*
X40142500Y-90100000D03*
X40142500Y-90500000D03*
X40142500Y-90900000D03*
X40142500Y-91300000D03*
X40142500Y-91700000D03*
X40142500Y-92100000D03*
X40142500Y-92500000D03*
X40142500Y-92900000D03*
X40142500Y-93300000D03*
X40142500Y-93700000D03*
D41*
X40980000Y-94537500D03*
X41380000Y-94537500D03*
X41780000Y-94537500D03*
X42180000Y-94537500D03*
X42580000Y-94537500D03*
X42980000Y-94537500D03*
X43380000Y-94537500D03*
X43780000Y-94537500D03*
X44180000Y-94537500D03*
X44580000Y-94537500D03*
X44980000Y-94537500D03*
X45380000Y-94537500D03*
X45780000Y-94537500D03*
X46180000Y-94537500D03*
D40*
X47017500Y-93700000D03*
X47017500Y-93300000D03*
X47017500Y-92900000D03*
X47017500Y-92500000D03*
X47017500Y-92100000D03*
X47017500Y-91700000D03*
X47017500Y-91300000D03*
X47017500Y-90900000D03*
X47017500Y-90500000D03*
X47017500Y-90100000D03*
X47017500Y-89700000D03*
X47017500Y-89300000D03*
X47017500Y-88900000D03*
X47017500Y-88500000D03*
D41*
X46180000Y-87662500D03*
X45780000Y-87662500D03*
X45380000Y-87662500D03*
X44980000Y-87662500D03*
X44580000Y-87662500D03*
X44180000Y-87662500D03*
X43780000Y-87662500D03*
X43380000Y-87662500D03*
X42980000Y-87662500D03*
X42580000Y-87662500D03*
X42180000Y-87662500D03*
X41780000Y-87662500D03*
X41380000Y-87662500D03*
X40980000Y-87662500D03*
D42*
X43580000Y-91100000D03*
%TD*%
D16*
%TO.C,C26*%
X42954000Y-103378000D03*
X43914000Y-103378000D03*
%TD*%
D12*
%TO.C,C30*%
X40640000Y-128115000D03*
X40640000Y-127155000D03*
%TD*%
%TO.C,C33*%
X44704000Y-128115000D03*
X44704000Y-127155000D03*
%TD*%
D43*
%TO.C,L1*%
X35670348Y-115101664D03*
X35670348Y-116676664D03*
%TD*%
D16*
%TO.C,C10*%
X50955000Y-94615000D03*
X51915000Y-94615000D03*
%TD*%
D17*
%TO.C,C22*%
X41120000Y-125222000D03*
X40160000Y-125222000D03*
%TD*%
D44*
%TO.C,Q1*%
X49342000Y-81201500D03*
X51242000Y-81201500D03*
X50292000Y-79326500D03*
%TD*%
D21*
%TO.C,R24*%
X41656000Y-128145000D03*
X41656000Y-127125000D03*
%TD*%
D16*
%TO.C,C24*%
X46256000Y-125222000D03*
X47216000Y-125222000D03*
%TD*%
D14*
%TO.C,R5*%
X49022000Y-75944000D03*
X49022000Y-76964000D03*
%TD*%
D16*
%TO.C,C21*%
X37874000Y-123190000D03*
X38834000Y-123190000D03*
%TD*%
%TO.C,C36*%
X51300000Y-121412000D03*
X52260000Y-121412000D03*
%TD*%
D21*
%TO.C,R23*%
X45720000Y-128145000D03*
X45720000Y-127125000D03*
%TD*%
D14*
%TO.C,R19*%
X50800000Y-127506000D03*
X50800000Y-128526000D03*
%TD*%
D17*
%TO.C,C16*%
X41628000Y-113538000D03*
X40668000Y-113538000D03*
%TD*%
M02*
