%TF.GenerationSoftware,KiCad,Pcbnew,6.0.2+dfsg-1*%
%TF.CreationDate,2022-12-03T09:23:02-05:00*%
%TF.ProjectId,wiz5500-clone-4layer,77697a35-3530-4302-9d63-6c6f6e652d34,rev?*%
%TF.SameCoordinates,Original*%
%TF.FileFunction,Copper,L4,Bot*%
%TF.FilePolarity,Positive*%
%FSLAX46Y46*%
G04 Gerber Fmt 4.6, Leading zero omitted, Abs format (unit mm)*
G04 Created by KiCad (PCBNEW 6.0.2+dfsg-1) date 2022-12-03 09:23:02*
%MOMM*%
%LPD*%
G01*
G04 APERTURE LIST*
%TA.AperFunction,ComponentPad*%
%ADD10R,1.700000X1.700000*%
%TD*%
%TA.AperFunction,ComponentPad*%
%ADD11O,1.700000X1.700000*%
%TD*%
%TA.AperFunction,ComponentPad*%
%ADD12R,1.408000X1.408000*%
%TD*%
%TA.AperFunction,ComponentPad*%
%ADD13C,1.408000*%
%TD*%
%TA.AperFunction,ComponentPad*%
%ADD14C,1.530000*%
%TD*%
%TA.AperFunction,ComponentPad*%
%ADD15C,2.400000*%
%TD*%
%TA.AperFunction,ViaPad*%
%ADD16C,0.500000*%
%TD*%
G04 APERTURE END LIST*
D10*
%TO.P,J2,1,Pin_1*%
%TO.N,GPIO0*%
X30480000Y-73660000D03*
D11*
%TO.P,J2,2,Pin_2*%
%TO.N,GPIO1*%
X30480000Y-76200000D03*
%TO.P,J2,3,Pin_3*%
%TO.N,GND*%
X30480000Y-78740000D03*
%TO.P,J2,4,Pin_4*%
%TO.N,GPIO2*%
X30480000Y-81280000D03*
%TO.P,J2,5,Pin_5*%
%TO.N,GPIO3*%
X30480000Y-83820000D03*
%TO.P,J2,6,Pin_6*%
%TO.N,GPIO4*%
X30480000Y-86360000D03*
%TO.P,J2,7,Pin_7*%
%TO.N,GPIO5*%
X30480000Y-88900000D03*
%TO.P,J2,8,Pin_8*%
%TO.N,GND*%
X30480000Y-91440000D03*
%TO.P,J2,9,Pin_9*%
%TO.N,GPIO6*%
X30480000Y-93980000D03*
%TO.P,J2,10,Pin_10*%
%TO.N,GPIO7*%
X30480000Y-96520000D03*
%TO.P,J2,11,Pin_11*%
%TO.N,GPIO8*%
X30480000Y-99060000D03*
%TO.P,J2,12,Pin_12*%
%TO.N,GPIO9*%
X30480000Y-101600000D03*
%TO.P,J2,13,Pin_13*%
%TO.N,GND*%
X30480000Y-104140000D03*
%TO.P,J2,14,Pin_14*%
%TO.N,GPIO10*%
X30480000Y-106680000D03*
%TO.P,J2,15,Pin_15*%
%TO.N,GPIO11*%
X30480000Y-109220000D03*
%TO.P,J2,16,Pin_16*%
%TO.N,GPIO12*%
X30480000Y-111760000D03*
%TO.P,J2,17,Pin_17*%
%TO.N,GPIO13*%
X30480000Y-114300000D03*
%TO.P,J2,18,Pin_18*%
%TO.N,GND*%
X30480000Y-116840000D03*
%TO.P,J2,19,Pin_19*%
%TO.N,GPIO14*%
X30480000Y-119380000D03*
%TO.P,J2,20,Pin_20*%
%TO.N,GPIO15*%
X30480000Y-121920000D03*
%TD*%
D10*
%TO.P,J1,1,Pin_1*%
%TO.N,SWCLK*%
X38354000Y-97917000D03*
D11*
%TO.P,J1,2,Pin_2*%
%TO.N,GND*%
X38354000Y-100457000D03*
%TO.P,J1,3,Pin_3*%
%TO.N,SWDIO*%
X38354000Y-102997000D03*
%TD*%
D12*
%TO.P,P2,1*%
%TO.N,Net-(P2-Pad1)*%
X38735000Y-133350000D03*
D13*
%TO.P,P2,2*%
%TO.N,Net-(C30-Pad1)*%
X40005000Y-130810000D03*
%TO.P,P2,3*%
%TO.N,Net-(P2-Pad3)*%
X41275000Y-133350000D03*
%TO.P,P2,4*%
%TO.N,Net-(C31-Pad1)*%
X42545000Y-130810000D03*
%TO.P,P2,5*%
%TO.N,Net-(C33-Pad1)*%
X43815000Y-133350000D03*
%TO.P,P2,6*%
%TO.N,Net-(C32-Pad1)*%
X45085000Y-130810000D03*
%TO.P,P2,7*%
%TO.N,unconnected-(P2-Pad7)*%
X46355000Y-133350000D03*
%TO.P,P2,8*%
%TO.N,GND*%
X47625000Y-130810000D03*
D14*
%TO.P,P2,9*%
%TO.N,Net-(P2-Pad9)*%
X36855000Y-144780000D03*
%TO.P,P2,10*%
%TO.N,+3V3*%
X39422000Y-143080000D03*
%TO.P,P2,11*%
%TO.N,Net-(P2-Pad11)*%
X46938000Y-144780000D03*
%TO.P,P2,12*%
%TO.N,+3V3*%
X49505000Y-143080000D03*
D15*
%TO.P,P2,SH*%
%TO.N,GNDPWR*%
X50930000Y-136650000D03*
X35430000Y-136650000D03*
%TD*%
D10*
%TO.P,J3,1,Pin_1*%
%TO.N,GND*%
X55880000Y-121920000D03*
D11*
%TO.P,J3,2,Pin_2*%
X55880000Y-119380000D03*
%TO.P,J3,3,Pin_3*%
X55880000Y-116840000D03*
%TO.P,J3,4,Pin_4*%
%TO.N,GPIO22*%
X55880000Y-114300000D03*
%TO.P,J3,5,Pin_5*%
%TO.N,GPIO23*%
X55880000Y-111760000D03*
%TO.P,J3,6,Pin_6*%
%TO.N,GPIO24*%
X55880000Y-109220000D03*
%TO.P,J3,7,Pin_7*%
%TO.N,GPIO25*%
X55880000Y-106680000D03*
%TO.P,J3,8,Pin_8*%
%TO.N,GND*%
X55880000Y-104140000D03*
%TO.P,J3,9,Pin_9*%
%TO.N,RUN*%
X55880000Y-101600000D03*
%TO.P,J3,10,Pin_10*%
%TO.N,GPIO26{slash}ADC0*%
X55880000Y-99060000D03*
%TO.P,J3,11,Pin_11*%
%TO.N,GPIO27{slash}ADC1*%
X55880000Y-96520000D03*
%TO.P,J3,12,Pin_12*%
%TO.N,GPIO28{slash}ADC2*%
X55880000Y-93980000D03*
%TO.P,J3,13,Pin_13*%
%TO.N,GND*%
X55880000Y-91440000D03*
%TO.P,J3,14,Pin_14*%
%TO.N,GPIO29{slash}ADC3*%
X55880000Y-88900000D03*
%TO.P,J3,15,Pin_15*%
%TO.N,ADC_VREF*%
X55880000Y-86360000D03*
%TO.P,J3,16,Pin_16*%
%TO.N,+3V3*%
X55880000Y-83820000D03*
%TO.P,J3,17,Pin_17*%
%TO.N,3V3_EN*%
X55880000Y-81280000D03*
%TO.P,J3,18,Pin_18*%
%TO.N,GND*%
X55880000Y-78740000D03*
%TO.P,J3,19,Pin_19*%
%TO.N,VSYS*%
X55880000Y-76200000D03*
%TO.P,J3,20,Pin_20*%
%TO.N,VBUS*%
X55880000Y-73660000D03*
%TD*%
D16*
%TO.N,GND*%
X44196000Y-109982000D03*
X52070000Y-94615000D03*
X53975000Y-132588000D03*
X50292000Y-109982000D03*
X53086000Y-76200000D03*
X36322000Y-92456000D03*
X35052000Y-118110000D03*
X43580000Y-91100000D03*
X47498000Y-87122000D03*
X44704000Y-89916000D03*
X50589000Y-118149000D03*
X36830000Y-125984000D03*
X43434000Y-119888000D03*
X44450000Y-98397000D03*
X42672000Y-119888000D03*
X44704000Y-92202000D03*
X42080000Y-100242000D03*
X42164000Y-125222000D03*
X51054000Y-75974000D03*
X43434000Y-118872000D03*
X42418000Y-89916000D03*
X54610000Y-132588000D03*
X53594000Y-116586000D03*
X41910000Y-119888000D03*
X52789000Y-119849000D03*
X47244000Y-82804000D03*
X55245000Y-132588000D03*
X44196000Y-118110000D03*
X44704000Y-127000000D03*
X41402000Y-70358000D03*
X53340000Y-73406000D03*
X55880000Y-132588000D03*
X42418000Y-92202000D03*
X44196000Y-118872000D03*
X43434000Y-120650000D03*
X42672000Y-118872000D03*
X40394750Y-72381250D03*
X47752000Y-70612000D03*
X45413500Y-72425000D03*
X49022000Y-120170000D03*
X43434000Y-118110000D03*
X44196000Y-120650000D03*
X40640000Y-127000000D03*
X53340000Y-132588000D03*
X41910000Y-120650000D03*
X42672000Y-118110000D03*
X41910000Y-118872000D03*
X44196000Y-119888000D03*
X44196000Y-125476000D03*
X44280000Y-101942000D03*
X36576000Y-109982000D03*
X43942000Y-82804000D03*
X38862000Y-123190000D03*
X42672000Y-120650000D03*
X37084000Y-88138000D03*
X42672000Y-109982000D03*
X38100000Y-80518000D03*
X39551000Y-70177000D03*
X41910000Y-118110000D03*
X48006000Y-123698000D03*
X43942000Y-70358000D03*
X36322000Y-113792000D03*
%TO.N,+3V3*%
X35560000Y-115062000D03*
X45974000Y-92456000D03*
X43928000Y-84822000D03*
X44196000Y-88392000D03*
X41995000Y-76835000D03*
X45974000Y-88646000D03*
X50546000Y-72390000D03*
X49784000Y-84836000D03*
X44944000Y-84822000D03*
X37084000Y-114300000D03*
X41656000Y-113538000D03*
X49276000Y-81534000D03*
X43434000Y-93472000D03*
X51308000Y-73406000D03*
X37084000Y-115062000D03*
X51683500Y-72710000D03*
X47752000Y-84808000D03*
X49276000Y-80772000D03*
X41148000Y-88646000D03*
X41148000Y-92202000D03*
X43434000Y-97437000D03*
%TO.N,+3.3VA*%
X40640000Y-121920000D03*
X39624000Y-127000000D03*
X37592000Y-127000000D03*
X35560000Y-116586000D03*
X44450000Y-122174000D03*
X40386000Y-118872000D03*
X42545000Y-121920000D03*
%TO.N,GNDPWR*%
X53975000Y-137160000D03*
X55880000Y-137160000D03*
X55245000Y-137160000D03*
X54610000Y-137160000D03*
X53340000Y-137160000D03*
%TO.N,SWCLK*%
X45080000Y-96800000D03*
%TO.N,SWDIO*%
X45777858Y-96827131D03*
%TO.N,GPIO29{slash}ADC3*%
X51308000Y-81534000D03*
%TO.N,3V3_EN*%
X49408500Y-74610000D03*
%TO.N,GPIO24*%
X46101000Y-90805000D03*
X46482000Y-76454000D03*
%TO.N,QSPI_SS_N*%
X41021000Y-104648000D03*
X40005000Y-87757000D03*
%TO.N,RUN*%
X51689000Y-101600000D03*
%TO.N,GPIO20*%
X48917981Y-111379000D03*
X49559006Y-94869000D03*
%TO.N,Net-(R17-Pad2)*%
X38608000Y-127000000D03*
X37719000Y-116580500D03*
%TO.N,GPIO21*%
X48006000Y-114808000D03*
X50208509Y-94869000D03*
%TO.N,Net-(R20-Pad2)*%
X35560000Y-127000000D03*
X36830011Y-116980755D03*
%TO.N,Net-(R22-Pad2)*%
X42672000Y-126746000D03*
X39370000Y-125476000D03*
%TO.N,GPIO17*%
X45974000Y-118110000D03*
X47529503Y-96800000D03*
%TO.N,GPIO18*%
X50165000Y-113411000D03*
X48260000Y-94869000D03*
%TO.N,GPIO16*%
X46155500Y-117094000D03*
X46880000Y-96800000D03*
%TO.N,GPIO19*%
X48909503Y-94869000D03*
X49276000Y-108839000D03*
%TD*%
%TA.AperFunction,Conductor*%
%TO.N,GND*%
G36*
X57155474Y-69850479D02*
G01*
X57203516Y-69854682D01*
X57359555Y-69868334D01*
X57381178Y-69872146D01*
X57531625Y-69912458D01*
X57573718Y-69923737D01*
X57594358Y-69931249D01*
X57775015Y-70015492D01*
X57794026Y-70026468D01*
X57935489Y-70125522D01*
X57957314Y-70140804D01*
X57974138Y-70154922D01*
X58115078Y-70295862D01*
X58129196Y-70312686D01*
X58243532Y-70475974D01*
X58254508Y-70494985D01*
X58328102Y-70652807D01*
X58338751Y-70675643D01*
X58346263Y-70696282D01*
X58397853Y-70888818D01*
X58401667Y-70910448D01*
X58419521Y-71114526D01*
X58420000Y-71125507D01*
X58420000Y-133344493D01*
X58419521Y-133355474D01*
X58401667Y-133559552D01*
X58397854Y-133581178D01*
X58369062Y-133688632D01*
X58346263Y-133773718D01*
X58338751Y-133794357D01*
X58254508Y-133975015D01*
X58243532Y-133994026D01*
X58170226Y-134098717D01*
X58129196Y-134157314D01*
X58115078Y-134174138D01*
X57974138Y-134315078D01*
X57957314Y-134329196D01*
X57794026Y-134443532D01*
X57775015Y-134454508D01*
X57641294Y-134516864D01*
X57594357Y-134538751D01*
X57573718Y-134546263D01*
X57531625Y-134557542D01*
X57381178Y-134597854D01*
X57359555Y-134601666D01*
X57203516Y-134615318D01*
X57155474Y-134619521D01*
X57144493Y-134620000D01*
X47054803Y-134620000D01*
X46986682Y-134599998D01*
X46940189Y-134546342D01*
X46930085Y-134476068D01*
X46959579Y-134411488D01*
X46982532Y-134390787D01*
X47132846Y-134285536D01*
X47132849Y-134285534D01*
X47137357Y-134282377D01*
X47287377Y-134132357D01*
X47308540Y-134102134D01*
X47341111Y-134055617D01*
X47409067Y-133958566D01*
X47411390Y-133953584D01*
X47411393Y-133953579D01*
X47496407Y-133771266D01*
X47496408Y-133771264D01*
X47498730Y-133766284D01*
X47553641Y-133561353D01*
X47572132Y-133350000D01*
X47553641Y-133138647D01*
X47498730Y-132933716D01*
X47496407Y-132928734D01*
X47411393Y-132746421D01*
X47411390Y-132746416D01*
X47409067Y-132741434D01*
X47310932Y-132601283D01*
X47290536Y-132572154D01*
X47290534Y-132572151D01*
X47287377Y-132567643D01*
X47137357Y-132417623D01*
X47132849Y-132414466D01*
X47132846Y-132414464D01*
X47060617Y-132363889D01*
X46963566Y-132295933D01*
X46958584Y-132293610D01*
X46958579Y-132293607D01*
X46776266Y-132208593D01*
X46776264Y-132208592D01*
X46771284Y-132206270D01*
X46765976Y-132204848D01*
X46765974Y-132204847D01*
X46571668Y-132152783D01*
X46571666Y-132152783D01*
X46566353Y-132151359D01*
X46355000Y-132132868D01*
X46143647Y-132151359D01*
X46138334Y-132152783D01*
X46138332Y-132152783D01*
X45944026Y-132204847D01*
X45944024Y-132204848D01*
X45938716Y-132206270D01*
X45933736Y-132208592D01*
X45933734Y-132208593D01*
X45751421Y-132293607D01*
X45751416Y-132293610D01*
X45746434Y-132295933D01*
X45649383Y-132363889D01*
X45577154Y-132414464D01*
X45577151Y-132414466D01*
X45572643Y-132417623D01*
X45422623Y-132567643D01*
X45419466Y-132572151D01*
X45419464Y-132572154D01*
X45399068Y-132601283D01*
X45300933Y-132741434D01*
X45298610Y-132746416D01*
X45298607Y-132746421D01*
X45213593Y-132928734D01*
X45211270Y-132933716D01*
X45209848Y-132939023D01*
X45209844Y-132939034D01*
X45206706Y-132950746D01*
X45169755Y-133011368D01*
X45105894Y-133042390D01*
X45035399Y-133033961D01*
X44980653Y-132988757D01*
X44963294Y-132950746D01*
X44960156Y-132939034D01*
X44960152Y-132939023D01*
X44958730Y-132933716D01*
X44956407Y-132928734D01*
X44871393Y-132746421D01*
X44871390Y-132746416D01*
X44869067Y-132741434D01*
X44770932Y-132601283D01*
X44750536Y-132572154D01*
X44750534Y-132572151D01*
X44747377Y-132567643D01*
X44597357Y-132417623D01*
X44592849Y-132414466D01*
X44592846Y-132414464D01*
X44520617Y-132363889D01*
X44423566Y-132295933D01*
X44418584Y-132293610D01*
X44418579Y-132293607D01*
X44236266Y-132208593D01*
X44236264Y-132208592D01*
X44231284Y-132206270D01*
X44225976Y-132204848D01*
X44225974Y-132204847D01*
X44031668Y-132152783D01*
X44031666Y-132152783D01*
X44026353Y-132151359D01*
X43815000Y-132132868D01*
X43603647Y-132151359D01*
X43598334Y-132152783D01*
X43598332Y-132152783D01*
X43404026Y-132204847D01*
X43404024Y-132204848D01*
X43398716Y-132206270D01*
X43393736Y-132208592D01*
X43393734Y-132208593D01*
X43211421Y-132293607D01*
X43211416Y-132293610D01*
X43206434Y-132295933D01*
X43109383Y-132363889D01*
X43037154Y-132414464D01*
X43037151Y-132414466D01*
X43032643Y-132417623D01*
X42882623Y-132567643D01*
X42879466Y-132572151D01*
X42879464Y-132572154D01*
X42859068Y-132601283D01*
X42760933Y-132741434D01*
X42758610Y-132746416D01*
X42758607Y-132746421D01*
X42673593Y-132928734D01*
X42671270Y-132933716D01*
X42669848Y-132939023D01*
X42669844Y-132939034D01*
X42666706Y-132950746D01*
X42629755Y-133011368D01*
X42565894Y-133042390D01*
X42495399Y-133033961D01*
X42440653Y-132988757D01*
X42423294Y-132950746D01*
X42420156Y-132939034D01*
X42420152Y-132939023D01*
X42418730Y-132933716D01*
X42416407Y-132928734D01*
X42331393Y-132746421D01*
X42331390Y-132746416D01*
X42329067Y-132741434D01*
X42230932Y-132601283D01*
X42210536Y-132572154D01*
X42210534Y-132572151D01*
X42207377Y-132567643D01*
X42057357Y-132417623D01*
X42052849Y-132414466D01*
X42052846Y-132414464D01*
X41980617Y-132363889D01*
X41883566Y-132295933D01*
X41878584Y-132293610D01*
X41878579Y-132293607D01*
X41696266Y-132208593D01*
X41696264Y-132208592D01*
X41691284Y-132206270D01*
X41685976Y-132204848D01*
X41685974Y-132204847D01*
X41491668Y-132152783D01*
X41491666Y-132152783D01*
X41486353Y-132151359D01*
X41275000Y-132132868D01*
X41063647Y-132151359D01*
X41058334Y-132152783D01*
X41058332Y-132152783D01*
X40864026Y-132204847D01*
X40864024Y-132204848D01*
X40858716Y-132206270D01*
X40853736Y-132208592D01*
X40853734Y-132208593D01*
X40671421Y-132293607D01*
X40671416Y-132293610D01*
X40666434Y-132295933D01*
X40569383Y-132363889D01*
X40497154Y-132414464D01*
X40497151Y-132414466D01*
X40492643Y-132417623D01*
X40342623Y-132567643D01*
X40339466Y-132572151D01*
X40339464Y-132572154D01*
X40319068Y-132601283D01*
X40220933Y-132741434D01*
X40218610Y-132746416D01*
X40218607Y-132746421D01*
X40187695Y-132812713D01*
X40140778Y-132865998D01*
X40072500Y-132885459D01*
X40004540Y-132864917D01*
X39958475Y-132810894D01*
X39947500Y-132759463D01*
X39947500Y-132597866D01*
X39940745Y-132535684D01*
X39889615Y-132399295D01*
X39802261Y-132282739D01*
X39742702Y-132238102D01*
X39700188Y-132181244D01*
X39695162Y-132110426D01*
X39729222Y-132048132D01*
X39791553Y-132014142D01*
X39829250Y-132011756D01*
X39999525Y-132026653D01*
X40005000Y-132027132D01*
X40216353Y-132008641D01*
X40221666Y-132007217D01*
X40221668Y-132007217D01*
X40415974Y-131955153D01*
X40415976Y-131955152D01*
X40421284Y-131953730D01*
X40441674Y-131944222D01*
X40608579Y-131866393D01*
X40608584Y-131866390D01*
X40613566Y-131864067D01*
X40710617Y-131796111D01*
X40782846Y-131745536D01*
X40782849Y-131745534D01*
X40787357Y-131742377D01*
X40937377Y-131592357D01*
X41059067Y-131418566D01*
X41061390Y-131413584D01*
X41061393Y-131413579D01*
X41146407Y-131231266D01*
X41146408Y-131231264D01*
X41148730Y-131226284D01*
X41150153Y-131220974D01*
X41150156Y-131220966D01*
X41153294Y-131209254D01*
X41190245Y-131148632D01*
X41254106Y-131117610D01*
X41324601Y-131126039D01*
X41379347Y-131171243D01*
X41396706Y-131209254D01*
X41399844Y-131220966D01*
X41399847Y-131220974D01*
X41401270Y-131226284D01*
X41403592Y-131231264D01*
X41403593Y-131231266D01*
X41488607Y-131413579D01*
X41488610Y-131413584D01*
X41490933Y-131418566D01*
X41612623Y-131592357D01*
X41762643Y-131742377D01*
X41767151Y-131745534D01*
X41767154Y-131745536D01*
X41839383Y-131796111D01*
X41936434Y-131864067D01*
X41941416Y-131866390D01*
X41941421Y-131866393D01*
X42108326Y-131944222D01*
X42128716Y-131953730D01*
X42134024Y-131955152D01*
X42134026Y-131955153D01*
X42328332Y-132007217D01*
X42328334Y-132007217D01*
X42333647Y-132008641D01*
X42545000Y-132027132D01*
X42756353Y-132008641D01*
X42761666Y-132007217D01*
X42761668Y-132007217D01*
X42955974Y-131955153D01*
X42955976Y-131955152D01*
X42961284Y-131953730D01*
X42981674Y-131944222D01*
X43148579Y-131866393D01*
X43148584Y-131866390D01*
X43153566Y-131864067D01*
X43250617Y-131796111D01*
X43322846Y-131745536D01*
X43322849Y-131745534D01*
X43327357Y-131742377D01*
X43477377Y-131592357D01*
X43599067Y-131418566D01*
X43601390Y-131413584D01*
X43601393Y-131413579D01*
X43686407Y-131231266D01*
X43686408Y-131231264D01*
X43688730Y-131226284D01*
X43690153Y-131220974D01*
X43690156Y-131220966D01*
X43693294Y-131209254D01*
X43730245Y-131148632D01*
X43794106Y-131117610D01*
X43864601Y-131126039D01*
X43919347Y-131171243D01*
X43936706Y-131209254D01*
X43939844Y-131220966D01*
X43939847Y-131220974D01*
X43941270Y-131226284D01*
X43943592Y-131231264D01*
X43943593Y-131231266D01*
X44028607Y-131413579D01*
X44028610Y-131413584D01*
X44030933Y-131418566D01*
X44152623Y-131592357D01*
X44302643Y-131742377D01*
X44307151Y-131745534D01*
X44307154Y-131745536D01*
X44379383Y-131796111D01*
X44476434Y-131864067D01*
X44481416Y-131866390D01*
X44481421Y-131866393D01*
X44648326Y-131944222D01*
X44668716Y-131953730D01*
X44674024Y-131955152D01*
X44674026Y-131955153D01*
X44868332Y-132007217D01*
X44868334Y-132007217D01*
X44873647Y-132008641D01*
X45085000Y-132027132D01*
X45296353Y-132008641D01*
X45301666Y-132007217D01*
X45301668Y-132007217D01*
X45495974Y-131955153D01*
X45495976Y-131955152D01*
X45501284Y-131953730D01*
X45521674Y-131944222D01*
X45688579Y-131866393D01*
X45688584Y-131866390D01*
X45693566Y-131864067D01*
X45746313Y-131827133D01*
X46972422Y-131827133D01*
X46981718Y-131839148D01*
X47012176Y-131860475D01*
X47021672Y-131865958D01*
X47203903Y-131950933D01*
X47214199Y-131954681D01*
X47408424Y-132006724D01*
X47419211Y-132008626D01*
X47619525Y-132026151D01*
X47630475Y-132026151D01*
X47830789Y-132008626D01*
X47841576Y-132006724D01*
X48035801Y-131954681D01*
X48046097Y-131950933D01*
X48228328Y-131865958D01*
X48237824Y-131860475D01*
X48269120Y-131838561D01*
X48277495Y-131828084D01*
X48270426Y-131814636D01*
X47637812Y-131182022D01*
X47623868Y-131174408D01*
X47622035Y-131174539D01*
X47615420Y-131178790D01*
X46978852Y-131815358D01*
X46972422Y-131827133D01*
X45746313Y-131827133D01*
X45790617Y-131796111D01*
X45862846Y-131745536D01*
X45862849Y-131745534D01*
X45867357Y-131742377D01*
X46017377Y-131592357D01*
X46139067Y-131418566D01*
X46141390Y-131413584D01*
X46141393Y-131413579D01*
X46226407Y-131231266D01*
X46226408Y-131231264D01*
X46228730Y-131226284D01*
X46233552Y-131208288D01*
X46270504Y-131147665D01*
X46334364Y-131116644D01*
X46404859Y-131125072D01*
X46459606Y-131170275D01*
X46476966Y-131208289D01*
X46480317Y-131220796D01*
X46484067Y-131231097D01*
X46569042Y-131413328D01*
X46574525Y-131422824D01*
X46596439Y-131454120D01*
X46606916Y-131462495D01*
X46620364Y-131455426D01*
X47252978Y-130822812D01*
X47259356Y-130811132D01*
X47989408Y-130811132D01*
X47989539Y-130812965D01*
X47993790Y-130819580D01*
X48630358Y-131456148D01*
X48642133Y-131462578D01*
X48654148Y-131453282D01*
X48675475Y-131422824D01*
X48680958Y-131413328D01*
X48765933Y-131231097D01*
X48769681Y-131220801D01*
X48821724Y-131026576D01*
X48823626Y-131015789D01*
X48841151Y-130815475D01*
X48841151Y-130804525D01*
X48823626Y-130604211D01*
X48821724Y-130593424D01*
X48769681Y-130399199D01*
X48765933Y-130388903D01*
X48680958Y-130206672D01*
X48675475Y-130197176D01*
X48653561Y-130165880D01*
X48643084Y-130157505D01*
X48629636Y-130164574D01*
X47997022Y-130797188D01*
X47989408Y-130811132D01*
X47259356Y-130811132D01*
X47260592Y-130808868D01*
X47260461Y-130807035D01*
X47256210Y-130800420D01*
X46619642Y-130163852D01*
X46607867Y-130157422D01*
X46595852Y-130166718D01*
X46574525Y-130197176D01*
X46569042Y-130206672D01*
X46484067Y-130388903D01*
X46480317Y-130399204D01*
X46476966Y-130411711D01*
X46440015Y-130472334D01*
X46376155Y-130503356D01*
X46305660Y-130494928D01*
X46250913Y-130449726D01*
X46233552Y-130411712D01*
X46230153Y-130399026D01*
X46230152Y-130399024D01*
X46228730Y-130393716D01*
X46141510Y-130206672D01*
X46141393Y-130206421D01*
X46141390Y-130206416D01*
X46139067Y-130201434D01*
X46017377Y-130027643D01*
X45867357Y-129877623D01*
X45862849Y-129874466D01*
X45862846Y-129874464D01*
X45790617Y-129823889D01*
X45744955Y-129791916D01*
X46972505Y-129791916D01*
X46979574Y-129805364D01*
X47612188Y-130437978D01*
X47626132Y-130445592D01*
X47627965Y-130445461D01*
X47634580Y-130441210D01*
X48271148Y-129804642D01*
X48277578Y-129792867D01*
X48268282Y-129780852D01*
X48237824Y-129759525D01*
X48228328Y-129754042D01*
X48046097Y-129669067D01*
X48035801Y-129665319D01*
X47841576Y-129613276D01*
X47830789Y-129611374D01*
X47630475Y-129593849D01*
X47619525Y-129593849D01*
X47419211Y-129611374D01*
X47408424Y-129613276D01*
X47214199Y-129665319D01*
X47203903Y-129669067D01*
X47021672Y-129754042D01*
X47012176Y-129759525D01*
X46980880Y-129781439D01*
X46972505Y-129791916D01*
X45744955Y-129791916D01*
X45693566Y-129755933D01*
X45688584Y-129753610D01*
X45688579Y-129753607D01*
X45506266Y-129668593D01*
X45506264Y-129668592D01*
X45501284Y-129666270D01*
X45495976Y-129664848D01*
X45495974Y-129664847D01*
X45301668Y-129612783D01*
X45301666Y-129612783D01*
X45296353Y-129611359D01*
X45085000Y-129592868D01*
X44873647Y-129611359D01*
X44868334Y-129612783D01*
X44868332Y-129612783D01*
X44674026Y-129664847D01*
X44674024Y-129664848D01*
X44668716Y-129666270D01*
X44663736Y-129668592D01*
X44663734Y-129668593D01*
X44481421Y-129753607D01*
X44481416Y-129753610D01*
X44476434Y-129755933D01*
X44379383Y-129823889D01*
X44307154Y-129874464D01*
X44307151Y-129874466D01*
X44302643Y-129877623D01*
X44152623Y-130027643D01*
X44030933Y-130201434D01*
X44028610Y-130206416D01*
X44028607Y-130206421D01*
X44028490Y-130206672D01*
X43941270Y-130393716D01*
X43939848Y-130399023D01*
X43939844Y-130399034D01*
X43936706Y-130410746D01*
X43899755Y-130471368D01*
X43835894Y-130502390D01*
X43765399Y-130493961D01*
X43710653Y-130448757D01*
X43693294Y-130410746D01*
X43690156Y-130399034D01*
X43690152Y-130399023D01*
X43688730Y-130393716D01*
X43601510Y-130206672D01*
X43601393Y-130206421D01*
X43601390Y-130206416D01*
X43599067Y-130201434D01*
X43477377Y-130027643D01*
X43327357Y-129877623D01*
X43322849Y-129874466D01*
X43322846Y-129874464D01*
X43250617Y-129823889D01*
X43153566Y-129755933D01*
X43148584Y-129753610D01*
X43148579Y-129753607D01*
X42966266Y-129668593D01*
X42966264Y-129668592D01*
X42961284Y-129666270D01*
X42955976Y-129664848D01*
X42955974Y-129664847D01*
X42761668Y-129612783D01*
X42761666Y-129612783D01*
X42756353Y-129611359D01*
X42545000Y-129592868D01*
X42333647Y-129611359D01*
X42328334Y-129612783D01*
X42328332Y-129612783D01*
X42134026Y-129664847D01*
X42134024Y-129664848D01*
X42128716Y-129666270D01*
X42123736Y-129668592D01*
X42123734Y-129668593D01*
X41941421Y-129753607D01*
X41941416Y-129753610D01*
X41936434Y-129755933D01*
X41839383Y-129823889D01*
X41767154Y-129874464D01*
X41767151Y-129874466D01*
X41762643Y-129877623D01*
X41612623Y-130027643D01*
X41490933Y-130201434D01*
X41488610Y-130206416D01*
X41488607Y-130206421D01*
X41488490Y-130206672D01*
X41401270Y-130393716D01*
X41399848Y-130399023D01*
X41399844Y-130399034D01*
X41396706Y-130410746D01*
X41359755Y-130471368D01*
X41295894Y-130502390D01*
X41225399Y-130493961D01*
X41170653Y-130448757D01*
X41153294Y-130410746D01*
X41150156Y-130399034D01*
X41150152Y-130399023D01*
X41148730Y-130393716D01*
X41061510Y-130206672D01*
X41061393Y-130206421D01*
X41061390Y-130206416D01*
X41059067Y-130201434D01*
X40937377Y-130027643D01*
X40787357Y-129877623D01*
X40782849Y-129874466D01*
X40782846Y-129874464D01*
X40710617Y-129823889D01*
X40613566Y-129755933D01*
X40608584Y-129753610D01*
X40608579Y-129753607D01*
X40426266Y-129668593D01*
X40426264Y-129668592D01*
X40421284Y-129666270D01*
X40415976Y-129664848D01*
X40415974Y-129664847D01*
X40221668Y-129612783D01*
X40221666Y-129612783D01*
X40216353Y-129611359D01*
X40005000Y-129592868D01*
X39793647Y-129611359D01*
X39788334Y-129612783D01*
X39788332Y-129612783D01*
X39594026Y-129664847D01*
X39594024Y-129664848D01*
X39588716Y-129666270D01*
X39583736Y-129668592D01*
X39583734Y-129668593D01*
X39401421Y-129753607D01*
X39401416Y-129753610D01*
X39396434Y-129755933D01*
X39299383Y-129823889D01*
X39227154Y-129874464D01*
X39227151Y-129874466D01*
X39222643Y-129877623D01*
X39072623Y-130027643D01*
X38950933Y-130201434D01*
X38948610Y-130206416D01*
X38948607Y-130206421D01*
X38948490Y-130206672D01*
X38861270Y-130393716D01*
X38806359Y-130598647D01*
X38787868Y-130810000D01*
X38806359Y-131021353D01*
X38861270Y-131226284D01*
X38863592Y-131231264D01*
X38863593Y-131231266D01*
X38948607Y-131413579D01*
X38948610Y-131413584D01*
X38950933Y-131418566D01*
X39072623Y-131592357D01*
X39222643Y-131742377D01*
X39227151Y-131745534D01*
X39227154Y-131745536D01*
X39299383Y-131796111D01*
X39396434Y-131864067D01*
X39401416Y-131866390D01*
X39401421Y-131866393D01*
X39467713Y-131897305D01*
X39520998Y-131944222D01*
X39540459Y-132012500D01*
X39519917Y-132080460D01*
X39465894Y-132126525D01*
X39414463Y-132137500D01*
X37982866Y-132137500D01*
X37920684Y-132144255D01*
X37784295Y-132195385D01*
X37667739Y-132282739D01*
X37580385Y-132399295D01*
X37529255Y-132535684D01*
X37522500Y-132597866D01*
X37522500Y-134102134D01*
X37529255Y-134164316D01*
X37580385Y-134300705D01*
X37585771Y-134307891D01*
X37667739Y-134417261D01*
X37665036Y-134419287D01*
X37691208Y-134467217D01*
X37686143Y-134538032D01*
X37643596Y-134594868D01*
X37577076Y-134619679D01*
X37568087Y-134620000D01*
X29215507Y-134620000D01*
X29204526Y-134619521D01*
X29156484Y-134615318D01*
X29000445Y-134601666D01*
X28978822Y-134597854D01*
X28828375Y-134557542D01*
X28786282Y-134546263D01*
X28765643Y-134538751D01*
X28718706Y-134516864D01*
X28584985Y-134454508D01*
X28565974Y-134443532D01*
X28402686Y-134329196D01*
X28385862Y-134315078D01*
X28244922Y-134174138D01*
X28230804Y-134157314D01*
X28189774Y-134098717D01*
X28116468Y-133994026D01*
X28105492Y-133975015D01*
X28021249Y-133794357D01*
X28013737Y-133773718D01*
X27990938Y-133688632D01*
X27962146Y-133581178D01*
X27958333Y-133559552D01*
X27940479Y-133355474D01*
X27940000Y-133344493D01*
X27940000Y-126989343D01*
X34796775Y-126989343D01*
X34813381Y-127158699D01*
X34867094Y-127320167D01*
X34870741Y-127326189D01*
X34870742Y-127326191D01*
X34941667Y-127443301D01*
X34955246Y-127465723D01*
X35073455Y-127588132D01*
X35215846Y-127681310D01*
X35222450Y-127683766D01*
X35222452Y-127683767D01*
X35258844Y-127697301D01*
X35375341Y-127740626D01*
X35544015Y-127763132D01*
X35551026Y-127762494D01*
X35551030Y-127762494D01*
X35706462Y-127748348D01*
X35713483Y-127747709D01*
X35720185Y-127745531D01*
X35720187Y-127745531D01*
X35868623Y-127697301D01*
X35868626Y-127697300D01*
X35875322Y-127695124D01*
X36021490Y-127607990D01*
X36026584Y-127603139D01*
X36026588Y-127603136D01*
X36126280Y-127508200D01*
X36144721Y-127490639D01*
X36238891Y-127348902D01*
X36299319Y-127189825D01*
X36323001Y-127021313D01*
X36323299Y-127000000D01*
X36322104Y-126989343D01*
X36828775Y-126989343D01*
X36845381Y-127158699D01*
X36899094Y-127320167D01*
X36902741Y-127326189D01*
X36902742Y-127326191D01*
X36973667Y-127443301D01*
X36987246Y-127465723D01*
X37105455Y-127588132D01*
X37247846Y-127681310D01*
X37254450Y-127683766D01*
X37254452Y-127683767D01*
X37290844Y-127697301D01*
X37407341Y-127740626D01*
X37576015Y-127763132D01*
X37583026Y-127762494D01*
X37583030Y-127762494D01*
X37738462Y-127748348D01*
X37745483Y-127747709D01*
X37752185Y-127745531D01*
X37752187Y-127745531D01*
X37900623Y-127697301D01*
X37900626Y-127697300D01*
X37907322Y-127695124D01*
X38037307Y-127617637D01*
X38106062Y-127599937D01*
X38170817Y-127620434D01*
X38263846Y-127681310D01*
X38270450Y-127683766D01*
X38270452Y-127683767D01*
X38306844Y-127697301D01*
X38423341Y-127740626D01*
X38592015Y-127763132D01*
X38599026Y-127762494D01*
X38599030Y-127762494D01*
X38754462Y-127748348D01*
X38761483Y-127747709D01*
X38768185Y-127745531D01*
X38768187Y-127745531D01*
X38916623Y-127697301D01*
X38916626Y-127697300D01*
X38923322Y-127695124D01*
X39053307Y-127617637D01*
X39122062Y-127599937D01*
X39186817Y-127620434D01*
X39279846Y-127681310D01*
X39286450Y-127683766D01*
X39286452Y-127683767D01*
X39322844Y-127697301D01*
X39439341Y-127740626D01*
X39608015Y-127763132D01*
X39615026Y-127762494D01*
X39615030Y-127762494D01*
X39770462Y-127748348D01*
X39777483Y-127747709D01*
X39784185Y-127745531D01*
X39784187Y-127745531D01*
X39932623Y-127697301D01*
X39932626Y-127697300D01*
X39939322Y-127695124D01*
X40085490Y-127607990D01*
X40090584Y-127603139D01*
X40090588Y-127603136D01*
X40190280Y-127508200D01*
X40208721Y-127490639D01*
X40302891Y-127348902D01*
X40363319Y-127189825D01*
X40387001Y-127021313D01*
X40387299Y-127000000D01*
X40368331Y-126830892D01*
X40335057Y-126735343D01*
X41908775Y-126735343D01*
X41925381Y-126904699D01*
X41979094Y-127066167D01*
X41982741Y-127072189D01*
X41982742Y-127072191D01*
X42057975Y-127196414D01*
X42067246Y-127211723D01*
X42185455Y-127334132D01*
X42327846Y-127427310D01*
X42334450Y-127429766D01*
X42334452Y-127429767D01*
X42370844Y-127443301D01*
X42487341Y-127486626D01*
X42656015Y-127509132D01*
X42663026Y-127508494D01*
X42663030Y-127508494D01*
X42818462Y-127494348D01*
X42825483Y-127493709D01*
X42832185Y-127491531D01*
X42832187Y-127491531D01*
X42980623Y-127443301D01*
X42980626Y-127443300D01*
X42987322Y-127441124D01*
X43133490Y-127353990D01*
X43138584Y-127349139D01*
X43138588Y-127349136D01*
X43205833Y-127285099D01*
X43256721Y-127236639D01*
X43283447Y-127196414D01*
X43346990Y-127100773D01*
X43350891Y-127094902D01*
X43411319Y-126935825D01*
X43435001Y-126767313D01*
X43435299Y-126746000D01*
X43416331Y-126576892D01*
X43360368Y-126416189D01*
X43356582Y-126410129D01*
X43298841Y-126317727D01*
X43270192Y-126271879D01*
X43254458Y-126256034D01*
X43155248Y-126156129D01*
X43150286Y-126151132D01*
X43134039Y-126140821D01*
X43044487Y-126083990D01*
X43006608Y-126059951D01*
X42846300Y-126002868D01*
X42677329Y-125982720D01*
X42670326Y-125983456D01*
X42670325Y-125983456D01*
X42515101Y-125999770D01*
X42515097Y-125999771D01*
X42508093Y-126000507D01*
X42501422Y-126002778D01*
X42353673Y-126053075D01*
X42353670Y-126053076D01*
X42347003Y-126055346D01*
X42341005Y-126059036D01*
X42341003Y-126059037D01*
X42208065Y-126140821D01*
X42208063Y-126140823D01*
X42202066Y-126144512D01*
X42197033Y-126149441D01*
X42088185Y-126256034D01*
X42080486Y-126263573D01*
X42076675Y-126269487D01*
X42076673Y-126269489D01*
X41993523Y-126398512D01*
X41988304Y-126406610D01*
X41930103Y-126566516D01*
X41908775Y-126735343D01*
X40335057Y-126735343D01*
X40312368Y-126670189D01*
X40306383Y-126660610D01*
X40243449Y-126559897D01*
X40222192Y-126525879D01*
X40102286Y-126405132D01*
X40086039Y-126394821D01*
X40047406Y-126370304D01*
X39958608Y-126313951D01*
X39883269Y-126287124D01*
X39825805Y-126245430D01*
X39800004Y-126179288D01*
X39814059Y-126109696D01*
X39838643Y-126077180D01*
X39949614Y-125971503D01*
X39949617Y-125971500D01*
X39954721Y-125966639D01*
X40048891Y-125824902D01*
X40109319Y-125665825D01*
X40133001Y-125497313D01*
X40133299Y-125476000D01*
X40114331Y-125306892D01*
X40058368Y-125146189D01*
X40052383Y-125136610D01*
X40030420Y-125101464D01*
X39968192Y-125001879D01*
X39848286Y-124881132D01*
X39832039Y-124870821D01*
X39793406Y-124846304D01*
X39704608Y-124789951D01*
X39544300Y-124732868D01*
X39375329Y-124712720D01*
X39368326Y-124713456D01*
X39368325Y-124713456D01*
X39213101Y-124729770D01*
X39213097Y-124729771D01*
X39206093Y-124730507D01*
X39199422Y-124732778D01*
X39051673Y-124783075D01*
X39051670Y-124783076D01*
X39045003Y-124785346D01*
X39039005Y-124789036D01*
X39039003Y-124789037D01*
X38906065Y-124870821D01*
X38906063Y-124870823D01*
X38900066Y-124874512D01*
X38778486Y-124993573D01*
X38686304Y-125136610D01*
X38628103Y-125296516D01*
X38606775Y-125465343D01*
X38623381Y-125634699D01*
X38677094Y-125796167D01*
X38680741Y-125802189D01*
X38680742Y-125802191D01*
X38694497Y-125824902D01*
X38765246Y-125941723D01*
X38822013Y-126000507D01*
X38861159Y-126041044D01*
X38894091Y-126103941D01*
X38887791Y-126174657D01*
X38844259Y-126230742D01*
X38777316Y-126254388D01*
X38755607Y-126253685D01*
X38613329Y-126236720D01*
X38606326Y-126237456D01*
X38606325Y-126237456D01*
X38451101Y-126253770D01*
X38451097Y-126253771D01*
X38444093Y-126254507D01*
X38437422Y-126256778D01*
X38289673Y-126307075D01*
X38289670Y-126307076D01*
X38283003Y-126309346D01*
X38277005Y-126313036D01*
X38277003Y-126313037D01*
X38165411Y-126381689D01*
X38096910Y-126400347D01*
X38031877Y-126380757D01*
X37926608Y-126313951D01*
X37766300Y-126256868D01*
X37597329Y-126236720D01*
X37590326Y-126237456D01*
X37590325Y-126237456D01*
X37435101Y-126253770D01*
X37435097Y-126253771D01*
X37428093Y-126254507D01*
X37421422Y-126256778D01*
X37273673Y-126307075D01*
X37273670Y-126307076D01*
X37267003Y-126309346D01*
X37261005Y-126313036D01*
X37261003Y-126313037D01*
X37128065Y-126394821D01*
X37128063Y-126394823D01*
X37122066Y-126398512D01*
X37000486Y-126517573D01*
X36996675Y-126523487D01*
X36996673Y-126523489D01*
X36912121Y-126654687D01*
X36908304Y-126660610D01*
X36850103Y-126820516D01*
X36828775Y-126989343D01*
X36322104Y-126989343D01*
X36304331Y-126830892D01*
X36248368Y-126670189D01*
X36242383Y-126660610D01*
X36179449Y-126559897D01*
X36158192Y-126525879D01*
X36038286Y-126405132D01*
X36022039Y-126394821D01*
X35983406Y-126370304D01*
X35894608Y-126313951D01*
X35734300Y-126256868D01*
X35565329Y-126236720D01*
X35558326Y-126237456D01*
X35558325Y-126237456D01*
X35403101Y-126253770D01*
X35403097Y-126253771D01*
X35396093Y-126254507D01*
X35389422Y-126256778D01*
X35241673Y-126307075D01*
X35241670Y-126307076D01*
X35235003Y-126309346D01*
X35229005Y-126313036D01*
X35229003Y-126313037D01*
X35096065Y-126394821D01*
X35096063Y-126394823D01*
X35090066Y-126398512D01*
X34968486Y-126517573D01*
X34964675Y-126523487D01*
X34964673Y-126523489D01*
X34880121Y-126654687D01*
X34876304Y-126660610D01*
X34818103Y-126820516D01*
X34796775Y-126989343D01*
X27940000Y-126989343D01*
X27940000Y-121886695D01*
X29117251Y-121886695D01*
X29117548Y-121891848D01*
X29117548Y-121891851D01*
X29128322Y-122078699D01*
X29130110Y-122109715D01*
X29131247Y-122114761D01*
X29131248Y-122114767D01*
X29150282Y-122199223D01*
X29179222Y-122327639D01*
X29217461Y-122421811D01*
X29254079Y-122511990D01*
X29263266Y-122534616D01*
X29265965Y-122539020D01*
X29345922Y-122669498D01*
X29379987Y-122725088D01*
X29526250Y-122893938D01*
X29698126Y-123036632D01*
X29891000Y-123149338D01*
X30099692Y-123229030D01*
X30104760Y-123230061D01*
X30104763Y-123230062D01*
X30212017Y-123251883D01*
X30318597Y-123273567D01*
X30323772Y-123273757D01*
X30323774Y-123273757D01*
X30536673Y-123281564D01*
X30536677Y-123281564D01*
X30541837Y-123281753D01*
X30546957Y-123281097D01*
X30546959Y-123281097D01*
X30758288Y-123254025D01*
X30758289Y-123254025D01*
X30763416Y-123253368D01*
X30768366Y-123251883D01*
X30972429Y-123190661D01*
X30972434Y-123190659D01*
X30977384Y-123189174D01*
X31177994Y-123090896D01*
X31359860Y-122961173D01*
X31384626Y-122936494D01*
X31514435Y-122807137D01*
X31518096Y-122803489D01*
X31537033Y-122777136D01*
X31645435Y-122626277D01*
X31648453Y-122622077D01*
X31650814Y-122617301D01*
X31745136Y-122426453D01*
X31745137Y-122426451D01*
X31747430Y-122421811D01*
X31792104Y-122274773D01*
X31810865Y-122213023D01*
X31810865Y-122213021D01*
X31812370Y-122208069D01*
X31841529Y-121986590D01*
X31843156Y-121920000D01*
X31842280Y-121909343D01*
X39876775Y-121909343D01*
X39893381Y-122078699D01*
X39947094Y-122240167D01*
X39950741Y-122246189D01*
X39950742Y-122246191D01*
X40025975Y-122370414D01*
X40035246Y-122385723D01*
X40153455Y-122508132D01*
X40295846Y-122601310D01*
X40302450Y-122603766D01*
X40302452Y-122603767D01*
X40351686Y-122622077D01*
X40455341Y-122660626D01*
X40624015Y-122683132D01*
X40631026Y-122682494D01*
X40631030Y-122682494D01*
X40786462Y-122668348D01*
X40793483Y-122667709D01*
X40800185Y-122665531D01*
X40800187Y-122665531D01*
X40948623Y-122617301D01*
X40948626Y-122617300D01*
X40955322Y-122615124D01*
X41101490Y-122527990D01*
X41106584Y-122523139D01*
X41106588Y-122523136D01*
X41173833Y-122459099D01*
X41224721Y-122410639D01*
X41251447Y-122370414D01*
X41314990Y-122274773D01*
X41318891Y-122268902D01*
X41379319Y-122109825D01*
X41403001Y-121941313D01*
X41403299Y-121920000D01*
X41402104Y-121909343D01*
X41781775Y-121909343D01*
X41798381Y-122078699D01*
X41852094Y-122240167D01*
X41855741Y-122246189D01*
X41855742Y-122246191D01*
X41930975Y-122370414D01*
X41940246Y-122385723D01*
X42058455Y-122508132D01*
X42200846Y-122601310D01*
X42207450Y-122603766D01*
X42207452Y-122603767D01*
X42256686Y-122622077D01*
X42360341Y-122660626D01*
X42529015Y-122683132D01*
X42536026Y-122682494D01*
X42536030Y-122682494D01*
X42691462Y-122668348D01*
X42698483Y-122667709D01*
X42705185Y-122665531D01*
X42705187Y-122665531D01*
X42853623Y-122617301D01*
X42853626Y-122617300D01*
X42860322Y-122615124D01*
X43006490Y-122527990D01*
X43011584Y-122523139D01*
X43011588Y-122523136D01*
X43078833Y-122459099D01*
X43129721Y-122410639D01*
X43156447Y-122370414D01*
X43219990Y-122274773D01*
X43223891Y-122268902D01*
X43263989Y-122163343D01*
X43686775Y-122163343D01*
X43703381Y-122332699D01*
X43757094Y-122494167D01*
X43760741Y-122500189D01*
X43760742Y-122500191D01*
X43837103Y-122626277D01*
X43845246Y-122639723D01*
X43963455Y-122762132D01*
X44026655Y-122803489D01*
X44054164Y-122821490D01*
X44105846Y-122855310D01*
X44112450Y-122857766D01*
X44112452Y-122857767D01*
X44151670Y-122872352D01*
X44265341Y-122914626D01*
X44434015Y-122937132D01*
X44441026Y-122936494D01*
X44441030Y-122936494D01*
X44596462Y-122922348D01*
X44603483Y-122921709D01*
X44610185Y-122919531D01*
X44610187Y-122919531D01*
X44758623Y-122871301D01*
X44758626Y-122871300D01*
X44765322Y-122869124D01*
X44856671Y-122814669D01*
X54522001Y-122814669D01*
X54522371Y-122821490D01*
X54527895Y-122872352D01*
X54531521Y-122887604D01*
X54576676Y-123008054D01*
X54585214Y-123023649D01*
X54661715Y-123125724D01*
X54674276Y-123138285D01*
X54776351Y-123214786D01*
X54791946Y-123223324D01*
X54912394Y-123268478D01*
X54927649Y-123272105D01*
X54978514Y-123277631D01*
X54985328Y-123278000D01*
X55607885Y-123278000D01*
X55623124Y-123273525D01*
X55624329Y-123272135D01*
X55626000Y-123264452D01*
X55626000Y-123259884D01*
X56134000Y-123259884D01*
X56138475Y-123275123D01*
X56139865Y-123276328D01*
X56147548Y-123277999D01*
X56774669Y-123277999D01*
X56781490Y-123277629D01*
X56832352Y-123272105D01*
X56847604Y-123268479D01*
X56968054Y-123223324D01*
X56983649Y-123214786D01*
X57085724Y-123138285D01*
X57098285Y-123125724D01*
X57174786Y-123023649D01*
X57183324Y-123008054D01*
X57228478Y-122887606D01*
X57232105Y-122872351D01*
X57237631Y-122821486D01*
X57238000Y-122814672D01*
X57238000Y-122192115D01*
X57233525Y-122176876D01*
X57232135Y-122175671D01*
X57224452Y-122174000D01*
X56152115Y-122174000D01*
X56136876Y-122178475D01*
X56135671Y-122179865D01*
X56134000Y-122187548D01*
X56134000Y-123259884D01*
X55626000Y-123259884D01*
X55626000Y-122192115D01*
X55621525Y-122176876D01*
X55620135Y-122175671D01*
X55612452Y-122174000D01*
X54540116Y-122174000D01*
X54524877Y-122178475D01*
X54523672Y-122179865D01*
X54522001Y-122187548D01*
X54522001Y-122814669D01*
X44856671Y-122814669D01*
X44911490Y-122781990D01*
X44916584Y-122777139D01*
X44916588Y-122777136D01*
X45016280Y-122682200D01*
X45034721Y-122664639D01*
X45128891Y-122522902D01*
X45189319Y-122363825D01*
X45213001Y-122195313D01*
X45213217Y-122179865D01*
X45213244Y-122177961D01*
X45213244Y-122177955D01*
X45213299Y-122174000D01*
X45194331Y-122004892D01*
X45138368Y-121844189D01*
X45132383Y-121834610D01*
X45069449Y-121733897D01*
X45048192Y-121699879D01*
X45040708Y-121692342D01*
X44996560Y-121647885D01*
X54522000Y-121647885D01*
X54526475Y-121663124D01*
X54527865Y-121664329D01*
X54535548Y-121666000D01*
X55607885Y-121666000D01*
X55623124Y-121661525D01*
X55624329Y-121660135D01*
X55626000Y-121652452D01*
X55626000Y-121647885D01*
X56134000Y-121647885D01*
X56138475Y-121663124D01*
X56139865Y-121664329D01*
X56147548Y-121666000D01*
X57219884Y-121666000D01*
X57235123Y-121661525D01*
X57236328Y-121660135D01*
X57237999Y-121652452D01*
X57237999Y-121025331D01*
X57237629Y-121018510D01*
X57232105Y-120967648D01*
X57228479Y-120952396D01*
X57183324Y-120831946D01*
X57174786Y-120816351D01*
X57098285Y-120714276D01*
X57085724Y-120701715D01*
X56983649Y-120625214D01*
X56968054Y-120616676D01*
X56857297Y-120575155D01*
X56800533Y-120532513D01*
X56775833Y-120465952D01*
X56791040Y-120396603D01*
X56812587Y-120367922D01*
X56914057Y-120266805D01*
X56920730Y-120258965D01*
X57045003Y-120086020D01*
X57050313Y-120077183D01*
X57144670Y-119886267D01*
X57148469Y-119876672D01*
X57210377Y-119672910D01*
X57212555Y-119662837D01*
X57213986Y-119651962D01*
X57211775Y-119637778D01*
X57198617Y-119634000D01*
X56152115Y-119634000D01*
X56136876Y-119638475D01*
X56135671Y-119639865D01*
X56134000Y-119647548D01*
X56134000Y-121647885D01*
X55626000Y-121647885D01*
X55626000Y-119652115D01*
X55621525Y-119636876D01*
X55620135Y-119635671D01*
X55612452Y-119634000D01*
X54563225Y-119634000D01*
X54549694Y-119637973D01*
X54548257Y-119647966D01*
X54578565Y-119782446D01*
X54581645Y-119792275D01*
X54661770Y-119989603D01*
X54666413Y-119998794D01*
X54777694Y-120180388D01*
X54783777Y-120188699D01*
X54923213Y-120349667D01*
X54930578Y-120356881D01*
X54935966Y-120361354D01*
X54975599Y-120420258D01*
X54977095Y-120491239D01*
X54939978Y-120551761D01*
X54899707Y-120576278D01*
X54791948Y-120616675D01*
X54776351Y-120625214D01*
X54674276Y-120701715D01*
X54661715Y-120714276D01*
X54585214Y-120816351D01*
X54576676Y-120831946D01*
X54531522Y-120952394D01*
X54527895Y-120967649D01*
X54522369Y-121018514D01*
X54522000Y-121025328D01*
X54522000Y-121647885D01*
X44996560Y-121647885D01*
X44990264Y-121641545D01*
X44928286Y-121579132D01*
X44912039Y-121568821D01*
X44873406Y-121544304D01*
X44784608Y-121487951D01*
X44624300Y-121430868D01*
X44455329Y-121410720D01*
X44448326Y-121411456D01*
X44448325Y-121411456D01*
X44293101Y-121427770D01*
X44293097Y-121427771D01*
X44286093Y-121428507D01*
X44279422Y-121430778D01*
X44131673Y-121481075D01*
X44131670Y-121481076D01*
X44125003Y-121483346D01*
X44119005Y-121487036D01*
X44119003Y-121487037D01*
X43986065Y-121568821D01*
X43986063Y-121568823D01*
X43980066Y-121572512D01*
X43965035Y-121587232D01*
X43880815Y-121669707D01*
X43858486Y-121691573D01*
X43854675Y-121697487D01*
X43854673Y-121697489D01*
X43770121Y-121828687D01*
X43766304Y-121834610D01*
X43708103Y-121994516D01*
X43686775Y-122163343D01*
X43263989Y-122163343D01*
X43284319Y-122109825D01*
X43308001Y-121941313D01*
X43308299Y-121920000D01*
X43289331Y-121750892D01*
X43233368Y-121590189D01*
X43229582Y-121584129D01*
X43171843Y-121491730D01*
X43143192Y-121445879D01*
X43127458Y-121430034D01*
X43028248Y-121330129D01*
X43023286Y-121325132D01*
X43007039Y-121314821D01*
X42938763Y-121271492D01*
X42879608Y-121233951D01*
X42719300Y-121176868D01*
X42550329Y-121156720D01*
X42543326Y-121157456D01*
X42543325Y-121157456D01*
X42388101Y-121173770D01*
X42388097Y-121173771D01*
X42381093Y-121174507D01*
X42374422Y-121176778D01*
X42226673Y-121227075D01*
X42226670Y-121227076D01*
X42220003Y-121229346D01*
X42214005Y-121233036D01*
X42214003Y-121233037D01*
X42081065Y-121314821D01*
X42081063Y-121314823D01*
X42075066Y-121318512D01*
X42070033Y-121323441D01*
X41961185Y-121430034D01*
X41953486Y-121437573D01*
X41949675Y-121443487D01*
X41949673Y-121443489D01*
X41866523Y-121572512D01*
X41861304Y-121580610D01*
X41803103Y-121740516D01*
X41781775Y-121909343D01*
X41402104Y-121909343D01*
X41384331Y-121750892D01*
X41328368Y-121590189D01*
X41324582Y-121584129D01*
X41266843Y-121491730D01*
X41238192Y-121445879D01*
X41222458Y-121430034D01*
X41123248Y-121330129D01*
X41118286Y-121325132D01*
X41102039Y-121314821D01*
X41033763Y-121271492D01*
X40974608Y-121233951D01*
X40814300Y-121176868D01*
X40645329Y-121156720D01*
X40638326Y-121157456D01*
X40638325Y-121157456D01*
X40483101Y-121173770D01*
X40483097Y-121173771D01*
X40476093Y-121174507D01*
X40469422Y-121176778D01*
X40321673Y-121227075D01*
X40321670Y-121227076D01*
X40315003Y-121229346D01*
X40309005Y-121233036D01*
X40309003Y-121233037D01*
X40176065Y-121314821D01*
X40176063Y-121314823D01*
X40170066Y-121318512D01*
X40165033Y-121323441D01*
X40056185Y-121430034D01*
X40048486Y-121437573D01*
X40044675Y-121443487D01*
X40044673Y-121443489D01*
X39961523Y-121572512D01*
X39956304Y-121580610D01*
X39898103Y-121740516D01*
X39876775Y-121909343D01*
X31842280Y-121909343D01*
X31824852Y-121697361D01*
X31770431Y-121480702D01*
X31681354Y-121275840D01*
X31560014Y-121088277D01*
X31409670Y-120923051D01*
X31405619Y-120919852D01*
X31405615Y-120919848D01*
X31238414Y-120787800D01*
X31238410Y-120787798D01*
X31234359Y-120784598D01*
X31193053Y-120761796D01*
X31143084Y-120711364D01*
X31128312Y-120641921D01*
X31153428Y-120575516D01*
X31180780Y-120548909D01*
X31224603Y-120517650D01*
X31359860Y-120421173D01*
X31413298Y-120367922D01*
X31514435Y-120267137D01*
X31518096Y-120263489D01*
X31577594Y-120180689D01*
X31645435Y-120086277D01*
X31648453Y-120082077D01*
X31747430Y-119881811D01*
X31812370Y-119668069D01*
X31841529Y-119446590D01*
X31843156Y-119380000D01*
X31824852Y-119157361D01*
X31770431Y-118940702D01*
X31735925Y-118861343D01*
X39622775Y-118861343D01*
X39639381Y-119030699D01*
X39693094Y-119192167D01*
X39696741Y-119198189D01*
X39696742Y-119198191D01*
X39710497Y-119220902D01*
X39781246Y-119337723D01*
X39899455Y-119460132D01*
X40041846Y-119553310D01*
X40048450Y-119555766D01*
X40048452Y-119555767D01*
X40084844Y-119569301D01*
X40201341Y-119612626D01*
X40370015Y-119635132D01*
X40377026Y-119634494D01*
X40377030Y-119634494D01*
X40532462Y-119620348D01*
X40539483Y-119619709D01*
X40546185Y-119617531D01*
X40546187Y-119617531D01*
X40694623Y-119569301D01*
X40694626Y-119569300D01*
X40701322Y-119567124D01*
X40847490Y-119479990D01*
X40852584Y-119475139D01*
X40852588Y-119475136D01*
X40919833Y-119411099D01*
X40970721Y-119362639D01*
X41064891Y-119220902D01*
X41105430Y-119114183D01*
X54544389Y-119114183D01*
X54545912Y-119122607D01*
X54558292Y-119126000D01*
X55607885Y-119126000D01*
X55623124Y-119121525D01*
X55624329Y-119120135D01*
X55626000Y-119112452D01*
X55626000Y-119107885D01*
X56134000Y-119107885D01*
X56138475Y-119123124D01*
X56139865Y-119124329D01*
X56147548Y-119126000D01*
X57198344Y-119126000D01*
X57211875Y-119122027D01*
X57213180Y-119112947D01*
X57171214Y-118945875D01*
X57167894Y-118936124D01*
X57082972Y-118740814D01*
X57078105Y-118731739D01*
X56962426Y-118552926D01*
X56956136Y-118544757D01*
X56812806Y-118387240D01*
X56805273Y-118380215D01*
X56638139Y-118248222D01*
X56629552Y-118242517D01*
X56592116Y-118221851D01*
X56542146Y-118171419D01*
X56527374Y-118101976D01*
X56552490Y-118035571D01*
X56579842Y-118008964D01*
X56755327Y-117883792D01*
X56763200Y-117877139D01*
X56914052Y-117726812D01*
X56920730Y-117718965D01*
X57045003Y-117546020D01*
X57050313Y-117537183D01*
X57144670Y-117346267D01*
X57148469Y-117336672D01*
X57210377Y-117132910D01*
X57212555Y-117122837D01*
X57213986Y-117111962D01*
X57211775Y-117097778D01*
X57198617Y-117094000D01*
X56152115Y-117094000D01*
X56136876Y-117098475D01*
X56135671Y-117099865D01*
X56134000Y-117107548D01*
X56134000Y-119107885D01*
X55626000Y-119107885D01*
X55626000Y-117112115D01*
X55621525Y-117096876D01*
X55620135Y-117095671D01*
X55612452Y-117094000D01*
X54563225Y-117094000D01*
X54549694Y-117097973D01*
X54548257Y-117107966D01*
X54578565Y-117242446D01*
X54581645Y-117252275D01*
X54661770Y-117449603D01*
X54666413Y-117458794D01*
X54777694Y-117640388D01*
X54783777Y-117648699D01*
X54923213Y-117809667D01*
X54930580Y-117816883D01*
X55094434Y-117952916D01*
X55102881Y-117958831D01*
X55172479Y-117999501D01*
X55221203Y-118051140D01*
X55234274Y-118120923D01*
X55207543Y-118186694D01*
X55167087Y-118220053D01*
X55158462Y-118224542D01*
X55149738Y-118230036D01*
X54979433Y-118357905D01*
X54971726Y-118364748D01*
X54824590Y-118518717D01*
X54818104Y-118526727D01*
X54698098Y-118702649D01*
X54693000Y-118711623D01*
X54603338Y-118904783D01*
X54599775Y-118914470D01*
X54544389Y-119114183D01*
X41105430Y-119114183D01*
X41125319Y-119061825D01*
X41149001Y-118893313D01*
X41149299Y-118872000D01*
X41130331Y-118702892D01*
X41074368Y-118542189D01*
X41068383Y-118532610D01*
X41046420Y-118497464D01*
X40984192Y-118397879D01*
X40864286Y-118277132D01*
X40848039Y-118266821D01*
X40790075Y-118230036D01*
X40720608Y-118185951D01*
X40560300Y-118128868D01*
X40391329Y-118108720D01*
X40384326Y-118109456D01*
X40384325Y-118109456D01*
X40229101Y-118125770D01*
X40229097Y-118125771D01*
X40222093Y-118126507D01*
X40215422Y-118128778D01*
X40067673Y-118179075D01*
X40067670Y-118179076D01*
X40061003Y-118181346D01*
X40055005Y-118185036D01*
X40055003Y-118185037D01*
X39922065Y-118266821D01*
X39922063Y-118266823D01*
X39916066Y-118270512D01*
X39794486Y-118389573D01*
X39790675Y-118395487D01*
X39790673Y-118395489D01*
X39709053Y-118522138D01*
X39702304Y-118532610D01*
X39644103Y-118692516D01*
X39622775Y-118861343D01*
X31735925Y-118861343D01*
X31681354Y-118735840D01*
X31593889Y-118600639D01*
X31562822Y-118552617D01*
X31562820Y-118552614D01*
X31560014Y-118548277D01*
X31409670Y-118383051D01*
X31405619Y-118379852D01*
X31405615Y-118379848D01*
X31238414Y-118247800D01*
X31238410Y-118247798D01*
X31234359Y-118244598D01*
X31192569Y-118221529D01*
X31142598Y-118171097D01*
X31127826Y-118101654D01*
X31128700Y-118099343D01*
X45210775Y-118099343D01*
X45227381Y-118268699D01*
X45229605Y-118275384D01*
X45229605Y-118275385D01*
X45235413Y-118292845D01*
X45281094Y-118430167D01*
X45284741Y-118436189D01*
X45284742Y-118436191D01*
X45355440Y-118552926D01*
X45369246Y-118575723D01*
X45487455Y-118698132D01*
X45629846Y-118791310D01*
X45636450Y-118793766D01*
X45636452Y-118793767D01*
X45672844Y-118807301D01*
X45789341Y-118850626D01*
X45958015Y-118873132D01*
X45965026Y-118872494D01*
X45965030Y-118872494D01*
X46120462Y-118858348D01*
X46127483Y-118857709D01*
X46134185Y-118855531D01*
X46134187Y-118855531D01*
X46282623Y-118807301D01*
X46282626Y-118807300D01*
X46289322Y-118805124D01*
X46435490Y-118717990D01*
X46440584Y-118713139D01*
X46440588Y-118713136D01*
X46507833Y-118649099D01*
X46558721Y-118600639D01*
X46590422Y-118552926D01*
X46648990Y-118464773D01*
X46652891Y-118458902D01*
X46713319Y-118299825D01*
X46737001Y-118131313D01*
X46737146Y-118120923D01*
X46737244Y-118113961D01*
X46737244Y-118113955D01*
X46737299Y-118110000D01*
X46718331Y-117940892D01*
X46672634Y-117809667D01*
X46664686Y-117786845D01*
X46664686Y-117786844D01*
X46662368Y-117780189D01*
X46661084Y-117778134D01*
X46649985Y-117709861D01*
X46678288Y-117644750D01*
X46688119Y-117634255D01*
X46695136Y-117627573D01*
X46740221Y-117584639D01*
X46748124Y-117572745D01*
X46799083Y-117496044D01*
X46834391Y-117442902D01*
X46894819Y-117283825D01*
X46918501Y-117115313D01*
X46918717Y-117099865D01*
X46918744Y-117097961D01*
X46918744Y-117097955D01*
X46918799Y-117094000D01*
X46899831Y-116924892D01*
X46843868Y-116764189D01*
X46837883Y-116754610D01*
X46815920Y-116719464D01*
X46753692Y-116619879D01*
X46633786Y-116499132D01*
X46617539Y-116488821D01*
X46528285Y-116432179D01*
X46490108Y-116407951D01*
X46329800Y-116350868D01*
X46160829Y-116330720D01*
X46153826Y-116331456D01*
X46153825Y-116331456D01*
X45998601Y-116347770D01*
X45998597Y-116347771D01*
X45991593Y-116348507D01*
X45984922Y-116350778D01*
X45837173Y-116401075D01*
X45837170Y-116401076D01*
X45830503Y-116403346D01*
X45824505Y-116407036D01*
X45824503Y-116407037D01*
X45691565Y-116488821D01*
X45691563Y-116488823D01*
X45685566Y-116492512D01*
X45680533Y-116497441D01*
X45600983Y-116575343D01*
X45563986Y-116611573D01*
X45471804Y-116754610D01*
X45413603Y-116914516D01*
X45392275Y-117083343D01*
X45408881Y-117252699D01*
X45411105Y-117259384D01*
X45411105Y-117259385D01*
X45416507Y-117275624D01*
X45462594Y-117414167D01*
X45466243Y-117420193D01*
X45468841Y-117425815D01*
X45479256Y-117496044D01*
X45450049Y-117560754D01*
X45442620Y-117568685D01*
X45382486Y-117627573D01*
X45378675Y-117633487D01*
X45378673Y-117633489D01*
X45307937Y-117743249D01*
X45290304Y-117770610D01*
X45232103Y-117930516D01*
X45210775Y-118099343D01*
X31128700Y-118099343D01*
X31152942Y-118035248D01*
X31180294Y-118008641D01*
X31355328Y-117883792D01*
X31363200Y-117877139D01*
X31514052Y-117726812D01*
X31520730Y-117718965D01*
X31645003Y-117546020D01*
X31650313Y-117537183D01*
X31744670Y-117346267D01*
X31748469Y-117336672D01*
X31810377Y-117132910D01*
X31812555Y-117122837D01*
X31813986Y-117111962D01*
X31811775Y-117097778D01*
X31798617Y-117094000D01*
X29163225Y-117094000D01*
X29149694Y-117097973D01*
X29148257Y-117107966D01*
X29178565Y-117242446D01*
X29181645Y-117252275D01*
X29261770Y-117449603D01*
X29266413Y-117458794D01*
X29377694Y-117640388D01*
X29383777Y-117648699D01*
X29523213Y-117809667D01*
X29530580Y-117816883D01*
X29694434Y-117952916D01*
X29702881Y-117958831D01*
X29771969Y-117999203D01*
X29820693Y-118050842D01*
X29833764Y-118120625D01*
X29807033Y-118186396D01*
X29766584Y-118219752D01*
X29753607Y-118226507D01*
X29749474Y-118229610D01*
X29749471Y-118229612D01*
X29579100Y-118357530D01*
X29574965Y-118360635D01*
X29420629Y-118522138D01*
X29417715Y-118526410D01*
X29417714Y-118526411D01*
X29413485Y-118532610D01*
X29294743Y-118706680D01*
X29279003Y-118740590D01*
X29216166Y-118875961D01*
X29200688Y-118909305D01*
X29140989Y-119124570D01*
X29117251Y-119346695D01*
X29117548Y-119351848D01*
X29117548Y-119351851D01*
X29125144Y-119483594D01*
X29130110Y-119569715D01*
X29131247Y-119574761D01*
X29131248Y-119574767D01*
X29145449Y-119637778D01*
X29179222Y-119787639D01*
X29263266Y-119994616D01*
X29379987Y-120185088D01*
X29526250Y-120353938D01*
X29698126Y-120496632D01*
X29759529Y-120532513D01*
X29771445Y-120539476D01*
X29820169Y-120591114D01*
X29833240Y-120660897D01*
X29806509Y-120726669D01*
X29766055Y-120760027D01*
X29753607Y-120766507D01*
X29749474Y-120769610D01*
X29749471Y-120769612D01*
X29666450Y-120831946D01*
X29574965Y-120900635D01*
X29420629Y-121062138D01*
X29417715Y-121066410D01*
X29417714Y-121066411D01*
X29340752Y-121179233D01*
X29294743Y-121246680D01*
X29279003Y-121280590D01*
X29203388Y-121443489D01*
X29200688Y-121449305D01*
X29140989Y-121664570D01*
X29117251Y-121886695D01*
X27940000Y-121886695D01*
X27940000Y-114266695D01*
X29117251Y-114266695D01*
X29117548Y-114271848D01*
X29117548Y-114271851D01*
X29123768Y-114379730D01*
X29130110Y-114489715D01*
X29131247Y-114494761D01*
X29131248Y-114494767D01*
X29152275Y-114588069D01*
X29179222Y-114707639D01*
X29263266Y-114914616D01*
X29265965Y-114919020D01*
X29364225Y-115079366D01*
X29379987Y-115105088D01*
X29526250Y-115273938D01*
X29698126Y-115416632D01*
X29750410Y-115447184D01*
X29771955Y-115459774D01*
X29820679Y-115511412D01*
X29833750Y-115581195D01*
X29807019Y-115646967D01*
X29766562Y-115680327D01*
X29758457Y-115684546D01*
X29749738Y-115690036D01*
X29579433Y-115817905D01*
X29571726Y-115824748D01*
X29424590Y-115978717D01*
X29418104Y-115986727D01*
X29298098Y-116162649D01*
X29293000Y-116171623D01*
X29203338Y-116364783D01*
X29199775Y-116374470D01*
X29144389Y-116574183D01*
X29145912Y-116582607D01*
X29158292Y-116586000D01*
X31798344Y-116586000D01*
X31811875Y-116582027D01*
X31812836Y-116575343D01*
X34796775Y-116575343D01*
X34813381Y-116744699D01*
X34867094Y-116906167D01*
X34870741Y-116912189D01*
X34870742Y-116912191D01*
X34881166Y-116929402D01*
X34955246Y-117051723D01*
X35073455Y-117174132D01*
X35215846Y-117267310D01*
X35222450Y-117269766D01*
X35222452Y-117269767D01*
X35277970Y-117290414D01*
X35375341Y-117326626D01*
X35544015Y-117349132D01*
X35551026Y-117348494D01*
X35551030Y-117348494D01*
X35706462Y-117334348D01*
X35713483Y-117333709D01*
X35720185Y-117331531D01*
X35720187Y-117331531D01*
X35868623Y-117283301D01*
X35868626Y-117283300D01*
X35875322Y-117281124D01*
X35881373Y-117277517D01*
X35881375Y-117277516D01*
X35953876Y-117234297D01*
X36022630Y-117216597D01*
X36090040Y-117238879D01*
X36132772Y-117289674D01*
X36134883Y-117294243D01*
X36137105Y-117300922D01*
X36140752Y-117306944D01*
X36205689Y-117414167D01*
X36225257Y-117446478D01*
X36343466Y-117568887D01*
X36349362Y-117572745D01*
X36465432Y-117648699D01*
X36485857Y-117662065D01*
X36492461Y-117664521D01*
X36492463Y-117664522D01*
X36528855Y-117678056D01*
X36645352Y-117721381D01*
X36814026Y-117743887D01*
X36821037Y-117743249D01*
X36821041Y-117743249D01*
X36976473Y-117729103D01*
X36983494Y-117728464D01*
X36990196Y-117726286D01*
X36990198Y-117726286D01*
X37138634Y-117678056D01*
X37138637Y-117678055D01*
X37145333Y-117675879D01*
X37291501Y-117588745D01*
X37296595Y-117583894D01*
X37296599Y-117583891D01*
X37388847Y-117496044D01*
X37414732Y-117471394D01*
X37423104Y-117458794D01*
X37472609Y-117384282D01*
X37526966Y-117338611D01*
X37594221Y-117329116D01*
X37628646Y-117333709D01*
X37703015Y-117343632D01*
X37710026Y-117342994D01*
X37710030Y-117342994D01*
X37865462Y-117328848D01*
X37872483Y-117328209D01*
X37879185Y-117326031D01*
X37879187Y-117326031D01*
X38027623Y-117277801D01*
X38027626Y-117277800D01*
X38034322Y-117275624D01*
X38180490Y-117188490D01*
X38185584Y-117183639D01*
X38185588Y-117183636D01*
X38260692Y-117112115D01*
X38303721Y-117071139D01*
X38313257Y-117056787D01*
X38393990Y-116935273D01*
X38397891Y-116929402D01*
X38458319Y-116770325D01*
X38482001Y-116601813D01*
X38482299Y-116580500D01*
X38463331Y-116411392D01*
X38407368Y-116250689D01*
X38401383Y-116241110D01*
X38376202Y-116200814D01*
X38317192Y-116106379D01*
X38197286Y-115985632D01*
X38189706Y-115980821D01*
X38142406Y-115950804D01*
X38053608Y-115894451D01*
X37893300Y-115837368D01*
X37724329Y-115817220D01*
X37717324Y-115817956D01*
X37710280Y-115817907D01*
X37710289Y-115816588D01*
X37647769Y-115805152D01*
X37595924Y-115756649D01*
X37578531Y-115687815D01*
X37601114Y-115620506D01*
X37617548Y-115601370D01*
X37651357Y-115569174D01*
X37668721Y-115552639D01*
X37762891Y-115410902D01*
X37823319Y-115251825D01*
X37847001Y-115083313D01*
X37847299Y-115062000D01*
X37828331Y-114892892D01*
X37795057Y-114797343D01*
X47242775Y-114797343D01*
X47259381Y-114966699D01*
X47313094Y-115128167D01*
X47316741Y-115134189D01*
X47316742Y-115134191D01*
X47391975Y-115258414D01*
X47401246Y-115273723D01*
X47519455Y-115396132D01*
X47554771Y-115419242D01*
X47631164Y-115469232D01*
X47661846Y-115489310D01*
X47668450Y-115491766D01*
X47668452Y-115491767D01*
X47704844Y-115505301D01*
X47821341Y-115548626D01*
X47990015Y-115571132D01*
X47997026Y-115570494D01*
X47997030Y-115570494D01*
X48152462Y-115556348D01*
X48159483Y-115555709D01*
X48166185Y-115553531D01*
X48166187Y-115553531D01*
X48314623Y-115505301D01*
X48314626Y-115505300D01*
X48321322Y-115503124D01*
X48467490Y-115415990D01*
X48472584Y-115411139D01*
X48472588Y-115411136D01*
X48549882Y-115337529D01*
X48590721Y-115298639D01*
X48604939Y-115277240D01*
X48664803Y-115187137D01*
X48684891Y-115156902D01*
X48745319Y-114997825D01*
X48769001Y-114829313D01*
X48769299Y-114808000D01*
X48750331Y-114638892D01*
X48732696Y-114588250D01*
X48708869Y-114519830D01*
X48694368Y-114478189D01*
X48690582Y-114472129D01*
X48632843Y-114379730D01*
X48604192Y-114333879D01*
X48588458Y-114318034D01*
X48537476Y-114266695D01*
X54517251Y-114266695D01*
X54517548Y-114271848D01*
X54517548Y-114271851D01*
X54523768Y-114379730D01*
X54530110Y-114489715D01*
X54531247Y-114494761D01*
X54531248Y-114494767D01*
X54552275Y-114588069D01*
X54579222Y-114707639D01*
X54663266Y-114914616D01*
X54665965Y-114919020D01*
X54764225Y-115079366D01*
X54779987Y-115105088D01*
X54926250Y-115273938D01*
X55098126Y-115416632D01*
X55150410Y-115447184D01*
X55171955Y-115459774D01*
X55220679Y-115511412D01*
X55233750Y-115581195D01*
X55207019Y-115646967D01*
X55166562Y-115680327D01*
X55158457Y-115684546D01*
X55149738Y-115690036D01*
X54979433Y-115817905D01*
X54971726Y-115824748D01*
X54824590Y-115978717D01*
X54818104Y-115986727D01*
X54698098Y-116162649D01*
X54693000Y-116171623D01*
X54603338Y-116364783D01*
X54599775Y-116374470D01*
X54544389Y-116574183D01*
X54545912Y-116582607D01*
X54558292Y-116586000D01*
X57198344Y-116586000D01*
X57211875Y-116582027D01*
X57213180Y-116572947D01*
X57171214Y-116405875D01*
X57167894Y-116396124D01*
X57082972Y-116200814D01*
X57078105Y-116191739D01*
X56962426Y-116012926D01*
X56956136Y-116004757D01*
X56812806Y-115847240D01*
X56805273Y-115840215D01*
X56638139Y-115708222D01*
X56629556Y-115702520D01*
X56592602Y-115682120D01*
X56542631Y-115631687D01*
X56527859Y-115562245D01*
X56552975Y-115495839D01*
X56580327Y-115469232D01*
X56649917Y-115419594D01*
X56759860Y-115341173D01*
X56808435Y-115292768D01*
X56914435Y-115187137D01*
X56918096Y-115183489D01*
X56977594Y-115100689D01*
X57045435Y-115006277D01*
X57048453Y-115002077D01*
X57062634Y-114973385D01*
X57145136Y-114806453D01*
X57145137Y-114806451D01*
X57147430Y-114801811D01*
X57189311Y-114663964D01*
X57210865Y-114593023D01*
X57210865Y-114593021D01*
X57212370Y-114588069D01*
X57241529Y-114366590D01*
X57242387Y-114331489D01*
X57243074Y-114303365D01*
X57243074Y-114303361D01*
X57243156Y-114300000D01*
X57224852Y-114077361D01*
X57170431Y-113860702D01*
X57081354Y-113655840D01*
X57016787Y-113556034D01*
X56962822Y-113472617D01*
X56962820Y-113472614D01*
X56960014Y-113468277D01*
X56809670Y-113303051D01*
X56805619Y-113299852D01*
X56805615Y-113299848D01*
X56638414Y-113167800D01*
X56638410Y-113167798D01*
X56634359Y-113164598D01*
X56593053Y-113141796D01*
X56543084Y-113091364D01*
X56528312Y-113021921D01*
X56553428Y-112955516D01*
X56580780Y-112928909D01*
X56624603Y-112897650D01*
X56759860Y-112801173D01*
X56766278Y-112794778D01*
X56891258Y-112670233D01*
X56918096Y-112643489D01*
X56977594Y-112560689D01*
X57045435Y-112466277D01*
X57048453Y-112462077D01*
X57147430Y-112261811D01*
X57191376Y-112117169D01*
X57210865Y-112053023D01*
X57210865Y-112053021D01*
X57212370Y-112048069D01*
X57241529Y-111826590D01*
X57243156Y-111760000D01*
X57224852Y-111537361D01*
X57170431Y-111320702D01*
X57081354Y-111115840D01*
X56960014Y-110928277D01*
X56809670Y-110763051D01*
X56805619Y-110759852D01*
X56805615Y-110759848D01*
X56638414Y-110627800D01*
X56638410Y-110627798D01*
X56634359Y-110624598D01*
X56593053Y-110601796D01*
X56543084Y-110551364D01*
X56528312Y-110481921D01*
X56553428Y-110415516D01*
X56580780Y-110388909D01*
X56624603Y-110357650D01*
X56759860Y-110261173D01*
X56918096Y-110103489D01*
X56977594Y-110020689D01*
X57045435Y-109926277D01*
X57048453Y-109922077D01*
X57147430Y-109721811D01*
X57191376Y-109577169D01*
X57210865Y-109513023D01*
X57210865Y-109513021D01*
X57212370Y-109508069D01*
X57241529Y-109286590D01*
X57243156Y-109220000D01*
X57224852Y-108997361D01*
X57170431Y-108780702D01*
X57081354Y-108575840D01*
X56960014Y-108388277D01*
X56809670Y-108223051D01*
X56805619Y-108219852D01*
X56805615Y-108219848D01*
X56638414Y-108087800D01*
X56638410Y-108087798D01*
X56634359Y-108084598D01*
X56593053Y-108061796D01*
X56543084Y-108011364D01*
X56528312Y-107941921D01*
X56553428Y-107875516D01*
X56580780Y-107848909D01*
X56624603Y-107817650D01*
X56759860Y-107721173D01*
X56918096Y-107563489D01*
X56977594Y-107480689D01*
X57045435Y-107386277D01*
X57048453Y-107382077D01*
X57147430Y-107181811D01*
X57212370Y-106968069D01*
X57241529Y-106746590D01*
X57243156Y-106680000D01*
X57224852Y-106457361D01*
X57170431Y-106240702D01*
X57081354Y-106035840D01*
X56960014Y-105848277D01*
X56809670Y-105683051D01*
X56805619Y-105679852D01*
X56805615Y-105679848D01*
X56638414Y-105547800D01*
X56638410Y-105547798D01*
X56634359Y-105544598D01*
X56592569Y-105521529D01*
X56542598Y-105471097D01*
X56527826Y-105401654D01*
X56552942Y-105335248D01*
X56580294Y-105308641D01*
X56755328Y-105183792D01*
X56763200Y-105177139D01*
X56914052Y-105026812D01*
X56920730Y-105018965D01*
X57045003Y-104846020D01*
X57050313Y-104837183D01*
X57144670Y-104646267D01*
X57148469Y-104636672D01*
X57210377Y-104432910D01*
X57212555Y-104422837D01*
X57213986Y-104411962D01*
X57211775Y-104397778D01*
X57198617Y-104394000D01*
X54563225Y-104394000D01*
X54549694Y-104397973D01*
X54548257Y-104407966D01*
X54578565Y-104542446D01*
X54581645Y-104552275D01*
X54661770Y-104749603D01*
X54666413Y-104758794D01*
X54777694Y-104940388D01*
X54783777Y-104948699D01*
X54923213Y-105109667D01*
X54930580Y-105116883D01*
X55094434Y-105252916D01*
X55102881Y-105258831D01*
X55171969Y-105299203D01*
X55220693Y-105350842D01*
X55233764Y-105420625D01*
X55207033Y-105486396D01*
X55166584Y-105519752D01*
X55153607Y-105526507D01*
X55149474Y-105529610D01*
X55149471Y-105529612D01*
X55125247Y-105547800D01*
X54974965Y-105660635D01*
X54820629Y-105822138D01*
X54694743Y-106006680D01*
X54600688Y-106209305D01*
X54540989Y-106424570D01*
X54517251Y-106646695D01*
X54517548Y-106651848D01*
X54517548Y-106651851D01*
X54523011Y-106746590D01*
X54530110Y-106869715D01*
X54531247Y-106874761D01*
X54531248Y-106874767D01*
X54551119Y-106962939D01*
X54579222Y-107087639D01*
X54663266Y-107294616D01*
X54779987Y-107485088D01*
X54926250Y-107653938D01*
X55098126Y-107796632D01*
X55168595Y-107837811D01*
X55171445Y-107839476D01*
X55220169Y-107891114D01*
X55233240Y-107960897D01*
X55206509Y-108026669D01*
X55166055Y-108060027D01*
X55153607Y-108066507D01*
X55149474Y-108069610D01*
X55149471Y-108069612D01*
X55038474Y-108152951D01*
X54974965Y-108200635D01*
X54820629Y-108362138D01*
X54694743Y-108546680D01*
X54600688Y-108749305D01*
X54540989Y-108964570D01*
X54517251Y-109186695D01*
X54517548Y-109191848D01*
X54517548Y-109191851D01*
X54523011Y-109286590D01*
X54530110Y-109409715D01*
X54531247Y-109414761D01*
X54531248Y-109414767D01*
X54551119Y-109502939D01*
X54579222Y-109627639D01*
X54663266Y-109834616D01*
X54779987Y-110025088D01*
X54926250Y-110193938D01*
X55098126Y-110336632D01*
X55168595Y-110377811D01*
X55171445Y-110379476D01*
X55220169Y-110431114D01*
X55233240Y-110500897D01*
X55206509Y-110566669D01*
X55166055Y-110600027D01*
X55153607Y-110606507D01*
X55149474Y-110609610D01*
X55149471Y-110609612D01*
X55038474Y-110692951D01*
X54974965Y-110740635D01*
X54820629Y-110902138D01*
X54694743Y-111086680D01*
X54600688Y-111289305D01*
X54540989Y-111504570D01*
X54517251Y-111726695D01*
X54517548Y-111731848D01*
X54517548Y-111731851D01*
X54523011Y-111826590D01*
X54530110Y-111949715D01*
X54531247Y-111954761D01*
X54531248Y-111954767D01*
X54551119Y-112042939D01*
X54579222Y-112167639D01*
X54663266Y-112374616D01*
X54779987Y-112565088D01*
X54926250Y-112733938D01*
X55098126Y-112876632D01*
X55168595Y-112917811D01*
X55171445Y-112919476D01*
X55220169Y-112971114D01*
X55233240Y-113040897D01*
X55206509Y-113106669D01*
X55166055Y-113140027D01*
X55153607Y-113146507D01*
X55149474Y-113149610D01*
X55149471Y-113149612D01*
X55017244Y-113248891D01*
X54974965Y-113280635D01*
X54971393Y-113284373D01*
X54826282Y-113436223D01*
X54820629Y-113442138D01*
X54817715Y-113446410D01*
X54817714Y-113446411D01*
X54740752Y-113559233D01*
X54694743Y-113626680D01*
X54661400Y-113698512D01*
X54603388Y-113823489D01*
X54600688Y-113829305D01*
X54540989Y-114044570D01*
X54517251Y-114266695D01*
X48537476Y-114266695D01*
X48532379Y-114261562D01*
X48484286Y-114213132D01*
X48468039Y-114202821D01*
X48395097Y-114156531D01*
X48340608Y-114121951D01*
X48180300Y-114064868D01*
X48011329Y-114044720D01*
X48004326Y-114045456D01*
X48004325Y-114045456D01*
X47849101Y-114061770D01*
X47849097Y-114061771D01*
X47842093Y-114062507D01*
X47835422Y-114064778D01*
X47687673Y-114115075D01*
X47687670Y-114115076D01*
X47681003Y-114117346D01*
X47675005Y-114121036D01*
X47675003Y-114121037D01*
X47542065Y-114202821D01*
X47542063Y-114202823D01*
X47536066Y-114206512D01*
X47531033Y-114211441D01*
X47422185Y-114318034D01*
X47414486Y-114325573D01*
X47410675Y-114331487D01*
X47410673Y-114331489D01*
X47328691Y-114458699D01*
X47322304Y-114468610D01*
X47264103Y-114628516D01*
X47242775Y-114797343D01*
X37795057Y-114797343D01*
X37772368Y-114732189D01*
X37771983Y-114731572D01*
X37760989Y-114663964D01*
X37768227Y-114634854D01*
X37784118Y-114593023D01*
X37823319Y-114489825D01*
X37847001Y-114321313D01*
X37847299Y-114300000D01*
X37828331Y-114130892D01*
X37825218Y-114121951D01*
X37794415Y-114033498D01*
X37772368Y-113970189D01*
X37766383Y-113960610D01*
X37725864Y-113895768D01*
X37682192Y-113825879D01*
X37562286Y-113705132D01*
X37546039Y-113694821D01*
X37477763Y-113651492D01*
X37418608Y-113613951D01*
X37258300Y-113556868D01*
X37089329Y-113536720D01*
X37082326Y-113537456D01*
X37082325Y-113537456D01*
X36927101Y-113553770D01*
X36927097Y-113553771D01*
X36920093Y-113554507D01*
X36913422Y-113556778D01*
X36765673Y-113607075D01*
X36765670Y-113607076D01*
X36759003Y-113609346D01*
X36753005Y-113613036D01*
X36753003Y-113613037D01*
X36620065Y-113694821D01*
X36620063Y-113694823D01*
X36614066Y-113698512D01*
X36492486Y-113817573D01*
X36488675Y-113823487D01*
X36488673Y-113823489D01*
X36435177Y-113906498D01*
X36400304Y-113960610D01*
X36342103Y-114120516D01*
X36320775Y-114289343D01*
X36329178Y-114375037D01*
X36336536Y-114450082D01*
X36323277Y-114519830D01*
X36274414Y-114571337D01*
X36205462Y-114588250D01*
X36138311Y-114565200D01*
X36121731Y-114551162D01*
X36067364Y-114496414D01*
X36038286Y-114467132D01*
X36022039Y-114456821D01*
X35983406Y-114432304D01*
X35894608Y-114375951D01*
X35734300Y-114318868D01*
X35565329Y-114298720D01*
X35558326Y-114299456D01*
X35558325Y-114299456D01*
X35403101Y-114315770D01*
X35403097Y-114315771D01*
X35396093Y-114316507D01*
X35389422Y-114318778D01*
X35241673Y-114369075D01*
X35241670Y-114369076D01*
X35235003Y-114371346D01*
X35229005Y-114375036D01*
X35229003Y-114375037D01*
X35096065Y-114456821D01*
X35096063Y-114456823D01*
X35090066Y-114460512D01*
X34968486Y-114579573D01*
X34964675Y-114585487D01*
X34964673Y-114585489D01*
X34923806Y-114648902D01*
X34876304Y-114722610D01*
X34818103Y-114882516D01*
X34796775Y-115051343D01*
X34813381Y-115220699D01*
X34867094Y-115382167D01*
X34870741Y-115388189D01*
X34870742Y-115388191D01*
X34945368Y-115511412D01*
X34955246Y-115527723D01*
X35073455Y-115650132D01*
X35162226Y-115708222D01*
X35178747Y-115719033D01*
X35224796Y-115773070D01*
X35234319Y-115843425D01*
X35204295Y-115907760D01*
X35175776Y-115931783D01*
X35096065Y-115980821D01*
X35096063Y-115980823D01*
X35090066Y-115984512D01*
X35085033Y-115989441D01*
X34979132Y-116093148D01*
X34968486Y-116103573D01*
X34964675Y-116109487D01*
X34964673Y-116109489D01*
X34885731Y-116231982D01*
X34876304Y-116246610D01*
X34818103Y-116406516D01*
X34796775Y-116575343D01*
X31812836Y-116575343D01*
X31813180Y-116572947D01*
X31771214Y-116405875D01*
X31767894Y-116396124D01*
X31682972Y-116200814D01*
X31678105Y-116191739D01*
X31562426Y-116012926D01*
X31556136Y-116004757D01*
X31412806Y-115847240D01*
X31405273Y-115840215D01*
X31238139Y-115708222D01*
X31229556Y-115702520D01*
X31192602Y-115682120D01*
X31142631Y-115631687D01*
X31127859Y-115562245D01*
X31152975Y-115495839D01*
X31180327Y-115469232D01*
X31249917Y-115419594D01*
X31359860Y-115341173D01*
X31408435Y-115292768D01*
X31514435Y-115187137D01*
X31518096Y-115183489D01*
X31577594Y-115100689D01*
X31645435Y-115006277D01*
X31648453Y-115002077D01*
X31662634Y-114973385D01*
X31745136Y-114806453D01*
X31745137Y-114806451D01*
X31747430Y-114801811D01*
X31789311Y-114663964D01*
X31810865Y-114593023D01*
X31810865Y-114593021D01*
X31812370Y-114588069D01*
X31841529Y-114366590D01*
X31842387Y-114331489D01*
X31843074Y-114303365D01*
X31843074Y-114303361D01*
X31843156Y-114300000D01*
X31824852Y-114077361D01*
X31770431Y-113860702D01*
X31681354Y-113655840D01*
X31616787Y-113556034D01*
X31598226Y-113527343D01*
X40892775Y-113527343D01*
X40909381Y-113696699D01*
X40911605Y-113703384D01*
X40911605Y-113703385D01*
X40917413Y-113720845D01*
X40963094Y-113858167D01*
X40966741Y-113864189D01*
X40966742Y-113864191D01*
X41034969Y-113976846D01*
X41051246Y-114003723D01*
X41169455Y-114126132D01*
X41240651Y-114172721D01*
X41292289Y-114206512D01*
X41311846Y-114219310D01*
X41318450Y-114221766D01*
X41318452Y-114221767D01*
X41354844Y-114235301D01*
X41471341Y-114278626D01*
X41640015Y-114301132D01*
X41647026Y-114300494D01*
X41647030Y-114300494D01*
X41802462Y-114286348D01*
X41809483Y-114285709D01*
X41816185Y-114283531D01*
X41816187Y-114283531D01*
X41964623Y-114235301D01*
X41964626Y-114235300D01*
X41971322Y-114233124D01*
X42117490Y-114145990D01*
X42122584Y-114141139D01*
X42122588Y-114141136D01*
X42223834Y-114044720D01*
X42240721Y-114028639D01*
X42244738Y-114022594D01*
X42321871Y-113906498D01*
X42334891Y-113886902D01*
X42395319Y-113727825D01*
X42419001Y-113559313D01*
X42419299Y-113538000D01*
X42403859Y-113400343D01*
X49401775Y-113400343D01*
X49418381Y-113569699D01*
X49420605Y-113576384D01*
X49420605Y-113576385D01*
X49437336Y-113626680D01*
X49472094Y-113731167D01*
X49475741Y-113737189D01*
X49475742Y-113737191D01*
X49547668Y-113855954D01*
X49560246Y-113876723D01*
X49678455Y-113999132D01*
X49730972Y-114033498D01*
X49798002Y-114077361D01*
X49820846Y-114092310D01*
X49827450Y-114094766D01*
X49827452Y-114094767D01*
X49896689Y-114120516D01*
X49980341Y-114151626D01*
X50149015Y-114174132D01*
X50156026Y-114173494D01*
X50156030Y-114173494D01*
X50311462Y-114159348D01*
X50318483Y-114158709D01*
X50325185Y-114156531D01*
X50325187Y-114156531D01*
X50473623Y-114108301D01*
X50473626Y-114108300D01*
X50480322Y-114106124D01*
X50626490Y-114018990D01*
X50631584Y-114014139D01*
X50631588Y-114014136D01*
X50698833Y-113950099D01*
X50749721Y-113901639D01*
X50759513Y-113886902D01*
X50805574Y-113817573D01*
X50843891Y-113759902D01*
X50904319Y-113600825D01*
X50928001Y-113432313D01*
X50928299Y-113411000D01*
X50909331Y-113241892D01*
X50853368Y-113081189D01*
X50847383Y-113071610D01*
X50795972Y-112989338D01*
X50763192Y-112936879D01*
X50643286Y-112816132D01*
X50627039Y-112805821D01*
X50513769Y-112733938D01*
X50499608Y-112724951D01*
X50339300Y-112667868D01*
X50170329Y-112647720D01*
X50163326Y-112648456D01*
X50163325Y-112648456D01*
X50008101Y-112664770D01*
X50008097Y-112664771D01*
X50001093Y-112665507D01*
X49994422Y-112667778D01*
X49846673Y-112718075D01*
X49846670Y-112718076D01*
X49840003Y-112720346D01*
X49834005Y-112724036D01*
X49834003Y-112724037D01*
X49701065Y-112805821D01*
X49701063Y-112805823D01*
X49695066Y-112809512D01*
X49573486Y-112928573D01*
X49569675Y-112934487D01*
X49569673Y-112934489D01*
X49486286Y-113063879D01*
X49481304Y-113071610D01*
X49423103Y-113231516D01*
X49401775Y-113400343D01*
X42403859Y-113400343D01*
X42400331Y-113368892D01*
X42344368Y-113208189D01*
X42338383Y-113198610D01*
X42315571Y-113162104D01*
X42254192Y-113063879D01*
X42247002Y-113056638D01*
X42139248Y-112948129D01*
X42134286Y-112943132D01*
X42118039Y-112932821D01*
X42079406Y-112908304D01*
X41990608Y-112851951D01*
X41830300Y-112794868D01*
X41661329Y-112774720D01*
X41654326Y-112775456D01*
X41654325Y-112775456D01*
X41499101Y-112791770D01*
X41499097Y-112791771D01*
X41492093Y-112792507D01*
X41485422Y-112794778D01*
X41337673Y-112845075D01*
X41337670Y-112845076D01*
X41331003Y-112847346D01*
X41325005Y-112851036D01*
X41325003Y-112851037D01*
X41192065Y-112932821D01*
X41192063Y-112932823D01*
X41186066Y-112936512D01*
X41181033Y-112941441D01*
X41079473Y-113040897D01*
X41064486Y-113055573D01*
X41060675Y-113061487D01*
X41060673Y-113061489D01*
X41008918Y-113141797D01*
X40972304Y-113198610D01*
X40914103Y-113358516D01*
X40892775Y-113527343D01*
X31598226Y-113527343D01*
X31562822Y-113472617D01*
X31562820Y-113472614D01*
X31560014Y-113468277D01*
X31409670Y-113303051D01*
X31405619Y-113299852D01*
X31405615Y-113299848D01*
X31238414Y-113167800D01*
X31238410Y-113167798D01*
X31234359Y-113164598D01*
X31193053Y-113141796D01*
X31143084Y-113091364D01*
X31128312Y-113021921D01*
X31153428Y-112955516D01*
X31180780Y-112928909D01*
X31224603Y-112897650D01*
X31359860Y-112801173D01*
X31366278Y-112794778D01*
X31491258Y-112670233D01*
X31518096Y-112643489D01*
X31577594Y-112560689D01*
X31645435Y-112466277D01*
X31648453Y-112462077D01*
X31747430Y-112261811D01*
X31791376Y-112117169D01*
X31810865Y-112053023D01*
X31810865Y-112053021D01*
X31812370Y-112048069D01*
X31841529Y-111826590D01*
X31843156Y-111760000D01*
X31824852Y-111537361D01*
X31782398Y-111368343D01*
X48154756Y-111368343D01*
X48171362Y-111537699D01*
X48225075Y-111699167D01*
X48228722Y-111705189D01*
X48228723Y-111705191D01*
X48304255Y-111829908D01*
X48313227Y-111844723D01*
X48431436Y-111967132D01*
X48437332Y-111970990D01*
X48555121Y-112048069D01*
X48573827Y-112060310D01*
X48580431Y-112062766D01*
X48580433Y-112062767D01*
X48616825Y-112076301D01*
X48733322Y-112119626D01*
X48901996Y-112142132D01*
X48909007Y-112141494D01*
X48909011Y-112141494D01*
X49064443Y-112127348D01*
X49071464Y-112126709D01*
X49078166Y-112124531D01*
X49078168Y-112124531D01*
X49226604Y-112076301D01*
X49226607Y-112076300D01*
X49233303Y-112074124D01*
X49379471Y-111986990D01*
X49384565Y-111982139D01*
X49384569Y-111982136D01*
X49451814Y-111918099D01*
X49502702Y-111869639D01*
X49533530Y-111823240D01*
X49592971Y-111733773D01*
X49596872Y-111727902D01*
X49657300Y-111568825D01*
X49680982Y-111400313D01*
X49681280Y-111379000D01*
X49662312Y-111209892D01*
X49606349Y-111049189D01*
X49600364Y-111039610D01*
X49578401Y-111004464D01*
X49516173Y-110904879D01*
X49396267Y-110784132D01*
X49380020Y-110773821D01*
X49322834Y-110737530D01*
X49252589Y-110692951D01*
X49092281Y-110635868D01*
X48923310Y-110615720D01*
X48916307Y-110616456D01*
X48916306Y-110616456D01*
X48761082Y-110632770D01*
X48761078Y-110632771D01*
X48754074Y-110633507D01*
X48747403Y-110635778D01*
X48599654Y-110686075D01*
X48599651Y-110686076D01*
X48592984Y-110688346D01*
X48586986Y-110692036D01*
X48586984Y-110692037D01*
X48454046Y-110773821D01*
X48454044Y-110773823D01*
X48448047Y-110777512D01*
X48326467Y-110896573D01*
X48322656Y-110902487D01*
X48322654Y-110902489D01*
X48306035Y-110928277D01*
X48234285Y-111039610D01*
X48176084Y-111199516D01*
X48154756Y-111368343D01*
X31782398Y-111368343D01*
X31770431Y-111320702D01*
X31681354Y-111115840D01*
X31560014Y-110928277D01*
X31409670Y-110763051D01*
X31405619Y-110759852D01*
X31405615Y-110759848D01*
X31238414Y-110627800D01*
X31238410Y-110627798D01*
X31234359Y-110624598D01*
X31193053Y-110601796D01*
X31143084Y-110551364D01*
X31128312Y-110481921D01*
X31153428Y-110415516D01*
X31180780Y-110388909D01*
X31224603Y-110357650D01*
X31359860Y-110261173D01*
X31518096Y-110103489D01*
X31577594Y-110020689D01*
X31645435Y-109926277D01*
X31648453Y-109922077D01*
X31747430Y-109721811D01*
X31791376Y-109577169D01*
X31810865Y-109513023D01*
X31810865Y-109513021D01*
X31812370Y-109508069D01*
X31841529Y-109286590D01*
X31843156Y-109220000D01*
X31824852Y-108997361D01*
X31782398Y-108828343D01*
X48512775Y-108828343D01*
X48529381Y-108997699D01*
X48583094Y-109159167D01*
X48586741Y-109165189D01*
X48586742Y-109165191D01*
X48662274Y-109289908D01*
X48671246Y-109304723D01*
X48789455Y-109427132D01*
X48795351Y-109430990D01*
X48913140Y-109508069D01*
X48931846Y-109520310D01*
X48938450Y-109522766D01*
X48938452Y-109522767D01*
X48974844Y-109536301D01*
X49091341Y-109579626D01*
X49260015Y-109602132D01*
X49267026Y-109601494D01*
X49267030Y-109601494D01*
X49422462Y-109587348D01*
X49429483Y-109586709D01*
X49436185Y-109584531D01*
X49436187Y-109584531D01*
X49584623Y-109536301D01*
X49584626Y-109536300D01*
X49591322Y-109534124D01*
X49737490Y-109446990D01*
X49742584Y-109442139D01*
X49742588Y-109442136D01*
X49809833Y-109378099D01*
X49860721Y-109329639D01*
X49891549Y-109283240D01*
X49950990Y-109193773D01*
X49954891Y-109187902D01*
X50015319Y-109028825D01*
X50039001Y-108860313D01*
X50039299Y-108839000D01*
X50020331Y-108669892D01*
X49964368Y-108509189D01*
X49958383Y-108499610D01*
X49936420Y-108464464D01*
X49874192Y-108364879D01*
X49754286Y-108244132D01*
X49738039Y-108233821D01*
X49680853Y-108197530D01*
X49610608Y-108152951D01*
X49450300Y-108095868D01*
X49281329Y-108075720D01*
X49274326Y-108076456D01*
X49274325Y-108076456D01*
X49119101Y-108092770D01*
X49119097Y-108092771D01*
X49112093Y-108093507D01*
X49105422Y-108095778D01*
X48957673Y-108146075D01*
X48957670Y-108146076D01*
X48951003Y-108148346D01*
X48945005Y-108152036D01*
X48945003Y-108152037D01*
X48812065Y-108233821D01*
X48812063Y-108233823D01*
X48806066Y-108237512D01*
X48684486Y-108356573D01*
X48680675Y-108362487D01*
X48680673Y-108362489D01*
X48664054Y-108388277D01*
X48592304Y-108499610D01*
X48534103Y-108659516D01*
X48512775Y-108828343D01*
X31782398Y-108828343D01*
X31770431Y-108780702D01*
X31681354Y-108575840D01*
X31560014Y-108388277D01*
X31409670Y-108223051D01*
X31405619Y-108219852D01*
X31405615Y-108219848D01*
X31238414Y-108087800D01*
X31238410Y-108087798D01*
X31234359Y-108084598D01*
X31193053Y-108061796D01*
X31143084Y-108011364D01*
X31128312Y-107941921D01*
X31153428Y-107875516D01*
X31180780Y-107848909D01*
X31224603Y-107817650D01*
X31359860Y-107721173D01*
X31518096Y-107563489D01*
X31577594Y-107480689D01*
X31645435Y-107386277D01*
X31648453Y-107382077D01*
X31747430Y-107181811D01*
X31812370Y-106968069D01*
X31841529Y-106746590D01*
X31843156Y-106680000D01*
X31824852Y-106457361D01*
X31770431Y-106240702D01*
X31681354Y-106035840D01*
X31560014Y-105848277D01*
X31409670Y-105683051D01*
X31405619Y-105679852D01*
X31405615Y-105679848D01*
X31238414Y-105547800D01*
X31238410Y-105547798D01*
X31234359Y-105544598D01*
X31192569Y-105521529D01*
X31142598Y-105471097D01*
X31127826Y-105401654D01*
X31152942Y-105335248D01*
X31180294Y-105308641D01*
X31355328Y-105183792D01*
X31363200Y-105177139D01*
X31514052Y-105026812D01*
X31520730Y-105018965D01*
X31645003Y-104846020D01*
X31650313Y-104837183D01*
X31744670Y-104646267D01*
X31748203Y-104637343D01*
X40257775Y-104637343D01*
X40274381Y-104806699D01*
X40328094Y-104968167D01*
X40331741Y-104974189D01*
X40331742Y-104974191D01*
X40363611Y-105026812D01*
X40416246Y-105113723D01*
X40534455Y-105236132D01*
X40676846Y-105329310D01*
X40683450Y-105331766D01*
X40683452Y-105331767D01*
X40719844Y-105345301D01*
X40836341Y-105388626D01*
X41005015Y-105411132D01*
X41012026Y-105410494D01*
X41012030Y-105410494D01*
X41167462Y-105396348D01*
X41174483Y-105395709D01*
X41181185Y-105393531D01*
X41181187Y-105393531D01*
X41329623Y-105345301D01*
X41329626Y-105345300D01*
X41336322Y-105343124D01*
X41482490Y-105255990D01*
X41487584Y-105251139D01*
X41487588Y-105251136D01*
X41565292Y-105177139D01*
X41605721Y-105138639D01*
X41699891Y-104996902D01*
X41760319Y-104837825D01*
X41784001Y-104669313D01*
X41784299Y-104648000D01*
X41765331Y-104478892D01*
X41745811Y-104422837D01*
X41723428Y-104358564D01*
X41709368Y-104318189D01*
X41703383Y-104308610D01*
X41650343Y-104223731D01*
X41619192Y-104173879D01*
X41499286Y-104053132D01*
X41483039Y-104042821D01*
X41369769Y-103970938D01*
X41355608Y-103961951D01*
X41195300Y-103904868D01*
X41026329Y-103884720D01*
X41019326Y-103885456D01*
X41019325Y-103885456D01*
X40864101Y-103901770D01*
X40864097Y-103901771D01*
X40857093Y-103902507D01*
X40850422Y-103904778D01*
X40702673Y-103955075D01*
X40702670Y-103955076D01*
X40696003Y-103957346D01*
X40690005Y-103961036D01*
X40690003Y-103961037D01*
X40557065Y-104042821D01*
X40557063Y-104042823D01*
X40551066Y-104046512D01*
X40429486Y-104165573D01*
X40337304Y-104308610D01*
X40306225Y-104394000D01*
X40292063Y-104432910D01*
X40279103Y-104468516D01*
X40257775Y-104637343D01*
X31748203Y-104637343D01*
X31748469Y-104636672D01*
X31810377Y-104432910D01*
X31812555Y-104422837D01*
X31813986Y-104411962D01*
X31811775Y-104397778D01*
X31798617Y-104394000D01*
X29163225Y-104394000D01*
X29149694Y-104397973D01*
X29148257Y-104407966D01*
X29178565Y-104542446D01*
X29181645Y-104552275D01*
X29261770Y-104749603D01*
X29266413Y-104758794D01*
X29377694Y-104940388D01*
X29383777Y-104948699D01*
X29523213Y-105109667D01*
X29530580Y-105116883D01*
X29694434Y-105252916D01*
X29702881Y-105258831D01*
X29771969Y-105299203D01*
X29820693Y-105350842D01*
X29833764Y-105420625D01*
X29807033Y-105486396D01*
X29766584Y-105519752D01*
X29753607Y-105526507D01*
X29749474Y-105529610D01*
X29749471Y-105529612D01*
X29725247Y-105547800D01*
X29574965Y-105660635D01*
X29420629Y-105822138D01*
X29294743Y-106006680D01*
X29200688Y-106209305D01*
X29140989Y-106424570D01*
X29117251Y-106646695D01*
X29117548Y-106651848D01*
X29117548Y-106651851D01*
X29123011Y-106746590D01*
X29130110Y-106869715D01*
X29131247Y-106874761D01*
X29131248Y-106874767D01*
X29151119Y-106962939D01*
X29179222Y-107087639D01*
X29263266Y-107294616D01*
X29379987Y-107485088D01*
X29526250Y-107653938D01*
X29698126Y-107796632D01*
X29768595Y-107837811D01*
X29771445Y-107839476D01*
X29820169Y-107891114D01*
X29833240Y-107960897D01*
X29806509Y-108026669D01*
X29766055Y-108060027D01*
X29753607Y-108066507D01*
X29749474Y-108069610D01*
X29749471Y-108069612D01*
X29638474Y-108152951D01*
X29574965Y-108200635D01*
X29420629Y-108362138D01*
X29294743Y-108546680D01*
X29200688Y-108749305D01*
X29140989Y-108964570D01*
X29117251Y-109186695D01*
X29117548Y-109191848D01*
X29117548Y-109191851D01*
X29123011Y-109286590D01*
X29130110Y-109409715D01*
X29131247Y-109414761D01*
X29131248Y-109414767D01*
X29151119Y-109502939D01*
X29179222Y-109627639D01*
X29263266Y-109834616D01*
X29379987Y-110025088D01*
X29526250Y-110193938D01*
X29698126Y-110336632D01*
X29768595Y-110377811D01*
X29771445Y-110379476D01*
X29820169Y-110431114D01*
X29833240Y-110500897D01*
X29806509Y-110566669D01*
X29766055Y-110600027D01*
X29753607Y-110606507D01*
X29749474Y-110609610D01*
X29749471Y-110609612D01*
X29638474Y-110692951D01*
X29574965Y-110740635D01*
X29420629Y-110902138D01*
X29294743Y-111086680D01*
X29200688Y-111289305D01*
X29140989Y-111504570D01*
X29117251Y-111726695D01*
X29117548Y-111731848D01*
X29117548Y-111731851D01*
X29123011Y-111826590D01*
X29130110Y-111949715D01*
X29131247Y-111954761D01*
X29131248Y-111954767D01*
X29151119Y-112042939D01*
X29179222Y-112167639D01*
X29263266Y-112374616D01*
X29379987Y-112565088D01*
X29526250Y-112733938D01*
X29698126Y-112876632D01*
X29768595Y-112917811D01*
X29771445Y-112919476D01*
X29820169Y-112971114D01*
X29833240Y-113040897D01*
X29806509Y-113106669D01*
X29766055Y-113140027D01*
X29753607Y-113146507D01*
X29749474Y-113149610D01*
X29749471Y-113149612D01*
X29617244Y-113248891D01*
X29574965Y-113280635D01*
X29571393Y-113284373D01*
X29426282Y-113436223D01*
X29420629Y-113442138D01*
X29417715Y-113446410D01*
X29417714Y-113446411D01*
X29340752Y-113559233D01*
X29294743Y-113626680D01*
X29261400Y-113698512D01*
X29203388Y-113823489D01*
X29200688Y-113829305D01*
X29140989Y-114044570D01*
X29117251Y-114266695D01*
X27940000Y-114266695D01*
X27940000Y-101566695D01*
X29117251Y-101566695D01*
X29117548Y-101571848D01*
X29117548Y-101571851D01*
X29128030Y-101753638D01*
X29130110Y-101789715D01*
X29131247Y-101794761D01*
X29131248Y-101794767D01*
X29142932Y-101846612D01*
X29179222Y-102007639D01*
X29217461Y-102101811D01*
X29254079Y-102191990D01*
X29263266Y-102214616D01*
X29265965Y-102219020D01*
X29343491Y-102345531D01*
X29379987Y-102405088D01*
X29526250Y-102573938D01*
X29698126Y-102716632D01*
X29771955Y-102759774D01*
X29820679Y-102811412D01*
X29833750Y-102881195D01*
X29807019Y-102946967D01*
X29766562Y-102980327D01*
X29758457Y-102984546D01*
X29749738Y-102990036D01*
X29579433Y-103117905D01*
X29571726Y-103124748D01*
X29424590Y-103278717D01*
X29418104Y-103286727D01*
X29298098Y-103462649D01*
X29293000Y-103471623D01*
X29203338Y-103664783D01*
X29199775Y-103674470D01*
X29144389Y-103874183D01*
X29145912Y-103882607D01*
X29158292Y-103886000D01*
X31798344Y-103886000D01*
X31811875Y-103882027D01*
X31813180Y-103872947D01*
X31771214Y-103705875D01*
X31767894Y-103696124D01*
X31682972Y-103500814D01*
X31678105Y-103491739D01*
X31562426Y-103312926D01*
X31556136Y-103304757D01*
X31412806Y-103147240D01*
X31405273Y-103140215D01*
X31238139Y-103008222D01*
X31229556Y-103002520D01*
X31192602Y-102982120D01*
X31174346Y-102963695D01*
X36991251Y-102963695D01*
X36991548Y-102968848D01*
X36991548Y-102968851D01*
X37000537Y-103124748D01*
X37004110Y-103186715D01*
X37005247Y-103191761D01*
X37005248Y-103191767D01*
X37024844Y-103278717D01*
X37053222Y-103404639D01*
X37137266Y-103611616D01*
X37253987Y-103802088D01*
X37400250Y-103970938D01*
X37572126Y-104113632D01*
X37765000Y-104226338D01*
X37973692Y-104306030D01*
X37978760Y-104307061D01*
X37978763Y-104307062D01*
X38066175Y-104324846D01*
X38192597Y-104350567D01*
X38197772Y-104350757D01*
X38197774Y-104350757D01*
X38410673Y-104358564D01*
X38410677Y-104358564D01*
X38415837Y-104358753D01*
X38420957Y-104358097D01*
X38420959Y-104358097D01*
X38632288Y-104331025D01*
X38632289Y-104331025D01*
X38637416Y-104330368D01*
X38655822Y-104324846D01*
X38846429Y-104267661D01*
X38846434Y-104267659D01*
X38851384Y-104266174D01*
X39051994Y-104167896D01*
X39233860Y-104038173D01*
X39392096Y-103880489D01*
X39397516Y-103872947D01*
X39519435Y-103703277D01*
X39522453Y-103699077D01*
X39534615Y-103674470D01*
X39619136Y-103503453D01*
X39619137Y-103503451D01*
X39621430Y-103498811D01*
X39686370Y-103285069D01*
X39715529Y-103063590D01*
X39717156Y-102997000D01*
X39698852Y-102774361D01*
X39644431Y-102557702D01*
X39555354Y-102352840D01*
X39462836Y-102209829D01*
X39436822Y-102169617D01*
X39436820Y-102169614D01*
X39434014Y-102165277D01*
X39283670Y-102000051D01*
X39279619Y-101996852D01*
X39279615Y-101996848D01*
X39112414Y-101864800D01*
X39112410Y-101864798D01*
X39108359Y-101861598D01*
X39066569Y-101838529D01*
X39016598Y-101788097D01*
X39001826Y-101718654D01*
X39026942Y-101652248D01*
X39054294Y-101625641D01*
X39105183Y-101589343D01*
X50925775Y-101589343D01*
X50942381Y-101758699D01*
X50996094Y-101920167D01*
X50999741Y-101926189D01*
X50999742Y-101926191D01*
X51051968Y-102012425D01*
X51084246Y-102065723D01*
X51202455Y-102188132D01*
X51344846Y-102281310D01*
X51351450Y-102283766D01*
X51351452Y-102283767D01*
X51400686Y-102302077D01*
X51504341Y-102340626D01*
X51673015Y-102363132D01*
X51680026Y-102362494D01*
X51680030Y-102362494D01*
X51835462Y-102348348D01*
X51842483Y-102347709D01*
X51849185Y-102345531D01*
X51849187Y-102345531D01*
X51997623Y-102297301D01*
X51997626Y-102297300D01*
X52004322Y-102295124D01*
X52150490Y-102207990D01*
X52155584Y-102203139D01*
X52155588Y-102203136D01*
X52226716Y-102135401D01*
X52273721Y-102090639D01*
X52367891Y-101948902D01*
X52428319Y-101789825D01*
X52452001Y-101621313D01*
X52452299Y-101600000D01*
X52448563Y-101566695D01*
X54517251Y-101566695D01*
X54517548Y-101571848D01*
X54517548Y-101571851D01*
X54528030Y-101753638D01*
X54530110Y-101789715D01*
X54531247Y-101794761D01*
X54531248Y-101794767D01*
X54542932Y-101846612D01*
X54579222Y-102007639D01*
X54617461Y-102101811D01*
X54654079Y-102191990D01*
X54663266Y-102214616D01*
X54665965Y-102219020D01*
X54743491Y-102345531D01*
X54779987Y-102405088D01*
X54926250Y-102573938D01*
X55098126Y-102716632D01*
X55171955Y-102759774D01*
X55220679Y-102811412D01*
X55233750Y-102881195D01*
X55207019Y-102946967D01*
X55166562Y-102980327D01*
X55158457Y-102984546D01*
X55149738Y-102990036D01*
X54979433Y-103117905D01*
X54971726Y-103124748D01*
X54824590Y-103278717D01*
X54818104Y-103286727D01*
X54698098Y-103462649D01*
X54693000Y-103471623D01*
X54603338Y-103664783D01*
X54599775Y-103674470D01*
X54544389Y-103874183D01*
X54545912Y-103882607D01*
X54558292Y-103886000D01*
X57198344Y-103886000D01*
X57211875Y-103882027D01*
X57213180Y-103872947D01*
X57171214Y-103705875D01*
X57167894Y-103696124D01*
X57082972Y-103500814D01*
X57078105Y-103491739D01*
X56962426Y-103312926D01*
X56956136Y-103304757D01*
X56812806Y-103147240D01*
X56805273Y-103140215D01*
X56638139Y-103008222D01*
X56629556Y-103002520D01*
X56592602Y-102982120D01*
X56542631Y-102931687D01*
X56527859Y-102862245D01*
X56552975Y-102795839D01*
X56580327Y-102769232D01*
X56626092Y-102736588D01*
X56759860Y-102641173D01*
X56918096Y-102483489D01*
X56977594Y-102400689D01*
X57045435Y-102306277D01*
X57048453Y-102302077D01*
X57050814Y-102297301D01*
X57145136Y-102106453D01*
X57145137Y-102106451D01*
X57147430Y-102101811D01*
X57192104Y-101954773D01*
X57210865Y-101893023D01*
X57210865Y-101893021D01*
X57212370Y-101888069D01*
X57241529Y-101666590D01*
X57241611Y-101663240D01*
X57243074Y-101603365D01*
X57243074Y-101603361D01*
X57243156Y-101600000D01*
X57224852Y-101377361D01*
X57170431Y-101160702D01*
X57081354Y-100955840D01*
X56960014Y-100768277D01*
X56809670Y-100603051D01*
X56805619Y-100599852D01*
X56805615Y-100599848D01*
X56638414Y-100467800D01*
X56638410Y-100467798D01*
X56634359Y-100464598D01*
X56593053Y-100441796D01*
X56543084Y-100391364D01*
X56528312Y-100321921D01*
X56553428Y-100255516D01*
X56580780Y-100228909D01*
X56635403Y-100189947D01*
X56759860Y-100101173D01*
X56918096Y-99943489D01*
X56977594Y-99860689D01*
X57045435Y-99766277D01*
X57048453Y-99762077D01*
X57147430Y-99561811D01*
X57184355Y-99440278D01*
X57210865Y-99353023D01*
X57210865Y-99353021D01*
X57212370Y-99348069D01*
X57241529Y-99126590D01*
X57243156Y-99060000D01*
X57224852Y-98837361D01*
X57170431Y-98620702D01*
X57081354Y-98415840D01*
X56960014Y-98228277D01*
X56809670Y-98063051D01*
X56805619Y-98059852D01*
X56805615Y-98059848D01*
X56638414Y-97927800D01*
X56638410Y-97927798D01*
X56634359Y-97924598D01*
X56593053Y-97901796D01*
X56543084Y-97851364D01*
X56528312Y-97781921D01*
X56553428Y-97715516D01*
X56580780Y-97688909D01*
X56624603Y-97657650D01*
X56759860Y-97561173D01*
X56918096Y-97403489D01*
X56977594Y-97320689D01*
X57045435Y-97226277D01*
X57048453Y-97222077D01*
X57081717Y-97154773D01*
X57145136Y-97026453D01*
X57145137Y-97026451D01*
X57147430Y-97021811D01*
X57208346Y-96821313D01*
X57210865Y-96813023D01*
X57210865Y-96813021D01*
X57212370Y-96808069D01*
X57241529Y-96586590D01*
X57242206Y-96558869D01*
X57243074Y-96523365D01*
X57243074Y-96523361D01*
X57243156Y-96520000D01*
X57224852Y-96297361D01*
X57170431Y-96080702D01*
X57081354Y-95875840D01*
X56960014Y-95688277D01*
X56809670Y-95523051D01*
X56805619Y-95519852D01*
X56805615Y-95519848D01*
X56638414Y-95387800D01*
X56638410Y-95387798D01*
X56634359Y-95384598D01*
X56593053Y-95361796D01*
X56543084Y-95311364D01*
X56528312Y-95241921D01*
X56553428Y-95175516D01*
X56580780Y-95148909D01*
X56624603Y-95117650D01*
X56759860Y-95021173D01*
X56918096Y-94863489D01*
X56926820Y-94851349D01*
X57045435Y-94686277D01*
X57048453Y-94682077D01*
X57123807Y-94529610D01*
X57145136Y-94486453D01*
X57145137Y-94486451D01*
X57147430Y-94481811D01*
X57212370Y-94268069D01*
X57241529Y-94046590D01*
X57243156Y-93980000D01*
X57224852Y-93757361D01*
X57170431Y-93540702D01*
X57081354Y-93335840D01*
X57005852Y-93219132D01*
X56962822Y-93152617D01*
X56962820Y-93152614D01*
X56960014Y-93148277D01*
X56809670Y-92983051D01*
X56805619Y-92979852D01*
X56805615Y-92979848D01*
X56638414Y-92847800D01*
X56638410Y-92847798D01*
X56634359Y-92844598D01*
X56592569Y-92821529D01*
X56542598Y-92771097D01*
X56527826Y-92701654D01*
X56552942Y-92635248D01*
X56580294Y-92608641D01*
X56755328Y-92483792D01*
X56763200Y-92477139D01*
X56914052Y-92326812D01*
X56920730Y-92318965D01*
X57045003Y-92146020D01*
X57050313Y-92137183D01*
X57144670Y-91946267D01*
X57148469Y-91936672D01*
X57210377Y-91732910D01*
X57212555Y-91722837D01*
X57213986Y-91711962D01*
X57211775Y-91697778D01*
X57198617Y-91694000D01*
X54563225Y-91694000D01*
X54549694Y-91697973D01*
X54548257Y-91707966D01*
X54578565Y-91842446D01*
X54581645Y-91852275D01*
X54661770Y-92049603D01*
X54666413Y-92058794D01*
X54777694Y-92240388D01*
X54783777Y-92248699D01*
X54923213Y-92409667D01*
X54930580Y-92416883D01*
X55094434Y-92552916D01*
X55102881Y-92558831D01*
X55171969Y-92599203D01*
X55220693Y-92650842D01*
X55233764Y-92720625D01*
X55207033Y-92786396D01*
X55166584Y-92819752D01*
X55153607Y-92826507D01*
X55149474Y-92829610D01*
X55149471Y-92829612D01*
X54989517Y-92949709D01*
X54974965Y-92960635D01*
X54971393Y-92964373D01*
X54872753Y-93067594D01*
X54820629Y-93122138D01*
X54694743Y-93306680D01*
X54679003Y-93340590D01*
X54616166Y-93475961D01*
X54600688Y-93509305D01*
X54540989Y-93724570D01*
X54517251Y-93946695D01*
X54517548Y-93951848D01*
X54517548Y-93951851D01*
X54526468Y-94106554D01*
X54530110Y-94169715D01*
X54531247Y-94174761D01*
X54531248Y-94174767D01*
X54551119Y-94262939D01*
X54579222Y-94387639D01*
X54663266Y-94594616D01*
X54779987Y-94785088D01*
X54926250Y-94953938D01*
X55098126Y-95096632D01*
X55168595Y-95137811D01*
X55171445Y-95139476D01*
X55220169Y-95191114D01*
X55233240Y-95260897D01*
X55206509Y-95326669D01*
X55166055Y-95360027D01*
X55153607Y-95366507D01*
X55149474Y-95369610D01*
X55149471Y-95369612D01*
X55027767Y-95460990D01*
X54974965Y-95500635D01*
X54820629Y-95662138D01*
X54694743Y-95846680D01*
X54679003Y-95880590D01*
X54606143Y-96037554D01*
X54600688Y-96049305D01*
X54540989Y-96264570D01*
X54517251Y-96486695D01*
X54517548Y-96491848D01*
X54517548Y-96491851D01*
X54525370Y-96627506D01*
X54530110Y-96709715D01*
X54531247Y-96714761D01*
X54531248Y-96714767D01*
X54552275Y-96808069D01*
X54579222Y-96927639D01*
X54616265Y-97018866D01*
X54648240Y-97097610D01*
X54663266Y-97134616D01*
X54673261Y-97150926D01*
X54758877Y-97290639D01*
X54779987Y-97325088D01*
X54926250Y-97493938D01*
X55098126Y-97636632D01*
X55168595Y-97677811D01*
X55171445Y-97679476D01*
X55220169Y-97731114D01*
X55233240Y-97800897D01*
X55206509Y-97866669D01*
X55166055Y-97900027D01*
X55153607Y-97906507D01*
X55149474Y-97909610D01*
X55149471Y-97909612D01*
X54979100Y-98037530D01*
X54974965Y-98040635D01*
X54971393Y-98044373D01*
X54837285Y-98184709D01*
X54820629Y-98202138D01*
X54694743Y-98386680D01*
X54600688Y-98589305D01*
X54540989Y-98804570D01*
X54517251Y-99026695D01*
X54517548Y-99031848D01*
X54517548Y-99031851D01*
X54523011Y-99126590D01*
X54530110Y-99249715D01*
X54531247Y-99254761D01*
X54531248Y-99254767D01*
X54548053Y-99329333D01*
X54579222Y-99467639D01*
X54663266Y-99674616D01*
X54665965Y-99679020D01*
X54751018Y-99817814D01*
X54779987Y-99865088D01*
X54926250Y-100033938D01*
X55098126Y-100176632D01*
X55136451Y-100199027D01*
X55171445Y-100219476D01*
X55220169Y-100271114D01*
X55233240Y-100340897D01*
X55206509Y-100406669D01*
X55166055Y-100440027D01*
X55153607Y-100446507D01*
X55149474Y-100449610D01*
X55149471Y-100449612D01*
X55125247Y-100467800D01*
X54974965Y-100580635D01*
X54971393Y-100584373D01*
X54846589Y-100714973D01*
X54820629Y-100742138D01*
X54817715Y-100746410D01*
X54817714Y-100746411D01*
X54740752Y-100859233D01*
X54694743Y-100926680D01*
X54679003Y-100960590D01*
X54603388Y-101123489D01*
X54600688Y-101129305D01*
X54540989Y-101344570D01*
X54517251Y-101566695D01*
X52448563Y-101566695D01*
X52433331Y-101430892D01*
X52377368Y-101270189D01*
X52371383Y-101260610D01*
X52349420Y-101225464D01*
X52287192Y-101125879D01*
X52167286Y-101005132D01*
X52151039Y-100994821D01*
X52082763Y-100951492D01*
X52023608Y-100913951D01*
X51863300Y-100856868D01*
X51694329Y-100836720D01*
X51687326Y-100837456D01*
X51687325Y-100837456D01*
X51532101Y-100853770D01*
X51532097Y-100853771D01*
X51525093Y-100854507D01*
X51518422Y-100856778D01*
X51370673Y-100907075D01*
X51370670Y-100907076D01*
X51364003Y-100909346D01*
X51358005Y-100913036D01*
X51358003Y-100913037D01*
X51225065Y-100994821D01*
X51225063Y-100994823D01*
X51219066Y-100998512D01*
X51097486Y-101117573D01*
X51005304Y-101260610D01*
X50947103Y-101420516D01*
X50925775Y-101589343D01*
X39105183Y-101589343D01*
X39229328Y-101500792D01*
X39237200Y-101494139D01*
X39388052Y-101343812D01*
X39394730Y-101335965D01*
X39519003Y-101163020D01*
X39524313Y-101154183D01*
X39618670Y-100963267D01*
X39622469Y-100953672D01*
X39684377Y-100749910D01*
X39686555Y-100739837D01*
X39687986Y-100728962D01*
X39685775Y-100714778D01*
X39672617Y-100711000D01*
X37037225Y-100711000D01*
X37023694Y-100714973D01*
X37022257Y-100724966D01*
X37052565Y-100859446D01*
X37055645Y-100869275D01*
X37135770Y-101066603D01*
X37140413Y-101075794D01*
X37251694Y-101257388D01*
X37257777Y-101265699D01*
X37397213Y-101426667D01*
X37404580Y-101433883D01*
X37568434Y-101569916D01*
X37576881Y-101575831D01*
X37645969Y-101616203D01*
X37694693Y-101667842D01*
X37707764Y-101737625D01*
X37681033Y-101803396D01*
X37640584Y-101836752D01*
X37627607Y-101843507D01*
X37623474Y-101846610D01*
X37623471Y-101846612D01*
X37479414Y-101954773D01*
X37448965Y-101977635D01*
X37415719Y-102012425D01*
X37325864Y-102106453D01*
X37294629Y-102139138D01*
X37291715Y-102143410D01*
X37291714Y-102143411D01*
X37247661Y-102207990D01*
X37168743Y-102323680D01*
X37153003Y-102357590D01*
X37096511Y-102479292D01*
X37074688Y-102526305D01*
X37014989Y-102741570D01*
X36991251Y-102963695D01*
X31174346Y-102963695D01*
X31142631Y-102931687D01*
X31127859Y-102862245D01*
X31152975Y-102795839D01*
X31180327Y-102769232D01*
X31226092Y-102736588D01*
X31359860Y-102641173D01*
X31518096Y-102483489D01*
X31577594Y-102400689D01*
X31645435Y-102306277D01*
X31648453Y-102302077D01*
X31650814Y-102297301D01*
X31745136Y-102106453D01*
X31745137Y-102106451D01*
X31747430Y-102101811D01*
X31792104Y-101954773D01*
X31810865Y-101893023D01*
X31810865Y-101893021D01*
X31812370Y-101888069D01*
X31841529Y-101666590D01*
X31841611Y-101663240D01*
X31843074Y-101603365D01*
X31843074Y-101603361D01*
X31843156Y-101600000D01*
X31824852Y-101377361D01*
X31770431Y-101160702D01*
X31681354Y-100955840D01*
X31560014Y-100768277D01*
X31409670Y-100603051D01*
X31405619Y-100599852D01*
X31405615Y-100599848D01*
X31238414Y-100467800D01*
X31238410Y-100467798D01*
X31234359Y-100464598D01*
X31193053Y-100441796D01*
X31143084Y-100391364D01*
X31128312Y-100321921D01*
X31153428Y-100255516D01*
X31180780Y-100228909D01*
X31235403Y-100189947D01*
X31359860Y-100101173D01*
X31518096Y-99943489D01*
X31577594Y-99860689D01*
X31645435Y-99766277D01*
X31648453Y-99762077D01*
X31747430Y-99561811D01*
X31784355Y-99440278D01*
X31810865Y-99353023D01*
X31810865Y-99353021D01*
X31812370Y-99348069D01*
X31841529Y-99126590D01*
X31843156Y-99060000D01*
X31824852Y-98837361D01*
X31819269Y-98815134D01*
X36995500Y-98815134D01*
X37002255Y-98877316D01*
X37053385Y-99013705D01*
X37140739Y-99130261D01*
X37257295Y-99217615D01*
X37265704Y-99220767D01*
X37265705Y-99220768D01*
X37374960Y-99261726D01*
X37431725Y-99304367D01*
X37456425Y-99370929D01*
X37441218Y-99440278D01*
X37421825Y-99466759D01*
X37298590Y-99595717D01*
X37292104Y-99603727D01*
X37172098Y-99779649D01*
X37167000Y-99788623D01*
X37077338Y-99981783D01*
X37073775Y-99991470D01*
X37018389Y-100191183D01*
X37019912Y-100199607D01*
X37032292Y-100203000D01*
X39672344Y-100203000D01*
X39685875Y-100199027D01*
X39687180Y-100189947D01*
X39645214Y-100022875D01*
X39641894Y-100013124D01*
X39556972Y-99817814D01*
X39552105Y-99808739D01*
X39436426Y-99629926D01*
X39430136Y-99621757D01*
X39286293Y-99463677D01*
X39255241Y-99399831D01*
X39263635Y-99329333D01*
X39308812Y-99274564D01*
X39335256Y-99260895D01*
X39442297Y-99220767D01*
X39450705Y-99217615D01*
X39567261Y-99130261D01*
X39654615Y-99013705D01*
X39705745Y-98877316D01*
X39712500Y-98815134D01*
X39712500Y-97426343D01*
X42670775Y-97426343D01*
X42687381Y-97595699D01*
X42689605Y-97602384D01*
X42689605Y-97602385D01*
X42701866Y-97639242D01*
X42741094Y-97757167D01*
X42744741Y-97763189D01*
X42744742Y-97763191D01*
X42769068Y-97803357D01*
X42829246Y-97902723D01*
X42947455Y-98025132D01*
X43089846Y-98118310D01*
X43096450Y-98120766D01*
X43096452Y-98120767D01*
X43132844Y-98134301D01*
X43249341Y-98177626D01*
X43418015Y-98200132D01*
X43425026Y-98199494D01*
X43425030Y-98199494D01*
X43580462Y-98185348D01*
X43587483Y-98184709D01*
X43594185Y-98182531D01*
X43594187Y-98182531D01*
X43742623Y-98134301D01*
X43742626Y-98134300D01*
X43749322Y-98132124D01*
X43895490Y-98044990D01*
X43900584Y-98040139D01*
X43900588Y-98040136D01*
X43967833Y-97976099D01*
X44018721Y-97927639D01*
X44034349Y-97904118D01*
X44108990Y-97791773D01*
X44112891Y-97785902D01*
X44173319Y-97626825D01*
X44197001Y-97458313D01*
X44197299Y-97437000D01*
X44178331Y-97267892D01*
X44169080Y-97241327D01*
X44165568Y-97170419D01*
X44176773Y-97150926D01*
X44119279Y-97102246D01*
X44032192Y-96962879D01*
X43997198Y-96927639D01*
X43917248Y-96847129D01*
X43912286Y-96842132D01*
X43896039Y-96831821D01*
X43829104Y-96789343D01*
X44316775Y-96789343D01*
X44333381Y-96958699D01*
X44336759Y-96968853D01*
X44345691Y-96995705D01*
X44348213Y-97066657D01*
X44337365Y-97084933D01*
X44390570Y-97126610D01*
X44395844Y-97134615D01*
X44408052Y-97154773D01*
X44470276Y-97257516D01*
X44475246Y-97265723D01*
X44593455Y-97388132D01*
X44735846Y-97481310D01*
X44742450Y-97483766D01*
X44742452Y-97483767D01*
X44778680Y-97497240D01*
X44895341Y-97540626D01*
X45064015Y-97563132D01*
X45071026Y-97562494D01*
X45071030Y-97562494D01*
X45226462Y-97548348D01*
X45233483Y-97547709D01*
X45240185Y-97545531D01*
X45240187Y-97545531D01*
X45354966Y-97508237D01*
X45425934Y-97506210D01*
X45437813Y-97509969D01*
X45593199Y-97567757D01*
X45761873Y-97590263D01*
X45768884Y-97589625D01*
X45768888Y-97589625D01*
X45924320Y-97575479D01*
X45931341Y-97574840D01*
X45938043Y-97572662D01*
X45938045Y-97572662D01*
X46086481Y-97524432D01*
X46086484Y-97524431D01*
X46093180Y-97522255D01*
X46239348Y-97435121D01*
X46259042Y-97416367D01*
X46322167Y-97383876D01*
X46392838Y-97390670D01*
X46414924Y-97402181D01*
X46535846Y-97481310D01*
X46542450Y-97483766D01*
X46542452Y-97483767D01*
X46578680Y-97497240D01*
X46695341Y-97540626D01*
X46864015Y-97563132D01*
X46871026Y-97562494D01*
X46871030Y-97562494D01*
X47026462Y-97548348D01*
X47033483Y-97547709D01*
X47040185Y-97545531D01*
X47040187Y-97545531D01*
X47168094Y-97503971D01*
X47239061Y-97501943D01*
X47250950Y-97505707D01*
X47285750Y-97518649D01*
X47344844Y-97540626D01*
X47513518Y-97563132D01*
X47520529Y-97562494D01*
X47520533Y-97562494D01*
X47675965Y-97548348D01*
X47682986Y-97547709D01*
X47689688Y-97545531D01*
X47689690Y-97545531D01*
X47838126Y-97497301D01*
X47838129Y-97497300D01*
X47844825Y-97495124D01*
X47990993Y-97407990D01*
X47996087Y-97403139D01*
X47996091Y-97403136D01*
X48082668Y-97320689D01*
X48114224Y-97290639D01*
X48208394Y-97148902D01*
X48268822Y-96989825D01*
X48292504Y-96821313D01*
X48292802Y-96800000D01*
X48273834Y-96630892D01*
X48267685Y-96613233D01*
X48234049Y-96516646D01*
X48217871Y-96470189D01*
X48211886Y-96460610D01*
X48189923Y-96425464D01*
X48127695Y-96325879D01*
X48007789Y-96205132D01*
X47991542Y-96194821D01*
X47912817Y-96144861D01*
X47864111Y-96113951D01*
X47703803Y-96056868D01*
X47534832Y-96036720D01*
X47527829Y-96037456D01*
X47527828Y-96037456D01*
X47372604Y-96053770D01*
X47372600Y-96053771D01*
X47365596Y-96054507D01*
X47244594Y-96095699D01*
X47173664Y-96098717D01*
X47161729Y-96095122D01*
X47054300Y-96056868D01*
X46885329Y-96036720D01*
X46878326Y-96037456D01*
X46878325Y-96037456D01*
X46723101Y-96053770D01*
X46723097Y-96053771D01*
X46716093Y-96054507D01*
X46709422Y-96056778D01*
X46561673Y-96107075D01*
X46561670Y-96107076D01*
X46555003Y-96109346D01*
X46549005Y-96113036D01*
X46549003Y-96113037D01*
X46416065Y-96194821D01*
X46416063Y-96194823D01*
X46410066Y-96198512D01*
X46405033Y-96203441D01*
X46399980Y-96208389D01*
X46337315Y-96241760D01*
X46266556Y-96235954D01*
X46244308Y-96224751D01*
X46172087Y-96178919D01*
X46112466Y-96141082D01*
X45952158Y-96083999D01*
X45783187Y-96063851D01*
X45776184Y-96064587D01*
X45776183Y-96064587D01*
X45620959Y-96080901D01*
X45620955Y-96080902D01*
X45613951Y-96081638D01*
X45505639Y-96118510D01*
X45434708Y-96121528D01*
X45415622Y-96114594D01*
X45414608Y-96113951D01*
X45407976Y-96111589D01*
X45407973Y-96111588D01*
X45307900Y-96075954D01*
X45254300Y-96056868D01*
X45085329Y-96036720D01*
X45078326Y-96037456D01*
X45078325Y-96037456D01*
X44923101Y-96053770D01*
X44923097Y-96053771D01*
X44916093Y-96054507D01*
X44909422Y-96056778D01*
X44761673Y-96107075D01*
X44761670Y-96107076D01*
X44755003Y-96109346D01*
X44749005Y-96113036D01*
X44749003Y-96113037D01*
X44616065Y-96194821D01*
X44616063Y-96194823D01*
X44610066Y-96198512D01*
X44605033Y-96203441D01*
X44509126Y-96297361D01*
X44488486Y-96317573D01*
X44396304Y-96460610D01*
X44338103Y-96620516D01*
X44316775Y-96789343D01*
X43829104Y-96789343D01*
X43818083Y-96782349D01*
X43768608Y-96750951D01*
X43608300Y-96693868D01*
X43439329Y-96673720D01*
X43432326Y-96674456D01*
X43432325Y-96674456D01*
X43277101Y-96690770D01*
X43277097Y-96690771D01*
X43270093Y-96691507D01*
X43263422Y-96693778D01*
X43115673Y-96744075D01*
X43115670Y-96744076D01*
X43109003Y-96746346D01*
X43103005Y-96750036D01*
X43103003Y-96750037D01*
X42970065Y-96831821D01*
X42970063Y-96831823D01*
X42964066Y-96835512D01*
X42959033Y-96840441D01*
X42865103Y-96932425D01*
X42842486Y-96954573D01*
X42838675Y-96960487D01*
X42838673Y-96960489D01*
X42798849Y-97022283D01*
X42750304Y-97097610D01*
X42692103Y-97257516D01*
X42670775Y-97426343D01*
X39712500Y-97426343D01*
X39712500Y-97018866D01*
X39705745Y-96956684D01*
X39654615Y-96820295D01*
X39567261Y-96703739D01*
X39450705Y-96616385D01*
X39314316Y-96565255D01*
X39252134Y-96558500D01*
X37455866Y-96558500D01*
X37393684Y-96565255D01*
X37257295Y-96616385D01*
X37140739Y-96703739D01*
X37053385Y-96820295D01*
X37002255Y-96956684D01*
X36995500Y-97018866D01*
X36995500Y-98815134D01*
X31819269Y-98815134D01*
X31770431Y-98620702D01*
X31681354Y-98415840D01*
X31560014Y-98228277D01*
X31409670Y-98063051D01*
X31405619Y-98059852D01*
X31405615Y-98059848D01*
X31238414Y-97927800D01*
X31238410Y-97927798D01*
X31234359Y-97924598D01*
X31193053Y-97901796D01*
X31143084Y-97851364D01*
X31128312Y-97781921D01*
X31153428Y-97715516D01*
X31180780Y-97688909D01*
X31224603Y-97657650D01*
X31359860Y-97561173D01*
X31518096Y-97403489D01*
X31577594Y-97320689D01*
X31645435Y-97226277D01*
X31648453Y-97222077D01*
X31681717Y-97154773D01*
X31745136Y-97026453D01*
X31745137Y-97026451D01*
X31747430Y-97021811D01*
X31808346Y-96821313D01*
X31810865Y-96813023D01*
X31810865Y-96813021D01*
X31812370Y-96808069D01*
X31841529Y-96586590D01*
X31842206Y-96558869D01*
X31843074Y-96523365D01*
X31843074Y-96523361D01*
X31843156Y-96520000D01*
X31824852Y-96297361D01*
X31770431Y-96080702D01*
X31681354Y-95875840D01*
X31560014Y-95688277D01*
X31409670Y-95523051D01*
X31405619Y-95519852D01*
X31405615Y-95519848D01*
X31238414Y-95387800D01*
X31238410Y-95387798D01*
X31234359Y-95384598D01*
X31193053Y-95361796D01*
X31143084Y-95311364D01*
X31128312Y-95241921D01*
X31153428Y-95175516D01*
X31180780Y-95148909D01*
X31224603Y-95117650D01*
X31359860Y-95021173D01*
X31518096Y-94863489D01*
X31521794Y-94858343D01*
X47496775Y-94858343D01*
X47513381Y-95027699D01*
X47567094Y-95189167D01*
X47570741Y-95195189D01*
X47570742Y-95195191D01*
X47603436Y-95249174D01*
X47655246Y-95334723D01*
X47773455Y-95457132D01*
X47915846Y-95550310D01*
X47922450Y-95552766D01*
X47922452Y-95552767D01*
X47958844Y-95566301D01*
X48075341Y-95609626D01*
X48244015Y-95632132D01*
X48251026Y-95631494D01*
X48251030Y-95631494D01*
X48406462Y-95617348D01*
X48413483Y-95616709D01*
X48420185Y-95614531D01*
X48420187Y-95614531D01*
X48548094Y-95572971D01*
X48619061Y-95570943D01*
X48630950Y-95574707D01*
X48671872Y-95589926D01*
X48724844Y-95609626D01*
X48893518Y-95632132D01*
X48900529Y-95631494D01*
X48900533Y-95631494D01*
X49055965Y-95617348D01*
X49062986Y-95616709D01*
X49069688Y-95614531D01*
X49069690Y-95614531D01*
X49197597Y-95572971D01*
X49268564Y-95570943D01*
X49280453Y-95574707D01*
X49321375Y-95589926D01*
X49374347Y-95609626D01*
X49543021Y-95632132D01*
X49550032Y-95631494D01*
X49550036Y-95631494D01*
X49705468Y-95617348D01*
X49712489Y-95616709D01*
X49719191Y-95614531D01*
X49719193Y-95614531D01*
X49847100Y-95572971D01*
X49918067Y-95570943D01*
X49929956Y-95574707D01*
X49970878Y-95589926D01*
X50023850Y-95609626D01*
X50192524Y-95632132D01*
X50199535Y-95631494D01*
X50199539Y-95631494D01*
X50354971Y-95617348D01*
X50361992Y-95616709D01*
X50368694Y-95614531D01*
X50368696Y-95614531D01*
X50517132Y-95566301D01*
X50517135Y-95566300D01*
X50523831Y-95564124D01*
X50669999Y-95476990D01*
X50675093Y-95472139D01*
X50675097Y-95472136D01*
X50782757Y-95369612D01*
X50793230Y-95359639D01*
X50887400Y-95217902D01*
X50947828Y-95058825D01*
X50971510Y-94890313D01*
X50971808Y-94869000D01*
X50952840Y-94699892D01*
X50896877Y-94539189D01*
X50890892Y-94529610D01*
X50857927Y-94476857D01*
X50806701Y-94394879D01*
X50799512Y-94387639D01*
X50691757Y-94279129D01*
X50686795Y-94274132D01*
X50677242Y-94268069D01*
X50597606Y-94217531D01*
X50543117Y-94182951D01*
X50382809Y-94125868D01*
X50213838Y-94105720D01*
X50206835Y-94106456D01*
X50206834Y-94106456D01*
X50051610Y-94122770D01*
X50051606Y-94122771D01*
X50044602Y-94123507D01*
X49923600Y-94164699D01*
X49852670Y-94167717D01*
X49840735Y-94164122D01*
X49733306Y-94125868D01*
X49564335Y-94105720D01*
X49557332Y-94106456D01*
X49557331Y-94106456D01*
X49402107Y-94122770D01*
X49402103Y-94122771D01*
X49395099Y-94123507D01*
X49274097Y-94164699D01*
X49203167Y-94167717D01*
X49191232Y-94164122D01*
X49083803Y-94125868D01*
X48914832Y-94105720D01*
X48907829Y-94106456D01*
X48907828Y-94106456D01*
X48752604Y-94122770D01*
X48752600Y-94122771D01*
X48745596Y-94123507D01*
X48624594Y-94164699D01*
X48553664Y-94167717D01*
X48541729Y-94164122D01*
X48434300Y-94125868D01*
X48265329Y-94105720D01*
X48258326Y-94106456D01*
X48258325Y-94106456D01*
X48103101Y-94122770D01*
X48103097Y-94122771D01*
X48096093Y-94123507D01*
X48089422Y-94125778D01*
X47941673Y-94176075D01*
X47941670Y-94176076D01*
X47935003Y-94178346D01*
X47929005Y-94182036D01*
X47929003Y-94182037D01*
X47796065Y-94263821D01*
X47796063Y-94263823D01*
X47790066Y-94267512D01*
X47668486Y-94386573D01*
X47664675Y-94392487D01*
X47664673Y-94392489D01*
X47604117Y-94486453D01*
X47576304Y-94529610D01*
X47573894Y-94536232D01*
X47520811Y-94682077D01*
X47518103Y-94689516D01*
X47496775Y-94858343D01*
X31521794Y-94858343D01*
X31526820Y-94851349D01*
X31645435Y-94686277D01*
X31648453Y-94682077D01*
X31723807Y-94529610D01*
X31745136Y-94486453D01*
X31745137Y-94486451D01*
X31747430Y-94481811D01*
X31812370Y-94268069D01*
X31841529Y-94046590D01*
X31843156Y-93980000D01*
X31824852Y-93757361D01*
X31770431Y-93540702D01*
X31735925Y-93461343D01*
X42670775Y-93461343D01*
X42687381Y-93630699D01*
X42741094Y-93792167D01*
X42744741Y-93798189D01*
X42744742Y-93798191D01*
X42758497Y-93820902D01*
X42829246Y-93937723D01*
X42947455Y-94060132D01*
X43089846Y-94153310D01*
X43096450Y-94155766D01*
X43096452Y-94155767D01*
X43167090Y-94182037D01*
X43249341Y-94212626D01*
X43418015Y-94235132D01*
X43425026Y-94234494D01*
X43425030Y-94234494D01*
X43580462Y-94220348D01*
X43587483Y-94219709D01*
X43594185Y-94217531D01*
X43594187Y-94217531D01*
X43742623Y-94169301D01*
X43742626Y-94169300D01*
X43749322Y-94167124D01*
X43895490Y-94079990D01*
X43900584Y-94075139D01*
X43900588Y-94075136D01*
X43967833Y-94011099D01*
X44018721Y-93962639D01*
X44112891Y-93820902D01*
X44173319Y-93661825D01*
X44197001Y-93493313D01*
X44197299Y-93472000D01*
X44178331Y-93302892D01*
X44122368Y-93142189D01*
X44116909Y-93133452D01*
X44061094Y-93044132D01*
X44032192Y-92997879D01*
X43912286Y-92877132D01*
X43896039Y-92866821D01*
X43857086Y-92842101D01*
X43768608Y-92785951D01*
X43608300Y-92728868D01*
X43439329Y-92708720D01*
X43432326Y-92709456D01*
X43432325Y-92709456D01*
X43277101Y-92725770D01*
X43277097Y-92725771D01*
X43270093Y-92726507D01*
X43263422Y-92728778D01*
X43115673Y-92779075D01*
X43115670Y-92779076D01*
X43109003Y-92781346D01*
X43103005Y-92785036D01*
X43103003Y-92785037D01*
X42970065Y-92866821D01*
X42970063Y-92866823D01*
X42964066Y-92870512D01*
X42959033Y-92875441D01*
X42868096Y-92964494D01*
X42842486Y-92989573D01*
X42838675Y-92995487D01*
X42838673Y-92995489D01*
X42804838Y-93047990D01*
X42750304Y-93132610D01*
X42692103Y-93292516D01*
X42670775Y-93461343D01*
X31735925Y-93461343D01*
X31681354Y-93335840D01*
X31605852Y-93219132D01*
X31562822Y-93152617D01*
X31562820Y-93152614D01*
X31560014Y-93148277D01*
X31409670Y-92983051D01*
X31405619Y-92979852D01*
X31405615Y-92979848D01*
X31238414Y-92847800D01*
X31238410Y-92847798D01*
X31234359Y-92844598D01*
X31192569Y-92821529D01*
X31142598Y-92771097D01*
X31127826Y-92701654D01*
X31152942Y-92635248D01*
X31180294Y-92608641D01*
X31355328Y-92483792D01*
X31363200Y-92477139D01*
X31514052Y-92326812D01*
X31520730Y-92318965D01*
X31612435Y-92191343D01*
X40384775Y-92191343D01*
X40401381Y-92360699D01*
X40455094Y-92522167D01*
X40458741Y-92528189D01*
X40458742Y-92528191D01*
X40534908Y-92653955D01*
X40543246Y-92667723D01*
X40661455Y-92790132D01*
X40684026Y-92804902D01*
X40784289Y-92870512D01*
X40803846Y-92883310D01*
X40810450Y-92885766D01*
X40810452Y-92885767D01*
X40846844Y-92899301D01*
X40963341Y-92942626D01*
X41132015Y-92965132D01*
X41139026Y-92964494D01*
X41139030Y-92964494D01*
X41294462Y-92950348D01*
X41301483Y-92949709D01*
X41308185Y-92947531D01*
X41308187Y-92947531D01*
X41456623Y-92899301D01*
X41456626Y-92899300D01*
X41463322Y-92897124D01*
X41609490Y-92809990D01*
X41614584Y-92805139D01*
X41614588Y-92805136D01*
X41700464Y-92723357D01*
X41732721Y-92692639D01*
X41759447Y-92652414D01*
X41822990Y-92556773D01*
X41826891Y-92550902D01*
X41866989Y-92445343D01*
X45210775Y-92445343D01*
X45227381Y-92614699D01*
X45281094Y-92776167D01*
X45284741Y-92782189D01*
X45284742Y-92782191D01*
X45355667Y-92899301D01*
X45369246Y-92921723D01*
X45487455Y-93044132D01*
X45493351Y-93047990D01*
X45622664Y-93132610D01*
X45629846Y-93137310D01*
X45636450Y-93139766D01*
X45636452Y-93139767D01*
X45671005Y-93152617D01*
X45789341Y-93196626D01*
X45958015Y-93219132D01*
X45965026Y-93218494D01*
X45965030Y-93218494D01*
X46120462Y-93204348D01*
X46127483Y-93203709D01*
X46134185Y-93201531D01*
X46134187Y-93201531D01*
X46282623Y-93153301D01*
X46282626Y-93153300D01*
X46289322Y-93151124D01*
X46435490Y-93063990D01*
X46440584Y-93059139D01*
X46440588Y-93059136D01*
X46516474Y-92986870D01*
X46558721Y-92946639D01*
X46652891Y-92804902D01*
X46713319Y-92645825D01*
X46737001Y-92477313D01*
X46737299Y-92456000D01*
X46718331Y-92286892D01*
X46662368Y-92126189D01*
X46656383Y-92116610D01*
X46593449Y-92015897D01*
X46572192Y-91981879D01*
X46452286Y-91861132D01*
X46436039Y-91850821D01*
X46314558Y-91773727D01*
X46308608Y-91769951D01*
X46301972Y-91767588D01*
X46298864Y-91766072D01*
X46246407Y-91718231D01*
X46228142Y-91649624D01*
X46249868Y-91582033D01*
X46304688Y-91536918D01*
X46315165Y-91532992D01*
X46409623Y-91502301D01*
X46409626Y-91502300D01*
X46416322Y-91500124D01*
X46562490Y-91412990D01*
X46567584Y-91408139D01*
X46567588Y-91408136D01*
X46634833Y-91344099D01*
X46685721Y-91295639D01*
X46779891Y-91153902D01*
X46840319Y-90994825D01*
X46864001Y-90826313D01*
X46864299Y-90805000D01*
X46845331Y-90635892D01*
X46789368Y-90475189D01*
X46783383Y-90465610D01*
X46757849Y-90424748D01*
X46699192Y-90330879D01*
X46658634Y-90290036D01*
X46584248Y-90215129D01*
X46579286Y-90210132D01*
X46563039Y-90199821D01*
X46451975Y-90129338D01*
X46435608Y-90118951D01*
X46275300Y-90061868D01*
X46106329Y-90041720D01*
X46099326Y-90042456D01*
X46099325Y-90042456D01*
X45944101Y-90058770D01*
X45944097Y-90058771D01*
X45937093Y-90059507D01*
X45930422Y-90061778D01*
X45782673Y-90112075D01*
X45782670Y-90112076D01*
X45776003Y-90114346D01*
X45770005Y-90118036D01*
X45770003Y-90118037D01*
X45637065Y-90199821D01*
X45637063Y-90199823D01*
X45631066Y-90203512D01*
X45586692Y-90246967D01*
X45524141Y-90308222D01*
X45509486Y-90322573D01*
X45417304Y-90465610D01*
X45359103Y-90625516D01*
X45337775Y-90794343D01*
X45354381Y-90963699D01*
X45408094Y-91125167D01*
X45411741Y-91131189D01*
X45411742Y-91131191D01*
X45442530Y-91182027D01*
X45496246Y-91270723D01*
X45614455Y-91393132D01*
X45756846Y-91486310D01*
X45763450Y-91488766D01*
X45765381Y-91489484D01*
X45766444Y-91490278D01*
X45769736Y-91491941D01*
X45769444Y-91492520D01*
X45822256Y-91531979D01*
X45847128Y-91598476D01*
X45832100Y-91667864D01*
X45781944Y-91718112D01*
X45762062Y-91726858D01*
X45655673Y-91763075D01*
X45655670Y-91763076D01*
X45649003Y-91765346D01*
X45643005Y-91769036D01*
X45643003Y-91769037D01*
X45510065Y-91850821D01*
X45510063Y-91850823D01*
X45504066Y-91854512D01*
X45382486Y-91973573D01*
X45378675Y-91979487D01*
X45378673Y-91979489D01*
X45327564Y-92058794D01*
X45290304Y-92116610D01*
X45287894Y-92123232D01*
X45242228Y-92248699D01*
X45232103Y-92276516D01*
X45210775Y-92445343D01*
X41866989Y-92445343D01*
X41887319Y-92391825D01*
X41911001Y-92223313D01*
X41911299Y-92202000D01*
X41892331Y-92032892D01*
X41836368Y-91872189D01*
X41832582Y-91866129D01*
X41774841Y-91773727D01*
X41746192Y-91727879D01*
X41626286Y-91607132D01*
X41612647Y-91598476D01*
X41529368Y-91545626D01*
X41482608Y-91515951D01*
X41322300Y-91458868D01*
X41153329Y-91438720D01*
X41146326Y-91439456D01*
X41146325Y-91439456D01*
X40991101Y-91455770D01*
X40991097Y-91455771D01*
X40984093Y-91456507D01*
X40977422Y-91458778D01*
X40829673Y-91509075D01*
X40829670Y-91509076D01*
X40823003Y-91511346D01*
X40817005Y-91515036D01*
X40817003Y-91515037D01*
X40684065Y-91596821D01*
X40684063Y-91596823D01*
X40678066Y-91600512D01*
X40673033Y-91605441D01*
X40568339Y-91707966D01*
X40556486Y-91719573D01*
X40552675Y-91725487D01*
X40552673Y-91725489D01*
X40469523Y-91854512D01*
X40464304Y-91862610D01*
X40406103Y-92022516D01*
X40384775Y-92191343D01*
X31612435Y-92191343D01*
X31645003Y-92146020D01*
X31650313Y-92137183D01*
X31744670Y-91946267D01*
X31748469Y-91936672D01*
X31810377Y-91732910D01*
X31812555Y-91722837D01*
X31813986Y-91711962D01*
X31811775Y-91697778D01*
X31798617Y-91694000D01*
X29163225Y-91694000D01*
X29149694Y-91697973D01*
X29148257Y-91707966D01*
X29178565Y-91842446D01*
X29181645Y-91852275D01*
X29261770Y-92049603D01*
X29266413Y-92058794D01*
X29377694Y-92240388D01*
X29383777Y-92248699D01*
X29523213Y-92409667D01*
X29530580Y-92416883D01*
X29694434Y-92552916D01*
X29702881Y-92558831D01*
X29771969Y-92599203D01*
X29820693Y-92650842D01*
X29833764Y-92720625D01*
X29807033Y-92786396D01*
X29766584Y-92819752D01*
X29753607Y-92826507D01*
X29749474Y-92829610D01*
X29749471Y-92829612D01*
X29589517Y-92949709D01*
X29574965Y-92960635D01*
X29571393Y-92964373D01*
X29472753Y-93067594D01*
X29420629Y-93122138D01*
X29294743Y-93306680D01*
X29279003Y-93340590D01*
X29216166Y-93475961D01*
X29200688Y-93509305D01*
X29140989Y-93724570D01*
X29117251Y-93946695D01*
X29117548Y-93951848D01*
X29117548Y-93951851D01*
X29126468Y-94106554D01*
X29130110Y-94169715D01*
X29131247Y-94174761D01*
X29131248Y-94174767D01*
X29151119Y-94262939D01*
X29179222Y-94387639D01*
X29263266Y-94594616D01*
X29379987Y-94785088D01*
X29526250Y-94953938D01*
X29698126Y-95096632D01*
X29768595Y-95137811D01*
X29771445Y-95139476D01*
X29820169Y-95191114D01*
X29833240Y-95260897D01*
X29806509Y-95326669D01*
X29766055Y-95360027D01*
X29753607Y-95366507D01*
X29749474Y-95369610D01*
X29749471Y-95369612D01*
X29627767Y-95460990D01*
X29574965Y-95500635D01*
X29420629Y-95662138D01*
X29294743Y-95846680D01*
X29279003Y-95880590D01*
X29206143Y-96037554D01*
X29200688Y-96049305D01*
X29140989Y-96264570D01*
X29117251Y-96486695D01*
X29117548Y-96491848D01*
X29117548Y-96491851D01*
X29125370Y-96627506D01*
X29130110Y-96709715D01*
X29131247Y-96714761D01*
X29131248Y-96714767D01*
X29152275Y-96808069D01*
X29179222Y-96927639D01*
X29216265Y-97018866D01*
X29248240Y-97097610D01*
X29263266Y-97134616D01*
X29273261Y-97150926D01*
X29358877Y-97290639D01*
X29379987Y-97325088D01*
X29526250Y-97493938D01*
X29698126Y-97636632D01*
X29768595Y-97677811D01*
X29771445Y-97679476D01*
X29820169Y-97731114D01*
X29833240Y-97800897D01*
X29806509Y-97866669D01*
X29766055Y-97900027D01*
X29753607Y-97906507D01*
X29749474Y-97909610D01*
X29749471Y-97909612D01*
X29579100Y-98037530D01*
X29574965Y-98040635D01*
X29571393Y-98044373D01*
X29437285Y-98184709D01*
X29420629Y-98202138D01*
X29294743Y-98386680D01*
X29200688Y-98589305D01*
X29140989Y-98804570D01*
X29117251Y-99026695D01*
X29117548Y-99031848D01*
X29117548Y-99031851D01*
X29123011Y-99126590D01*
X29130110Y-99249715D01*
X29131247Y-99254761D01*
X29131248Y-99254767D01*
X29148053Y-99329333D01*
X29179222Y-99467639D01*
X29263266Y-99674616D01*
X29265965Y-99679020D01*
X29351018Y-99817814D01*
X29379987Y-99865088D01*
X29526250Y-100033938D01*
X29698126Y-100176632D01*
X29736451Y-100199027D01*
X29771445Y-100219476D01*
X29820169Y-100271114D01*
X29833240Y-100340897D01*
X29806509Y-100406669D01*
X29766055Y-100440027D01*
X29753607Y-100446507D01*
X29749474Y-100449610D01*
X29749471Y-100449612D01*
X29725247Y-100467800D01*
X29574965Y-100580635D01*
X29571393Y-100584373D01*
X29446589Y-100714973D01*
X29420629Y-100742138D01*
X29417715Y-100746410D01*
X29417714Y-100746411D01*
X29340752Y-100859233D01*
X29294743Y-100926680D01*
X29279003Y-100960590D01*
X29203388Y-101123489D01*
X29200688Y-101129305D01*
X29140989Y-101344570D01*
X29117251Y-101566695D01*
X27940000Y-101566695D01*
X27940000Y-88866695D01*
X29117251Y-88866695D01*
X29117548Y-88871848D01*
X29117548Y-88871851D01*
X29124982Y-89000773D01*
X29130110Y-89089715D01*
X29131247Y-89094761D01*
X29131248Y-89094767D01*
X29151119Y-89182939D01*
X29179222Y-89307639D01*
X29263266Y-89514616D01*
X29379987Y-89705088D01*
X29526250Y-89873938D01*
X29698126Y-90016632D01*
X29770237Y-90058770D01*
X29771955Y-90059774D01*
X29820679Y-90111412D01*
X29833750Y-90181195D01*
X29807019Y-90246967D01*
X29766562Y-90280327D01*
X29758457Y-90284546D01*
X29749738Y-90290036D01*
X29579433Y-90417905D01*
X29571726Y-90424748D01*
X29424590Y-90578717D01*
X29418104Y-90586727D01*
X29298098Y-90762649D01*
X29293000Y-90771623D01*
X29203338Y-90964783D01*
X29199775Y-90974470D01*
X29144389Y-91174183D01*
X29145912Y-91182607D01*
X29158292Y-91186000D01*
X31798344Y-91186000D01*
X31811875Y-91182027D01*
X31813180Y-91172947D01*
X31771214Y-91005875D01*
X31767894Y-90996124D01*
X31682972Y-90800814D01*
X31678105Y-90791739D01*
X31562426Y-90612926D01*
X31556136Y-90604757D01*
X31412806Y-90447240D01*
X31405273Y-90440215D01*
X31238139Y-90308222D01*
X31229556Y-90302520D01*
X31192602Y-90282120D01*
X31142631Y-90231687D01*
X31127859Y-90162245D01*
X31152975Y-90095839D01*
X31180327Y-90069232D01*
X31218897Y-90041720D01*
X31359860Y-89941173D01*
X31518096Y-89783489D01*
X31577594Y-89700689D01*
X31645435Y-89606277D01*
X31648453Y-89602077D01*
X31744273Y-89408200D01*
X31745136Y-89406453D01*
X31745137Y-89406451D01*
X31747430Y-89401811D01*
X31812370Y-89188069D01*
X31841529Y-88966590D01*
X31843156Y-88900000D01*
X31824852Y-88677361D01*
X31770431Y-88460702D01*
X31681354Y-88255840D01*
X31618478Y-88158648D01*
X31562822Y-88072617D01*
X31562820Y-88072614D01*
X31560014Y-88068277D01*
X31409670Y-87903051D01*
X31405619Y-87899852D01*
X31405615Y-87899848D01*
X31238414Y-87767800D01*
X31238410Y-87767798D01*
X31234359Y-87764598D01*
X31201290Y-87746343D01*
X39241775Y-87746343D01*
X39258381Y-87915699D01*
X39312094Y-88077167D01*
X39315741Y-88083189D01*
X39315742Y-88083191D01*
X39396319Y-88216238D01*
X39400246Y-88222723D01*
X39518455Y-88345132D01*
X39524351Y-88348990D01*
X39628622Y-88417223D01*
X39660846Y-88438310D01*
X39667450Y-88440766D01*
X39667452Y-88440767D01*
X39708289Y-88455954D01*
X39820341Y-88497626D01*
X39989015Y-88520132D01*
X39996026Y-88519494D01*
X39996030Y-88519494D01*
X40151462Y-88505348D01*
X40158483Y-88504709D01*
X40165183Y-88502532D01*
X40165188Y-88502531D01*
X40222844Y-88483797D01*
X40293812Y-88481770D01*
X40354610Y-88518432D01*
X40385935Y-88582144D01*
X40386787Y-88619417D01*
X40384775Y-88635343D01*
X40401381Y-88804699D01*
X40455094Y-88966167D01*
X40458741Y-88972189D01*
X40458742Y-88972191D01*
X40529667Y-89089301D01*
X40543246Y-89111723D01*
X40661455Y-89234132D01*
X40667351Y-89237990D01*
X40773786Y-89307639D01*
X40803846Y-89327310D01*
X40810450Y-89329766D01*
X40810452Y-89329767D01*
X40846844Y-89343301D01*
X40963341Y-89386626D01*
X41132015Y-89409132D01*
X41139026Y-89408494D01*
X41139030Y-89408494D01*
X41294462Y-89394348D01*
X41301483Y-89393709D01*
X41308185Y-89391531D01*
X41308187Y-89391531D01*
X41456623Y-89343301D01*
X41456626Y-89343300D01*
X41463322Y-89341124D01*
X41609490Y-89253990D01*
X41614584Y-89249139D01*
X41614588Y-89249136D01*
X41714280Y-89154200D01*
X41732721Y-89136639D01*
X41826891Y-88994902D01*
X41887319Y-88835825D01*
X41911001Y-88667313D01*
X41911299Y-88646000D01*
X41892331Y-88476892D01*
X41888441Y-88465720D01*
X41859057Y-88381343D01*
X43432775Y-88381343D01*
X43449381Y-88550699D01*
X43503094Y-88712167D01*
X43506741Y-88718189D01*
X43506742Y-88718191D01*
X43581975Y-88842414D01*
X43591246Y-88857723D01*
X43709455Y-88980132D01*
X43851846Y-89073310D01*
X43858450Y-89075766D01*
X43858452Y-89075767D01*
X43894844Y-89089301D01*
X44011341Y-89132626D01*
X44180015Y-89155132D01*
X44187026Y-89154494D01*
X44187030Y-89154494D01*
X44342462Y-89140348D01*
X44349483Y-89139709D01*
X44356185Y-89137531D01*
X44356187Y-89137531D01*
X44504623Y-89089301D01*
X44504626Y-89089300D01*
X44511322Y-89087124D01*
X44657490Y-88999990D01*
X44662584Y-88995139D01*
X44662588Y-88995136D01*
X44729833Y-88931099D01*
X44780721Y-88882639D01*
X44807447Y-88842414D01*
X44870990Y-88746773D01*
X44874891Y-88740902D01*
X44914989Y-88635343D01*
X45210775Y-88635343D01*
X45227381Y-88804699D01*
X45281094Y-88966167D01*
X45284741Y-88972189D01*
X45284742Y-88972191D01*
X45355667Y-89089301D01*
X45369246Y-89111723D01*
X45487455Y-89234132D01*
X45493351Y-89237990D01*
X45599786Y-89307639D01*
X45629846Y-89327310D01*
X45636450Y-89329766D01*
X45636452Y-89329767D01*
X45672844Y-89343301D01*
X45789341Y-89386626D01*
X45958015Y-89409132D01*
X45965026Y-89408494D01*
X45965030Y-89408494D01*
X46120462Y-89394348D01*
X46127483Y-89393709D01*
X46134185Y-89391531D01*
X46134187Y-89391531D01*
X46282623Y-89343301D01*
X46282626Y-89343300D01*
X46289322Y-89341124D01*
X46435490Y-89253990D01*
X46440584Y-89249139D01*
X46440588Y-89249136D01*
X46540280Y-89154200D01*
X46558721Y-89136639D01*
X46652891Y-88994902D01*
X46701593Y-88866695D01*
X54517251Y-88866695D01*
X54517548Y-88871848D01*
X54517548Y-88871851D01*
X54524982Y-89000773D01*
X54530110Y-89089715D01*
X54531247Y-89094761D01*
X54531248Y-89094767D01*
X54551119Y-89182939D01*
X54579222Y-89307639D01*
X54663266Y-89514616D01*
X54779987Y-89705088D01*
X54926250Y-89873938D01*
X55098126Y-90016632D01*
X55170237Y-90058770D01*
X55171955Y-90059774D01*
X55220679Y-90111412D01*
X55233750Y-90181195D01*
X55207019Y-90246967D01*
X55166562Y-90280327D01*
X55158457Y-90284546D01*
X55149738Y-90290036D01*
X54979433Y-90417905D01*
X54971726Y-90424748D01*
X54824590Y-90578717D01*
X54818104Y-90586727D01*
X54698098Y-90762649D01*
X54693000Y-90771623D01*
X54603338Y-90964783D01*
X54599775Y-90974470D01*
X54544389Y-91174183D01*
X54545912Y-91182607D01*
X54558292Y-91186000D01*
X57198344Y-91186000D01*
X57211875Y-91182027D01*
X57213180Y-91172947D01*
X57171214Y-91005875D01*
X57167894Y-90996124D01*
X57082972Y-90800814D01*
X57078105Y-90791739D01*
X56962426Y-90612926D01*
X56956136Y-90604757D01*
X56812806Y-90447240D01*
X56805273Y-90440215D01*
X56638139Y-90308222D01*
X56629556Y-90302520D01*
X56592602Y-90282120D01*
X56542631Y-90231687D01*
X56527859Y-90162245D01*
X56552975Y-90095839D01*
X56580327Y-90069232D01*
X56618897Y-90041720D01*
X56759860Y-89941173D01*
X56918096Y-89783489D01*
X56977594Y-89700689D01*
X57045435Y-89606277D01*
X57048453Y-89602077D01*
X57144273Y-89408200D01*
X57145136Y-89406453D01*
X57145137Y-89406451D01*
X57147430Y-89401811D01*
X57212370Y-89188069D01*
X57241529Y-88966590D01*
X57243156Y-88900000D01*
X57224852Y-88677361D01*
X57170431Y-88460702D01*
X57081354Y-88255840D01*
X57018478Y-88158648D01*
X56962822Y-88072617D01*
X56962820Y-88072614D01*
X56960014Y-88068277D01*
X56809670Y-87903051D01*
X56805619Y-87899852D01*
X56805615Y-87899848D01*
X56638414Y-87767800D01*
X56638410Y-87767798D01*
X56634359Y-87764598D01*
X56593053Y-87741796D01*
X56543084Y-87691364D01*
X56528312Y-87621921D01*
X56553428Y-87555516D01*
X56580780Y-87528909D01*
X56624603Y-87497650D01*
X56759860Y-87401173D01*
X56918096Y-87243489D01*
X56977594Y-87160689D01*
X57045435Y-87066277D01*
X57048453Y-87062077D01*
X57071111Y-87016233D01*
X57145136Y-86866453D01*
X57145137Y-86866451D01*
X57147430Y-86861811D01*
X57212370Y-86648069D01*
X57241529Y-86426590D01*
X57243156Y-86360000D01*
X57224852Y-86137361D01*
X57170431Y-85920702D01*
X57081354Y-85715840D01*
X57005852Y-85599132D01*
X56962822Y-85532617D01*
X56962820Y-85532614D01*
X56960014Y-85528277D01*
X56809670Y-85363051D01*
X56805619Y-85359852D01*
X56805615Y-85359848D01*
X56638414Y-85227800D01*
X56638410Y-85227798D01*
X56634359Y-85224598D01*
X56593053Y-85201796D01*
X56543084Y-85151364D01*
X56528312Y-85081921D01*
X56553428Y-85015516D01*
X56580780Y-84988909D01*
X56624603Y-84957650D01*
X56759860Y-84861173D01*
X56767695Y-84853366D01*
X56914435Y-84707137D01*
X56918096Y-84703489D01*
X56944394Y-84666892D01*
X57045435Y-84526277D01*
X57048453Y-84522077D01*
X57056306Y-84506189D01*
X57145136Y-84326453D01*
X57145137Y-84326451D01*
X57147430Y-84321811D01*
X57203899Y-84135951D01*
X57210865Y-84113023D01*
X57210865Y-84113021D01*
X57212370Y-84108069D01*
X57241529Y-83886590D01*
X57243156Y-83820000D01*
X57224852Y-83597361D01*
X57170431Y-83380702D01*
X57081354Y-83175840D01*
X56960014Y-82988277D01*
X56809670Y-82823051D01*
X56805619Y-82819852D01*
X56805615Y-82819848D01*
X56638414Y-82687800D01*
X56638410Y-82687798D01*
X56634359Y-82684598D01*
X56593053Y-82661796D01*
X56543084Y-82611364D01*
X56528312Y-82541921D01*
X56553428Y-82475516D01*
X56580780Y-82448909D01*
X56624603Y-82417650D01*
X56759860Y-82321173D01*
X56784626Y-82296494D01*
X56914435Y-82167137D01*
X56918096Y-82163489D01*
X56937033Y-82137136D01*
X57045435Y-81986277D01*
X57048453Y-81982077D01*
X57094567Y-81888773D01*
X57145136Y-81786453D01*
X57145137Y-81786451D01*
X57147430Y-81781811D01*
X57212370Y-81568069D01*
X57241529Y-81346590D01*
X57243156Y-81280000D01*
X57224852Y-81057361D01*
X57170431Y-80840702D01*
X57081354Y-80635840D01*
X56960014Y-80448277D01*
X56809670Y-80283051D01*
X56805619Y-80279852D01*
X56805615Y-80279848D01*
X56638414Y-80147800D01*
X56638410Y-80147798D01*
X56634359Y-80144598D01*
X56592569Y-80121529D01*
X56542598Y-80071097D01*
X56527826Y-80001654D01*
X56552942Y-79935248D01*
X56580294Y-79908641D01*
X56755328Y-79783792D01*
X56763200Y-79777139D01*
X56914052Y-79626812D01*
X56920730Y-79618965D01*
X57045003Y-79446020D01*
X57050313Y-79437183D01*
X57144670Y-79246267D01*
X57148469Y-79236672D01*
X57210377Y-79032910D01*
X57212555Y-79022837D01*
X57213986Y-79011962D01*
X57211775Y-78997778D01*
X57198617Y-78994000D01*
X54563225Y-78994000D01*
X54549694Y-78997973D01*
X54548257Y-79007966D01*
X54578565Y-79142446D01*
X54581645Y-79152275D01*
X54661770Y-79349603D01*
X54666413Y-79358794D01*
X54777694Y-79540388D01*
X54783777Y-79548699D01*
X54923213Y-79709667D01*
X54930580Y-79716883D01*
X55094434Y-79852916D01*
X55102881Y-79858831D01*
X55171969Y-79899203D01*
X55220693Y-79950842D01*
X55233764Y-80020625D01*
X55207033Y-80086396D01*
X55166584Y-80119752D01*
X55153607Y-80126507D01*
X55149474Y-80129610D01*
X55149471Y-80129612D01*
X55079525Y-80182129D01*
X54974965Y-80260635D01*
X54820629Y-80422138D01*
X54694743Y-80606680D01*
X54679003Y-80640590D01*
X54616166Y-80775961D01*
X54600688Y-80809305D01*
X54540989Y-81024570D01*
X54517251Y-81246695D01*
X54517548Y-81251848D01*
X54517548Y-81251851D01*
X54529812Y-81464547D01*
X54530110Y-81469715D01*
X54531247Y-81474761D01*
X54531248Y-81474767D01*
X54550282Y-81559223D01*
X54579222Y-81687639D01*
X54617461Y-81781811D01*
X54649288Y-81860191D01*
X54663266Y-81894616D01*
X54665965Y-81899020D01*
X54745922Y-82029498D01*
X54779987Y-82085088D01*
X54926250Y-82253938D01*
X55098126Y-82396632D01*
X55168595Y-82437811D01*
X55171445Y-82439476D01*
X55220169Y-82491114D01*
X55233240Y-82560897D01*
X55206509Y-82626669D01*
X55166055Y-82660027D01*
X55153607Y-82666507D01*
X55149474Y-82669610D01*
X55149471Y-82669612D01*
X55125247Y-82687800D01*
X54974965Y-82800635D01*
X54820629Y-82962138D01*
X54694743Y-83146680D01*
X54600688Y-83349305D01*
X54540989Y-83564570D01*
X54517251Y-83786695D01*
X54517548Y-83791848D01*
X54517548Y-83791851D01*
X54523011Y-83886590D01*
X54530110Y-84009715D01*
X54531247Y-84014761D01*
X54531248Y-84014767D01*
X54551119Y-84102939D01*
X54579222Y-84227639D01*
X54663266Y-84434616D01*
X54779987Y-84625088D01*
X54926250Y-84793938D01*
X55098126Y-84936632D01*
X55161543Y-84973690D01*
X55171445Y-84979476D01*
X55220169Y-85031114D01*
X55233240Y-85100897D01*
X55206509Y-85166669D01*
X55166055Y-85200027D01*
X55153607Y-85206507D01*
X55149474Y-85209610D01*
X55149471Y-85209612D01*
X54987134Y-85331498D01*
X54974965Y-85340635D01*
X54971393Y-85344373D01*
X54836575Y-85485452D01*
X54820629Y-85502138D01*
X54817715Y-85506410D01*
X54817714Y-85506411D01*
X54764014Y-85585132D01*
X54694743Y-85686680D01*
X54600688Y-85889305D01*
X54540989Y-86104570D01*
X54517251Y-86326695D01*
X54517548Y-86331848D01*
X54517548Y-86331851D01*
X54523011Y-86426590D01*
X54530110Y-86549715D01*
X54531247Y-86554761D01*
X54531248Y-86554767D01*
X54551119Y-86642939D01*
X54579222Y-86767639D01*
X54663266Y-86974616D01*
X54779987Y-87165088D01*
X54926250Y-87333938D01*
X55098126Y-87476632D01*
X55168595Y-87517811D01*
X55171445Y-87519476D01*
X55220169Y-87571114D01*
X55233240Y-87640897D01*
X55206509Y-87706669D01*
X55166055Y-87740027D01*
X55153607Y-87746507D01*
X55149474Y-87749610D01*
X55149471Y-87749612D01*
X54979100Y-87877530D01*
X54974965Y-87880635D01*
X54820629Y-88042138D01*
X54817715Y-88046410D01*
X54817714Y-88046411D01*
X54741151Y-88158648D01*
X54694743Y-88226680D01*
X54650104Y-88322846D01*
X54616166Y-88395961D01*
X54600688Y-88429305D01*
X54540989Y-88644570D01*
X54517251Y-88866695D01*
X46701593Y-88866695D01*
X46713319Y-88835825D01*
X46737001Y-88667313D01*
X46737299Y-88646000D01*
X46718331Y-88476892D01*
X46714441Y-88465720D01*
X46685057Y-88381343D01*
X46662368Y-88316189D01*
X46656383Y-88306610D01*
X46621940Y-88251492D01*
X46572192Y-88171879D01*
X46452286Y-88051132D01*
X46436039Y-88040821D01*
X46397406Y-88016304D01*
X46308608Y-87959951D01*
X46148300Y-87902868D01*
X45979329Y-87882720D01*
X45972326Y-87883456D01*
X45972325Y-87883456D01*
X45817101Y-87899770D01*
X45817097Y-87899771D01*
X45810093Y-87900507D01*
X45803422Y-87902778D01*
X45655673Y-87953075D01*
X45655670Y-87953076D01*
X45649003Y-87955346D01*
X45643005Y-87959036D01*
X45643003Y-87959037D01*
X45510065Y-88040821D01*
X45510063Y-88040823D01*
X45504066Y-88044512D01*
X45382486Y-88163573D01*
X45378675Y-88169487D01*
X45378673Y-88169489D01*
X45338790Y-88231375D01*
X45290304Y-88306610D01*
X45287894Y-88313232D01*
X45247356Y-88424610D01*
X45232103Y-88466516D01*
X45210775Y-88635343D01*
X44914989Y-88635343D01*
X44935319Y-88581825D01*
X44959001Y-88413313D01*
X44959299Y-88392000D01*
X44940331Y-88222892D01*
X44884368Y-88062189D01*
X44880582Y-88056129D01*
X44822843Y-87963730D01*
X44794192Y-87917879D01*
X44778458Y-87902034D01*
X44679248Y-87802129D01*
X44674286Y-87797132D01*
X44658039Y-87786821D01*
X44611048Y-87757000D01*
X44530608Y-87705951D01*
X44370300Y-87648868D01*
X44201329Y-87628720D01*
X44194326Y-87629456D01*
X44194325Y-87629456D01*
X44039101Y-87645770D01*
X44039097Y-87645771D01*
X44032093Y-87646507D01*
X44025422Y-87648778D01*
X43877673Y-87699075D01*
X43877670Y-87699076D01*
X43871003Y-87701346D01*
X43865005Y-87705036D01*
X43865003Y-87705037D01*
X43732065Y-87786821D01*
X43732063Y-87786823D01*
X43726066Y-87790512D01*
X43721033Y-87795441D01*
X43612185Y-87902034D01*
X43604486Y-87909573D01*
X43600675Y-87915487D01*
X43600673Y-87915489D01*
X43519053Y-88042138D01*
X43512304Y-88052610D01*
X43454103Y-88212516D01*
X43432775Y-88381343D01*
X41859057Y-88381343D01*
X41836368Y-88316189D01*
X41830383Y-88306610D01*
X41795940Y-88251492D01*
X41746192Y-88171879D01*
X41626286Y-88051132D01*
X41610039Y-88040821D01*
X41571406Y-88016304D01*
X41482608Y-87959951D01*
X41322300Y-87902868D01*
X41153329Y-87882720D01*
X41146326Y-87883456D01*
X41146325Y-87883456D01*
X40991101Y-87899770D01*
X40991097Y-87899771D01*
X40984093Y-87900507D01*
X40932989Y-87917904D01*
X40862058Y-87920922D01*
X40800754Y-87885112D01*
X40768543Y-87821843D01*
X40767726Y-87786224D01*
X40767147Y-87786179D01*
X40767451Y-87782224D01*
X40768001Y-87778313D01*
X40768299Y-87757000D01*
X40749331Y-87587892D01*
X40738057Y-87555516D01*
X40695686Y-87433846D01*
X40693368Y-87427189D01*
X40687383Y-87417610D01*
X40637161Y-87337240D01*
X40603192Y-87282879D01*
X40483286Y-87162132D01*
X40467039Y-87151821D01*
X40428406Y-87127304D01*
X40339608Y-87070951D01*
X40179300Y-87013868D01*
X40010329Y-86993720D01*
X40003326Y-86994456D01*
X40003325Y-86994456D01*
X39848101Y-87010770D01*
X39848097Y-87010771D01*
X39841093Y-87011507D01*
X39834422Y-87013778D01*
X39686673Y-87064075D01*
X39686670Y-87064076D01*
X39680003Y-87066346D01*
X39674005Y-87070036D01*
X39674003Y-87070037D01*
X39541065Y-87151821D01*
X39541063Y-87151823D01*
X39535066Y-87155512D01*
X39413486Y-87274573D01*
X39321304Y-87417610D01*
X39263103Y-87577516D01*
X39241775Y-87746343D01*
X31201290Y-87746343D01*
X31193053Y-87741796D01*
X31143084Y-87691364D01*
X31128312Y-87621921D01*
X31153428Y-87555516D01*
X31180780Y-87528909D01*
X31224603Y-87497650D01*
X31359860Y-87401173D01*
X31518096Y-87243489D01*
X31577594Y-87160689D01*
X31645435Y-87066277D01*
X31648453Y-87062077D01*
X31671111Y-87016233D01*
X31745136Y-86866453D01*
X31745137Y-86866451D01*
X31747430Y-86861811D01*
X31812370Y-86648069D01*
X31841529Y-86426590D01*
X31843156Y-86360000D01*
X31824852Y-86137361D01*
X31770431Y-85920702D01*
X31681354Y-85715840D01*
X31605852Y-85599132D01*
X31562822Y-85532617D01*
X31562820Y-85532614D01*
X31560014Y-85528277D01*
X31409670Y-85363051D01*
X31405619Y-85359852D01*
X31405615Y-85359848D01*
X31238414Y-85227800D01*
X31238410Y-85227798D01*
X31234359Y-85224598D01*
X31193053Y-85201796D01*
X31143084Y-85151364D01*
X31128312Y-85081921D01*
X31153428Y-85015516D01*
X31180780Y-84988909D01*
X31224603Y-84957650D01*
X31359860Y-84861173D01*
X31367695Y-84853366D01*
X31409865Y-84811343D01*
X43164775Y-84811343D01*
X43181381Y-84980699D01*
X43183605Y-84987384D01*
X43183605Y-84987385D01*
X43184112Y-84988909D01*
X43235094Y-85142167D01*
X43238741Y-85148189D01*
X43238742Y-85148191D01*
X43311120Y-85267700D01*
X43323246Y-85287723D01*
X43441455Y-85410132D01*
X43498703Y-85447594D01*
X43562452Y-85489310D01*
X43583846Y-85503310D01*
X43590450Y-85505766D01*
X43590452Y-85505767D01*
X43626844Y-85519301D01*
X43743341Y-85562626D01*
X43912015Y-85585132D01*
X43919026Y-85584494D01*
X43919030Y-85584494D01*
X44074462Y-85570348D01*
X44081483Y-85569709D01*
X44088185Y-85567531D01*
X44088187Y-85567531D01*
X44236623Y-85519301D01*
X44236626Y-85519300D01*
X44243322Y-85517124D01*
X44373307Y-85439637D01*
X44442062Y-85421937D01*
X44506817Y-85442434D01*
X44599846Y-85503310D01*
X44606450Y-85505766D01*
X44606452Y-85505767D01*
X44642844Y-85519301D01*
X44759341Y-85562626D01*
X44928015Y-85585132D01*
X44935026Y-85584494D01*
X44935030Y-85584494D01*
X45090462Y-85570348D01*
X45097483Y-85569709D01*
X45104185Y-85567531D01*
X45104187Y-85567531D01*
X45252623Y-85519301D01*
X45252626Y-85519300D01*
X45259322Y-85517124D01*
X45405490Y-85429990D01*
X45410584Y-85425139D01*
X45410588Y-85425136D01*
X45508917Y-85331498D01*
X45528721Y-85312639D01*
X45534795Y-85303498D01*
X45603540Y-85200027D01*
X45622891Y-85170902D01*
X45683319Y-85011825D01*
X45707001Y-84843313D01*
X45707299Y-84822000D01*
X45704533Y-84797343D01*
X46988775Y-84797343D01*
X47005381Y-84966699D01*
X47007605Y-84973384D01*
X47007605Y-84973385D01*
X47026809Y-85031114D01*
X47059094Y-85128167D01*
X47062741Y-85134189D01*
X47062742Y-85134191D01*
X47117495Y-85224598D01*
X47147246Y-85273723D01*
X47265455Y-85396132D01*
X47407846Y-85489310D01*
X47414450Y-85491766D01*
X47414452Y-85491767D01*
X47472939Y-85513518D01*
X47567341Y-85548626D01*
X47736015Y-85571132D01*
X47743026Y-85570494D01*
X47743030Y-85570494D01*
X47898462Y-85556348D01*
X47905483Y-85555709D01*
X47912185Y-85553531D01*
X47912187Y-85553531D01*
X48060623Y-85505301D01*
X48060626Y-85505300D01*
X48067322Y-85503124D01*
X48213490Y-85415990D01*
X48218584Y-85411139D01*
X48218588Y-85411136D01*
X48295881Y-85337530D01*
X48336721Y-85298639D01*
X48347976Y-85281700D01*
X48416665Y-85178314D01*
X48430891Y-85156902D01*
X48491319Y-84997825D01*
X48515001Y-84829313D01*
X48515057Y-84825343D01*
X49020775Y-84825343D01*
X49037381Y-84994699D01*
X49091094Y-85156167D01*
X49094741Y-85162189D01*
X49094742Y-85162191D01*
X49173823Y-85292768D01*
X49179246Y-85301723D01*
X49297455Y-85424132D01*
X49327801Y-85443990D01*
X49423191Y-85506411D01*
X49439846Y-85517310D01*
X49446450Y-85519766D01*
X49446452Y-85519767D01*
X49481005Y-85532617D01*
X49599341Y-85576626D01*
X49768015Y-85599132D01*
X49775026Y-85598494D01*
X49775030Y-85598494D01*
X49930462Y-85584348D01*
X49937483Y-85583709D01*
X49944185Y-85581531D01*
X49944187Y-85581531D01*
X50092623Y-85533301D01*
X50092626Y-85533300D01*
X50099322Y-85531124D01*
X50245490Y-85443990D01*
X50250584Y-85439139D01*
X50250588Y-85439136D01*
X50326474Y-85366870D01*
X50368721Y-85326639D01*
X50374795Y-85317498D01*
X50415806Y-85255770D01*
X50462891Y-85184902D01*
X50523319Y-85025825D01*
X50547001Y-84857313D01*
X50547299Y-84836000D01*
X50528331Y-84666892D01*
X50521139Y-84646238D01*
X50474686Y-84512846D01*
X50472368Y-84506189D01*
X50466383Y-84496610D01*
X50444420Y-84461464D01*
X50382192Y-84361879D01*
X50360321Y-84339854D01*
X50324264Y-84303545D01*
X50262286Y-84241132D01*
X50246039Y-84230821D01*
X50201815Y-84202756D01*
X50118608Y-84149951D01*
X49958300Y-84092868D01*
X49789329Y-84072720D01*
X49782326Y-84073456D01*
X49782325Y-84073456D01*
X49627101Y-84089770D01*
X49627097Y-84089771D01*
X49620093Y-84090507D01*
X49613422Y-84092778D01*
X49465673Y-84143075D01*
X49465670Y-84143076D01*
X49459003Y-84145346D01*
X49453005Y-84149036D01*
X49453003Y-84149037D01*
X49320065Y-84230821D01*
X49320063Y-84230823D01*
X49314066Y-84234512D01*
X49192486Y-84353573D01*
X49188675Y-84359487D01*
X49188673Y-84359489D01*
X49109326Y-84482610D01*
X49100304Y-84496610D01*
X49097894Y-84503232D01*
X49047199Y-84642516D01*
X49042103Y-84656516D01*
X49020775Y-84825343D01*
X48515057Y-84825343D01*
X48515299Y-84808000D01*
X48496331Y-84638892D01*
X48440368Y-84478189D01*
X48434383Y-84468610D01*
X48371422Y-84367854D01*
X48350192Y-84333879D01*
X48230286Y-84213132D01*
X48215407Y-84203689D01*
X48175406Y-84178304D01*
X48086608Y-84121951D01*
X47926300Y-84064868D01*
X47757329Y-84044720D01*
X47750326Y-84045456D01*
X47750325Y-84045456D01*
X47595101Y-84061770D01*
X47595097Y-84061771D01*
X47588093Y-84062507D01*
X47581422Y-84064778D01*
X47433673Y-84115075D01*
X47433670Y-84115076D01*
X47427003Y-84117346D01*
X47421005Y-84121036D01*
X47421003Y-84121037D01*
X47288065Y-84202821D01*
X47288063Y-84202823D01*
X47282066Y-84206512D01*
X47160486Y-84325573D01*
X47156675Y-84331487D01*
X47156673Y-84331489D01*
X47072121Y-84462687D01*
X47068304Y-84468610D01*
X47010103Y-84628516D01*
X46988775Y-84797343D01*
X45704533Y-84797343D01*
X45688331Y-84652892D01*
X45681139Y-84632238D01*
X45641161Y-84517438D01*
X45632368Y-84492189D01*
X45626383Y-84482610D01*
X45593401Y-84429829D01*
X45542192Y-84347879D01*
X45422286Y-84227132D01*
X45415139Y-84222596D01*
X45299228Y-84149037D01*
X45278608Y-84135951D01*
X45118300Y-84078868D01*
X44949329Y-84058720D01*
X44942326Y-84059456D01*
X44942325Y-84059456D01*
X44787101Y-84075770D01*
X44787097Y-84075771D01*
X44780093Y-84076507D01*
X44773422Y-84078778D01*
X44625673Y-84129075D01*
X44625670Y-84129076D01*
X44619003Y-84131346D01*
X44613005Y-84135036D01*
X44613003Y-84135037D01*
X44501411Y-84203689D01*
X44432910Y-84222347D01*
X44367877Y-84202757D01*
X44262608Y-84135951D01*
X44102300Y-84078868D01*
X43933329Y-84058720D01*
X43926326Y-84059456D01*
X43926325Y-84059456D01*
X43771101Y-84075770D01*
X43771097Y-84075771D01*
X43764093Y-84076507D01*
X43757422Y-84078778D01*
X43609673Y-84129075D01*
X43609670Y-84129076D01*
X43603003Y-84131346D01*
X43597005Y-84135036D01*
X43597003Y-84135037D01*
X43464065Y-84216821D01*
X43464063Y-84216823D01*
X43458066Y-84220512D01*
X43453033Y-84225441D01*
X43349884Y-84326453D01*
X43336486Y-84339573D01*
X43332675Y-84345487D01*
X43332673Y-84345489D01*
X43253326Y-84468610D01*
X43244304Y-84482610D01*
X43238395Y-84498846D01*
X43191199Y-84628516D01*
X43186103Y-84642516D01*
X43164775Y-84811343D01*
X31409865Y-84811343D01*
X31514435Y-84707137D01*
X31518096Y-84703489D01*
X31544394Y-84666892D01*
X31645435Y-84526277D01*
X31648453Y-84522077D01*
X31656306Y-84506189D01*
X31745136Y-84326453D01*
X31745137Y-84326451D01*
X31747430Y-84321811D01*
X31803899Y-84135951D01*
X31810865Y-84113023D01*
X31810865Y-84113021D01*
X31812370Y-84108069D01*
X31841529Y-83886590D01*
X31843156Y-83820000D01*
X31824852Y-83597361D01*
X31770431Y-83380702D01*
X31681354Y-83175840D01*
X31560014Y-82988277D01*
X31409670Y-82823051D01*
X31405619Y-82819852D01*
X31405615Y-82819848D01*
X31238414Y-82687800D01*
X31238410Y-82687798D01*
X31234359Y-82684598D01*
X31193053Y-82661796D01*
X31143084Y-82611364D01*
X31128312Y-82541921D01*
X31153428Y-82475516D01*
X31180780Y-82448909D01*
X31224603Y-82417650D01*
X31359860Y-82321173D01*
X31384626Y-82296494D01*
X31514435Y-82167137D01*
X31518096Y-82163489D01*
X31537033Y-82137136D01*
X31645435Y-81986277D01*
X31648453Y-81982077D01*
X31694567Y-81888773D01*
X31745136Y-81786453D01*
X31745137Y-81786451D01*
X31747430Y-81781811D01*
X31812370Y-81568069D01*
X31818258Y-81523343D01*
X48512775Y-81523343D01*
X48529381Y-81692699D01*
X48583094Y-81854167D01*
X48586741Y-81860189D01*
X48586742Y-81860191D01*
X48663103Y-81986277D01*
X48671246Y-81999723D01*
X48789455Y-82122132D01*
X48931846Y-82215310D01*
X48938450Y-82217766D01*
X48938452Y-82217767D01*
X48974844Y-82231301D01*
X49091341Y-82274626D01*
X49260015Y-82297132D01*
X49267026Y-82296494D01*
X49267030Y-82296494D01*
X49422462Y-82282348D01*
X49429483Y-82281709D01*
X49436185Y-82279531D01*
X49436187Y-82279531D01*
X49584623Y-82231301D01*
X49584626Y-82231300D01*
X49591322Y-82229124D01*
X49737490Y-82141990D01*
X49742584Y-82137139D01*
X49742588Y-82137136D01*
X49809833Y-82073099D01*
X49860721Y-82024639D01*
X49954891Y-81882902D01*
X50015319Y-81723825D01*
X50039001Y-81555313D01*
X50039299Y-81534000D01*
X50038104Y-81523343D01*
X50544775Y-81523343D01*
X50561381Y-81692699D01*
X50615094Y-81854167D01*
X50618741Y-81860189D01*
X50618742Y-81860191D01*
X50695103Y-81986277D01*
X50703246Y-81999723D01*
X50821455Y-82122132D01*
X50963846Y-82215310D01*
X50970450Y-82217766D01*
X50970452Y-82217767D01*
X51006844Y-82231301D01*
X51123341Y-82274626D01*
X51292015Y-82297132D01*
X51299026Y-82296494D01*
X51299030Y-82296494D01*
X51454462Y-82282348D01*
X51461483Y-82281709D01*
X51468185Y-82279531D01*
X51468187Y-82279531D01*
X51616623Y-82231301D01*
X51616626Y-82231300D01*
X51623322Y-82229124D01*
X51769490Y-82141990D01*
X51774584Y-82137139D01*
X51774588Y-82137136D01*
X51841833Y-82073099D01*
X51892721Y-82024639D01*
X51986891Y-81882902D01*
X52047319Y-81723825D01*
X52071001Y-81555313D01*
X52071299Y-81534000D01*
X52052331Y-81364892D01*
X51996368Y-81204189D01*
X51990383Y-81194610D01*
X51944324Y-81120902D01*
X51906192Y-81059879D01*
X51898708Y-81052342D01*
X51808821Y-80961825D01*
X51786286Y-80939132D01*
X51770039Y-80928821D01*
X51731406Y-80904304D01*
X51642608Y-80847951D01*
X51482300Y-80790868D01*
X51313329Y-80770720D01*
X51306326Y-80771456D01*
X51306325Y-80771456D01*
X51151101Y-80787770D01*
X51151097Y-80787771D01*
X51144093Y-80788507D01*
X51137422Y-80790778D01*
X50989673Y-80841075D01*
X50989670Y-80841076D01*
X50983003Y-80843346D01*
X50977005Y-80847036D01*
X50977003Y-80847037D01*
X50844065Y-80928821D01*
X50844063Y-80928823D01*
X50838066Y-80932512D01*
X50767510Y-81001607D01*
X50738815Y-81029707D01*
X50716486Y-81051573D01*
X50712675Y-81057487D01*
X50712673Y-81057489D01*
X50685107Y-81100263D01*
X50624304Y-81194610D01*
X50566103Y-81354516D01*
X50544775Y-81523343D01*
X50038104Y-81523343D01*
X50020331Y-81364892D01*
X49964368Y-81204189D01*
X49963983Y-81203572D01*
X49952989Y-81135964D01*
X49960227Y-81106854D01*
X49977068Y-81062522D01*
X50015319Y-80961825D01*
X50039001Y-80793313D01*
X50039299Y-80772000D01*
X50020331Y-80602892D01*
X49964368Y-80442189D01*
X49958383Y-80432610D01*
X49936420Y-80397464D01*
X49874192Y-80297879D01*
X49754286Y-80177132D01*
X49738039Y-80166821D01*
X49699086Y-80142101D01*
X49610608Y-80085951D01*
X49450300Y-80028868D01*
X49281329Y-80008720D01*
X49274326Y-80009456D01*
X49274325Y-80009456D01*
X49119101Y-80025770D01*
X49119097Y-80025771D01*
X49112093Y-80026507D01*
X49105422Y-80028778D01*
X48957673Y-80079075D01*
X48957670Y-80079076D01*
X48951003Y-80081346D01*
X48945005Y-80085036D01*
X48945003Y-80085037D01*
X48812065Y-80166821D01*
X48812063Y-80166823D01*
X48806066Y-80170512D01*
X48684486Y-80289573D01*
X48592304Y-80432610D01*
X48534103Y-80592516D01*
X48512775Y-80761343D01*
X48529381Y-80930699D01*
X48531605Y-80937384D01*
X48531605Y-80937385D01*
X48537413Y-80954845D01*
X48583094Y-81092167D01*
X48586743Y-81098193D01*
X48587700Y-81100263D01*
X48598117Y-81170491D01*
X48591723Y-81196207D01*
X48534103Y-81354516D01*
X48512775Y-81523343D01*
X31818258Y-81523343D01*
X31841529Y-81346590D01*
X31843156Y-81280000D01*
X31824852Y-81057361D01*
X31770431Y-80840702D01*
X31681354Y-80635840D01*
X31560014Y-80448277D01*
X31409670Y-80283051D01*
X31405619Y-80279852D01*
X31405615Y-80279848D01*
X31238414Y-80147800D01*
X31238410Y-80147798D01*
X31234359Y-80144598D01*
X31192569Y-80121529D01*
X31142598Y-80071097D01*
X31127826Y-80001654D01*
X31152942Y-79935248D01*
X31180294Y-79908641D01*
X31355328Y-79783792D01*
X31363200Y-79777139D01*
X31514052Y-79626812D01*
X31520730Y-79618965D01*
X31645003Y-79446020D01*
X31650313Y-79437183D01*
X31744670Y-79246267D01*
X31748469Y-79236672D01*
X31810377Y-79032910D01*
X31812555Y-79022837D01*
X31813986Y-79011962D01*
X31811775Y-78997778D01*
X31798617Y-78994000D01*
X29163225Y-78994000D01*
X29149694Y-78997973D01*
X29148257Y-79007966D01*
X29178565Y-79142446D01*
X29181645Y-79152275D01*
X29261770Y-79349603D01*
X29266413Y-79358794D01*
X29377694Y-79540388D01*
X29383777Y-79548699D01*
X29523213Y-79709667D01*
X29530580Y-79716883D01*
X29694434Y-79852916D01*
X29702881Y-79858831D01*
X29771969Y-79899203D01*
X29820693Y-79950842D01*
X29833764Y-80020625D01*
X29807033Y-80086396D01*
X29766584Y-80119752D01*
X29753607Y-80126507D01*
X29749474Y-80129610D01*
X29749471Y-80129612D01*
X29679525Y-80182129D01*
X29574965Y-80260635D01*
X29420629Y-80422138D01*
X29294743Y-80606680D01*
X29279003Y-80640590D01*
X29216166Y-80775961D01*
X29200688Y-80809305D01*
X29140989Y-81024570D01*
X29117251Y-81246695D01*
X29117548Y-81251848D01*
X29117548Y-81251851D01*
X29129812Y-81464547D01*
X29130110Y-81469715D01*
X29131247Y-81474761D01*
X29131248Y-81474767D01*
X29150282Y-81559223D01*
X29179222Y-81687639D01*
X29217461Y-81781811D01*
X29249288Y-81860191D01*
X29263266Y-81894616D01*
X29265965Y-81899020D01*
X29345922Y-82029498D01*
X29379987Y-82085088D01*
X29526250Y-82253938D01*
X29698126Y-82396632D01*
X29768595Y-82437811D01*
X29771445Y-82439476D01*
X29820169Y-82491114D01*
X29833240Y-82560897D01*
X29806509Y-82626669D01*
X29766055Y-82660027D01*
X29753607Y-82666507D01*
X29749474Y-82669610D01*
X29749471Y-82669612D01*
X29725247Y-82687800D01*
X29574965Y-82800635D01*
X29420629Y-82962138D01*
X29294743Y-83146680D01*
X29200688Y-83349305D01*
X29140989Y-83564570D01*
X29117251Y-83786695D01*
X29117548Y-83791848D01*
X29117548Y-83791851D01*
X29123011Y-83886590D01*
X29130110Y-84009715D01*
X29131247Y-84014761D01*
X29131248Y-84014767D01*
X29151119Y-84102939D01*
X29179222Y-84227639D01*
X29263266Y-84434616D01*
X29379987Y-84625088D01*
X29526250Y-84793938D01*
X29698126Y-84936632D01*
X29761543Y-84973690D01*
X29771445Y-84979476D01*
X29820169Y-85031114D01*
X29833240Y-85100897D01*
X29806509Y-85166669D01*
X29766055Y-85200027D01*
X29753607Y-85206507D01*
X29749474Y-85209610D01*
X29749471Y-85209612D01*
X29587134Y-85331498D01*
X29574965Y-85340635D01*
X29571393Y-85344373D01*
X29436575Y-85485452D01*
X29420629Y-85502138D01*
X29417715Y-85506410D01*
X29417714Y-85506411D01*
X29364014Y-85585132D01*
X29294743Y-85686680D01*
X29200688Y-85889305D01*
X29140989Y-86104570D01*
X29117251Y-86326695D01*
X29117548Y-86331848D01*
X29117548Y-86331851D01*
X29123011Y-86426590D01*
X29130110Y-86549715D01*
X29131247Y-86554761D01*
X29131248Y-86554767D01*
X29151119Y-86642939D01*
X29179222Y-86767639D01*
X29263266Y-86974616D01*
X29379987Y-87165088D01*
X29526250Y-87333938D01*
X29698126Y-87476632D01*
X29768595Y-87517811D01*
X29771445Y-87519476D01*
X29820169Y-87571114D01*
X29833240Y-87640897D01*
X29806509Y-87706669D01*
X29766055Y-87740027D01*
X29753607Y-87746507D01*
X29749474Y-87749610D01*
X29749471Y-87749612D01*
X29579100Y-87877530D01*
X29574965Y-87880635D01*
X29420629Y-88042138D01*
X29417715Y-88046410D01*
X29417714Y-88046411D01*
X29341151Y-88158648D01*
X29294743Y-88226680D01*
X29250104Y-88322846D01*
X29216166Y-88395961D01*
X29200688Y-88429305D01*
X29140989Y-88644570D01*
X29117251Y-88866695D01*
X27940000Y-88866695D01*
X27940000Y-76166695D01*
X29117251Y-76166695D01*
X29117548Y-76171848D01*
X29117548Y-76171851D01*
X29127684Y-76347648D01*
X29130110Y-76389715D01*
X29131247Y-76394761D01*
X29131248Y-76394767D01*
X29150282Y-76479223D01*
X29179222Y-76607639D01*
X29195975Y-76648897D01*
X29249288Y-76780191D01*
X29263266Y-76814616D01*
X29265965Y-76819020D01*
X29368713Y-76986690D01*
X29379987Y-77005088D01*
X29383367Y-77008990D01*
X29394352Y-77021671D01*
X29526250Y-77173938D01*
X29698126Y-77316632D01*
X29703493Y-77319768D01*
X29771955Y-77359774D01*
X29820679Y-77411412D01*
X29833750Y-77481195D01*
X29807019Y-77546967D01*
X29766562Y-77580327D01*
X29758457Y-77584546D01*
X29749738Y-77590036D01*
X29579433Y-77717905D01*
X29571726Y-77724748D01*
X29424590Y-77878717D01*
X29418104Y-77886727D01*
X29298098Y-78062649D01*
X29293000Y-78071623D01*
X29203338Y-78264783D01*
X29199775Y-78274470D01*
X29144389Y-78474183D01*
X29145912Y-78482607D01*
X29158292Y-78486000D01*
X31798344Y-78486000D01*
X31811875Y-78482027D01*
X31813180Y-78472947D01*
X31771214Y-78305875D01*
X31767894Y-78296124D01*
X31682972Y-78100814D01*
X31678105Y-78091739D01*
X31562426Y-77912926D01*
X31556136Y-77904757D01*
X31412806Y-77747240D01*
X31405273Y-77740215D01*
X31238139Y-77608222D01*
X31229556Y-77602520D01*
X31192602Y-77582120D01*
X31142631Y-77531687D01*
X31127859Y-77462245D01*
X31152975Y-77395839D01*
X31180327Y-77369232D01*
X31249673Y-77319768D01*
X31359860Y-77241173D01*
X31384626Y-77216494D01*
X31514435Y-77087137D01*
X31518096Y-77083489D01*
X31537033Y-77057136D01*
X31645435Y-76906277D01*
X31648453Y-76902077D01*
X31669139Y-76860223D01*
X31686872Y-76824343D01*
X41231775Y-76824343D01*
X41248381Y-76993699D01*
X41250605Y-77000384D01*
X41250605Y-77000385D01*
X41264492Y-77042132D01*
X41302094Y-77155167D01*
X41305741Y-77161189D01*
X41305742Y-77161191D01*
X41326556Y-77195558D01*
X41390246Y-77300723D01*
X41508455Y-77423132D01*
X41650846Y-77516310D01*
X41657450Y-77518766D01*
X41657452Y-77518767D01*
X41692193Y-77531687D01*
X41810341Y-77575626D01*
X41979015Y-77598132D01*
X41986026Y-77597494D01*
X41986030Y-77597494D01*
X42141462Y-77583348D01*
X42148483Y-77582709D01*
X42155185Y-77580531D01*
X42155187Y-77580531D01*
X42303623Y-77532301D01*
X42303626Y-77532300D01*
X42310322Y-77530124D01*
X42456490Y-77442990D01*
X42461584Y-77438139D01*
X42461588Y-77438136D01*
X42533944Y-77369232D01*
X42579721Y-77325639D01*
X42585706Y-77316632D01*
X42663507Y-77199531D01*
X42673891Y-77183902D01*
X42734319Y-77024825D01*
X42758001Y-76856313D01*
X42758299Y-76835000D01*
X42739331Y-76665892D01*
X42731647Y-76643825D01*
X42685686Y-76511846D01*
X42683368Y-76505189D01*
X42677383Y-76495610D01*
X42644722Y-76443343D01*
X45718775Y-76443343D01*
X45735381Y-76612699D01*
X45737605Y-76619384D01*
X45737605Y-76619385D01*
X45753076Y-76665892D01*
X45789094Y-76774167D01*
X45792741Y-76780189D01*
X45792742Y-76780191D01*
X45869103Y-76906277D01*
X45877246Y-76919723D01*
X45995455Y-77042132D01*
X46137846Y-77135310D01*
X46144450Y-77137766D01*
X46144452Y-77137767D01*
X46217593Y-77164968D01*
X46297341Y-77194626D01*
X46466015Y-77217132D01*
X46473026Y-77216494D01*
X46473030Y-77216494D01*
X46628462Y-77202348D01*
X46635483Y-77201709D01*
X46642185Y-77199531D01*
X46642187Y-77199531D01*
X46790623Y-77151301D01*
X46790626Y-77151300D01*
X46797322Y-77149124D01*
X46943490Y-77061990D01*
X46948584Y-77057139D01*
X46948588Y-77057136D01*
X47022563Y-76986690D01*
X47066721Y-76944639D01*
X47160891Y-76802902D01*
X47221319Y-76643825D01*
X47245001Y-76475313D01*
X47245299Y-76454000D01*
X47226331Y-76284892D01*
X47208439Y-76233512D01*
X47185171Y-76166695D01*
X54517251Y-76166695D01*
X54517548Y-76171848D01*
X54517548Y-76171851D01*
X54527684Y-76347648D01*
X54530110Y-76389715D01*
X54531247Y-76394761D01*
X54531248Y-76394767D01*
X54550282Y-76479223D01*
X54579222Y-76607639D01*
X54595975Y-76648897D01*
X54649288Y-76780191D01*
X54663266Y-76814616D01*
X54665965Y-76819020D01*
X54768713Y-76986690D01*
X54779987Y-77005088D01*
X54783367Y-77008990D01*
X54794352Y-77021671D01*
X54926250Y-77173938D01*
X55098126Y-77316632D01*
X55103493Y-77319768D01*
X55171955Y-77359774D01*
X55220679Y-77411412D01*
X55233750Y-77481195D01*
X55207019Y-77546967D01*
X55166562Y-77580327D01*
X55158457Y-77584546D01*
X55149738Y-77590036D01*
X54979433Y-77717905D01*
X54971726Y-77724748D01*
X54824590Y-77878717D01*
X54818104Y-77886727D01*
X54698098Y-78062649D01*
X54693000Y-78071623D01*
X54603338Y-78264783D01*
X54599775Y-78274470D01*
X54544389Y-78474183D01*
X54545912Y-78482607D01*
X54558292Y-78486000D01*
X57198344Y-78486000D01*
X57211875Y-78482027D01*
X57213180Y-78472947D01*
X57171214Y-78305875D01*
X57167894Y-78296124D01*
X57082972Y-78100814D01*
X57078105Y-78091739D01*
X56962426Y-77912926D01*
X56956136Y-77904757D01*
X56812806Y-77747240D01*
X56805273Y-77740215D01*
X56638139Y-77608222D01*
X56629556Y-77602520D01*
X56592602Y-77582120D01*
X56542631Y-77531687D01*
X56527859Y-77462245D01*
X56552975Y-77395839D01*
X56580327Y-77369232D01*
X56649673Y-77319768D01*
X56759860Y-77241173D01*
X56784626Y-77216494D01*
X56914435Y-77087137D01*
X56918096Y-77083489D01*
X56937033Y-77057136D01*
X57045435Y-76906277D01*
X57048453Y-76902077D01*
X57069139Y-76860223D01*
X57145136Y-76706453D01*
X57145137Y-76706451D01*
X57147430Y-76701811D01*
X57212370Y-76488069D01*
X57241529Y-76266590D01*
X57241611Y-76263240D01*
X57243074Y-76203365D01*
X57243074Y-76203361D01*
X57243156Y-76200000D01*
X57224852Y-75977361D01*
X57170431Y-75760702D01*
X57081354Y-75555840D01*
X56960014Y-75368277D01*
X56809670Y-75203051D01*
X56805619Y-75199852D01*
X56805615Y-75199848D01*
X56638414Y-75067800D01*
X56638410Y-75067798D01*
X56634359Y-75064598D01*
X56593053Y-75041796D01*
X56543084Y-74991364D01*
X56528312Y-74921921D01*
X56553428Y-74855516D01*
X56580780Y-74828909D01*
X56631340Y-74792845D01*
X56759860Y-74701173D01*
X56918096Y-74543489D01*
X56977594Y-74460689D01*
X57045435Y-74366277D01*
X57048453Y-74362077D01*
X57088925Y-74280189D01*
X57145136Y-74166453D01*
X57145137Y-74166451D01*
X57147430Y-74161811D01*
X57212370Y-73948069D01*
X57241529Y-73726590D01*
X57243156Y-73660000D01*
X57224852Y-73437361D01*
X57170431Y-73220702D01*
X57081354Y-73015840D01*
X57010563Y-72906414D01*
X56962822Y-72832617D01*
X56962820Y-72832614D01*
X56960014Y-72828277D01*
X56809670Y-72663051D01*
X56805619Y-72659852D01*
X56805615Y-72659848D01*
X56638414Y-72527800D01*
X56638410Y-72527798D01*
X56634359Y-72524598D01*
X56438789Y-72416638D01*
X56433920Y-72414914D01*
X56433916Y-72414912D01*
X56233087Y-72343795D01*
X56233083Y-72343794D01*
X56228212Y-72342069D01*
X56223119Y-72341162D01*
X56223116Y-72341161D01*
X56013373Y-72303800D01*
X56013367Y-72303799D01*
X56008284Y-72302894D01*
X55934452Y-72301992D01*
X55790081Y-72300228D01*
X55790079Y-72300228D01*
X55784911Y-72300165D01*
X55564091Y-72333955D01*
X55351756Y-72403357D01*
X55153607Y-72506507D01*
X55149474Y-72509610D01*
X55149471Y-72509612D01*
X54979100Y-72637530D01*
X54974965Y-72640635D01*
X54971393Y-72644373D01*
X54884575Y-72735223D01*
X54820629Y-72802138D01*
X54694743Y-72986680D01*
X54679003Y-73020590D01*
X54620223Y-73147221D01*
X54600688Y-73189305D01*
X54540989Y-73404570D01*
X54517251Y-73626695D01*
X54517548Y-73631848D01*
X54517548Y-73631851D01*
X54522986Y-73726167D01*
X54530110Y-73849715D01*
X54531247Y-73854761D01*
X54531248Y-73854767D01*
X54540685Y-73896639D01*
X54579222Y-74067639D01*
X54663266Y-74274616D01*
X54665965Y-74279020D01*
X54769449Y-74447891D01*
X54779987Y-74465088D01*
X54926250Y-74633938D01*
X55098126Y-74776632D01*
X55137816Y-74799825D01*
X55171445Y-74819476D01*
X55220169Y-74871114D01*
X55233240Y-74940897D01*
X55206509Y-75006669D01*
X55166055Y-75040027D01*
X55153607Y-75046507D01*
X55149474Y-75049610D01*
X55149471Y-75049612D01*
X55025567Y-75142642D01*
X54974965Y-75180635D01*
X54820629Y-75342138D01*
X54817715Y-75346410D01*
X54817714Y-75346411D01*
X54799838Y-75372617D01*
X54694743Y-75526680D01*
X54600688Y-75729305D01*
X54540989Y-75944570D01*
X54517251Y-76166695D01*
X47185171Y-76166695D01*
X47178673Y-76148037D01*
X47170368Y-76124189D01*
X47164383Y-76114610D01*
X47137581Y-76071720D01*
X47080192Y-75979879D01*
X47072708Y-75972342D01*
X46965248Y-75864129D01*
X46960286Y-75859132D01*
X46944039Y-75848821D01*
X46905406Y-75824304D01*
X46816608Y-75767951D01*
X46656300Y-75710868D01*
X46487329Y-75690720D01*
X46480326Y-75691456D01*
X46480325Y-75691456D01*
X46325101Y-75707770D01*
X46325097Y-75707771D01*
X46318093Y-75708507D01*
X46311422Y-75710778D01*
X46163673Y-75761075D01*
X46163670Y-75761076D01*
X46157003Y-75763346D01*
X46151005Y-75767036D01*
X46151003Y-75767037D01*
X46018065Y-75848821D01*
X46018063Y-75848823D01*
X46012066Y-75852512D01*
X46007033Y-75857441D01*
X45912815Y-75949707D01*
X45890486Y-75971573D01*
X45886675Y-75977487D01*
X45886673Y-75977489D01*
X45814957Y-76088770D01*
X45798304Y-76114610D01*
X45740103Y-76274516D01*
X45718775Y-76443343D01*
X42644722Y-76443343D01*
X42640351Y-76436349D01*
X42593192Y-76360879D01*
X42473286Y-76240132D01*
X42457039Y-76229821D01*
X42404763Y-76196646D01*
X42329608Y-76148951D01*
X42169300Y-76091868D01*
X42000329Y-76071720D01*
X41993326Y-76072456D01*
X41993325Y-76072456D01*
X41838101Y-76088770D01*
X41838097Y-76088771D01*
X41831093Y-76089507D01*
X41824422Y-76091778D01*
X41676673Y-76142075D01*
X41676670Y-76142076D01*
X41670003Y-76144346D01*
X41664005Y-76148036D01*
X41664003Y-76148037D01*
X41531065Y-76229821D01*
X41531063Y-76229823D01*
X41525066Y-76233512D01*
X41403486Y-76352573D01*
X41399675Y-76358487D01*
X41399673Y-76358489D01*
X41321865Y-76479223D01*
X41311304Y-76495610D01*
X41253103Y-76655516D01*
X41231775Y-76824343D01*
X31686872Y-76824343D01*
X31745136Y-76706453D01*
X31745137Y-76706451D01*
X31747430Y-76701811D01*
X31812370Y-76488069D01*
X31841529Y-76266590D01*
X31841611Y-76263240D01*
X31843074Y-76203365D01*
X31843074Y-76203361D01*
X31843156Y-76200000D01*
X31824852Y-75977361D01*
X31770431Y-75760702D01*
X31681354Y-75555840D01*
X31560014Y-75368277D01*
X31556532Y-75364450D01*
X31412798Y-75206488D01*
X31381746Y-75142642D01*
X31390141Y-75072143D01*
X31435317Y-75017375D01*
X31461761Y-75003706D01*
X31568297Y-74963767D01*
X31576705Y-74960615D01*
X31693261Y-74873261D01*
X31780615Y-74756705D01*
X31831745Y-74620316D01*
X31834023Y-74599343D01*
X48645275Y-74599343D01*
X48661881Y-74768699D01*
X48715594Y-74930167D01*
X48719241Y-74936189D01*
X48719242Y-74936191D01*
X48798948Y-75067800D01*
X48803746Y-75075723D01*
X48921955Y-75198132D01*
X49064346Y-75291310D01*
X49070950Y-75293766D01*
X49070952Y-75293767D01*
X49107344Y-75307301D01*
X49223841Y-75350626D01*
X49392515Y-75373132D01*
X49399526Y-75372494D01*
X49399530Y-75372494D01*
X49554962Y-75358348D01*
X49561983Y-75357709D01*
X49568685Y-75355531D01*
X49568687Y-75355531D01*
X49717123Y-75307301D01*
X49717126Y-75307300D01*
X49723822Y-75305124D01*
X49869990Y-75217990D01*
X49875084Y-75213139D01*
X49875088Y-75213136D01*
X49949113Y-75142642D01*
X49993221Y-75100639D01*
X50087391Y-74958902D01*
X50147819Y-74799825D01*
X50171501Y-74631313D01*
X50171799Y-74610000D01*
X50152831Y-74440892D01*
X50096868Y-74280189D01*
X50090883Y-74270610D01*
X50027072Y-74168494D01*
X50006692Y-74135879D01*
X49886786Y-74015132D01*
X49870539Y-74004821D01*
X49788918Y-73953023D01*
X49743108Y-73923951D01*
X49582800Y-73866868D01*
X49413829Y-73846720D01*
X49406826Y-73847456D01*
X49406825Y-73847456D01*
X49251601Y-73863770D01*
X49251597Y-73863771D01*
X49244593Y-73864507D01*
X49237922Y-73866778D01*
X49090173Y-73917075D01*
X49090170Y-73917076D01*
X49083503Y-73919346D01*
X49077505Y-73923036D01*
X49077503Y-73923037D01*
X48944565Y-74004821D01*
X48944563Y-74004823D01*
X48938566Y-74008512D01*
X48933533Y-74013441D01*
X48841772Y-74103301D01*
X48816986Y-74127573D01*
X48813175Y-74133487D01*
X48813173Y-74133489D01*
X48728621Y-74264687D01*
X48724804Y-74270610D01*
X48666603Y-74430516D01*
X48645275Y-74599343D01*
X31834023Y-74599343D01*
X31838500Y-74558134D01*
X31838500Y-72761866D01*
X31831745Y-72699684D01*
X31780615Y-72563295D01*
X31693261Y-72446739D01*
X31603335Y-72379343D01*
X49782775Y-72379343D01*
X49799381Y-72548699D01*
X49853094Y-72710167D01*
X49856741Y-72716189D01*
X49856742Y-72716191D01*
X49922311Y-72824457D01*
X49941246Y-72855723D01*
X50059455Y-72978132D01*
X50117079Y-73015840D01*
X50182885Y-73058902D01*
X50201846Y-73071310D01*
X50208450Y-73073766D01*
X50208452Y-73073767D01*
X50281593Y-73100968D01*
X50361341Y-73130626D01*
X50450600Y-73142536D01*
X50515475Y-73171370D01*
X50554463Y-73230703D01*
X50558940Y-73283218D01*
X50544775Y-73395343D01*
X50561381Y-73564699D01*
X50615094Y-73726167D01*
X50618741Y-73732189D01*
X50618742Y-73732191D01*
X50698876Y-73864507D01*
X50703246Y-73871723D01*
X50821455Y-73994132D01*
X50857309Y-74017594D01*
X50933786Y-74067639D01*
X50963846Y-74087310D01*
X50970450Y-74089766D01*
X50970452Y-74089767D01*
X51006844Y-74103301D01*
X51123341Y-74146626D01*
X51292015Y-74169132D01*
X51299026Y-74168494D01*
X51299030Y-74168494D01*
X51454462Y-74154348D01*
X51461483Y-74153709D01*
X51468185Y-74151531D01*
X51468187Y-74151531D01*
X51616623Y-74103301D01*
X51616626Y-74103300D01*
X51623322Y-74101124D01*
X51769490Y-74013990D01*
X51774584Y-74009139D01*
X51774588Y-74009136D01*
X51860072Y-73927730D01*
X51892721Y-73896639D01*
X51914070Y-73864507D01*
X51982990Y-73760773D01*
X51986891Y-73754902D01*
X52047319Y-73595825D01*
X52069589Y-73437361D01*
X52070450Y-73431236D01*
X52070450Y-73431231D01*
X52071001Y-73427313D01*
X52071046Y-73424085D01*
X52096156Y-73357852D01*
X52132098Y-73325675D01*
X52144990Y-73317990D01*
X52150084Y-73313139D01*
X52150088Y-73313136D01*
X52217333Y-73249099D01*
X52268221Y-73200639D01*
X52275752Y-73189305D01*
X52316370Y-73128169D01*
X52362391Y-73058902D01*
X52422819Y-72899825D01*
X52446501Y-72731313D01*
X52446618Y-72722964D01*
X52446744Y-72713961D01*
X52446744Y-72713955D01*
X52446799Y-72710000D01*
X52427831Y-72540892D01*
X52371868Y-72380189D01*
X52356899Y-72356233D01*
X52342489Y-72333173D01*
X52281692Y-72235879D01*
X52161786Y-72115132D01*
X52121312Y-72089446D01*
X52070550Y-72057232D01*
X52018108Y-72023951D01*
X51857800Y-71966868D01*
X51688829Y-71946720D01*
X51681826Y-71947456D01*
X51681825Y-71947456D01*
X51526601Y-71963770D01*
X51526597Y-71963771D01*
X51519593Y-71964507D01*
X51512922Y-71966778D01*
X51365173Y-72017075D01*
X51365170Y-72017076D01*
X51358503Y-72019346D01*
X51352504Y-72023037D01*
X51346128Y-72026037D01*
X51344963Y-72023561D01*
X51288456Y-72038944D01*
X51220745Y-72017598D01*
X51184098Y-71979740D01*
X51147927Y-71921856D01*
X51147926Y-71921855D01*
X51144192Y-71915879D01*
X51024286Y-71795132D01*
X51008039Y-71784821D01*
X50969406Y-71760304D01*
X50880608Y-71703951D01*
X50720300Y-71646868D01*
X50551329Y-71626720D01*
X50544326Y-71627456D01*
X50544325Y-71627456D01*
X50389101Y-71643770D01*
X50389097Y-71643771D01*
X50382093Y-71644507D01*
X50375422Y-71646778D01*
X50227673Y-71697075D01*
X50227670Y-71697076D01*
X50221003Y-71699346D01*
X50215005Y-71703036D01*
X50215003Y-71703037D01*
X50082065Y-71784821D01*
X50082063Y-71784823D01*
X50076066Y-71788512D01*
X49954486Y-71907573D01*
X49950675Y-71913487D01*
X49950673Y-71913489D01*
X49914748Y-71969233D01*
X49862304Y-72050610D01*
X49804103Y-72210516D01*
X49782775Y-72379343D01*
X31603335Y-72379343D01*
X31576705Y-72359385D01*
X31440316Y-72308255D01*
X31378134Y-72301500D01*
X29581866Y-72301500D01*
X29519684Y-72308255D01*
X29383295Y-72359385D01*
X29266739Y-72446739D01*
X29179385Y-72563295D01*
X29128255Y-72699684D01*
X29121500Y-72761866D01*
X29121500Y-74558134D01*
X29128255Y-74620316D01*
X29179385Y-74756705D01*
X29266739Y-74873261D01*
X29383295Y-74960615D01*
X29391704Y-74963767D01*
X29391705Y-74963768D01*
X29500451Y-75004535D01*
X29557216Y-75047176D01*
X29581916Y-75113738D01*
X29566709Y-75183087D01*
X29547316Y-75209568D01*
X29420629Y-75342138D01*
X29417715Y-75346410D01*
X29417714Y-75346411D01*
X29399838Y-75372617D01*
X29294743Y-75526680D01*
X29200688Y-75729305D01*
X29140989Y-75944570D01*
X29117251Y-76166695D01*
X27940000Y-76166695D01*
X27940000Y-71125507D01*
X27940479Y-71114526D01*
X27958333Y-70910448D01*
X27962147Y-70888818D01*
X28013737Y-70696282D01*
X28021249Y-70675643D01*
X28031898Y-70652807D01*
X28105492Y-70494985D01*
X28116468Y-70475974D01*
X28230804Y-70312686D01*
X28244922Y-70295862D01*
X28385862Y-70154922D01*
X28402686Y-70140804D01*
X28424511Y-70125522D01*
X28565974Y-70026468D01*
X28584985Y-70015492D01*
X28765642Y-69931249D01*
X28786282Y-69923737D01*
X28828375Y-69912458D01*
X28978822Y-69872146D01*
X29000445Y-69868334D01*
X29156484Y-69854682D01*
X29204526Y-69850479D01*
X29215507Y-69850000D01*
X57144493Y-69850000D01*
X57155474Y-69850479D01*
G37*
%TD.AperFunction*%
%TD*%
%TA.AperFunction,Conductor*%
%TO.N,GNDPWR*%
G36*
X34410141Y-135275002D02*
G01*
X34431115Y-135291905D01*
X35417188Y-136277978D01*
X35431132Y-136285592D01*
X35432965Y-136285461D01*
X35439580Y-136281210D01*
X36428885Y-135291905D01*
X36491197Y-135257879D01*
X36517980Y-135255000D01*
X49842020Y-135255000D01*
X49910141Y-135275002D01*
X49931115Y-135291905D01*
X50917188Y-136277978D01*
X50931132Y-136285592D01*
X50932965Y-136285461D01*
X50939580Y-136281210D01*
X51928885Y-135291905D01*
X51991197Y-135257879D01*
X52017980Y-135255000D01*
X57144493Y-135255000D01*
X57155474Y-135255479D01*
X57182907Y-135257879D01*
X57359555Y-135273334D01*
X57381178Y-135277146D01*
X57436259Y-135291905D01*
X57573718Y-135328737D01*
X57594358Y-135336249D01*
X57775015Y-135420492D01*
X57794026Y-135431468D01*
X57935489Y-135530522D01*
X57957314Y-135545804D01*
X57974138Y-135559922D01*
X58115078Y-135700862D01*
X58129196Y-135717686D01*
X58243532Y-135880974D01*
X58254508Y-135899985D01*
X58328102Y-136057807D01*
X58338751Y-136080643D01*
X58346263Y-136101282D01*
X58395649Y-136285592D01*
X58397853Y-136293818D01*
X58401666Y-136315445D01*
X58408389Y-136392280D01*
X58419521Y-136519526D01*
X58420000Y-136530507D01*
X58420000Y-146044493D01*
X58419521Y-146055474D01*
X58401667Y-146259552D01*
X58397853Y-146281182D01*
X58346263Y-146473718D01*
X58338751Y-146494357D01*
X58254508Y-146675015D01*
X58243532Y-146694026D01*
X58144478Y-146835489D01*
X58129196Y-146857314D01*
X58115078Y-146874138D01*
X57974138Y-147015078D01*
X57957314Y-147029196D01*
X57794026Y-147143532D01*
X57775015Y-147154508D01*
X57617193Y-147228102D01*
X57594357Y-147238751D01*
X57573717Y-147246263D01*
X57381178Y-147297854D01*
X57359555Y-147301666D01*
X57203516Y-147315318D01*
X57155474Y-147319521D01*
X57144493Y-147320000D01*
X29215507Y-147320000D01*
X29204526Y-147319521D01*
X29156484Y-147315318D01*
X29000445Y-147301666D01*
X28978822Y-147297854D01*
X28786283Y-147246263D01*
X28765643Y-147238751D01*
X28742807Y-147228102D01*
X28584985Y-147154508D01*
X28565974Y-147143532D01*
X28402686Y-147029196D01*
X28385862Y-147015078D01*
X28244922Y-146874138D01*
X28230804Y-146857314D01*
X28215522Y-146835489D01*
X28116468Y-146694026D01*
X28105492Y-146675015D01*
X28021249Y-146494357D01*
X28013737Y-146473718D01*
X27962147Y-146281182D01*
X27958333Y-146259552D01*
X27940479Y-146055474D01*
X27940000Y-146044493D01*
X27940000Y-144780000D01*
X35576635Y-144780000D01*
X35596056Y-145001986D01*
X35653730Y-145217227D01*
X35656052Y-145222208D01*
X35656053Y-145222209D01*
X35745577Y-145414195D01*
X35745580Y-145414200D01*
X35747903Y-145419182D01*
X35875716Y-145601717D01*
X36033283Y-145759284D01*
X36215817Y-145887097D01*
X36220799Y-145889420D01*
X36220804Y-145889423D01*
X36412791Y-145978947D01*
X36417773Y-145981270D01*
X36423081Y-145982692D01*
X36423083Y-145982693D01*
X36489465Y-146000480D01*
X36633014Y-146038944D01*
X36855000Y-146058365D01*
X37076986Y-146038944D01*
X37220535Y-146000480D01*
X37286917Y-145982693D01*
X37286919Y-145982692D01*
X37292227Y-145981270D01*
X37297209Y-145978947D01*
X37489196Y-145889423D01*
X37489201Y-145889420D01*
X37494183Y-145887097D01*
X37676717Y-145759284D01*
X37834284Y-145601717D01*
X37962097Y-145419182D01*
X37964420Y-145414200D01*
X37964423Y-145414195D01*
X38053947Y-145222209D01*
X38053948Y-145222208D01*
X38056270Y-145217227D01*
X38113944Y-145001986D01*
X38133365Y-144780000D01*
X45659635Y-144780000D01*
X45679056Y-145001986D01*
X45736730Y-145217227D01*
X45739052Y-145222208D01*
X45739053Y-145222209D01*
X45828577Y-145414195D01*
X45828580Y-145414200D01*
X45830903Y-145419182D01*
X45958716Y-145601717D01*
X46116283Y-145759284D01*
X46298817Y-145887097D01*
X46303799Y-145889420D01*
X46303804Y-145889423D01*
X46495791Y-145978947D01*
X46500773Y-145981270D01*
X46506081Y-145982692D01*
X46506083Y-145982693D01*
X46572465Y-146000480D01*
X46716014Y-146038944D01*
X46938000Y-146058365D01*
X47159986Y-146038944D01*
X47303535Y-146000480D01*
X47369917Y-145982693D01*
X47369919Y-145982692D01*
X47375227Y-145981270D01*
X47380209Y-145978947D01*
X47572196Y-145889423D01*
X47572201Y-145889420D01*
X47577183Y-145887097D01*
X47759717Y-145759284D01*
X47917284Y-145601717D01*
X48045097Y-145419182D01*
X48047420Y-145414200D01*
X48047423Y-145414195D01*
X48136947Y-145222209D01*
X48136948Y-145222208D01*
X48139270Y-145217227D01*
X48196944Y-145001986D01*
X48216365Y-144780000D01*
X48196944Y-144558014D01*
X48139270Y-144342773D01*
X48136947Y-144337791D01*
X48047423Y-144145805D01*
X48047420Y-144145800D01*
X48045097Y-144140818D01*
X47917284Y-143958283D01*
X47759717Y-143800716D01*
X47577183Y-143672903D01*
X47572201Y-143670580D01*
X47572196Y-143670577D01*
X47380209Y-143581053D01*
X47380208Y-143581053D01*
X47375227Y-143578730D01*
X47369919Y-143577308D01*
X47369917Y-143577307D01*
X47303536Y-143559520D01*
X47159986Y-143521056D01*
X46938000Y-143501635D01*
X46716014Y-143521056D01*
X46572465Y-143559520D01*
X46506083Y-143577307D01*
X46506081Y-143577308D01*
X46500773Y-143578730D01*
X46495792Y-143581052D01*
X46495791Y-143581053D01*
X46303805Y-143670577D01*
X46303800Y-143670580D01*
X46298818Y-143672903D01*
X46116283Y-143800716D01*
X45958716Y-143958283D01*
X45830903Y-144140818D01*
X45828580Y-144145800D01*
X45828577Y-144145805D01*
X45739053Y-144337791D01*
X45736730Y-144342773D01*
X45679056Y-144558014D01*
X45659635Y-144780000D01*
X38133365Y-144780000D01*
X38113944Y-144558014D01*
X38056270Y-144342773D01*
X38053947Y-144337791D01*
X37964423Y-144145805D01*
X37964420Y-144145800D01*
X37962097Y-144140818D01*
X37834284Y-143958283D01*
X37676717Y-143800716D01*
X37494183Y-143672903D01*
X37489201Y-143670580D01*
X37489196Y-143670577D01*
X37297209Y-143581053D01*
X37297208Y-143581053D01*
X37292227Y-143578730D01*
X37286919Y-143577308D01*
X37286917Y-143577307D01*
X37220536Y-143559520D01*
X37076986Y-143521056D01*
X36855000Y-143501635D01*
X36633014Y-143521056D01*
X36489465Y-143559520D01*
X36423083Y-143577307D01*
X36423081Y-143577308D01*
X36417773Y-143578730D01*
X36412792Y-143581052D01*
X36412791Y-143581053D01*
X36220805Y-143670577D01*
X36220800Y-143670580D01*
X36215818Y-143672903D01*
X36033283Y-143800716D01*
X35875716Y-143958283D01*
X35747903Y-144140818D01*
X35745580Y-144145800D01*
X35745577Y-144145805D01*
X35656053Y-144337791D01*
X35653730Y-144342773D01*
X35596056Y-144558014D01*
X35576635Y-144780000D01*
X27940000Y-144780000D01*
X27940000Y-143080000D01*
X38143635Y-143080000D01*
X38163056Y-143301986D01*
X38220730Y-143517227D01*
X38223052Y-143522208D01*
X38223053Y-143522209D01*
X38312577Y-143714195D01*
X38312580Y-143714200D01*
X38314903Y-143719182D01*
X38442716Y-143901717D01*
X38600283Y-144059284D01*
X38782817Y-144187097D01*
X38787799Y-144189420D01*
X38787804Y-144189423D01*
X38979791Y-144278947D01*
X38984773Y-144281270D01*
X38990081Y-144282692D01*
X38990083Y-144282693D01*
X39056465Y-144300480D01*
X39200014Y-144338944D01*
X39422000Y-144358365D01*
X39643986Y-144338944D01*
X39787535Y-144300480D01*
X39853917Y-144282693D01*
X39853919Y-144282692D01*
X39859227Y-144281270D01*
X39864209Y-144278947D01*
X40056196Y-144189423D01*
X40056201Y-144189420D01*
X40061183Y-144187097D01*
X40243717Y-144059284D01*
X40401284Y-143901717D01*
X40529097Y-143719182D01*
X40531420Y-143714200D01*
X40531423Y-143714195D01*
X40620947Y-143522209D01*
X40620948Y-143522208D01*
X40623270Y-143517227D01*
X40680944Y-143301986D01*
X40700365Y-143080000D01*
X40680944Y-142858014D01*
X40623270Y-142642773D01*
X40620947Y-142637791D01*
X40531423Y-142445805D01*
X40531420Y-142445800D01*
X40529097Y-142440818D01*
X40401284Y-142258283D01*
X40243717Y-142100716D01*
X40061183Y-141972903D01*
X40056201Y-141970580D01*
X40056196Y-141970577D01*
X39864209Y-141881053D01*
X39864208Y-141881053D01*
X39859227Y-141878730D01*
X39853919Y-141877308D01*
X39853917Y-141877307D01*
X39749143Y-141849233D01*
X39643986Y-141821056D01*
X39422000Y-141801635D01*
X39200014Y-141821056D01*
X39094857Y-141849233D01*
X38990083Y-141877307D01*
X38990081Y-141877308D01*
X38984773Y-141878730D01*
X38979792Y-141881052D01*
X38979791Y-141881053D01*
X38787805Y-141970577D01*
X38787800Y-141970580D01*
X38782818Y-141972903D01*
X38600283Y-142100716D01*
X38442716Y-142258283D01*
X38314903Y-142440818D01*
X38312580Y-142445800D01*
X38312577Y-142445805D01*
X38223053Y-142637791D01*
X38220730Y-142642773D01*
X38163056Y-142858014D01*
X38143635Y-143080000D01*
X27940000Y-143080000D01*
X27940000Y-138023359D01*
X34421386Y-138023359D01*
X34430099Y-138034879D01*
X34518586Y-138099760D01*
X34526505Y-138104708D01*
X34742877Y-138218547D01*
X34751451Y-138222275D01*
X34982282Y-138302885D01*
X34991291Y-138305299D01*
X35231518Y-138350908D01*
X35240775Y-138351962D01*
X35485107Y-138361563D01*
X35494419Y-138361237D01*
X35548510Y-138355313D01*
X35618404Y-138367780D01*
X35670462Y-138416055D01*
X35688156Y-138484811D01*
X35669661Y-138546399D01*
X35569867Y-138709248D01*
X35568148Y-138713165D01*
X35568146Y-138713168D01*
X35559397Y-138733100D01*
X35452941Y-138975614D01*
X35451765Y-138979742D01*
X35451764Y-138979745D01*
X35427218Y-139065913D01*
X35373246Y-139255384D01*
X35372642Y-139259626D01*
X35372641Y-139259632D01*
X35370125Y-139277313D01*
X35332258Y-139543381D01*
X35330735Y-139834277D01*
X35368705Y-140122687D01*
X35445465Y-140403276D01*
X35559596Y-140670852D01*
X35708985Y-140920462D01*
X35711669Y-140923813D01*
X35711671Y-140923815D01*
X35726322Y-140942102D01*
X35890867Y-141147489D01*
X36101878Y-141347731D01*
X36338113Y-141517483D01*
X36595200Y-141653603D01*
X36599223Y-141655075D01*
X36599227Y-141655077D01*
X36623709Y-141664036D01*
X36868382Y-141753574D01*
X37152604Y-141815544D01*
X37174967Y-141817304D01*
X37378297Y-141833307D01*
X37378304Y-141833307D01*
X37380753Y-141833500D01*
X37538121Y-141833500D01*
X37540257Y-141833354D01*
X37540268Y-141833354D01*
X37750949Y-141818991D01*
X37750955Y-141818990D01*
X37755226Y-141818699D01*
X37759421Y-141817830D01*
X37759423Y-141817830D01*
X37897653Y-141789204D01*
X38040081Y-141759709D01*
X38314295Y-141662605D01*
X38572793Y-141529184D01*
X38576294Y-141526723D01*
X38576298Y-141526721D01*
X38691793Y-141445549D01*
X38810792Y-141361915D01*
X39023888Y-141163894D01*
X39034895Y-141150447D01*
X39205423Y-140942102D01*
X39208139Y-140938784D01*
X39360133Y-140690752D01*
X39368869Y-140670852D01*
X39475334Y-140428315D01*
X39477059Y-140424386D01*
X39483073Y-140403276D01*
X39502782Y-140334087D01*
X39556754Y-140144616D01*
X39559286Y-140126829D01*
X39597137Y-139860870D01*
X39597742Y-139856619D01*
X39597859Y-139834277D01*
X46760735Y-139834277D01*
X46798705Y-140122687D01*
X46875465Y-140403276D01*
X46989596Y-140670852D01*
X47138985Y-140920462D01*
X47141669Y-140923813D01*
X47141671Y-140923815D01*
X47156322Y-140942102D01*
X47320867Y-141147489D01*
X47531878Y-141347731D01*
X47768113Y-141517483D01*
X48025200Y-141653603D01*
X48029223Y-141655075D01*
X48029227Y-141655077D01*
X48053709Y-141664036D01*
X48298382Y-141753574D01*
X48582604Y-141815544D01*
X48604967Y-141817304D01*
X48689369Y-141823947D01*
X48755711Y-141849233D01*
X48797850Y-141906371D01*
X48802409Y-141977221D01*
X48767940Y-142039289D01*
X48751755Y-142052771D01*
X48683283Y-142100716D01*
X48525716Y-142258283D01*
X48397903Y-142440818D01*
X48395580Y-142445800D01*
X48395577Y-142445805D01*
X48306053Y-142637791D01*
X48303730Y-142642773D01*
X48246056Y-142858014D01*
X48226635Y-143080000D01*
X48246056Y-143301986D01*
X48303730Y-143517227D01*
X48306052Y-143522208D01*
X48306053Y-143522209D01*
X48395577Y-143714195D01*
X48395580Y-143714200D01*
X48397903Y-143719182D01*
X48525716Y-143901717D01*
X48683283Y-144059284D01*
X48865817Y-144187097D01*
X48870799Y-144189420D01*
X48870804Y-144189423D01*
X49062791Y-144278947D01*
X49067773Y-144281270D01*
X49073081Y-144282692D01*
X49073083Y-144282693D01*
X49139465Y-144300480D01*
X49283014Y-144338944D01*
X49505000Y-144358365D01*
X49726986Y-144338944D01*
X49870535Y-144300480D01*
X49936917Y-144282693D01*
X49936919Y-144282692D01*
X49942227Y-144281270D01*
X49947209Y-144278947D01*
X50139196Y-144189423D01*
X50139201Y-144189420D01*
X50144183Y-144187097D01*
X50326717Y-144059284D01*
X50484284Y-143901717D01*
X50612097Y-143719182D01*
X50614420Y-143714200D01*
X50614423Y-143714195D01*
X50703947Y-143522209D01*
X50703948Y-143522208D01*
X50706270Y-143517227D01*
X50763944Y-143301986D01*
X50783365Y-143080000D01*
X50763944Y-142858014D01*
X50706270Y-142642773D01*
X50703947Y-142637791D01*
X50614423Y-142445805D01*
X50614420Y-142445800D01*
X50612097Y-142440818D01*
X50484284Y-142258283D01*
X50326717Y-142100716D01*
X50144183Y-141972903D01*
X50139201Y-141970580D01*
X50139196Y-141970577D01*
X49947209Y-141881053D01*
X49947208Y-141881053D01*
X49942227Y-141878730D01*
X49850889Y-141854256D01*
X49790267Y-141817304D01*
X49759245Y-141753443D01*
X49767674Y-141682949D01*
X49812877Y-141628202D01*
X49825711Y-141620583D01*
X49998986Y-141531149D01*
X49998987Y-141531149D01*
X50002793Y-141529184D01*
X50006294Y-141526723D01*
X50006298Y-141526721D01*
X50121793Y-141445549D01*
X50240792Y-141361915D01*
X50453888Y-141163894D01*
X50464895Y-141150447D01*
X50635423Y-140942102D01*
X50638139Y-140938784D01*
X50790133Y-140690752D01*
X50798869Y-140670852D01*
X50905334Y-140428315D01*
X50907059Y-140424386D01*
X50913073Y-140403276D01*
X50932782Y-140334087D01*
X50986754Y-140144616D01*
X50989286Y-140126829D01*
X51027137Y-139860870D01*
X51027742Y-139856619D01*
X51029265Y-139565723D01*
X50991295Y-139277313D01*
X50914535Y-138996724D01*
X50800404Y-138729148D01*
X50691031Y-138546399D01*
X50690210Y-138545027D01*
X50672390Y-138476303D01*
X50694554Y-138408855D01*
X50749665Y-138364097D01*
X50803273Y-138354418D01*
X50985107Y-138361563D01*
X50994420Y-138361237D01*
X51237478Y-138334618D01*
X51246655Y-138332917D01*
X51483107Y-138270665D01*
X51491926Y-138267628D01*
X51716584Y-138171107D01*
X51724856Y-138166800D01*
X51932777Y-138038135D01*
X51934620Y-138036796D01*
X51942038Y-138025541D01*
X51935974Y-138015184D01*
X50571922Y-136651132D01*
X51294408Y-136651132D01*
X51294539Y-136652965D01*
X51298790Y-136659580D01*
X52293732Y-137654522D01*
X52306112Y-137661282D01*
X52314453Y-137655038D01*
X52432700Y-137471202D01*
X52437147Y-137463011D01*
X52537572Y-137240076D01*
X52540767Y-137231298D01*
X52607135Y-136995973D01*
X52608993Y-136986844D01*
X52640044Y-136742770D01*
X52640525Y-136736483D01*
X52642706Y-136653160D01*
X52642555Y-136646851D01*
X52624321Y-136401486D01*
X52622944Y-136392280D01*
X52568979Y-136153786D01*
X52566255Y-136144875D01*
X52477633Y-135916983D01*
X52473619Y-135908567D01*
X52352284Y-135696276D01*
X52347074Y-135688553D01*
X52315787Y-135648865D01*
X52303863Y-135640395D01*
X52292328Y-135646882D01*
X51302022Y-136637188D01*
X51294408Y-136651132D01*
X50571922Y-136651132D01*
X49566828Y-135646038D01*
X49553520Y-135638771D01*
X49543481Y-135645893D01*
X49538581Y-135651784D01*
X49533168Y-135659373D01*
X49406322Y-135868409D01*
X49402084Y-135876726D01*
X49307529Y-136102214D01*
X49304572Y-136111052D01*
X49244384Y-136348042D01*
X49242763Y-136357232D01*
X49218267Y-136600510D01*
X49218022Y-136609835D01*
X49229754Y-136854064D01*
X49230891Y-136863324D01*
X49278593Y-137103143D01*
X49281082Y-137112118D01*
X49363708Y-137342250D01*
X49367505Y-137350778D01*
X49401459Y-137413970D01*
X49416082Y-137483444D01*
X49390824Y-137549796D01*
X49333702Y-137591958D01*
X49263626Y-137596716D01*
X49207396Y-137584456D01*
X49163598Y-137581009D01*
X48981703Y-137566693D01*
X48981696Y-137566693D01*
X48979247Y-137566500D01*
X48821879Y-137566500D01*
X48819743Y-137566646D01*
X48819732Y-137566646D01*
X48609051Y-137581009D01*
X48609045Y-137581010D01*
X48604774Y-137581301D01*
X48600579Y-137582170D01*
X48600577Y-137582170D01*
X48530337Y-137596716D01*
X48319919Y-137640291D01*
X48045705Y-137737395D01*
X47787207Y-137870816D01*
X47783706Y-137873277D01*
X47783702Y-137873279D01*
X47770558Y-137882517D01*
X47549208Y-138038085D01*
X47546067Y-138041004D01*
X47355008Y-138218547D01*
X47336112Y-138236106D01*
X47333398Y-138239422D01*
X47333395Y-138239425D01*
X47242147Y-138350908D01*
X47151861Y-138461216D01*
X46999867Y-138709248D01*
X46998148Y-138713165D01*
X46998146Y-138713168D01*
X46989397Y-138733100D01*
X46882941Y-138975614D01*
X46881765Y-138979742D01*
X46881764Y-138979745D01*
X46857218Y-139065913D01*
X46803246Y-139255384D01*
X46802642Y-139259626D01*
X46802641Y-139259632D01*
X46800125Y-139277313D01*
X46762258Y-139543381D01*
X46760735Y-139834277D01*
X39597859Y-139834277D01*
X39599265Y-139565723D01*
X39561295Y-139277313D01*
X39484535Y-138996724D01*
X39370404Y-138729148D01*
X39221015Y-138479538D01*
X39206337Y-138461216D01*
X39126500Y-138361563D01*
X39039133Y-138252511D01*
X38828122Y-138052269D01*
X38591887Y-137882517D01*
X38334800Y-137746397D01*
X38330777Y-137744925D01*
X38330773Y-137744923D01*
X38065649Y-137647901D01*
X38065647Y-137647900D01*
X38061618Y-137646426D01*
X37777396Y-137584456D01*
X37733598Y-137581009D01*
X37551703Y-137566693D01*
X37551696Y-137566693D01*
X37549247Y-137566500D01*
X37391879Y-137566500D01*
X37389743Y-137566646D01*
X37389732Y-137566646D01*
X37179051Y-137581009D01*
X37179045Y-137581010D01*
X37174774Y-137581301D01*
X37170579Y-137582170D01*
X37170577Y-137582170D01*
X37095821Y-137597651D01*
X37025059Y-137591878D01*
X36968652Y-137548765D01*
X36944507Y-137482000D01*
X36955388Y-137422518D01*
X37037572Y-137240076D01*
X37040767Y-137231298D01*
X37107135Y-136995973D01*
X37108993Y-136986844D01*
X37140044Y-136742770D01*
X37140525Y-136736483D01*
X37142706Y-136653160D01*
X37142555Y-136646851D01*
X37124321Y-136401486D01*
X37122944Y-136392280D01*
X37068979Y-136153786D01*
X37066255Y-136144875D01*
X36977633Y-135916983D01*
X36973619Y-135908567D01*
X36852284Y-135696276D01*
X36847074Y-135688553D01*
X36815787Y-135648865D01*
X36803863Y-135640395D01*
X36792328Y-135646882D01*
X34428044Y-138011166D01*
X34421386Y-138023359D01*
X27940000Y-138023359D01*
X27940000Y-136609835D01*
X33718022Y-136609835D01*
X33729754Y-136854064D01*
X33730891Y-136863324D01*
X33778593Y-137103143D01*
X33781082Y-137112118D01*
X33863708Y-137342250D01*
X33867505Y-137350778D01*
X33983234Y-137566160D01*
X33988245Y-137574027D01*
X34045173Y-137650263D01*
X34056431Y-137658712D01*
X34068850Y-137651940D01*
X35057978Y-136662812D01*
X35065592Y-136648868D01*
X35065461Y-136647035D01*
X35061210Y-136640420D01*
X34066828Y-135646038D01*
X34053520Y-135638771D01*
X34043481Y-135645893D01*
X34038581Y-135651784D01*
X34033168Y-135659373D01*
X33906322Y-135868409D01*
X33902084Y-135876726D01*
X33807529Y-136102214D01*
X33804572Y-136111052D01*
X33744384Y-136348042D01*
X33742763Y-136357232D01*
X33718267Y-136600510D01*
X33718022Y-136609835D01*
X27940000Y-136609835D01*
X27940000Y-136530507D01*
X27940479Y-136519526D01*
X27951611Y-136392280D01*
X27958334Y-136315445D01*
X27962147Y-136293818D01*
X27964352Y-136285592D01*
X28013737Y-136101282D01*
X28021249Y-136080643D01*
X28031898Y-136057807D01*
X28105492Y-135899985D01*
X28116468Y-135880974D01*
X28230804Y-135717686D01*
X28244922Y-135700862D01*
X28385862Y-135559922D01*
X28402686Y-135545804D01*
X28424511Y-135530522D01*
X28565974Y-135431468D01*
X28584985Y-135420492D01*
X28765642Y-135336249D01*
X28786282Y-135328737D01*
X28923741Y-135291905D01*
X28978822Y-135277146D01*
X29000445Y-135273334D01*
X29177093Y-135257879D01*
X29204526Y-135255479D01*
X29215507Y-135255000D01*
X34342020Y-135255000D01*
X34410141Y-135275002D01*
G37*
%TD.AperFunction*%
%TD*%
M02*
