%TF.GenerationSoftware,KiCad,Pcbnew,6.0.2+dfsg-1*%
%TF.CreationDate,2023-02-05T15:08:22-05:00*%
%TF.ProjectId,LTC4414-battery-backup-test,4c544334-3431-4342-9d62-617474657279,rev?*%
%TF.SameCoordinates,Original*%
%TF.FileFunction,Legend,Top*%
%TF.FilePolarity,Positive*%
%FSLAX46Y46*%
G04 Gerber Fmt 4.6, Leading zero omitted, Abs format (unit mm)*
G04 Created by KiCad (PCBNEW 6.0.2+dfsg-1) date 2023-02-05 15:08:22*
%MOMM*%
%LPD*%
G01*
G04 APERTURE LIST*
G04 Aperture macros list*
%AMRoundRect*
0 Rectangle with rounded corners*
0 $1 Rounding radius*
0 $2 $3 $4 $5 $6 $7 $8 $9 X,Y pos of 4 corners*
0 Add a 4 corners polygon primitive as box body*
4,1,4,$2,$3,$4,$5,$6,$7,$8,$9,$2,$3,0*
0 Add four circle primitives for the rounded corners*
1,1,$1+$1,$2,$3*
1,1,$1+$1,$4,$5*
1,1,$1+$1,$6,$7*
1,1,$1+$1,$8,$9*
0 Add four rect primitives between the rounded corners*
20,1,$1+$1,$2,$3,$4,$5,0*
20,1,$1+$1,$4,$5,$6,$7,0*
20,1,$1+$1,$6,$7,$8,$9,0*
20,1,$1+$1,$8,$9,$2,$3,0*%
G04 Aperture macros list end*
%ADD10C,0.150000*%
%ADD11C,0.120000*%
%ADD12C,5.600000*%
%ADD13RoundRect,0.100000X-0.712500X-0.100000X0.712500X-0.100000X0.712500X0.100000X-0.712500X0.100000X0*%
%ADD14RoundRect,0.135000X0.185000X-0.135000X0.185000X0.135000X-0.185000X0.135000X-0.185000X-0.135000X0*%
%ADD15R,0.650000X0.500000*%
%ADD16R,4.120000X4.600000*%
%ADD17R,0.550000X0.500000*%
%ADD18RoundRect,0.150000X-0.150000X0.587500X-0.150000X-0.587500X0.150000X-0.587500X0.150000X0.587500X0*%
G04 APERTURE END LIST*
D10*
%TO.C,H6*%
X99568095Y-102062380D02*
X99568095Y-101062380D01*
X99568095Y-101538571D02*
X100139523Y-101538571D01*
X100139523Y-102062380D02*
X100139523Y-101062380D01*
X101044285Y-101062380D02*
X100853809Y-101062380D01*
X100758571Y-101110000D01*
X100710952Y-101157619D01*
X100615714Y-101300476D01*
X100568095Y-101490952D01*
X100568095Y-101871904D01*
X100615714Y-101967142D01*
X100663333Y-102014761D01*
X100758571Y-102062380D01*
X100949047Y-102062380D01*
X101044285Y-102014761D01*
X101091904Y-101967142D01*
X101139523Y-101871904D01*
X101139523Y-101633809D01*
X101091904Y-101538571D01*
X101044285Y-101490952D01*
X100949047Y-101443333D01*
X100758571Y-101443333D01*
X100663333Y-101490952D01*
X100615714Y-101538571D01*
X100568095Y-101633809D01*
%TO.C,H5*%
X91948095Y-102062380D02*
X91948095Y-101062380D01*
X91948095Y-101538571D02*
X92519523Y-101538571D01*
X92519523Y-102062380D02*
X92519523Y-101062380D01*
X93471904Y-101062380D02*
X92995714Y-101062380D01*
X92948095Y-101538571D01*
X92995714Y-101490952D01*
X93090952Y-101443333D01*
X93329047Y-101443333D01*
X93424285Y-101490952D01*
X93471904Y-101538571D01*
X93519523Y-101633809D01*
X93519523Y-101871904D01*
X93471904Y-101967142D01*
X93424285Y-102014761D01*
X93329047Y-102062380D01*
X93090952Y-102062380D01*
X92995714Y-102014761D01*
X92948095Y-101967142D01*
%TO.C,H4*%
X118618095Y-102062380D02*
X118618095Y-101062380D01*
X118618095Y-101538571D02*
X119189523Y-101538571D01*
X119189523Y-102062380D02*
X119189523Y-101062380D01*
X120094285Y-101395714D02*
X120094285Y-102062380D01*
X119856190Y-101014761D02*
X119618095Y-101729047D01*
X120237142Y-101729047D01*
%TO.C,H3*%
X110998095Y-102062380D02*
X110998095Y-101062380D01*
X110998095Y-101538571D02*
X111569523Y-101538571D01*
X111569523Y-102062380D02*
X111569523Y-101062380D01*
X111950476Y-101062380D02*
X112569523Y-101062380D01*
X112236190Y-101443333D01*
X112379047Y-101443333D01*
X112474285Y-101490952D01*
X112521904Y-101538571D01*
X112569523Y-101633809D01*
X112569523Y-101871904D01*
X112521904Y-101967142D01*
X112474285Y-102014761D01*
X112379047Y-102062380D01*
X112093333Y-102062380D01*
X111998095Y-102014761D01*
X111950476Y-101967142D01*
%TO.C,H2*%
X79248095Y-102062380D02*
X79248095Y-101062380D01*
X79248095Y-101538571D02*
X79819523Y-101538571D01*
X79819523Y-102062380D02*
X79819523Y-101062380D01*
X80248095Y-101157619D02*
X80295714Y-101110000D01*
X80390952Y-101062380D01*
X80629047Y-101062380D01*
X80724285Y-101110000D01*
X80771904Y-101157619D01*
X80819523Y-101252857D01*
X80819523Y-101348095D01*
X80771904Y-101490952D01*
X80200476Y-102062380D01*
X80819523Y-102062380D01*
%TO.C,H1*%
X71628095Y-102062380D02*
X71628095Y-101062380D01*
X71628095Y-101538571D02*
X72199523Y-101538571D01*
X72199523Y-102062380D02*
X72199523Y-101062380D01*
X73199523Y-102062380D02*
X72628095Y-102062380D01*
X72913809Y-102062380D02*
X72913809Y-101062380D01*
X72818571Y-101205238D01*
X72723333Y-101300476D01*
X72628095Y-101348095D01*
%TO.C,U1*%
X81788095Y-87172380D02*
X81788095Y-87981904D01*
X81835714Y-88077142D01*
X81883333Y-88124761D01*
X81978571Y-88172380D01*
X82169047Y-88172380D01*
X82264285Y-88124761D01*
X82311904Y-88077142D01*
X82359523Y-87981904D01*
X82359523Y-87172380D01*
X83359523Y-88172380D02*
X82788095Y-88172380D01*
X83073809Y-88172380D02*
X83073809Y-87172380D01*
X82978571Y-87315238D01*
X82883333Y-87410476D01*
X82788095Y-87458095D01*
%TO.C,R1*%
X85642380Y-90590666D02*
X85166190Y-90924000D01*
X85642380Y-91162095D02*
X84642380Y-91162095D01*
X84642380Y-90781142D01*
X84690000Y-90685904D01*
X84737619Y-90638285D01*
X84832857Y-90590666D01*
X84975714Y-90590666D01*
X85070952Y-90638285D01*
X85118571Y-90685904D01*
X85166190Y-90781142D01*
X85166190Y-91162095D01*
X85642380Y-89638285D02*
X85642380Y-90209714D01*
X85642380Y-89924000D02*
X84642380Y-89924000D01*
X84785238Y-90019238D01*
X84880476Y-90114476D01*
X84928095Y-90209714D01*
%TO.C,Q2*%
X110394761Y-94657619D02*
X110299523Y-94610000D01*
X110204285Y-94514761D01*
X110061428Y-94371904D01*
X109966190Y-94324285D01*
X109870952Y-94324285D01*
X109918571Y-94562380D02*
X109823333Y-94514761D01*
X109728095Y-94419523D01*
X109680476Y-94229047D01*
X109680476Y-93895714D01*
X109728095Y-93705238D01*
X109823333Y-93610000D01*
X109918571Y-93562380D01*
X110109047Y-93562380D01*
X110204285Y-93610000D01*
X110299523Y-93705238D01*
X110347142Y-93895714D01*
X110347142Y-94229047D01*
X110299523Y-94419523D01*
X110204285Y-94514761D01*
X110109047Y-94562380D01*
X109918571Y-94562380D01*
X110728095Y-93657619D02*
X110775714Y-93610000D01*
X110870952Y-93562380D01*
X111109047Y-93562380D01*
X111204285Y-93610000D01*
X111251904Y-93657619D01*
X111299523Y-93752857D01*
X111299523Y-93848095D01*
X111251904Y-93990952D01*
X110680476Y-94562380D01*
X111299523Y-94562380D01*
%TO.C,Q1*%
X73564761Y-100747619D02*
X73469523Y-100700000D01*
X73374285Y-100604761D01*
X73231428Y-100461904D01*
X73136190Y-100414285D01*
X73040952Y-100414285D01*
X73088571Y-100652380D02*
X72993333Y-100604761D01*
X72898095Y-100509523D01*
X72850476Y-100319047D01*
X72850476Y-99985714D01*
X72898095Y-99795238D01*
X72993333Y-99700000D01*
X73088571Y-99652380D01*
X73279047Y-99652380D01*
X73374285Y-99700000D01*
X73469523Y-99795238D01*
X73517142Y-99985714D01*
X73517142Y-100319047D01*
X73469523Y-100509523D01*
X73374285Y-100604761D01*
X73279047Y-100652380D01*
X73088571Y-100652380D01*
X74469523Y-100652380D02*
X73898095Y-100652380D01*
X74183809Y-100652380D02*
X74183809Y-99652380D01*
X74088571Y-99795238D01*
X73993333Y-99890476D01*
X73898095Y-99938095D01*
%TO.C,D1*%
X91625380Y-90908095D02*
X90625380Y-90908095D01*
X90625380Y-90670000D01*
X90673000Y-90527142D01*
X90768238Y-90431904D01*
X90863476Y-90384285D01*
X91053952Y-90336666D01*
X91196809Y-90336666D01*
X91387285Y-90384285D01*
X91482523Y-90431904D01*
X91577761Y-90527142D01*
X91625380Y-90670000D01*
X91625380Y-90908095D01*
X91625380Y-89384285D02*
X91625380Y-89955714D01*
X91625380Y-89670000D02*
X90625380Y-89670000D01*
X90768238Y-89765238D01*
X90863476Y-89860476D01*
X90911095Y-89955714D01*
D11*
%TO.C,U1*%
X82550000Y-91780000D02*
X81050000Y-91780000D01*
X82550000Y-88560000D02*
X79625000Y-88560000D01*
X82550000Y-91780000D02*
X84050000Y-91780000D01*
X82550000Y-88560000D02*
X84050000Y-88560000D01*
%TO.C,R1*%
X85980000Y-90577641D02*
X85980000Y-90270359D01*
X86740000Y-90577641D02*
X86740000Y-90270359D01*
%TO.C,Q2*%
X108715000Y-95080000D02*
X113265000Y-95080000D01*
X107715000Y-100500000D02*
X113265000Y-100500000D01*
%TO.C,Q1*%
X75435000Y-99230000D02*
X70885000Y-99230000D01*
X76435000Y-93810000D02*
X70885000Y-93810000D01*
%TO.C,D1*%
X90333000Y-90170000D02*
X90333000Y-90820000D01*
X87213000Y-90170000D02*
X87213000Y-90820000D01*
X90333000Y-90170000D02*
X90333000Y-88495000D01*
X87213000Y-90170000D02*
X87213000Y-89520000D01*
%TD*%
%LPC*%
D12*
%TO.C,H6*%
X100330000Y-105410000D03*
%TD*%
%TO.C,H5*%
X92710000Y-105410000D03*
%TD*%
%TO.C,H4*%
X119380000Y-105410000D03*
%TD*%
%TO.C,H3*%
X111760000Y-105410000D03*
%TD*%
%TO.C,H2*%
X80010000Y-105410000D03*
%TD*%
%TO.C,H1*%
X72390000Y-105410000D03*
%TD*%
D13*
%TO.C,U1*%
X80437500Y-89195000D03*
X80437500Y-89845000D03*
X80437500Y-90495000D03*
X80437500Y-91145000D03*
X84662500Y-91145000D03*
X84662500Y-90495000D03*
X84662500Y-89845000D03*
X84662500Y-89195000D03*
%TD*%
D14*
%TO.C,R1*%
X86360000Y-90934000D03*
X86360000Y-89914000D03*
%TD*%
D15*
%TO.C,Q2*%
X107740000Y-95885000D03*
X107740000Y-97155000D03*
X107740000Y-98425000D03*
X107740000Y-99695000D03*
D16*
X110955000Y-97790000D03*
D17*
X113290000Y-97155000D03*
X113290000Y-99695000D03*
X113290000Y-95885000D03*
X113290000Y-98425000D03*
%TD*%
D15*
%TO.C,Q1*%
X76410000Y-98425000D03*
X76410000Y-97155000D03*
X76410000Y-95885000D03*
X76410000Y-94615000D03*
D16*
X73195000Y-96520000D03*
D17*
X70860000Y-97155000D03*
X70860000Y-94615000D03*
X70860000Y-98425000D03*
X70860000Y-95885000D03*
%TD*%
D18*
%TO.C,D1*%
X89723000Y-89232500D03*
X87823000Y-89232500D03*
X88773000Y-91107500D03*
%TD*%
M02*
