%TF.GenerationSoftware,KiCad,Pcbnew,6.0.2+dfsg-1*%
%TF.CreationDate,2023-02-05T15:08:22-05:00*%
%TF.ProjectId,LTC4414-battery-backup-test,4c544334-3431-4342-9d62-617474657279,rev?*%
%TF.SameCoordinates,Original*%
%TF.FileFunction,Copper,L2,Bot*%
%TF.FilePolarity,Positive*%
%FSLAX46Y46*%
G04 Gerber Fmt 4.6, Leading zero omitted, Abs format (unit mm)*
G04 Created by KiCad (PCBNEW 6.0.2+dfsg-1) date 2023-02-05 15:08:22*
%MOMM*%
%LPD*%
G01*
G04 APERTURE LIST*
%TA.AperFunction,ComponentPad*%
%ADD10C,5.600000*%
%TD*%
%TA.AperFunction,ViaPad*%
%ADD11C,0.800000*%
%TD*%
G04 APERTURE END LIST*
D10*
%TO.P,H6,1,1*%
%TO.N,GND*%
X100330000Y-105410000D03*
%TD*%
%TO.P,H5,1,1*%
%TO.N,LOAD*%
X92710000Y-105410000D03*
%TD*%
%TO.P,H4,1,1*%
%TO.N,GND*%
X119380000Y-105410000D03*
%TD*%
%TO.P,H3,1,1*%
%TO.N,+BATT*%
X111760000Y-105410000D03*
%TD*%
%TO.P,H2,1,1*%
%TO.N,GND*%
X80010000Y-105410000D03*
%TD*%
%TO.P,H1,1,1*%
%TO.N,+12V*%
X72390000Y-105410000D03*
%TD*%
D11*
%TO.N,GND*%
X78740000Y-91440000D03*
%TD*%
%TA.AperFunction,Conductor*%
%TO.N,GND*%
G36*
X124218171Y-87632421D02*
G01*
X124278622Y-87644446D01*
X124324042Y-87663260D01*
X124364766Y-87690471D01*
X124399529Y-87725234D01*
X124426740Y-87765958D01*
X124445554Y-87811378D01*
X124457579Y-87871829D01*
X124460000Y-87896411D01*
X124460000Y-108953589D01*
X124457579Y-108978171D01*
X124445554Y-109038622D01*
X124426740Y-109084042D01*
X124399529Y-109124766D01*
X124364766Y-109159529D01*
X124324042Y-109186740D01*
X124278622Y-109205554D01*
X124218171Y-109217579D01*
X124193589Y-109220000D01*
X68846411Y-109220000D01*
X68821829Y-109217579D01*
X68761378Y-109205554D01*
X68715958Y-109186740D01*
X68675234Y-109159529D01*
X68640471Y-109124766D01*
X68613260Y-109084042D01*
X68594446Y-109038622D01*
X68582421Y-108978171D01*
X68580000Y-108953589D01*
X68580000Y-105367285D01*
X69330985Y-105367285D01*
X69345288Y-105708537D01*
X69397540Y-106046067D01*
X69487091Y-106375669D01*
X69612825Y-106693235D01*
X69614470Y-106696329D01*
X69614471Y-106696331D01*
X69675678Y-106811444D01*
X69773173Y-106994807D01*
X69775163Y-106997713D01*
X69775164Y-106997715D01*
X69964147Y-107273718D01*
X69964152Y-107273724D01*
X69966138Y-107276625D01*
X70189314Y-107535177D01*
X70439921Y-107767241D01*
X70714833Y-107969924D01*
X70717870Y-107971678D01*
X70717874Y-107971680D01*
X70832444Y-108037827D01*
X71010624Y-108140699D01*
X71133621Y-108194435D01*
X71320388Y-108276032D01*
X71320391Y-108276033D01*
X71323609Y-108277439D01*
X71326966Y-108278478D01*
X71326971Y-108278480D01*
X71462639Y-108320476D01*
X71649885Y-108378438D01*
X71985386Y-108442439D01*
X72240610Y-108462077D01*
X72322434Y-108468373D01*
X72322435Y-108468373D01*
X72325931Y-108468642D01*
X72532793Y-108461418D01*
X72663758Y-108456845D01*
X72663763Y-108456845D01*
X72667273Y-108456722D01*
X72836216Y-108431775D01*
X73001681Y-108407341D01*
X73001686Y-108407340D01*
X73005160Y-108406827D01*
X73008552Y-108405931D01*
X73008556Y-108405930D01*
X73331989Y-108320476D01*
X73331990Y-108320476D01*
X73335380Y-108319580D01*
X73653816Y-108196066D01*
X73956499Y-108037827D01*
X74239658Y-107846834D01*
X74330729Y-107769327D01*
X74497089Y-107627743D01*
X74497090Y-107627742D01*
X74499762Y-107625468D01*
X74587058Y-107532507D01*
X74731159Y-107379056D01*
X74731163Y-107379051D01*
X74733570Y-107376488D01*
X74735675Y-107373674D01*
X74735681Y-107373667D01*
X74936058Y-107105817D01*
X74938167Y-107102998D01*
X75111003Y-106808406D01*
X75249924Y-106496383D01*
X75353199Y-106170820D01*
X75419540Y-105835774D01*
X75448120Y-105495421D01*
X75449313Y-105410000D01*
X75446926Y-105367285D01*
X89650985Y-105367285D01*
X89665288Y-105708537D01*
X89717540Y-106046067D01*
X89807091Y-106375669D01*
X89932825Y-106693235D01*
X89934470Y-106696329D01*
X89934471Y-106696331D01*
X89995678Y-106811444D01*
X90093173Y-106994807D01*
X90095163Y-106997713D01*
X90095164Y-106997715D01*
X90284147Y-107273718D01*
X90284152Y-107273724D01*
X90286138Y-107276625D01*
X90509314Y-107535177D01*
X90759921Y-107767241D01*
X91034833Y-107969924D01*
X91037870Y-107971678D01*
X91037874Y-107971680D01*
X91152444Y-108037827D01*
X91330624Y-108140699D01*
X91453621Y-108194435D01*
X91640388Y-108276032D01*
X91640391Y-108276033D01*
X91643609Y-108277439D01*
X91646966Y-108278478D01*
X91646971Y-108278480D01*
X91782639Y-108320476D01*
X91969885Y-108378438D01*
X92305386Y-108442439D01*
X92560610Y-108462077D01*
X92642434Y-108468373D01*
X92642435Y-108468373D01*
X92645931Y-108468642D01*
X92852793Y-108461418D01*
X92983758Y-108456845D01*
X92983763Y-108456845D01*
X92987273Y-108456722D01*
X93156216Y-108431775D01*
X93321681Y-108407341D01*
X93321686Y-108407340D01*
X93325160Y-108406827D01*
X93328552Y-108405931D01*
X93328556Y-108405930D01*
X93651989Y-108320476D01*
X93651990Y-108320476D01*
X93655380Y-108319580D01*
X93973816Y-108196066D01*
X94276499Y-108037827D01*
X94559658Y-107846834D01*
X94650729Y-107769327D01*
X94817089Y-107627743D01*
X94817090Y-107627742D01*
X94819762Y-107625468D01*
X94907058Y-107532507D01*
X95051159Y-107379056D01*
X95051163Y-107379051D01*
X95053570Y-107376488D01*
X95055675Y-107373674D01*
X95055681Y-107373667D01*
X95256058Y-107105817D01*
X95258167Y-107102998D01*
X95431003Y-106808406D01*
X95569924Y-106496383D01*
X95673199Y-106170820D01*
X95739540Y-105835774D01*
X95768120Y-105495421D01*
X95769313Y-105410000D01*
X95766926Y-105367285D01*
X108700985Y-105367285D01*
X108715288Y-105708537D01*
X108767540Y-106046067D01*
X108857091Y-106375669D01*
X108982825Y-106693235D01*
X108984470Y-106696329D01*
X108984471Y-106696331D01*
X109045678Y-106811444D01*
X109143173Y-106994807D01*
X109145163Y-106997713D01*
X109145164Y-106997715D01*
X109334147Y-107273718D01*
X109334152Y-107273724D01*
X109336138Y-107276625D01*
X109559314Y-107535177D01*
X109809921Y-107767241D01*
X110084833Y-107969924D01*
X110087870Y-107971678D01*
X110087874Y-107971680D01*
X110202444Y-108037827D01*
X110380624Y-108140699D01*
X110503621Y-108194435D01*
X110690388Y-108276032D01*
X110690391Y-108276033D01*
X110693609Y-108277439D01*
X110696966Y-108278478D01*
X110696971Y-108278480D01*
X110832639Y-108320476D01*
X111019885Y-108378438D01*
X111355386Y-108442439D01*
X111610610Y-108462077D01*
X111692434Y-108468373D01*
X111692435Y-108468373D01*
X111695931Y-108468642D01*
X111902793Y-108461418D01*
X112033758Y-108456845D01*
X112033763Y-108456845D01*
X112037273Y-108456722D01*
X112206216Y-108431775D01*
X112371681Y-108407341D01*
X112371686Y-108407340D01*
X112375160Y-108406827D01*
X112378552Y-108405931D01*
X112378556Y-108405930D01*
X112701989Y-108320476D01*
X112701990Y-108320476D01*
X112705380Y-108319580D01*
X113023816Y-108196066D01*
X113326499Y-108037827D01*
X113609658Y-107846834D01*
X113700729Y-107769327D01*
X113867089Y-107627743D01*
X113867090Y-107627742D01*
X113869762Y-107625468D01*
X113957058Y-107532507D01*
X114101159Y-107379056D01*
X114101163Y-107379051D01*
X114103570Y-107376488D01*
X114105675Y-107373674D01*
X114105681Y-107373667D01*
X114306058Y-107105817D01*
X114308167Y-107102998D01*
X114481003Y-106808406D01*
X114619924Y-106496383D01*
X114723199Y-106170820D01*
X114789540Y-105835774D01*
X114818120Y-105495421D01*
X114819313Y-105410000D01*
X114816729Y-105363767D01*
X114800443Y-105072491D01*
X114800247Y-105068982D01*
X114743287Y-104732214D01*
X114649143Y-104403894D01*
X114603365Y-104292829D01*
X114520326Y-104091359D01*
X114520322Y-104091351D01*
X114518988Y-104088114D01*
X114354445Y-103788811D01*
X114331168Y-103755813D01*
X114159595Y-103512594D01*
X114159594Y-103512593D01*
X114157564Y-103509715D01*
X113930799Y-103254303D01*
X113676977Y-103025761D01*
X113639916Y-102999228D01*
X113402129Y-102828989D01*
X113402122Y-102828985D01*
X113399262Y-102826937D01*
X113101115Y-102660308D01*
X112786251Y-102527951D01*
X112782882Y-102526960D01*
X112782878Y-102526958D01*
X112650990Y-102488141D01*
X112458597Y-102431517D01*
X112455138Y-102430907D01*
X112455129Y-102430905D01*
X112222591Y-102389903D01*
X112122235Y-102372208D01*
X112043811Y-102367274D01*
X111784876Y-102350983D01*
X111784870Y-102350983D01*
X111781358Y-102350762D01*
X111701603Y-102354663D01*
X111443722Y-102367274D01*
X111443713Y-102367275D01*
X111440215Y-102367446D01*
X111436747Y-102368008D01*
X111436744Y-102368008D01*
X111106532Y-102421491D01*
X111106529Y-102421492D01*
X111103057Y-102422054D01*
X111099670Y-102423000D01*
X111099664Y-102423001D01*
X110828941Y-102498589D01*
X110774088Y-102513904D01*
X110735947Y-102529314D01*
X110460672Y-102640532D01*
X110460668Y-102640534D01*
X110457408Y-102641851D01*
X110454321Y-102643520D01*
X110454317Y-102643522D01*
X110425793Y-102658945D01*
X110156963Y-102804301D01*
X109876499Y-102999228D01*
X109873857Y-103001541D01*
X109873853Y-103001544D01*
X109843498Y-103028118D01*
X109619511Y-103224204D01*
X109389202Y-103476425D01*
X109188444Y-103752745D01*
X109186702Y-103755811D01*
X109186701Y-103755813D01*
X109167956Y-103788811D01*
X109019737Y-104049722D01*
X108885186Y-104363653D01*
X108786467Y-104690627D01*
X108724811Y-105026566D01*
X108700985Y-105367285D01*
X95766926Y-105367285D01*
X95766729Y-105363767D01*
X95750443Y-105072491D01*
X95750247Y-105068982D01*
X95693287Y-104732214D01*
X95599143Y-104403894D01*
X95553365Y-104292829D01*
X95470326Y-104091359D01*
X95470322Y-104091351D01*
X95468988Y-104088114D01*
X95304445Y-103788811D01*
X95281168Y-103755813D01*
X95109595Y-103512594D01*
X95109594Y-103512593D01*
X95107564Y-103509715D01*
X94880799Y-103254303D01*
X94626977Y-103025761D01*
X94589916Y-102999228D01*
X94352129Y-102828989D01*
X94352122Y-102828985D01*
X94349262Y-102826937D01*
X94051115Y-102660308D01*
X93736251Y-102527951D01*
X93732882Y-102526960D01*
X93732878Y-102526958D01*
X93600990Y-102488141D01*
X93408597Y-102431517D01*
X93405138Y-102430907D01*
X93405129Y-102430905D01*
X93172591Y-102389903D01*
X93072235Y-102372208D01*
X92993811Y-102367274D01*
X92734876Y-102350983D01*
X92734870Y-102350983D01*
X92731358Y-102350762D01*
X92651603Y-102354663D01*
X92393722Y-102367274D01*
X92393713Y-102367275D01*
X92390215Y-102367446D01*
X92386747Y-102368008D01*
X92386744Y-102368008D01*
X92056532Y-102421491D01*
X92056529Y-102421492D01*
X92053057Y-102422054D01*
X92049670Y-102423000D01*
X92049664Y-102423001D01*
X91778941Y-102498589D01*
X91724088Y-102513904D01*
X91685947Y-102529314D01*
X91410672Y-102640532D01*
X91410668Y-102640534D01*
X91407408Y-102641851D01*
X91404321Y-102643520D01*
X91404317Y-102643522D01*
X91375793Y-102658945D01*
X91106963Y-102804301D01*
X90826499Y-102999228D01*
X90823857Y-103001541D01*
X90823853Y-103001544D01*
X90793498Y-103028118D01*
X90569511Y-103224204D01*
X90339202Y-103476425D01*
X90138444Y-103752745D01*
X90136702Y-103755811D01*
X90136701Y-103755813D01*
X90117956Y-103788811D01*
X89969737Y-104049722D01*
X89835186Y-104363653D01*
X89736467Y-104690627D01*
X89674811Y-105026566D01*
X89650985Y-105367285D01*
X75446926Y-105367285D01*
X75446729Y-105363767D01*
X75430443Y-105072491D01*
X75430247Y-105068982D01*
X75373287Y-104732214D01*
X75279143Y-104403894D01*
X75233365Y-104292829D01*
X75150326Y-104091359D01*
X75150322Y-104091351D01*
X75148988Y-104088114D01*
X74984445Y-103788811D01*
X74961168Y-103755813D01*
X74789595Y-103512594D01*
X74789594Y-103512593D01*
X74787564Y-103509715D01*
X74560799Y-103254303D01*
X74306977Y-103025761D01*
X74269916Y-102999228D01*
X74032129Y-102828989D01*
X74032122Y-102828985D01*
X74029262Y-102826937D01*
X73731115Y-102660308D01*
X73416251Y-102527951D01*
X73412882Y-102526960D01*
X73412878Y-102526958D01*
X73280990Y-102488141D01*
X73088597Y-102431517D01*
X73085138Y-102430907D01*
X73085129Y-102430905D01*
X72852591Y-102389903D01*
X72752235Y-102372208D01*
X72673811Y-102367274D01*
X72414876Y-102350983D01*
X72414870Y-102350983D01*
X72411358Y-102350762D01*
X72331603Y-102354663D01*
X72073722Y-102367274D01*
X72073713Y-102367275D01*
X72070215Y-102367446D01*
X72066747Y-102368008D01*
X72066744Y-102368008D01*
X71736532Y-102421491D01*
X71736529Y-102421492D01*
X71733057Y-102422054D01*
X71729670Y-102423000D01*
X71729664Y-102423001D01*
X71458941Y-102498589D01*
X71404088Y-102513904D01*
X71365947Y-102529314D01*
X71090672Y-102640532D01*
X71090668Y-102640534D01*
X71087408Y-102641851D01*
X71084321Y-102643520D01*
X71084317Y-102643522D01*
X71055793Y-102658945D01*
X70786963Y-102804301D01*
X70506499Y-102999228D01*
X70503857Y-103001541D01*
X70503853Y-103001544D01*
X70473498Y-103028118D01*
X70249511Y-103224204D01*
X70019202Y-103476425D01*
X69818444Y-103752745D01*
X69816702Y-103755811D01*
X69816701Y-103755813D01*
X69797956Y-103788811D01*
X69649737Y-104049722D01*
X69515186Y-104363653D01*
X69416467Y-104690627D01*
X69354811Y-105026566D01*
X69330985Y-105367285D01*
X68580000Y-105367285D01*
X68580000Y-87896411D01*
X68582421Y-87871829D01*
X68594446Y-87811378D01*
X68613260Y-87765958D01*
X68640471Y-87725234D01*
X68675234Y-87690471D01*
X68715958Y-87663260D01*
X68761378Y-87644446D01*
X68821829Y-87632421D01*
X68846411Y-87630000D01*
X124193589Y-87630000D01*
X124218171Y-87632421D01*
G37*
%TD.AperFunction*%
%TD*%
M02*
