%TF.GenerationSoftware,KiCad,Pcbnew,6.0.2+dfsg-1*%
%TF.CreationDate,2023-01-15T14:48:08-05:00*%
%TF.ProjectId,MLX91221-test,4d4c5839-3132-4323-912d-746573742e6b,rev?*%
%TF.SameCoordinates,Original*%
%TF.FileFunction,Copper,L1,Top*%
%TF.FilePolarity,Positive*%
%FSLAX46Y46*%
G04 Gerber Fmt 4.6, Leading zero omitted, Abs format (unit mm)*
G04 Created by KiCad (PCBNEW 6.0.2+dfsg-1) date 2023-01-15 14:48:08*
%MOMM*%
%LPD*%
G01*
G04 APERTURE LIST*
G04 Aperture macros list*
%AMRoundRect*
0 Rectangle with rounded corners*
0 $1 Rounding radius*
0 $2 $3 $4 $5 $6 $7 $8 $9 X,Y pos of 4 corners*
0 Add a 4 corners polygon primitive as box body*
4,1,4,$2,$3,$4,$5,$6,$7,$8,$9,$2,$3,0*
0 Add four circle primitives for the rounded corners*
1,1,$1+$1,$2,$3*
1,1,$1+$1,$4,$5*
1,1,$1+$1,$6,$7*
1,1,$1+$1,$8,$9*
0 Add four rect primitives between the rounded corners*
20,1,$1+$1,$2,$3,$4,$5,0*
20,1,$1+$1,$4,$5,$6,$7,0*
20,1,$1+$1,$6,$7,$8,$9,0*
20,1,$1+$1,$8,$9,$2,$3,0*%
G04 Aperture macros list end*
%TA.AperFunction,ComponentPad*%
%ADD10C,2.100000*%
%TD*%
%TA.AperFunction,SMDPad,CuDef*%
%ADD11RoundRect,0.225000X0.225000X0.250000X-0.225000X0.250000X-0.225000X-0.250000X0.225000X-0.250000X0*%
%TD*%
%TA.AperFunction,SMDPad,CuDef*%
%ADD12RoundRect,0.225000X-0.225000X-0.250000X0.225000X-0.250000X0.225000X0.250000X-0.225000X0.250000X0*%
%TD*%
%TA.AperFunction,ComponentPad*%
%ADD13R,1.700000X1.700000*%
%TD*%
%TA.AperFunction,ComponentPad*%
%ADD14O,1.700000X1.700000*%
%TD*%
%TA.AperFunction,SMDPad,CuDef*%
%ADD15RoundRect,0.150000X0.150000X-0.825000X0.150000X0.825000X-0.150000X0.825000X-0.150000X-0.825000X0*%
%TD*%
%TA.AperFunction,ViaPad*%
%ADD16C,0.800000*%
%TD*%
%TA.AperFunction,Conductor*%
%ADD17C,0.600000*%
%TD*%
G04 APERTURE END LIST*
D10*
%TO.P,J2,1,1*%
%TO.N,IP+*%
X56413200Y-101988900D03*
X64033200Y-101988900D03*
X64033200Y-107068900D03*
X64033200Y-104528900D03*
X56413200Y-107068900D03*
X64033200Y-99448900D03*
X56413200Y-99448900D03*
X56413200Y-104528900D03*
%TD*%
D11*
%TO.P,C1,1*%
%TO.N,/3.3V*%
X64275000Y-88900000D03*
%TO.P,C1,2*%
%TO.N,GND*%
X62725000Y-88900000D03*
%TD*%
D12*
%TO.P,C2,1*%
%TO.N,/3.3V*%
X66535000Y-88900000D03*
%TO.P,C2,2*%
%TO.N,GND*%
X68085000Y-88900000D03*
%TD*%
D10*
%TO.P,J3,1,1*%
%TO.N,IP-*%
X67843200Y-99448900D03*
X75463200Y-107068900D03*
X67843200Y-107068900D03*
X67843200Y-104528900D03*
X75463200Y-104528900D03*
X75463200Y-99448900D03*
X75463200Y-101988900D03*
X67843200Y-101988900D03*
%TD*%
D13*
%TO.P,J1,1,Pin_1*%
%TO.N,/3.3V*%
X63515000Y-83820000D03*
D14*
%TO.P,J1,2,Pin_2*%
%TO.N,/VOUT*%
X66055000Y-83820000D03*
%TO.P,J1,3,Pin_3*%
%TO.N,GND*%
X68595000Y-83820000D03*
%TD*%
D12*
%TO.P,C3,1*%
%TO.N,/VOUT*%
X65900000Y-86995000D03*
%TO.P,C3,2*%
%TO.N,GND*%
X67450000Y-86995000D03*
%TD*%
D15*
%TO.P,U1,1,IP+*%
%TO.N,IP+*%
X64135000Y-96455000D03*
%TO.P,U1,2,IP+*%
X65405000Y-96455000D03*
%TO.P,U1,3,IP-*%
%TO.N,IP-*%
X66675000Y-96455000D03*
%TO.P,U1,4,IP-*%
X67945000Y-96455000D03*
%TO.P,U1,5,VSS*%
%TO.N,GND*%
X67945000Y-91505000D03*
%TO.P,U1,6,VREF*%
%TO.N,/3.3V*%
X66675000Y-91505000D03*
%TO.P,U1,7,VOUT*%
%TO.N,/VOUT*%
X65405000Y-91505000D03*
%TO.P,U1,8,VDD*%
%TO.N,/3.3V*%
X64135000Y-91505000D03*
%TD*%
D16*
%TO.N,GND*%
X73660000Y-93980000D03*
X69850000Y-93980000D03*
X59690000Y-93980000D03*
X58420000Y-93980000D03*
X62230000Y-93980000D03*
X71120000Y-93980000D03*
X72390000Y-93980000D03*
X60960000Y-93980000D03*
%TO.N,IP+*%
X60960000Y-97155000D03*
X58420000Y-95885000D03*
X58420000Y-97155000D03*
X59690000Y-95885000D03*
X62230000Y-97155000D03*
X60960000Y-95885000D03*
X59690000Y-97155000D03*
X62230000Y-95885000D03*
%TO.N,IP-*%
X72390000Y-95885000D03*
X71120000Y-97155000D03*
X72390000Y-97155000D03*
X69850000Y-97155000D03*
X73660000Y-97155000D03*
X71120000Y-95885000D03*
X73660000Y-95885000D03*
X69850000Y-95885000D03*
%TD*%
D17*
%TO.N,/3.3V*%
X66675000Y-92456000D02*
X66675000Y-91505000D01*
X64135000Y-90170000D02*
X64275000Y-90030000D01*
X64135000Y-92583000D02*
X64643000Y-93091000D01*
X64135000Y-91505000D02*
X64135000Y-90170000D01*
X66675000Y-91505000D02*
X66675000Y-90170000D01*
X66535000Y-90030000D02*
X66535000Y-88900000D01*
X64643000Y-93091000D02*
X66040000Y-93091000D01*
X66040000Y-93091000D02*
X66675000Y-92456000D01*
X64275000Y-90030000D02*
X64275000Y-88900000D01*
X64135000Y-91505000D02*
X64135000Y-92583000D01*
X63515000Y-83820000D02*
X64275000Y-84580000D01*
X64275000Y-84580000D02*
X64275000Y-88900000D01*
X66675000Y-90170000D02*
X66535000Y-90030000D01*
%TO.N,/VOUT*%
X66055000Y-86840000D02*
X65900000Y-86995000D01*
X66055000Y-83820000D02*
X66055000Y-86840000D01*
X65900000Y-86995000D02*
X65405000Y-87490000D01*
X65405000Y-87490000D02*
X65405000Y-91505000D01*
%TD*%
%TA.AperFunction,Conductor*%
%TO.N,IP-*%
G36*
X76593171Y-95252421D02*
G01*
X76653622Y-95264446D01*
X76699042Y-95283260D01*
X76739766Y-95310471D01*
X76774529Y-95345234D01*
X76801740Y-95385958D01*
X76820554Y-95431378D01*
X76832579Y-95491829D01*
X76835000Y-95516411D01*
X76835000Y-108318589D01*
X76832579Y-108343171D01*
X76820554Y-108403622D01*
X76801740Y-108449042D01*
X76774529Y-108489766D01*
X76739766Y-108524529D01*
X76699042Y-108551740D01*
X76653622Y-108570554D01*
X76593171Y-108582579D01*
X76568589Y-108585000D01*
X66433411Y-108585000D01*
X66408829Y-108582579D01*
X66348378Y-108570554D01*
X66302958Y-108551740D01*
X66262234Y-108524529D01*
X66227471Y-108489766D01*
X66200260Y-108449042D01*
X66181446Y-108403622D01*
X66169421Y-108343171D01*
X66167000Y-108318589D01*
X66167000Y-95516411D01*
X66169421Y-95491829D01*
X66181446Y-95431378D01*
X66200260Y-95385958D01*
X66227471Y-95345234D01*
X66262234Y-95310471D01*
X66302958Y-95283260D01*
X66348378Y-95264446D01*
X66408829Y-95252421D01*
X66433411Y-95250000D01*
X76568589Y-95250000D01*
X76593171Y-95252421D01*
G37*
%TD.AperFunction*%
%TD*%
%TA.AperFunction,Conductor*%
%TO.N,GND*%
G36*
X76593171Y-81917421D02*
G01*
X76653622Y-81929446D01*
X76699042Y-81948260D01*
X76739766Y-81975471D01*
X76774529Y-82010234D01*
X76801740Y-82050958D01*
X76820554Y-82096378D01*
X76832579Y-82156829D01*
X76835000Y-82181411D01*
X76835000Y-94729589D01*
X76832579Y-94754171D01*
X76820554Y-94814622D01*
X76801740Y-94860042D01*
X76774529Y-94900766D01*
X76739766Y-94935529D01*
X76699042Y-94962740D01*
X76653622Y-94981554D01*
X76593171Y-94993579D01*
X76568589Y-94996000D01*
X55511411Y-94996000D01*
X55486829Y-94993579D01*
X55426378Y-94981554D01*
X55380958Y-94962740D01*
X55340234Y-94935529D01*
X55305471Y-94900766D01*
X55278260Y-94860042D01*
X55259446Y-94814622D01*
X55247421Y-94754171D01*
X55245000Y-94729589D01*
X55245000Y-82944933D01*
X62410500Y-82944933D01*
X62410501Y-84695066D01*
X62425266Y-84769301D01*
X62481516Y-84853484D01*
X62565699Y-84909734D01*
X62639933Y-84924500D01*
X62690509Y-84924500D01*
X63594500Y-84924499D01*
X63662621Y-84944501D01*
X63709114Y-84998157D01*
X63720500Y-85050499D01*
X63720500Y-88248075D01*
X63700498Y-88316196D01*
X63695326Y-88323641D01*
X63630465Y-88410183D01*
X63630463Y-88410186D01*
X63625083Y-88417365D01*
X63576870Y-88545976D01*
X63570500Y-88604611D01*
X63570501Y-89195388D01*
X63576870Y-89254024D01*
X63625083Y-89382635D01*
X63630463Y-89389814D01*
X63630465Y-89389817D01*
X63695326Y-89476359D01*
X63720174Y-89542866D01*
X63720500Y-89551925D01*
X63720500Y-89750293D01*
X63701586Y-89816690D01*
X63680619Y-89850506D01*
X63673896Y-89860288D01*
X63647370Y-89895235D01*
X63644209Y-89903219D01*
X63641763Y-89909396D01*
X63631700Y-89929402D01*
X63628206Y-89935037D01*
X63628202Y-89935046D01*
X63623677Y-89942344D01*
X63621281Y-89950591D01*
X63611435Y-89984480D01*
X63607593Y-89995702D01*
X63591444Y-90036490D01*
X63590546Y-90045035D01*
X63589852Y-90051633D01*
X63585541Y-90073605D01*
X63581291Y-90088235D01*
X63580500Y-90099007D01*
X63580500Y-90134005D01*
X63579810Y-90147175D01*
X63575563Y-90187581D01*
X63578737Y-90206346D01*
X63580500Y-90227348D01*
X63580500Y-92567925D01*
X63580390Y-92573201D01*
X63577772Y-92635674D01*
X63579734Y-92644039D01*
X63587788Y-92678378D01*
X63589951Y-92690051D01*
X63595905Y-92733518D01*
X63599317Y-92741402D01*
X63601953Y-92747494D01*
X63608987Y-92768763D01*
X63612463Y-92783583D01*
X63633603Y-92822037D01*
X63638818Y-92832683D01*
X63652830Y-92865063D01*
X63652832Y-92865067D01*
X63656242Y-92872946D01*
X63661646Y-92879619D01*
X63661647Y-92879621D01*
X63665821Y-92884775D01*
X63678312Y-92903363D01*
X63685652Y-92916715D01*
X63692710Y-92924891D01*
X63717453Y-92949634D01*
X63726279Y-92959435D01*
X63746444Y-92984338D01*
X63746447Y-92984341D01*
X63751850Y-92991013D01*
X63758852Y-92995989D01*
X63758853Y-92995990D01*
X63767354Y-93002031D01*
X63783461Y-93015642D01*
X64240255Y-93472437D01*
X64243907Y-93476245D01*
X64286226Y-93522266D01*
X64323505Y-93545380D01*
X64333268Y-93552089D01*
X64334604Y-93553103D01*
X64361041Y-93573170D01*
X64368234Y-93578630D01*
X64381248Y-93583782D01*
X64382394Y-93584236D01*
X64402403Y-93594299D01*
X64415344Y-93602323D01*
X64439706Y-93609401D01*
X64457476Y-93614564D01*
X64468705Y-93618409D01*
X64501502Y-93631394D01*
X64501510Y-93631396D01*
X64509489Y-93634555D01*
X64524619Y-93636145D01*
X64546604Y-93640458D01*
X64561235Y-93644709D01*
X64567819Y-93645192D01*
X64567822Y-93645193D01*
X64568521Y-93645244D01*
X64572007Y-93645500D01*
X64607013Y-93645500D01*
X64620183Y-93646190D01*
X64660580Y-93650436D01*
X64669047Y-93649004D01*
X64669048Y-93649004D01*
X64679335Y-93647264D01*
X64700347Y-93645500D01*
X66024925Y-93645500D01*
X66030201Y-93645610D01*
X66092674Y-93648228D01*
X66115535Y-93642866D01*
X66135378Y-93638212D01*
X66147051Y-93636049D01*
X66162754Y-93633898D01*
X66190518Y-93630095D01*
X66204493Y-93624047D01*
X66225763Y-93617013D01*
X66232222Y-93615498D01*
X66240583Y-93613537D01*
X66279037Y-93592397D01*
X66289683Y-93587182D01*
X66322063Y-93573170D01*
X66322067Y-93573168D01*
X66329946Y-93569758D01*
X66341775Y-93560179D01*
X66360363Y-93547688D01*
X66373715Y-93540348D01*
X66379245Y-93535574D01*
X66380140Y-93534802D01*
X66380147Y-93534796D01*
X66381891Y-93533290D01*
X66406634Y-93508547D01*
X66416435Y-93499721D01*
X66441338Y-93479556D01*
X66441341Y-93479553D01*
X66448013Y-93474150D01*
X66459038Y-93458636D01*
X66472645Y-93442536D01*
X67056413Y-92858768D01*
X67060221Y-92855115D01*
X67099948Y-92818584D01*
X67099949Y-92818583D01*
X67106266Y-92812774D01*
X67124366Y-92783583D01*
X67129381Y-92775494D01*
X67136104Y-92765712D01*
X67157438Y-92737605D01*
X67162630Y-92730765D01*
X67168237Y-92716604D01*
X67178300Y-92696598D01*
X67181794Y-92690963D01*
X67181798Y-92690954D01*
X67186323Y-92683656D01*
X67198565Y-92641520D01*
X67202409Y-92630293D01*
X67203677Y-92627091D01*
X67218556Y-92589510D01*
X67220148Y-92574367D01*
X67224459Y-92552394D01*
X67226867Y-92544104D01*
X67228709Y-92537765D01*
X67229500Y-92526993D01*
X67229500Y-92491995D01*
X67230190Y-92478824D01*
X67233539Y-92446963D01*
X67234437Y-92438419D01*
X67231263Y-92419654D01*
X67229500Y-92398652D01*
X67229500Y-90185075D01*
X67229610Y-90179799D01*
X67231252Y-90140611D01*
X67232228Y-90117326D01*
X67225405Y-90088235D01*
X67222212Y-90074622D01*
X67220049Y-90062949D01*
X67215261Y-90027995D01*
X67214095Y-90019482D01*
X67208047Y-90005506D01*
X67201013Y-89984237D01*
X67199498Y-89977778D01*
X67197537Y-89969417D01*
X67176397Y-89930963D01*
X67171182Y-89920317D01*
X67157170Y-89887937D01*
X67157168Y-89887933D01*
X67153758Y-89880054D01*
X67144179Y-89868225D01*
X67131688Y-89849637D01*
X67124348Y-89836285D01*
X67120028Y-89831280D01*
X67116260Y-89825859D01*
X67117286Y-89825146D01*
X67090750Y-89766760D01*
X67089500Y-89749055D01*
X67089500Y-89551925D01*
X67109502Y-89483804D01*
X67114674Y-89476359D01*
X67179535Y-89389817D01*
X67179537Y-89389814D01*
X67184917Y-89382635D01*
X67233130Y-89254024D01*
X67239500Y-89195389D01*
X67239499Y-88604612D01*
X67233130Y-88545976D01*
X67184917Y-88417365D01*
X67179537Y-88410186D01*
X67179535Y-88410183D01*
X67107923Y-88314633D01*
X67102544Y-88307456D01*
X67089500Y-88297680D01*
X66999817Y-88230465D01*
X66999814Y-88230463D01*
X66992635Y-88225083D01*
X66940271Y-88205453D01*
X66871419Y-88179642D01*
X66871418Y-88179642D01*
X66864024Y-88176870D01*
X66856174Y-88176017D01*
X66856173Y-88176017D01*
X66808786Y-88170869D01*
X66808785Y-88170869D01*
X66805389Y-88170500D01*
X66535080Y-88170500D01*
X66264612Y-88170501D01*
X66261218Y-88170870D01*
X66261212Y-88170870D01*
X66213834Y-88176016D01*
X66213830Y-88176017D01*
X66205976Y-88176870D01*
X66198576Y-88179644D01*
X66198572Y-88179645D01*
X66129728Y-88205453D01*
X66058921Y-88210636D01*
X65996553Y-88176714D01*
X65962424Y-88114459D01*
X65959500Y-88087471D01*
X65959500Y-87850499D01*
X65979502Y-87782378D01*
X66033158Y-87735885D01*
X66085500Y-87724499D01*
X66170388Y-87724499D01*
X66173782Y-87724130D01*
X66173788Y-87724130D01*
X66221166Y-87718984D01*
X66221170Y-87718983D01*
X66229024Y-87718130D01*
X66357635Y-87669917D01*
X66364814Y-87664537D01*
X66364817Y-87664535D01*
X66460367Y-87592923D01*
X66467544Y-87587544D01*
X66472923Y-87580367D01*
X66544535Y-87484817D01*
X66544537Y-87484814D01*
X66549917Y-87477635D01*
X66598130Y-87349024D01*
X66604500Y-87290389D01*
X66604499Y-86952508D01*
X66606491Y-86930194D01*
X66606867Y-86928105D01*
X66608709Y-86921765D01*
X66609500Y-86910993D01*
X66609500Y-86875995D01*
X66610190Y-86862824D01*
X66613539Y-86830963D01*
X66614437Y-86822419D01*
X66611263Y-86803654D01*
X66609500Y-86782652D01*
X66609500Y-84849313D01*
X66629502Y-84781192D01*
X66673937Y-84739377D01*
X66678234Y-84736971D01*
X66678236Y-84736969D01*
X66683276Y-84734147D01*
X66839345Y-84604345D01*
X66896463Y-84535669D01*
X66965453Y-84452718D01*
X66965455Y-84452715D01*
X66969147Y-84448276D01*
X67068334Y-84271165D01*
X67070190Y-84265698D01*
X67070192Y-84265693D01*
X67131728Y-84084414D01*
X67131729Y-84084409D01*
X67133584Y-84078945D01*
X67134412Y-84073236D01*
X67134413Y-84073231D01*
X67162179Y-83881727D01*
X67162712Y-83878053D01*
X67164232Y-83820000D01*
X67145658Y-83617859D01*
X67144090Y-83612299D01*
X67092125Y-83428046D01*
X67092124Y-83428044D01*
X67090557Y-83422487D01*
X67079978Y-83401033D01*
X67003331Y-83245609D01*
X67000776Y-83240428D01*
X66879320Y-83077779D01*
X66730258Y-82939987D01*
X66725375Y-82936906D01*
X66725371Y-82936903D01*
X66563464Y-82834748D01*
X66558581Y-82831667D01*
X66370039Y-82756446D01*
X66364379Y-82755320D01*
X66364375Y-82755319D01*
X66176613Y-82717971D01*
X66176610Y-82717971D01*
X66170946Y-82716844D01*
X66165171Y-82716768D01*
X66165167Y-82716768D01*
X66063793Y-82715441D01*
X65967971Y-82714187D01*
X65962274Y-82715166D01*
X65962273Y-82715166D01*
X65874397Y-82730266D01*
X65767910Y-82748564D01*
X65577463Y-82818824D01*
X65403010Y-82922612D01*
X65398670Y-82926418D01*
X65398666Y-82926421D01*
X65254733Y-83052648D01*
X65250392Y-83056455D01*
X65124720Y-83215869D01*
X65122031Y-83220980D01*
X65122029Y-83220983D01*
X65109073Y-83245609D01*
X65030203Y-83395515D01*
X64970007Y-83589378D01*
X64946148Y-83790964D01*
X64959424Y-83993522D01*
X64960845Y-83999118D01*
X64960846Y-83999123D01*
X65004749Y-84171987D01*
X65009392Y-84190269D01*
X65011809Y-84195512D01*
X65049010Y-84276208D01*
X65094377Y-84374616D01*
X65211533Y-84540389D01*
X65356938Y-84682035D01*
X65444503Y-84740544D01*
X65490029Y-84795019D01*
X65500500Y-84845308D01*
X65500500Y-86215041D01*
X65480498Y-86283162D01*
X65441756Y-86319271D01*
X65442365Y-86320083D01*
X65332456Y-86402456D01*
X65327077Y-86409633D01*
X65255465Y-86505183D01*
X65255463Y-86505186D01*
X65250083Y-86512365D01*
X65201870Y-86640976D01*
X65195500Y-86699611D01*
X65195500Y-86863127D01*
X65175498Y-86931248D01*
X65158596Y-86952222D01*
X65044596Y-87066223D01*
X64982284Y-87100248D01*
X64911468Y-87095184D01*
X64854632Y-87052637D01*
X64829821Y-86986117D01*
X64829500Y-86977128D01*
X64829500Y-84595074D01*
X64829610Y-84589798D01*
X64831511Y-84544424D01*
X64832228Y-84527326D01*
X64822212Y-84484622D01*
X64820049Y-84472949D01*
X64815261Y-84437995D01*
X64814095Y-84429482D01*
X64808047Y-84415506D01*
X64801013Y-84394237D01*
X64799498Y-84387778D01*
X64797537Y-84379417D01*
X64776397Y-84340963D01*
X64771182Y-84330317D01*
X64757170Y-84297937D01*
X64757168Y-84297933D01*
X64753758Y-84290054D01*
X64744179Y-84278225D01*
X64731688Y-84259637D01*
X64724348Y-84246285D01*
X64717290Y-84238109D01*
X64692547Y-84213366D01*
X64683721Y-84203565D01*
X64672954Y-84190269D01*
X64658150Y-84171987D01*
X64657381Y-84171440D01*
X64623281Y-84113402D01*
X64619500Y-84082766D01*
X64619499Y-82951123D01*
X64619499Y-82944934D01*
X64604734Y-82870699D01*
X64578654Y-82831667D01*
X64555377Y-82796832D01*
X64548484Y-82786516D01*
X64464301Y-82730266D01*
X64390067Y-82715500D01*
X63515142Y-82715500D01*
X62639934Y-82715501D01*
X62604182Y-82722612D01*
X62577874Y-82727844D01*
X62577872Y-82727845D01*
X62565699Y-82730266D01*
X62555379Y-82737161D01*
X62555378Y-82737162D01*
X62494985Y-82777516D01*
X62481516Y-82786516D01*
X62425266Y-82870699D01*
X62410500Y-82944933D01*
X55245000Y-82944933D01*
X55245000Y-82181411D01*
X55247421Y-82156829D01*
X55259446Y-82096378D01*
X55278260Y-82050958D01*
X55305471Y-82010234D01*
X55340234Y-81975471D01*
X55380958Y-81948260D01*
X55426378Y-81929446D01*
X55486829Y-81917421D01*
X55511411Y-81915000D01*
X76568589Y-81915000D01*
X76593171Y-81917421D01*
G37*
%TD.AperFunction*%
%TD*%
%TA.AperFunction,Conductor*%
%TO.N,IP+*%
G36*
X65671171Y-95252421D02*
G01*
X65731622Y-95264446D01*
X65777042Y-95283260D01*
X65817766Y-95310471D01*
X65852529Y-95345234D01*
X65879740Y-95385958D01*
X65898554Y-95431378D01*
X65910579Y-95491829D01*
X65913000Y-95516411D01*
X65913000Y-108318589D01*
X65910579Y-108343171D01*
X65898554Y-108403622D01*
X65879740Y-108449042D01*
X65852529Y-108489766D01*
X65817766Y-108524529D01*
X65777042Y-108551740D01*
X65731622Y-108570554D01*
X65671171Y-108582579D01*
X65646589Y-108585000D01*
X55511411Y-108585000D01*
X55486829Y-108582579D01*
X55426378Y-108570554D01*
X55380958Y-108551740D01*
X55340234Y-108524529D01*
X55305471Y-108489766D01*
X55278260Y-108449042D01*
X55259446Y-108403622D01*
X55247421Y-108343171D01*
X55245000Y-108318589D01*
X55245000Y-95516411D01*
X55247421Y-95491829D01*
X55259446Y-95431378D01*
X55278260Y-95385958D01*
X55305471Y-95345234D01*
X55340234Y-95310471D01*
X55380958Y-95283260D01*
X55426378Y-95264446D01*
X55486829Y-95252421D01*
X55511411Y-95250000D01*
X65646589Y-95250000D01*
X65671171Y-95252421D01*
G37*
%TD.AperFunction*%
%TD*%
M02*
