M48
; DRILL file {KiCad 6.0.2+dfsg-1} date Sun 15 Jan 2023 02:48:08 PM EST
; FORMAT={-:-/ absolute / inch / decimal}
; #@! TF.CreationDate,2023-01-15T14:48:08-05:00
; #@! TF.GenerationSoftware,Kicad,Pcbnew,6.0.2+dfsg-1
; #@! TF.FileFunction,Plated,1,2,PTH
FMAT,2
INCH
; #@! TA.AperFunction,Plated,PTH,ViaDrill
T1C0.0157
; #@! TA.AperFunction,Plated,PTH,ComponentDrill
T2C0.0394
; #@! TA.AperFunction,Plated,PTH,ComponentDrill
T3C0.0591
%
G90
G05
T1
X2.3Y-3.7
X2.3Y-3.775
X2.3Y-3.825
X2.35Y-3.7
X2.35Y-3.775
X2.35Y-3.825
X2.4Y-3.7
X2.4Y-3.775
X2.4Y-3.825
X2.45Y-3.7
X2.45Y-3.775
X2.45Y-3.825
X2.75Y-3.7
X2.75Y-3.775
X2.75Y-3.825
X2.8Y-3.7
X2.8Y-3.775
X2.8Y-3.825
X2.85Y-3.7
X2.85Y-3.775
X2.85Y-3.825
X2.9Y-3.7
X2.9Y-3.775
X2.9Y-3.825
T2
X2.5006Y-3.3
X2.6006Y-3.3
X2.7006Y-3.3
T3
X2.221Y-3.9153
X2.221Y-4.0153
X2.221Y-4.1153
X2.221Y-4.2153
X2.521Y-3.9153
X2.521Y-4.0153
X2.521Y-4.1153
X2.521Y-4.2153
X2.671Y-3.9153
X2.671Y-4.0153
X2.671Y-4.1153
X2.671Y-4.2153
X2.971Y-3.9153
X2.971Y-4.0153
X2.971Y-4.1153
X2.971Y-4.2153
T0
M30
