%TF.GenerationSoftware,KiCad,Pcbnew,6.0.2+dfsg-1*%
%TF.CreationDate,2023-01-15T14:48:08-05:00*%
%TF.ProjectId,MLX91221-test,4d4c5839-3132-4323-912d-746573742e6b,rev?*%
%TF.SameCoordinates,Original*%
%TF.FileFunction,Legend,Top*%
%TF.FilePolarity,Positive*%
%FSLAX46Y46*%
G04 Gerber Fmt 4.6, Leading zero omitted, Abs format (unit mm)*
G04 Created by KiCad (PCBNEW 6.0.2+dfsg-1) date 2023-01-15 14:48:08*
%MOMM*%
%LPD*%
G01*
G04 APERTURE LIST*
G04 Aperture macros list*
%AMRoundRect*
0 Rectangle with rounded corners*
0 $1 Rounding radius*
0 $2 $3 $4 $5 $6 $7 $8 $9 X,Y pos of 4 corners*
0 Add a 4 corners polygon primitive as box body*
4,1,4,$2,$3,$4,$5,$6,$7,$8,$9,$2,$3,0*
0 Add four circle primitives for the rounded corners*
1,1,$1+$1,$2,$3*
1,1,$1+$1,$4,$5*
1,1,$1+$1,$6,$7*
1,1,$1+$1,$8,$9*
0 Add four rect primitives between the rounded corners*
20,1,$1+$1,$2,$3,$4,$5,0*
20,1,$1+$1,$4,$5,$6,$7,0*
20,1,$1+$1,$6,$7,$8,$9,0*
20,1,$1+$1,$8,$9,$2,$3,0*%
G04 Aperture macros list end*
%ADD10C,0.150000*%
%ADD11C,0.120000*%
%ADD12C,2.100000*%
%ADD13RoundRect,0.225000X0.225000X0.250000X-0.225000X0.250000X-0.225000X-0.250000X0.225000X-0.250000X0*%
%ADD14RoundRect,0.225000X-0.225000X-0.250000X0.225000X-0.250000X0.225000X0.250000X-0.225000X0.250000X0*%
%ADD15R,1.700000X1.700000*%
%ADD16O,1.700000X1.700000*%
%ADD17RoundRect,0.150000X0.150000X-0.825000X0.150000X0.825000X-0.150000X0.825000X-0.150000X-0.825000X0*%
G04 APERTURE END LIST*
D10*
X65659047Y-107386428D02*
X66420952Y-107386428D01*
X66230476Y-107576904D02*
X66420952Y-107386428D01*
X66230476Y-107195952D01*
X65659047Y-99766428D02*
X66420952Y-99766428D01*
X66230476Y-99956904D02*
X66420952Y-99766428D01*
X66230476Y-99575952D01*
X65659047Y-101036428D02*
X66420952Y-101036428D01*
X66230476Y-101226904D02*
X66420952Y-101036428D01*
X66230476Y-100845952D01*
X65659047Y-98496428D02*
X66420952Y-98496428D01*
X66230476Y-98686904D02*
X66420952Y-98496428D01*
X66230476Y-98305952D01*
X59507380Y-91225238D02*
X58507380Y-91225238D01*
X59221666Y-90891904D01*
X58507380Y-90558571D01*
X59507380Y-90558571D01*
X59507380Y-89606190D02*
X59507380Y-90082380D01*
X58507380Y-90082380D01*
X58507380Y-89368095D02*
X59507380Y-88701428D01*
X58507380Y-88701428D02*
X59507380Y-89368095D01*
X59507380Y-88272857D02*
X59507380Y-88082380D01*
X59459761Y-87987142D01*
X59412142Y-87939523D01*
X59269285Y-87844285D01*
X59078809Y-87796666D01*
X58697857Y-87796666D01*
X58602619Y-87844285D01*
X58555000Y-87891904D01*
X58507380Y-87987142D01*
X58507380Y-88177619D01*
X58555000Y-88272857D01*
X58602619Y-88320476D01*
X58697857Y-88368095D01*
X58935952Y-88368095D01*
X59031190Y-88320476D01*
X59078809Y-88272857D01*
X59126428Y-88177619D01*
X59126428Y-87987142D01*
X59078809Y-87891904D01*
X59031190Y-87844285D01*
X58935952Y-87796666D01*
X59507380Y-86844285D02*
X59507380Y-87415714D01*
X59507380Y-87130000D02*
X58507380Y-87130000D01*
X58650238Y-87225238D01*
X58745476Y-87320476D01*
X58793095Y-87415714D01*
X58602619Y-86463333D02*
X58555000Y-86415714D01*
X58507380Y-86320476D01*
X58507380Y-86082380D01*
X58555000Y-85987142D01*
X58602619Y-85939523D01*
X58697857Y-85891904D01*
X58793095Y-85891904D01*
X58935952Y-85939523D01*
X59507380Y-86510952D01*
X59507380Y-85891904D01*
X58602619Y-85510952D02*
X58555000Y-85463333D01*
X58507380Y-85368095D01*
X58507380Y-85130000D01*
X58555000Y-85034761D01*
X58602619Y-84987142D01*
X58697857Y-84939523D01*
X58793095Y-84939523D01*
X58935952Y-84987142D01*
X59507380Y-85558571D01*
X59507380Y-84939523D01*
X59507380Y-83987142D02*
X59507380Y-84558571D01*
X59507380Y-84272857D02*
X58507380Y-84272857D01*
X58650238Y-84368095D01*
X58745476Y-84463333D01*
X58793095Y-84558571D01*
X65659047Y-102306428D02*
X66420952Y-102306428D01*
X66230476Y-102496904D02*
X66420952Y-102306428D01*
X66230476Y-102115952D01*
X65659047Y-106116428D02*
X66420952Y-106116428D01*
X66230476Y-106306904D02*
X66420952Y-106116428D01*
X66230476Y-105925952D01*
X65659047Y-103576428D02*
X66420952Y-103576428D01*
X66230476Y-103766904D02*
X66420952Y-103576428D01*
X66230476Y-103385952D01*
X65659047Y-104846428D02*
X66420952Y-104846428D01*
X66230476Y-105036904D02*
X66420952Y-104846428D01*
X66230476Y-104655952D01*
%TO.C,J2*%
X57770580Y-107068900D02*
X58008676Y-107068900D01*
X57913438Y-107306995D02*
X58008676Y-107068900D01*
X57913438Y-106830804D01*
X58199152Y-107211757D02*
X58008676Y-107068900D01*
X58199152Y-106926042D01*
%TO.C,J3*%
X69200580Y-107068900D02*
X69438676Y-107068900D01*
X69343438Y-107306995D02*
X69438676Y-107068900D01*
X69343438Y-106830804D01*
X69629152Y-107211757D02*
X69438676Y-107068900D01*
X69629152Y-106926042D01*
D11*
%TO.C,J2*%
X64846000Y-100944589D02*
X64846000Y-100493211D01*
X55600400Y-105573211D02*
X55600400Y-106024589D01*
X62988889Y-98636100D02*
X57457511Y-98636100D01*
X64846000Y-103484589D02*
X64846000Y-103033211D01*
X64846000Y-106024589D02*
X64846000Y-105573211D01*
X55600400Y-103033211D02*
X55600400Y-103484589D01*
X55600400Y-100493211D02*
X55600400Y-100944589D01*
X57457511Y-107881700D02*
X62988889Y-107881700D01*
%TO.C,C1*%
X63640580Y-89410000D02*
X63359420Y-89410000D01*
X63640580Y-88390000D02*
X63359420Y-88390000D01*
%TO.C,C2*%
X67169420Y-88390000D02*
X67450580Y-88390000D01*
X67169420Y-89410000D02*
X67450580Y-89410000D01*
%TO.C,J3*%
X67030400Y-100493211D02*
X67030400Y-100944589D01*
X67030400Y-103033211D02*
X67030400Y-103484589D01*
X76276000Y-106024589D02*
X76276000Y-105573211D01*
X68887511Y-107881700D02*
X74418889Y-107881700D01*
X76276000Y-100944589D02*
X76276000Y-100493211D01*
X74418889Y-98636100D02*
X68887511Y-98636100D01*
X67030400Y-105573211D02*
X67030400Y-106024589D01*
X76276000Y-103484589D02*
X76276000Y-103033211D01*
%TO.C,J1*%
X69925000Y-85150000D02*
X69925000Y-82490000D01*
X64785000Y-85150000D02*
X64785000Y-82490000D01*
X64785000Y-85150000D02*
X69925000Y-85150000D01*
X63515000Y-85150000D02*
X62185000Y-85150000D01*
X64785000Y-82490000D02*
X69925000Y-82490000D01*
X62185000Y-85150000D02*
X62185000Y-83820000D01*
%TO.C,C3*%
X66534420Y-86485000D02*
X66815580Y-86485000D01*
X66534420Y-87505000D02*
X66815580Y-87505000D01*
%TO.C,U1*%
X68600000Y-93980000D02*
X68600000Y-92030000D01*
X63480000Y-93980000D02*
X63480000Y-92030000D01*
X63480000Y-93980000D02*
X63480000Y-97430000D01*
X68600000Y-93980000D02*
X68600000Y-95930000D01*
%TD*%
%LPC*%
D12*
%TO.C,J2*%
X56413200Y-101988900D03*
X64033200Y-101988900D03*
X64033200Y-107068900D03*
X64033200Y-104528900D03*
X56413200Y-107068900D03*
X64033200Y-99448900D03*
X56413200Y-99448900D03*
X56413200Y-104528900D03*
%TD*%
D13*
%TO.C,C1*%
X64275000Y-88900000D03*
X62725000Y-88900000D03*
%TD*%
D14*
%TO.C,C2*%
X66535000Y-88900000D03*
X68085000Y-88900000D03*
%TD*%
D12*
%TO.C,J3*%
X67843200Y-99448900D03*
X75463200Y-107068900D03*
X67843200Y-107068900D03*
X67843200Y-104528900D03*
X75463200Y-104528900D03*
X75463200Y-99448900D03*
X75463200Y-101988900D03*
X67843200Y-101988900D03*
%TD*%
D15*
%TO.C,J1*%
X63515000Y-83820000D03*
D16*
X66055000Y-83820000D03*
X68595000Y-83820000D03*
%TD*%
D14*
%TO.C,C3*%
X65900000Y-86995000D03*
X67450000Y-86995000D03*
%TD*%
D17*
%TO.C,U1*%
X64135000Y-96455000D03*
X65405000Y-96455000D03*
X66675000Y-96455000D03*
X67945000Y-96455000D03*
X67945000Y-91505000D03*
X66675000Y-91505000D03*
X65405000Y-91505000D03*
X64135000Y-91505000D03*
%TD*%
M02*
