M48
; DRILL file {KiCad 6.0.2+dfsg-1} date Sun 15 Jan 2023 02:43:10 PM EST
; FORMAT={-:-/ absolute / inch / decimal}
; #@! TF.CreationDate,2023-01-15T14:43:10-05:00
; #@! TF.GenerationSoftware,Kicad,Pcbnew,6.0.2+dfsg-1
; #@! TF.FileFunction,Plated,1,2,PTH
FMAT,2
INCH
; #@! TA.AperFunction,Plated,PTH,ViaDrill
T1C0.0118
; #@! TA.AperFunction,Plated,PTH,ViaDrill
T2C0.0157
; #@! TA.AperFunction,Plated,PTH,ComponentDrill
T3C0.0236
; #@! TA.AperFunction,Plated,PTH,ComponentDrill
T4C0.0354
; #@! TA.AperFunction,Plated,PTH,ComponentDrill
T5C0.0394
; #@! TA.AperFunction,Plated,PTH,ComponentDrill
T6C0.0402
; #@! TA.AperFunction,Plated,PTH,ComponentDrill
T7C0.0630
%
G90
G05
T1
X2.74Y-4.83
X2.815Y-4.385
X2.82Y-4.07
X2.825Y-4.66
X2.905Y-4.66
X2.915Y-4.705
X2.935Y-4.6416
X2.95Y-4.35
X2.955Y-4.735
X2.96Y-4.66
X2.975Y-4.765
X2.99Y-4.315
X3.005Y-4.67
X3.005Y-4.7866
X3.015Y-4.285
X3.015Y-5.225
X3.02Y-4.05
X3.03Y-4.735
X3.04Y-4.39
X3.04Y-4.62
X3.055Y-4.72
X3.065Y-4.165
X3.065Y-4.36
X3.067Y-4.6416
X3.068Y-4.5755
X3.0693Y-4.8313
X3.09Y-4.14
X3.09Y-4.33
X3.0929Y-4.598
X3.0951Y-4.5705
X3.115Y-4.6628
X3.115Y-4.71
X3.115Y-4.7434
X3.1474Y-4.85
X3.1684Y-4.75
X3.1684Y-4.785
X3.1684Y-4.83
X3.191Y-4.8143
X3.225Y-4.825
X3.225Y-4.8525
X3.26Y-4.87
X3.265Y-4.225
X3.325Y-4.865
X3.35Y-4.13
X3.365Y-4.9
X3.38Y-5.23
X3.395Y-4.9
X3.425Y-4.9
X3.455Y-4.9
X3.5Y-4.605
X3.505Y-4.645
X3.535Y-4.49
X3.56Y-4.905
X3.65Y-4.075
X3.7Y-5.84
X3.7Y-6.0
X3.76Y-5.45
X3.765Y-4.365
X3.785Y-3.975
X3.82Y-4.96
X3.865Y-5.205
X3.865Y-5.345
X3.905Y-4.005
X4.245Y-5.22
T2
X2.415Y-4.48
X2.42Y-4.21
X2.465Y-4.995
X2.525Y-3.975
X2.525Y-4.48
X2.53Y-4.21
X2.575Y-5.12
X2.5875Y-3.975
X2.5875Y-4.155
X2.6325Y-4.2097
X2.6325Y-4.48
X2.675Y-5.32
X2.69Y-3.975
X2.69Y-4.155
X2.69Y-4.48
X2.7Y-5.525
X2.72Y-5.455
X2.775Y-4.95
X2.835Y-5.555
X2.85Y-5.27
X2.87Y-5.42
X2.935Y-5.315
X2.94Y-4.16
X3.0Y-5.56
X3.01Y-4.47
X3.055Y-5.405
X3.1Y-5.37
X3.17Y-5.295
X3.18Y-5.085
X3.215Y-4.44
X3.485Y-4.3
X3.52Y-5.01
X3.53Y-4.8
X3.58Y-4.16
X3.585Y-4.215
X3.595Y-4.865
X3.625Y-4.625
X3.65Y-4.94
X3.65Y-5.22
X3.67Y-4.47
X3.7Y-4.755
X3.725Y-4.865
X3.73Y-4.16
X3.735Y-4.94
X3.795Y-4.265
X3.82Y-4.495
X3.825Y-4.865
X3.89Y-4.52
X4.01Y-4.79
X4.135Y-4.07
X4.135Y-4.2125
X4.135Y-4.38
X4.225Y-4.34
X4.29Y-4.41
T4
X3.175Y-5.55
X3.225Y-5.45
X3.275Y-5.55
X3.325Y-5.45
X3.375Y-5.55
X3.425Y-5.45
X3.475Y-5.55
X3.525Y-5.45
T5
X2.41Y-3.795
X2.41Y-3.895
X2.51Y-3.795
X2.51Y-3.895
X2.61Y-3.795
X2.61Y-3.895
X2.71Y-3.795
X2.71Y-3.895
X2.81Y-3.795
X2.81Y-3.895
X2.91Y-3.795
X2.91Y-3.895
X3.01Y-3.795
X3.01Y-3.895
X3.11Y-3.795
X3.11Y-3.895
X3.21Y-3.795
X3.21Y-3.895
X3.31Y-3.795
X3.31Y-3.895
X3.41Y-3.795
X3.41Y-3.895
X3.51Y-3.795
X3.51Y-3.895
X3.61Y-3.795
X3.61Y-3.895
X3.71Y-3.795
X3.71Y-3.895
X3.81Y-3.795
X3.81Y-3.895
X3.91Y-3.795
X3.91Y-3.895
X4.01Y-3.795
X4.01Y-3.895
X4.11Y-3.795
X4.11Y-3.895
X4.21Y-3.795
X4.21Y-3.895
X4.31Y-3.795
X4.31Y-3.895
T6
X3.101Y-6.0
X3.202Y-5.9331
X3.498Y-6.0
X3.599Y-5.9331
T7
X3.0449Y-5.6799
X3.6551Y-5.6799
T3
G00X4.1292Y-4.5447
M15
G01X4.1725Y-4.5447
M16
G05
G00X4.1292Y-4.8853
M15
G01X4.1725Y-4.8853
M16
G05
G00X4.2993Y-4.5447
M15
G01X4.3307Y-4.5447
M16
G05
G00X4.2993Y-4.8853
M15
G01X4.3307Y-4.8853
M16
G05
T0
M30
