%TF.GenerationSoftware,KiCad,Pcbnew,6.0.2+dfsg-1*%
%TF.CreationDate,2023-01-15T14:43:10-05:00*%
%TF.ProjectId,wiz5500-clone-basic,77697a35-3530-4302-9d63-6c6f6e652d62,rev?*%
%TF.SameCoordinates,Original*%
%TF.FileFunction,Copper,L2,Bot*%
%TF.FilePolarity,Positive*%
%FSLAX46Y46*%
G04 Gerber Fmt 4.6, Leading zero omitted, Abs format (unit mm)*
G04 Created by KiCad (PCBNEW 6.0.2+dfsg-1) date 2023-01-15 14:43:10*
%MOMM*%
%LPD*%
G01*
G04 APERTURE LIST*
%TA.AperFunction,ComponentPad*%
%ADD10R,1.408000X1.408000*%
%TD*%
%TA.AperFunction,ComponentPad*%
%ADD11C,1.408000*%
%TD*%
%TA.AperFunction,ComponentPad*%
%ADD12C,1.530000*%
%TD*%
%TA.AperFunction,ComponentPad*%
%ADD13C,2.400000*%
%TD*%
%TA.AperFunction,ComponentPad*%
%ADD14R,1.700000X1.700000*%
%TD*%
%TA.AperFunction,ComponentPad*%
%ADD15O,1.700000X1.700000*%
%TD*%
%TA.AperFunction,ComponentPad*%
%ADD16O,2.000000X0.900000*%
%TD*%
%TA.AperFunction,ComponentPad*%
%ADD17O,1.700000X0.900000*%
%TD*%
%TA.AperFunction,ViaPad*%
%ADD18C,0.800000*%
%TD*%
%TA.AperFunction,ViaPad*%
%ADD19C,0.500000*%
%TD*%
%TA.AperFunction,Conductor*%
%ADD20C,0.600000*%
%TD*%
%TA.AperFunction,Conductor*%
%ADD21C,0.200000*%
%TD*%
%TA.AperFunction,Conductor*%
%ADD22C,0.300000*%
%TD*%
%TA.AperFunction,Conductor*%
%ADD23C,2.400000*%
%TD*%
G04 APERTURE END LIST*
D10*
%TO.P,P1,1*%
%TO.N,Net-(P1-Pad1)*%
X80645000Y-140970000D03*
D11*
%TO.P,P1,2*%
%TO.N,Net-(C34-Pad1)*%
X81915000Y-138430000D03*
%TO.P,P1,3*%
%TO.N,Net-(P1-Pad3)*%
X83185000Y-140970000D03*
%TO.P,P1,4*%
%TO.N,Net-(C35-Pad1)*%
X84455000Y-138430000D03*
%TO.P,P1,5*%
%TO.N,Net-(C37-Pad1)*%
X85725000Y-140970000D03*
%TO.P,P1,6*%
%TO.N,Net-(C36-Pad1)*%
X86995000Y-138430000D03*
%TO.P,P1,7*%
%TO.N,unconnected-(P1-Pad7)*%
X88265000Y-140970000D03*
%TO.P,P1,8*%
%TO.N,GND*%
X89535000Y-138430000D03*
D12*
%TO.P,P1,9*%
%TO.N,Net-(P1-Pad9)*%
X78765000Y-152400000D03*
%TO.P,P1,10*%
%TO.N,+3V3*%
X81332000Y-150700000D03*
%TO.P,P1,11*%
%TO.N,Net-(P1-Pad11)*%
X88848000Y-152400000D03*
%TO.P,P1,12*%
%TO.N,+3V3*%
X91415000Y-150700000D03*
D13*
%TO.P,P1,SH*%
%TO.N,GNDPWR*%
X77340000Y-144270000D03*
X92840000Y-144270000D03*
%TD*%
D14*
%TO.P,J2,1,Pin_1*%
%TO.N,+3V3*%
X109474000Y-96393000D03*
D15*
%TO.P,J2,2,Pin_2*%
%TO.N,VSYS*%
X109474000Y-98933000D03*
%TO.P,J2,3,Pin_3*%
%TO.N,VBUS*%
X106934000Y-96393000D03*
%TO.P,J2,4,Pin_4*%
%TO.N,GND*%
X106934000Y-98933000D03*
%TO.P,J2,5,Pin_5*%
%TO.N,GPIO0*%
X104394000Y-96393000D03*
%TO.P,J2,6,Pin_6*%
%TO.N,GPIO1*%
X104394000Y-98933000D03*
%TO.P,J2,7,Pin_7*%
%TO.N,GPIO2*%
X101854000Y-96393000D03*
%TO.P,J2,8,Pin_8*%
%TO.N,GPIO3*%
X101854000Y-98933000D03*
%TO.P,J2,9,Pin_9*%
%TO.N,GPIO4*%
X99314000Y-96393000D03*
%TO.P,J2,10,Pin_10*%
%TO.N,GPIO5*%
X99314000Y-98933000D03*
%TO.P,J2,11,Pin_11*%
%TO.N,GPIO6*%
X96774000Y-96393000D03*
%TO.P,J2,12,Pin_12*%
%TO.N,GPIO7*%
X96774000Y-98933000D03*
%TO.P,J2,13,Pin_13*%
%TO.N,GPIO8*%
X94234000Y-96393000D03*
%TO.P,J2,14,Pin_14*%
%TO.N,GPIO9*%
X94234000Y-98933000D03*
%TO.P,J2,15,Pin_15*%
%TO.N,GPIO10*%
X91694000Y-96393000D03*
%TO.P,J2,16,Pin_16*%
%TO.N,GPIO11*%
X91694000Y-98933000D03*
%TO.P,J2,17,Pin_17*%
%TO.N,GPIO12*%
X89154000Y-96393000D03*
%TO.P,J2,18,Pin_18*%
%TO.N,GPIO13*%
X89154000Y-98933000D03*
%TO.P,J2,19,Pin_19*%
%TO.N,GPIO14*%
X86614000Y-96393000D03*
%TO.P,J2,20,Pin_20*%
%TO.N,ADC_VREF*%
X86614000Y-98933000D03*
%TO.P,J2,21,Pin_21*%
%TO.N,GPIO15*%
X84074000Y-96393000D03*
%TO.P,J2,22,Pin_22*%
%TO.N,SWDIO*%
X84074000Y-98933000D03*
%TO.P,J2,23,Pin_23*%
%TO.N,SWCLK*%
X81534000Y-96393000D03*
%TO.P,J2,24,Pin_24*%
%TO.N,RUN*%
X81534000Y-98933000D03*
%TO.P,J2,25,Pin_25*%
%TO.N,MISO*%
X78994000Y-96393000D03*
%TO.P,J2,26,Pin_26*%
%TO.N,SCSn*%
X78994000Y-98933000D03*
%TO.P,J2,27,Pin_27*%
%TO.N,SCLK*%
X76454000Y-96393000D03*
%TO.P,J2,28,Pin_28*%
%TO.N,MOSI*%
X76454000Y-98933000D03*
%TO.P,J2,29,Pin_29*%
%TO.N,RSTn*%
X73914000Y-96393000D03*
%TO.P,J2,30,Pin_30*%
%TO.N,INTn*%
X73914000Y-98933000D03*
%TO.P,J2,31,Pin_31*%
%TO.N,GPIO22*%
X71374000Y-96393000D03*
%TO.P,J2,32,Pin_32*%
%TO.N,GPIO23*%
X71374000Y-98933000D03*
%TO.P,J2,33,Pin_33*%
%TO.N,GPIO24*%
X68834000Y-96393000D03*
%TO.P,J2,34,Pin_34*%
%TO.N,GPIO25*%
X68834000Y-98933000D03*
%TO.P,J2,35,Pin_35*%
%TO.N,GPIO26{slash}ADC0*%
X66294000Y-96393000D03*
%TO.P,J2,36,Pin_36*%
%TO.N,GPIO27{slash}ADC1*%
X66294000Y-98933000D03*
%TO.P,J2,37,Pin_37*%
%TO.N,GPIO28{slash}ADC2*%
X63754000Y-96393000D03*
%TO.P,J2,38,Pin_38*%
%TO.N,GPIO29{slash}ADC3*%
X63754000Y-98933000D03*
%TO.P,J2,39,Pin_39*%
%TO.N,GND*%
X61214000Y-96393000D03*
%TO.P,J2,40,Pin_40*%
X61214000Y-98933000D03*
%TD*%
D16*
%TO.P,J1,S1,SHIELD*%
%TO.N,GND*%
X105431000Y-124086000D03*
%TO.P,J1,S2,SHIELD*%
X105431000Y-115436000D03*
D17*
%TO.P,J1,S3,SHIELD*%
X109601000Y-124086000D03*
%TO.P,J1,S4,SHIELD*%
X109601000Y-115436000D03*
%TD*%
D18*
%TO.N,VSYS*%
X108966000Y-112014000D03*
%TO.N,GND*%
X93218000Y-113538000D03*
X64262000Y-106934000D03*
D19*
X76581000Y-132715000D03*
X76708000Y-102870000D03*
D18*
X94742000Y-105664000D03*
D19*
X74930000Y-110490000D03*
D18*
X70485000Y-125730000D03*
X61341000Y-113792000D03*
X81661000Y-112776000D03*
D19*
X95631000Y-110871000D03*
X92710000Y-103505000D03*
X85090000Y-104902000D03*
D18*
X77597000Y-137287000D03*
D19*
X93980000Y-152400000D03*
X80476500Y-122682000D03*
X99187000Y-101727000D03*
X76962000Y-120269000D03*
D18*
X80772000Y-129159000D03*
X67945000Y-135128000D03*
D19*
X107823000Y-132588000D03*
D18*
X65721500Y-100965000D03*
D19*
X75184000Y-118364000D03*
X82931000Y-107315000D03*
X95504000Y-138430000D03*
X98171000Y-132207000D03*
D18*
X80518000Y-134493000D03*
X64135000Y-113792000D03*
D19*
X96139000Y-100965000D03*
X97028000Y-125984000D03*
D18*
X92075000Y-117475000D03*
X88519000Y-109220000D03*
X66864500Y-113792000D03*
X96393000Y-108331000D03*
D19*
X85852000Y-132842000D03*
D18*
X105029000Y-103378000D03*
D19*
X75057000Y-120269000D03*
D18*
X76200000Y-141224000D03*
X65721500Y-105537000D03*
D19*
X71501000Y-111379000D03*
X98171000Y-135763000D03*
X81915000Y-122555000D03*
X93980000Y-148336000D03*
D18*
X68580000Y-140335000D03*
X62611000Y-126873000D03*
X66864489Y-106925377D03*
D19*
X73787000Y-118364000D03*
D18*
X68326000Y-100965000D03*
X64135000Y-100965000D03*
X90932000Y-105664000D03*
X69088000Y-138557000D03*
X65405000Y-130048000D03*
X68326000Y-105537000D03*
X61468000Y-106934000D03*
X68326000Y-113792000D03*
X72898000Y-137668000D03*
X101854000Y-121666000D03*
X105029000Y-106998500D03*
X72390000Y-133858000D03*
D19*
X69596000Y-122682000D03*
D18*
X94869000Y-125476000D03*
X89662000Y-121920000D03*
X76454000Y-113538000D03*
X105029000Y-111252000D03*
D19*
X71628000Y-103378000D03*
D18*
X89408000Y-127254000D03*
D19*
X71755000Y-118364000D03*
D18*
X98806000Y-114808000D03*
%TO.N,+3V3*%
X92710000Y-132588000D03*
D19*
X89027000Y-117983000D03*
D18*
X92710000Y-125476000D03*
X97028000Y-114173000D03*
D19*
X74041000Y-119507000D03*
%TO.N,+1V1*%
X77927251Y-116217821D03*
X89789000Y-114046000D03*
X88900000Y-116967000D03*
D18*
%TO.N,+3.3VA*%
X72009000Y-141097000D03*
X74549000Y-135001000D03*
X78740000Y-136398000D03*
%TO.N,VBUS*%
X107315000Y-110236000D03*
D19*
%TO.N,RSTn*%
X80476489Y-120650000D03*
X75565000Y-121031000D03*
%TO.N,INTn*%
X76327000Y-121580500D03*
X80476489Y-121539000D03*
%TO.N,MOSI*%
X77960263Y-122714848D03*
X79943030Y-123190000D03*
X74549000Y-117897500D03*
%TO.N,MISO*%
X77902727Y-117897500D03*
X76581000Y-108839000D03*
%TO.N,SCLK*%
X77597000Y-119888000D03*
X79121000Y-120481500D03*
X76327000Y-118618000D03*
%TO.N,SCSn*%
X75946000Y-109601000D03*
X81051343Y-122283428D03*
X79121000Y-118434989D03*
X79121000Y-119634000D03*
%TO.N,GPIO29{slash}ADC3*%
X90424000Y-124587000D03*
D18*
%TO.N,GPIO24*%
X91313000Y-123571000D03*
D19*
X84455000Y-123571000D03*
D18*
X94615000Y-123571000D03*
X97155000Y-123571000D03*
%TO.N,ADC_VREF*%
X93980000Y-120777000D03*
D19*
%TO.N,RUN*%
X77216000Y-111506000D03*
X77216000Y-117348000D03*
D18*
%TO.N,QSPI_SS_N*%
X91059000Y-107061000D03*
X74676000Y-105664000D03*
D19*
%TO.N,SWCLK*%
X77851000Y-105791000D03*
X78615153Y-116090959D03*
X77851000Y-110744000D03*
%TO.N,SWDIO*%
X78486000Y-105156000D03*
X78558840Y-116788191D03*
X78486000Y-109982000D03*
%TO.N,GPIO22*%
X81915000Y-123254503D03*
%TO.N,GPIO23*%
X82804000Y-123698000D03*
%TO.N,GPIO25*%
X85471000Y-124460000D03*
%TO.N,GPIO26{slash}ADC0*%
X86233000Y-124460000D03*
%TO.N,GPIO27{slash}ADC1*%
X86995000Y-124460000D03*
%TO.N,GPIO28{slash}ADC2*%
X87757000Y-124460000D03*
%TD*%
D20*
%TO.N,VSYS*%
X108966000Y-112014000D02*
X109474000Y-111506000D01*
X109474000Y-111506000D02*
X109474000Y-98933000D01*
D21*
%TO.N,+3V3*%
X92075000Y-114935000D02*
X93472000Y-114935000D01*
D22*
X74041000Y-119507000D02*
X76454000Y-119507000D01*
D20*
X92710000Y-125476000D02*
X92710000Y-121666000D01*
X81332000Y-150700000D02*
X91415000Y-150700000D01*
D22*
X76454000Y-119507000D02*
X76926511Y-119034489D01*
D21*
X89027000Y-117983000D02*
X92075000Y-114935000D01*
D22*
X87975511Y-119034489D02*
X89027000Y-117983000D01*
D20*
X92710000Y-121666000D02*
X89027000Y-117983000D01*
D21*
X93472000Y-114935000D02*
X94234000Y-114173000D01*
D20*
X92710000Y-132588000D02*
X92710000Y-125476000D01*
D22*
X76926511Y-119034489D02*
X87975511Y-119034489D01*
D21*
X94234000Y-114173000D02*
X97028000Y-114173000D01*
%TO.N,+1V1*%
X88900000Y-116967000D02*
X89789000Y-116078000D01*
X77927251Y-116217821D02*
X77927251Y-117043251D01*
X77927251Y-117043251D02*
X78571489Y-117687489D01*
X89789000Y-116078000D02*
X89789000Y-114046000D01*
X78571489Y-117687489D02*
X88179511Y-117687489D01*
X88179511Y-117687489D02*
X88900000Y-116967000D01*
D22*
%TO.N,+3.3VA*%
X78740000Y-137203970D02*
X78740000Y-136398000D01*
D21*
X74549000Y-135001000D02*
X77343000Y-135001000D01*
X77343000Y-135001000D02*
X78740000Y-136398000D01*
D22*
X72009000Y-141097000D02*
X74846970Y-141097000D01*
X74846970Y-141097000D02*
X78740000Y-137203970D01*
D23*
%TO.N,GNDPWR*%
X77340000Y-144270000D02*
X92840000Y-144270000D01*
D22*
%TO.N,VBUS*%
X108133511Y-97592511D02*
X106934000Y-96393000D01*
X107315000Y-110236000D02*
X108133511Y-109417489D01*
X108133511Y-109417489D02*
X108133511Y-97592511D01*
D21*
%TO.N,RSTn*%
X74575741Y-121031000D02*
X73170520Y-119625779D01*
X80095489Y-121031000D02*
X74575741Y-121031000D01*
X75063511Y-99434489D02*
X75063511Y-97542511D01*
X73170520Y-101327480D02*
X75063511Y-99434489D01*
X75565000Y-121031000D02*
X80095489Y-121031000D01*
X80476489Y-120650000D02*
X80095489Y-121031000D01*
X73170520Y-119625779D02*
X73170520Y-101327480D01*
X75063511Y-97542511D02*
X73914000Y-96393000D01*
%TO.N,INTn*%
X74560246Y-121580511D02*
X72771000Y-119791265D01*
X80476489Y-121539000D02*
X80434989Y-121580500D01*
X76326989Y-121580511D02*
X74560246Y-121580511D01*
X72771000Y-119791265D02*
X72771000Y-100076000D01*
X72771000Y-100076000D02*
X73914000Y-98933000D01*
X76327000Y-121580500D02*
X76326989Y-121580511D01*
X80434989Y-121580500D02*
X76327000Y-121580500D01*
%TO.N,MOSI*%
X74549000Y-117897500D02*
X73570040Y-116918540D01*
X73570040Y-101816960D02*
X76454000Y-98933000D01*
X78435415Y-123190000D02*
X79943030Y-123190000D01*
X77960263Y-122714848D02*
X78435415Y-123190000D01*
X73570040Y-116918540D02*
X73570040Y-101816960D01*
%TO.N,MISO*%
X76988373Y-117897500D02*
X77902727Y-117897500D01*
X75754489Y-113248252D02*
X75754489Y-116663616D01*
X75754489Y-116663616D02*
X76988373Y-117897500D01*
X76581000Y-108839000D02*
X76581000Y-112421741D01*
X76581000Y-112421741D02*
X75754489Y-113248252D01*
%TO.N,SCLK*%
X79121000Y-120481500D02*
X78190500Y-120481500D01*
X78190500Y-120481500D02*
X77597000Y-119888000D01*
X77603511Y-99409144D02*
X77603511Y-97542511D01*
X73976489Y-116267489D02*
X73976489Y-103036166D01*
X77603511Y-97542511D02*
X76454000Y-96393000D01*
X76327000Y-118618000D02*
X73976489Y-116267489D01*
X73976489Y-103036166D02*
X77603511Y-99409144D01*
%TO.N,SCSn*%
X80704105Y-120100489D02*
X81026000Y-120422384D01*
X79587489Y-120100489D02*
X80704105Y-120100489D01*
X81026000Y-120422384D02*
X81026000Y-122258085D01*
X75292480Y-116766613D02*
X76972878Y-118447011D01*
X75946000Y-109601000D02*
X75946000Y-112491735D01*
X75946000Y-112491735D02*
X75292480Y-113145255D01*
X81026000Y-122258085D02*
X81051343Y-122283428D01*
X75292480Y-113145255D02*
X75292480Y-116766613D01*
X79121000Y-119634000D02*
X79587489Y-120100489D01*
X76972878Y-118447011D02*
X79108978Y-118447011D01*
X79108978Y-118447011D02*
X79121000Y-118434989D01*
%TO.N,GPIO29{slash}ADC3*%
X85858572Y-126607587D02*
X74480581Y-126607587D01*
X90424000Y-124587000D02*
X88403412Y-126607588D01*
X63246000Y-99441000D02*
X63754000Y-98933000D01*
X63246000Y-115373006D02*
X63246000Y-99441000D01*
X88403412Y-126607588D02*
X85858572Y-126607587D01*
X74480581Y-126607587D02*
X63246000Y-115373006D01*
%TO.N,GPIO24*%
X69983511Y-97542511D02*
X68834000Y-96393000D01*
X94615000Y-123571000D02*
X97155000Y-123571000D01*
X69983511Y-99409144D02*
X69983511Y-97542511D01*
X75308015Y-124609991D02*
X69614520Y-118916496D01*
X84455000Y-123571000D02*
X91313000Y-123571000D01*
X84455000Y-123571000D02*
X83416009Y-124609991D01*
X83416009Y-124609991D02*
X75308015Y-124609991D01*
X69614520Y-99778135D02*
X69983511Y-99409144D01*
X69614520Y-118916496D02*
X69614520Y-99778135D01*
D22*
%TO.N,ADC_VREF*%
X97777511Y-116979489D02*
X97777511Y-110858511D01*
X86614000Y-99695000D02*
X86614000Y-98933000D01*
X93980000Y-120777000D02*
X97777511Y-116979489D01*
X97777511Y-110858511D02*
X86614000Y-99695000D01*
D21*
%TO.N,RUN*%
X77216000Y-117348000D02*
X77216000Y-111506000D01*
D22*
%TO.N,QSPI_SS_N*%
X75552511Y-106540511D02*
X90538511Y-106540511D01*
X90538511Y-106540511D02*
X91059000Y-107061000D01*
X74676000Y-105664000D02*
X75552511Y-106540511D01*
D21*
%TO.N,SWCLK*%
X77851000Y-105791000D02*
X77851000Y-105013873D01*
X77851000Y-110744000D02*
X77851000Y-115326806D01*
X77851000Y-105013873D02*
X82683511Y-100181362D01*
X82683511Y-100181362D02*
X82683511Y-97542511D01*
X77851000Y-115326806D02*
X78615153Y-116090959D01*
X82683511Y-97542511D02*
X81534000Y-96393000D01*
%TO.N,SWDIO*%
X79164664Y-116318575D02*
X78695048Y-116788191D01*
X78486000Y-109982000D02*
X78486000Y-115189000D01*
X78695048Y-116788191D02*
X78558840Y-116788191D01*
X79164664Y-115863343D02*
X79164664Y-116318575D01*
X84074000Y-99568000D02*
X84074000Y-98933000D01*
X78838448Y-115541448D02*
X78842769Y-115541448D01*
X78486000Y-115189000D02*
X78838448Y-115541448D01*
X78842769Y-115541448D02*
X79164664Y-115863343D01*
X78486000Y-105156000D02*
X84074000Y-99568000D01*
%TO.N,GPIO22*%
X81915000Y-123254503D02*
X81358552Y-123810951D01*
X72644000Y-97663000D02*
X71374000Y-96393000D01*
X81358552Y-123810951D02*
X75638987Y-123810951D01*
X70413560Y-101519095D02*
X72644000Y-99288655D01*
X70413560Y-118585524D02*
X70413560Y-101519095D01*
X75638987Y-123810951D02*
X70413560Y-118585524D01*
X72644000Y-99288655D02*
X72644000Y-97663000D01*
%TO.N,GPIO23*%
X82291529Y-124210471D02*
X75473501Y-124210471D01*
X70014040Y-118751010D02*
X70014040Y-100292960D01*
X82804000Y-123698000D02*
X82291529Y-124210471D01*
X75473501Y-124210471D02*
X70014040Y-118751010D01*
X70014040Y-100292960D02*
X71374000Y-98933000D01*
%TO.N,GPIO25*%
X69215000Y-99314000D02*
X68834000Y-98933000D01*
X84921489Y-125009511D02*
X75142529Y-125009511D01*
X85471000Y-124460000D02*
X84921489Y-125009511D01*
X75142529Y-125009511D02*
X69215000Y-119081982D01*
X69215000Y-119081982D02*
X69215000Y-99314000D01*
%TO.N,GPIO26{slash}ADC0*%
X86233000Y-124460000D02*
X86233000Y-124475127D01*
X74977042Y-125409030D02*
X67564000Y-117995988D01*
X86233000Y-124475127D02*
X85299097Y-125409030D01*
X67564000Y-97663000D02*
X66294000Y-96393000D01*
X67564000Y-117995988D02*
X67564000Y-97663000D01*
X85299097Y-125409030D02*
X74977042Y-125409030D01*
%TO.N,GPIO27{slash}ADC1*%
X66164989Y-117161983D02*
X66164989Y-106517252D01*
X66421000Y-106261241D02*
X66421000Y-99060000D01*
X66421000Y-99060000D02*
X66294000Y-98933000D01*
X85661578Y-125808549D02*
X74811555Y-125808549D01*
X86782511Y-124687616D02*
X85661578Y-125808549D01*
X66164989Y-106517252D02*
X66421000Y-106261241D01*
X86782511Y-124672489D02*
X86782511Y-124687616D01*
X74811555Y-125808549D02*
X66164989Y-117161983D01*
X86995000Y-124460000D02*
X86782511Y-124672489D01*
%TO.N,GPIO28{slash}ADC2*%
X65021989Y-116583989D02*
X65021989Y-97660989D01*
X87757000Y-124475127D02*
X86024059Y-126208068D01*
X74646068Y-126208068D02*
X65021989Y-116583989D01*
X87757000Y-124460000D02*
X87757000Y-124475127D01*
X86024059Y-126208068D02*
X74646068Y-126208068D01*
X65021989Y-97660989D02*
X63754000Y-96393000D01*
%TD*%
%TA.AperFunction,Conductor*%
%TO.N,GND*%
G36*
X60585726Y-95270002D02*
G01*
X60632219Y-95323658D01*
X60642323Y-95393932D01*
X60612829Y-95458512D01*
X60582028Y-95484285D01*
X60567273Y-95493063D01*
X60557961Y-95499829D01*
X60414097Y-95625994D01*
X60406180Y-95634337D01*
X60287718Y-95784605D01*
X60281450Y-95794256D01*
X60192360Y-95963589D01*
X60187951Y-95974232D01*
X60131210Y-96156967D01*
X60128820Y-96168211D01*
X60119375Y-96248012D01*
X60121817Y-96262431D01*
X60134559Y-96266000D01*
X62292945Y-96266000D01*
X62307490Y-96261729D01*
X62309553Y-96249595D01*
X62304693Y-96196707D01*
X62302595Y-96185386D01*
X62250658Y-96001231D01*
X62246533Y-95990484D01*
X62161903Y-95818871D01*
X62155893Y-95809063D01*
X62041400Y-95655739D01*
X62033710Y-95647199D01*
X61893192Y-95517304D01*
X61884064Y-95510301D01*
X61840100Y-95482561D01*
X61793162Y-95429295D01*
X61782474Y-95359107D01*
X61811428Y-95294283D01*
X61870832Y-95255404D01*
X61907336Y-95250000D01*
X63056626Y-95250000D01*
X63124747Y-95270002D01*
X63171240Y-95323658D01*
X63181344Y-95393932D01*
X63151850Y-95458512D01*
X63121049Y-95484285D01*
X63106978Y-95492656D01*
X63106975Y-95492658D01*
X63102010Y-95495612D01*
X63097670Y-95499418D01*
X63097666Y-95499421D01*
X62953733Y-95625648D01*
X62949392Y-95629455D01*
X62823720Y-95788869D01*
X62821031Y-95793980D01*
X62821029Y-95793983D01*
X62808073Y-95818609D01*
X62729203Y-95968515D01*
X62669007Y-96162378D01*
X62645148Y-96363964D01*
X62658424Y-96566522D01*
X62659845Y-96572118D01*
X62659846Y-96572123D01*
X62680119Y-96651945D01*
X62708392Y-96763269D01*
X62710809Y-96768512D01*
X62767826Y-96892192D01*
X62793377Y-96947616D01*
X62910533Y-97113389D01*
X63055938Y-97255035D01*
X63224720Y-97367812D01*
X63230023Y-97370090D01*
X63230026Y-97370092D01*
X63399073Y-97442720D01*
X63411228Y-97447942D01*
X63479923Y-97463486D01*
X63603579Y-97491467D01*
X63603584Y-97491468D01*
X63609216Y-97492742D01*
X63614987Y-97492969D01*
X63614989Y-97492969D01*
X63674756Y-97495317D01*
X63812053Y-97500712D01*
X63916272Y-97485601D01*
X64007231Y-97472413D01*
X64007236Y-97472412D01*
X64012945Y-97471584D01*
X64176387Y-97416103D01*
X64247320Y-97413147D01*
X64305982Y-97446321D01*
X64630584Y-97770923D01*
X64664610Y-97833235D01*
X64667489Y-97860018D01*
X64667489Y-97985146D01*
X64647487Y-98053267D01*
X64593831Y-98099760D01*
X64523557Y-98109864D01*
X64455962Y-98077672D01*
X64429258Y-98052987D01*
X64424375Y-98049906D01*
X64424371Y-98049903D01*
X64278728Y-97958010D01*
X64257581Y-97944667D01*
X64069039Y-97869446D01*
X64063379Y-97868320D01*
X64063375Y-97868319D01*
X63875613Y-97830971D01*
X63875610Y-97830971D01*
X63869946Y-97829844D01*
X63864171Y-97829768D01*
X63864167Y-97829768D01*
X63762793Y-97828441D01*
X63666971Y-97827187D01*
X63661274Y-97828166D01*
X63661273Y-97828166D01*
X63520264Y-97852396D01*
X63466910Y-97861564D01*
X63276463Y-97931824D01*
X63102010Y-98035612D01*
X63097670Y-98039418D01*
X63097666Y-98039421D01*
X63011499Y-98114988D01*
X62949392Y-98169455D01*
X62945817Y-98173990D01*
X62945816Y-98173991D01*
X62928931Y-98195409D01*
X62823720Y-98328869D01*
X62821031Y-98333980D01*
X62821029Y-98333983D01*
X62808073Y-98358609D01*
X62729203Y-98508515D01*
X62669007Y-98702378D01*
X62645148Y-98903964D01*
X62658424Y-99106522D01*
X62659845Y-99112118D01*
X62659846Y-99112123D01*
X62680119Y-99191945D01*
X62708392Y-99303269D01*
X62710809Y-99308512D01*
X62747912Y-99388994D01*
X62793377Y-99487616D01*
X62796710Y-99492332D01*
X62868397Y-99593768D01*
X62891500Y-99666488D01*
X62891500Y-115321749D01*
X62889394Y-115341543D01*
X62889189Y-115345896D01*
X62886997Y-115356076D01*
X62888221Y-115366414D01*
X62890627Y-115386743D01*
X62890942Y-115392089D01*
X62891072Y-115392078D01*
X62891500Y-115397258D01*
X62891500Y-115402457D01*
X62892353Y-115407581D01*
X62892354Y-115407594D01*
X62894427Y-115420047D01*
X62895264Y-115425922D01*
X62900869Y-115473276D01*
X62904570Y-115480984D01*
X62905975Y-115489423D01*
X62928629Y-115531407D01*
X62931310Y-115536670D01*
X62951955Y-115579664D01*
X62955311Y-115583656D01*
X62957258Y-115585603D01*
X62958748Y-115587228D01*
X62958981Y-115587660D01*
X62958945Y-115587693D01*
X62959084Y-115587851D01*
X62962017Y-115593286D01*
X62969664Y-115600355D01*
X62998881Y-115627363D01*
X63002447Y-115630792D01*
X68599860Y-121228204D01*
X74193663Y-126822007D01*
X74206168Y-126837489D01*
X74209104Y-126840716D01*
X74214756Y-126849469D01*
X74239019Y-126868596D01*
X74243014Y-126872146D01*
X74243098Y-126872047D01*
X74247061Y-126875405D01*
X74250737Y-126879081D01*
X74254966Y-126882104D01*
X74254967Y-126882104D01*
X74265233Y-126889441D01*
X74269976Y-126893002D01*
X74299256Y-126916084D01*
X74299260Y-126916086D01*
X74307438Y-126922533D01*
X74315506Y-126925366D01*
X74322466Y-126930340D01*
X74332444Y-126933324D01*
X74368167Y-126944007D01*
X74373816Y-126945843D01*
X74418789Y-126961637D01*
X74423985Y-126962087D01*
X74426690Y-126962087D01*
X74428946Y-126962184D01*
X74429422Y-126962327D01*
X74429420Y-126962373D01*
X74429619Y-126962386D01*
X74435536Y-126964155D01*
X74485705Y-126962184D01*
X74490651Y-126962087D01*
X85801976Y-126962087D01*
X88352155Y-126962088D01*
X88371949Y-126964194D01*
X88376302Y-126964399D01*
X88386482Y-126966591D01*
X88417152Y-126962961D01*
X88422495Y-126962646D01*
X88422484Y-126962516D01*
X88427664Y-126962088D01*
X88432863Y-126962088D01*
X88437987Y-126961235D01*
X88438000Y-126961234D01*
X88450453Y-126959161D01*
X88456328Y-126958324D01*
X88493341Y-126953943D01*
X88503682Y-126952719D01*
X88511390Y-126949018D01*
X88519829Y-126947613D01*
X88561813Y-126924959D01*
X88567076Y-126922278D01*
X88579975Y-126916084D01*
X88610070Y-126901633D01*
X88614062Y-126898277D01*
X88616009Y-126896330D01*
X88617634Y-126894840D01*
X88618066Y-126894607D01*
X88618099Y-126894643D01*
X88618257Y-126894504D01*
X88623692Y-126891571D01*
X88641649Y-126872146D01*
X88657769Y-126854707D01*
X88661198Y-126851141D01*
X90382907Y-125129431D01*
X90445219Y-125095406D01*
X90474312Y-125092547D01*
X90486998Y-125092780D01*
X90508863Y-125086819D01*
X90617763Y-125057130D01*
X90617765Y-125057129D01*
X90626422Y-125054769D01*
X90749572Y-124979154D01*
X90761107Y-124966411D01*
X90840526Y-124878670D01*
X90846551Y-124872014D01*
X90909560Y-124741962D01*
X90933536Y-124599453D01*
X90933688Y-124587000D01*
X90919844Y-124490336D01*
X90914474Y-124452835D01*
X90914473Y-124452833D01*
X90913201Y-124443948D01*
X90860419Y-124327859D01*
X90850433Y-124257568D01*
X90880033Y-124193037D01*
X90939824Y-124154753D01*
X91010820Y-124154871D01*
X91035242Y-124164977D01*
X91070293Y-124184008D01*
X91223522Y-124224207D01*
X91307477Y-124225526D01*
X91374319Y-124226576D01*
X91374322Y-124226576D01*
X91381916Y-124226695D01*
X91536332Y-124191329D01*
X91648514Y-124134908D01*
X91671072Y-124123563D01*
X91671075Y-124123561D01*
X91677855Y-124120151D01*
X91683626Y-124115222D01*
X91683629Y-124115220D01*
X91792536Y-124022204D01*
X91792536Y-124022203D01*
X91798314Y-124017269D01*
X91890755Y-123888624D01*
X91893589Y-123881575D01*
X91893592Y-123881569D01*
X91912593Y-123834301D01*
X91956559Y-123778556D01*
X92023684Y-123755431D01*
X92092656Y-123772268D01*
X92141576Y-123823720D01*
X92155500Y-123881297D01*
X92155500Y-125086819D01*
X92135304Y-125150677D01*
X92136907Y-125151536D01*
X92133320Y-125158226D01*
X92128950Y-125164444D01*
X92071406Y-125312037D01*
X92050729Y-125469096D01*
X92068113Y-125626553D01*
X92122553Y-125775319D01*
X92134082Y-125792475D01*
X92155500Y-125862750D01*
X92155500Y-132198819D01*
X92135304Y-132262677D01*
X92136907Y-132263536D01*
X92133320Y-132270226D01*
X92128950Y-132276444D01*
X92071406Y-132424037D01*
X92050729Y-132581096D01*
X92068113Y-132738553D01*
X92122553Y-132887319D01*
X92210908Y-133018805D01*
X92216527Y-133023918D01*
X92216528Y-133023919D01*
X92227903Y-133034269D01*
X92328076Y-133125419D01*
X92467293Y-133201008D01*
X92620522Y-133241207D01*
X92704477Y-133242526D01*
X92771319Y-133243576D01*
X92771322Y-133243576D01*
X92778916Y-133243695D01*
X92933332Y-133208329D01*
X93003742Y-133172917D01*
X93068072Y-133140563D01*
X93068075Y-133140561D01*
X93074855Y-133137151D01*
X93080626Y-133132222D01*
X93080629Y-133132220D01*
X93189536Y-133039204D01*
X93189536Y-133039203D01*
X93195314Y-133034269D01*
X93287755Y-132905624D01*
X93346842Y-132758641D01*
X93369162Y-132601807D01*
X93369307Y-132588000D01*
X93350276Y-132430733D01*
X93294280Y-132282546D01*
X93286661Y-132271460D01*
X93264500Y-132200092D01*
X93264500Y-125866382D01*
X93280085Y-125805682D01*
X93283324Y-125799791D01*
X93287755Y-125793624D01*
X93346842Y-125646641D01*
X93369162Y-125489807D01*
X93369307Y-125476000D01*
X93350276Y-125318733D01*
X93294280Y-125170546D01*
X93286661Y-125159460D01*
X93264500Y-125088092D01*
X93264500Y-123564096D01*
X93955729Y-123564096D01*
X93960310Y-123605591D01*
X93971888Y-123710453D01*
X93973113Y-123721553D01*
X93975723Y-123728684D01*
X93975723Y-123728686D01*
X94018723Y-123846189D01*
X94027553Y-123870319D01*
X94031789Y-123876622D01*
X94031789Y-123876623D01*
X94111671Y-123995499D01*
X94115908Y-124001805D01*
X94121526Y-124006917D01*
X94121528Y-124006919D01*
X94223950Y-124100115D01*
X94233076Y-124108419D01*
X94372293Y-124184008D01*
X94525522Y-124224207D01*
X94609477Y-124225526D01*
X94676319Y-124226576D01*
X94676322Y-124226576D01*
X94683916Y-124226695D01*
X94838332Y-124191329D01*
X94950514Y-124134908D01*
X94973072Y-124123563D01*
X94973075Y-124123561D01*
X94979855Y-124120151D01*
X94985626Y-124115222D01*
X94985629Y-124115220D01*
X95094536Y-124022204D01*
X95094536Y-124022203D01*
X95100314Y-124017269D01*
X95128552Y-123977971D01*
X95184543Y-123934326D01*
X95230872Y-123925500D01*
X96537497Y-123925500D01*
X96605618Y-123945502D01*
X96642078Y-123981224D01*
X96655908Y-124001805D01*
X96661526Y-124006917D01*
X96758384Y-124095050D01*
X96773076Y-124108419D01*
X96912293Y-124184008D01*
X97065522Y-124224207D01*
X97149477Y-124225526D01*
X97216319Y-124226576D01*
X97216322Y-124226576D01*
X97223916Y-124226695D01*
X97225069Y-124226431D01*
X104190674Y-124226431D01*
X104214534Y-124325811D01*
X104219792Y-124339948D01*
X104290975Y-124477864D01*
X104299450Y-124490336D01*
X104401478Y-124607292D01*
X104412686Y-124617384D01*
X104539664Y-124706626D01*
X104552961Y-124713755D01*
X104697556Y-124770131D01*
X104712170Y-124773883D01*
X104830505Y-124789462D01*
X104838714Y-124790000D01*
X105285885Y-124790000D01*
X105301124Y-124785525D01*
X105302329Y-124784135D01*
X105304000Y-124776452D01*
X105304000Y-124771885D01*
X105558000Y-124771885D01*
X105562475Y-124787124D01*
X105563865Y-124788329D01*
X105571548Y-124790000D01*
X106019941Y-124790000D01*
X106027495Y-124789544D01*
X106142621Y-124775612D01*
X106157264Y-124772016D01*
X106302453Y-124717154D01*
X106315814Y-124710169D01*
X106443724Y-124622259D01*
X106455036Y-124612286D01*
X106558282Y-124496405D01*
X106566888Y-124484024D01*
X106639516Y-124346852D01*
X106644917Y-124332781D01*
X106670592Y-124230570D01*
X106670428Y-124226431D01*
X108510674Y-124226431D01*
X108534534Y-124325811D01*
X108539792Y-124339948D01*
X108610975Y-124477864D01*
X108619450Y-124490336D01*
X108721478Y-124607292D01*
X108732686Y-124617384D01*
X108859664Y-124706626D01*
X108872961Y-124713755D01*
X109017556Y-124770131D01*
X109032170Y-124773883D01*
X109150505Y-124789462D01*
X109158714Y-124790000D01*
X109455885Y-124790000D01*
X109471124Y-124785525D01*
X109472329Y-124784135D01*
X109474000Y-124776452D01*
X109474000Y-124231115D01*
X109469525Y-124215876D01*
X109468135Y-124214671D01*
X109460452Y-124213000D01*
X108525565Y-124213000D01*
X108512034Y-124216973D01*
X108510674Y-124226431D01*
X106670428Y-124226431D01*
X106670035Y-124216480D01*
X106661543Y-124213000D01*
X105576115Y-124213000D01*
X105560876Y-124217475D01*
X105559671Y-124218865D01*
X105558000Y-124226548D01*
X105558000Y-124771885D01*
X105304000Y-124771885D01*
X105304000Y-124231115D01*
X105299525Y-124215876D01*
X105298135Y-124214671D01*
X105290452Y-124213000D01*
X104205565Y-124213000D01*
X104192034Y-124216973D01*
X104190674Y-124226431D01*
X97225069Y-124226431D01*
X97378332Y-124191329D01*
X97490514Y-124134908D01*
X97513072Y-124123563D01*
X97513075Y-124123561D01*
X97519855Y-124120151D01*
X97525626Y-124115222D01*
X97525629Y-124115220D01*
X97634536Y-124022204D01*
X97634536Y-124022203D01*
X97640314Y-124017269D01*
X97694810Y-123941430D01*
X104191408Y-123941430D01*
X104191965Y-123955520D01*
X104200457Y-123959000D01*
X105285885Y-123959000D01*
X105301124Y-123954525D01*
X105302329Y-123953135D01*
X105304000Y-123945452D01*
X105304000Y-123400115D01*
X105299525Y-123384876D01*
X105298135Y-123383671D01*
X105290452Y-123382000D01*
X104842059Y-123382000D01*
X104834505Y-123382456D01*
X104719379Y-123396388D01*
X104704736Y-123399984D01*
X104559547Y-123454846D01*
X104546186Y-123461831D01*
X104418276Y-123549741D01*
X104406964Y-123559714D01*
X104303718Y-123675595D01*
X104295112Y-123687976D01*
X104222484Y-123825148D01*
X104217083Y-123839219D01*
X104191408Y-123941430D01*
X97694810Y-123941430D01*
X97732755Y-123888624D01*
X97791842Y-123741641D01*
X97805360Y-123646657D01*
X97813581Y-123588891D01*
X97813581Y-123588888D01*
X97814162Y-123584807D01*
X97814307Y-123571000D01*
X97813554Y-123564773D01*
X97796188Y-123421273D01*
X97795276Y-123413733D01*
X97739280Y-123265546D01*
X97716737Y-123232745D01*
X97653855Y-123141251D01*
X97653854Y-123141249D01*
X97649553Y-123134992D01*
X97643679Y-123129758D01*
X97583283Y-123075948D01*
X97531275Y-123029611D01*
X97523889Y-123025700D01*
X97485565Y-123005409D01*
X97391274Y-122955484D01*
X97237633Y-122916892D01*
X97230034Y-122916852D01*
X97230033Y-122916852D01*
X97164181Y-122916507D01*
X97079221Y-122916062D01*
X97071841Y-122917834D01*
X97071839Y-122917834D01*
X96932563Y-122951271D01*
X96932560Y-122951272D01*
X96925184Y-122953043D01*
X96784414Y-123025700D01*
X96665039Y-123129838D01*
X96660672Y-123136052D01*
X96660669Y-123136055D01*
X96641767Y-123162950D01*
X96586233Y-123207182D01*
X96538680Y-123216500D01*
X95231864Y-123216500D01*
X95163743Y-123196498D01*
X95128025Y-123161868D01*
X95113857Y-123141253D01*
X95113853Y-123141248D01*
X95109553Y-123134992D01*
X95103679Y-123129758D01*
X95043283Y-123075948D01*
X94991275Y-123029611D01*
X94983889Y-123025700D01*
X94945565Y-123005409D01*
X94851274Y-122955484D01*
X94697633Y-122916892D01*
X94690034Y-122916852D01*
X94690033Y-122916852D01*
X94624181Y-122916507D01*
X94539221Y-122916062D01*
X94531841Y-122917834D01*
X94531839Y-122917834D01*
X94392563Y-122951271D01*
X94392560Y-122951272D01*
X94385184Y-122953043D01*
X94244414Y-123025700D01*
X94125039Y-123129838D01*
X94033950Y-123259444D01*
X94012712Y-123313918D01*
X93979323Y-123399556D01*
X93976406Y-123407037D01*
X93975414Y-123414570D01*
X93975414Y-123414571D01*
X93957619Y-123549741D01*
X93955729Y-123564096D01*
X93264500Y-123564096D01*
X93264500Y-122686145D01*
X105362391Y-122686145D01*
X105392420Y-122835071D01*
X105396320Y-122842725D01*
X105457492Y-122962783D01*
X105457494Y-122962786D01*
X105461392Y-122970436D01*
X105467205Y-122976757D01*
X105467206Y-122976759D01*
X105550105Y-123066910D01*
X105564226Y-123082266D01*
X105571521Y-123086789D01*
X105571522Y-123086790D01*
X105606242Y-123108317D01*
X105650979Y-123136055D01*
X105671718Y-123148914D01*
X105719073Y-123201810D01*
X105730312Y-123271911D01*
X105701868Y-123336961D01*
X105642771Y-123376306D01*
X105605321Y-123382000D01*
X105576115Y-123382000D01*
X105560876Y-123386475D01*
X105559671Y-123387865D01*
X105558000Y-123395548D01*
X105558000Y-123940885D01*
X105562475Y-123956124D01*
X105563865Y-123957329D01*
X105571548Y-123959000D01*
X106656435Y-123959000D01*
X106669966Y-123955027D01*
X106671326Y-123945569D01*
X106670332Y-123941430D01*
X108511408Y-123941430D01*
X108511965Y-123955520D01*
X108520457Y-123959000D01*
X109455885Y-123959000D01*
X109471124Y-123954525D01*
X109472329Y-123953135D01*
X109474000Y-123945452D01*
X109474000Y-123400115D01*
X109469525Y-123384876D01*
X109468135Y-123383671D01*
X109460452Y-123382000D01*
X109162059Y-123382000D01*
X109154505Y-123382456D01*
X109039379Y-123396388D01*
X109024736Y-123399984D01*
X108879547Y-123454846D01*
X108866186Y-123461831D01*
X108738276Y-123549741D01*
X108726964Y-123559714D01*
X108623718Y-123675595D01*
X108615112Y-123687976D01*
X108542484Y-123825148D01*
X108537083Y-123839219D01*
X108511408Y-123941430D01*
X106670332Y-123941430D01*
X106647466Y-123846189D01*
X106642208Y-123832052D01*
X106571025Y-123694136D01*
X106562550Y-123681664D01*
X106460522Y-123564708D01*
X106449314Y-123554616D01*
X106322336Y-123465374D01*
X106309039Y-123458245D01*
X106164443Y-123401869D01*
X106155434Y-123399556D01*
X106094427Y-123363243D01*
X106062738Y-123299711D01*
X106070426Y-123229132D01*
X106115052Y-123173914D01*
X106136725Y-123161878D01*
X106203061Y-123133171D01*
X106203066Y-123133168D01*
X106210946Y-123129758D01*
X106262590Y-123087938D01*
X106322339Y-123039555D01*
X106322341Y-123039553D01*
X106329013Y-123034150D01*
X106371282Y-122974673D01*
X106412044Y-122917315D01*
X106412044Y-122917314D01*
X106417020Y-122910313D01*
X106468482Y-122767371D01*
X106469497Y-122753558D01*
X106478980Y-122624415D01*
X106479609Y-122615855D01*
X106449580Y-122466929D01*
X106433321Y-122435018D01*
X106384508Y-122339217D01*
X106384506Y-122339214D01*
X106380608Y-122331564D01*
X106347796Y-122295881D01*
X106283584Y-122226052D01*
X106283583Y-122226051D01*
X106277774Y-122219734D01*
X106267446Y-122213330D01*
X106155956Y-122144203D01*
X106155955Y-122144202D01*
X106148656Y-122139677D01*
X106002765Y-122097291D01*
X105991993Y-122096500D01*
X105882943Y-122096500D01*
X105878697Y-122097082D01*
X105878691Y-122097082D01*
X105799946Y-122107869D01*
X105770482Y-122111905D01*
X105762598Y-122115317D01*
X105762597Y-122115317D01*
X105695847Y-122144203D01*
X105631054Y-122172242D01*
X105624381Y-122177646D01*
X105519661Y-122262445D01*
X105519659Y-122262447D01*
X105512987Y-122267850D01*
X105508013Y-122274849D01*
X105508012Y-122274850D01*
X105463442Y-122337566D01*
X105424980Y-122391687D01*
X105373518Y-122534629D01*
X105372889Y-122543189D01*
X105372889Y-122543191D01*
X105370575Y-122574697D01*
X105362391Y-122686145D01*
X93264500Y-122686145D01*
X93264500Y-121681099D01*
X93264610Y-121675823D01*
X93266869Y-121621910D01*
X93267229Y-121613327D01*
X93257213Y-121570621D01*
X93255050Y-121558952D01*
X93250260Y-121523989D01*
X93249095Y-121515482D01*
X93243047Y-121501506D01*
X93236013Y-121480237D01*
X93234499Y-121473782D01*
X93232537Y-121465417D01*
X93228400Y-121457892D01*
X93228399Y-121457889D01*
X93211400Y-121426969D01*
X93206178Y-121416309D01*
X93192168Y-121383934D01*
X93188758Y-121376054D01*
X93179175Y-121364220D01*
X93166685Y-121345632D01*
X93162529Y-121338072D01*
X93159348Y-121332286D01*
X93152291Y-121324109D01*
X93127543Y-121299361D01*
X93118717Y-121289560D01*
X93098555Y-121264661D01*
X93098553Y-121264659D01*
X93093150Y-121257987D01*
X93077642Y-121246966D01*
X93061537Y-121233355D01*
X91411033Y-119582851D01*
X89758855Y-117930674D01*
X89724829Y-117868362D01*
X89729894Y-117797547D01*
X89758855Y-117752484D01*
X92184933Y-115326405D01*
X92247245Y-115292380D01*
X92274028Y-115289500D01*
X93420743Y-115289500D01*
X93440537Y-115291606D01*
X93444890Y-115291811D01*
X93455070Y-115294003D01*
X93485740Y-115290373D01*
X93491083Y-115290058D01*
X93491072Y-115289928D01*
X93496252Y-115289500D01*
X93501451Y-115289500D01*
X93506575Y-115288647D01*
X93506588Y-115288646D01*
X93519041Y-115286573D01*
X93524916Y-115285736D01*
X93561929Y-115281355D01*
X93572270Y-115280131D01*
X93579978Y-115276430D01*
X93588417Y-115275025D01*
X93630401Y-115252371D01*
X93635664Y-115249690D01*
X93643870Y-115245750D01*
X93678658Y-115229045D01*
X93682650Y-115225689D01*
X93684597Y-115223742D01*
X93686222Y-115222252D01*
X93686654Y-115222019D01*
X93686687Y-115222055D01*
X93686845Y-115221916D01*
X93692280Y-115218983D01*
X93726357Y-115182119D01*
X93729786Y-115178553D01*
X94343934Y-114564405D01*
X94406246Y-114530379D01*
X94433029Y-114527500D01*
X96410497Y-114527500D01*
X96478618Y-114547502D01*
X96515078Y-114583224D01*
X96515543Y-114583916D01*
X96528908Y-114603805D01*
X96534526Y-114608917D01*
X96577418Y-114647945D01*
X96646076Y-114710419D01*
X96785293Y-114786008D01*
X96938522Y-114826207D01*
X97022477Y-114827526D01*
X97089319Y-114828576D01*
X97089322Y-114828576D01*
X97096916Y-114828695D01*
X97218882Y-114800761D01*
X97289748Y-114805050D01*
X97347046Y-114846972D01*
X97372584Y-114913217D01*
X97373011Y-114923581D01*
X97373011Y-116759750D01*
X97353009Y-116827871D01*
X97336106Y-116848845D01*
X94099239Y-120085711D01*
X94036927Y-120119737D01*
X94009487Y-120122614D01*
X93904221Y-120122062D01*
X93896841Y-120123834D01*
X93896839Y-120123834D01*
X93757563Y-120157271D01*
X93757560Y-120157272D01*
X93750184Y-120159043D01*
X93609414Y-120231700D01*
X93490039Y-120335838D01*
X93398950Y-120465444D01*
X93373983Y-120529482D01*
X93348621Y-120594532D01*
X93341406Y-120613037D01*
X93340414Y-120620570D01*
X93340414Y-120620571D01*
X93322054Y-120760035D01*
X93320729Y-120770096D01*
X93338113Y-120927553D01*
X93392553Y-121076319D01*
X93480908Y-121207805D01*
X93486527Y-121212918D01*
X93486528Y-121212919D01*
X93581527Y-121299361D01*
X93598076Y-121314419D01*
X93737293Y-121390008D01*
X93890522Y-121430207D01*
X93974477Y-121431526D01*
X94041319Y-121432576D01*
X94041322Y-121432576D01*
X94048916Y-121432695D01*
X94203332Y-121397329D01*
X94273742Y-121361917D01*
X94338072Y-121329563D01*
X94338075Y-121329561D01*
X94344855Y-121326151D01*
X94350626Y-121321222D01*
X94350629Y-121321220D01*
X94459536Y-121228204D01*
X94459536Y-121228203D01*
X94465314Y-121223269D01*
X94557755Y-121094624D01*
X94616842Y-120947641D01*
X94639162Y-120790807D01*
X94639307Y-120777000D01*
X94638812Y-120772906D01*
X94638811Y-120772895D01*
X94637255Y-120760035D01*
X94648928Y-120690005D01*
X94673247Y-120655803D01*
X98086046Y-117243003D01*
X98108837Y-117220212D01*
X98118967Y-117200331D01*
X98129298Y-117183472D01*
X98136588Y-117173439D01*
X98136589Y-117173437D01*
X98142416Y-117165417D01*
X98145480Y-117155988D01*
X98145482Y-117155983D01*
X98149314Y-117144189D01*
X98156881Y-117125921D01*
X98162506Y-117114882D01*
X98162507Y-117114880D01*
X98167009Y-117106044D01*
X98170500Y-117084002D01*
X98175116Y-117064776D01*
X98178946Y-117052989D01*
X98178946Y-117052987D01*
X98182011Y-117043555D01*
X98182011Y-116906145D01*
X105362391Y-116906145D01*
X105392420Y-117055071D01*
X105396320Y-117062725D01*
X105457492Y-117182783D01*
X105457494Y-117182786D01*
X105461392Y-117190436D01*
X105467205Y-117196757D01*
X105467206Y-117196759D01*
X105558416Y-117295948D01*
X105564226Y-117302266D01*
X105571521Y-117306789D01*
X105571522Y-117306790D01*
X105658071Y-117360453D01*
X105693344Y-117382323D01*
X105839235Y-117424709D01*
X105850007Y-117425500D01*
X105959057Y-117425500D01*
X105963303Y-117424918D01*
X105963309Y-117424918D01*
X106042054Y-117414131D01*
X106071518Y-117410095D01*
X106092614Y-117400966D01*
X106203064Y-117353169D01*
X106203065Y-117353169D01*
X106210946Y-117349758D01*
X106258909Y-117310919D01*
X106322339Y-117259555D01*
X106322341Y-117259553D01*
X106329013Y-117254150D01*
X106359409Y-117211380D01*
X106412044Y-117137315D01*
X106412044Y-117137314D01*
X106417020Y-117130313D01*
X106468482Y-116987371D01*
X106470749Y-116956509D01*
X106478980Y-116844418D01*
X106479609Y-116835855D01*
X106449580Y-116686929D01*
X106415361Y-116619770D01*
X106384508Y-116559217D01*
X106384506Y-116559214D01*
X106380608Y-116551564D01*
X106373827Y-116544189D01*
X106283584Y-116446052D01*
X106283583Y-116446051D01*
X106277774Y-116439734D01*
X106148656Y-116359677D01*
X106141598Y-116357626D01*
X106087960Y-116312032D01*
X106067312Y-116244105D01*
X106086666Y-116175797D01*
X106139878Y-116128797D01*
X106150317Y-116125112D01*
X106150161Y-116124700D01*
X106302453Y-116067154D01*
X106315814Y-116060169D01*
X106443724Y-115972259D01*
X106455036Y-115962286D01*
X106558282Y-115846405D01*
X106566888Y-115834024D01*
X106639516Y-115696852D01*
X106644917Y-115682781D01*
X106670592Y-115580570D01*
X106670428Y-115576431D01*
X108510674Y-115576431D01*
X108534534Y-115675811D01*
X108539792Y-115689948D01*
X108610975Y-115827864D01*
X108619450Y-115840336D01*
X108721478Y-115957292D01*
X108732686Y-115967384D01*
X108859664Y-116056626D01*
X108872961Y-116063755D01*
X109017556Y-116120131D01*
X109032170Y-116123883D01*
X109150505Y-116139462D01*
X109158714Y-116140000D01*
X109455885Y-116140000D01*
X109471124Y-116135525D01*
X109472329Y-116134135D01*
X109474000Y-116126452D01*
X109474000Y-115581115D01*
X109469525Y-115565876D01*
X109468135Y-115564671D01*
X109460452Y-115563000D01*
X108525565Y-115563000D01*
X108512034Y-115566973D01*
X108510674Y-115576431D01*
X106670428Y-115576431D01*
X106670035Y-115566480D01*
X106661543Y-115563000D01*
X105576115Y-115563000D01*
X105560876Y-115567475D01*
X105559671Y-115568865D01*
X105558000Y-115576548D01*
X105558000Y-116121885D01*
X105562475Y-116137124D01*
X105563865Y-116138329D01*
X105571548Y-116140000D01*
X105605519Y-116140000D01*
X105673640Y-116160002D01*
X105720133Y-116213658D01*
X105730237Y-116283932D01*
X105700743Y-116348512D01*
X105655562Y-116381636D01*
X105631054Y-116392242D01*
X105624381Y-116397646D01*
X105519661Y-116482445D01*
X105519659Y-116482447D01*
X105512987Y-116487850D01*
X105508013Y-116494849D01*
X105508012Y-116494850D01*
X105462269Y-116559217D01*
X105424980Y-116611687D01*
X105373518Y-116754629D01*
X105362391Y-116906145D01*
X98182011Y-116906145D01*
X98182011Y-115576431D01*
X104190674Y-115576431D01*
X104214534Y-115675811D01*
X104219792Y-115689948D01*
X104290975Y-115827864D01*
X104299450Y-115840336D01*
X104401478Y-115957292D01*
X104412686Y-115967384D01*
X104539664Y-116056626D01*
X104552961Y-116063755D01*
X104697556Y-116120131D01*
X104712170Y-116123883D01*
X104830505Y-116139462D01*
X104838714Y-116140000D01*
X105285885Y-116140000D01*
X105301124Y-116135525D01*
X105302329Y-116134135D01*
X105304000Y-116126452D01*
X105304000Y-115581115D01*
X105299525Y-115565876D01*
X105298135Y-115564671D01*
X105290452Y-115563000D01*
X104205565Y-115563000D01*
X104192034Y-115566973D01*
X104190674Y-115576431D01*
X98182011Y-115576431D01*
X98182011Y-115291430D01*
X104191408Y-115291430D01*
X104191965Y-115305520D01*
X104200457Y-115309000D01*
X105285885Y-115309000D01*
X105301124Y-115304525D01*
X105302329Y-115303135D01*
X105304000Y-115295452D01*
X105304000Y-115290885D01*
X105558000Y-115290885D01*
X105562475Y-115306124D01*
X105563865Y-115307329D01*
X105571548Y-115309000D01*
X106656435Y-115309000D01*
X106669966Y-115305027D01*
X106671326Y-115295569D01*
X106670332Y-115291430D01*
X108511408Y-115291430D01*
X108511965Y-115305520D01*
X108520457Y-115309000D01*
X109455885Y-115309000D01*
X109471124Y-115304525D01*
X109472329Y-115303135D01*
X109474000Y-115295452D01*
X109474000Y-114750115D01*
X109469525Y-114734876D01*
X109468135Y-114733671D01*
X109460452Y-114732000D01*
X109162059Y-114732000D01*
X109154505Y-114732456D01*
X109039379Y-114746388D01*
X109024736Y-114749984D01*
X108879547Y-114804846D01*
X108866186Y-114811831D01*
X108738276Y-114899741D01*
X108726964Y-114909714D01*
X108623718Y-115025595D01*
X108615112Y-115037976D01*
X108542484Y-115175148D01*
X108537083Y-115189219D01*
X108511408Y-115291430D01*
X106670332Y-115291430D01*
X106647466Y-115196189D01*
X106642208Y-115182052D01*
X106571025Y-115044136D01*
X106562550Y-115031664D01*
X106460522Y-114914708D01*
X106449314Y-114904616D01*
X106322336Y-114815374D01*
X106309039Y-114808245D01*
X106164444Y-114751869D01*
X106149830Y-114748117D01*
X106031495Y-114732538D01*
X106023286Y-114732000D01*
X105576115Y-114732000D01*
X105560876Y-114736475D01*
X105559671Y-114737865D01*
X105558000Y-114745548D01*
X105558000Y-115290885D01*
X105304000Y-115290885D01*
X105304000Y-114750115D01*
X105299525Y-114734876D01*
X105298135Y-114733671D01*
X105290452Y-114732000D01*
X104842059Y-114732000D01*
X104834505Y-114732456D01*
X104719379Y-114746388D01*
X104704736Y-114749984D01*
X104559547Y-114804846D01*
X104546186Y-114811831D01*
X104418276Y-114899741D01*
X104406964Y-114909714D01*
X104303718Y-115025595D01*
X104295112Y-115037976D01*
X104222484Y-115175148D01*
X104217083Y-115189219D01*
X104191408Y-115291430D01*
X98182011Y-115291430D01*
X98182011Y-110794445D01*
X98176357Y-110777042D01*
X98175116Y-110773224D01*
X98170500Y-110753998D01*
X98168560Y-110741749D01*
X98167009Y-110731956D01*
X98156877Y-110712072D01*
X98149312Y-110693806D01*
X98145480Y-110682013D01*
X98142416Y-110672582D01*
X98129295Y-110654524D01*
X98118966Y-110637668D01*
X98113337Y-110626620D01*
X98108837Y-110617788D01*
X92713990Y-105222941D01*
X87392092Y-99901042D01*
X87358066Y-99838730D01*
X87363131Y-99767915D01*
X87392092Y-99722852D01*
X87393913Y-99721031D01*
X87398345Y-99717345D01*
X87467036Y-99634754D01*
X87524453Y-99565718D01*
X87524455Y-99565715D01*
X87528147Y-99561276D01*
X87605941Y-99422365D01*
X87624510Y-99389208D01*
X87624511Y-99389206D01*
X87627334Y-99384165D01*
X87629190Y-99378698D01*
X87629192Y-99378693D01*
X87690728Y-99197414D01*
X87690729Y-99197409D01*
X87692584Y-99191945D01*
X87693412Y-99186236D01*
X87693413Y-99186231D01*
X87721179Y-98994727D01*
X87721712Y-98991053D01*
X87723232Y-98933000D01*
X87720564Y-98903964D01*
X88045148Y-98903964D01*
X88058424Y-99106522D01*
X88059845Y-99112118D01*
X88059846Y-99112123D01*
X88080119Y-99191945D01*
X88108392Y-99303269D01*
X88110809Y-99308512D01*
X88147912Y-99388994D01*
X88193377Y-99487616D01*
X88196710Y-99492332D01*
X88290102Y-99624479D01*
X88310533Y-99653389D01*
X88314675Y-99657424D01*
X88371637Y-99712913D01*
X88455938Y-99795035D01*
X88624720Y-99907812D01*
X88630023Y-99910090D01*
X88630026Y-99910092D01*
X88804292Y-99984962D01*
X88811228Y-99987942D01*
X88857985Y-99998522D01*
X89003579Y-100031467D01*
X89003584Y-100031468D01*
X89009216Y-100032742D01*
X89014987Y-100032969D01*
X89014989Y-100032969D01*
X89074756Y-100035317D01*
X89212053Y-100040712D01*
X89327038Y-100024040D01*
X89407231Y-100012413D01*
X89407236Y-100012412D01*
X89412945Y-100011584D01*
X89418409Y-100009729D01*
X89418414Y-100009728D01*
X89599693Y-99948192D01*
X89599698Y-99948190D01*
X89605165Y-99946334D01*
X89611019Y-99943056D01*
X89708499Y-99888464D01*
X89782276Y-99847147D01*
X89787288Y-99842979D01*
X89933913Y-99721031D01*
X89938345Y-99717345D01*
X90007036Y-99634754D01*
X90064453Y-99565718D01*
X90064455Y-99565715D01*
X90068147Y-99561276D01*
X90145941Y-99422365D01*
X90164510Y-99389208D01*
X90164511Y-99389206D01*
X90167334Y-99384165D01*
X90169190Y-99378698D01*
X90169192Y-99378693D01*
X90230728Y-99197414D01*
X90230729Y-99197409D01*
X90232584Y-99191945D01*
X90233412Y-99186236D01*
X90233413Y-99186231D01*
X90261179Y-98994727D01*
X90261712Y-98991053D01*
X90263232Y-98933000D01*
X90260564Y-98903964D01*
X90585148Y-98903964D01*
X90598424Y-99106522D01*
X90599845Y-99112118D01*
X90599846Y-99112123D01*
X90620119Y-99191945D01*
X90648392Y-99303269D01*
X90650809Y-99308512D01*
X90687912Y-99388994D01*
X90733377Y-99487616D01*
X90736710Y-99492332D01*
X90830102Y-99624479D01*
X90850533Y-99653389D01*
X90854675Y-99657424D01*
X90911637Y-99712913D01*
X90995938Y-99795035D01*
X91164720Y-99907812D01*
X91170023Y-99910090D01*
X91170026Y-99910092D01*
X91344292Y-99984962D01*
X91351228Y-99987942D01*
X91397985Y-99998522D01*
X91543579Y-100031467D01*
X91543584Y-100031468D01*
X91549216Y-100032742D01*
X91554987Y-100032969D01*
X91554989Y-100032969D01*
X91614756Y-100035317D01*
X91752053Y-100040712D01*
X91867038Y-100024040D01*
X91947231Y-100012413D01*
X91947236Y-100012412D01*
X91952945Y-100011584D01*
X91958409Y-100009729D01*
X91958414Y-100009728D01*
X92139693Y-99948192D01*
X92139698Y-99948190D01*
X92145165Y-99946334D01*
X92151019Y-99943056D01*
X92248499Y-99888464D01*
X92322276Y-99847147D01*
X92327288Y-99842979D01*
X92473913Y-99721031D01*
X92478345Y-99717345D01*
X92547036Y-99634754D01*
X92604453Y-99565718D01*
X92604455Y-99565715D01*
X92608147Y-99561276D01*
X92685941Y-99422365D01*
X92704510Y-99389208D01*
X92704511Y-99389206D01*
X92707334Y-99384165D01*
X92709190Y-99378698D01*
X92709192Y-99378693D01*
X92770728Y-99197414D01*
X92770729Y-99197409D01*
X92772584Y-99191945D01*
X92773412Y-99186236D01*
X92773413Y-99186231D01*
X92801179Y-98994727D01*
X92801712Y-98991053D01*
X92803232Y-98933000D01*
X92800564Y-98903964D01*
X93125148Y-98903964D01*
X93138424Y-99106522D01*
X93139845Y-99112118D01*
X93139846Y-99112123D01*
X93160119Y-99191945D01*
X93188392Y-99303269D01*
X93190809Y-99308512D01*
X93227912Y-99388994D01*
X93273377Y-99487616D01*
X93276710Y-99492332D01*
X93370102Y-99624479D01*
X93390533Y-99653389D01*
X93394675Y-99657424D01*
X93451637Y-99712913D01*
X93535938Y-99795035D01*
X93704720Y-99907812D01*
X93710023Y-99910090D01*
X93710026Y-99910092D01*
X93884292Y-99984962D01*
X93891228Y-99987942D01*
X93937985Y-99998522D01*
X94083579Y-100031467D01*
X94083584Y-100031468D01*
X94089216Y-100032742D01*
X94094987Y-100032969D01*
X94094989Y-100032969D01*
X94154756Y-100035317D01*
X94292053Y-100040712D01*
X94407038Y-100024040D01*
X94487231Y-100012413D01*
X94487236Y-100012412D01*
X94492945Y-100011584D01*
X94498409Y-100009729D01*
X94498414Y-100009728D01*
X94679693Y-99948192D01*
X94679698Y-99948190D01*
X94685165Y-99946334D01*
X94691019Y-99943056D01*
X94788499Y-99888464D01*
X94862276Y-99847147D01*
X94867288Y-99842979D01*
X95013913Y-99721031D01*
X95018345Y-99717345D01*
X95087036Y-99634754D01*
X95144453Y-99565718D01*
X95144455Y-99565715D01*
X95148147Y-99561276D01*
X95225941Y-99422365D01*
X95244510Y-99389208D01*
X95244511Y-99389206D01*
X95247334Y-99384165D01*
X95249190Y-99378698D01*
X95249192Y-99378693D01*
X95310728Y-99197414D01*
X95310729Y-99197409D01*
X95312584Y-99191945D01*
X95313412Y-99186236D01*
X95313413Y-99186231D01*
X95341179Y-98994727D01*
X95341712Y-98991053D01*
X95343232Y-98933000D01*
X95340564Y-98903964D01*
X95665148Y-98903964D01*
X95678424Y-99106522D01*
X95679845Y-99112118D01*
X95679846Y-99112123D01*
X95700119Y-99191945D01*
X95728392Y-99303269D01*
X95730809Y-99308512D01*
X95767912Y-99388994D01*
X95813377Y-99487616D01*
X95816710Y-99492332D01*
X95910102Y-99624479D01*
X95930533Y-99653389D01*
X95934675Y-99657424D01*
X95991637Y-99712913D01*
X96075938Y-99795035D01*
X96244720Y-99907812D01*
X96250023Y-99910090D01*
X96250026Y-99910092D01*
X96424292Y-99984962D01*
X96431228Y-99987942D01*
X96477985Y-99998522D01*
X96623579Y-100031467D01*
X96623584Y-100031468D01*
X96629216Y-100032742D01*
X96634987Y-100032969D01*
X96634989Y-100032969D01*
X96694756Y-100035317D01*
X96832053Y-100040712D01*
X96947038Y-100024040D01*
X97027231Y-100012413D01*
X97027236Y-100012412D01*
X97032945Y-100011584D01*
X97038409Y-100009729D01*
X97038414Y-100009728D01*
X97219693Y-99948192D01*
X97219698Y-99948190D01*
X97225165Y-99946334D01*
X97231019Y-99943056D01*
X97328499Y-99888464D01*
X97402276Y-99847147D01*
X97407288Y-99842979D01*
X97553913Y-99721031D01*
X97558345Y-99717345D01*
X97627036Y-99634754D01*
X97684453Y-99565718D01*
X97684455Y-99565715D01*
X97688147Y-99561276D01*
X97765941Y-99422365D01*
X97784510Y-99389208D01*
X97784511Y-99389206D01*
X97787334Y-99384165D01*
X97789190Y-99378698D01*
X97789192Y-99378693D01*
X97850728Y-99197414D01*
X97850729Y-99197409D01*
X97852584Y-99191945D01*
X97853412Y-99186236D01*
X97853413Y-99186231D01*
X97881179Y-98994727D01*
X97881712Y-98991053D01*
X97883232Y-98933000D01*
X97880564Y-98903964D01*
X98205148Y-98903964D01*
X98218424Y-99106522D01*
X98219845Y-99112118D01*
X98219846Y-99112123D01*
X98240119Y-99191945D01*
X98268392Y-99303269D01*
X98270809Y-99308512D01*
X98307912Y-99388994D01*
X98353377Y-99487616D01*
X98356710Y-99492332D01*
X98450102Y-99624479D01*
X98470533Y-99653389D01*
X98474675Y-99657424D01*
X98531637Y-99712913D01*
X98615938Y-99795035D01*
X98784720Y-99907812D01*
X98790023Y-99910090D01*
X98790026Y-99910092D01*
X98964292Y-99984962D01*
X98971228Y-99987942D01*
X99017985Y-99998522D01*
X99163579Y-100031467D01*
X99163584Y-100031468D01*
X99169216Y-100032742D01*
X99174987Y-100032969D01*
X99174989Y-100032969D01*
X99234756Y-100035317D01*
X99372053Y-100040712D01*
X99487038Y-100024040D01*
X99567231Y-100012413D01*
X99567236Y-100012412D01*
X99572945Y-100011584D01*
X99578409Y-100009729D01*
X99578414Y-100009728D01*
X99759693Y-99948192D01*
X99759698Y-99948190D01*
X99765165Y-99946334D01*
X99771019Y-99943056D01*
X99868499Y-99888464D01*
X99942276Y-99847147D01*
X99947288Y-99842979D01*
X100093913Y-99721031D01*
X100098345Y-99717345D01*
X100167036Y-99634754D01*
X100224453Y-99565718D01*
X100224455Y-99565715D01*
X100228147Y-99561276D01*
X100305941Y-99422365D01*
X100324510Y-99389208D01*
X100324511Y-99389206D01*
X100327334Y-99384165D01*
X100329190Y-99378698D01*
X100329192Y-99378693D01*
X100390728Y-99197414D01*
X100390729Y-99197409D01*
X100392584Y-99191945D01*
X100393412Y-99186236D01*
X100393413Y-99186231D01*
X100421179Y-98994727D01*
X100421712Y-98991053D01*
X100423232Y-98933000D01*
X100420564Y-98903964D01*
X100745148Y-98903964D01*
X100758424Y-99106522D01*
X100759845Y-99112118D01*
X100759846Y-99112123D01*
X100780119Y-99191945D01*
X100808392Y-99303269D01*
X100810809Y-99308512D01*
X100847912Y-99388994D01*
X100893377Y-99487616D01*
X100896710Y-99492332D01*
X100990102Y-99624479D01*
X101010533Y-99653389D01*
X101014675Y-99657424D01*
X101071637Y-99712913D01*
X101155938Y-99795035D01*
X101324720Y-99907812D01*
X101330023Y-99910090D01*
X101330026Y-99910092D01*
X101504292Y-99984962D01*
X101511228Y-99987942D01*
X101557985Y-99998522D01*
X101703579Y-100031467D01*
X101703584Y-100031468D01*
X101709216Y-100032742D01*
X101714987Y-100032969D01*
X101714989Y-100032969D01*
X101774756Y-100035317D01*
X101912053Y-100040712D01*
X102027038Y-100024040D01*
X102107231Y-100012413D01*
X102107236Y-100012412D01*
X102112945Y-100011584D01*
X102118409Y-100009729D01*
X102118414Y-100009728D01*
X102299693Y-99948192D01*
X102299698Y-99948190D01*
X102305165Y-99946334D01*
X102311019Y-99943056D01*
X102408499Y-99888464D01*
X102482276Y-99847147D01*
X102487288Y-99842979D01*
X102633913Y-99721031D01*
X102638345Y-99717345D01*
X102707036Y-99634754D01*
X102764453Y-99565718D01*
X102764455Y-99565715D01*
X102768147Y-99561276D01*
X102845941Y-99422365D01*
X102864510Y-99389208D01*
X102864511Y-99389206D01*
X102867334Y-99384165D01*
X102869190Y-99378698D01*
X102869192Y-99378693D01*
X102930728Y-99197414D01*
X102930729Y-99197409D01*
X102932584Y-99191945D01*
X102933412Y-99186236D01*
X102933413Y-99186231D01*
X102961179Y-98994727D01*
X102961712Y-98991053D01*
X102963232Y-98933000D01*
X102960564Y-98903964D01*
X103285148Y-98903964D01*
X103298424Y-99106522D01*
X103299845Y-99112118D01*
X103299846Y-99112123D01*
X103320119Y-99191945D01*
X103348392Y-99303269D01*
X103350809Y-99308512D01*
X103387912Y-99388994D01*
X103433377Y-99487616D01*
X103436710Y-99492332D01*
X103530102Y-99624479D01*
X103550533Y-99653389D01*
X103554675Y-99657424D01*
X103611637Y-99712913D01*
X103695938Y-99795035D01*
X103864720Y-99907812D01*
X103870023Y-99910090D01*
X103870026Y-99910092D01*
X104044292Y-99984962D01*
X104051228Y-99987942D01*
X104097985Y-99998522D01*
X104243579Y-100031467D01*
X104243584Y-100031468D01*
X104249216Y-100032742D01*
X104254987Y-100032969D01*
X104254989Y-100032969D01*
X104314756Y-100035317D01*
X104452053Y-100040712D01*
X104567038Y-100024040D01*
X104647231Y-100012413D01*
X104647236Y-100012412D01*
X104652945Y-100011584D01*
X104658409Y-100009729D01*
X104658414Y-100009728D01*
X104839693Y-99948192D01*
X104839698Y-99948190D01*
X104845165Y-99946334D01*
X104851019Y-99943056D01*
X104948499Y-99888464D01*
X105022276Y-99847147D01*
X105027288Y-99842979D01*
X105173913Y-99721031D01*
X105178345Y-99717345D01*
X105247036Y-99634754D01*
X105304453Y-99565718D01*
X105304455Y-99565715D01*
X105308147Y-99561276D01*
X105385941Y-99422365D01*
X105404510Y-99389208D01*
X105404511Y-99389206D01*
X105407334Y-99384165D01*
X105409190Y-99378698D01*
X105409192Y-99378693D01*
X105470728Y-99197414D01*
X105470729Y-99197409D01*
X105472584Y-99191945D01*
X105473412Y-99186236D01*
X105473413Y-99186231D01*
X105489453Y-99075602D01*
X105836899Y-99075602D01*
X105838542Y-99100676D01*
X105840343Y-99112046D01*
X105887443Y-99297502D01*
X105891284Y-99308348D01*
X105971394Y-99482120D01*
X105977145Y-99492081D01*
X106087579Y-99648343D01*
X106095057Y-99657098D01*
X106232114Y-99790612D01*
X106241058Y-99797855D01*
X106400156Y-99904161D01*
X106410266Y-99909651D01*
X106586077Y-99985185D01*
X106597020Y-99988740D01*
X106783647Y-100030970D01*
X106790383Y-100031857D01*
X106804302Y-100028357D01*
X106804658Y-100027978D01*
X106807000Y-100018144D01*
X106807000Y-99078115D01*
X106802525Y-99062876D01*
X106801135Y-99061671D01*
X106793452Y-99060000D01*
X105853991Y-99060000D01*
X105838951Y-99064416D01*
X105836899Y-99075602D01*
X105489453Y-99075602D01*
X105501179Y-98994727D01*
X105501712Y-98991053D01*
X105503232Y-98933000D01*
X105491298Y-98803124D01*
X105489910Y-98788012D01*
X105839375Y-98788012D01*
X105841817Y-98802431D01*
X105854559Y-98806000D01*
X106788885Y-98806000D01*
X106804124Y-98801525D01*
X106805329Y-98800135D01*
X106807000Y-98792452D01*
X106807000Y-97852678D01*
X106803194Y-97839716D01*
X106788278Y-97837780D01*
X106652737Y-97861070D01*
X106641617Y-97864050D01*
X106462095Y-97930279D01*
X106451717Y-97935229D01*
X106287273Y-98033063D01*
X106277961Y-98039829D01*
X106134097Y-98165994D01*
X106126180Y-98174337D01*
X106007718Y-98324605D01*
X106001450Y-98334256D01*
X105912360Y-98503589D01*
X105907951Y-98514232D01*
X105851210Y-98696967D01*
X105848820Y-98708211D01*
X105839375Y-98788012D01*
X105489910Y-98788012D01*
X105485187Y-98736613D01*
X105485186Y-98736610D01*
X105484658Y-98730859D01*
X105478271Y-98708211D01*
X105431125Y-98541046D01*
X105431124Y-98541044D01*
X105429557Y-98535487D01*
X105419076Y-98514232D01*
X105342331Y-98358609D01*
X105339776Y-98353428D01*
X105218320Y-98190779D01*
X105069258Y-98052987D01*
X105064375Y-98049906D01*
X105064371Y-98049903D01*
X104918728Y-97958010D01*
X104897581Y-97944667D01*
X104709039Y-97869446D01*
X104703379Y-97868320D01*
X104703375Y-97868319D01*
X104515613Y-97830971D01*
X104515610Y-97830971D01*
X104509946Y-97829844D01*
X104504171Y-97829768D01*
X104504167Y-97829768D01*
X104402793Y-97828441D01*
X104306971Y-97827187D01*
X104301274Y-97828166D01*
X104301273Y-97828166D01*
X104160264Y-97852396D01*
X104106910Y-97861564D01*
X103916463Y-97931824D01*
X103742010Y-98035612D01*
X103737670Y-98039418D01*
X103737666Y-98039421D01*
X103651499Y-98114988D01*
X103589392Y-98169455D01*
X103585817Y-98173990D01*
X103585816Y-98173991D01*
X103568931Y-98195409D01*
X103463720Y-98328869D01*
X103461031Y-98333980D01*
X103461029Y-98333983D01*
X103448073Y-98358609D01*
X103369203Y-98508515D01*
X103309007Y-98702378D01*
X103285148Y-98903964D01*
X102960564Y-98903964D01*
X102951298Y-98803124D01*
X102945187Y-98736613D01*
X102945186Y-98736610D01*
X102944658Y-98730859D01*
X102938271Y-98708211D01*
X102891125Y-98541046D01*
X102891124Y-98541044D01*
X102889557Y-98535487D01*
X102879076Y-98514232D01*
X102802331Y-98358609D01*
X102799776Y-98353428D01*
X102678320Y-98190779D01*
X102529258Y-98052987D01*
X102524375Y-98049906D01*
X102524371Y-98049903D01*
X102378728Y-97958010D01*
X102357581Y-97944667D01*
X102169039Y-97869446D01*
X102163379Y-97868320D01*
X102163375Y-97868319D01*
X101975613Y-97830971D01*
X101975610Y-97830971D01*
X101969946Y-97829844D01*
X101964171Y-97829768D01*
X101964167Y-97829768D01*
X101862793Y-97828441D01*
X101766971Y-97827187D01*
X101761274Y-97828166D01*
X101761273Y-97828166D01*
X101620264Y-97852396D01*
X101566910Y-97861564D01*
X101376463Y-97931824D01*
X101202010Y-98035612D01*
X101197670Y-98039418D01*
X101197666Y-98039421D01*
X101111499Y-98114988D01*
X101049392Y-98169455D01*
X101045817Y-98173990D01*
X101045816Y-98173991D01*
X101028931Y-98195409D01*
X100923720Y-98328869D01*
X100921031Y-98333980D01*
X100921029Y-98333983D01*
X100908073Y-98358609D01*
X100829203Y-98508515D01*
X100769007Y-98702378D01*
X100745148Y-98903964D01*
X100420564Y-98903964D01*
X100411298Y-98803124D01*
X100405187Y-98736613D01*
X100405186Y-98736610D01*
X100404658Y-98730859D01*
X100398271Y-98708211D01*
X100351125Y-98541046D01*
X100351124Y-98541044D01*
X100349557Y-98535487D01*
X100339076Y-98514232D01*
X100262331Y-98358609D01*
X100259776Y-98353428D01*
X100138320Y-98190779D01*
X99989258Y-98052987D01*
X99984375Y-98049906D01*
X99984371Y-98049903D01*
X99838728Y-97958010D01*
X99817581Y-97944667D01*
X99629039Y-97869446D01*
X99623379Y-97868320D01*
X99623375Y-97868319D01*
X99435613Y-97830971D01*
X99435610Y-97830971D01*
X99429946Y-97829844D01*
X99424171Y-97829768D01*
X99424167Y-97829768D01*
X99322793Y-97828441D01*
X99226971Y-97827187D01*
X99221274Y-97828166D01*
X99221273Y-97828166D01*
X99080264Y-97852396D01*
X99026910Y-97861564D01*
X98836463Y-97931824D01*
X98662010Y-98035612D01*
X98657670Y-98039418D01*
X98657666Y-98039421D01*
X98571499Y-98114988D01*
X98509392Y-98169455D01*
X98505817Y-98173990D01*
X98505816Y-98173991D01*
X98488931Y-98195409D01*
X98383720Y-98328869D01*
X98381031Y-98333980D01*
X98381029Y-98333983D01*
X98368073Y-98358609D01*
X98289203Y-98508515D01*
X98229007Y-98702378D01*
X98205148Y-98903964D01*
X97880564Y-98903964D01*
X97871298Y-98803124D01*
X97865187Y-98736613D01*
X97865186Y-98736610D01*
X97864658Y-98730859D01*
X97858271Y-98708211D01*
X97811125Y-98541046D01*
X97811124Y-98541044D01*
X97809557Y-98535487D01*
X97799076Y-98514232D01*
X97722331Y-98358609D01*
X97719776Y-98353428D01*
X97598320Y-98190779D01*
X97449258Y-98052987D01*
X97444375Y-98049906D01*
X97444371Y-98049903D01*
X97298728Y-97958010D01*
X97277581Y-97944667D01*
X97089039Y-97869446D01*
X97083379Y-97868320D01*
X97083375Y-97868319D01*
X96895613Y-97830971D01*
X96895610Y-97830971D01*
X96889946Y-97829844D01*
X96884171Y-97829768D01*
X96884167Y-97829768D01*
X96782793Y-97828441D01*
X96686971Y-97827187D01*
X96681274Y-97828166D01*
X96681273Y-97828166D01*
X96540264Y-97852396D01*
X96486910Y-97861564D01*
X96296463Y-97931824D01*
X96122010Y-98035612D01*
X96117670Y-98039418D01*
X96117666Y-98039421D01*
X96031499Y-98114988D01*
X95969392Y-98169455D01*
X95965817Y-98173990D01*
X95965816Y-98173991D01*
X95948931Y-98195409D01*
X95843720Y-98328869D01*
X95841031Y-98333980D01*
X95841029Y-98333983D01*
X95828073Y-98358609D01*
X95749203Y-98508515D01*
X95689007Y-98702378D01*
X95665148Y-98903964D01*
X95340564Y-98903964D01*
X95331298Y-98803124D01*
X95325187Y-98736613D01*
X95325186Y-98736610D01*
X95324658Y-98730859D01*
X95318271Y-98708211D01*
X95271125Y-98541046D01*
X95271124Y-98541044D01*
X95269557Y-98535487D01*
X95259076Y-98514232D01*
X95182331Y-98358609D01*
X95179776Y-98353428D01*
X95058320Y-98190779D01*
X94909258Y-98052987D01*
X94904375Y-98049906D01*
X94904371Y-98049903D01*
X94758728Y-97958010D01*
X94737581Y-97944667D01*
X94549039Y-97869446D01*
X94543379Y-97868320D01*
X94543375Y-97868319D01*
X94355613Y-97830971D01*
X94355610Y-97830971D01*
X94349946Y-97829844D01*
X94344171Y-97829768D01*
X94344167Y-97829768D01*
X94242793Y-97828441D01*
X94146971Y-97827187D01*
X94141274Y-97828166D01*
X94141273Y-97828166D01*
X94000264Y-97852396D01*
X93946910Y-97861564D01*
X93756463Y-97931824D01*
X93582010Y-98035612D01*
X93577670Y-98039418D01*
X93577666Y-98039421D01*
X93491499Y-98114988D01*
X93429392Y-98169455D01*
X93425817Y-98173990D01*
X93425816Y-98173991D01*
X93408931Y-98195409D01*
X93303720Y-98328869D01*
X93301031Y-98333980D01*
X93301029Y-98333983D01*
X93288073Y-98358609D01*
X93209203Y-98508515D01*
X93149007Y-98702378D01*
X93125148Y-98903964D01*
X92800564Y-98903964D01*
X92791298Y-98803124D01*
X92785187Y-98736613D01*
X92785186Y-98736610D01*
X92784658Y-98730859D01*
X92778271Y-98708211D01*
X92731125Y-98541046D01*
X92731124Y-98541044D01*
X92729557Y-98535487D01*
X92719076Y-98514232D01*
X92642331Y-98358609D01*
X92639776Y-98353428D01*
X92518320Y-98190779D01*
X92369258Y-98052987D01*
X92364375Y-98049906D01*
X92364371Y-98049903D01*
X92218728Y-97958010D01*
X92197581Y-97944667D01*
X92009039Y-97869446D01*
X92003379Y-97868320D01*
X92003375Y-97868319D01*
X91815613Y-97830971D01*
X91815610Y-97830971D01*
X91809946Y-97829844D01*
X91804171Y-97829768D01*
X91804167Y-97829768D01*
X91702793Y-97828441D01*
X91606971Y-97827187D01*
X91601274Y-97828166D01*
X91601273Y-97828166D01*
X91460264Y-97852396D01*
X91406910Y-97861564D01*
X91216463Y-97931824D01*
X91042010Y-98035612D01*
X91037670Y-98039418D01*
X91037666Y-98039421D01*
X90951499Y-98114988D01*
X90889392Y-98169455D01*
X90885817Y-98173990D01*
X90885816Y-98173991D01*
X90868931Y-98195409D01*
X90763720Y-98328869D01*
X90761031Y-98333980D01*
X90761029Y-98333983D01*
X90748073Y-98358609D01*
X90669203Y-98508515D01*
X90609007Y-98702378D01*
X90585148Y-98903964D01*
X90260564Y-98903964D01*
X90251298Y-98803124D01*
X90245187Y-98736613D01*
X90245186Y-98736610D01*
X90244658Y-98730859D01*
X90238271Y-98708211D01*
X90191125Y-98541046D01*
X90191124Y-98541044D01*
X90189557Y-98535487D01*
X90179076Y-98514232D01*
X90102331Y-98358609D01*
X90099776Y-98353428D01*
X89978320Y-98190779D01*
X89829258Y-98052987D01*
X89824375Y-98049906D01*
X89824371Y-98049903D01*
X89678728Y-97958010D01*
X89657581Y-97944667D01*
X89469039Y-97869446D01*
X89463379Y-97868320D01*
X89463375Y-97868319D01*
X89275613Y-97830971D01*
X89275610Y-97830971D01*
X89269946Y-97829844D01*
X89264171Y-97829768D01*
X89264167Y-97829768D01*
X89162793Y-97828441D01*
X89066971Y-97827187D01*
X89061274Y-97828166D01*
X89061273Y-97828166D01*
X88920264Y-97852396D01*
X88866910Y-97861564D01*
X88676463Y-97931824D01*
X88502010Y-98035612D01*
X88497670Y-98039418D01*
X88497666Y-98039421D01*
X88411499Y-98114988D01*
X88349392Y-98169455D01*
X88345817Y-98173990D01*
X88345816Y-98173991D01*
X88328931Y-98195409D01*
X88223720Y-98328869D01*
X88221031Y-98333980D01*
X88221029Y-98333983D01*
X88208073Y-98358609D01*
X88129203Y-98508515D01*
X88069007Y-98702378D01*
X88045148Y-98903964D01*
X87720564Y-98903964D01*
X87711298Y-98803124D01*
X87705187Y-98736613D01*
X87705186Y-98736610D01*
X87704658Y-98730859D01*
X87698271Y-98708211D01*
X87651125Y-98541046D01*
X87651124Y-98541044D01*
X87649557Y-98535487D01*
X87639076Y-98514232D01*
X87562331Y-98358609D01*
X87559776Y-98353428D01*
X87438320Y-98190779D01*
X87289258Y-98052987D01*
X87284375Y-98049906D01*
X87284371Y-98049903D01*
X87138728Y-97958010D01*
X87117581Y-97944667D01*
X86929039Y-97869446D01*
X86923379Y-97868320D01*
X86923375Y-97868319D01*
X86735613Y-97830971D01*
X86735610Y-97830971D01*
X86729946Y-97829844D01*
X86724171Y-97829768D01*
X86724167Y-97829768D01*
X86622793Y-97828441D01*
X86526971Y-97827187D01*
X86521274Y-97828166D01*
X86521273Y-97828166D01*
X86380264Y-97852396D01*
X86326910Y-97861564D01*
X86136463Y-97931824D01*
X85962010Y-98035612D01*
X85957670Y-98039418D01*
X85957666Y-98039421D01*
X85871499Y-98114988D01*
X85809392Y-98169455D01*
X85805817Y-98173990D01*
X85805816Y-98173991D01*
X85788931Y-98195409D01*
X85683720Y-98328869D01*
X85681031Y-98333980D01*
X85681029Y-98333983D01*
X85668073Y-98358609D01*
X85589203Y-98508515D01*
X85529007Y-98702378D01*
X85505148Y-98903964D01*
X85518424Y-99106522D01*
X85519845Y-99112118D01*
X85519846Y-99112123D01*
X85540119Y-99191945D01*
X85568392Y-99303269D01*
X85570809Y-99308512D01*
X85607912Y-99388994D01*
X85653377Y-99487616D01*
X85656710Y-99492332D01*
X85750102Y-99624479D01*
X85770533Y-99653389D01*
X85774675Y-99657424D01*
X85831637Y-99712913D01*
X85915938Y-99795035D01*
X86084720Y-99907812D01*
X86090023Y-99910090D01*
X86090026Y-99910092D01*
X86264292Y-99984962D01*
X86271228Y-99987942D01*
X86276861Y-99989217D01*
X86276862Y-99989217D01*
X86317984Y-99998522D01*
X86379270Y-100032320D01*
X91861224Y-105514273D01*
X97336106Y-110989155D01*
X97370132Y-111051467D01*
X97373011Y-111078250D01*
X97373011Y-113423234D01*
X97353009Y-113491355D01*
X97299353Y-113537848D01*
X97229079Y-113547952D01*
X97216324Y-113545440D01*
X97110633Y-113518892D01*
X97103034Y-113518852D01*
X97103033Y-113518852D01*
X97037181Y-113518507D01*
X96952221Y-113518062D01*
X96944841Y-113519834D01*
X96944839Y-113519834D01*
X96805563Y-113553271D01*
X96805560Y-113553272D01*
X96798184Y-113555043D01*
X96657414Y-113627700D01*
X96538039Y-113731838D01*
X96533672Y-113738052D01*
X96533669Y-113738055D01*
X96514767Y-113764950D01*
X96459233Y-113809182D01*
X96411680Y-113818500D01*
X94285257Y-113818500D01*
X94265463Y-113816394D01*
X94261110Y-113816189D01*
X94250930Y-113813997D01*
X94220260Y-113817627D01*
X94214917Y-113817942D01*
X94214928Y-113818072D01*
X94209748Y-113818500D01*
X94204549Y-113818500D01*
X94199425Y-113819353D01*
X94199412Y-113819354D01*
X94186959Y-113821427D01*
X94181084Y-113822264D01*
X94144071Y-113826645D01*
X94133730Y-113827869D01*
X94126022Y-113831570D01*
X94117583Y-113832975D01*
X94075940Y-113855445D01*
X94075615Y-113855620D01*
X94070324Y-113858316D01*
X94034483Y-113875526D01*
X94034480Y-113875528D01*
X94027343Y-113878955D01*
X94023350Y-113882311D01*
X94021424Y-113884237D01*
X94019774Y-113885750D01*
X94019338Y-113885986D01*
X94019306Y-113885951D01*
X94019155Y-113886084D01*
X94013720Y-113889017D01*
X94006651Y-113896664D01*
X93979655Y-113925868D01*
X93976227Y-113929434D01*
X93362067Y-114543595D01*
X93299754Y-114577620D01*
X93272971Y-114580500D01*
X92126257Y-114580500D01*
X92106463Y-114578394D01*
X92102110Y-114578189D01*
X92091930Y-114575997D01*
X92061260Y-114579627D01*
X92055917Y-114579942D01*
X92055928Y-114580072D01*
X92050748Y-114580500D01*
X92045549Y-114580500D01*
X92040425Y-114581353D01*
X92040412Y-114581354D01*
X92027959Y-114583427D01*
X92022084Y-114584264D01*
X91985071Y-114588645D01*
X91974730Y-114589869D01*
X91967022Y-114593570D01*
X91958583Y-114594975D01*
X91916599Y-114617629D01*
X91911336Y-114620310D01*
X91868342Y-114640955D01*
X91864350Y-114644311D01*
X91862403Y-114646258D01*
X91860778Y-114647748D01*
X91860346Y-114647981D01*
X91860313Y-114647945D01*
X91860155Y-114648084D01*
X91854720Y-114651017D01*
X91847651Y-114658664D01*
X91820643Y-114687881D01*
X91817214Y-114691447D01*
X90607473Y-115901189D01*
X90358595Y-116150067D01*
X90296283Y-116184092D01*
X90225468Y-116179028D01*
X90168632Y-116136481D01*
X90143821Y-116069961D01*
X90143500Y-116060972D01*
X90143500Y-114454752D01*
X90163502Y-114386631D01*
X90176085Y-114370196D01*
X90205526Y-114337670D01*
X90211551Y-114331014D01*
X90274560Y-114200962D01*
X90298536Y-114058453D01*
X90298688Y-114046000D01*
X90281745Y-113927693D01*
X90279474Y-113911835D01*
X90279473Y-113911833D01*
X90278201Y-113902948D01*
X90218388Y-113771395D01*
X90212530Y-113764596D01*
X90212527Y-113764592D01*
X90129916Y-113668718D01*
X90129913Y-113668716D01*
X90124056Y-113661918D01*
X90002790Y-113583317D01*
X89985921Y-113578272D01*
X89872938Y-113544482D01*
X89872936Y-113544482D01*
X89864337Y-113541910D01*
X89855363Y-113541855D01*
X89855361Y-113541855D01*
X89792082Y-113541469D01*
X89719827Y-113541028D01*
X89711196Y-113543495D01*
X89711194Y-113543495D01*
X89589509Y-113578272D01*
X89589505Y-113578274D01*
X89580879Y-113580739D01*
X89573292Y-113585526D01*
X89573290Y-113585527D01*
X89506450Y-113627700D01*
X89458661Y-113657853D01*
X89362999Y-113766170D01*
X89301583Y-113896982D01*
X89279350Y-114039773D01*
X89280514Y-114048675D01*
X89280514Y-114048678D01*
X89296924Y-114174164D01*
X89298088Y-114183065D01*
X89356289Y-114315339D01*
X89362063Y-114322208D01*
X89404951Y-114373229D01*
X89433472Y-114438245D01*
X89434500Y-114454305D01*
X89434500Y-115878970D01*
X89414498Y-115947091D01*
X89397595Y-115968065D01*
X88940415Y-116425245D01*
X88878103Y-116459271D01*
X88850553Y-116462148D01*
X88842584Y-116462100D01*
X88830827Y-116462028D01*
X88822195Y-116464495D01*
X88700509Y-116499272D01*
X88700505Y-116499274D01*
X88691879Y-116501739D01*
X88684292Y-116506526D01*
X88684290Y-116506527D01*
X88577254Y-116574062D01*
X88569661Y-116578853D01*
X88473999Y-116687170D01*
X88470185Y-116695293D01*
X88470184Y-116695295D01*
X88454997Y-116727642D01*
X88412583Y-116817982D01*
X88411203Y-116826846D01*
X88411202Y-116826849D01*
X88404304Y-116871151D01*
X88396333Y-116922352D01*
X88393996Y-116937359D01*
X88363752Y-117001592D01*
X88358591Y-117007070D01*
X88069577Y-117296084D01*
X88007265Y-117330110D01*
X87980482Y-117332989D01*
X79030247Y-117332989D01*
X78962126Y-117312987D01*
X78915633Y-117259331D01*
X78905529Y-117189057D01*
X78936832Y-117122434D01*
X78975363Y-117079865D01*
X78975364Y-117079863D01*
X78981391Y-117073205D01*
X79037932Y-116956504D01*
X79062226Y-116922352D01*
X79379087Y-116605491D01*
X79394573Y-116592983D01*
X79397798Y-116590049D01*
X79406546Y-116584400D01*
X79425667Y-116560145D01*
X79429223Y-116556144D01*
X79429123Y-116556059D01*
X79432476Y-116552102D01*
X79436158Y-116548420D01*
X79446546Y-116533884D01*
X79450065Y-116529197D01*
X79479610Y-116491718D01*
X79482443Y-116483650D01*
X79487417Y-116476690D01*
X79491064Y-116464495D01*
X79501084Y-116430989D01*
X79502920Y-116425340D01*
X79512646Y-116397646D01*
X79518714Y-116380367D01*
X79519164Y-116375171D01*
X79519164Y-116372466D01*
X79519261Y-116370210D01*
X79519404Y-116369734D01*
X79519450Y-116369736D01*
X79519463Y-116369537D01*
X79521232Y-116363620D01*
X79519261Y-116313451D01*
X79519164Y-116308505D01*
X79519164Y-115914600D01*
X79521270Y-115894806D01*
X79521475Y-115890453D01*
X79523667Y-115880273D01*
X79520037Y-115849603D01*
X79519722Y-115844260D01*
X79519592Y-115844271D01*
X79519164Y-115839091D01*
X79519164Y-115833892D01*
X79518311Y-115828768D01*
X79518310Y-115828755D01*
X79516237Y-115816302D01*
X79515400Y-115810427D01*
X79511019Y-115773414D01*
X79509795Y-115763073D01*
X79506094Y-115755365D01*
X79504689Y-115746926D01*
X79482035Y-115704942D01*
X79479354Y-115699679D01*
X79462139Y-115663829D01*
X79458709Y-115656685D01*
X79455353Y-115652693D01*
X79453406Y-115650746D01*
X79451916Y-115649121D01*
X79451683Y-115648689D01*
X79451719Y-115648656D01*
X79451580Y-115648498D01*
X79448647Y-115643063D01*
X79435373Y-115630792D01*
X79411795Y-115608997D01*
X79408229Y-115605569D01*
X79273941Y-115471281D01*
X79129685Y-115327026D01*
X79117183Y-115311546D01*
X79114244Y-115308316D01*
X79108594Y-115299566D01*
X79084331Y-115280439D01*
X79080336Y-115276888D01*
X79080251Y-115276988D01*
X79076294Y-115273635D01*
X79072613Y-115269954D01*
X79065948Y-115265191D01*
X79050112Y-115251773D01*
X78877405Y-115079067D01*
X78843380Y-115016755D01*
X78840500Y-114989971D01*
X78840500Y-110390752D01*
X78860502Y-110322631D01*
X78873085Y-110306196D01*
X78902526Y-110273670D01*
X78908551Y-110267014D01*
X78971560Y-110136962D01*
X78995536Y-109994453D01*
X78995688Y-109982000D01*
X78975201Y-109838948D01*
X78915388Y-109707395D01*
X78909530Y-109700596D01*
X78909527Y-109700592D01*
X78826916Y-109604718D01*
X78826913Y-109604716D01*
X78821056Y-109597918D01*
X78699790Y-109519317D01*
X78644465Y-109502771D01*
X78569938Y-109480482D01*
X78569936Y-109480482D01*
X78561337Y-109477910D01*
X78552363Y-109477855D01*
X78552361Y-109477855D01*
X78489082Y-109477469D01*
X78416827Y-109477028D01*
X78408196Y-109479495D01*
X78408194Y-109479495D01*
X78286509Y-109514272D01*
X78286505Y-109514274D01*
X78277879Y-109516739D01*
X78270292Y-109521526D01*
X78270290Y-109521527D01*
X78174141Y-109582193D01*
X78155661Y-109593853D01*
X78149718Y-109600582D01*
X78149717Y-109600583D01*
X78146984Y-109603678D01*
X78059999Y-109702170D01*
X77998583Y-109832982D01*
X77997203Y-109841846D01*
X77997202Y-109841849D01*
X77983240Y-109931524D01*
X77976350Y-109975773D01*
X77977514Y-109984675D01*
X77977514Y-109984678D01*
X77992230Y-110097209D01*
X77981230Y-110167348D01*
X77934056Y-110220406D01*
X77866525Y-110239545D01*
X77781827Y-110239028D01*
X77773196Y-110241495D01*
X77773194Y-110241495D01*
X77651509Y-110276272D01*
X77651505Y-110276274D01*
X77642879Y-110278739D01*
X77635292Y-110283526D01*
X77635290Y-110283527D01*
X77528254Y-110351062D01*
X77520661Y-110355853D01*
X77514718Y-110362582D01*
X77514717Y-110362583D01*
X77493548Y-110386553D01*
X77424999Y-110464170D01*
X77363583Y-110594982D01*
X77362203Y-110603846D01*
X77362202Y-110603849D01*
X77345352Y-110712073D01*
X77341350Y-110737773D01*
X77342514Y-110746675D01*
X77342514Y-110746678D01*
X77357230Y-110859209D01*
X77346230Y-110929348D01*
X77299056Y-110982406D01*
X77231525Y-111001545D01*
X77146827Y-111001028D01*
X77096123Y-111015519D01*
X77025130Y-111015007D01*
X76965682Y-110976193D01*
X76936656Y-110911401D01*
X76935500Y-110894370D01*
X76935500Y-109247752D01*
X76955502Y-109179631D01*
X76968085Y-109163196D01*
X76997526Y-109130670D01*
X77003551Y-109124014D01*
X77066560Y-108993962D01*
X77090536Y-108851453D01*
X77090688Y-108839000D01*
X77070201Y-108695948D01*
X77010388Y-108564395D01*
X77004530Y-108557596D01*
X77004527Y-108557592D01*
X76921916Y-108461718D01*
X76921913Y-108461716D01*
X76916056Y-108454918D01*
X76794790Y-108376317D01*
X76777921Y-108371272D01*
X76664938Y-108337482D01*
X76664936Y-108337482D01*
X76656337Y-108334910D01*
X76647363Y-108334855D01*
X76647361Y-108334855D01*
X76584082Y-108334469D01*
X76511827Y-108334028D01*
X76503196Y-108336495D01*
X76503194Y-108336495D01*
X76381509Y-108371272D01*
X76381505Y-108371274D01*
X76372879Y-108373739D01*
X76250661Y-108450853D01*
X76154999Y-108559170D01*
X76093583Y-108689982D01*
X76071350Y-108832773D01*
X76072514Y-108841675D01*
X76072514Y-108841678D01*
X76087230Y-108954209D01*
X76076230Y-109024348D01*
X76029056Y-109077406D01*
X75961525Y-109096545D01*
X75876827Y-109096028D01*
X75868196Y-109098495D01*
X75868194Y-109098495D01*
X75746509Y-109133272D01*
X75746505Y-109133274D01*
X75737879Y-109135739D01*
X75730292Y-109140526D01*
X75730290Y-109140527D01*
X75623254Y-109208062D01*
X75615661Y-109212853D01*
X75519999Y-109321170D01*
X75458583Y-109451982D01*
X75457203Y-109460846D01*
X75457202Y-109460849D01*
X75438309Y-109582193D01*
X75436350Y-109594773D01*
X75437514Y-109603675D01*
X75437514Y-109603678D01*
X75452146Y-109715569D01*
X75455088Y-109738065D01*
X75513289Y-109870339D01*
X75519063Y-109877208D01*
X75561951Y-109928229D01*
X75590472Y-109993245D01*
X75591500Y-110009305D01*
X75591500Y-112292705D01*
X75571498Y-112360826D01*
X75554596Y-112381800D01*
X75078058Y-112858339D01*
X75062578Y-112870841D01*
X75059348Y-112873780D01*
X75050598Y-112879430D01*
X75031471Y-112903693D01*
X75027921Y-112907688D01*
X75028020Y-112907772D01*
X75024662Y-112911735D01*
X75020986Y-112915411D01*
X75017963Y-112919640D01*
X75017963Y-112919641D01*
X75010626Y-112929907D01*
X75007065Y-112934650D01*
X74983983Y-112963930D01*
X74983981Y-112963934D01*
X74977534Y-112972112D01*
X74974701Y-112980180D01*
X74969727Y-112987140D01*
X74966743Y-112997118D01*
X74956060Y-113032841D01*
X74954224Y-113038490D01*
X74938430Y-113083463D01*
X74937980Y-113088659D01*
X74937980Y-113091364D01*
X74937883Y-113093620D01*
X74937740Y-113094096D01*
X74937694Y-113094094D01*
X74937681Y-113094293D01*
X74935912Y-113100210D01*
X74936321Y-113110614D01*
X74937883Y-113150379D01*
X74937980Y-113155325D01*
X74937980Y-116423452D01*
X74917978Y-116491573D01*
X74864322Y-116538066D01*
X74794048Y-116548170D01*
X74729468Y-116518676D01*
X74722885Y-116512547D01*
X74367894Y-116157556D01*
X74333868Y-116095244D01*
X74330989Y-116068461D01*
X74330989Y-106413489D01*
X74350991Y-106345368D01*
X74404647Y-106298875D01*
X74474921Y-106288771D01*
X74488962Y-106291613D01*
X74579171Y-106315279D01*
X74579175Y-106315280D01*
X74586522Y-106317207D01*
X74645553Y-106318134D01*
X74708853Y-106319129D01*
X74776652Y-106340198D01*
X74795969Y-106356018D01*
X75311788Y-106871837D01*
X75331671Y-106881968D01*
X75348524Y-106892295D01*
X75366582Y-106905416D01*
X75384608Y-106911273D01*
X75387806Y-106912312D01*
X75406072Y-106919877D01*
X75425956Y-106930009D01*
X75435749Y-106931560D01*
X75447998Y-106933500D01*
X75467224Y-106938116D01*
X75479011Y-106941946D01*
X75479013Y-106941946D01*
X75488445Y-106945011D01*
X90274831Y-106945011D01*
X90342952Y-106965013D01*
X90389445Y-107018669D01*
X90400070Y-107057184D01*
X90417113Y-107211553D01*
X90471553Y-107360319D01*
X90559908Y-107491805D01*
X90565527Y-107496918D01*
X90565528Y-107496919D01*
X90576903Y-107507269D01*
X90677076Y-107598419D01*
X90816293Y-107674008D01*
X90969522Y-107714207D01*
X91053477Y-107715526D01*
X91120319Y-107716576D01*
X91120322Y-107716576D01*
X91127916Y-107716695D01*
X91282332Y-107681329D01*
X91352742Y-107645917D01*
X91417072Y-107613563D01*
X91417075Y-107613561D01*
X91423855Y-107610151D01*
X91429626Y-107605222D01*
X91429629Y-107605220D01*
X91538536Y-107512204D01*
X91538536Y-107512203D01*
X91544314Y-107507269D01*
X91636755Y-107378624D01*
X91695842Y-107231641D01*
X91718162Y-107074807D01*
X91718307Y-107061000D01*
X91699276Y-106903733D01*
X91643280Y-106755546D01*
X91553553Y-106624992D01*
X91435275Y-106519611D01*
X91295274Y-106445484D01*
X91141633Y-106406892D01*
X91134034Y-106406852D01*
X91134033Y-106406852D01*
X91038292Y-106406351D01*
X91027878Y-106406296D01*
X90959863Y-106385938D01*
X90939443Y-106369393D01*
X90802026Y-106231976D01*
X90802022Y-106231973D01*
X90779234Y-106209185D01*
X90759355Y-106199056D01*
X90742500Y-106188727D01*
X90732464Y-106181436D01*
X90724440Y-106175606D01*
X90703215Y-106168710D01*
X90684949Y-106161144D01*
X90665066Y-106151013D01*
X90643024Y-106147522D01*
X90623798Y-106142906D01*
X90612011Y-106139076D01*
X90612009Y-106139076D01*
X90602577Y-106136011D01*
X78445538Y-106136011D01*
X78377417Y-106116009D01*
X78330924Y-106062353D01*
X78320820Y-105992079D01*
X78332145Y-105955075D01*
X78332645Y-105954044D01*
X78332646Y-105954040D01*
X78336560Y-105945962D01*
X78360536Y-105803453D01*
X78360688Y-105791000D01*
X78361420Y-105791009D01*
X78376099Y-105725558D01*
X78426622Y-105675679D01*
X78488604Y-105660673D01*
X78548998Y-105661780D01*
X78599734Y-105647948D01*
X78679763Y-105626130D01*
X78679765Y-105626129D01*
X78688422Y-105623769D01*
X78811572Y-105548154D01*
X78908551Y-105441014D01*
X78971560Y-105310962D01*
X78993032Y-105183338D01*
X79028191Y-105115148D01*
X84068041Y-100075298D01*
X84130353Y-100041272D01*
X84139056Y-100039697D01*
X84327231Y-100012413D01*
X84327236Y-100012412D01*
X84332945Y-100011584D01*
X84338409Y-100009729D01*
X84338414Y-100009728D01*
X84519693Y-99948192D01*
X84519698Y-99948190D01*
X84525165Y-99946334D01*
X84531019Y-99943056D01*
X84628499Y-99888464D01*
X84702276Y-99847147D01*
X84707288Y-99842979D01*
X84853913Y-99721031D01*
X84858345Y-99717345D01*
X84927036Y-99634754D01*
X84984453Y-99565718D01*
X84984455Y-99565715D01*
X84988147Y-99561276D01*
X85065941Y-99422365D01*
X85084510Y-99389208D01*
X85084511Y-99389206D01*
X85087334Y-99384165D01*
X85089190Y-99378698D01*
X85089192Y-99378693D01*
X85150728Y-99197414D01*
X85150729Y-99197409D01*
X85152584Y-99191945D01*
X85153412Y-99186236D01*
X85153413Y-99186231D01*
X85181179Y-98994727D01*
X85181712Y-98991053D01*
X85183232Y-98933000D01*
X85171298Y-98803124D01*
X85165187Y-98736613D01*
X85165186Y-98736610D01*
X85164658Y-98730859D01*
X85158271Y-98708211D01*
X85111125Y-98541046D01*
X85111124Y-98541044D01*
X85109557Y-98535487D01*
X85099076Y-98514232D01*
X85022331Y-98358609D01*
X85019776Y-98353428D01*
X84898320Y-98190779D01*
X84749258Y-98052987D01*
X84744375Y-98049906D01*
X84744371Y-98049903D01*
X84598728Y-97958010D01*
X84577581Y-97944667D01*
X84389039Y-97869446D01*
X84383379Y-97868320D01*
X84383375Y-97868319D01*
X84195613Y-97830971D01*
X84195610Y-97830971D01*
X84189946Y-97829844D01*
X84184171Y-97829768D01*
X84184167Y-97829768D01*
X84082793Y-97828441D01*
X83986971Y-97827187D01*
X83981274Y-97828166D01*
X83981273Y-97828166D01*
X83840264Y-97852396D01*
X83786910Y-97861564D01*
X83596463Y-97931824D01*
X83422010Y-98035612D01*
X83417670Y-98039418D01*
X83417666Y-98039421D01*
X83331499Y-98114988D01*
X83269392Y-98169455D01*
X83265817Y-98173990D01*
X83265814Y-98173993D01*
X83262962Y-98177611D01*
X83205082Y-98218725D01*
X83134162Y-98222020D01*
X83072719Y-98186450D01*
X83040260Y-98123308D01*
X83038011Y-98099607D01*
X83038011Y-97593768D01*
X83040117Y-97573974D01*
X83040322Y-97569621D01*
X83042514Y-97559441D01*
X83038884Y-97528771D01*
X83038569Y-97523428D01*
X83038439Y-97523439D01*
X83038011Y-97518259D01*
X83038011Y-97513060D01*
X83037158Y-97507936D01*
X83037157Y-97507923D01*
X83035084Y-97495470D01*
X83034247Y-97489595D01*
X83029866Y-97452582D01*
X83028642Y-97442241D01*
X83024941Y-97434533D01*
X83023536Y-97426094D01*
X83000882Y-97384110D01*
X82998201Y-97378847D01*
X82980986Y-97342997D01*
X82977556Y-97335853D01*
X82974200Y-97331861D01*
X82972253Y-97329914D01*
X82970763Y-97328289D01*
X82970530Y-97327857D01*
X82970566Y-97327824D01*
X82970427Y-97327666D01*
X82967494Y-97322231D01*
X82954233Y-97309972D01*
X82930630Y-97288154D01*
X82927064Y-97284725D01*
X82587321Y-96944982D01*
X82553295Y-96882670D01*
X82557103Y-96815387D01*
X82612584Y-96651945D01*
X82613412Y-96646236D01*
X82613413Y-96646231D01*
X82641179Y-96454727D01*
X82641712Y-96451053D01*
X82643232Y-96393000D01*
X82631562Y-96266000D01*
X82625187Y-96196613D01*
X82625186Y-96196610D01*
X82624658Y-96190859D01*
X82618271Y-96168211D01*
X82571125Y-96001046D01*
X82571124Y-96001044D01*
X82569557Y-95995487D01*
X82559076Y-95974232D01*
X82482331Y-95818609D01*
X82479776Y-95813428D01*
X82358320Y-95650779D01*
X82209258Y-95512987D01*
X82161036Y-95482561D01*
X82114098Y-95429296D01*
X82103409Y-95359108D01*
X82132363Y-95294284D01*
X82191768Y-95255404D01*
X82228272Y-95250000D01*
X83376626Y-95250000D01*
X83444747Y-95270002D01*
X83491240Y-95323658D01*
X83501344Y-95393932D01*
X83471850Y-95458512D01*
X83441049Y-95484285D01*
X83426978Y-95492656D01*
X83426975Y-95492658D01*
X83422010Y-95495612D01*
X83417670Y-95499418D01*
X83417666Y-95499421D01*
X83273733Y-95625648D01*
X83269392Y-95629455D01*
X83143720Y-95788869D01*
X83141031Y-95793980D01*
X83141029Y-95793983D01*
X83128073Y-95818609D01*
X83049203Y-95968515D01*
X82989007Y-96162378D01*
X82965148Y-96363964D01*
X82978424Y-96566522D01*
X82979845Y-96572118D01*
X82979846Y-96572123D01*
X83000119Y-96651945D01*
X83028392Y-96763269D01*
X83030809Y-96768512D01*
X83087826Y-96892192D01*
X83113377Y-96947616D01*
X83230533Y-97113389D01*
X83375938Y-97255035D01*
X83544720Y-97367812D01*
X83550023Y-97370090D01*
X83550026Y-97370092D01*
X83719073Y-97442720D01*
X83731228Y-97447942D01*
X83799923Y-97463486D01*
X83923579Y-97491467D01*
X83923584Y-97491468D01*
X83929216Y-97492742D01*
X83934987Y-97492969D01*
X83934989Y-97492969D01*
X83994756Y-97495317D01*
X84132053Y-97500712D01*
X84236272Y-97485601D01*
X84327231Y-97472413D01*
X84327236Y-97472412D01*
X84332945Y-97471584D01*
X84338409Y-97469729D01*
X84338414Y-97469728D01*
X84519693Y-97408192D01*
X84519698Y-97408190D01*
X84525165Y-97406334D01*
X84531019Y-97403056D01*
X84639504Y-97342301D01*
X84702276Y-97307147D01*
X84725113Y-97288154D01*
X84853913Y-97181031D01*
X84858345Y-97177345D01*
X84950222Y-97066876D01*
X84984453Y-97025718D01*
X84984455Y-97025715D01*
X84988147Y-97021276D01*
X85087334Y-96844165D01*
X85089190Y-96838698D01*
X85089192Y-96838693D01*
X85150728Y-96657414D01*
X85150729Y-96657409D01*
X85152584Y-96651945D01*
X85153412Y-96646236D01*
X85153413Y-96646231D01*
X85181179Y-96454727D01*
X85181712Y-96451053D01*
X85183232Y-96393000D01*
X85171562Y-96266000D01*
X85165187Y-96196613D01*
X85165186Y-96196610D01*
X85164658Y-96190859D01*
X85158271Y-96168211D01*
X85111125Y-96001046D01*
X85111124Y-96001044D01*
X85109557Y-95995487D01*
X85099076Y-95974232D01*
X85022331Y-95818609D01*
X85019776Y-95813428D01*
X84898320Y-95650779D01*
X84749258Y-95512987D01*
X84701036Y-95482561D01*
X84654098Y-95429296D01*
X84643409Y-95359108D01*
X84672363Y-95294284D01*
X84731768Y-95255404D01*
X84768272Y-95250000D01*
X85916626Y-95250000D01*
X85984747Y-95270002D01*
X86031240Y-95323658D01*
X86041344Y-95393932D01*
X86011850Y-95458512D01*
X85981049Y-95484285D01*
X85966978Y-95492656D01*
X85966975Y-95492658D01*
X85962010Y-95495612D01*
X85957670Y-95499418D01*
X85957666Y-95499421D01*
X85813733Y-95625648D01*
X85809392Y-95629455D01*
X85683720Y-95788869D01*
X85681031Y-95793980D01*
X85681029Y-95793983D01*
X85668073Y-95818609D01*
X85589203Y-95968515D01*
X85529007Y-96162378D01*
X85505148Y-96363964D01*
X85518424Y-96566522D01*
X85519845Y-96572118D01*
X85519846Y-96572123D01*
X85540119Y-96651945D01*
X85568392Y-96763269D01*
X85570809Y-96768512D01*
X85627826Y-96892192D01*
X85653377Y-96947616D01*
X85770533Y-97113389D01*
X85915938Y-97255035D01*
X86084720Y-97367812D01*
X86090023Y-97370090D01*
X86090026Y-97370092D01*
X86259073Y-97442720D01*
X86271228Y-97447942D01*
X86339923Y-97463486D01*
X86463579Y-97491467D01*
X86463584Y-97491468D01*
X86469216Y-97492742D01*
X86474987Y-97492969D01*
X86474989Y-97492969D01*
X86534756Y-97495317D01*
X86672053Y-97500712D01*
X86776272Y-97485601D01*
X86867231Y-97472413D01*
X86867236Y-97472412D01*
X86872945Y-97471584D01*
X86878409Y-97469729D01*
X86878414Y-97469728D01*
X87059693Y-97408192D01*
X87059698Y-97408190D01*
X87065165Y-97406334D01*
X87071019Y-97403056D01*
X87179504Y-97342301D01*
X87242276Y-97307147D01*
X87265113Y-97288154D01*
X87393913Y-97181031D01*
X87398345Y-97177345D01*
X87490222Y-97066876D01*
X87524453Y-97025718D01*
X87524455Y-97025715D01*
X87528147Y-97021276D01*
X87627334Y-96844165D01*
X87629190Y-96838698D01*
X87629192Y-96838693D01*
X87690728Y-96657414D01*
X87690729Y-96657409D01*
X87692584Y-96651945D01*
X87693412Y-96646236D01*
X87693413Y-96646231D01*
X87721179Y-96454727D01*
X87721712Y-96451053D01*
X87723232Y-96393000D01*
X87711562Y-96266000D01*
X87705187Y-96196613D01*
X87705186Y-96196610D01*
X87704658Y-96190859D01*
X87698271Y-96168211D01*
X87651125Y-96001046D01*
X87651124Y-96001044D01*
X87649557Y-95995487D01*
X87639076Y-95974232D01*
X87562331Y-95818609D01*
X87559776Y-95813428D01*
X87438320Y-95650779D01*
X87289258Y-95512987D01*
X87241036Y-95482561D01*
X87194098Y-95429296D01*
X87183409Y-95359108D01*
X87212363Y-95294284D01*
X87271768Y-95255404D01*
X87308272Y-95250000D01*
X88456626Y-95250000D01*
X88524747Y-95270002D01*
X88571240Y-95323658D01*
X88581344Y-95393932D01*
X88551850Y-95458512D01*
X88521049Y-95484285D01*
X88506978Y-95492656D01*
X88506975Y-95492658D01*
X88502010Y-95495612D01*
X88497670Y-95499418D01*
X88497666Y-95499421D01*
X88353733Y-95625648D01*
X88349392Y-95629455D01*
X88223720Y-95788869D01*
X88221031Y-95793980D01*
X88221029Y-95793983D01*
X88208073Y-95818609D01*
X88129203Y-95968515D01*
X88069007Y-96162378D01*
X88045148Y-96363964D01*
X88058424Y-96566522D01*
X88059845Y-96572118D01*
X88059846Y-96572123D01*
X88080119Y-96651945D01*
X88108392Y-96763269D01*
X88110809Y-96768512D01*
X88167826Y-96892192D01*
X88193377Y-96947616D01*
X88310533Y-97113389D01*
X88455938Y-97255035D01*
X88624720Y-97367812D01*
X88630023Y-97370090D01*
X88630026Y-97370092D01*
X88799073Y-97442720D01*
X88811228Y-97447942D01*
X88879923Y-97463486D01*
X89003579Y-97491467D01*
X89003584Y-97491468D01*
X89009216Y-97492742D01*
X89014987Y-97492969D01*
X89014989Y-97492969D01*
X89074756Y-97495317D01*
X89212053Y-97500712D01*
X89316272Y-97485601D01*
X89407231Y-97472413D01*
X89407236Y-97472412D01*
X89412945Y-97471584D01*
X89418409Y-97469729D01*
X89418414Y-97469728D01*
X89599693Y-97408192D01*
X89599698Y-97408190D01*
X89605165Y-97406334D01*
X89611019Y-97403056D01*
X89719504Y-97342301D01*
X89782276Y-97307147D01*
X89805113Y-97288154D01*
X89933913Y-97181031D01*
X89938345Y-97177345D01*
X90030222Y-97066876D01*
X90064453Y-97025718D01*
X90064455Y-97025715D01*
X90068147Y-97021276D01*
X90167334Y-96844165D01*
X90169190Y-96838698D01*
X90169192Y-96838693D01*
X90230728Y-96657414D01*
X90230729Y-96657409D01*
X90232584Y-96651945D01*
X90233412Y-96646236D01*
X90233413Y-96646231D01*
X90261179Y-96454727D01*
X90261712Y-96451053D01*
X90263232Y-96393000D01*
X90251562Y-96266000D01*
X90245187Y-96196613D01*
X90245186Y-96196610D01*
X90244658Y-96190859D01*
X90238271Y-96168211D01*
X90191125Y-96001046D01*
X90191124Y-96001044D01*
X90189557Y-95995487D01*
X90179076Y-95974232D01*
X90102331Y-95818609D01*
X90099776Y-95813428D01*
X89978320Y-95650779D01*
X89829258Y-95512987D01*
X89781036Y-95482561D01*
X89734098Y-95429296D01*
X89723409Y-95359108D01*
X89752363Y-95294284D01*
X89811768Y-95255404D01*
X89848272Y-95250000D01*
X90996626Y-95250000D01*
X91064747Y-95270002D01*
X91111240Y-95323658D01*
X91121344Y-95393932D01*
X91091850Y-95458512D01*
X91061049Y-95484285D01*
X91046978Y-95492656D01*
X91046975Y-95492658D01*
X91042010Y-95495612D01*
X91037670Y-95499418D01*
X91037666Y-95499421D01*
X90893733Y-95625648D01*
X90889392Y-95629455D01*
X90763720Y-95788869D01*
X90761031Y-95793980D01*
X90761029Y-95793983D01*
X90748073Y-95818609D01*
X90669203Y-95968515D01*
X90609007Y-96162378D01*
X90585148Y-96363964D01*
X90598424Y-96566522D01*
X90599845Y-96572118D01*
X90599846Y-96572123D01*
X90620119Y-96651945D01*
X90648392Y-96763269D01*
X90650809Y-96768512D01*
X90707826Y-96892192D01*
X90733377Y-96947616D01*
X90850533Y-97113389D01*
X90995938Y-97255035D01*
X91164720Y-97367812D01*
X91170023Y-97370090D01*
X91170026Y-97370092D01*
X91339073Y-97442720D01*
X91351228Y-97447942D01*
X91419923Y-97463486D01*
X91543579Y-97491467D01*
X91543584Y-97491468D01*
X91549216Y-97492742D01*
X91554987Y-97492969D01*
X91554989Y-97492969D01*
X91614756Y-97495317D01*
X91752053Y-97500712D01*
X91856272Y-97485601D01*
X91947231Y-97472413D01*
X91947236Y-97472412D01*
X91952945Y-97471584D01*
X91958409Y-97469729D01*
X91958414Y-97469728D01*
X92139693Y-97408192D01*
X92139698Y-97408190D01*
X92145165Y-97406334D01*
X92151019Y-97403056D01*
X92259504Y-97342301D01*
X92322276Y-97307147D01*
X92345113Y-97288154D01*
X92473913Y-97181031D01*
X92478345Y-97177345D01*
X92570222Y-97066876D01*
X92604453Y-97025718D01*
X92604455Y-97025715D01*
X92608147Y-97021276D01*
X92707334Y-96844165D01*
X92709190Y-96838698D01*
X92709192Y-96838693D01*
X92770728Y-96657414D01*
X92770729Y-96657409D01*
X92772584Y-96651945D01*
X92773412Y-96646236D01*
X92773413Y-96646231D01*
X92801179Y-96454727D01*
X92801712Y-96451053D01*
X92803232Y-96393000D01*
X92791562Y-96266000D01*
X92785187Y-96196613D01*
X92785186Y-96196610D01*
X92784658Y-96190859D01*
X92778271Y-96168211D01*
X92731125Y-96001046D01*
X92731124Y-96001044D01*
X92729557Y-95995487D01*
X92719076Y-95974232D01*
X92642331Y-95818609D01*
X92639776Y-95813428D01*
X92518320Y-95650779D01*
X92369258Y-95512987D01*
X92321036Y-95482561D01*
X92274098Y-95429296D01*
X92263409Y-95359108D01*
X92292363Y-95294284D01*
X92351768Y-95255404D01*
X92388272Y-95250000D01*
X93536626Y-95250000D01*
X93604747Y-95270002D01*
X93651240Y-95323658D01*
X93661344Y-95393932D01*
X93631850Y-95458512D01*
X93601049Y-95484285D01*
X93586978Y-95492656D01*
X93586975Y-95492658D01*
X93582010Y-95495612D01*
X93577670Y-95499418D01*
X93577666Y-95499421D01*
X93433733Y-95625648D01*
X93429392Y-95629455D01*
X93303720Y-95788869D01*
X93301031Y-95793980D01*
X93301029Y-95793983D01*
X93288073Y-95818609D01*
X93209203Y-95968515D01*
X93149007Y-96162378D01*
X93125148Y-96363964D01*
X93138424Y-96566522D01*
X93139845Y-96572118D01*
X93139846Y-96572123D01*
X93160119Y-96651945D01*
X93188392Y-96763269D01*
X93190809Y-96768512D01*
X93247826Y-96892192D01*
X93273377Y-96947616D01*
X93390533Y-97113389D01*
X93535938Y-97255035D01*
X93704720Y-97367812D01*
X93710023Y-97370090D01*
X93710026Y-97370092D01*
X93879073Y-97442720D01*
X93891228Y-97447942D01*
X93959923Y-97463486D01*
X94083579Y-97491467D01*
X94083584Y-97491468D01*
X94089216Y-97492742D01*
X94094987Y-97492969D01*
X94094989Y-97492969D01*
X94154756Y-97495317D01*
X94292053Y-97500712D01*
X94396272Y-97485601D01*
X94487231Y-97472413D01*
X94487236Y-97472412D01*
X94492945Y-97471584D01*
X94498409Y-97469729D01*
X94498414Y-97469728D01*
X94679693Y-97408192D01*
X94679698Y-97408190D01*
X94685165Y-97406334D01*
X94691019Y-97403056D01*
X94799504Y-97342301D01*
X94862276Y-97307147D01*
X94885113Y-97288154D01*
X95013913Y-97181031D01*
X95018345Y-97177345D01*
X95110222Y-97066876D01*
X95144453Y-97025718D01*
X95144455Y-97025715D01*
X95148147Y-97021276D01*
X95247334Y-96844165D01*
X95249190Y-96838698D01*
X95249192Y-96838693D01*
X95310728Y-96657414D01*
X95310729Y-96657409D01*
X95312584Y-96651945D01*
X95313412Y-96646236D01*
X95313413Y-96646231D01*
X95341179Y-96454727D01*
X95341712Y-96451053D01*
X95343232Y-96393000D01*
X95331562Y-96266000D01*
X95325187Y-96196613D01*
X95325186Y-96196610D01*
X95324658Y-96190859D01*
X95318271Y-96168211D01*
X95271125Y-96001046D01*
X95271124Y-96001044D01*
X95269557Y-95995487D01*
X95259076Y-95974232D01*
X95182331Y-95818609D01*
X95179776Y-95813428D01*
X95058320Y-95650779D01*
X94909258Y-95512987D01*
X94861036Y-95482561D01*
X94814098Y-95429296D01*
X94803409Y-95359108D01*
X94832363Y-95294284D01*
X94891768Y-95255404D01*
X94928272Y-95250000D01*
X96076626Y-95250000D01*
X96144747Y-95270002D01*
X96191240Y-95323658D01*
X96201344Y-95393932D01*
X96171850Y-95458512D01*
X96141049Y-95484285D01*
X96126978Y-95492656D01*
X96126975Y-95492658D01*
X96122010Y-95495612D01*
X96117670Y-95499418D01*
X96117666Y-95499421D01*
X95973733Y-95625648D01*
X95969392Y-95629455D01*
X95843720Y-95788869D01*
X95841031Y-95793980D01*
X95841029Y-95793983D01*
X95828073Y-95818609D01*
X95749203Y-95968515D01*
X95689007Y-96162378D01*
X95665148Y-96363964D01*
X95678424Y-96566522D01*
X95679845Y-96572118D01*
X95679846Y-96572123D01*
X95700119Y-96651945D01*
X95728392Y-96763269D01*
X95730809Y-96768512D01*
X95787826Y-96892192D01*
X95813377Y-96947616D01*
X95930533Y-97113389D01*
X96075938Y-97255035D01*
X96244720Y-97367812D01*
X96250023Y-97370090D01*
X96250026Y-97370092D01*
X96419073Y-97442720D01*
X96431228Y-97447942D01*
X96499923Y-97463486D01*
X96623579Y-97491467D01*
X96623584Y-97491468D01*
X96629216Y-97492742D01*
X96634987Y-97492969D01*
X96634989Y-97492969D01*
X96694756Y-97495317D01*
X96832053Y-97500712D01*
X96936272Y-97485601D01*
X97027231Y-97472413D01*
X97027236Y-97472412D01*
X97032945Y-97471584D01*
X97038409Y-97469729D01*
X97038414Y-97469728D01*
X97219693Y-97408192D01*
X97219698Y-97408190D01*
X97225165Y-97406334D01*
X97231019Y-97403056D01*
X97339504Y-97342301D01*
X97402276Y-97307147D01*
X97425113Y-97288154D01*
X97553913Y-97181031D01*
X97558345Y-97177345D01*
X97650222Y-97066876D01*
X97684453Y-97025718D01*
X97684455Y-97025715D01*
X97688147Y-97021276D01*
X97787334Y-96844165D01*
X97789190Y-96838698D01*
X97789192Y-96838693D01*
X97850728Y-96657414D01*
X97850729Y-96657409D01*
X97852584Y-96651945D01*
X97853412Y-96646236D01*
X97853413Y-96646231D01*
X97881179Y-96454727D01*
X97881712Y-96451053D01*
X97883232Y-96393000D01*
X97871562Y-96266000D01*
X97865187Y-96196613D01*
X97865186Y-96196610D01*
X97864658Y-96190859D01*
X97858271Y-96168211D01*
X97811125Y-96001046D01*
X97811124Y-96001044D01*
X97809557Y-95995487D01*
X97799076Y-95974232D01*
X97722331Y-95818609D01*
X97719776Y-95813428D01*
X97598320Y-95650779D01*
X97449258Y-95512987D01*
X97401036Y-95482561D01*
X97354098Y-95429296D01*
X97343409Y-95359108D01*
X97372363Y-95294284D01*
X97431768Y-95255404D01*
X97468272Y-95250000D01*
X98616626Y-95250000D01*
X98684747Y-95270002D01*
X98731240Y-95323658D01*
X98741344Y-95393932D01*
X98711850Y-95458512D01*
X98681049Y-95484285D01*
X98666978Y-95492656D01*
X98666975Y-95492658D01*
X98662010Y-95495612D01*
X98657670Y-95499418D01*
X98657666Y-95499421D01*
X98513733Y-95625648D01*
X98509392Y-95629455D01*
X98383720Y-95788869D01*
X98381031Y-95793980D01*
X98381029Y-95793983D01*
X98368073Y-95818609D01*
X98289203Y-95968515D01*
X98229007Y-96162378D01*
X98205148Y-96363964D01*
X98218424Y-96566522D01*
X98219845Y-96572118D01*
X98219846Y-96572123D01*
X98240119Y-96651945D01*
X98268392Y-96763269D01*
X98270809Y-96768512D01*
X98327826Y-96892192D01*
X98353377Y-96947616D01*
X98470533Y-97113389D01*
X98615938Y-97255035D01*
X98784720Y-97367812D01*
X98790023Y-97370090D01*
X98790026Y-97370092D01*
X98959073Y-97442720D01*
X98971228Y-97447942D01*
X99039923Y-97463486D01*
X99163579Y-97491467D01*
X99163584Y-97491468D01*
X99169216Y-97492742D01*
X99174987Y-97492969D01*
X99174989Y-97492969D01*
X99234756Y-97495317D01*
X99372053Y-97500712D01*
X99476272Y-97485601D01*
X99567231Y-97472413D01*
X99567236Y-97472412D01*
X99572945Y-97471584D01*
X99578409Y-97469729D01*
X99578414Y-97469728D01*
X99759693Y-97408192D01*
X99759698Y-97408190D01*
X99765165Y-97406334D01*
X99771019Y-97403056D01*
X99879504Y-97342301D01*
X99942276Y-97307147D01*
X99965113Y-97288154D01*
X100093913Y-97181031D01*
X100098345Y-97177345D01*
X100190222Y-97066876D01*
X100224453Y-97025718D01*
X100224455Y-97025715D01*
X100228147Y-97021276D01*
X100327334Y-96844165D01*
X100329190Y-96838698D01*
X100329192Y-96838693D01*
X100390728Y-96657414D01*
X100390729Y-96657409D01*
X100392584Y-96651945D01*
X100393412Y-96646236D01*
X100393413Y-96646231D01*
X100421179Y-96454727D01*
X100421712Y-96451053D01*
X100423232Y-96393000D01*
X100411562Y-96266000D01*
X100405187Y-96196613D01*
X100405186Y-96196610D01*
X100404658Y-96190859D01*
X100398271Y-96168211D01*
X100351125Y-96001046D01*
X100351124Y-96001044D01*
X100349557Y-95995487D01*
X100339076Y-95974232D01*
X100262331Y-95818609D01*
X100259776Y-95813428D01*
X100138320Y-95650779D01*
X99989258Y-95512987D01*
X99941036Y-95482561D01*
X99894098Y-95429296D01*
X99883409Y-95359108D01*
X99912363Y-95294284D01*
X99971768Y-95255404D01*
X100008272Y-95250000D01*
X101156626Y-95250000D01*
X101224747Y-95270002D01*
X101271240Y-95323658D01*
X101281344Y-95393932D01*
X101251850Y-95458512D01*
X101221049Y-95484285D01*
X101206978Y-95492656D01*
X101206975Y-95492658D01*
X101202010Y-95495612D01*
X101197670Y-95499418D01*
X101197666Y-95499421D01*
X101053733Y-95625648D01*
X101049392Y-95629455D01*
X100923720Y-95788869D01*
X100921031Y-95793980D01*
X100921029Y-95793983D01*
X100908073Y-95818609D01*
X100829203Y-95968515D01*
X100769007Y-96162378D01*
X100745148Y-96363964D01*
X100758424Y-96566522D01*
X100759845Y-96572118D01*
X100759846Y-96572123D01*
X100780119Y-96651945D01*
X100808392Y-96763269D01*
X100810809Y-96768512D01*
X100867826Y-96892192D01*
X100893377Y-96947616D01*
X101010533Y-97113389D01*
X101155938Y-97255035D01*
X101324720Y-97367812D01*
X101330023Y-97370090D01*
X101330026Y-97370092D01*
X101499073Y-97442720D01*
X101511228Y-97447942D01*
X101579923Y-97463486D01*
X101703579Y-97491467D01*
X101703584Y-97491468D01*
X101709216Y-97492742D01*
X101714987Y-97492969D01*
X101714989Y-97492969D01*
X101774756Y-97495317D01*
X101912053Y-97500712D01*
X102016272Y-97485601D01*
X102107231Y-97472413D01*
X102107236Y-97472412D01*
X102112945Y-97471584D01*
X102118409Y-97469729D01*
X102118414Y-97469728D01*
X102299693Y-97408192D01*
X102299698Y-97408190D01*
X102305165Y-97406334D01*
X102311019Y-97403056D01*
X102419504Y-97342301D01*
X102482276Y-97307147D01*
X102505113Y-97288154D01*
X102633913Y-97181031D01*
X102638345Y-97177345D01*
X102730222Y-97066876D01*
X102764453Y-97025718D01*
X102764455Y-97025715D01*
X102768147Y-97021276D01*
X102867334Y-96844165D01*
X102869190Y-96838698D01*
X102869192Y-96838693D01*
X102930728Y-96657414D01*
X102930729Y-96657409D01*
X102932584Y-96651945D01*
X102933412Y-96646236D01*
X102933413Y-96646231D01*
X102961179Y-96454727D01*
X102961712Y-96451053D01*
X102963232Y-96393000D01*
X102951562Y-96266000D01*
X102945187Y-96196613D01*
X102945186Y-96196610D01*
X102944658Y-96190859D01*
X102938271Y-96168211D01*
X102891125Y-96001046D01*
X102891124Y-96001044D01*
X102889557Y-95995487D01*
X102879076Y-95974232D01*
X102802331Y-95818609D01*
X102799776Y-95813428D01*
X102678320Y-95650779D01*
X102529258Y-95512987D01*
X102481036Y-95482561D01*
X102434098Y-95429296D01*
X102423409Y-95359108D01*
X102452363Y-95294284D01*
X102511768Y-95255404D01*
X102548272Y-95250000D01*
X103696626Y-95250000D01*
X103764747Y-95270002D01*
X103811240Y-95323658D01*
X103821344Y-95393932D01*
X103791850Y-95458512D01*
X103761049Y-95484285D01*
X103746978Y-95492656D01*
X103746975Y-95492658D01*
X103742010Y-95495612D01*
X103737670Y-95499418D01*
X103737666Y-95499421D01*
X103593733Y-95625648D01*
X103589392Y-95629455D01*
X103463720Y-95788869D01*
X103461031Y-95793980D01*
X103461029Y-95793983D01*
X103448073Y-95818609D01*
X103369203Y-95968515D01*
X103309007Y-96162378D01*
X103285148Y-96363964D01*
X103298424Y-96566522D01*
X103299845Y-96572118D01*
X103299846Y-96572123D01*
X103320119Y-96651945D01*
X103348392Y-96763269D01*
X103350809Y-96768512D01*
X103407826Y-96892192D01*
X103433377Y-96947616D01*
X103550533Y-97113389D01*
X103695938Y-97255035D01*
X103864720Y-97367812D01*
X103870023Y-97370090D01*
X103870026Y-97370092D01*
X104039073Y-97442720D01*
X104051228Y-97447942D01*
X104119923Y-97463486D01*
X104243579Y-97491467D01*
X104243584Y-97491468D01*
X104249216Y-97492742D01*
X104254987Y-97492969D01*
X104254989Y-97492969D01*
X104314756Y-97495317D01*
X104452053Y-97500712D01*
X104556272Y-97485601D01*
X104647231Y-97472413D01*
X104647236Y-97472412D01*
X104652945Y-97471584D01*
X104658409Y-97469729D01*
X104658414Y-97469728D01*
X104839693Y-97408192D01*
X104839698Y-97408190D01*
X104845165Y-97406334D01*
X104851019Y-97403056D01*
X104959504Y-97342301D01*
X105022276Y-97307147D01*
X105045113Y-97288154D01*
X105173913Y-97181031D01*
X105178345Y-97177345D01*
X105270222Y-97066876D01*
X105304453Y-97025718D01*
X105304455Y-97025715D01*
X105308147Y-97021276D01*
X105407334Y-96844165D01*
X105409190Y-96838698D01*
X105409192Y-96838693D01*
X105470728Y-96657414D01*
X105470729Y-96657409D01*
X105472584Y-96651945D01*
X105473412Y-96646236D01*
X105473413Y-96646231D01*
X105501179Y-96454727D01*
X105501712Y-96451053D01*
X105503232Y-96393000D01*
X105491562Y-96266000D01*
X105485187Y-96196613D01*
X105485186Y-96196610D01*
X105484658Y-96190859D01*
X105478271Y-96168211D01*
X105431125Y-96001046D01*
X105431124Y-96001044D01*
X105429557Y-95995487D01*
X105419076Y-95974232D01*
X105342331Y-95818609D01*
X105339776Y-95813428D01*
X105218320Y-95650779D01*
X105069258Y-95512987D01*
X105021036Y-95482561D01*
X104974098Y-95429296D01*
X104963409Y-95359108D01*
X104992363Y-95294284D01*
X105051768Y-95255404D01*
X105088272Y-95250000D01*
X106236626Y-95250000D01*
X106304747Y-95270002D01*
X106351240Y-95323658D01*
X106361344Y-95393932D01*
X106331850Y-95458512D01*
X106301049Y-95484285D01*
X106286978Y-95492656D01*
X106286975Y-95492658D01*
X106282010Y-95495612D01*
X106277670Y-95499418D01*
X106277666Y-95499421D01*
X106133733Y-95625648D01*
X106129392Y-95629455D01*
X106003720Y-95788869D01*
X106001031Y-95793980D01*
X106001029Y-95793983D01*
X105988073Y-95818609D01*
X105909203Y-95968515D01*
X105849007Y-96162378D01*
X105825148Y-96363964D01*
X105838424Y-96566522D01*
X105839845Y-96572118D01*
X105839846Y-96572123D01*
X105860119Y-96651945D01*
X105888392Y-96763269D01*
X105890809Y-96768512D01*
X105947826Y-96892192D01*
X105973377Y-96947616D01*
X106090533Y-97113389D01*
X106235938Y-97255035D01*
X106404720Y-97367812D01*
X106410023Y-97370090D01*
X106410026Y-97370092D01*
X106579073Y-97442720D01*
X106591228Y-97447942D01*
X106659923Y-97463486D01*
X106783579Y-97491467D01*
X106783584Y-97491468D01*
X106789216Y-97492742D01*
X106794987Y-97492969D01*
X106794989Y-97492969D01*
X106854756Y-97495317D01*
X106992053Y-97500712D01*
X107096272Y-97485601D01*
X107187231Y-97472413D01*
X107187236Y-97472412D01*
X107192945Y-97471584D01*
X107198409Y-97469729D01*
X107198414Y-97469728D01*
X107303596Y-97434023D01*
X107374531Y-97431067D01*
X107433192Y-97464241D01*
X107692106Y-97723155D01*
X107726132Y-97785467D01*
X107729011Y-97812250D01*
X107729011Y-97900652D01*
X107709009Y-97968773D01*
X107655353Y-98015266D01*
X107585079Y-98025370D01*
X107535776Y-98007214D01*
X107442237Y-97948195D01*
X107431989Y-97942974D01*
X107254260Y-97872068D01*
X107243232Y-97868801D01*
X107078769Y-97836088D01*
X107065894Y-97837240D01*
X107061000Y-97852396D01*
X107061000Y-100012095D01*
X107064966Y-100025601D01*
X107078966Y-100027605D01*
X107187106Y-100011926D01*
X107198302Y-100009238D01*
X107379497Y-99947730D01*
X107389994Y-99943056D01*
X107541445Y-99858240D01*
X107610653Y-99842407D01*
X107677436Y-99866504D01*
X107720588Y-99922881D01*
X107729011Y-99968175D01*
X107729011Y-109197749D01*
X107709009Y-109265870D01*
X107692106Y-109286844D01*
X107434239Y-109544711D01*
X107371927Y-109578737D01*
X107344487Y-109581614D01*
X107239221Y-109581062D01*
X107231841Y-109582834D01*
X107231839Y-109582834D01*
X107092563Y-109616271D01*
X107092560Y-109616272D01*
X107085184Y-109618043D01*
X106944414Y-109690700D01*
X106825039Y-109794838D01*
X106733950Y-109924444D01*
X106676406Y-110072037D01*
X106675414Y-110079570D01*
X106675414Y-110079571D01*
X106665068Y-110158162D01*
X106655729Y-110229096D01*
X106663648Y-110300824D01*
X106670467Y-110362583D01*
X106673113Y-110386553D01*
X106675723Y-110393684D01*
X106675723Y-110393686D01*
X106704490Y-110472295D01*
X106727553Y-110535319D01*
X106731789Y-110541622D01*
X106731789Y-110541623D01*
X106802266Y-110646503D01*
X106815908Y-110666805D01*
X106821527Y-110671918D01*
X106821528Y-110671919D01*
X106865657Y-110712073D01*
X106933076Y-110773419D01*
X107072293Y-110849008D01*
X107225522Y-110889207D01*
X107309477Y-110890526D01*
X107376319Y-110891576D01*
X107376322Y-110891576D01*
X107383916Y-110891695D01*
X107538332Y-110856329D01*
X107641654Y-110804364D01*
X107673072Y-110788563D01*
X107673075Y-110788561D01*
X107679855Y-110785151D01*
X107685626Y-110780222D01*
X107685629Y-110780220D01*
X107794536Y-110687204D01*
X107794536Y-110687203D01*
X107800314Y-110682269D01*
X107892755Y-110553624D01*
X107951842Y-110406641D01*
X107966137Y-110306196D01*
X107973581Y-110253891D01*
X107973581Y-110253888D01*
X107974162Y-110249807D01*
X107974307Y-110236000D01*
X107973472Y-110229096D01*
X107972255Y-110219037D01*
X107983928Y-110149007D01*
X108008246Y-110114804D01*
X108442045Y-109681004D01*
X108464837Y-109658212D01*
X108474970Y-109638325D01*
X108485302Y-109621466D01*
X108492584Y-109611444D01*
X108492585Y-109611442D01*
X108498415Y-109603418D01*
X108501523Y-109593853D01*
X108505312Y-109582193D01*
X108512878Y-109563926D01*
X108518507Y-109552879D01*
X108523009Y-109544044D01*
X108526501Y-109521996D01*
X108531117Y-109502771D01*
X108534944Y-109490991D01*
X108538010Y-109481555D01*
X108538010Y-109449329D01*
X108538011Y-109449323D01*
X108538011Y-99861904D01*
X108558013Y-99793783D01*
X108611669Y-99747290D01*
X108681943Y-99737186D01*
X108746523Y-99766680D01*
X108751931Y-99771649D01*
X108775938Y-99795035D01*
X108863503Y-99853544D01*
X108909029Y-99908019D01*
X108919500Y-99958308D01*
X108919500Y-111224129D01*
X108899498Y-111292250D01*
X108882595Y-111313224D01*
X108844995Y-111350824D01*
X108785314Y-111384248D01*
X108743563Y-111394271D01*
X108743559Y-111394272D01*
X108736184Y-111396043D01*
X108595414Y-111468700D01*
X108476039Y-111572838D01*
X108384950Y-111702444D01*
X108382190Y-111709524D01*
X108340784Y-111815725D01*
X108327406Y-111850037D01*
X108326414Y-111857570D01*
X108326414Y-111857571D01*
X108324964Y-111868589D01*
X108306729Y-112007096D01*
X108324113Y-112164553D01*
X108326723Y-112171684D01*
X108326723Y-112171686D01*
X108334045Y-112191693D01*
X108378553Y-112313319D01*
X108466908Y-112444805D01*
X108472527Y-112449918D01*
X108472528Y-112449919D01*
X108483903Y-112460269D01*
X108584076Y-112551419D01*
X108723293Y-112627008D01*
X108876522Y-112667207D01*
X108960477Y-112668526D01*
X109027319Y-112669576D01*
X109027322Y-112669576D01*
X109034916Y-112669695D01*
X109189332Y-112634329D01*
X109259742Y-112598917D01*
X109324072Y-112566563D01*
X109324075Y-112566561D01*
X109330855Y-112563151D01*
X109336626Y-112558222D01*
X109336629Y-112558220D01*
X109445536Y-112465204D01*
X109445536Y-112465203D01*
X109451314Y-112460269D01*
X109543755Y-112331624D01*
X109602842Y-112184641D01*
X109602941Y-112183945D01*
X109633953Y-112130228D01*
X109855437Y-111908745D01*
X109859245Y-111905093D01*
X109898942Y-111868589D01*
X109905266Y-111862774D01*
X109928380Y-111825495D01*
X109935094Y-111815725D01*
X109956440Y-111787604D01*
X109956441Y-111787602D01*
X109961630Y-111780766D01*
X109967236Y-111766606D01*
X109977299Y-111746597D01*
X109985323Y-111733656D01*
X109997564Y-111691524D01*
X110001409Y-111680295D01*
X110014394Y-111647498D01*
X110014396Y-111647490D01*
X110017555Y-111639511D01*
X110019145Y-111624381D01*
X110023459Y-111602392D01*
X110025866Y-111594107D01*
X110027709Y-111587765D01*
X110028500Y-111576993D01*
X110028500Y-111541987D01*
X110029190Y-111528816D01*
X110032538Y-111496961D01*
X110033436Y-111488420D01*
X110030264Y-111469665D01*
X110028500Y-111448653D01*
X110028500Y-99962313D01*
X110048502Y-99894192D01*
X110092937Y-99852377D01*
X110097234Y-99849971D01*
X110097236Y-99849969D01*
X110102276Y-99847147D01*
X110258345Y-99717345D01*
X110262031Y-99712913D01*
X110262036Y-99712908D01*
X110267126Y-99706788D01*
X110326063Y-99667204D01*
X110397046Y-99665768D01*
X110457536Y-99702935D01*
X110488329Y-99766906D01*
X110490000Y-99787357D01*
X110490000Y-114686637D01*
X110469998Y-114754758D01*
X110416342Y-114801251D01*
X110346068Y-114811355D01*
X110318231Y-114804030D01*
X110184447Y-114751870D01*
X110169830Y-114748117D01*
X110051495Y-114732538D01*
X110043286Y-114732000D01*
X109746115Y-114732000D01*
X109730876Y-114736475D01*
X109729671Y-114737865D01*
X109728000Y-114745548D01*
X109728000Y-116121885D01*
X109732475Y-116137124D01*
X109733865Y-116138329D01*
X109741548Y-116140000D01*
X110039941Y-116140000D01*
X110047495Y-116139544D01*
X110162621Y-116125612D01*
X110177264Y-116122016D01*
X110319462Y-116068284D01*
X110390256Y-116062916D01*
X110452713Y-116096674D01*
X110487005Y-116158840D01*
X110490000Y-116186150D01*
X110490000Y-123336637D01*
X110469998Y-123404758D01*
X110416342Y-123451251D01*
X110346068Y-123461355D01*
X110318231Y-123454030D01*
X110184447Y-123401870D01*
X110169830Y-123398117D01*
X110051495Y-123382538D01*
X110043286Y-123382000D01*
X109746115Y-123382000D01*
X109730876Y-123386475D01*
X109729671Y-123387865D01*
X109728000Y-123395548D01*
X109728000Y-124771885D01*
X109732475Y-124787124D01*
X109733865Y-124788329D01*
X109741548Y-124790000D01*
X110039941Y-124790000D01*
X110047495Y-124789544D01*
X110162621Y-124775612D01*
X110177264Y-124772016D01*
X110319462Y-124718284D01*
X110390256Y-124712916D01*
X110452713Y-124746674D01*
X110487005Y-124808840D01*
X110490000Y-124836150D01*
X110490000Y-153403589D01*
X110487579Y-153428171D01*
X110475554Y-153488622D01*
X110456740Y-153534042D01*
X110429529Y-153574766D01*
X110394766Y-153609529D01*
X110354042Y-153636740D01*
X110308622Y-153655554D01*
X110248171Y-153667579D01*
X110223589Y-153670000D01*
X88912074Y-153670000D01*
X88843953Y-153649998D01*
X88838475Y-153643676D01*
X88787929Y-153668249D01*
X88766995Y-153670000D01*
X78829074Y-153670000D01*
X78760953Y-153649998D01*
X78755475Y-153643676D01*
X78704929Y-153668249D01*
X78683995Y-153670000D01*
X59956411Y-153670000D01*
X59931829Y-153667579D01*
X59871378Y-153655554D01*
X59825958Y-153636740D01*
X59785234Y-153609529D01*
X59750471Y-153574766D01*
X59723260Y-153534042D01*
X59704446Y-153488622D01*
X59692421Y-153428171D01*
X59690000Y-153403589D01*
X59690000Y-152385697D01*
X77740667Y-152385697D01*
X77757397Y-152584930D01*
X77812506Y-152777119D01*
X77815325Y-152782604D01*
X77901078Y-152949462D01*
X77901081Y-152949467D01*
X77903896Y-152954944D01*
X78028085Y-153111631D01*
X78180342Y-153241212D01*
X78185720Y-153244218D01*
X78185722Y-153244219D01*
X78227794Y-153267732D01*
X78354869Y-153338752D01*
X78545018Y-153400535D01*
X78672402Y-153415725D01*
X78698914Y-153418886D01*
X78759683Y-153444886D01*
X78793576Y-153423104D01*
X78819408Y-153418371D01*
X78936750Y-153409343D01*
X78936755Y-153409342D01*
X78942891Y-153408870D01*
X78948823Y-153407214D01*
X78948827Y-153407213D01*
X79039176Y-153381986D01*
X79135460Y-153355103D01*
X79313919Y-153264957D01*
X79344312Y-153241212D01*
X79466619Y-153145655D01*
X79471469Y-153141866D01*
X79602110Y-152990516D01*
X79700866Y-152816674D01*
X79763975Y-152626962D01*
X79789034Y-152428604D01*
X79789433Y-152400000D01*
X79769923Y-152201020D01*
X79712135Y-152009619D01*
X79618272Y-151833087D01*
X79529088Y-151723736D01*
X79495803Y-151682924D01*
X79495800Y-151682921D01*
X79491908Y-151678149D01*
X79485433Y-151672792D01*
X79430505Y-151627352D01*
X79337856Y-151550707D01*
X79161984Y-151455613D01*
X79066488Y-151426052D01*
X78976878Y-151398313D01*
X78976875Y-151398312D01*
X78970991Y-151396491D01*
X78964866Y-151395847D01*
X78964865Y-151395847D01*
X78778280Y-151376236D01*
X78778279Y-151376236D01*
X78772152Y-151375592D01*
X78689616Y-151383104D01*
X78579179Y-151393154D01*
X78579176Y-151393155D01*
X78573040Y-151393713D01*
X78567134Y-151395451D01*
X78567130Y-151395452D01*
X78498585Y-151415626D01*
X78381241Y-151450162D01*
X78204058Y-151542791D01*
X78048242Y-151668071D01*
X77919727Y-151821229D01*
X77916758Y-151826630D01*
X77916757Y-151826631D01*
X77826379Y-151991026D01*
X77826377Y-151991031D01*
X77823407Y-151996433D01*
X77821543Y-152002308D01*
X77821542Y-152002311D01*
X77819224Y-152009619D01*
X77762953Y-152187008D01*
X77740667Y-152385697D01*
X59690000Y-152385697D01*
X59690000Y-150685697D01*
X80307667Y-150685697D01*
X80324397Y-150884930D01*
X80379506Y-151077119D01*
X80382325Y-151082604D01*
X80468078Y-151249462D01*
X80468081Y-151249467D01*
X80470896Y-151254944D01*
X80595085Y-151411631D01*
X80599779Y-151415626D01*
X80689709Y-151492162D01*
X80747342Y-151541212D01*
X80752720Y-151544218D01*
X80752722Y-151544219D01*
X80794794Y-151567732D01*
X80921869Y-151638752D01*
X81112018Y-151700535D01*
X81310546Y-151724208D01*
X81316681Y-151723736D01*
X81316683Y-151723736D01*
X81503750Y-151709343D01*
X81503755Y-151709342D01*
X81509891Y-151708870D01*
X81515823Y-151707214D01*
X81515827Y-151707213D01*
X81606175Y-151681987D01*
X81702460Y-151655103D01*
X81880919Y-151564957D01*
X81909291Y-151542791D01*
X82017123Y-151458543D01*
X82038469Y-151441866D01*
X82077636Y-151396491D01*
X82126504Y-151339876D01*
X82162504Y-151298169D01*
X82222157Y-151259672D01*
X82257886Y-151254500D01*
X88325527Y-151254500D01*
X88393648Y-151274502D01*
X88440141Y-151328158D01*
X88450245Y-151398432D01*
X88420751Y-151463012D01*
X88383902Y-151492162D01*
X88287058Y-151542791D01*
X88131242Y-151668071D01*
X88002727Y-151821229D01*
X87999758Y-151826630D01*
X87999757Y-151826631D01*
X87909379Y-151991026D01*
X87909377Y-151991031D01*
X87906407Y-151996433D01*
X87904543Y-152002308D01*
X87904542Y-152002311D01*
X87902224Y-152009619D01*
X87845953Y-152187008D01*
X87823667Y-152385697D01*
X87840397Y-152584930D01*
X87895506Y-152777119D01*
X87898325Y-152782604D01*
X87984078Y-152949462D01*
X87984081Y-152949467D01*
X87986896Y-152954944D01*
X88111085Y-153111631D01*
X88263342Y-153241212D01*
X88268720Y-153244218D01*
X88268722Y-153244219D01*
X88310794Y-153267732D01*
X88437869Y-153338752D01*
X88628018Y-153400535D01*
X88755402Y-153415725D01*
X88781914Y-153418886D01*
X88842683Y-153444886D01*
X88876576Y-153423104D01*
X88902408Y-153418371D01*
X89019750Y-153409343D01*
X89019755Y-153409342D01*
X89025891Y-153408870D01*
X89031823Y-153407214D01*
X89031827Y-153407213D01*
X89122176Y-153381986D01*
X89218460Y-153355103D01*
X89396919Y-153264957D01*
X89427312Y-153241212D01*
X89549619Y-153145655D01*
X89554469Y-153141866D01*
X89685110Y-152990516D01*
X89783866Y-152816674D01*
X89846975Y-152626962D01*
X89872034Y-152428604D01*
X89872433Y-152400000D01*
X89852923Y-152201020D01*
X89795135Y-152009619D01*
X89701272Y-151833087D01*
X89612088Y-151723736D01*
X89578803Y-151682924D01*
X89578800Y-151682921D01*
X89574908Y-151678149D01*
X89568433Y-151672792D01*
X89513505Y-151627352D01*
X89420856Y-151550707D01*
X89311052Y-151491336D01*
X89260643Y-151441341D01*
X89245266Y-151372030D01*
X89269802Y-151305408D01*
X89326462Y-151262627D01*
X89370981Y-151254500D01*
X90492634Y-151254500D01*
X90560755Y-151274502D01*
X90591377Y-151302233D01*
X90678085Y-151411631D01*
X90682779Y-151415626D01*
X90772709Y-151492162D01*
X90830342Y-151541212D01*
X90835720Y-151544218D01*
X90835722Y-151544219D01*
X90877794Y-151567732D01*
X91004869Y-151638752D01*
X91195018Y-151700535D01*
X91393546Y-151724208D01*
X91399681Y-151723736D01*
X91399683Y-151723736D01*
X91586750Y-151709343D01*
X91586755Y-151709342D01*
X91592891Y-151708870D01*
X91598823Y-151707214D01*
X91598827Y-151707213D01*
X91689175Y-151681987D01*
X91785460Y-151655103D01*
X91963919Y-151564957D01*
X91992291Y-151542791D01*
X92100123Y-151458543D01*
X92121469Y-151441866D01*
X92160636Y-151396491D01*
X92248086Y-151295178D01*
X92248086Y-151295177D01*
X92252110Y-151290516D01*
X92350866Y-151116674D01*
X92413975Y-150926962D01*
X92439034Y-150728604D01*
X92439433Y-150700000D01*
X92419923Y-150501020D01*
X92362135Y-150309619D01*
X92268272Y-150133087D01*
X92254752Y-150116510D01*
X92145803Y-149982924D01*
X92145800Y-149982921D01*
X92141908Y-149978149D01*
X92135439Y-149972797D01*
X92080505Y-149927352D01*
X91987856Y-149850707D01*
X91811984Y-149755613D01*
X91716488Y-149726052D01*
X91626878Y-149698313D01*
X91626875Y-149698312D01*
X91620991Y-149696491D01*
X91614866Y-149695847D01*
X91614865Y-149695847D01*
X91428280Y-149676236D01*
X91428279Y-149676236D01*
X91422152Y-149675592D01*
X91339616Y-149683104D01*
X91229179Y-149693154D01*
X91229176Y-149693155D01*
X91223040Y-149693713D01*
X91217134Y-149695451D01*
X91217130Y-149695452D01*
X91072989Y-149737875D01*
X91031241Y-149750162D01*
X90854058Y-149842791D01*
X90698242Y-149968071D01*
X90694283Y-149972789D01*
X90694275Y-149972797D01*
X90587127Y-150100491D01*
X90528018Y-150139818D01*
X90490606Y-150145500D01*
X82255225Y-150145500D01*
X82187104Y-150125498D01*
X82157582Y-150099135D01*
X82062807Y-149982929D01*
X82062802Y-149982924D01*
X82058908Y-149978149D01*
X82052439Y-149972797D01*
X81997505Y-149927352D01*
X81904856Y-149850707D01*
X81728984Y-149755613D01*
X81633488Y-149726052D01*
X81543878Y-149698313D01*
X81543875Y-149698312D01*
X81537991Y-149696491D01*
X81531866Y-149695847D01*
X81531865Y-149695847D01*
X81345280Y-149676236D01*
X81345279Y-149676236D01*
X81339152Y-149675592D01*
X81256616Y-149683104D01*
X81146179Y-149693154D01*
X81146176Y-149693155D01*
X81140040Y-149693713D01*
X81134134Y-149695451D01*
X81134130Y-149695452D01*
X80989989Y-149737875D01*
X80948241Y-149750162D01*
X80771058Y-149842791D01*
X80615242Y-149968071D01*
X80486727Y-150121229D01*
X80483758Y-150126630D01*
X80483757Y-150126631D01*
X80393379Y-150291026D01*
X80393377Y-150291031D01*
X80390407Y-150296433D01*
X80388543Y-150302308D01*
X80388542Y-150302311D01*
X80386224Y-150309619D01*
X80329953Y-150487008D01*
X80307667Y-150685697D01*
X59690000Y-150685697D01*
X59690000Y-144234342D01*
X75880951Y-144234342D01*
X75881248Y-144239494D01*
X75881248Y-144239499D01*
X75884657Y-144298614D01*
X75884857Y-144307407D01*
X75884070Y-144371809D01*
X75890287Y-144412437D01*
X75890885Y-144416346D01*
X75892126Y-144428152D01*
X75894719Y-144473121D01*
X75895858Y-144478174D01*
X75895858Y-144478176D01*
X75908873Y-144535929D01*
X75910506Y-144544570D01*
X75920248Y-144608233D01*
X75921857Y-144613154D01*
X75921857Y-144613156D01*
X75934245Y-144651056D01*
X75937398Y-144662501D01*
X75947301Y-144706446D01*
X75949243Y-144711228D01*
X75949244Y-144711232D01*
X75971526Y-144766107D01*
X75974548Y-144774362D01*
X75994555Y-144835573D01*
X76015358Y-144875536D01*
X76020329Y-144886294D01*
X76037284Y-144928049D01*
X76039984Y-144932455D01*
X76039986Y-144932459D01*
X76070938Y-144982969D01*
X76075268Y-144990622D01*
X76104994Y-145047725D01*
X76108098Y-145051859D01*
X76132046Y-145083755D01*
X76138714Y-145093567D01*
X76162254Y-145131980D01*
X76184873Y-145158092D01*
X76204416Y-145180654D01*
X76209933Y-145187491D01*
X76248600Y-145238990D01*
X76281176Y-145270120D01*
X76289348Y-145278702D01*
X76318852Y-145312762D01*
X76322821Y-145316057D01*
X76322830Y-145316066D01*
X76368398Y-145353897D01*
X76374956Y-145359740D01*
X76421516Y-145404233D01*
X76425786Y-145407146D01*
X76425790Y-145407149D01*
X76458739Y-145429625D01*
X76468210Y-145436761D01*
X76502874Y-145465540D01*
X76507329Y-145468143D01*
X76507340Y-145468151D01*
X76558466Y-145498027D01*
X76565899Y-145502725D01*
X76599896Y-145525916D01*
X76619099Y-145539015D01*
X76659962Y-145557983D01*
X76670480Y-145563481D01*
X76709377Y-145586211D01*
X76714206Y-145588055D01*
X76769536Y-145609183D01*
X76777639Y-145612606D01*
X76815863Y-145630349D01*
X76836042Y-145639716D01*
X76841021Y-145641097D01*
X76841027Y-145641099D01*
X76879457Y-145651757D01*
X76890734Y-145655464D01*
X76932817Y-145671534D01*
X76937885Y-145672565D01*
X76937888Y-145672566D01*
X76995912Y-145684371D01*
X77004460Y-145686423D01*
X77066520Y-145703634D01*
X77071658Y-145704183D01*
X77071668Y-145704185D01*
X77111320Y-145708423D01*
X77123049Y-145710238D01*
X77162126Y-145718188D01*
X77162132Y-145718189D01*
X77167191Y-145719218D01*
X77231542Y-145721578D01*
X77240307Y-145722206D01*
X77258429Y-145724143D01*
X77258440Y-145724144D01*
X77261775Y-145724500D01*
X77308929Y-145724500D01*
X77313546Y-145724585D01*
X77401043Y-145727794D01*
X77401048Y-145727794D01*
X77406207Y-145727983D01*
X77411327Y-145727327D01*
X77411329Y-145727327D01*
X77425426Y-145725521D01*
X77441436Y-145724500D01*
X78006842Y-145724500D01*
X78074963Y-145744502D01*
X78121456Y-145798158D01*
X78131560Y-145868432D01*
X78102066Y-145933012D01*
X78096956Y-145938565D01*
X77935606Y-146103618D01*
X77932919Y-146107310D01*
X77932917Y-146107312D01*
X77827171Y-146252592D01*
X77775090Y-146324144D01*
X77648090Y-146565531D01*
X77557266Y-146822724D01*
X77556386Y-146827190D01*
X77522073Y-147001280D01*
X77504520Y-147090334D01*
X77504293Y-147094887D01*
X77504293Y-147094890D01*
X77494988Y-147281814D01*
X77490958Y-147362755D01*
X77516864Y-147634280D01*
X77581695Y-147899222D01*
X77583407Y-147903448D01*
X77583408Y-147903452D01*
X77652677Y-148074469D01*
X77684092Y-148152030D01*
X77686396Y-148155965D01*
X77686399Y-148155971D01*
X77819606Y-148383470D01*
X77821912Y-148387408D01*
X77992266Y-148600425D01*
X78191587Y-148786620D01*
X78285273Y-148851613D01*
X78411945Y-148939489D01*
X78411950Y-148939492D01*
X78415698Y-148942092D01*
X78419783Y-148944124D01*
X78419786Y-148944126D01*
X78594344Y-149030967D01*
X78659905Y-149063583D01*
X78664244Y-149065005D01*
X78664248Y-149065007D01*
X78914750Y-149147125D01*
X78914755Y-149147126D01*
X78919092Y-149148548D01*
X78988324Y-149160569D01*
X79184048Y-149194553D01*
X79184056Y-149194554D01*
X79187829Y-149195209D01*
X79191666Y-149195400D01*
X79272451Y-149199422D01*
X79272459Y-149199422D01*
X79274022Y-149199500D01*
X79444282Y-149199500D01*
X79446550Y-149199335D01*
X79446562Y-149199335D01*
X79577896Y-149189805D01*
X79647043Y-149184788D01*
X79651498Y-149183804D01*
X79651501Y-149183804D01*
X79908927Y-149126970D01*
X79908931Y-149126969D01*
X79913387Y-149125985D01*
X80040920Y-149077667D01*
X80164183Y-149030967D01*
X80164186Y-149030966D01*
X80168453Y-149029349D01*
X80406898Y-148896905D01*
X80623725Y-148731427D01*
X80755274Y-148596859D01*
X80811200Y-148539650D01*
X80811204Y-148539645D01*
X80814394Y-148536382D01*
X80920236Y-148390971D01*
X80972222Y-148319549D01*
X80972222Y-148319548D01*
X80974910Y-148315856D01*
X81101910Y-148074469D01*
X81192734Y-147817276D01*
X81212282Y-147718098D01*
X81244599Y-147554138D01*
X81244600Y-147554132D01*
X81245480Y-147549666D01*
X81245707Y-147545110D01*
X81258815Y-147281814D01*
X81258815Y-147281808D01*
X81259042Y-147277245D01*
X81233136Y-147005720D01*
X81168305Y-146740778D01*
X81166592Y-146736548D01*
X81067623Y-146492203D01*
X81067620Y-146492198D01*
X81065908Y-146487970D01*
X81063604Y-146484035D01*
X81063601Y-146484029D01*
X80930394Y-146256530D01*
X80930393Y-146256528D01*
X80928088Y-146252592D01*
X80757734Y-146039575D01*
X80653897Y-145942576D01*
X80617771Y-145881457D01*
X80620423Y-145810510D01*
X80661011Y-145752260D01*
X80726649Y-145725200D01*
X80739909Y-145724500D01*
X89436842Y-145724500D01*
X89504963Y-145744502D01*
X89551456Y-145798158D01*
X89561560Y-145868432D01*
X89532066Y-145933012D01*
X89526956Y-145938565D01*
X89365606Y-146103618D01*
X89362919Y-146107310D01*
X89362917Y-146107312D01*
X89257171Y-146252592D01*
X89205090Y-146324144D01*
X89078090Y-146565531D01*
X88987266Y-146822724D01*
X88986386Y-146827190D01*
X88952073Y-147001280D01*
X88934520Y-147090334D01*
X88934293Y-147094887D01*
X88934293Y-147094890D01*
X88924988Y-147281814D01*
X88920958Y-147362755D01*
X88946864Y-147634280D01*
X89011695Y-147899222D01*
X89013407Y-147903448D01*
X89013408Y-147903452D01*
X89082677Y-148074469D01*
X89114092Y-148152030D01*
X89116396Y-148155965D01*
X89116399Y-148155971D01*
X89249606Y-148383470D01*
X89251912Y-148387408D01*
X89422266Y-148600425D01*
X89621587Y-148786620D01*
X89715273Y-148851613D01*
X89841945Y-148939489D01*
X89841950Y-148939492D01*
X89845698Y-148942092D01*
X89849783Y-148944124D01*
X89849786Y-148944126D01*
X90024344Y-149030967D01*
X90089905Y-149063583D01*
X90094244Y-149065005D01*
X90094248Y-149065007D01*
X90344750Y-149147125D01*
X90344755Y-149147126D01*
X90349092Y-149148548D01*
X90418324Y-149160569D01*
X90614048Y-149194553D01*
X90614056Y-149194554D01*
X90617829Y-149195209D01*
X90621666Y-149195400D01*
X90702451Y-149199422D01*
X90702459Y-149199422D01*
X90704022Y-149199500D01*
X90874282Y-149199500D01*
X90876550Y-149199335D01*
X90876562Y-149199335D01*
X91007896Y-149189805D01*
X91077043Y-149184788D01*
X91081498Y-149183804D01*
X91081501Y-149183804D01*
X91338927Y-149126970D01*
X91338931Y-149126969D01*
X91343387Y-149125985D01*
X91470920Y-149077667D01*
X91594183Y-149030967D01*
X91594186Y-149030966D01*
X91598453Y-149029349D01*
X91836898Y-148896905D01*
X92053725Y-148731427D01*
X92185274Y-148596859D01*
X92241200Y-148539650D01*
X92241204Y-148539645D01*
X92244394Y-148536382D01*
X92350236Y-148390971D01*
X92402222Y-148319549D01*
X92402222Y-148319548D01*
X92404910Y-148315856D01*
X92531910Y-148074469D01*
X92622734Y-147817276D01*
X92642282Y-147718098D01*
X92674599Y-147554138D01*
X92674600Y-147554132D01*
X92675480Y-147549666D01*
X92675707Y-147545110D01*
X92688815Y-147281814D01*
X92688815Y-147281808D01*
X92689042Y-147277245D01*
X92663136Y-147005720D01*
X92598305Y-146740778D01*
X92596592Y-146736548D01*
X92497623Y-146492203D01*
X92497620Y-146492198D01*
X92495908Y-146487970D01*
X92493604Y-146484035D01*
X92493601Y-146484029D01*
X92360394Y-146256530D01*
X92360393Y-146256528D01*
X92358088Y-146252592D01*
X92187734Y-146039575D01*
X92083897Y-145942576D01*
X92047771Y-145881457D01*
X92050423Y-145810510D01*
X92091011Y-145752260D01*
X92156649Y-145725200D01*
X92169909Y-145724500D01*
X92808929Y-145724500D01*
X92813546Y-145724585D01*
X92901044Y-145727794D01*
X92901048Y-145727794D01*
X92906207Y-145727983D01*
X92989292Y-145717339D01*
X92994950Y-145716745D01*
X93078372Y-145709887D01*
X93103284Y-145703629D01*
X93117958Y-145700857D01*
X93143444Y-145697592D01*
X93159392Y-145692807D01*
X93223642Y-145673532D01*
X93229152Y-145672014D01*
X93305326Y-145652880D01*
X93310342Y-145651620D01*
X93315084Y-145649558D01*
X93315090Y-145649556D01*
X93333892Y-145641380D01*
X93347929Y-145636243D01*
X93367576Y-145630349D01*
X93367578Y-145630348D01*
X93372532Y-145628862D01*
X93447719Y-145592028D01*
X93452908Y-145589630D01*
X93529681Y-145556249D01*
X93551246Y-145542298D01*
X93564247Y-145534943D01*
X93582673Y-145525916D01*
X93582681Y-145525911D01*
X93587319Y-145523639D01*
X93620117Y-145500245D01*
X93655479Y-145475022D01*
X93660205Y-145471811D01*
X93726150Y-145429148D01*
X93726151Y-145429147D01*
X93730498Y-145426335D01*
X93749499Y-145409045D01*
X93761120Y-145399668D01*
X93782036Y-145384749D01*
X93841333Y-145325658D01*
X93845474Y-145321714D01*
X93903578Y-145268844D01*
X93903580Y-145268842D01*
X93907400Y-145265366D01*
X93923322Y-145245206D01*
X93933261Y-145234051D01*
X93947788Y-145219575D01*
X93947792Y-145219570D01*
X93951454Y-145215921D01*
X93954470Y-145211723D01*
X93954474Y-145211719D01*
X94000311Y-145147929D01*
X94003742Y-145143376D01*
X94055636Y-145077667D01*
X94058131Y-145073148D01*
X94058136Y-145073140D01*
X94068053Y-145055175D01*
X94076031Y-145042554D01*
X94091023Y-145021690D01*
X94128105Y-144946661D01*
X94130753Y-144941595D01*
X94168725Y-144872808D01*
X94168726Y-144872806D01*
X94171226Y-144868277D01*
X94172952Y-144863404D01*
X94172956Y-144863394D01*
X94179802Y-144844060D01*
X94185618Y-144830290D01*
X94196995Y-144807272D01*
X94221337Y-144727152D01*
X94223121Y-144721728D01*
X94249336Y-144647698D01*
X94251064Y-144642819D01*
X94255568Y-144617536D01*
X94259057Y-144603003D01*
X94265020Y-144583378D01*
X94265022Y-144583369D01*
X94266524Y-144578425D01*
X94277453Y-144495409D01*
X94278327Y-144489765D01*
X94280392Y-144478176D01*
X94285086Y-144451820D01*
X94292102Y-144412437D01*
X94292102Y-144412435D01*
X94293008Y-144407350D01*
X94293322Y-144381666D01*
X94294391Y-144366761D01*
X94297306Y-144344620D01*
X94297307Y-144344608D01*
X94297743Y-144341296D01*
X94298571Y-144307407D01*
X94299403Y-144273365D01*
X94299403Y-144273361D01*
X94299485Y-144270000D01*
X94295794Y-144225101D01*
X94295379Y-144213258D01*
X94295930Y-144168191D01*
X94286186Y-144104518D01*
X94285162Y-144095795D01*
X94280311Y-144036789D01*
X94279887Y-144031628D01*
X94278626Y-144026609D01*
X94278625Y-144026601D01*
X94268913Y-143987938D01*
X94266566Y-143976298D01*
X94260535Y-143936882D01*
X94260534Y-143936879D01*
X94259752Y-143931767D01*
X94239745Y-143870554D01*
X94237307Y-143862110D01*
X94229828Y-143832333D01*
X94221620Y-143799658D01*
X94209171Y-143771026D01*
X94203657Y-143758345D01*
X94199441Y-143747247D01*
X94187051Y-143709340D01*
X94187050Y-143709338D01*
X94185445Y-143704427D01*
X94155708Y-143647303D01*
X94151924Y-143639367D01*
X94126249Y-143580319D01*
X94101771Y-143542483D01*
X94095808Y-143532235D01*
X94077399Y-143496870D01*
X94077393Y-143496861D01*
X94075006Y-143492275D01*
X94036335Y-143440771D01*
X94031316Y-143433574D01*
X93999145Y-143383845D01*
X93999143Y-143383842D01*
X93996335Y-143379502D01*
X93966011Y-143346176D01*
X93958451Y-143337037D01*
X93934510Y-143305151D01*
X93934504Y-143305145D01*
X93931400Y-143301010D01*
X93927666Y-143297441D01*
X93927660Y-143297435D01*
X93884846Y-143256521D01*
X93878705Y-143250228D01*
X93855889Y-143225154D01*
X93835366Y-143202600D01*
X93800009Y-143174677D01*
X93791054Y-143166892D01*
X93762221Y-143139338D01*
X93762220Y-143139337D01*
X93758484Y-143135767D01*
X93747209Y-143128076D01*
X93705283Y-143099475D01*
X93698196Y-143094269D01*
X93672091Y-143073653D01*
X93647667Y-143054364D01*
X93608222Y-143032589D01*
X93598131Y-143026382D01*
X93560901Y-143000985D01*
X93556217Y-142998811D01*
X93556212Y-142998808D01*
X93519324Y-142981686D01*
X93502498Y-142973876D01*
X93494658Y-142969899D01*
X93438277Y-142938774D01*
X93404858Y-142926940D01*
X93395808Y-142923735D01*
X93384819Y-142919250D01*
X93348659Y-142902465D01*
X93348647Y-142902461D01*
X93343958Y-142900284D01*
X93281889Y-142883071D01*
X93273538Y-142880438D01*
X93212819Y-142858936D01*
X93185679Y-142854101D01*
X93168473Y-142851036D01*
X93156902Y-142848407D01*
X93118460Y-142837747D01*
X93118459Y-142837747D01*
X93113480Y-142836366D01*
X93108348Y-142835818D01*
X93108345Y-142835817D01*
X93049440Y-142829522D01*
X93040733Y-142828282D01*
X92982439Y-142817898D01*
X92982433Y-142817897D01*
X92977350Y-142816992D01*
X92932292Y-142816442D01*
X92924917Y-142816002D01*
X92924915Y-142816035D01*
X92921558Y-142815856D01*
X92918225Y-142815500D01*
X92856035Y-142815500D01*
X92854496Y-142815491D01*
X92743361Y-142814133D01*
X92743359Y-142814133D01*
X92738191Y-142814070D01*
X92733077Y-142814853D01*
X92728211Y-142815193D01*
X92719418Y-142815500D01*
X77356035Y-142815500D01*
X77354496Y-142815491D01*
X77243360Y-142814133D01*
X77243358Y-142814133D01*
X77238191Y-142814070D01*
X77233082Y-142814852D01*
X77233079Y-142814852D01*
X77219096Y-142816992D01*
X77174518Y-142823814D01*
X77165802Y-142824837D01*
X77101628Y-142830113D01*
X77096609Y-142831374D01*
X77096601Y-142831375D01*
X77057938Y-142841087D01*
X77046303Y-142843433D01*
X77028932Y-142846091D01*
X77006882Y-142849465D01*
X77006879Y-142849466D01*
X77001767Y-142850248D01*
X76940554Y-142870255D01*
X76932115Y-142872692D01*
X76869658Y-142888380D01*
X76864915Y-142890442D01*
X76864913Y-142890443D01*
X76828345Y-142906343D01*
X76817247Y-142910559D01*
X76783006Y-142921751D01*
X76774427Y-142924555D01*
X76742310Y-142941274D01*
X76717304Y-142954291D01*
X76709368Y-142958076D01*
X76650319Y-142983751D01*
X76612483Y-143008229D01*
X76602235Y-143014192D01*
X76566870Y-143032601D01*
X76566861Y-143032607D01*
X76562275Y-143034994D01*
X76510771Y-143073665D01*
X76503574Y-143078684D01*
X76453845Y-143110855D01*
X76453842Y-143110857D01*
X76449502Y-143113665D01*
X76416176Y-143143989D01*
X76407037Y-143151549D01*
X76375151Y-143175490D01*
X76375145Y-143175496D01*
X76371010Y-143178600D01*
X76367441Y-143182334D01*
X76367435Y-143182340D01*
X76326521Y-143225154D01*
X76320228Y-143231295D01*
X76299422Y-143250228D01*
X76272600Y-143274634D01*
X76248499Y-143305151D01*
X76244681Y-143309986D01*
X76236895Y-143318942D01*
X76205767Y-143351516D01*
X76202853Y-143355788D01*
X76169475Y-143404717D01*
X76164269Y-143411804D01*
X76147077Y-143433574D01*
X76124364Y-143462333D01*
X76121868Y-143466854D01*
X76121867Y-143466856D01*
X76102593Y-143501772D01*
X76096382Y-143511869D01*
X76070985Y-143549099D01*
X76068811Y-143553783D01*
X76068808Y-143553788D01*
X76043879Y-143607496D01*
X76039902Y-143615336D01*
X76008774Y-143671723D01*
X76007048Y-143676598D01*
X75993735Y-143714192D01*
X75989250Y-143725181D01*
X75972465Y-143761341D01*
X75972461Y-143761353D01*
X75970284Y-143766042D01*
X75953071Y-143828111D01*
X75950438Y-143836462D01*
X75928936Y-143897181D01*
X75928030Y-143902269D01*
X75921036Y-143941527D01*
X75918407Y-143953098D01*
X75911974Y-143976298D01*
X75906366Y-143996520D01*
X75905818Y-144001652D01*
X75905817Y-144001655D01*
X75899523Y-144060558D01*
X75898285Y-144069250D01*
X75886992Y-144132650D01*
X75886621Y-144163079D01*
X75886442Y-144177700D01*
X75885739Y-144189542D01*
X75880951Y-144234342D01*
X59690000Y-144234342D01*
X59690000Y-141090096D01*
X71349729Y-141090096D01*
X71367113Y-141247553D01*
X71369723Y-141254684D01*
X71369723Y-141254686D01*
X71406759Y-141355891D01*
X71421553Y-141396319D01*
X71425789Y-141402622D01*
X71425789Y-141402623D01*
X71494994Y-141505610D01*
X71509908Y-141527805D01*
X71627076Y-141634419D01*
X71766293Y-141710008D01*
X71919522Y-141750207D01*
X72003477Y-141751526D01*
X72070319Y-141752576D01*
X72070322Y-141752576D01*
X72077916Y-141752695D01*
X72232332Y-141717329D01*
X72331453Y-141667477D01*
X72367072Y-141649563D01*
X72367075Y-141649561D01*
X72373855Y-141646151D01*
X72379626Y-141641222D01*
X72379629Y-141641220D01*
X72488537Y-141548203D01*
X72494314Y-141543269D01*
X72495855Y-141541125D01*
X72554875Y-141505610D01*
X72586793Y-141501500D01*
X74911036Y-141501500D01*
X74920468Y-141498435D01*
X74920470Y-141498435D01*
X74932257Y-141494605D01*
X74951483Y-141489989D01*
X74963732Y-141488049D01*
X74973525Y-141486498D01*
X74993409Y-141476366D01*
X75011675Y-141468801D01*
X75023466Y-141464970D01*
X75032899Y-141461905D01*
X75050959Y-141448784D01*
X75067816Y-141438454D01*
X75087693Y-141428326D01*
X75110481Y-141405538D01*
X75110485Y-141405535D01*
X76275087Y-140240933D01*
X79686500Y-140240933D01*
X79686501Y-141699066D01*
X79690471Y-141719024D01*
X79698796Y-141760880D01*
X79701266Y-141773301D01*
X79757516Y-141857484D01*
X79841699Y-141913734D01*
X79915933Y-141928500D01*
X80644882Y-141928500D01*
X81374066Y-141928499D01*
X81409818Y-141921388D01*
X81436126Y-141916156D01*
X81436128Y-141916155D01*
X81448301Y-141913734D01*
X81458621Y-141906839D01*
X81458622Y-141906838D01*
X81522168Y-141864377D01*
X81532484Y-141857484D01*
X81588734Y-141773301D01*
X81603500Y-141699067D01*
X81603499Y-140956552D01*
X82221956Y-140956552D01*
X82222472Y-140962696D01*
X82232538Y-141082565D01*
X82237685Y-141143865D01*
X82289497Y-141324555D01*
X82292312Y-141330032D01*
X82292313Y-141330035D01*
X82357089Y-141456075D01*
X82375418Y-141491740D01*
X82379241Y-141496564D01*
X82379244Y-141496568D01*
X82420170Y-141548203D01*
X82492177Y-141639052D01*
X82496871Y-141643047D01*
X82625707Y-141752695D01*
X82635324Y-141760880D01*
X82640702Y-141763886D01*
X82640704Y-141763887D01*
X82717366Y-141806732D01*
X82799409Y-141852584D01*
X82978180Y-141910670D01*
X83164830Y-141932927D01*
X83170965Y-141932455D01*
X83170967Y-141932455D01*
X83346105Y-141918979D01*
X83346109Y-141918978D01*
X83352247Y-141918506D01*
X83437378Y-141894737D01*
X83527350Y-141869616D01*
X83527353Y-141869615D01*
X83533294Y-141867956D01*
X83538798Y-141865176D01*
X83538800Y-141865175D01*
X83695574Y-141785983D01*
X83695576Y-141785982D01*
X83701075Y-141783204D01*
X83849199Y-141667477D01*
X83867607Y-141646151D01*
X83967994Y-141529852D01*
X83967995Y-141529850D01*
X83972023Y-141525184D01*
X84064870Y-141361744D01*
X84124203Y-141183382D01*
X84147762Y-140996892D01*
X84148138Y-140970000D01*
X84146819Y-140956552D01*
X84761956Y-140956552D01*
X84762472Y-140962696D01*
X84772538Y-141082565D01*
X84777685Y-141143865D01*
X84829497Y-141324555D01*
X84832312Y-141330032D01*
X84832313Y-141330035D01*
X84897089Y-141456075D01*
X84915418Y-141491740D01*
X84919241Y-141496564D01*
X84919244Y-141496568D01*
X84960170Y-141548203D01*
X85032177Y-141639052D01*
X85036871Y-141643047D01*
X85165707Y-141752695D01*
X85175324Y-141760880D01*
X85180702Y-141763886D01*
X85180704Y-141763887D01*
X85257366Y-141806732D01*
X85339409Y-141852584D01*
X85518180Y-141910670D01*
X85704830Y-141932927D01*
X85710965Y-141932455D01*
X85710967Y-141932455D01*
X85886105Y-141918979D01*
X85886109Y-141918978D01*
X85892247Y-141918506D01*
X85977378Y-141894737D01*
X86067350Y-141869616D01*
X86067353Y-141869615D01*
X86073294Y-141867956D01*
X86078798Y-141865176D01*
X86078800Y-141865175D01*
X86235574Y-141785983D01*
X86235576Y-141785982D01*
X86241075Y-141783204D01*
X86389199Y-141667477D01*
X86407607Y-141646151D01*
X86507994Y-141529852D01*
X86507995Y-141529850D01*
X86512023Y-141525184D01*
X86604870Y-141361744D01*
X86664203Y-141183382D01*
X86687762Y-140996892D01*
X86688138Y-140970000D01*
X86686819Y-140956552D01*
X87301956Y-140956552D01*
X87302472Y-140962696D01*
X87312538Y-141082565D01*
X87317685Y-141143865D01*
X87369497Y-141324555D01*
X87372312Y-141330032D01*
X87372313Y-141330035D01*
X87437089Y-141456075D01*
X87455418Y-141491740D01*
X87459241Y-141496564D01*
X87459244Y-141496568D01*
X87500170Y-141548203D01*
X87572177Y-141639052D01*
X87576871Y-141643047D01*
X87705707Y-141752695D01*
X87715324Y-141760880D01*
X87720702Y-141763886D01*
X87720704Y-141763887D01*
X87797366Y-141806732D01*
X87879409Y-141852584D01*
X88058180Y-141910670D01*
X88244830Y-141932927D01*
X88250965Y-141932455D01*
X88250967Y-141932455D01*
X88426105Y-141918979D01*
X88426109Y-141918978D01*
X88432247Y-141918506D01*
X88517378Y-141894737D01*
X88607350Y-141869616D01*
X88607353Y-141869615D01*
X88613294Y-141867956D01*
X88618798Y-141865176D01*
X88618800Y-141865175D01*
X88775574Y-141785983D01*
X88775576Y-141785982D01*
X88781075Y-141783204D01*
X88929199Y-141667477D01*
X88947607Y-141646151D01*
X89047994Y-141529852D01*
X89047995Y-141529850D01*
X89052023Y-141525184D01*
X89144870Y-141361744D01*
X89204203Y-141183382D01*
X89227762Y-140996892D01*
X89228138Y-140970000D01*
X89209795Y-140782926D01*
X89155465Y-140602977D01*
X89067218Y-140437008D01*
X88948415Y-140291340D01*
X88887485Y-140240934D01*
X88808329Y-140175450D01*
X88808324Y-140175447D01*
X88803580Y-140171522D01*
X88798161Y-140168592D01*
X88798158Y-140168590D01*
X88658044Y-140092832D01*
X88638231Y-140082119D01*
X88458666Y-140026534D01*
X88452541Y-140025890D01*
X88452540Y-140025890D01*
X88277852Y-140007529D01*
X88277851Y-140007529D01*
X88271724Y-140006885D01*
X88194673Y-140013897D01*
X88090665Y-140023363D01*
X88090662Y-140023364D01*
X88084526Y-140023922D01*
X88078620Y-140025660D01*
X88078616Y-140025661D01*
X87945278Y-140064905D01*
X87904202Y-140076994D01*
X87888792Y-140085050D01*
X87752354Y-140156378D01*
X87737621Y-140164080D01*
X87591128Y-140281864D01*
X87587170Y-140286582D01*
X87587167Y-140286584D01*
X87499797Y-140390708D01*
X87470302Y-140425859D01*
X87467338Y-140431251D01*
X87467335Y-140431255D01*
X87403034Y-140548219D01*
X87379746Y-140590580D01*
X87377885Y-140596447D01*
X87377884Y-140596449D01*
X87357410Y-140660992D01*
X87322909Y-140769752D01*
X87301956Y-140956552D01*
X86686819Y-140956552D01*
X86669795Y-140782926D01*
X86615465Y-140602977D01*
X86527218Y-140437008D01*
X86408415Y-140291340D01*
X86347485Y-140240934D01*
X86268329Y-140175450D01*
X86268324Y-140175447D01*
X86263580Y-140171522D01*
X86258161Y-140168592D01*
X86258158Y-140168590D01*
X86118044Y-140092832D01*
X86098231Y-140082119D01*
X85918666Y-140026534D01*
X85912541Y-140025890D01*
X85912540Y-140025890D01*
X85737852Y-140007529D01*
X85737851Y-140007529D01*
X85731724Y-140006885D01*
X85654673Y-140013897D01*
X85550665Y-140023363D01*
X85550662Y-140023364D01*
X85544526Y-140023922D01*
X85538620Y-140025660D01*
X85538616Y-140025661D01*
X85405278Y-140064905D01*
X85364202Y-140076994D01*
X85348792Y-140085050D01*
X85212354Y-140156378D01*
X85197621Y-140164080D01*
X85051128Y-140281864D01*
X85047170Y-140286582D01*
X85047167Y-140286584D01*
X84959797Y-140390708D01*
X84930302Y-140425859D01*
X84927338Y-140431251D01*
X84927335Y-140431255D01*
X84863034Y-140548219D01*
X84839746Y-140590580D01*
X84837885Y-140596447D01*
X84837884Y-140596449D01*
X84817410Y-140660992D01*
X84782909Y-140769752D01*
X84761956Y-140956552D01*
X84146819Y-140956552D01*
X84129795Y-140782926D01*
X84075465Y-140602977D01*
X83987218Y-140437008D01*
X83868415Y-140291340D01*
X83807485Y-140240934D01*
X83728329Y-140175450D01*
X83728324Y-140175447D01*
X83723580Y-140171522D01*
X83718161Y-140168592D01*
X83718158Y-140168590D01*
X83578044Y-140092832D01*
X83558231Y-140082119D01*
X83378666Y-140026534D01*
X83372541Y-140025890D01*
X83372540Y-140025890D01*
X83197852Y-140007529D01*
X83197851Y-140007529D01*
X83191724Y-140006885D01*
X83114673Y-140013897D01*
X83010665Y-140023363D01*
X83010662Y-140023364D01*
X83004526Y-140023922D01*
X82998620Y-140025660D01*
X82998616Y-140025661D01*
X82865278Y-140064905D01*
X82824202Y-140076994D01*
X82808792Y-140085050D01*
X82672354Y-140156378D01*
X82657621Y-140164080D01*
X82511128Y-140281864D01*
X82507170Y-140286582D01*
X82507167Y-140286584D01*
X82419797Y-140390708D01*
X82390302Y-140425859D01*
X82387338Y-140431251D01*
X82387335Y-140431255D01*
X82323034Y-140548219D01*
X82299746Y-140590580D01*
X82297885Y-140596447D01*
X82297884Y-140596449D01*
X82277410Y-140660992D01*
X82242909Y-140769752D01*
X82221956Y-140956552D01*
X81603499Y-140956552D01*
X81603499Y-140240934D01*
X81588734Y-140166699D01*
X81532484Y-140082516D01*
X81448301Y-140026266D01*
X81374067Y-140011500D01*
X80645118Y-140011500D01*
X79915934Y-140011501D01*
X79880182Y-140018612D01*
X79853874Y-140023844D01*
X79853872Y-140023845D01*
X79841699Y-140026266D01*
X79831379Y-140033161D01*
X79831378Y-140033162D01*
X79770985Y-140073516D01*
X79757516Y-140082516D01*
X79701266Y-140166699D01*
X79686500Y-140240933D01*
X76275087Y-140240933D01*
X78099468Y-138416552D01*
X80951956Y-138416552D01*
X80952472Y-138422696D01*
X80967162Y-138597632D01*
X80967685Y-138603865D01*
X81019497Y-138784555D01*
X81022312Y-138790032D01*
X81022313Y-138790035D01*
X81102462Y-138945988D01*
X81105418Y-138951740D01*
X81109241Y-138956564D01*
X81109244Y-138956568D01*
X81212904Y-139087352D01*
X81222177Y-139099052D01*
X81226871Y-139103047D01*
X81343896Y-139202643D01*
X81365324Y-139220880D01*
X81370702Y-139223886D01*
X81370704Y-139223887D01*
X81447367Y-139266732D01*
X81529409Y-139312584D01*
X81708180Y-139370670D01*
X81894830Y-139392927D01*
X81900965Y-139392455D01*
X81900967Y-139392455D01*
X82076105Y-139378979D01*
X82076109Y-139378978D01*
X82082247Y-139378506D01*
X82167378Y-139354737D01*
X82257350Y-139329616D01*
X82257353Y-139329615D01*
X82263294Y-139327956D01*
X82268798Y-139325176D01*
X82268800Y-139325175D01*
X82425574Y-139245983D01*
X82425576Y-139245982D01*
X82431075Y-139243204D01*
X82579199Y-139127477D01*
X82583225Y-139122813D01*
X82697994Y-138989852D01*
X82697995Y-138989850D01*
X82702023Y-138985184D01*
X82794870Y-138821744D01*
X82854203Y-138643382D01*
X82877762Y-138456892D01*
X82878138Y-138430000D01*
X82876819Y-138416552D01*
X83491956Y-138416552D01*
X83492472Y-138422696D01*
X83507162Y-138597632D01*
X83507685Y-138603865D01*
X83559497Y-138784555D01*
X83562312Y-138790032D01*
X83562313Y-138790035D01*
X83642462Y-138945988D01*
X83645418Y-138951740D01*
X83649241Y-138956564D01*
X83649244Y-138956568D01*
X83752904Y-139087352D01*
X83762177Y-139099052D01*
X83766871Y-139103047D01*
X83883896Y-139202643D01*
X83905324Y-139220880D01*
X83910702Y-139223886D01*
X83910704Y-139223887D01*
X83987367Y-139266732D01*
X84069409Y-139312584D01*
X84248180Y-139370670D01*
X84434830Y-139392927D01*
X84440965Y-139392455D01*
X84440967Y-139392455D01*
X84616105Y-139378979D01*
X84616109Y-139378978D01*
X84622247Y-139378506D01*
X84707378Y-139354737D01*
X84797350Y-139329616D01*
X84797353Y-139329615D01*
X84803294Y-139327956D01*
X84808798Y-139325176D01*
X84808800Y-139325175D01*
X84965574Y-139245983D01*
X84965576Y-139245982D01*
X84971075Y-139243204D01*
X85119199Y-139127477D01*
X85123225Y-139122813D01*
X85237994Y-138989852D01*
X85237995Y-138989850D01*
X85242023Y-138985184D01*
X85334870Y-138821744D01*
X85394203Y-138643382D01*
X85417762Y-138456892D01*
X85418138Y-138430000D01*
X85416819Y-138416552D01*
X86031956Y-138416552D01*
X86032472Y-138422696D01*
X86047162Y-138597632D01*
X86047685Y-138603865D01*
X86099497Y-138784555D01*
X86102312Y-138790032D01*
X86102313Y-138790035D01*
X86182462Y-138945988D01*
X86185418Y-138951740D01*
X86189241Y-138956564D01*
X86189244Y-138956568D01*
X86292904Y-139087352D01*
X86302177Y-139099052D01*
X86306871Y-139103047D01*
X86423896Y-139202643D01*
X86445324Y-139220880D01*
X86450702Y-139223886D01*
X86450704Y-139223887D01*
X86527367Y-139266732D01*
X86609409Y-139312584D01*
X86788180Y-139370670D01*
X86974830Y-139392927D01*
X86980965Y-139392455D01*
X86980967Y-139392455D01*
X87156105Y-139378979D01*
X87156109Y-139378978D01*
X87162247Y-139378506D01*
X87247378Y-139354737D01*
X87337350Y-139329616D01*
X87337353Y-139329615D01*
X87343294Y-139327956D01*
X87348798Y-139325176D01*
X87348800Y-139325175D01*
X87505574Y-139245983D01*
X87505576Y-139245982D01*
X87511075Y-139243204D01*
X87575464Y-139192898D01*
X88957838Y-139192898D01*
X88964669Y-139202643D01*
X88980919Y-139216474D01*
X88990993Y-139223475D01*
X89144230Y-139309116D01*
X89155470Y-139314027D01*
X89322429Y-139368275D01*
X89334403Y-139370908D01*
X89508728Y-139391695D01*
X89520977Y-139391952D01*
X89696017Y-139378483D01*
X89708095Y-139376353D01*
X89877181Y-139329144D01*
X89888610Y-139324711D01*
X90045305Y-139245559D01*
X90055664Y-139238984D01*
X90102419Y-139202456D01*
X90110890Y-139190640D01*
X90104354Y-139178959D01*
X89547812Y-138622417D01*
X89533868Y-138614803D01*
X89532035Y-138614934D01*
X89525420Y-138619185D01*
X88965214Y-139179391D01*
X88957838Y-139192898D01*
X87575464Y-139192898D01*
X87659199Y-139127477D01*
X87663225Y-139122813D01*
X87777994Y-138989852D01*
X87777995Y-138989850D01*
X87782023Y-138985184D01*
X87874870Y-138821744D01*
X87934203Y-138643382D01*
X87957762Y-138456892D01*
X87958138Y-138430000D01*
X87957423Y-138422704D01*
X88572975Y-138422704D01*
X88587664Y-138597632D01*
X88589879Y-138609699D01*
X88638266Y-138778446D01*
X88642781Y-138789849D01*
X88723025Y-138945988D01*
X88729668Y-138956296D01*
X88762379Y-138997568D01*
X88774368Y-139006037D01*
X88785816Y-138999579D01*
X89342583Y-138442812D01*
X89348961Y-138431132D01*
X89719803Y-138431132D01*
X89719934Y-138432965D01*
X89724185Y-138439580D01*
X90284657Y-139000052D01*
X90298284Y-139007493D01*
X90307849Y-139000839D01*
X90317583Y-138989562D01*
X90324657Y-138979533D01*
X90411364Y-138826902D01*
X90416358Y-138815686D01*
X90471766Y-138649122D01*
X90474486Y-138637150D01*
X90496818Y-138460381D01*
X90497309Y-138453354D01*
X90497586Y-138433505D01*
X90497293Y-138426512D01*
X90479903Y-138249156D01*
X90477520Y-138237121D01*
X90426781Y-138069068D01*
X90422106Y-138057726D01*
X90339694Y-137902730D01*
X90332905Y-137892511D01*
X90308053Y-137862040D01*
X90295710Y-137853577D01*
X90284737Y-137859868D01*
X89727417Y-138417188D01*
X89719803Y-138431132D01*
X89348961Y-138431132D01*
X89350197Y-138428868D01*
X89350066Y-138427035D01*
X89345815Y-138420420D01*
X88785842Y-137860447D01*
X88772457Y-137853138D01*
X88762531Y-137860147D01*
X88744678Y-137881423D01*
X88737750Y-137891541D01*
X88653175Y-138045381D01*
X88648345Y-138056651D01*
X88595264Y-138223984D01*
X88592714Y-138235978D01*
X88573146Y-138410435D01*
X88572975Y-138422704D01*
X87957423Y-138422704D01*
X87939795Y-138242926D01*
X87885465Y-138062977D01*
X87797218Y-137897008D01*
X87678415Y-137751340D01*
X87592851Y-137680555D01*
X87579302Y-137669346D01*
X88958785Y-137669346D01*
X88965160Y-137680555D01*
X89522188Y-138237583D01*
X89536132Y-138245197D01*
X89537965Y-138245066D01*
X89544580Y-138240815D01*
X90104354Y-137681041D01*
X90111596Y-137667778D01*
X90104410Y-137657676D01*
X90078044Y-137635865D01*
X90067879Y-137629008D01*
X89913456Y-137545512D01*
X89902150Y-137540760D01*
X89734452Y-137488849D01*
X89722439Y-137486383D01*
X89547848Y-137468032D01*
X89535580Y-137467947D01*
X89360759Y-137483857D01*
X89348710Y-137486155D01*
X89180300Y-137535721D01*
X89168932Y-137540314D01*
X89013356Y-137621647D01*
X89003095Y-137628361D01*
X88967252Y-137657180D01*
X88958785Y-137669346D01*
X87579302Y-137669346D01*
X87538329Y-137635450D01*
X87538324Y-137635447D01*
X87533580Y-137631522D01*
X87528161Y-137628592D01*
X87528158Y-137628590D01*
X87458671Y-137591019D01*
X87368231Y-137542119D01*
X87188666Y-137486534D01*
X87182541Y-137485890D01*
X87182540Y-137485890D01*
X87007852Y-137467529D01*
X87007851Y-137467529D01*
X87001724Y-137466885D01*
X86924673Y-137473897D01*
X86820665Y-137483363D01*
X86820662Y-137483364D01*
X86814526Y-137483922D01*
X86808620Y-137485660D01*
X86808616Y-137485661D01*
X86675278Y-137524905D01*
X86634202Y-137536994D01*
X86467621Y-137624080D01*
X86321128Y-137741864D01*
X86317170Y-137746582D01*
X86317167Y-137746584D01*
X86229797Y-137850708D01*
X86200302Y-137885859D01*
X86197338Y-137891251D01*
X86197335Y-137891255D01*
X86191176Y-137902459D01*
X86109746Y-138050580D01*
X86052909Y-138229752D01*
X86031956Y-138416552D01*
X85416819Y-138416552D01*
X85399795Y-138242926D01*
X85345465Y-138062977D01*
X85257218Y-137897008D01*
X85138415Y-137751340D01*
X85052851Y-137680555D01*
X84998329Y-137635450D01*
X84998324Y-137635447D01*
X84993580Y-137631522D01*
X84988161Y-137628592D01*
X84988158Y-137628590D01*
X84918671Y-137591019D01*
X84828231Y-137542119D01*
X84648666Y-137486534D01*
X84642541Y-137485890D01*
X84642540Y-137485890D01*
X84467852Y-137467529D01*
X84467851Y-137467529D01*
X84461724Y-137466885D01*
X84384673Y-137473897D01*
X84280665Y-137483363D01*
X84280662Y-137483364D01*
X84274526Y-137483922D01*
X84268620Y-137485660D01*
X84268616Y-137485661D01*
X84135278Y-137524905D01*
X84094202Y-137536994D01*
X83927621Y-137624080D01*
X83781128Y-137741864D01*
X83777170Y-137746582D01*
X83777167Y-137746584D01*
X83689797Y-137850708D01*
X83660302Y-137885859D01*
X83657338Y-137891251D01*
X83657335Y-137891255D01*
X83651176Y-137902459D01*
X83569746Y-138050580D01*
X83512909Y-138229752D01*
X83491956Y-138416552D01*
X82876819Y-138416552D01*
X82859795Y-138242926D01*
X82805465Y-138062977D01*
X82717218Y-137897008D01*
X82598415Y-137751340D01*
X82512851Y-137680555D01*
X82458329Y-137635450D01*
X82458324Y-137635447D01*
X82453580Y-137631522D01*
X82448161Y-137628592D01*
X82448158Y-137628590D01*
X82378671Y-137591019D01*
X82288231Y-137542119D01*
X82108666Y-137486534D01*
X82102541Y-137485890D01*
X82102540Y-137485890D01*
X81927852Y-137467529D01*
X81927851Y-137467529D01*
X81921724Y-137466885D01*
X81844673Y-137473897D01*
X81740665Y-137483363D01*
X81740662Y-137483364D01*
X81734526Y-137483922D01*
X81728620Y-137485660D01*
X81728616Y-137485661D01*
X81595278Y-137524905D01*
X81554202Y-137536994D01*
X81387621Y-137624080D01*
X81241128Y-137741864D01*
X81237170Y-137746582D01*
X81237167Y-137746584D01*
X81149797Y-137850708D01*
X81120302Y-137885859D01*
X81117338Y-137891251D01*
X81117335Y-137891255D01*
X81111176Y-137902459D01*
X81029746Y-138050580D01*
X80972909Y-138229752D01*
X80951956Y-138416552D01*
X78099468Y-138416552D01*
X79048535Y-137467485D01*
X79048538Y-137467481D01*
X79071326Y-137444693D01*
X79081455Y-137424814D01*
X79091784Y-137407959D01*
X79099075Y-137397923D01*
X79104905Y-137389899D01*
X79111801Y-137368674D01*
X79119367Y-137350408D01*
X79124997Y-137339358D01*
X79129498Y-137330525D01*
X79132989Y-137308483D01*
X79137605Y-137289257D01*
X79141435Y-137277470D01*
X79141435Y-137277468D01*
X79144500Y-137268036D01*
X79144500Y-136971378D01*
X79164502Y-136903257D01*
X79188669Y-136875567D01*
X79219536Y-136849204D01*
X79225314Y-136844269D01*
X79317755Y-136715624D01*
X79376842Y-136568641D01*
X79399162Y-136411807D01*
X79399307Y-136398000D01*
X79380276Y-136240733D01*
X79324280Y-136092546D01*
X79234553Y-135961992D01*
X79116275Y-135856611D01*
X78976274Y-135782484D01*
X78822633Y-135743892D01*
X78815034Y-135743852D01*
X78815033Y-135743852D01*
X78746425Y-135743493D01*
X78664221Y-135743062D01*
X78656835Y-135744835D01*
X78655800Y-135744955D01*
X78585832Y-135732915D01*
X78552227Y-135708888D01*
X77629914Y-134786576D01*
X77617412Y-134771096D01*
X77614475Y-134767869D01*
X77608825Y-134759118D01*
X77584562Y-134739991D01*
X77580567Y-134736441D01*
X77580483Y-134736540D01*
X77576520Y-134733182D01*
X77572844Y-134729506D01*
X77568614Y-134726483D01*
X77558348Y-134719146D01*
X77553605Y-134715585D01*
X77524325Y-134692503D01*
X77524321Y-134692501D01*
X77516143Y-134686054D01*
X77508075Y-134683221D01*
X77501115Y-134678247D01*
X77455414Y-134664580D01*
X77449765Y-134662744D01*
X77412269Y-134649576D01*
X77412270Y-134649576D01*
X77404792Y-134646950D01*
X77399596Y-134646500D01*
X77396891Y-134646500D01*
X77394635Y-134646403D01*
X77394159Y-134646260D01*
X77394161Y-134646214D01*
X77393962Y-134646201D01*
X77388045Y-134644432D01*
X77338411Y-134646382D01*
X77337876Y-134646403D01*
X77332930Y-134646500D01*
X75165864Y-134646500D01*
X75097743Y-134626498D01*
X75062025Y-134591868D01*
X75047857Y-134571253D01*
X75047853Y-134571248D01*
X75043553Y-134564992D01*
X74925275Y-134459611D01*
X74917889Y-134455700D01*
X74791988Y-134389039D01*
X74791989Y-134389039D01*
X74785274Y-134385484D01*
X74631633Y-134346892D01*
X74624034Y-134346852D01*
X74624033Y-134346852D01*
X74558181Y-134346507D01*
X74473221Y-134346062D01*
X74465841Y-134347834D01*
X74465839Y-134347834D01*
X74326563Y-134381271D01*
X74326560Y-134381272D01*
X74319184Y-134383043D01*
X74178414Y-134455700D01*
X74059039Y-134559838D01*
X73967950Y-134689444D01*
X73910406Y-134837037D01*
X73889729Y-134994096D01*
X73907113Y-135151553D01*
X73961553Y-135300319D01*
X74049908Y-135431805D01*
X74167076Y-135538419D01*
X74306293Y-135614008D01*
X74459522Y-135654207D01*
X74543477Y-135655526D01*
X74610319Y-135656576D01*
X74610322Y-135656576D01*
X74617916Y-135656695D01*
X74772332Y-135621329D01*
X74842742Y-135585917D01*
X74907072Y-135553563D01*
X74907075Y-135553561D01*
X74913855Y-135550151D01*
X74919626Y-135545222D01*
X74919629Y-135545220D01*
X75028536Y-135452204D01*
X75028536Y-135452203D01*
X75034314Y-135447269D01*
X75062552Y-135407971D01*
X75118543Y-135364326D01*
X75164872Y-135355500D01*
X77143971Y-135355500D01*
X77212092Y-135375502D01*
X77233066Y-135392405D01*
X78054362Y-136213701D01*
X78088388Y-136276013D01*
X78090189Y-136319241D01*
X78080729Y-136391096D01*
X78098113Y-136548553D01*
X78152553Y-136697319D01*
X78156789Y-136703622D01*
X78156789Y-136703623D01*
X78236674Y-136822505D01*
X78236677Y-136822508D01*
X78240908Y-136828805D01*
X78246522Y-136833913D01*
X78294300Y-136877388D01*
X78331222Y-136938029D01*
X78335500Y-136970582D01*
X78335500Y-136984230D01*
X78315498Y-137052351D01*
X78298595Y-137073325D01*
X74716325Y-140655595D01*
X74654013Y-140689621D01*
X74627230Y-140692500D01*
X72586906Y-140692500D01*
X72518785Y-140672498D01*
X72503087Y-140660577D01*
X72431111Y-140596449D01*
X72385275Y-140555611D01*
X72377889Y-140551700D01*
X72251988Y-140485039D01*
X72251989Y-140485039D01*
X72245274Y-140481484D01*
X72091633Y-140442892D01*
X72084034Y-140442852D01*
X72084033Y-140442852D01*
X72018181Y-140442507D01*
X71933221Y-140442062D01*
X71925841Y-140443834D01*
X71925839Y-140443834D01*
X71786563Y-140477271D01*
X71786560Y-140477272D01*
X71779184Y-140479043D01*
X71638414Y-140551700D01*
X71519039Y-140655838D01*
X71427950Y-140785444D01*
X71370406Y-140933037D01*
X71369414Y-140940570D01*
X71369414Y-140940571D01*
X71368117Y-140950427D01*
X71349729Y-141090096D01*
X59690000Y-141090096D01*
X59690000Y-99075602D01*
X60116899Y-99075602D01*
X60118542Y-99100676D01*
X60120343Y-99112046D01*
X60167443Y-99297502D01*
X60171284Y-99308348D01*
X60251394Y-99482120D01*
X60257145Y-99492081D01*
X60367579Y-99648343D01*
X60375057Y-99657098D01*
X60512114Y-99790612D01*
X60521058Y-99797855D01*
X60680156Y-99904161D01*
X60690266Y-99909651D01*
X60866077Y-99985185D01*
X60877020Y-99988740D01*
X61063647Y-100030970D01*
X61070383Y-100031857D01*
X61084302Y-100028357D01*
X61084658Y-100027978D01*
X61087000Y-100018144D01*
X61087000Y-100012095D01*
X61341000Y-100012095D01*
X61344966Y-100025601D01*
X61358966Y-100027605D01*
X61467106Y-100011926D01*
X61478302Y-100009238D01*
X61659497Y-99947730D01*
X61669994Y-99943056D01*
X61836958Y-99849552D01*
X61846430Y-99843042D01*
X61993553Y-99720682D01*
X62001682Y-99712553D01*
X62124042Y-99565430D01*
X62130552Y-99555958D01*
X62224056Y-99388994D01*
X62228730Y-99378497D01*
X62290238Y-99197302D01*
X62292926Y-99186106D01*
X62308610Y-99077929D01*
X62306624Y-99063993D01*
X62293056Y-99060000D01*
X61359115Y-99060000D01*
X61343876Y-99064475D01*
X61342671Y-99065865D01*
X61341000Y-99073548D01*
X61341000Y-100012095D01*
X61087000Y-100012095D01*
X61087000Y-99078115D01*
X61082525Y-99062876D01*
X61081135Y-99061671D01*
X61073452Y-99060000D01*
X60133991Y-99060000D01*
X60118951Y-99064416D01*
X60116899Y-99075602D01*
X59690000Y-99075602D01*
X59690000Y-98788012D01*
X60119375Y-98788012D01*
X60121817Y-98802431D01*
X60134559Y-98806000D01*
X61068885Y-98806000D01*
X61084124Y-98801525D01*
X61085329Y-98800135D01*
X61087000Y-98792452D01*
X61087000Y-98787885D01*
X61341000Y-98787885D01*
X61345475Y-98803124D01*
X61346865Y-98804329D01*
X61354548Y-98806000D01*
X62292945Y-98806000D01*
X62307490Y-98801729D01*
X62309553Y-98789595D01*
X62304693Y-98736707D01*
X62302595Y-98725386D01*
X62250658Y-98541231D01*
X62246533Y-98530484D01*
X62161903Y-98358871D01*
X62155893Y-98349063D01*
X62041400Y-98195739D01*
X62033710Y-98187199D01*
X61893192Y-98057304D01*
X61884067Y-98050303D01*
X61722236Y-97948195D01*
X61711989Y-97942974D01*
X61534260Y-97872068D01*
X61523232Y-97868801D01*
X61358769Y-97836088D01*
X61345894Y-97837240D01*
X61341000Y-97852396D01*
X61341000Y-98787885D01*
X61087000Y-98787885D01*
X61087000Y-97852678D01*
X61083194Y-97839716D01*
X61068278Y-97837780D01*
X60932737Y-97861070D01*
X60921617Y-97864050D01*
X60742095Y-97930279D01*
X60731717Y-97935229D01*
X60567273Y-98033063D01*
X60557961Y-98039829D01*
X60414097Y-98165994D01*
X60406180Y-98174337D01*
X60287718Y-98324605D01*
X60281450Y-98334256D01*
X60192360Y-98503589D01*
X60187951Y-98514232D01*
X60131210Y-98696967D01*
X60128820Y-98708211D01*
X60119375Y-98788012D01*
X59690000Y-98788012D01*
X59690000Y-96535602D01*
X60116899Y-96535602D01*
X60118542Y-96560676D01*
X60120343Y-96572046D01*
X60167443Y-96757502D01*
X60171284Y-96768348D01*
X60251394Y-96942120D01*
X60257145Y-96952081D01*
X60367579Y-97108343D01*
X60375057Y-97117098D01*
X60512114Y-97250612D01*
X60521058Y-97257855D01*
X60680156Y-97364161D01*
X60690266Y-97369651D01*
X60866077Y-97445185D01*
X60877020Y-97448740D01*
X61063647Y-97490970D01*
X61070383Y-97491857D01*
X61084302Y-97488357D01*
X61084658Y-97487978D01*
X61087000Y-97478144D01*
X61087000Y-97472095D01*
X61341000Y-97472095D01*
X61344966Y-97485601D01*
X61358966Y-97487605D01*
X61467106Y-97471926D01*
X61478302Y-97469238D01*
X61659497Y-97407730D01*
X61669994Y-97403056D01*
X61836958Y-97309552D01*
X61846430Y-97303042D01*
X61993553Y-97180682D01*
X62001682Y-97172553D01*
X62124042Y-97025430D01*
X62130552Y-97015958D01*
X62224056Y-96848994D01*
X62228730Y-96838497D01*
X62290238Y-96657302D01*
X62292926Y-96646106D01*
X62308610Y-96537929D01*
X62306624Y-96523993D01*
X62293056Y-96520000D01*
X61359115Y-96520000D01*
X61343876Y-96524475D01*
X61342671Y-96525865D01*
X61341000Y-96533548D01*
X61341000Y-97472095D01*
X61087000Y-97472095D01*
X61087000Y-96538115D01*
X61082525Y-96522876D01*
X61081135Y-96521671D01*
X61073452Y-96520000D01*
X60133991Y-96520000D01*
X60118951Y-96524416D01*
X60116899Y-96535602D01*
X59690000Y-96535602D01*
X59690000Y-95516411D01*
X59692421Y-95491829D01*
X59704446Y-95431378D01*
X59723260Y-95385958D01*
X59750471Y-95345234D01*
X59785234Y-95310471D01*
X59825958Y-95283260D01*
X59871378Y-95264446D01*
X59931829Y-95252421D01*
X59956411Y-95250000D01*
X60517605Y-95250000D01*
X60585726Y-95270002D01*
G37*
%TD.AperFunction*%
%TA.AperFunction,Conductor*%
G36*
X88964967Y-118721250D02*
G01*
X89010030Y-118750211D01*
X92118595Y-121858776D01*
X92152621Y-121921088D01*
X92155500Y-121947871D01*
X92155500Y-123258994D01*
X92135498Y-123327115D01*
X92081842Y-123373608D01*
X92011568Y-123383712D01*
X91946988Y-123354218D01*
X91911634Y-123303533D01*
X91908249Y-123294573D01*
X91897280Y-123265546D01*
X91874737Y-123232745D01*
X91811855Y-123141251D01*
X91811854Y-123141249D01*
X91807553Y-123134992D01*
X91801679Y-123129758D01*
X91741283Y-123075948D01*
X91689275Y-123029611D01*
X91681889Y-123025700D01*
X91643565Y-123005409D01*
X91549274Y-122955484D01*
X91395633Y-122916892D01*
X91388034Y-122916852D01*
X91388033Y-122916852D01*
X91322181Y-122916507D01*
X91237221Y-122916062D01*
X91229841Y-122917834D01*
X91229839Y-122917834D01*
X91090563Y-122951271D01*
X91090560Y-122951272D01*
X91083184Y-122953043D01*
X90942414Y-123025700D01*
X90823039Y-123129838D01*
X90818672Y-123136052D01*
X90818669Y-123136055D01*
X90799767Y-123162950D01*
X90744233Y-123207182D01*
X90696680Y-123216500D01*
X84869265Y-123216500D01*
X84801144Y-123196498D01*
X84793112Y-123190465D01*
X84790056Y-123186918D01*
X84775622Y-123177562D01*
X84676324Y-123113200D01*
X84676322Y-123113199D01*
X84668790Y-123108317D01*
X84651921Y-123103272D01*
X84538938Y-123069482D01*
X84538936Y-123069482D01*
X84530337Y-123066910D01*
X84521363Y-123066855D01*
X84521361Y-123066855D01*
X84458082Y-123066469D01*
X84385827Y-123066028D01*
X84377196Y-123068495D01*
X84377194Y-123068495D01*
X84255509Y-123103272D01*
X84255505Y-123103274D01*
X84246879Y-123105739D01*
X84239292Y-123110526D01*
X84239290Y-123110527D01*
X84132254Y-123178062D01*
X84124661Y-123182853D01*
X84118718Y-123189582D01*
X84118717Y-123189583D01*
X84066534Y-123248669D01*
X84028999Y-123291170D01*
X84025185Y-123299293D01*
X84025184Y-123299295D01*
X84020227Y-123309853D01*
X83967583Y-123421982D01*
X83960827Y-123465374D01*
X83948996Y-123541359D01*
X83918752Y-123605591D01*
X83913591Y-123611069D01*
X83458571Y-124066089D01*
X83396259Y-124100115D01*
X83325444Y-124095050D01*
X83268608Y-124052503D01*
X83243797Y-123985983D01*
X83256084Y-123922058D01*
X83289560Y-123852962D01*
X83313536Y-123710453D01*
X83313688Y-123698000D01*
X83297477Y-123584807D01*
X83294474Y-123563835D01*
X83294473Y-123563833D01*
X83293201Y-123554948D01*
X83233388Y-123423395D01*
X83227530Y-123416596D01*
X83227527Y-123416592D01*
X83144916Y-123320718D01*
X83144913Y-123320716D01*
X83139056Y-123313918D01*
X83065936Y-123266524D01*
X83025324Y-123240200D01*
X83025322Y-123240199D01*
X83017790Y-123235317D01*
X82962134Y-123218672D01*
X82887938Y-123196482D01*
X82887936Y-123196482D01*
X82879337Y-123193910D01*
X82870363Y-123193855D01*
X82870361Y-123193855D01*
X82807082Y-123193469D01*
X82734827Y-123193028D01*
X82726196Y-123195495D01*
X82726194Y-123195495D01*
X82604510Y-123230272D01*
X82604508Y-123230273D01*
X82595879Y-123232739D01*
X82588292Y-123237526D01*
X82584742Y-123239114D01*
X82514392Y-123248669D01*
X82450043Y-123218672D01*
X82412127Y-123158648D01*
X82408570Y-123141958D01*
X82405474Y-123120338D01*
X82405473Y-123120336D01*
X82404201Y-123111451D01*
X82398896Y-123099782D01*
X82391442Y-123083389D01*
X82344388Y-122979898D01*
X82338530Y-122973099D01*
X82338527Y-122973095D01*
X82255916Y-122877221D01*
X82255913Y-122877219D01*
X82250056Y-122870421D01*
X82161032Y-122812718D01*
X82136324Y-122796703D01*
X82136322Y-122796702D01*
X82128790Y-122791820D01*
X82111921Y-122786775D01*
X81998938Y-122752985D01*
X81998936Y-122752985D01*
X81990337Y-122750413D01*
X81981363Y-122750358D01*
X81981361Y-122750358D01*
X81918082Y-122749972D01*
X81845827Y-122749531D01*
X81837196Y-122751998D01*
X81837194Y-122751998D01*
X81715509Y-122786775D01*
X81715505Y-122786777D01*
X81706879Y-122789242D01*
X81699292Y-122794029D01*
X81699290Y-122794030D01*
X81592254Y-122861565D01*
X81584661Y-122866356D01*
X81578718Y-122873085D01*
X81578717Y-122873086D01*
X81534132Y-122923569D01*
X81488999Y-122974673D01*
X81427583Y-123105485D01*
X81426203Y-123114349D01*
X81426202Y-123114352D01*
X81417552Y-123169911D01*
X81409960Y-123218672D01*
X81408996Y-123224862D01*
X81378752Y-123289095D01*
X81373591Y-123294573D01*
X81248618Y-123419546D01*
X81186306Y-123453572D01*
X81159523Y-123456451D01*
X80558802Y-123456451D01*
X80490681Y-123436449D01*
X80444188Y-123382793D01*
X80434548Y-123309546D01*
X80437068Y-123294573D01*
X80452566Y-123202453D01*
X80452718Y-123190000D01*
X80435082Y-123066855D01*
X80433504Y-123055835D01*
X80433503Y-123055833D01*
X80432231Y-123046948D01*
X80423230Y-123027150D01*
X80405462Y-122988072D01*
X80372418Y-122915395D01*
X80366560Y-122908596D01*
X80366557Y-122908592D01*
X80283946Y-122812718D01*
X80283943Y-122812716D01*
X80278086Y-122805918D01*
X80186417Y-122746501D01*
X80164354Y-122732200D01*
X80164352Y-122732199D01*
X80156820Y-122727317D01*
X80124082Y-122717526D01*
X80026968Y-122688482D01*
X80026966Y-122688482D01*
X80018367Y-122685910D01*
X80009393Y-122685855D01*
X80009391Y-122685855D01*
X79946112Y-122685469D01*
X79873857Y-122685028D01*
X79865226Y-122687495D01*
X79865224Y-122687495D01*
X79743539Y-122722272D01*
X79743535Y-122722274D01*
X79734909Y-122724739D01*
X79727322Y-122729526D01*
X79727320Y-122729527D01*
X79620853Y-122796703D01*
X79612691Y-122801853D01*
X79608918Y-122806125D01*
X79545585Y-122834372D01*
X79528760Y-122835500D01*
X78634443Y-122835500D01*
X78566322Y-122815498D01*
X78545348Y-122798595D01*
X78501028Y-122754275D01*
X78467002Y-122691963D01*
X78465396Y-122683043D01*
X78450737Y-122580683D01*
X78450736Y-122580681D01*
X78449464Y-122571796D01*
X78389651Y-122440243D01*
X78383793Y-122433444D01*
X78383790Y-122433440D01*
X78301179Y-122337566D01*
X78301176Y-122337564D01*
X78295319Y-122330766D01*
X78174053Y-122252165D01*
X78086739Y-122226052D01*
X78044201Y-122213330D01*
X78044199Y-122213330D01*
X78035600Y-122210758D01*
X78026626Y-122210703D01*
X78026624Y-122210703D01*
X77963345Y-122210317D01*
X77891090Y-122209876D01*
X77882459Y-122212343D01*
X77882457Y-122212343D01*
X77760772Y-122247120D01*
X77760768Y-122247122D01*
X77752142Y-122249587D01*
X77744555Y-122254374D01*
X77744553Y-122254375D01*
X77637517Y-122321910D01*
X77629924Y-122326701D01*
X77623981Y-122333430D01*
X77623980Y-122333431D01*
X77565392Y-122399770D01*
X77534262Y-122435018D01*
X77472846Y-122565830D01*
X77471466Y-122574694D01*
X77471465Y-122574697D01*
X77452802Y-122694564D01*
X77450613Y-122708621D01*
X77451777Y-122717523D01*
X77451777Y-122717526D01*
X77468187Y-122843012D01*
X77469351Y-122851913D01*
X77527552Y-122984187D01*
X77533326Y-122991056D01*
X77598421Y-123068495D01*
X77620539Y-123094808D01*
X77628010Y-123099781D01*
X77628011Y-123099782D01*
X77733364Y-123169911D01*
X77733366Y-123169912D01*
X77740837Y-123174885D01*
X77749401Y-123177561D01*
X77749404Y-123177562D01*
X77853820Y-123210184D01*
X77912876Y-123249590D01*
X77941253Y-123314669D01*
X77929940Y-123384759D01*
X77882531Y-123437606D01*
X77816245Y-123456451D01*
X75838016Y-123456451D01*
X75769895Y-123436449D01*
X75748921Y-123419546D01*
X74479547Y-122150172D01*
X74445521Y-122087860D01*
X74450586Y-122017045D01*
X74493133Y-121960209D01*
X74563678Y-121935175D01*
X74565352Y-121935109D01*
X74570316Y-121935011D01*
X75912607Y-121935011D01*
X75980728Y-121955013D01*
X75986190Y-121959168D01*
X75987276Y-121960460D01*
X75992173Y-121963719D01*
X75992172Y-121963719D01*
X76100101Y-122035563D01*
X76100103Y-122035564D01*
X76107574Y-122040537D01*
X76116138Y-122043213D01*
X76116141Y-122043214D01*
X76176542Y-122062085D01*
X76245510Y-122083632D01*
X76389998Y-122086280D01*
X76409530Y-122080955D01*
X76520763Y-122050630D01*
X76520765Y-122050629D01*
X76529422Y-122048269D01*
X76652572Y-121972654D01*
X76658595Y-121966000D01*
X76660938Y-121964055D01*
X76726127Y-121935932D01*
X76741422Y-121935000D01*
X80122760Y-121935000D01*
X80192579Y-121956113D01*
X80249590Y-121994063D01*
X80249592Y-121994064D01*
X80257063Y-121999037D01*
X80265627Y-122001713D01*
X80265630Y-122001714D01*
X80288385Y-122008823D01*
X80394999Y-122042132D01*
X80433360Y-122042835D01*
X80501102Y-122064082D01*
X80546604Y-122118581D01*
X80555551Y-122188199D01*
X80543991Y-122262445D01*
X80541693Y-122277201D01*
X80542857Y-122286103D01*
X80542857Y-122286106D01*
X80555748Y-122384685D01*
X80560431Y-122420493D01*
X80618632Y-122552767D01*
X80711619Y-122663388D01*
X80719090Y-122668361D01*
X80719091Y-122668362D01*
X80824444Y-122738491D01*
X80824446Y-122738492D01*
X80831917Y-122743465D01*
X80840481Y-122746141D01*
X80840484Y-122746142D01*
X80881029Y-122758809D01*
X80969853Y-122786560D01*
X81114341Y-122789208D01*
X81133873Y-122783883D01*
X81245106Y-122753558D01*
X81245108Y-122753557D01*
X81253765Y-122751197D01*
X81376915Y-122675582D01*
X81473894Y-122568442D01*
X81523076Y-122466929D01*
X81532988Y-122446471D01*
X81532988Y-122446470D01*
X81536903Y-122438390D01*
X81560879Y-122295881D01*
X81561031Y-122283428D01*
X81540544Y-122140376D01*
X81480731Y-122008823D01*
X81417924Y-121935932D01*
X81411047Y-121927951D01*
X81381733Y-121863289D01*
X81380500Y-121845703D01*
X81380500Y-120473641D01*
X81382606Y-120453847D01*
X81382811Y-120449494D01*
X81385003Y-120439314D01*
X81381373Y-120408644D01*
X81381058Y-120403301D01*
X81380928Y-120403312D01*
X81380500Y-120398132D01*
X81380500Y-120392933D01*
X81379647Y-120387809D01*
X81379646Y-120387796D01*
X81377573Y-120375343D01*
X81376736Y-120369468D01*
X81372355Y-120332455D01*
X81371131Y-120322114D01*
X81367430Y-120314406D01*
X81366025Y-120305967D01*
X81343371Y-120263983D01*
X81340690Y-120258720D01*
X81323475Y-120222870D01*
X81320045Y-120215726D01*
X81316689Y-120211734D01*
X81314742Y-120209787D01*
X81313252Y-120208162D01*
X81313019Y-120207730D01*
X81313055Y-120207697D01*
X81312916Y-120207539D01*
X81309983Y-120202104D01*
X81273131Y-120168038D01*
X81269565Y-120164610D01*
X81138235Y-120033280D01*
X80991021Y-119886067D01*
X80978519Y-119870587D01*
X80975580Y-119867357D01*
X80969930Y-119858607D01*
X80945667Y-119839480D01*
X80941672Y-119835930D01*
X80941588Y-119836029D01*
X80937625Y-119832671D01*
X80933949Y-119828995D01*
X80929719Y-119825972D01*
X80919453Y-119818635D01*
X80914710Y-119815074D01*
X80885430Y-119791992D01*
X80885426Y-119791990D01*
X80877248Y-119785543D01*
X80869180Y-119782710D01*
X80862220Y-119777736D01*
X80852242Y-119774752D01*
X80816519Y-119764069D01*
X80810870Y-119762233D01*
X80773374Y-119749065D01*
X80773375Y-119749065D01*
X80765897Y-119746439D01*
X80760701Y-119745989D01*
X80757996Y-119745989D01*
X80755740Y-119745892D01*
X80755264Y-119745749D01*
X80755266Y-119745703D01*
X80755067Y-119745690D01*
X80749150Y-119743921D01*
X80699516Y-119745871D01*
X80698981Y-119745892D01*
X80694035Y-119745989D01*
X79786519Y-119745989D01*
X79718398Y-119725987D01*
X79697425Y-119709086D01*
X79661766Y-119673428D01*
X79627740Y-119611116D01*
X79626133Y-119602193D01*
X79623363Y-119582851D01*
X79633505Y-119512583D01*
X79680028Y-119458953D01*
X79748090Y-119438989D01*
X88039577Y-119438989D01*
X88049009Y-119435924D01*
X88049011Y-119435924D01*
X88060798Y-119432094D01*
X88080024Y-119427478D01*
X88092273Y-119425538D01*
X88102066Y-119423987D01*
X88121950Y-119413855D01*
X88140216Y-119406290D01*
X88152007Y-119402459D01*
X88161440Y-119399394D01*
X88179499Y-119386274D01*
X88196355Y-119375945D01*
X88207397Y-119370319D01*
X88207403Y-119370315D01*
X88216234Y-119365815D01*
X88239011Y-119343038D01*
X88239040Y-119343011D01*
X88831840Y-118750211D01*
X88894152Y-118716185D01*
X88964967Y-118721250D01*
G37*
%TD.AperFunction*%
%TA.AperFunction,Conductor*%
G36*
X77027905Y-119609311D02*
G01*
X77084741Y-119651858D01*
X77109552Y-119718378D01*
X77108373Y-119746752D01*
X77088731Y-119872900D01*
X77088731Y-119872904D01*
X77087350Y-119881773D01*
X77088514Y-119890675D01*
X77088514Y-119890678D01*
X77104636Y-120013960D01*
X77106088Y-120025065D01*
X77164289Y-120157339D01*
X77170063Y-120164208D01*
X77213369Y-120215726D01*
X77257276Y-120267960D01*
X77264747Y-120272933D01*
X77264748Y-120272934D01*
X77370101Y-120343063D01*
X77370103Y-120343064D01*
X77377574Y-120348037D01*
X77386138Y-120350713D01*
X77386141Y-120350714D01*
X77446169Y-120369468D01*
X77515510Y-120391132D01*
X77549514Y-120391755D01*
X77617256Y-120413002D01*
X77636300Y-120428639D01*
X77669066Y-120461405D01*
X77703092Y-120523717D01*
X77698027Y-120594532D01*
X77655480Y-120651368D01*
X77588960Y-120676179D01*
X77579971Y-120676500D01*
X75979265Y-120676500D01*
X75911144Y-120656498D01*
X75903112Y-120650465D01*
X75900056Y-120646918D01*
X75886393Y-120638062D01*
X75786324Y-120573200D01*
X75786322Y-120573199D01*
X75778790Y-120568317D01*
X75761921Y-120563272D01*
X75648938Y-120529482D01*
X75648936Y-120529482D01*
X75640337Y-120526910D01*
X75631363Y-120526855D01*
X75631361Y-120526855D01*
X75568082Y-120526469D01*
X75495827Y-120526028D01*
X75487196Y-120528495D01*
X75487194Y-120528495D01*
X75365509Y-120563272D01*
X75365505Y-120563274D01*
X75356879Y-120565739D01*
X75349292Y-120570526D01*
X75349290Y-120570527D01*
X75244790Y-120636462D01*
X75234661Y-120642853D01*
X75230888Y-120647125D01*
X75167555Y-120675372D01*
X75150730Y-120676500D01*
X74774770Y-120676500D01*
X74706649Y-120656498D01*
X74685675Y-120639595D01*
X74218206Y-120172126D01*
X74184180Y-120109814D01*
X74189245Y-120038999D01*
X74231792Y-119982163D01*
X74243716Y-119975249D01*
X74243422Y-119974769D01*
X74316132Y-119930125D01*
X74382060Y-119911500D01*
X76518066Y-119911500D01*
X76527498Y-119908435D01*
X76527500Y-119908435D01*
X76539287Y-119904605D01*
X76558513Y-119899989D01*
X76570762Y-119898049D01*
X76580555Y-119896498D01*
X76600439Y-119886366D01*
X76618705Y-119878801D01*
X76630496Y-119874970D01*
X76639929Y-119871905D01*
X76657989Y-119858784D01*
X76674846Y-119848454D01*
X76694723Y-119838326D01*
X76717501Y-119815548D01*
X76717516Y-119815534D01*
X76796273Y-119736777D01*
X76894778Y-119638271D01*
X76957089Y-119604247D01*
X77027905Y-119609311D01*
G37*
%TD.AperFunction*%
%TA.AperFunction,Conductor*%
G36*
X72334532Y-100203628D02*
G01*
X72391368Y-100246175D01*
X72416179Y-100312695D01*
X72416500Y-100321684D01*
X72416500Y-119740008D01*
X72414394Y-119759801D01*
X72414189Y-119764155D01*
X72411997Y-119774335D01*
X72413221Y-119784674D01*
X72413173Y-119785685D01*
X72389984Y-119852788D01*
X72334198Y-119896701D01*
X72263526Y-119903483D01*
X72198218Y-119868844D01*
X70804965Y-118475591D01*
X70770939Y-118413279D01*
X70768060Y-118386496D01*
X70768060Y-101718124D01*
X70788062Y-101650003D01*
X70804965Y-101629029D01*
X72201405Y-100232589D01*
X72263717Y-100198563D01*
X72334532Y-100203628D01*
G37*
%TD.AperFunction*%
%TA.AperFunction,Conductor*%
G36*
X73733532Y-117583825D02*
G01*
X73740115Y-117589954D01*
X74008749Y-117858588D01*
X74042775Y-117920900D01*
X74044590Y-117931345D01*
X74058088Y-118034565D01*
X74116289Y-118166839D01*
X74122063Y-118173708D01*
X74186615Y-118250501D01*
X74209276Y-118277460D01*
X74216747Y-118282433D01*
X74216748Y-118282434D01*
X74322101Y-118352563D01*
X74322103Y-118352564D01*
X74329574Y-118357537D01*
X74338138Y-118360213D01*
X74338141Y-118360214D01*
X74398542Y-118379085D01*
X74467510Y-118400632D01*
X74611998Y-118403280D01*
X74673562Y-118386496D01*
X74742763Y-118367630D01*
X74742765Y-118367629D01*
X74751422Y-118365269D01*
X74874572Y-118289654D01*
X74971551Y-118182514D01*
X74987377Y-118149849D01*
X75030944Y-118059927D01*
X75078646Y-118007344D01*
X75147205Y-117988898D01*
X75214852Y-118010445D01*
X75233431Y-118025770D01*
X75786749Y-118579088D01*
X75820775Y-118641400D01*
X75822590Y-118651845D01*
X75836088Y-118755065D01*
X75894289Y-118887339D01*
X75900061Y-118894206D01*
X75900065Y-118894212D01*
X75901086Y-118895426D01*
X75901718Y-118896868D01*
X75904809Y-118901833D01*
X75904092Y-118902279D01*
X75929607Y-118960442D01*
X75918449Y-119030556D01*
X75871157Y-119083508D01*
X75804634Y-119102500D01*
X74381817Y-119102500D01*
X74313287Y-119082233D01*
X74254790Y-119044317D01*
X74237921Y-119039272D01*
X74124938Y-119005482D01*
X74124936Y-119005482D01*
X74116337Y-119002910D01*
X74107363Y-119002855D01*
X74107361Y-119002855D01*
X74044082Y-119002469D01*
X73971827Y-119002028D01*
X73963196Y-119004495D01*
X73963194Y-119004495D01*
X73841509Y-119039272D01*
X73841505Y-119039274D01*
X73832879Y-119041739D01*
X73736579Y-119102500D01*
X73718256Y-119114061D01*
X73649971Y-119133495D01*
X73582019Y-119112926D01*
X73535974Y-119058885D01*
X73525020Y-119007499D01*
X73525020Y-117679049D01*
X73545022Y-117610928D01*
X73598678Y-117564435D01*
X73668952Y-117554331D01*
X73733532Y-117583825D01*
G37*
%TD.AperFunction*%
%TA.AperFunction,Conductor*%
G36*
X68127012Y-99786639D02*
G01*
X68131482Y-99790746D01*
X68131797Y-99791001D01*
X68135938Y-99795035D01*
X68304720Y-99907812D01*
X68310023Y-99910090D01*
X68310026Y-99910092D01*
X68484292Y-99984962D01*
X68491228Y-99987942D01*
X68537985Y-99998522D01*
X68683579Y-100031467D01*
X68683584Y-100031468D01*
X68689216Y-100032742D01*
X68694987Y-100032969D01*
X68694989Y-100032969D01*
X68739448Y-100034716D01*
X68806731Y-100057378D01*
X68851081Y-100112818D01*
X68860500Y-100160619D01*
X68860500Y-118486960D01*
X68840498Y-118555081D01*
X68786842Y-118601574D01*
X68716568Y-118611678D01*
X68651988Y-118582184D01*
X68645405Y-118576055D01*
X67955405Y-117886055D01*
X67921379Y-117823743D01*
X67918500Y-117796960D01*
X67918500Y-99881863D01*
X67938502Y-99813742D01*
X67992158Y-99767249D01*
X68062432Y-99757145D01*
X68127012Y-99786639D01*
G37*
%TD.AperFunction*%
%TA.AperFunction,Conductor*%
G36*
X67138149Y-99763409D02*
G01*
X67190854Y-99810978D01*
X67209500Y-99876941D01*
X67209500Y-117400966D01*
X67189498Y-117469087D01*
X67135842Y-117515580D01*
X67065568Y-117525684D01*
X67000988Y-117496190D01*
X66994405Y-117490061D01*
X66556394Y-117052050D01*
X66522368Y-116989738D01*
X66519489Y-116962955D01*
X66519489Y-106716281D01*
X66539491Y-106648160D01*
X66556394Y-106627186D01*
X66635423Y-106548157D01*
X66650909Y-106535649D01*
X66654134Y-106532715D01*
X66662882Y-106527066D01*
X66682003Y-106502811D01*
X66685559Y-106498810D01*
X66685459Y-106498725D01*
X66688812Y-106494768D01*
X66692494Y-106491086D01*
X66702882Y-106476550D01*
X66706401Y-106471863D01*
X66735946Y-106434384D01*
X66738779Y-106426316D01*
X66743753Y-106419356D01*
X66757420Y-106373655D01*
X66759256Y-106368006D01*
X66772424Y-106330510D01*
X66775050Y-106323033D01*
X66775500Y-106317837D01*
X66775500Y-106315132D01*
X66775597Y-106312876D01*
X66775740Y-106312400D01*
X66775786Y-106312402D01*
X66775799Y-106312203D01*
X66777568Y-106306286D01*
X66775597Y-106256117D01*
X66775500Y-106251171D01*
X66775500Y-100003196D01*
X66795502Y-99935075D01*
X66839933Y-99893262D01*
X66917234Y-99849971D01*
X66917237Y-99849969D01*
X66922276Y-99847147D01*
X67002931Y-99780067D01*
X67068094Y-99751886D01*
X67138149Y-99763409D01*
G37*
%TD.AperFunction*%
%TA.AperFunction,Conductor*%
G36*
X76779532Y-112828714D02*
G01*
X76836368Y-112871261D01*
X76861179Y-112937781D01*
X76861500Y-112946770D01*
X76861500Y-116939536D01*
X76841498Y-117007657D01*
X76829938Y-117022947D01*
X76817949Y-117036521D01*
X76757862Y-117074337D01*
X76686869Y-117073664D01*
X76634416Y-117042205D01*
X76145894Y-116553683D01*
X76111868Y-116491371D01*
X76108989Y-116464588D01*
X76108989Y-113447282D01*
X76128991Y-113379161D01*
X76145893Y-113358187D01*
X76646405Y-112857675D01*
X76708717Y-112823650D01*
X76779532Y-112828714D01*
G37*
%TD.AperFunction*%
%TA.AperFunction,Conductor*%
G36*
X65585001Y-99784680D02*
G01*
X65590409Y-99789649D01*
X65595938Y-99795035D01*
X65764720Y-99907812D01*
X65770023Y-99910090D01*
X65770026Y-99910092D01*
X65814842Y-99929346D01*
X65951228Y-99987942D01*
X65956860Y-99989216D01*
X65956862Y-99989217D01*
X65968311Y-99991808D01*
X66030337Y-100026352D01*
X66063840Y-100088946D01*
X66066500Y-100114700D01*
X66066500Y-106062211D01*
X66046498Y-106130332D01*
X66029596Y-106151306D01*
X65950567Y-106230336D01*
X65935087Y-106242838D01*
X65931857Y-106245777D01*
X65923107Y-106251427D01*
X65903980Y-106275690D01*
X65900430Y-106279685D01*
X65900529Y-106279769D01*
X65897171Y-106283732D01*
X65893495Y-106287408D01*
X65890472Y-106291637D01*
X65890472Y-106291638D01*
X65883135Y-106301904D01*
X65879574Y-106306647D01*
X65856492Y-106335927D01*
X65856490Y-106335931D01*
X65850043Y-106344109D01*
X65847210Y-106352177D01*
X65842236Y-106359137D01*
X65839252Y-106369115D01*
X65828569Y-106404838D01*
X65826733Y-106410487D01*
X65810939Y-106455460D01*
X65810489Y-106460656D01*
X65810489Y-106463361D01*
X65810392Y-106465617D01*
X65810249Y-106466093D01*
X65810203Y-106466091D01*
X65810190Y-106466290D01*
X65808421Y-106472207D01*
X65809163Y-106491086D01*
X65810392Y-106522376D01*
X65810489Y-106527322D01*
X65810489Y-116566961D01*
X65790487Y-116635082D01*
X65736831Y-116681575D01*
X65666557Y-116691679D01*
X65601977Y-116662185D01*
X65595394Y-116656056D01*
X65413394Y-116474056D01*
X65379368Y-116411744D01*
X65376489Y-116384961D01*
X65376489Y-99879904D01*
X65396491Y-99811783D01*
X65450147Y-99765290D01*
X65520421Y-99755186D01*
X65585001Y-99784680D01*
G37*
%TD.AperFunction*%
%TA.AperFunction,Conductor*%
G36*
X64596139Y-99765083D02*
G01*
X64648843Y-99812651D01*
X64667489Y-99878614D01*
X64667489Y-115988967D01*
X64647487Y-116057088D01*
X64593831Y-116103581D01*
X64523557Y-116113685D01*
X64458977Y-116084191D01*
X64452394Y-116078062D01*
X63637405Y-115263073D01*
X63603379Y-115200761D01*
X63600500Y-115173978D01*
X63600500Y-100163448D01*
X63620502Y-100095327D01*
X63674158Y-100048834D01*
X63731447Y-100037545D01*
X63759994Y-100038666D01*
X63812053Y-100040712D01*
X63927038Y-100024040D01*
X64007231Y-100012413D01*
X64007236Y-100012412D01*
X64012945Y-100011584D01*
X64018409Y-100009729D01*
X64018414Y-100009728D01*
X64199693Y-99948192D01*
X64199698Y-99948190D01*
X64205165Y-99946334D01*
X64211019Y-99943056D01*
X64308499Y-99888464D01*
X64382276Y-99847147D01*
X64387288Y-99842979D01*
X64460919Y-99781740D01*
X64526084Y-99753559D01*
X64596139Y-99765083D01*
G37*
%TD.AperFunction*%
%TA.AperFunction,Conductor*%
G36*
X78364747Y-95270002D02*
G01*
X78411240Y-95323658D01*
X78421344Y-95393932D01*
X78391850Y-95458512D01*
X78361049Y-95484285D01*
X78346978Y-95492656D01*
X78346975Y-95492658D01*
X78342010Y-95495612D01*
X78337670Y-95499418D01*
X78337666Y-95499421D01*
X78193733Y-95625648D01*
X78189392Y-95629455D01*
X78063720Y-95788869D01*
X78061031Y-95793980D01*
X78061029Y-95793983D01*
X78048073Y-95818609D01*
X77969203Y-95968515D01*
X77909007Y-96162378D01*
X77885148Y-96363964D01*
X77898424Y-96566522D01*
X77899845Y-96572118D01*
X77899846Y-96572123D01*
X77920119Y-96651945D01*
X77948392Y-96763269D01*
X77950809Y-96768512D01*
X78007826Y-96892192D01*
X78033377Y-96947616D01*
X78150533Y-97113389D01*
X78295938Y-97255035D01*
X78464720Y-97367812D01*
X78470023Y-97370090D01*
X78470026Y-97370092D01*
X78639073Y-97442720D01*
X78651228Y-97447942D01*
X78719923Y-97463486D01*
X78843579Y-97491467D01*
X78843584Y-97491468D01*
X78849216Y-97492742D01*
X78854987Y-97492969D01*
X78854989Y-97492969D01*
X78914756Y-97495317D01*
X79052053Y-97500712D01*
X79156272Y-97485601D01*
X79247231Y-97472413D01*
X79247236Y-97472412D01*
X79252945Y-97471584D01*
X79258409Y-97469729D01*
X79258414Y-97469728D01*
X79439693Y-97408192D01*
X79439698Y-97408190D01*
X79445165Y-97406334D01*
X79451019Y-97403056D01*
X79559504Y-97342301D01*
X79622276Y-97307147D01*
X79645113Y-97288154D01*
X79773913Y-97181031D01*
X79778345Y-97177345D01*
X79870222Y-97066876D01*
X79904453Y-97025718D01*
X79904455Y-97025715D01*
X79908147Y-97021276D01*
X80007334Y-96844165D01*
X80009190Y-96838698D01*
X80009192Y-96838693D01*
X80070728Y-96657414D01*
X80070729Y-96657409D01*
X80072584Y-96651945D01*
X80073412Y-96646236D01*
X80073413Y-96646231D01*
X80101179Y-96454727D01*
X80101712Y-96451053D01*
X80103232Y-96393000D01*
X80091562Y-96266000D01*
X80085187Y-96196613D01*
X80085186Y-96196610D01*
X80084658Y-96190859D01*
X80078271Y-96168211D01*
X80031125Y-96001046D01*
X80031124Y-96001044D01*
X80029557Y-95995487D01*
X80019076Y-95974232D01*
X79942331Y-95818609D01*
X79939776Y-95813428D01*
X79818320Y-95650779D01*
X79669258Y-95512987D01*
X79621036Y-95482561D01*
X79574098Y-95429296D01*
X79563409Y-95359108D01*
X79592363Y-95294284D01*
X79651768Y-95255404D01*
X79688272Y-95250000D01*
X80836626Y-95250000D01*
X80904747Y-95270002D01*
X80951240Y-95323658D01*
X80961344Y-95393932D01*
X80931850Y-95458512D01*
X80901049Y-95484285D01*
X80886978Y-95492656D01*
X80886975Y-95492658D01*
X80882010Y-95495612D01*
X80877670Y-95499418D01*
X80877666Y-95499421D01*
X80733733Y-95625648D01*
X80729392Y-95629455D01*
X80603720Y-95788869D01*
X80601031Y-95793980D01*
X80601029Y-95793983D01*
X80588073Y-95818609D01*
X80509203Y-95968515D01*
X80449007Y-96162378D01*
X80425148Y-96363964D01*
X80438424Y-96566522D01*
X80439845Y-96572118D01*
X80439846Y-96572123D01*
X80460119Y-96651945D01*
X80488392Y-96763269D01*
X80490809Y-96768512D01*
X80547826Y-96892192D01*
X80573377Y-96947616D01*
X80690533Y-97113389D01*
X80835938Y-97255035D01*
X81004720Y-97367812D01*
X81010023Y-97370090D01*
X81010026Y-97370092D01*
X81179073Y-97442720D01*
X81191228Y-97447942D01*
X81259923Y-97463486D01*
X81383579Y-97491467D01*
X81383584Y-97491468D01*
X81389216Y-97492742D01*
X81394987Y-97492969D01*
X81394989Y-97492969D01*
X81454756Y-97495317D01*
X81592053Y-97500712D01*
X81696272Y-97485601D01*
X81787231Y-97472413D01*
X81787236Y-97472412D01*
X81792945Y-97471584D01*
X81956387Y-97416103D01*
X82027320Y-97413147D01*
X82085982Y-97446321D01*
X82292106Y-97652445D01*
X82326132Y-97714757D01*
X82329011Y-97741540D01*
X82329011Y-97900061D01*
X82309009Y-97968182D01*
X82255353Y-98014675D01*
X82185079Y-98024779D01*
X82135776Y-98006623D01*
X82042465Y-97947748D01*
X82042460Y-97947746D01*
X82037581Y-97944667D01*
X81849039Y-97869446D01*
X81843379Y-97868320D01*
X81843375Y-97868319D01*
X81655613Y-97830971D01*
X81655610Y-97830971D01*
X81649946Y-97829844D01*
X81644171Y-97829768D01*
X81644167Y-97829768D01*
X81542793Y-97828441D01*
X81446971Y-97827187D01*
X81441274Y-97828166D01*
X81441273Y-97828166D01*
X81300264Y-97852396D01*
X81246910Y-97861564D01*
X81056463Y-97931824D01*
X80882010Y-98035612D01*
X80877670Y-98039418D01*
X80877666Y-98039421D01*
X80791499Y-98114988D01*
X80729392Y-98169455D01*
X80725817Y-98173990D01*
X80725816Y-98173991D01*
X80708931Y-98195409D01*
X80603720Y-98328869D01*
X80601031Y-98333980D01*
X80601029Y-98333983D01*
X80588073Y-98358609D01*
X80509203Y-98508515D01*
X80449007Y-98702378D01*
X80425148Y-98903964D01*
X80438424Y-99106522D01*
X80439845Y-99112118D01*
X80439846Y-99112123D01*
X80460119Y-99191945D01*
X80488392Y-99303269D01*
X80490809Y-99308512D01*
X80527912Y-99388994D01*
X80573377Y-99487616D01*
X80576710Y-99492332D01*
X80670102Y-99624479D01*
X80690533Y-99653389D01*
X80694675Y-99657424D01*
X80751637Y-99712913D01*
X80835938Y-99795035D01*
X81004720Y-99907812D01*
X81010023Y-99910090D01*
X81010026Y-99910092D01*
X81184292Y-99984962D01*
X81191228Y-99987942D01*
X81237985Y-99998522D01*
X81383579Y-100031467D01*
X81383584Y-100031468D01*
X81389216Y-100032742D01*
X81394987Y-100032969D01*
X81394989Y-100032969D01*
X81454756Y-100035317D01*
X81592053Y-100040712D01*
X81707038Y-100024040D01*
X81787231Y-100012413D01*
X81787236Y-100012412D01*
X81792945Y-100011584D01*
X81798409Y-100009729D01*
X81798414Y-100009728D01*
X81979693Y-99948192D01*
X81979698Y-99948190D01*
X81985165Y-99946334D01*
X81991019Y-99943056D01*
X82141445Y-99858813D01*
X82210653Y-99842979D01*
X82277435Y-99867076D01*
X82320588Y-99923453D01*
X82329011Y-99968747D01*
X82329011Y-99982333D01*
X82309009Y-100050454D01*
X82292106Y-100071428D01*
X77636580Y-104726955D01*
X77621098Y-104739460D01*
X77617871Y-104742396D01*
X77609118Y-104748048D01*
X77589991Y-104772311D01*
X77586441Y-104776306D01*
X77586540Y-104776390D01*
X77583182Y-104780353D01*
X77579506Y-104784029D01*
X77576483Y-104788258D01*
X77576483Y-104788259D01*
X77569146Y-104798525D01*
X77565585Y-104803268D01*
X77542503Y-104832548D01*
X77542501Y-104832552D01*
X77536054Y-104840730D01*
X77533221Y-104848798D01*
X77528247Y-104855758D01*
X77525263Y-104865736D01*
X77514580Y-104901459D01*
X77512744Y-104907108D01*
X77496950Y-104952081D01*
X77496500Y-104957277D01*
X77496500Y-104959982D01*
X77496403Y-104962238D01*
X77496260Y-104962714D01*
X77496214Y-104962712D01*
X77496201Y-104962911D01*
X77494432Y-104968828D01*
X77494841Y-104979232D01*
X77496403Y-105018997D01*
X77496500Y-105023943D01*
X77496500Y-105382536D01*
X77476498Y-105450657D01*
X77464941Y-105465944D01*
X77424999Y-105511170D01*
X77363583Y-105641982D01*
X77362203Y-105650846D01*
X77362202Y-105650849D01*
X77356719Y-105686068D01*
X77341350Y-105784773D01*
X77342514Y-105793675D01*
X77342514Y-105793678D01*
X77358924Y-105919164D01*
X77360088Y-105928065D01*
X77373816Y-105959264D01*
X77382944Y-106029672D01*
X77352557Y-106093837D01*
X77292304Y-106131388D01*
X77258487Y-106136011D01*
X75772250Y-106136011D01*
X75704129Y-106116009D01*
X75683155Y-106099106D01*
X75370548Y-105786499D01*
X75336522Y-105724187D01*
X75335129Y-105686068D01*
X75334268Y-105686002D01*
X75334581Y-105681893D01*
X75335162Y-105677807D01*
X75335307Y-105664000D01*
X75316276Y-105506733D01*
X75260280Y-105358546D01*
X75253748Y-105349042D01*
X75174855Y-105234251D01*
X75174854Y-105234249D01*
X75170553Y-105227992D01*
X75052275Y-105122611D01*
X74912274Y-105048484D01*
X74758633Y-105009892D01*
X74751034Y-105009852D01*
X74751033Y-105009852D01*
X74685181Y-105009507D01*
X74600221Y-105009062D01*
X74592841Y-105010834D01*
X74592839Y-105010834D01*
X74486403Y-105036387D01*
X74415495Y-105032840D01*
X74357761Y-104991520D01*
X74331531Y-104925546D01*
X74330989Y-104913868D01*
X74330989Y-103235195D01*
X74350991Y-103167074D01*
X74367894Y-103146100D01*
X77817934Y-99696060D01*
X77833420Y-99683552D01*
X77836645Y-99680618D01*
X77845393Y-99674969D01*
X77864514Y-99650714D01*
X77868072Y-99646711D01*
X77867972Y-99646626D01*
X77871325Y-99642669D01*
X77875006Y-99638988D01*
X77878032Y-99634754D01*
X77885375Y-99624479D01*
X77888937Y-99619735D01*
X77909869Y-99593182D01*
X77967749Y-99552068D01*
X78038669Y-99548773D01*
X78100112Y-99584343D01*
X78111716Y-99598463D01*
X78150533Y-99653389D01*
X78154675Y-99657424D01*
X78211637Y-99712913D01*
X78295938Y-99795035D01*
X78464720Y-99907812D01*
X78470023Y-99910090D01*
X78470026Y-99910092D01*
X78644292Y-99984962D01*
X78651228Y-99987942D01*
X78697985Y-99998522D01*
X78843579Y-100031467D01*
X78843584Y-100031468D01*
X78849216Y-100032742D01*
X78854987Y-100032969D01*
X78854989Y-100032969D01*
X78914756Y-100035317D01*
X79052053Y-100040712D01*
X79167038Y-100024040D01*
X79247231Y-100012413D01*
X79247236Y-100012412D01*
X79252945Y-100011584D01*
X79258409Y-100009729D01*
X79258414Y-100009728D01*
X79439693Y-99948192D01*
X79439698Y-99948190D01*
X79445165Y-99946334D01*
X79451019Y-99943056D01*
X79548499Y-99888464D01*
X79622276Y-99847147D01*
X79627288Y-99842979D01*
X79773913Y-99721031D01*
X79778345Y-99717345D01*
X79847036Y-99634754D01*
X79904453Y-99565718D01*
X79904455Y-99565715D01*
X79908147Y-99561276D01*
X79985941Y-99422365D01*
X80004510Y-99389208D01*
X80004511Y-99389206D01*
X80007334Y-99384165D01*
X80009190Y-99378698D01*
X80009192Y-99378693D01*
X80070728Y-99197414D01*
X80070729Y-99197409D01*
X80072584Y-99191945D01*
X80073412Y-99186236D01*
X80073413Y-99186231D01*
X80101179Y-98994727D01*
X80101712Y-98991053D01*
X80103232Y-98933000D01*
X80091298Y-98803124D01*
X80085187Y-98736613D01*
X80085186Y-98736610D01*
X80084658Y-98730859D01*
X80078271Y-98708211D01*
X80031125Y-98541046D01*
X80031124Y-98541044D01*
X80029557Y-98535487D01*
X80019076Y-98514232D01*
X79942331Y-98358609D01*
X79939776Y-98353428D01*
X79818320Y-98190779D01*
X79669258Y-98052987D01*
X79664375Y-98049906D01*
X79664371Y-98049903D01*
X79518728Y-97958010D01*
X79497581Y-97944667D01*
X79309039Y-97869446D01*
X79303379Y-97868320D01*
X79303375Y-97868319D01*
X79115613Y-97830971D01*
X79115610Y-97830971D01*
X79109946Y-97829844D01*
X79104171Y-97829768D01*
X79104167Y-97829768D01*
X79002793Y-97828441D01*
X78906971Y-97827187D01*
X78901274Y-97828166D01*
X78901273Y-97828166D01*
X78760264Y-97852396D01*
X78706910Y-97861564D01*
X78516463Y-97931824D01*
X78342010Y-98035612D01*
X78337670Y-98039418D01*
X78337666Y-98039421D01*
X78251499Y-98114988D01*
X78189392Y-98169455D01*
X78185817Y-98173990D01*
X78185814Y-98173993D01*
X78182962Y-98177611D01*
X78125082Y-98218725D01*
X78054162Y-98222020D01*
X77992719Y-98186450D01*
X77960260Y-98123308D01*
X77958011Y-98099607D01*
X77958011Y-97593768D01*
X77960117Y-97573974D01*
X77960322Y-97569621D01*
X77962514Y-97559441D01*
X77958884Y-97528771D01*
X77958569Y-97523428D01*
X77958439Y-97523439D01*
X77958011Y-97518259D01*
X77958011Y-97513060D01*
X77957158Y-97507936D01*
X77957157Y-97507923D01*
X77955084Y-97495470D01*
X77954247Y-97489595D01*
X77949866Y-97452582D01*
X77948642Y-97442241D01*
X77944941Y-97434533D01*
X77943536Y-97426094D01*
X77920882Y-97384110D01*
X77918201Y-97378847D01*
X77900986Y-97342997D01*
X77897556Y-97335853D01*
X77894200Y-97331861D01*
X77892253Y-97329914D01*
X77890763Y-97328289D01*
X77890530Y-97327857D01*
X77890566Y-97327824D01*
X77890427Y-97327666D01*
X77887494Y-97322231D01*
X77874233Y-97309972D01*
X77850630Y-97288154D01*
X77847064Y-97284725D01*
X77507321Y-96944982D01*
X77473295Y-96882670D01*
X77477103Y-96815387D01*
X77532584Y-96651945D01*
X77533412Y-96646236D01*
X77533413Y-96646231D01*
X77561179Y-96454727D01*
X77561712Y-96451053D01*
X77563232Y-96393000D01*
X77551562Y-96266000D01*
X77545187Y-96196613D01*
X77545186Y-96196610D01*
X77544658Y-96190859D01*
X77538271Y-96168211D01*
X77491125Y-96001046D01*
X77491124Y-96001044D01*
X77489557Y-95995487D01*
X77479076Y-95974232D01*
X77402331Y-95818609D01*
X77399776Y-95813428D01*
X77278320Y-95650779D01*
X77129258Y-95512987D01*
X77081036Y-95482561D01*
X77034098Y-95429296D01*
X77023409Y-95359108D01*
X77052363Y-95294284D01*
X77111768Y-95255404D01*
X77148272Y-95250000D01*
X78296626Y-95250000D01*
X78364747Y-95270002D01*
G37*
%TD.AperFunction*%
%TD*%
M02*
