%TF.GenerationSoftware,KiCad,Pcbnew,6.0.2+dfsg-1*%
%TF.CreationDate,2022-11-16T09:07:21-05:00*%
%TF.ProjectId,dragon-light-panel,64726167-6f6e-42d6-9c69-6768742d7061,rev?*%
%TF.SameCoordinates,Original*%
%TF.FileFunction,Copper,L1,Top*%
%TF.FilePolarity,Positive*%
%FSLAX46Y46*%
G04 Gerber Fmt 4.6, Leading zero omitted, Abs format (unit mm)*
G04 Created by KiCad (PCBNEW 6.0.2+dfsg-1) date 2022-11-16 09:07:21*
%MOMM*%
%LPD*%
G01*
G04 APERTURE LIST*
G04 Aperture macros list*
%AMRoundRect*
0 Rectangle with rounded corners*
0 $1 Rounding radius*
0 $2 $3 $4 $5 $6 $7 $8 $9 X,Y pos of 4 corners*
0 Add a 4 corners polygon primitive as box body*
4,1,4,$2,$3,$4,$5,$6,$7,$8,$9,$2,$3,0*
0 Add four circle primitives for the rounded corners*
1,1,$1+$1,$2,$3*
1,1,$1+$1,$4,$5*
1,1,$1+$1,$6,$7*
1,1,$1+$1,$8,$9*
0 Add four rect primitives between the rounded corners*
20,1,$1+$1,$2,$3,$4,$5,0*
20,1,$1+$1,$4,$5,$6,$7,0*
20,1,$1+$1,$6,$7,$8,$9,0*
20,1,$1+$1,$8,$9,$2,$3,0*%
G04 Aperture macros list end*
%TA.AperFunction,SMDPad,CuDef*%
%ADD10RoundRect,0.200000X0.275000X-0.200000X0.275000X0.200000X-0.275000X0.200000X-0.275000X-0.200000X0*%
%TD*%
%TA.AperFunction,SMDPad,CuDef*%
%ADD11RoundRect,0.147500X-0.147500X-0.172500X0.147500X-0.172500X0.147500X0.172500X-0.147500X0.172500X0*%
%TD*%
%TA.AperFunction,ComponentPad*%
%ADD12C,5.600000*%
%TD*%
%TA.AperFunction,ComponentPad*%
%ADD13O,3.900000X1.950000*%
%TD*%
%TA.AperFunction,ComponentPad*%
%ADD14O,1.700000X3.400000*%
%TD*%
%TA.AperFunction,ComponentPad*%
%ADD15R,1.600000X1.600000*%
%TD*%
%TA.AperFunction,ComponentPad*%
%ADD16C,1.600000*%
%TD*%
%TA.AperFunction,Conductor*%
%ADD17C,0.508000*%
%TD*%
G04 APERTURE END LIST*
D10*
%TO.P,R5,1*%
%TO.N,GND*%
X76200000Y-66865000D03*
%TO.P,R5,2*%
%TO.N,Net-(D20-Pad1)*%
X76200000Y-65215000D03*
%TD*%
D11*
%TO.P,D24,1,K*%
%TO.N,Net-(D24-Pad1)*%
X81430000Y-66040000D03*
%TO.P,D24,2,A*%
%TO.N,Net-(D23-Pad1)*%
X82400000Y-66040000D03*
%TD*%
D10*
%TO.P,R4,1*%
%TO.N,GND*%
X72390000Y-66865000D03*
%TO.P,R4,2*%
%TO.N,Net-(D16-Pad1)*%
X72390000Y-65215000D03*
%TD*%
D11*
%TO.P,D44,1,K*%
%TO.N,Net-(D44-Pad1)*%
X70000000Y-76200000D03*
%TO.P,D44,2,A*%
%TO.N,Net-(D43-Pad1)*%
X70970000Y-76200000D03*
%TD*%
%TO.P,D1,1,K*%
%TO.N,Net-(D1-Pad1)*%
X62380000Y-58420000D03*
%TO.P,D1,2,A*%
%TO.N,+12V*%
X63350000Y-58420000D03*
%TD*%
%TO.P,D17,1,K*%
%TO.N,Net-(D17-Pad1)*%
X77620000Y-58420000D03*
%TO.P,D17,2,A*%
%TO.N,+12V*%
X78590000Y-58420000D03*
%TD*%
%TO.P,D41,1,K*%
%TO.N,Net-(D41-Pad1)*%
X70000000Y-68580000D03*
%TO.P,D41,2,A*%
%TO.N,+12V*%
X70970000Y-68580000D03*
%TD*%
D10*
%TO.P,R11,1*%
%TO.N,GND*%
X68580000Y-77025000D03*
%TO.P,R11,2*%
%TO.N,Net-(D44-Pad1)*%
X68580000Y-75375000D03*
%TD*%
D11*
%TO.P,D45,1,K*%
%TO.N,Net-(D45-Pad1)*%
X73810000Y-68580000D03*
%TO.P,D45,2,A*%
%TO.N,+12V*%
X74780000Y-68580000D03*
%TD*%
D10*
%TO.P,R14,1*%
%TO.N,GND*%
X80010000Y-77025000D03*
%TO.P,R14,2*%
%TO.N,Net-(D56-Pad1)*%
X80010000Y-75375000D03*
%TD*%
D11*
%TO.P,D2,1,K*%
%TO.N,Net-(D2-Pad1)*%
X62380000Y-60960000D03*
%TO.P,D2,2,A*%
%TO.N,Net-(D1-Pad1)*%
X63350000Y-60960000D03*
%TD*%
%TO.P,D7,1,K*%
%TO.N,Net-(D7-Pad1)*%
X66190000Y-63500000D03*
%TO.P,D7,2,A*%
%TO.N,Net-(D6-Pad1)*%
X67160000Y-63500000D03*
%TD*%
%TO.P,D51,1,K*%
%TO.N,Net-(D51-Pad1)*%
X77620000Y-73660000D03*
%TO.P,D51,2,A*%
%TO.N,Net-(D50-Pad1)*%
X78590000Y-73660000D03*
%TD*%
%TO.P,D28,1,K*%
%TO.N,Net-(D28-Pad1)*%
X85240000Y-66040000D03*
%TO.P,D28,2,A*%
%TO.N,Net-(D27-Pad1)*%
X86210000Y-66040000D03*
%TD*%
D12*
%TO.P,H4,1,1*%
%TO.N,unconnected-(H4-Pad1)*%
X55880000Y-58420000D03*
%TD*%
D10*
%TO.P,R3,1*%
%TO.N,GND*%
X68580000Y-66865000D03*
%TO.P,R3,2*%
%TO.N,Net-(D12-Pad1)*%
X68580000Y-65215000D03*
%TD*%
D11*
%TO.P,D33,1,K*%
%TO.N,Net-(D33-Pad1)*%
X62380000Y-68580000D03*
%TO.P,D33,2,A*%
%TO.N,+12V*%
X63350000Y-68580000D03*
%TD*%
%TO.P,D22,1,K*%
%TO.N,Net-(D22-Pad1)*%
X81430000Y-60960000D03*
%TO.P,D22,2,A*%
%TO.N,Net-(D21-Pad1)*%
X82400000Y-60960000D03*
%TD*%
%TO.P,D63,1,K*%
%TO.N,Net-(D63-Pad1)*%
X89050000Y-73660000D03*
%TO.P,D63,2,A*%
%TO.N,Net-(D62-Pad1)*%
X90020000Y-73660000D03*
%TD*%
%TO.P,D60,1,K*%
%TO.N,Net-(D60-Pad1)*%
X85240000Y-76200000D03*
%TO.P,D60,2,A*%
%TO.N,Net-(D59-Pad1)*%
X86210000Y-76200000D03*
%TD*%
%TO.P,D52,1,K*%
%TO.N,Net-(D52-Pad1)*%
X77620000Y-76200000D03*
%TO.P,D52,2,A*%
%TO.N,Net-(D51-Pad1)*%
X78590000Y-76200000D03*
%TD*%
%TO.P,D53,1,K*%
%TO.N,Net-(D53-Pad1)*%
X81430000Y-68580000D03*
%TO.P,D53,2,A*%
%TO.N,+12V*%
X82400000Y-68580000D03*
%TD*%
%TO.P,D57,1,K*%
%TO.N,Net-(D57-Pad1)*%
X85240000Y-68580000D03*
%TO.P,D57,2,A*%
%TO.N,+12V*%
X86210000Y-68580000D03*
%TD*%
%TO.P,D25,1,K*%
%TO.N,Net-(D25-Pad1)*%
X85240000Y-58420000D03*
%TO.P,D25,2,A*%
%TO.N,+12V*%
X86210000Y-58420000D03*
%TD*%
%TO.P,D9,1,K*%
%TO.N,Net-(D10-Pad2)*%
X70000000Y-58420000D03*
%TO.P,D9,2,A*%
%TO.N,+12V*%
X70970000Y-58420000D03*
%TD*%
%TO.P,D55,1,K*%
%TO.N,Net-(D55-Pad1)*%
X81430000Y-73660000D03*
%TO.P,D55,2,A*%
%TO.N,Net-(D54-Pad1)*%
X82400000Y-73660000D03*
%TD*%
%TO.P,D62,1,K*%
%TO.N,Net-(D62-Pad1)*%
X89050000Y-71120000D03*
%TO.P,D62,2,A*%
%TO.N,Net-(D61-Pad1)*%
X90020000Y-71120000D03*
%TD*%
%TO.P,D11,1,K*%
%TO.N,Net-(D11-Pad1)*%
X70000000Y-63500000D03*
%TO.P,D11,2,A*%
%TO.N,Net-(D10-Pad1)*%
X70970000Y-63500000D03*
%TD*%
%TO.P,D42,1,K*%
%TO.N,Net-(D42-Pad1)*%
X70000000Y-71120000D03*
%TO.P,D42,2,A*%
%TO.N,Net-(D41-Pad1)*%
X70970000Y-71120000D03*
%TD*%
D12*
%TO.P,H1,1,1*%
%TO.N,unconnected-(H1-Pad1)*%
X96520000Y-86360000D03*
%TD*%
D11*
%TO.P,D47,1,K*%
%TO.N,Net-(D47-Pad1)*%
X73810000Y-73660000D03*
%TO.P,D47,2,A*%
%TO.N,Net-(D46-Pad1)*%
X74780000Y-73660000D03*
%TD*%
%TO.P,D61,1,K*%
%TO.N,Net-(D61-Pad1)*%
X89050000Y-68580000D03*
%TO.P,D61,2,A*%
%TO.N,+12V*%
X90020000Y-68580000D03*
%TD*%
%TO.P,D8,1,K*%
%TO.N,Net-(D8-Pad1)*%
X66190000Y-66040000D03*
%TO.P,D8,2,A*%
%TO.N,Net-(D7-Pad1)*%
X67160000Y-66040000D03*
%TD*%
D12*
%TO.P,H2,1,1*%
%TO.N,unconnected-(H2-Pad1)*%
X55880000Y-86360000D03*
%TD*%
D11*
%TO.P,D37,1,K*%
%TO.N,Net-(D37-Pad1)*%
X66190000Y-68580000D03*
%TO.P,D37,2,A*%
%TO.N,+12V*%
X67160000Y-68580000D03*
%TD*%
%TO.P,D56,1,K*%
%TO.N,Net-(D56-Pad1)*%
X81430000Y-76200000D03*
%TO.P,D56,2,A*%
%TO.N,Net-(D55-Pad1)*%
X82400000Y-76200000D03*
%TD*%
%TO.P,D58,1,K*%
%TO.N,Net-(D58-Pad1)*%
X85240000Y-71120000D03*
%TO.P,D58,2,A*%
%TO.N,Net-(D57-Pad1)*%
X86210000Y-71120000D03*
%TD*%
%TO.P,D48,1,K*%
%TO.N,Net-(D48-Pad1)*%
X73810000Y-76200000D03*
%TO.P,D48,2,A*%
%TO.N,Net-(D47-Pad1)*%
X74780000Y-76200000D03*
%TD*%
%TO.P,D31,1,K*%
%TO.N,Net-(D31-Pad1)*%
X89050000Y-63500000D03*
%TO.P,D31,2,A*%
%TO.N,Net-(D30-Pad1)*%
X90020000Y-63500000D03*
%TD*%
%TO.P,D6,1,K*%
%TO.N,Net-(D6-Pad1)*%
X66190000Y-60960000D03*
%TO.P,D6,2,A*%
%TO.N,Net-(D5-Pad1)*%
X67160000Y-60960000D03*
%TD*%
%TO.P,D14,1,K*%
%TO.N,Net-(D14-Pad1)*%
X73810000Y-60960000D03*
%TO.P,D14,2,A*%
%TO.N,Net-(D13-Pad1)*%
X74780000Y-60960000D03*
%TD*%
%TO.P,D19,1,K*%
%TO.N,Net-(D19-Pad1)*%
X77620000Y-63500000D03*
%TO.P,D19,2,A*%
%TO.N,Net-(D18-Pad1)*%
X78590000Y-63500000D03*
%TD*%
D10*
%TO.P,R15,1*%
%TO.N,GND*%
X83820000Y-77025000D03*
%TO.P,R15,2*%
%TO.N,Net-(D60-Pad1)*%
X83820000Y-75375000D03*
%TD*%
D12*
%TO.P,H3,1,1*%
%TO.N,unconnected-(H3-Pad1)*%
X96520000Y-58420000D03*
%TD*%
D11*
%TO.P,D20,1,K*%
%TO.N,Net-(D20-Pad1)*%
X77620000Y-66040000D03*
%TO.P,D20,2,A*%
%TO.N,Net-(D19-Pad1)*%
X78590000Y-66040000D03*
%TD*%
%TO.P,D36,1,K*%
%TO.N,Net-(D36-Pad1)*%
X62380000Y-76200000D03*
%TO.P,D36,2,A*%
%TO.N,Net-(D35-Pad1)*%
X63350000Y-76200000D03*
%TD*%
%TO.P,D26,1,K*%
%TO.N,Net-(D26-Pad1)*%
X85240000Y-60960000D03*
%TO.P,D26,2,A*%
%TO.N,Net-(D25-Pad1)*%
X86210000Y-60960000D03*
%TD*%
D13*
%TO.P,J1,1*%
%TO.N,GND*%
X77470000Y-86360000D03*
D14*
%TO.P,J1,2*%
%TO.N,+12V*%
X77470000Y-81860000D03*
%TD*%
D11*
%TO.P,D18,1,K*%
%TO.N,Net-(D18-Pad1)*%
X77620000Y-60960000D03*
%TO.P,D18,2,A*%
%TO.N,Net-(D17-Pad1)*%
X78590000Y-60960000D03*
%TD*%
%TO.P,D23,1,K*%
%TO.N,Net-(D23-Pad1)*%
X81430000Y-63500000D03*
%TO.P,D23,2,A*%
%TO.N,Net-(D22-Pad1)*%
X82400000Y-63500000D03*
%TD*%
%TO.P,D54,1,K*%
%TO.N,Net-(D54-Pad1)*%
X81430000Y-71120000D03*
%TO.P,D54,2,A*%
%TO.N,Net-(D53-Pad1)*%
X82400000Y-71120000D03*
%TD*%
%TO.P,D16,1,K*%
%TO.N,Net-(D16-Pad1)*%
X73810000Y-66040000D03*
%TO.P,D16,2,A*%
%TO.N,Net-(D15-Pad1)*%
X74780000Y-66040000D03*
%TD*%
%TO.P,D29,1,K*%
%TO.N,Net-(D29-Pad1)*%
X89050000Y-58420000D03*
%TO.P,D29,2,A*%
%TO.N,+12V*%
X90020000Y-58420000D03*
%TD*%
%TO.P,D64,1,K*%
%TO.N,Net-(D64-Pad1)*%
X89050000Y-76200000D03*
%TO.P,D64,2,A*%
%TO.N,Net-(D63-Pad1)*%
X90020000Y-76200000D03*
%TD*%
D10*
%TO.P,R8,1*%
%TO.N,GND*%
X87630000Y-66865000D03*
%TO.P,R8,2*%
%TO.N,Net-(D32-Pad1)*%
X87630000Y-65215000D03*
%TD*%
D11*
%TO.P,D59,1,K*%
%TO.N,Net-(D59-Pad1)*%
X85240000Y-73660000D03*
%TO.P,D59,2,A*%
%TO.N,Net-(D58-Pad1)*%
X86210000Y-73660000D03*
%TD*%
%TO.P,D27,1,K*%
%TO.N,Net-(D27-Pad1)*%
X85240000Y-63500000D03*
%TO.P,D27,2,A*%
%TO.N,Net-(D26-Pad1)*%
X86210000Y-63500000D03*
%TD*%
%TO.P,D5,1,K*%
%TO.N,Net-(D5-Pad1)*%
X66190000Y-58420000D03*
%TO.P,D5,2,A*%
%TO.N,+12V*%
X67160000Y-58420000D03*
%TD*%
D10*
%TO.P,R9,1*%
%TO.N,GND*%
X60960000Y-77025000D03*
%TO.P,R9,2*%
%TO.N,Net-(D36-Pad1)*%
X60960000Y-75375000D03*
%TD*%
D11*
%TO.P,D43,1,K*%
%TO.N,Net-(D43-Pad1)*%
X70000000Y-73660000D03*
%TO.P,D43,2,A*%
%TO.N,Net-(D42-Pad1)*%
X70970000Y-73660000D03*
%TD*%
D10*
%TO.P,R7,1*%
%TO.N,GND*%
X83820000Y-66865000D03*
%TO.P,R7,2*%
%TO.N,Net-(D28-Pad1)*%
X83820000Y-65215000D03*
%TD*%
D11*
%TO.P,D3,1,K*%
%TO.N,Net-(D3-Pad1)*%
X62380000Y-63500000D03*
%TO.P,D3,2,A*%
%TO.N,Net-(D2-Pad1)*%
X63350000Y-63500000D03*
%TD*%
D10*
%TO.P,R1,1*%
%TO.N,GND*%
X60960000Y-66865000D03*
%TO.P,R1,2*%
%TO.N,Net-(D4-Pad1)*%
X60960000Y-65215000D03*
%TD*%
%TO.P,R13,1*%
%TO.N,GND*%
X76200000Y-77025000D03*
%TO.P,R13,2*%
%TO.N,Net-(D52-Pad1)*%
X76200000Y-75375000D03*
%TD*%
D15*
%TO.P,C1,1*%
%TO.N,+12V*%
X65405000Y-81532349D03*
D16*
%TO.P,C1,2*%
%TO.N,GND*%
X65405000Y-85032349D03*
%TD*%
D10*
%TO.P,R16,1*%
%TO.N,GND*%
X87630000Y-77025000D03*
%TO.P,R16,2*%
%TO.N,Net-(D64-Pad1)*%
X87630000Y-75375000D03*
%TD*%
D11*
%TO.P,D35,1,K*%
%TO.N,Net-(D35-Pad1)*%
X62380000Y-73660000D03*
%TO.P,D35,2,A*%
%TO.N,Net-(D34-Pad1)*%
X63350000Y-73660000D03*
%TD*%
%TO.P,D38,1,K*%
%TO.N,Net-(D38-Pad1)*%
X66190000Y-71120000D03*
%TO.P,D38,2,A*%
%TO.N,Net-(D37-Pad1)*%
X67160000Y-71120000D03*
%TD*%
%TO.P,D10,1,K*%
%TO.N,Net-(D10-Pad1)*%
X70000000Y-60960000D03*
%TO.P,D10,2,A*%
%TO.N,Net-(D10-Pad2)*%
X70970000Y-60960000D03*
%TD*%
%TO.P,D34,1,K*%
%TO.N,Net-(D34-Pad1)*%
X62380000Y-71120000D03*
%TO.P,D34,2,A*%
%TO.N,Net-(D33-Pad1)*%
X63350000Y-71120000D03*
%TD*%
%TO.P,D30,1,K*%
%TO.N,Net-(D30-Pad1)*%
X89050000Y-60960000D03*
%TO.P,D30,2,A*%
%TO.N,Net-(D29-Pad1)*%
X90020000Y-60960000D03*
%TD*%
%TO.P,D13,1,K*%
%TO.N,Net-(D13-Pad1)*%
X73810000Y-58420000D03*
%TO.P,D13,2,A*%
%TO.N,+12V*%
X74780000Y-58420000D03*
%TD*%
%TO.P,D21,1,K*%
%TO.N,Net-(D21-Pad1)*%
X81430000Y-58420000D03*
%TO.P,D21,2,A*%
%TO.N,+12V*%
X82400000Y-58420000D03*
%TD*%
%TO.P,D46,1,K*%
%TO.N,Net-(D46-Pad1)*%
X73810000Y-71120000D03*
%TO.P,D46,2,A*%
%TO.N,Net-(D45-Pad1)*%
X74780000Y-71120000D03*
%TD*%
%TO.P,D39,1,K*%
%TO.N,Net-(D39-Pad1)*%
X66190000Y-73660000D03*
%TO.P,D39,2,A*%
%TO.N,Net-(D38-Pad1)*%
X67160000Y-73660000D03*
%TD*%
%TO.P,D32,1,K*%
%TO.N,Net-(D32-Pad1)*%
X89050000Y-66040000D03*
%TO.P,D32,2,A*%
%TO.N,Net-(D31-Pad1)*%
X90020000Y-66040000D03*
%TD*%
D10*
%TO.P,R2,1*%
%TO.N,GND*%
X64770000Y-66865000D03*
%TO.P,R2,2*%
%TO.N,Net-(D8-Pad1)*%
X64770000Y-65215000D03*
%TD*%
%TO.P,R6,1*%
%TO.N,GND*%
X80010000Y-66865000D03*
%TO.P,R6,2*%
%TO.N,Net-(D24-Pad1)*%
X80010000Y-65215000D03*
%TD*%
%TO.P,R10,1*%
%TO.N,GND*%
X64770000Y-77025000D03*
%TO.P,R10,2*%
%TO.N,Net-(D40-Pad1)*%
X64770000Y-75375000D03*
%TD*%
D11*
%TO.P,D40,1,K*%
%TO.N,Net-(D40-Pad1)*%
X66190000Y-76200000D03*
%TO.P,D40,2,A*%
%TO.N,Net-(D39-Pad1)*%
X67160000Y-76200000D03*
%TD*%
%TO.P,D12,1,K*%
%TO.N,Net-(D12-Pad1)*%
X70000000Y-66040000D03*
%TO.P,D12,2,A*%
%TO.N,Net-(D11-Pad1)*%
X70970000Y-66040000D03*
%TD*%
%TO.P,D49,1,K*%
%TO.N,Net-(D49-Pad1)*%
X77620000Y-68580000D03*
%TO.P,D49,2,A*%
%TO.N,+12V*%
X78590000Y-68580000D03*
%TD*%
%TO.P,D4,1,K*%
%TO.N,Net-(D4-Pad1)*%
X62380000Y-66040000D03*
%TO.P,D4,2,A*%
%TO.N,Net-(D3-Pad1)*%
X63350000Y-66040000D03*
%TD*%
%TO.P,D15,1,K*%
%TO.N,Net-(D15-Pad1)*%
X73810000Y-63500000D03*
%TO.P,D15,2,A*%
%TO.N,Net-(D14-Pad1)*%
X74780000Y-63500000D03*
%TD*%
%TO.P,D50,1,K*%
%TO.N,Net-(D50-Pad1)*%
X77620000Y-71120000D03*
%TO.P,D50,2,A*%
%TO.N,Net-(D49-Pad1)*%
X78590000Y-71120000D03*
%TD*%
D10*
%TO.P,R12,1*%
%TO.N,GND*%
X72390000Y-77025000D03*
%TO.P,R12,2*%
%TO.N,Net-(D48-Pad1)*%
X72390000Y-75375000D03*
%TD*%
D17*
%TO.N,GND*%
X65405000Y-85032349D02*
X66732651Y-86360000D01*
X66732651Y-86360000D02*
X77470000Y-86360000D01*
%TO.N,+12V*%
X65405000Y-81532349D02*
X62482349Y-81532349D01*
X62482349Y-81532349D02*
X59690000Y-78740000D01*
X59690000Y-78740000D02*
X59690000Y-66994216D01*
X77470000Y-81860000D02*
X65732651Y-81860000D01*
X65732651Y-81860000D02*
X65405000Y-81532349D01*
X78590000Y-68580000D02*
X78590000Y-67817960D01*
X59690000Y-67806480D02*
X59690000Y-66994216D01*
X64123520Y-67806480D02*
X67171480Y-67806480D01*
X70970000Y-67817960D02*
X70981480Y-67806480D01*
X70981480Y-67806480D02*
X74791480Y-67806480D01*
X71120000Y-57150000D02*
X74930000Y-57150000D01*
X82400000Y-57300000D02*
X82550000Y-57150000D01*
X63350000Y-58420000D02*
X63350000Y-57300000D01*
X82550000Y-57150000D02*
X86360000Y-57150000D01*
X78590000Y-58420000D02*
X78590000Y-57300000D01*
X89535000Y-57150000D02*
X90020000Y-57635000D01*
X89446450Y-67806480D02*
X90020000Y-68380030D01*
X63350000Y-68580000D02*
X64123520Y-67806480D01*
X59690000Y-58420000D02*
X60960000Y-57150000D01*
X78590000Y-67817960D02*
X78601480Y-67806480D01*
X67171480Y-67806480D02*
X70981480Y-67806480D01*
X82400000Y-58420000D02*
X82400000Y-57300000D01*
X74780000Y-57300000D02*
X74930000Y-57150000D01*
X86210000Y-68580000D02*
X86210000Y-67817960D01*
X86360000Y-57150000D02*
X89535000Y-57150000D01*
X60960000Y-57150000D02*
X63500000Y-57150000D01*
X70970000Y-58420000D02*
X70970000Y-57300000D01*
X63500000Y-57150000D02*
X67310000Y-57150000D01*
X78601480Y-67806480D02*
X82411480Y-67806480D01*
X67310000Y-57150000D02*
X71120000Y-57150000D01*
X64123520Y-67806480D02*
X59690000Y-67806480D01*
X67160000Y-58420000D02*
X67160000Y-57300000D01*
X82411480Y-67806480D02*
X86221480Y-67806480D01*
X67160000Y-57300000D02*
X67310000Y-57150000D01*
X67160000Y-67817960D02*
X67171480Y-67806480D01*
X70970000Y-57300000D02*
X71120000Y-57150000D01*
X78590000Y-57300000D02*
X78740000Y-57150000D01*
X74930000Y-57150000D02*
X78740000Y-57150000D01*
X90020000Y-57635000D02*
X90020000Y-58420000D01*
X74780000Y-58420000D02*
X74780000Y-57300000D01*
X82400000Y-68580000D02*
X82400000Y-67817960D01*
X82400000Y-67817960D02*
X82411480Y-67806480D01*
X86221480Y-67806480D02*
X89446450Y-67806480D01*
X86210000Y-57300000D02*
X86360000Y-57150000D01*
X78740000Y-57150000D02*
X82550000Y-57150000D01*
X67160000Y-68580000D02*
X67160000Y-67817960D01*
X74780000Y-67817960D02*
X74791480Y-67806480D01*
X59690000Y-66994216D02*
X59690000Y-58420000D01*
X63350000Y-57300000D02*
X63500000Y-57150000D01*
X86210000Y-67817960D02*
X86221480Y-67806480D01*
X70970000Y-68580000D02*
X70970000Y-67817960D01*
X74791480Y-67806480D02*
X78601480Y-67806480D01*
X86210000Y-58420000D02*
X86210000Y-57300000D01*
X74780000Y-68580000D02*
X74780000Y-67817960D01*
X90020000Y-68380030D02*
X90020000Y-68580000D01*
%TO.N,GND*%
X83820000Y-66865000D02*
X87630000Y-66865000D01*
X91250000Y-77025000D02*
X91440000Y-76835000D01*
X80010000Y-66865000D02*
X83820000Y-66865000D01*
X90995000Y-66865000D02*
X87630000Y-66865000D01*
X77470000Y-86360000D02*
X78295000Y-86360000D01*
X60960000Y-77025000D02*
X87630000Y-77025000D01*
X60960000Y-66865000D02*
X64770000Y-66865000D01*
X78295000Y-86360000D02*
X87630000Y-77025000D01*
X76200000Y-66865000D02*
X80010000Y-66865000D01*
X72390000Y-66865000D02*
X76200000Y-66865000D01*
X91440000Y-76835000D02*
X91440000Y-67310000D01*
X91440000Y-67310000D02*
X90995000Y-66865000D01*
X64770000Y-66865000D02*
X68580000Y-66865000D01*
X68580000Y-66865000D02*
X72390000Y-66865000D01*
X87630000Y-77025000D02*
X91250000Y-77025000D01*
%TO.N,Net-(D1-Pad1)*%
X63350000Y-60760030D02*
X63350000Y-60960000D01*
X62380000Y-59790030D02*
X63350000Y-60760030D01*
X62380000Y-58420000D02*
X62380000Y-59790030D01*
%TO.N,Net-(D5-Pad1)*%
X66190000Y-59790030D02*
X67160000Y-60760030D01*
X67160000Y-60760030D02*
X67160000Y-60960000D01*
X66190000Y-58420000D02*
X66190000Y-59790030D01*
%TO.N,Net-(D21-Pad1)*%
X82400000Y-60760030D02*
X82400000Y-60960000D01*
X81430000Y-59790030D02*
X82400000Y-60760030D01*
X81430000Y-58420000D02*
X81430000Y-59790030D01*
%TO.N,Net-(D25-Pad1)*%
X85240000Y-59790030D02*
X86210000Y-60760030D01*
X85240000Y-58420000D02*
X85240000Y-59790030D01*
X86210000Y-60760030D02*
X86210000Y-60960000D01*
%TO.N,Net-(D10-Pad1)*%
X70000000Y-60960000D02*
X70000000Y-62330030D01*
X70000000Y-62330030D02*
X70970000Y-63300030D01*
X70970000Y-63300030D02*
X70970000Y-63500000D01*
%TO.N,Net-(D10-Pad2)*%
X70970000Y-60760030D02*
X70970000Y-60960000D01*
X70000000Y-59790030D02*
X70970000Y-60760030D01*
X70000000Y-58420000D02*
X70000000Y-59790030D01*
%TO.N,Net-(D13-Pad1)*%
X73810000Y-58420000D02*
X73810000Y-59790030D01*
X73810000Y-59790030D02*
X74780000Y-60760030D01*
X74780000Y-60760030D02*
X74780000Y-60960000D01*
%TO.N,Net-(D17-Pad1)*%
X77620000Y-59790030D02*
X78590000Y-60760030D01*
X77620000Y-58420000D02*
X77620000Y-59790030D01*
X78590000Y-60760030D02*
X78590000Y-60960000D01*
%TO.N,Net-(D29-Pad1)*%
X89050000Y-58420000D02*
X89050000Y-59790030D01*
X90020000Y-60760030D02*
X90020000Y-60960000D01*
X89050000Y-59790030D02*
X90020000Y-60760030D01*
%TO.N,Net-(D33-Pad1)*%
X63350000Y-70920030D02*
X63350000Y-71120000D01*
X62380000Y-69950030D02*
X63350000Y-70920030D01*
X62380000Y-68580000D02*
X62380000Y-69950030D01*
%TO.N,Net-(D37-Pad1)*%
X66190000Y-68580000D02*
X66190000Y-69950030D01*
X67160000Y-70920030D02*
X67160000Y-71120000D01*
X66190000Y-69950030D02*
X67160000Y-70920030D01*
%TO.N,Net-(D41-Pad1)*%
X70970000Y-70920030D02*
X70970000Y-71120000D01*
X70000000Y-68580000D02*
X70000000Y-69950030D01*
X70000000Y-69950030D02*
X70970000Y-70920030D01*
%TO.N,Net-(D45-Pad1)*%
X73810000Y-68580000D02*
X73810000Y-69950030D01*
X74780000Y-70920030D02*
X74780000Y-71120000D01*
X73810000Y-69950030D02*
X74780000Y-70920030D01*
%TO.N,Net-(D49-Pad1)*%
X78590000Y-70920030D02*
X78590000Y-71120000D01*
X77620000Y-68580000D02*
X77620000Y-69950030D01*
X77620000Y-69950030D02*
X78590000Y-70920030D01*
%TO.N,Net-(D53-Pad1)*%
X81430000Y-69950030D02*
X82400000Y-70920030D01*
X81430000Y-68580000D02*
X81430000Y-69950030D01*
X82400000Y-70920030D02*
X82400000Y-71120000D01*
%TO.N,Net-(D57-Pad1)*%
X85240000Y-68580000D02*
X85240000Y-69950030D01*
X86210000Y-70920030D02*
X86210000Y-71120000D01*
X85240000Y-69950030D02*
X86210000Y-70920030D01*
%TO.N,Net-(D61-Pad1)*%
X90020000Y-70920030D02*
X90020000Y-71120000D01*
X89050000Y-68580000D02*
X89050000Y-69950030D01*
X89050000Y-69950030D02*
X90020000Y-70920030D01*
%TO.N,Net-(D2-Pad1)*%
X63350000Y-63300030D02*
X63350000Y-63500000D01*
X62380000Y-62330030D02*
X63350000Y-63300030D01*
X62380000Y-60960000D02*
X62380000Y-62330030D01*
%TO.N,Net-(D3-Pad1)*%
X62380000Y-64870030D02*
X63350000Y-65840030D01*
X63350000Y-65840030D02*
X63350000Y-66040000D01*
X62380000Y-63500000D02*
X62380000Y-64870030D01*
%TO.N,Net-(D4-Pad1)*%
X61785000Y-66040000D02*
X60960000Y-65215000D01*
X62380000Y-66040000D02*
X61785000Y-66040000D01*
%TO.N,Net-(D6-Pad1)*%
X66190000Y-62330030D02*
X67160000Y-63300030D01*
X67160000Y-63300030D02*
X67160000Y-63500000D01*
X66190000Y-60960000D02*
X66190000Y-62330030D01*
%TO.N,Net-(D7-Pad1)*%
X66190000Y-64870030D02*
X67160000Y-65840030D01*
X66190000Y-63500000D02*
X66190000Y-64870030D01*
X67160000Y-65840030D02*
X67160000Y-66040000D01*
%TO.N,Net-(D8-Pad1)*%
X65595000Y-66040000D02*
X64770000Y-65215000D01*
X66190000Y-66040000D02*
X65595000Y-66040000D01*
%TO.N,Net-(D11-Pad1)*%
X70000000Y-63500000D02*
X70000000Y-64870030D01*
X70000000Y-64870030D02*
X70970000Y-65840030D01*
X70970000Y-65840030D02*
X70970000Y-66040000D01*
%TO.N,Net-(D12-Pad1)*%
X69405000Y-66040000D02*
X68580000Y-65215000D01*
X70000000Y-66040000D02*
X69405000Y-66040000D01*
%TO.N,Net-(D14-Pad1)*%
X74780000Y-63300030D02*
X74780000Y-63500000D01*
X73810000Y-60960000D02*
X73810000Y-62330030D01*
X73810000Y-62330030D02*
X74780000Y-63300030D01*
%TO.N,Net-(D15-Pad1)*%
X74780000Y-65840030D02*
X74780000Y-66040000D01*
X73810000Y-64870030D02*
X74780000Y-65840030D01*
X73810000Y-63500000D02*
X73810000Y-64870030D01*
%TO.N,Net-(D16-Pad1)*%
X73810000Y-66040000D02*
X73215000Y-66040000D01*
X73215000Y-66040000D02*
X72390000Y-65215000D01*
%TO.N,Net-(D18-Pad1)*%
X77620000Y-62330030D02*
X78590000Y-63300030D01*
X78590000Y-63300030D02*
X78590000Y-63500000D01*
X77620000Y-60960000D02*
X77620000Y-62330030D01*
%TO.N,Net-(D19-Pad1)*%
X78590000Y-65840030D02*
X78590000Y-66040000D01*
X77620000Y-64870030D02*
X78590000Y-65840030D01*
X77620000Y-63500000D02*
X77620000Y-64870030D01*
%TO.N,Net-(D20-Pad1)*%
X77025000Y-66040000D02*
X76200000Y-65215000D01*
X77620000Y-66040000D02*
X77025000Y-66040000D01*
%TO.N,Net-(D22-Pad1)*%
X81430000Y-62330030D02*
X82400000Y-63300030D01*
X82400000Y-63300030D02*
X82400000Y-63500000D01*
X81430000Y-60960000D02*
X81430000Y-62330030D01*
%TO.N,Net-(D23-Pad1)*%
X81430000Y-64870030D02*
X82400000Y-65840030D01*
X82400000Y-65840030D02*
X82400000Y-66040000D01*
X81430000Y-63500000D02*
X81430000Y-64870030D01*
%TO.N,Net-(D24-Pad1)*%
X80835000Y-66040000D02*
X80010000Y-65215000D01*
X81430000Y-66040000D02*
X80835000Y-66040000D01*
%TO.N,Net-(D26-Pad1)*%
X85240000Y-60960000D02*
X85240000Y-62330030D01*
X85240000Y-62330030D02*
X86210000Y-63300030D01*
X86210000Y-63300030D02*
X86210000Y-63500000D01*
%TO.N,Net-(D27-Pad1)*%
X85240000Y-64870030D02*
X86210000Y-65840030D01*
X85240000Y-63500000D02*
X85240000Y-64870030D01*
X86210000Y-65840030D02*
X86210000Y-66040000D01*
%TO.N,Net-(D28-Pad1)*%
X85240000Y-66040000D02*
X84645000Y-66040000D01*
X84645000Y-66040000D02*
X83820000Y-65215000D01*
%TO.N,Net-(D30-Pad1)*%
X90020000Y-63300030D02*
X90020000Y-63500000D01*
X89050000Y-60960000D02*
X89050000Y-62330030D01*
X89050000Y-62330030D02*
X90020000Y-63300030D01*
%TO.N,Net-(D31-Pad1)*%
X89050000Y-63500000D02*
X89050000Y-64870030D01*
X89050000Y-64870030D02*
X90020000Y-65840030D01*
X90020000Y-65840030D02*
X90020000Y-66040000D01*
%TO.N,Net-(D32-Pad1)*%
X88455000Y-66040000D02*
X87630000Y-65215000D01*
X89050000Y-66040000D02*
X88455000Y-66040000D01*
%TO.N,Net-(D34-Pad1)*%
X63350000Y-73460030D02*
X63350000Y-73660000D01*
X62380000Y-72490030D02*
X63350000Y-73460030D01*
X62380000Y-71120000D02*
X62380000Y-72490030D01*
%TO.N,Net-(D35-Pad1)*%
X62380000Y-73660000D02*
X62380000Y-75030030D01*
X62380000Y-75030030D02*
X63350000Y-76000030D01*
X63350000Y-76000030D02*
X63350000Y-76200000D01*
%TO.N,Net-(D36-Pad1)*%
X61785000Y-76200000D02*
X60960000Y-75375000D01*
X62380000Y-76200000D02*
X61785000Y-76200000D01*
%TO.N,Net-(D38-Pad1)*%
X67160000Y-73460030D02*
X67160000Y-73660000D01*
X66190000Y-72490030D02*
X67160000Y-73460030D01*
X66190000Y-71120000D02*
X66190000Y-72490030D01*
%TO.N,Net-(D39-Pad1)*%
X66190000Y-73660000D02*
X66190000Y-75030030D01*
X66190000Y-75030030D02*
X67160000Y-76000030D01*
X67160000Y-76000030D02*
X67160000Y-76200000D01*
%TO.N,Net-(D40-Pad1)*%
X66190000Y-76200000D02*
X65595000Y-76200000D01*
X65595000Y-76200000D02*
X64770000Y-75375000D01*
%TO.N,Net-(D42-Pad1)*%
X70000000Y-71120000D02*
X70000000Y-72490030D01*
X70970000Y-73460030D02*
X70970000Y-73660000D01*
X70000000Y-72490030D02*
X70970000Y-73460030D01*
%TO.N,Net-(D43-Pad1)*%
X70000000Y-73660000D02*
X70000000Y-75030030D01*
X70000000Y-75030030D02*
X70970000Y-76000030D01*
X70970000Y-76000030D02*
X70970000Y-76200000D01*
%TO.N,Net-(D44-Pad1)*%
X70000000Y-76200000D02*
X69405000Y-76200000D01*
X69405000Y-76200000D02*
X68580000Y-75375000D01*
%TO.N,Net-(D46-Pad1)*%
X73810000Y-72490030D02*
X74780000Y-73460030D01*
X74780000Y-73460030D02*
X74780000Y-73660000D01*
X73810000Y-71120000D02*
X73810000Y-72490030D01*
%TO.N,Net-(D47-Pad1)*%
X73810000Y-75030030D02*
X74780000Y-76000030D01*
X73810000Y-73660000D02*
X73810000Y-75030030D01*
X74780000Y-76000030D02*
X74780000Y-76200000D01*
%TO.N,Net-(D48-Pad1)*%
X73215000Y-76200000D02*
X72390000Y-75375000D01*
X73810000Y-76200000D02*
X73215000Y-76200000D01*
%TO.N,Net-(D50-Pad1)*%
X77620000Y-71120000D02*
X77620000Y-72490030D01*
X77620000Y-72490030D02*
X78590000Y-73460030D01*
X78590000Y-73460030D02*
X78590000Y-73660000D01*
%TO.N,Net-(D51-Pad1)*%
X78590000Y-76000030D02*
X78590000Y-76200000D01*
X77620000Y-73660000D02*
X77620000Y-75030030D01*
X77620000Y-75030030D02*
X78590000Y-76000030D01*
%TO.N,Net-(D52-Pad1)*%
X77025000Y-76200000D02*
X76200000Y-75375000D01*
X77620000Y-76200000D02*
X77025000Y-76200000D01*
%TO.N,Net-(D54-Pad1)*%
X82400000Y-73460030D02*
X82400000Y-73660000D01*
X81430000Y-72490030D02*
X82400000Y-73460030D01*
X81430000Y-71120000D02*
X81430000Y-72490030D01*
%TO.N,Net-(D55-Pad1)*%
X81430000Y-75030030D02*
X82400000Y-76000030D01*
X82400000Y-76000030D02*
X82400000Y-76200000D01*
X81430000Y-73660000D02*
X81430000Y-75030030D01*
%TO.N,Net-(D56-Pad1)*%
X81430000Y-76200000D02*
X80835000Y-76200000D01*
X80835000Y-76200000D02*
X80010000Y-75375000D01*
%TO.N,Net-(D58-Pad1)*%
X85240000Y-72490030D02*
X86210000Y-73460030D01*
X85240000Y-71120000D02*
X85240000Y-72490030D01*
X86210000Y-73460030D02*
X86210000Y-73660000D01*
%TO.N,Net-(D59-Pad1)*%
X85240000Y-75030030D02*
X86210000Y-76000030D01*
X85240000Y-73660000D02*
X85240000Y-75030030D01*
X86210000Y-76000030D02*
X86210000Y-76200000D01*
%TO.N,Net-(D60-Pad1)*%
X85240000Y-76200000D02*
X84645000Y-76200000D01*
X84645000Y-76200000D02*
X83820000Y-75375000D01*
%TO.N,Net-(D62-Pad1)*%
X89050000Y-71120000D02*
X89050000Y-72490030D01*
X90020000Y-73460030D02*
X90020000Y-73660000D01*
X89050000Y-72490030D02*
X90020000Y-73460030D01*
%TO.N,Net-(D63-Pad1)*%
X89050000Y-75030030D02*
X90020000Y-76000030D01*
X90020000Y-76000030D02*
X90020000Y-76200000D01*
X89050000Y-73660000D02*
X89050000Y-75030030D01*
%TO.N,Net-(D64-Pad1)*%
X88455000Y-76200000D02*
X87630000Y-75375000D01*
X89050000Y-76200000D02*
X88455000Y-76200000D01*
%TD*%
M02*
