%TF.GenerationSoftware,KiCad,Pcbnew,6.0.2+dfsg-1*%
%TF.CreationDate,2022-11-16T09:07:21-05:00*%
%TF.ProjectId,dragon-light-panel,64726167-6f6e-42d6-9c69-6768742d7061,rev?*%
%TF.SameCoordinates,Original*%
%TF.FileFunction,Paste,Top*%
%TF.FilePolarity,Positive*%
%FSLAX46Y46*%
G04 Gerber Fmt 4.6, Leading zero omitted, Abs format (unit mm)*
G04 Created by KiCad (PCBNEW 6.0.2+dfsg-1) date 2022-11-16 09:07:21*
%MOMM*%
%LPD*%
G01*
G04 APERTURE LIST*
G04 Aperture macros list*
%AMRoundRect*
0 Rectangle with rounded corners*
0 $1 Rounding radius*
0 $2 $3 $4 $5 $6 $7 $8 $9 X,Y pos of 4 corners*
0 Add a 4 corners polygon primitive as box body*
4,1,4,$2,$3,$4,$5,$6,$7,$8,$9,$2,$3,0*
0 Add four circle primitives for the rounded corners*
1,1,$1+$1,$2,$3*
1,1,$1+$1,$4,$5*
1,1,$1+$1,$6,$7*
1,1,$1+$1,$8,$9*
0 Add four rect primitives between the rounded corners*
20,1,$1+$1,$2,$3,$4,$5,0*
20,1,$1+$1,$4,$5,$6,$7,0*
20,1,$1+$1,$6,$7,$8,$9,0*
20,1,$1+$1,$8,$9,$2,$3,0*%
G04 Aperture macros list end*
%ADD10RoundRect,0.200000X0.275000X-0.200000X0.275000X0.200000X-0.275000X0.200000X-0.275000X-0.200000X0*%
%ADD11RoundRect,0.147500X-0.147500X-0.172500X0.147500X-0.172500X0.147500X0.172500X-0.147500X0.172500X0*%
G04 APERTURE END LIST*
D10*
%TO.C,R5*%
X76200000Y-66865000D03*
X76200000Y-65215000D03*
%TD*%
D11*
%TO.C,D24*%
X81430000Y-66040000D03*
X82400000Y-66040000D03*
%TD*%
D10*
%TO.C,R4*%
X72390000Y-66865000D03*
X72390000Y-65215000D03*
%TD*%
D11*
%TO.C,D44*%
X70000000Y-76200000D03*
X70970000Y-76200000D03*
%TD*%
%TO.C,D1*%
X62380000Y-58420000D03*
X63350000Y-58420000D03*
%TD*%
%TO.C,D17*%
X77620000Y-58420000D03*
X78590000Y-58420000D03*
%TD*%
%TO.C,D41*%
X70000000Y-68580000D03*
X70970000Y-68580000D03*
%TD*%
D10*
%TO.C,R11*%
X68580000Y-77025000D03*
X68580000Y-75375000D03*
%TD*%
D11*
%TO.C,D45*%
X73810000Y-68580000D03*
X74780000Y-68580000D03*
%TD*%
D10*
%TO.C,R14*%
X80010000Y-77025000D03*
X80010000Y-75375000D03*
%TD*%
D11*
%TO.C,D2*%
X62380000Y-60960000D03*
X63350000Y-60960000D03*
%TD*%
%TO.C,D7*%
X66190000Y-63500000D03*
X67160000Y-63500000D03*
%TD*%
%TO.C,D51*%
X77620000Y-73660000D03*
X78590000Y-73660000D03*
%TD*%
%TO.C,D28*%
X85240000Y-66040000D03*
X86210000Y-66040000D03*
%TD*%
D10*
%TO.C,R3*%
X68580000Y-66865000D03*
X68580000Y-65215000D03*
%TD*%
D11*
%TO.C,D33*%
X62380000Y-68580000D03*
X63350000Y-68580000D03*
%TD*%
%TO.C,D22*%
X81430000Y-60960000D03*
X82400000Y-60960000D03*
%TD*%
%TO.C,D63*%
X89050000Y-73660000D03*
X90020000Y-73660000D03*
%TD*%
%TO.C,D60*%
X85240000Y-76200000D03*
X86210000Y-76200000D03*
%TD*%
%TO.C,D52*%
X77620000Y-76200000D03*
X78590000Y-76200000D03*
%TD*%
%TO.C,D53*%
X81430000Y-68580000D03*
X82400000Y-68580000D03*
%TD*%
%TO.C,D57*%
X85240000Y-68580000D03*
X86210000Y-68580000D03*
%TD*%
%TO.C,D25*%
X85240000Y-58420000D03*
X86210000Y-58420000D03*
%TD*%
%TO.C,D9*%
X70000000Y-58420000D03*
X70970000Y-58420000D03*
%TD*%
%TO.C,D55*%
X81430000Y-73660000D03*
X82400000Y-73660000D03*
%TD*%
%TO.C,D62*%
X89050000Y-71120000D03*
X90020000Y-71120000D03*
%TD*%
%TO.C,D11*%
X70000000Y-63500000D03*
X70970000Y-63500000D03*
%TD*%
%TO.C,D42*%
X70000000Y-71120000D03*
X70970000Y-71120000D03*
%TD*%
%TO.C,D47*%
X73810000Y-73660000D03*
X74780000Y-73660000D03*
%TD*%
%TO.C,D61*%
X89050000Y-68580000D03*
X90020000Y-68580000D03*
%TD*%
%TO.C,D8*%
X66190000Y-66040000D03*
X67160000Y-66040000D03*
%TD*%
%TO.C,D37*%
X66190000Y-68580000D03*
X67160000Y-68580000D03*
%TD*%
%TO.C,D56*%
X81430000Y-76200000D03*
X82400000Y-76200000D03*
%TD*%
%TO.C,D58*%
X85240000Y-71120000D03*
X86210000Y-71120000D03*
%TD*%
%TO.C,D48*%
X73810000Y-76200000D03*
X74780000Y-76200000D03*
%TD*%
%TO.C,D31*%
X89050000Y-63500000D03*
X90020000Y-63500000D03*
%TD*%
%TO.C,D6*%
X66190000Y-60960000D03*
X67160000Y-60960000D03*
%TD*%
%TO.C,D14*%
X73810000Y-60960000D03*
X74780000Y-60960000D03*
%TD*%
%TO.C,D19*%
X77620000Y-63500000D03*
X78590000Y-63500000D03*
%TD*%
D10*
%TO.C,R15*%
X83820000Y-77025000D03*
X83820000Y-75375000D03*
%TD*%
D11*
%TO.C,D20*%
X77620000Y-66040000D03*
X78590000Y-66040000D03*
%TD*%
%TO.C,D36*%
X62380000Y-76200000D03*
X63350000Y-76200000D03*
%TD*%
%TO.C,D26*%
X85240000Y-60960000D03*
X86210000Y-60960000D03*
%TD*%
%TO.C,D18*%
X77620000Y-60960000D03*
X78590000Y-60960000D03*
%TD*%
%TO.C,D23*%
X81430000Y-63500000D03*
X82400000Y-63500000D03*
%TD*%
%TO.C,D54*%
X81430000Y-71120000D03*
X82400000Y-71120000D03*
%TD*%
%TO.C,D16*%
X73810000Y-66040000D03*
X74780000Y-66040000D03*
%TD*%
%TO.C,D29*%
X89050000Y-58420000D03*
X90020000Y-58420000D03*
%TD*%
%TO.C,D64*%
X89050000Y-76200000D03*
X90020000Y-76200000D03*
%TD*%
D10*
%TO.C,R8*%
X87630000Y-66865000D03*
X87630000Y-65215000D03*
%TD*%
D11*
%TO.C,D59*%
X85240000Y-73660000D03*
X86210000Y-73660000D03*
%TD*%
%TO.C,D27*%
X85240000Y-63500000D03*
X86210000Y-63500000D03*
%TD*%
%TO.C,D5*%
X66190000Y-58420000D03*
X67160000Y-58420000D03*
%TD*%
D10*
%TO.C,R9*%
X60960000Y-77025000D03*
X60960000Y-75375000D03*
%TD*%
D11*
%TO.C,D43*%
X70000000Y-73660000D03*
X70970000Y-73660000D03*
%TD*%
D10*
%TO.C,R7*%
X83820000Y-66865000D03*
X83820000Y-65215000D03*
%TD*%
D11*
%TO.C,D3*%
X62380000Y-63500000D03*
X63350000Y-63500000D03*
%TD*%
D10*
%TO.C,R1*%
X60960000Y-66865000D03*
X60960000Y-65215000D03*
%TD*%
%TO.C,R13*%
X76200000Y-77025000D03*
X76200000Y-75375000D03*
%TD*%
%TO.C,R16*%
X87630000Y-77025000D03*
X87630000Y-75375000D03*
%TD*%
D11*
%TO.C,D35*%
X62380000Y-73660000D03*
X63350000Y-73660000D03*
%TD*%
%TO.C,D38*%
X66190000Y-71120000D03*
X67160000Y-71120000D03*
%TD*%
%TO.C,D10*%
X70000000Y-60960000D03*
X70970000Y-60960000D03*
%TD*%
%TO.C,D34*%
X62380000Y-71120000D03*
X63350000Y-71120000D03*
%TD*%
%TO.C,D30*%
X89050000Y-60960000D03*
X90020000Y-60960000D03*
%TD*%
%TO.C,D13*%
X73810000Y-58420000D03*
X74780000Y-58420000D03*
%TD*%
%TO.C,D21*%
X81430000Y-58420000D03*
X82400000Y-58420000D03*
%TD*%
%TO.C,D46*%
X73810000Y-71120000D03*
X74780000Y-71120000D03*
%TD*%
%TO.C,D39*%
X66190000Y-73660000D03*
X67160000Y-73660000D03*
%TD*%
%TO.C,D32*%
X89050000Y-66040000D03*
X90020000Y-66040000D03*
%TD*%
D10*
%TO.C,R2*%
X64770000Y-66865000D03*
X64770000Y-65215000D03*
%TD*%
%TO.C,R6*%
X80010000Y-66865000D03*
X80010000Y-65215000D03*
%TD*%
%TO.C,R10*%
X64770000Y-77025000D03*
X64770000Y-75375000D03*
%TD*%
D11*
%TO.C,D40*%
X66190000Y-76200000D03*
X67160000Y-76200000D03*
%TD*%
%TO.C,D12*%
X70000000Y-66040000D03*
X70970000Y-66040000D03*
%TD*%
%TO.C,D49*%
X77620000Y-68580000D03*
X78590000Y-68580000D03*
%TD*%
%TO.C,D4*%
X62380000Y-66040000D03*
X63350000Y-66040000D03*
%TD*%
%TO.C,D15*%
X73810000Y-63500000D03*
X74780000Y-63500000D03*
%TD*%
%TO.C,D50*%
X77620000Y-71120000D03*
X78590000Y-71120000D03*
%TD*%
D10*
%TO.C,R12*%
X72390000Y-77025000D03*
X72390000Y-75375000D03*
%TD*%
M02*
