M48
; DRILL file {KiCad 6.0.2+dfsg-1} date Sat 03 Dec 2022 02:35:56 PM EST
; FORMAT={-:-/ absolute / inch / decimal}
; #@! TF.CreationDate,2022-12-03T14:35:56-05:00
; #@! TF.GenerationSoftware,Kicad,Pcbnew,6.0.2+dfsg-1
; #@! TF.FileFunction,Plated,1,2,PTH
FMAT,2
INCH
; #@! TA.AperFunction,Plated,PTH,ViaDrill
T1C0.0118
; #@! TA.AperFunction,Plated,PTH,ViaDrill
T2C0.0157
; #@! TA.AperFunction,Plated,PTH,ComponentDrill
T3C0.0299
; #@! TA.AperFunction,Plated,PTH,ComponentDrill
T4C0.0300
; #@! TA.AperFunction,Plated,PTH,ComponentDrill
T5C0.0354
; #@! TA.AperFunction,Plated,PTH,ComponentDrill
T6C0.0374
; #@! TA.AperFunction,Plated,PTH,ComponentDrill
T7C0.0394
; #@! TA.AperFunction,Plated,PTH,ComponentDrill
T8C0.0400
; #@! TA.AperFunction,Plated,PTH,ComponentDrill
T9C0.0402
; #@! TA.AperFunction,Plated,PTH,ComponentDrill
T10C0.0500
; #@! TA.AperFunction,Plated,PTH,ComponentDrill
T11C0.0512
; #@! TA.AperFunction,Plated,PTH,ComponentDrill
T12C0.0630
; #@! TA.AperFunction,Plated,PTH,ComponentDrill
T13C0.1000
; #@! TA.AperFunction,Plated,PTH,ComponentDrill
T14C0.1260
%
G90
G05
T1
X3.1584Y-3.6759
X5.465Y-2.6959
X5.595Y-2.5959
X5.666Y-2.75
X5.6793Y-2.5159
X5.735Y-2.3959
X5.8544Y-2.7498
X5.8753Y-2.2839
X5.8801Y-2.5156
X5.8817Y-2.4775
X5.905Y-2.2524
X5.9234Y-2.3106
X5.945Y-2.2659
X5.965Y-2.3359
X5.9756Y-2.38
X6.005Y-2.6059
X6.01Y-2.4659
X6.0566Y-2.4429
X6.08Y-2.4185
T2
X2.495Y-3.8759
X2.535Y-3.8759
X2.575Y-3.8759
X2.815Y-3.5959
X2.855Y-3.6359
X2.875Y-3.5059
X2.8856Y-3.2266
X2.945Y-3.6359
X2.955Y-3.1159
X2.995Y-3.5059
X3.025Y-3.0226
X3.025Y-3.2359
X3.055Y-3.5659
X3.065Y-3.2659
X3.065Y-3.3059
X3.0656Y-3.0353
X3.095Y-2.8359
X3.145Y-2.8459
X3.145Y-2.8859
X3.1583Y-2.9359
X3.175Y-3.5659
X3.185Y-3.2259
X3.185Y-3.2659
X3.185Y-3.3053
X3.1922Y-3.1309
X3.2422Y-3.1009
X3.245Y-3.1959
X3.245Y-3.2459
X3.295Y-3.2459
X3.2959Y-3.1959
X3.3222Y-3.3009
X3.365Y-4.1859
X3.3922Y-3.1709
X3.405Y-2.9659
X3.535Y-3.3959
X3.605Y-3.0859
X3.715Y-3.4959
X4.005Y-3.8359
X4.2363Y-2.1659
X4.2363Y-2.3021
X4.245Y-3.9459
X4.255Y-3.4059
X4.2756Y-2.1659
X4.2756Y-2.3021
X4.315Y-2.1659
X4.315Y-2.3021
X4.3544Y-2.3021
X4.3545Y-2.1654
X4.405Y-3.4059
X5.015Y-3.9759
X5.045Y-2.3059
X5.125Y-2.3459
X5.165Y-2.2559
X5.165Y-2.8259
X5.215Y-2.3059
X5.255Y-2.2559
X5.255Y-2.7659
X5.295Y-2.7659
X5.295Y-3.02
X5.395Y-2.3959
X5.395Y-2.9759
X5.425Y-2.1359
X5.445Y-2.4759
X5.445Y-2.9826
X5.515Y-2.4519
X5.515Y-2.5859
X5.5332Y-2.1977
X5.575Y-2.3959
X5.585Y-2.2284
X5.615Y-3.0659
X5.6236Y-2.1759
X5.675Y-2.8259
X5.735Y-2.4559
X5.735Y-2.4959
X5.735Y-2.5359
X5.755Y-1.8659
X5.755Y-2.8259
X5.755Y-3.5959
X5.775Y-2.4559
X5.775Y-2.4959
X5.775Y-2.5359
X5.795Y-2.1259
X5.795Y-3.0859
X5.795Y-3.6459
X5.795Y-3.7659
X5.805Y-3.4659
X5.8926Y-2.7933
X5.905Y-2.7559
X5.905Y-2.9659
X5.9097Y-2.0973
X5.98Y-4.46
X5.995Y-2.165
X6.075Y-3.5559
X6.125Y-3.5559
X6.145Y-3.2859
X6.145Y-3.4159
X6.185Y-1.8659
X6.215Y-2.5259
X6.295Y-2.2359
X6.355Y-2.8059
X6.3597Y-2.6736
X6.365Y-2.3059
X6.415Y-2.5659
X6.6Y-2.32
X6.64Y-2.32
X6.68Y-2.32
X6.8Y-2.32
X6.84Y-2.32
X6.88Y-2.32
X6.995Y-1.835
X6.995Y-1.97
X7.0Y-2.065
X7.2Y-2.55
X7.25Y-2.95
X7.25Y-3.0
X7.25Y-3.05
X7.25Y-3.1
X7.25Y-3.15
X7.25Y-3.2
X7.25Y-3.25
X7.3Y-2.95
X7.3Y-3.0
X7.3Y-3.05
X7.3Y-3.1
X7.3Y-3.15
X7.3Y-3.2
X7.3Y-3.25
X7.35Y-2.95
X7.35Y-3.0
X7.35Y-3.05
X7.35Y-3.1
X7.35Y-3.15
X7.35Y-3.2
X7.35Y-3.25
X7.4Y-2.95
X7.4Y-3.0
X7.4Y-3.05
X7.4Y-3.1
X7.4Y-3.15
X7.4Y-3.2
X7.4Y-3.25
X7.45Y-2.95
X7.45Y-3.0
X7.45Y-3.05
X7.45Y-3.1
X7.45Y-3.15
X7.45Y-3.2
X7.45Y-3.25
X7.4606Y-2.5389
X7.49Y-1.87
X7.49Y-2.15
X7.5Y-2.95
X7.5Y-3.0
X7.5Y-3.05
X7.5Y-3.1
X7.5Y-3.15
X7.5Y-3.2
X7.5Y-3.25
X7.51Y-2.54
X7.53Y-2.15
X7.55Y-2.95
X7.55Y-3.0
X7.55Y-3.05
X7.55Y-3.1
X7.55Y-3.15
X7.55Y-3.2
X7.55Y-3.25
X7.6Y-2.67
X7.6Y-2.71
X7.6Y-2.75
X7.6Y-2.79
X7.6Y-2.83
X7.975Y-2.95
X7.975Y-3.0
X7.975Y-3.05
X7.975Y-3.1
X7.975Y-3.15
X7.975Y-3.2
X7.975Y-3.25
X7.98Y-2.41
X8.025Y-2.95
X8.025Y-3.0
X8.025Y-3.05
X8.025Y-3.1
X8.025Y-3.15
X8.025Y-3.2
X8.025Y-3.25
X8.075Y-2.95
X8.075Y-3.0
X8.075Y-3.05
X8.075Y-3.1
X8.075Y-3.15
X8.075Y-3.2
X8.075Y-3.25
X8.125Y-2.95
X8.125Y-3.0
X8.125Y-3.05
X8.125Y-3.1
X8.125Y-3.15
X8.125Y-3.2
X8.125Y-3.25
X8.175Y-2.95
X8.175Y-3.0
X8.175Y-3.05
X8.175Y-3.1
X8.175Y-3.15
X8.175Y-3.2
X8.175Y-3.25
X8.225Y-2.95
X8.225Y-3.0
X8.225Y-3.05
X8.225Y-3.1
X8.225Y-3.15
X8.225Y-3.2
X8.225Y-3.25
X8.275Y-2.95
X8.275Y-3.0
X8.275Y-3.05
X8.275Y-3.1
X8.275Y-3.15
X8.275Y-3.2
X8.275Y-3.25
X8.32Y-2.664
X8.32Y-2.704
X8.32Y-2.744
X8.32Y-2.784
X8.32Y-2.824
T3
X5.37Y-3.99
X5.42Y-3.89
X5.47Y-3.99
X5.52Y-3.89
X5.57Y-3.99
X5.62Y-3.89
X5.67Y-3.99
X5.72Y-3.89
T4
X5.0359Y-2.6453
X5.1359Y-2.5453
X5.2359Y-2.6453
T5
X2.85Y-3.9059
X2.9Y-3.8059
X2.95Y-3.9059
X3.0Y-3.8059
X3.05Y-3.9059
X3.1Y-3.8059
X3.15Y-3.9059
X3.2Y-3.8059
T6
X5.3866Y-3.5852
X5.485Y-3.5852
X5.5834Y-3.5852
T7
X4.4558Y-3.7952
X4.5542Y-3.7952
X4.7858Y-3.2152
X4.8658Y-3.7952
X4.8842Y-3.2152
X4.9642Y-3.7952
X5.1358Y-3.2152
X5.2342Y-3.2152
X5.4858Y-3.2152
X5.5842Y-3.2152
X5.945Y-1.7153
X5.945Y-1.8153
X5.945Y-1.9153
X5.9692Y-3.0816
X6.0692Y-3.0816
X6.1692Y-3.0816
T8
X3.9944Y-2.3859
X4.585Y-2.3859
T9
X2.776Y-4.3559
X2.877Y-4.289
X3.173Y-4.3559
X3.274Y-4.289
T11
X6.4534Y-4.1124
X7.0334Y-4.1124
X7.4804Y-4.1121
X8.0604Y-4.1121
T12
X2.7199Y-4.0358
X3.3301Y-4.0358
T13
X6.845Y-2.6359
X6.845Y-2.8359
X6.845Y-2.9957
X6.845Y-3.1957
T14
X2.4Y-1.8
X2.4Y-4.4
X6.55Y-2.9
X8.3Y-1.8
X8.3Y-4.4
T7
G00X3.6026Y-4.194
M15
G01X3.642Y-4.194
M16
G05
G00X3.6026Y-4.4105
M15
G01X3.642Y-4.4105
M16
G05
G00X3.6814Y-4.0483
M15
G01X3.7207Y-4.0483
M16
G05
G00X3.6814Y-4.505
M15
G01X3.7207Y-4.505
M16
G05
G00X4.0026Y-4.194
M15
G01X4.042Y-4.194
M16
G05
G00X4.0026Y-4.4105
M15
G01X4.042Y-4.4105
M16
G05
G00X4.0814Y-4.0483
M15
G01X4.1207Y-4.0483
M16
G05
G00X4.0814Y-4.505
M15
G01X4.1207Y-4.505
M16
G05
G00X4.4126Y-4.1945
M15
G01X4.452Y-4.1945
M16
G05
G00X4.4126Y-4.411
M15
G01X4.452Y-4.411
M16
G05
G00X4.4914Y-4.0488
M15
G01X4.5307Y-4.0488
M16
G05
G00X4.4914Y-4.5055
M15
G01X4.5307Y-4.5055
M16
G05
G00X4.8216Y-4.1949
M15
G01X4.8609Y-4.1949
M16
G05
G00X4.8216Y-4.4114
M15
G01X4.8609Y-4.4114
M16
G05
G00X4.9003Y-4.0492
M15
G01X4.9397Y-4.0492
M16
G05
G00X4.9003Y-4.5059
M15
G01X4.9397Y-4.5059
M16
G05
T10
G00X6.6614Y-3.3924
M15
G01X6.5055Y-3.3924
M16
G05
G00X6.9768Y-3.3924
M15
G01X6.8201Y-3.3924
M16
G05
G00X7.6884Y-3.3921
M15
G01X7.5325Y-3.3921
M16
G05
G00X8.0038Y-3.3921
M15
G01X7.8471Y-3.3921
M16
G05
T0
M30
