%TF.GenerationSoftware,KiCad,Pcbnew,6.0.2+dfsg-1*%
%TF.CreationDate,2022-12-03T14:35:54-05:00*%
%TF.ProjectId,dragon-lair-fully-integrated,64726167-6f6e-42d6-9c61-69722d66756c,rev?*%
%TF.SameCoordinates,Original*%
%TF.FileFunction,Paste,Top*%
%TF.FilePolarity,Positive*%
%FSLAX46Y46*%
G04 Gerber Fmt 4.6, Leading zero omitted, Abs format (unit mm)*
G04 Created by KiCad (PCBNEW 6.0.2+dfsg-1) date 2022-12-03 14:35:54*
%MOMM*%
%LPD*%
G01*
G04 APERTURE LIST*
G04 Aperture macros list*
%AMRoundRect*
0 Rectangle with rounded corners*
0 $1 Rounding radius*
0 $2 $3 $4 $5 $6 $7 $8 $9 X,Y pos of 4 corners*
0 Add a 4 corners polygon primitive as box body*
4,1,4,$2,$3,$4,$5,$6,$7,$8,$9,$2,$3,0*
0 Add four circle primitives for the rounded corners*
1,1,$1+$1,$2,$3*
1,1,$1+$1,$4,$5*
1,1,$1+$1,$6,$7*
1,1,$1+$1,$8,$9*
0 Add four rect primitives between the rounded corners*
20,1,$1+$1,$2,$3,$4,$5,0*
20,1,$1+$1,$4,$5,$6,$7,0*
20,1,$1+$1,$6,$7,$8,$9,0*
20,1,$1+$1,$8,$9,$2,$3,0*%
G04 Aperture macros list end*
%ADD10RoundRect,0.135000X0.185000X-0.135000X0.185000X0.135000X-0.185000X0.135000X-0.185000X-0.135000X0*%
%ADD11RoundRect,0.140000X-0.170000X0.140000X-0.170000X-0.140000X0.170000X-0.140000X0.170000X0.140000X0*%
%ADD12RoundRect,0.140000X0.170000X-0.140000X0.170000X0.140000X-0.170000X0.140000X-0.170000X-0.140000X0*%
%ADD13RoundRect,0.140000X0.140000X0.170000X-0.140000X0.170000X-0.140000X-0.170000X0.140000X-0.170000X0*%
%ADD14RoundRect,0.140000X-0.140000X-0.170000X0.140000X-0.170000X0.140000X0.170000X-0.140000X0.170000X0*%
%ADD15RoundRect,0.135000X-0.135000X-0.185000X0.135000X-0.185000X0.135000X0.185000X-0.135000X0.185000X0*%
%ADD16R,5.250000X4.550000*%
%ADD17R,0.800000X4.600000*%
%ADD18RoundRect,0.135000X0.135000X0.185000X-0.135000X0.185000X-0.135000X-0.185000X0.135000X-0.185000X0*%
%ADD19RoundRect,0.225000X0.250000X-0.225000X0.250000X0.225000X-0.250000X0.225000X-0.250000X-0.225000X0*%
%ADD20RoundRect,0.218750X0.256250X-0.218750X0.256250X0.218750X-0.256250X0.218750X-0.256250X-0.218750X0*%
%ADD21RoundRect,0.225000X-0.250000X0.225000X-0.250000X-0.225000X0.250000X-0.225000X0.250000X0.225000X0*%
%ADD22R,0.450000X1.380000*%
%ADD23R,1.425000X1.550000*%
%ADD24R,1.650000X1.300000*%
%ADD25R,1.800000X1.900000*%
%ADD26R,1.000000X1.900000*%
%ADD27R,0.750000X1.000000*%
%ADD28RoundRect,0.135000X-0.185000X0.135000X-0.185000X-0.135000X0.185000X-0.135000X0.185000X0.135000X0*%
%ADD29RoundRect,0.150000X-0.512500X-0.150000X0.512500X-0.150000X0.512500X0.150000X-0.512500X0.150000X0*%
%ADD30R,0.600000X0.450000*%
%ADD31R,1.400000X1.200000*%
%ADD32RoundRect,0.150000X-0.587500X-0.150000X0.587500X-0.150000X0.587500X0.150000X-0.587500X0.150000X0*%
%ADD33RoundRect,0.200000X-0.275000X0.200000X-0.275000X-0.200000X0.275000X-0.200000X0.275000X0.200000X0*%
%ADD34R,0.450000X0.600000*%
%ADD35RoundRect,0.250000X0.315000X0.315000X-0.315000X0.315000X-0.315000X-0.315000X0.315000X-0.315000X0*%
%ADD36RoundRect,0.050000X0.387500X0.050000X-0.387500X0.050000X-0.387500X-0.050000X0.387500X-0.050000X0*%
%ADD37RoundRect,0.050000X0.050000X0.387500X-0.050000X0.387500X-0.050000X-0.387500X0.050000X-0.387500X0*%
%ADD38RoundRect,0.162500X0.162500X-1.012500X0.162500X1.012500X-0.162500X1.012500X-0.162500X-1.012500X0*%
%ADD39RoundRect,0.150000X-0.150000X0.825000X-0.150000X-0.825000X0.150000X-0.825000X0.150000X0.825000X0*%
%ADD40RoundRect,0.250000X1.500000X0.550000X-1.500000X0.550000X-1.500000X-0.550000X1.500000X-0.550000X0*%
%ADD41RoundRect,0.100000X-0.637500X-0.100000X0.637500X-0.100000X0.637500X0.100000X-0.637500X0.100000X0*%
%ADD42RoundRect,0.249999X1.450001X-0.450001X1.450001X0.450001X-1.450001X0.450001X-1.450001X-0.450001X0*%
%ADD43RoundRect,0.242500X0.242500X0.242500X-0.242500X0.242500X-0.242500X-0.242500X0.242500X-0.242500X0*%
%ADD44RoundRect,0.075000X0.662500X0.075000X-0.662500X0.075000X-0.662500X-0.075000X0.662500X-0.075000X0*%
%ADD45RoundRect,0.075000X0.075000X0.662500X-0.075000X0.662500X-0.075000X-0.662500X0.075000X-0.662500X0*%
G04 APERTURE END LIST*
D10*
%TO.C,R20*%
X69469000Y-94386000D03*
X69469000Y-93366000D03*
%TD*%
%TO.C,R17*%
X73787000Y-94386000D03*
X73787000Y-93366000D03*
%TD*%
%TO.C,R23*%
X78359000Y-94386000D03*
X78359000Y-93366000D03*
%TD*%
D11*
%TO.C,C5*%
X148763500Y-69840000D03*
X148763500Y-70800000D03*
%TD*%
D10*
%TO.C,R6*%
X162941000Y-62128000D03*
X162941000Y-61108000D03*
%TD*%
%TO.C,R15*%
X74803000Y-94386000D03*
X74803000Y-93366000D03*
%TD*%
D12*
%TO.C,C32*%
X202438000Y-66113600D03*
X202438000Y-65153600D03*
%TD*%
D13*
%TO.C,C9*%
X142043500Y-65920000D03*
X141083500Y-65920000D03*
%TD*%
D12*
%TO.C,C40*%
X185420000Y-66266000D03*
X185420000Y-65306000D03*
%TD*%
D14*
%TO.C,C18*%
X159525000Y-89403000D03*
X160485000Y-89403000D03*
%TD*%
D15*
%TO.C,R28*%
X71683000Y-83646000D03*
X72703000Y-83646000D03*
%TD*%
D12*
%TO.C,C39*%
X187960000Y-66266000D03*
X187960000Y-65306000D03*
%TD*%
D14*
%TO.C,C12*%
X151539000Y-66190000D03*
X152499000Y-66190000D03*
%TD*%
D16*
%TO.C,Q3*%
X185185000Y-76295600D03*
X190735000Y-76295600D03*
X185185000Y-81145600D03*
X190735000Y-81145600D03*
D17*
X191770000Y-69570600D03*
X190500000Y-69570600D03*
X189230000Y-69570600D03*
X187960000Y-69570600D03*
X186690000Y-69570600D03*
X185420000Y-69570600D03*
X184150000Y-69570600D03*
%TD*%
D18*
%TO.C,R8*%
X160515000Y-88133000D03*
X159495000Y-88133000D03*
%TD*%
D12*
%TO.C,C2*%
X153020000Y-86708000D03*
X153020000Y-85748000D03*
%TD*%
D19*
%TO.C,C36*%
X194564000Y-74435000D03*
X194564000Y-72885000D03*
%TD*%
D14*
%TO.C,C49*%
X89493000Y-78312000D03*
X90453000Y-78312000D03*
%TD*%
D13*
%TO.C,C6*%
X144043500Y-68120000D03*
X143083500Y-68120000D03*
%TD*%
D11*
%TO.C,C48*%
X90043000Y-82474000D03*
X90043000Y-83434000D03*
%TD*%
D20*
%TO.C,L1*%
X89789000Y-86281500D03*
X89789000Y-84706500D03*
%TD*%
D21*
%TO.C,C34*%
X181356000Y-72885000D03*
X181356000Y-74435000D03*
%TD*%
D22*
%TO.C,P1*%
X154710000Y-112327500D03*
X155360000Y-112327500D03*
X156010000Y-112327500D03*
X156660000Y-112327500D03*
X157310000Y-112327500D03*
D23*
X153522500Y-112412500D03*
X158497500Y-112412500D03*
D24*
X152635000Y-114987500D03*
D25*
X154860000Y-114987500D03*
D26*
X157560000Y-114987500D03*
D24*
X159385000Y-114987500D03*
%TD*%
D27*
%TO.C,SW1*%
X154462000Y-48870000D03*
X154462000Y-42870000D03*
X158212000Y-48870000D03*
X158212000Y-42870000D03*
%TD*%
D21*
%TO.C,C30*%
X154157500Y-72416750D03*
X154157500Y-73966750D03*
%TD*%
D28*
%TO.C,R25*%
X66929000Y-93368000D03*
X66929000Y-94388000D03*
%TD*%
D14*
%TO.C,C16*%
X150725500Y-56661000D03*
X151685500Y-56661000D03*
%TD*%
D28*
%TO.C,R38*%
X178943000Y-46605000D03*
X178943000Y-47625000D03*
%TD*%
D12*
%TO.C,C50*%
X84385000Y-75490000D03*
X84385000Y-74530000D03*
%TD*%
D29*
%TO.C,U1*%
X150612500Y-88453000D03*
X150612500Y-89403000D03*
X150612500Y-90353000D03*
X152887500Y-90353000D03*
X152887500Y-88453000D03*
%TD*%
D21*
%TO.C,C33*%
X199644000Y-72732600D03*
X199644000Y-74282600D03*
%TD*%
D11*
%TO.C,C41*%
X189103000Y-46510000D03*
X189103000Y-47470000D03*
%TD*%
D15*
%TO.C,R18*%
X77779000Y-84916000D03*
X78799000Y-84916000D03*
%TD*%
D10*
%TO.C,R16*%
X70485000Y-94386000D03*
X70485000Y-93366000D03*
%TD*%
D12*
%TO.C,C21*%
X76073000Y-94356000D03*
X76073000Y-93396000D03*
%TD*%
D30*
%TO.C,D3*%
X149297500Y-85273000D03*
X151397500Y-85273000D03*
%TD*%
D10*
%TO.C,R29*%
X96591500Y-100842000D03*
X96591500Y-99822000D03*
%TD*%
D28*
%TO.C,R27*%
X75368000Y-80596000D03*
X75368000Y-81616000D03*
%TD*%
D14*
%TO.C,C44*%
X84921000Y-86948000D03*
X85881000Y-86948000D03*
%TD*%
D19*
%TO.C,C35*%
X212852000Y-74282600D03*
X212852000Y-72732600D03*
%TD*%
D10*
%TO.C,R31*%
X106751500Y-100842000D03*
X106751500Y-99822000D03*
%TD*%
D21*
%TO.C,C28*%
X147807500Y-85133000D03*
X147807500Y-86683000D03*
%TD*%
D14*
%TO.C,C45*%
X70513000Y-92352000D03*
X71473000Y-92352000D03*
%TD*%
D18*
%TO.C,R2*%
X152710000Y-110542500D03*
X151690000Y-110542500D03*
%TD*%
D11*
%TO.C,C7*%
X147563500Y-69840000D03*
X147563500Y-70800000D03*
%TD*%
D12*
%TO.C,C11*%
X147363500Y-57600000D03*
X147363500Y-56640000D03*
%TD*%
D18*
%TO.C,R39*%
X190248000Y-50165000D03*
X189228000Y-50165000D03*
%TD*%
D12*
%TO.C,C20*%
X71755000Y-94356000D03*
X71755000Y-93396000D03*
%TD*%
D10*
%TO.C,R7*%
X144399000Y-57683000D03*
X144399000Y-56663000D03*
%TD*%
D31*
%TO.C,Y1*%
X150105500Y-54971000D03*
X152305500Y-54971000D03*
X152305500Y-53271000D03*
X150105500Y-53271000D03*
%TD*%
D10*
%TO.C,R24*%
X77343000Y-94386000D03*
X77343000Y-93366000D03*
%TD*%
D32*
%TO.C,Q1*%
X155892500Y-88453000D03*
X155892500Y-90353000D03*
X157767500Y-89403000D03*
%TD*%
D11*
%TO.C,C3*%
X143963500Y-69840000D03*
X143963500Y-70800000D03*
%TD*%
D33*
%TO.C,R9*%
X156645000Y-107812500D03*
X156645000Y-109462500D03*
%TD*%
D10*
%TO.C,R36*%
X186436000Y-66296000D03*
X186436000Y-65276000D03*
%TD*%
D12*
%TO.C,C51*%
X85401000Y-75490000D03*
X85401000Y-74530000D03*
%TD*%
D10*
%TO.C,R4*%
X148495500Y-55535000D03*
X148495500Y-54515000D03*
%TD*%
D12*
%TO.C,C38*%
X206248000Y-66113600D03*
X206248000Y-65153600D03*
%TD*%
D11*
%TO.C,C22*%
X79375000Y-91364000D03*
X79375000Y-92324000D03*
%TD*%
D12*
%TO.C,C42*%
X85471000Y-108326000D03*
X85471000Y-107366000D03*
%TD*%
D18*
%TO.C,R43*%
X190248000Y-52705000D03*
X189228000Y-52705000D03*
%TD*%
D12*
%TO.C,C31*%
X184150000Y-66266000D03*
X184150000Y-65306000D03*
%TD*%
D18*
%TO.C,R37*%
X190248000Y-48895000D03*
X189228000Y-48895000D03*
%TD*%
D10*
%TO.C,R21*%
X78359000Y-92354000D03*
X78359000Y-91334000D03*
%TD*%
D11*
%TO.C,C14*%
X153020000Y-92098000D03*
X153020000Y-93058000D03*
%TD*%
D12*
%TO.C,C25*%
X81337000Y-75490000D03*
X81337000Y-74530000D03*
%TD*%
D34*
%TO.C,D1*%
X152835000Y-106952500D03*
X152835000Y-109052500D03*
%TD*%
D35*
%TO.C,U3*%
X147503500Y-62680000D03*
X146103500Y-62680000D03*
X147503500Y-64080000D03*
X146103500Y-64080000D03*
D36*
X150241000Y-65980000D03*
X150241000Y-65580000D03*
X150241000Y-65180000D03*
X150241000Y-64780000D03*
X150241000Y-64380000D03*
X150241000Y-63980000D03*
X150241000Y-63580000D03*
X150241000Y-63180000D03*
X150241000Y-62780000D03*
X150241000Y-62380000D03*
X150241000Y-61980000D03*
X150241000Y-61580000D03*
X150241000Y-61180000D03*
X150241000Y-60780000D03*
D37*
X149403500Y-59942500D03*
X149003500Y-59942500D03*
X148603500Y-59942500D03*
X148203500Y-59942500D03*
X147803500Y-59942500D03*
X147403500Y-59942500D03*
X147003500Y-59942500D03*
X146603500Y-59942500D03*
X146203500Y-59942500D03*
X145803500Y-59942500D03*
X145403500Y-59942500D03*
X145003500Y-59942500D03*
X144603500Y-59942500D03*
X144203500Y-59942500D03*
D36*
X143366000Y-60780000D03*
X143366000Y-61180000D03*
X143366000Y-61580000D03*
X143366000Y-61980000D03*
X143366000Y-62380000D03*
X143366000Y-62780000D03*
X143366000Y-63180000D03*
X143366000Y-63580000D03*
X143366000Y-63980000D03*
X143366000Y-64380000D03*
X143366000Y-64780000D03*
X143366000Y-65180000D03*
X143366000Y-65580000D03*
X143366000Y-65980000D03*
D37*
X144203500Y-66817500D03*
X144603500Y-66817500D03*
X145003500Y-66817500D03*
X145403500Y-66817500D03*
X145803500Y-66817500D03*
X146203500Y-66817500D03*
X146603500Y-66817500D03*
X147003500Y-66817500D03*
X147403500Y-66817500D03*
X147803500Y-66817500D03*
X148203500Y-66817500D03*
X148603500Y-66817500D03*
X149003500Y-66817500D03*
X149403500Y-66817500D03*
%TD*%
D12*
%TO.C,C37*%
X203708000Y-66113600D03*
X203708000Y-65153600D03*
%TD*%
%TO.C,C15*%
X162941000Y-67178000D03*
X162941000Y-66218000D03*
%TD*%
D18*
%TO.C,R41*%
X190248000Y-51435000D03*
X189228000Y-51435000D03*
%TD*%
%TO.C,R5*%
X160515000Y-90673000D03*
X159495000Y-90673000D03*
%TD*%
D38*
%TO.C,U9*%
X95321500Y-97237000D03*
X97861500Y-97237000D03*
X100401500Y-97237000D03*
X102941500Y-97237000D03*
X102941500Y-88187000D03*
X100401500Y-88187000D03*
X97861500Y-88187000D03*
X95321500Y-88187000D03*
%TD*%
D10*
%TO.C,R42*%
X178943000Y-52455000D03*
X178943000Y-51435000D03*
%TD*%
D34*
%TO.C,D2*%
X156697500Y-74241750D03*
X156697500Y-72141750D03*
%TD*%
D14*
%TO.C,C1*%
X150000000Y-86863000D03*
X150960000Y-86863000D03*
%TD*%
%TO.C,C47*%
X89493000Y-80344000D03*
X90453000Y-80344000D03*
%TD*%
D10*
%TO.C,R35*%
X188976000Y-66296000D03*
X188976000Y-65276000D03*
%TD*%
D39*
%TO.C,U2*%
X161671000Y-62803000D03*
X160401000Y-62803000D03*
X159131000Y-62803000D03*
X157861000Y-62803000D03*
X157861000Y-67753000D03*
X159131000Y-67753000D03*
X160401000Y-67753000D03*
X161671000Y-67753000D03*
%TD*%
D12*
%TO.C,C4*%
X146163500Y-57600000D03*
X146163500Y-56640000D03*
%TD*%
D28*
%TO.C,R3*%
X150295000Y-110542500D03*
X150295000Y-111562500D03*
%TD*%
D10*
%TO.C,R32*%
X101036500Y-100842000D03*
X101036500Y-99822000D03*
%TD*%
D12*
%TO.C,C46*%
X82353000Y-75490000D03*
X82353000Y-74530000D03*
%TD*%
D40*
%TO.C,C29*%
X173896000Y-58928000D03*
X168496000Y-58928000D03*
%TD*%
D27*
%TO.C,SW2*%
X143540000Y-48870000D03*
X143540000Y-42870000D03*
X147290000Y-42870000D03*
X147290000Y-48870000D03*
%TD*%
D11*
%TO.C,C17*%
X154380500Y-53641000D03*
X154380500Y-54601000D03*
%TD*%
D41*
%TO.C,U10*%
X181160500Y-47240000D03*
X181160500Y-47890000D03*
X181160500Y-48540000D03*
X181160500Y-49190000D03*
X181160500Y-49840000D03*
X181160500Y-50490000D03*
X181160500Y-51140000D03*
X181160500Y-51790000D03*
X181160500Y-52440000D03*
X181160500Y-53090000D03*
X186885500Y-53090000D03*
X186885500Y-52440000D03*
X186885500Y-51790000D03*
X186885500Y-51140000D03*
X186885500Y-50490000D03*
X186885500Y-49840000D03*
X186885500Y-49190000D03*
X186885500Y-48540000D03*
X186885500Y-47890000D03*
X186885500Y-47240000D03*
%TD*%
D28*
%TO.C,R1*%
X148675000Y-88453000D03*
X148675000Y-89473000D03*
%TD*%
D13*
%TO.C,C10*%
X142043500Y-62720000D03*
X141083500Y-62720000D03*
%TD*%
D10*
%TO.C,R30*%
X90876500Y-100842000D03*
X90876500Y-99822000D03*
%TD*%
D18*
%TO.C,R26*%
X90483000Y-79328000D03*
X89463000Y-79328000D03*
%TD*%
D28*
%TO.C,R12*%
X138802500Y-65505000D03*
X138802500Y-66525000D03*
%TD*%
D12*
%TO.C,C24*%
X83369000Y-75490000D03*
X83369000Y-74530000D03*
%TD*%
%TO.C,C23*%
X79375000Y-94356000D03*
X79375000Y-93396000D03*
%TD*%
D14*
%TO.C,C13*%
X151683500Y-62634000D03*
X152643500Y-62634000D03*
%TD*%
D13*
%TO.C,C26*%
X72673000Y-78566000D03*
X71713000Y-78566000D03*
%TD*%
D16*
%TO.C,Q2*%
X209023000Y-81012600D03*
X203473000Y-76162600D03*
X209023000Y-76162600D03*
X203473000Y-81012600D03*
D17*
X210058000Y-69437600D03*
X208788000Y-69437600D03*
X207518000Y-69437600D03*
X206248000Y-69437600D03*
X204978000Y-69437600D03*
X203708000Y-69437600D03*
X202438000Y-69437600D03*
%TD*%
D10*
%TO.C,R34*%
X207264000Y-66143600D03*
X207264000Y-65123600D03*
%TD*%
D28*
%TO.C,R19*%
X67945000Y-93366000D03*
X67945000Y-94386000D03*
%TD*%
D33*
%TO.C,R10*%
X154740000Y-107812500D03*
X154740000Y-109462500D03*
%TD*%
D10*
%TO.C,R33*%
X204724000Y-66143600D03*
X204724000Y-65123600D03*
%TD*%
%TO.C,R14*%
X79813000Y-86950000D03*
X79813000Y-85930000D03*
%TD*%
D42*
%TO.C,C19*%
X64389000Y-102530000D03*
X64389000Y-98430000D03*
%TD*%
D11*
%TO.C,C8*%
X146363500Y-69840000D03*
X146363500Y-70800000D03*
%TD*%
D10*
%TO.C,R40*%
X178943000Y-49915000D03*
X178943000Y-48895000D03*
%TD*%
D18*
%TO.C,R44*%
X127249000Y-60602000D03*
X126229000Y-60602000D03*
%TD*%
D12*
%TO.C,C27*%
X69018000Y-81586000D03*
X69018000Y-80626000D03*
%TD*%
D28*
%TO.C,R11*%
X138802500Y-67410000D03*
X138802500Y-68430000D03*
%TD*%
D10*
%TO.C,R13*%
X72771000Y-94386000D03*
X72771000Y-93366000D03*
%TD*%
D43*
%TO.C,U4*%
X84823000Y-82376000D03*
X84823000Y-81176000D03*
X82423000Y-82376000D03*
X84823000Y-79976000D03*
X83623000Y-82376000D03*
X83623000Y-79976000D03*
X82423000Y-81176000D03*
X82423000Y-79976000D03*
X83623000Y-81176000D03*
D44*
X87785500Y-83926000D03*
X87785500Y-83426000D03*
X87785500Y-82926000D03*
X87785500Y-82426000D03*
X87785500Y-81926000D03*
X87785500Y-81426000D03*
X87785500Y-80926000D03*
X87785500Y-80426000D03*
X87785500Y-79926000D03*
X87785500Y-79426000D03*
X87785500Y-78926000D03*
X87785500Y-78426000D03*
D45*
X86373000Y-77013500D03*
X85873000Y-77013500D03*
X85373000Y-77013500D03*
X84873000Y-77013500D03*
X84373000Y-77013500D03*
X83873000Y-77013500D03*
X83373000Y-77013500D03*
X82873000Y-77013500D03*
X82373000Y-77013500D03*
X81873000Y-77013500D03*
X81373000Y-77013500D03*
X80873000Y-77013500D03*
D44*
X79460500Y-78426000D03*
X79460500Y-78926000D03*
X79460500Y-79426000D03*
X79460500Y-79926000D03*
X79460500Y-80426000D03*
X79460500Y-80926000D03*
X79460500Y-81426000D03*
X79460500Y-81926000D03*
X79460500Y-82426000D03*
X79460500Y-82926000D03*
X79460500Y-83426000D03*
X79460500Y-83926000D03*
D45*
X80873000Y-85338500D03*
X81373000Y-85338500D03*
X81873000Y-85338500D03*
X82373000Y-85338500D03*
X82873000Y-85338500D03*
X83373000Y-85338500D03*
X83873000Y-85338500D03*
X84373000Y-85338500D03*
X84873000Y-85338500D03*
X85373000Y-85338500D03*
X85873000Y-85338500D03*
X86373000Y-85338500D03*
%TD*%
D31*
%TO.C,Y2*%
X73293000Y-80256000D03*
X71093000Y-80256000D03*
X71093000Y-81956000D03*
X73293000Y-81956000D03*
%TD*%
D13*
%TO.C,C43*%
X77753000Y-79836000D03*
X76793000Y-79836000D03*
%TD*%
D10*
%TO.C,R22*%
X77343000Y-92354000D03*
X77343000Y-91334000D03*
%TD*%
M02*
