%TF.GenerationSoftware,KiCad,Pcbnew,6.0.2+dfsg-1*%
%TF.CreationDate,2022-12-03T14:35:54-05:00*%
%TF.ProjectId,dragon-lair-fully-integrated,64726167-6f6e-42d6-9c61-69722d66756c,rev?*%
%TF.SameCoordinates,Original*%
%TF.FileFunction,Soldermask,Bot*%
%TF.FilePolarity,Negative*%
%FSLAX46Y46*%
G04 Gerber Fmt 4.6, Leading zero omitted, Abs format (unit mm)*
G04 Created by KiCad (PCBNEW 6.0.2+dfsg-1) date 2022-12-03 14:35:54*
%MOMM*%
%LPD*%
G01*
G04 APERTURE LIST*
G04 Aperture macros list*
%AMRoundRect*
0 Rectangle with rounded corners*
0 $1 Rounding radius*
0 $2 $3 $4 $5 $6 $7 $8 $9 X,Y pos of 4 corners*
0 Add a 4 corners polygon primitive as box body*
4,1,4,$2,$3,$4,$5,$6,$7,$8,$9,$2,$3,0*
0 Add four circle primitives for the rounded corners*
1,1,$1+$1,$2,$3*
1,1,$1+$1,$4,$5*
1,1,$1+$1,$6,$7*
1,1,$1+$1,$8,$9*
0 Add four rect primitives between the rounded corners*
20,1,$1+$1,$2,$3,$4,$5,0*
20,1,$1+$1,$4,$5,$6,$7,0*
20,1,$1+$1,$6,$7,$8,$9,0*
20,1,$1+$1,$8,$9,$2,$3,0*%
G04 Aperture macros list end*
%ADD10C,5.600000*%
%ADD11R,1.700000X1.700000*%
%ADD12O,1.700000X1.700000*%
%ADD13RoundRect,0.250000X-0.600000X-0.750000X0.600000X-0.750000X0.600000X0.750000X-0.600000X0.750000X0*%
%ADD14O,1.700000X2.000000*%
%ADD15O,3.200000X1.600000*%
%ADD16C,1.524000*%
%ADD17C,2.500000*%
%ADD18O,7.000000X3.000000*%
%ADD19RoundRect,0.250000X-0.600000X-0.725000X0.600000X-0.725000X0.600000X0.725000X-0.600000X0.725000X0*%
%ADD20O,1.700000X1.950000*%
%ADD21C,1.651000*%
%ADD22C,3.250000*%
%ADD23R,1.408000X1.408000*%
%ADD24C,1.408000*%
%ADD25C,1.530000*%
%ADD26C,2.400000*%
%ADD27R,1.508000X1.508000*%
%ADD28C,1.508000*%
%ADD29C,3.500000*%
%ADD30C,3.350000*%
%ADD31C,1.303000*%
G04 APERTURE END LIST*
D10*
%TO.C,H2*%
X60960000Y-111760000D03*
%TD*%
D11*
%TO.C,J1*%
X151003000Y-48649000D03*
D12*
X151003000Y-46109000D03*
X151003000Y-43569000D03*
%TD*%
D13*
%TO.C,J11*%
X121559000Y-81667000D03*
D14*
X124059000Y-81667000D03*
%TD*%
D15*
%TO.C,J5*%
X94006500Y-114427000D03*
X92006500Y-112027000D03*
X92006500Y-106527000D03*
X94006500Y-102827000D03*
%TD*%
D16*
%TO.C,RV1*%
X132992500Y-67190000D03*
X130452500Y-64650000D03*
X127912500Y-67190000D03*
%TD*%
D13*
%TO.C,J13*%
X130449000Y-81667000D03*
D14*
X132949000Y-81667000D03*
%TD*%
D17*
%TO.C,J2*%
X163917000Y-104454000D03*
X178649000Y-104454000D03*
D18*
X175220000Y-86166000D03*
X167219000Y-86166000D03*
%TD*%
D10*
%TO.C,H5*%
X166370000Y-73660000D03*
%TD*%
D19*
%TO.C,J8*%
X136819000Y-91065000D03*
D20*
X139319000Y-91065000D03*
X141819000Y-91065000D03*
%TD*%
D13*
%TO.C,J12*%
X139339000Y-81667000D03*
D14*
X141839000Y-81667000D03*
%TD*%
D15*
%TO.C,J7*%
X104166500Y-114427000D03*
X102166500Y-112027000D03*
X102166500Y-106527000D03*
X104166500Y-102827000D03*
%TD*%
D13*
%TO.C,J9*%
X113177000Y-96399000D03*
D14*
X115677000Y-96399000D03*
%TD*%
D13*
%TO.C,J10*%
X123591000Y-96399000D03*
D14*
X126091000Y-96399000D03*
%TD*%
D15*
%TO.C,J6*%
X114580500Y-114440000D03*
X112580500Y-112040000D03*
X112580500Y-106540000D03*
X114580500Y-102840000D03*
%TD*%
D21*
%TO.C,BZ1*%
X116459000Y-60602000D03*
X101459000Y-60602000D03*
%TD*%
D10*
%TO.C,H1*%
X60960000Y-45720000D03*
%TD*%
D22*
%TO.C,P2*%
X82550000Y-105560000D03*
X71120000Y-105560000D03*
D23*
X72390000Y-99210000D03*
D24*
X73660000Y-96670000D03*
X74930000Y-99210000D03*
X76200000Y-96670000D03*
X77470000Y-99210000D03*
X78740000Y-96670000D03*
X80010000Y-99210000D03*
X81280000Y-96670000D03*
D25*
X70510000Y-110640000D03*
X73077000Y-108940000D03*
X80593000Y-110640000D03*
X83160000Y-108940000D03*
D26*
X69085000Y-102510000D03*
X84585000Y-102510000D03*
%TD*%
D27*
%TO.C,PS1*%
X156697500Y-78271750D03*
D28*
X154157500Y-78271750D03*
X151617500Y-78271750D03*
%TD*%
D17*
%TO.C,J3*%
X190002800Y-104448000D03*
X204734800Y-104448000D03*
D18*
X201305800Y-86160000D03*
X193304800Y-86160000D03*
%TD*%
D29*
%TO.C,F1*%
X173863000Y-81172000D03*
X173863000Y-76092000D03*
X173863000Y-66952000D03*
X173863000Y-72032000D03*
%TD*%
D10*
%TO.C,H3*%
X210820000Y-45720000D03*
%TD*%
D15*
%TO.C,J4*%
X124968000Y-114450000D03*
X122968000Y-112050000D03*
X122968000Y-106550000D03*
X124968000Y-102850000D03*
%TD*%
D10*
%TO.C,H4*%
X210820000Y-111760000D03*
%TD*%
D30*
%TO.C,J14*%
X135127000Y-107696000D03*
X146559000Y-107696000D03*
D31*
X136398000Y-101346000D03*
X137668000Y-98806000D03*
X138938000Y-101346000D03*
X140208000Y-98806000D03*
X141478000Y-101346000D03*
X142748000Y-98806000D03*
X144018000Y-101346000D03*
X145288000Y-98806000D03*
%TD*%
M02*
