%TF.GenerationSoftware,KiCad,Pcbnew,6.0.2+dfsg-1*%
%TF.CreationDate,2023-01-22T10:21:04-05:00*%
%TF.ProjectId,dragon-light-panel,64726167-6f6e-42d6-9c69-6768742d7061,rev?*%
%TF.SameCoordinates,Original*%
%TF.FileFunction,Legend,Top*%
%TF.FilePolarity,Positive*%
%FSLAX46Y46*%
G04 Gerber Fmt 4.6, Leading zero omitted, Abs format (unit mm)*
G04 Created by KiCad (PCBNEW 6.0.2+dfsg-1) date 2023-01-22 10:21:04*
%MOMM*%
%LPD*%
G01*
G04 APERTURE LIST*
G04 Aperture macros list*
%AMRoundRect*
0 Rectangle with rounded corners*
0 $1 Rounding radius*
0 $2 $3 $4 $5 $6 $7 $8 $9 X,Y pos of 4 corners*
0 Add a 4 corners polygon primitive as box body*
4,1,4,$2,$3,$4,$5,$6,$7,$8,$9,$2,$3,0*
0 Add four circle primitives for the rounded corners*
1,1,$1+$1,$2,$3*
1,1,$1+$1,$4,$5*
1,1,$1+$1,$6,$7*
1,1,$1+$1,$8,$9*
0 Add four rect primitives between the rounded corners*
20,1,$1+$1,$2,$3,$4,$5,0*
20,1,$1+$1,$4,$5,$6,$7,0*
20,1,$1+$1,$6,$7,$8,$9,0*
20,1,$1+$1,$8,$9,$2,$3,0*%
G04 Aperture macros list end*
%ADD10C,0.150000*%
%ADD11C,0.120000*%
%ADD12RoundRect,0.250000X-0.375000X-0.625000X0.375000X-0.625000X0.375000X0.625000X-0.375000X0.625000X0*%
%ADD13RoundRect,0.250000X0.312500X0.625000X-0.312500X0.625000X-0.312500X-0.625000X0.312500X-0.625000X0*%
%ADD14RoundRect,0.250000X0.375000X0.625000X-0.375000X0.625000X-0.375000X-0.625000X0.375000X-0.625000X0*%
%ADD15RoundRect,0.250000X-0.312500X-0.625000X0.312500X-0.625000X0.312500X0.625000X-0.312500X0.625000X0*%
%ADD16RoundRect,0.150000X0.150000X-0.512500X0.150000X0.512500X-0.150000X0.512500X-0.150000X-0.512500X0*%
%ADD17R,1.200000X2.200000*%
%ADD18R,5.800000X6.400000*%
%ADD19RoundRect,0.135000X0.185000X-0.135000X0.185000X0.135000X-0.185000X0.135000X-0.185000X-0.135000X0*%
%ADD20RoundRect,0.250000X0.475000X-0.250000X0.475000X0.250000X-0.475000X0.250000X-0.475000X-0.250000X0*%
%ADD21C,5.600000*%
%ADD22RoundRect,0.250000X0.600000X0.725000X-0.600000X0.725000X-0.600000X-0.725000X0.600000X-0.725000X0*%
%ADD23O,1.700000X1.950000*%
G04 APERTURE END LIST*
D10*
X122317142Y-84875714D02*
X122555238Y-85542380D01*
X122793333Y-84875714D01*
X123126666Y-84637619D02*
X123174285Y-84590000D01*
X123269523Y-84542380D01*
X123507619Y-84542380D01*
X123602857Y-84590000D01*
X123650476Y-84637619D01*
X123698095Y-84732857D01*
X123698095Y-84828095D01*
X123650476Y-84970952D01*
X123079047Y-85542380D01*
X123698095Y-85542380D01*
X124126666Y-85447142D02*
X124174285Y-85494761D01*
X124126666Y-85542380D01*
X124079047Y-85494761D01*
X124126666Y-85447142D01*
X124126666Y-85542380D01*
X124555238Y-84637619D02*
X124602857Y-84590000D01*
X124698095Y-84542380D01*
X124936190Y-84542380D01*
X125031428Y-84590000D01*
X125079047Y-84637619D01*
X125126666Y-84732857D01*
X125126666Y-84828095D01*
X125079047Y-84970952D01*
X124507619Y-85542380D01*
X125126666Y-85542380D01*
X125555238Y-85447142D02*
X125602857Y-85494761D01*
X125555238Y-85542380D01*
X125507619Y-85494761D01*
X125555238Y-85447142D01*
X125555238Y-85542380D01*
X126221904Y-84542380D02*
X126317142Y-84542380D01*
X126412380Y-84590000D01*
X126460000Y-84637619D01*
X126507619Y-84732857D01*
X126555238Y-84923333D01*
X126555238Y-85161428D01*
X126507619Y-85351904D01*
X126460000Y-85447142D01*
X126412380Y-85494761D01*
X126317142Y-85542380D01*
X126221904Y-85542380D01*
X126126666Y-85494761D01*
X126079047Y-85447142D01*
X126031428Y-85351904D01*
X125983809Y-85161428D01*
X125983809Y-84923333D01*
X126031428Y-84732857D01*
X126079047Y-84637619D01*
X126126666Y-84590000D01*
X126221904Y-84542380D01*
D11*
%TO.C,D1*%
X120270000Y-68080000D02*
X120270000Y-70350000D01*
X120270000Y-70350000D02*
X124155000Y-70350000D01*
X124155000Y-68080000D02*
X120270000Y-68080000D01*
%TO.C,R10*%
X102962064Y-58145000D02*
X101507936Y-58145000D01*
X102962064Y-59965000D02*
X101507936Y-59965000D01*
%TO.C,D23*%
X66980000Y-83685000D02*
X70865000Y-83685000D01*
X70865000Y-83685000D02*
X70865000Y-81415000D01*
X70865000Y-81415000D02*
X66980000Y-81415000D01*
%TO.C,R4*%
X78012936Y-70125000D02*
X79467064Y-70125000D01*
X78012936Y-68305000D02*
X79467064Y-68305000D01*
%TO.C,D16*%
X75945000Y-70350000D02*
X75945000Y-68080000D01*
X75945000Y-68080000D02*
X72060000Y-68080000D01*
X72060000Y-70350000D02*
X75945000Y-70350000D01*
%TO.C,R14*%
X102962064Y-80285000D02*
X101507936Y-80285000D01*
X102962064Y-78465000D02*
X101507936Y-78465000D01*
%TO.C,D11*%
X70865000Y-50030000D02*
X70865000Y-47760000D01*
X70865000Y-47760000D02*
X66980000Y-47760000D01*
X66980000Y-50030000D02*
X70865000Y-50030000D01*
%TO.C,D47*%
X110110000Y-53205000D02*
X113995000Y-53205000D01*
X113995000Y-50935000D02*
X110110000Y-50935000D01*
X110110000Y-50935000D02*
X110110000Y-53205000D01*
%TO.C,D57*%
X124155000Y-61095000D02*
X120270000Y-61095000D01*
X120270000Y-63365000D02*
X124155000Y-63365000D01*
X120270000Y-61095000D02*
X120270000Y-63365000D01*
%TO.C,D44*%
X105030000Y-73525000D02*
X108915000Y-73525000D01*
X105030000Y-71255000D02*
X105030000Y-73525000D01*
X108915000Y-71255000D02*
X105030000Y-71255000D01*
%TO.C,U2*%
X86197000Y-80518000D02*
X86197000Y-79718000D01*
X86197000Y-80518000D02*
X86197000Y-82318000D01*
X89317000Y-80518000D02*
X89317000Y-81318000D01*
X89317000Y-80518000D02*
X89317000Y-79718000D01*
%TO.C,D52*%
X108915000Y-47760000D02*
X105030000Y-47760000D01*
X105030000Y-50030000D02*
X108915000Y-50030000D01*
X105030000Y-47760000D02*
X105030000Y-50030000D01*
%TO.C,R15*%
X102962064Y-63140000D02*
X101507936Y-63140000D01*
X102962064Y-61320000D02*
X101507936Y-61320000D01*
%TO.C,D49*%
X120270000Y-50030000D02*
X124155000Y-50030000D01*
X124155000Y-47760000D02*
X120270000Y-47760000D01*
X120270000Y-47760000D02*
X120270000Y-50030000D01*
%TO.C,D15*%
X70865000Y-70350000D02*
X70865000Y-68080000D01*
X70865000Y-68080000D02*
X66980000Y-68080000D01*
X66980000Y-70350000D02*
X70865000Y-70350000D01*
%TO.C,D17*%
X60705000Y-71255000D02*
X56820000Y-71255000D01*
X60705000Y-73525000D02*
X60705000Y-71255000D01*
X56820000Y-73525000D02*
X60705000Y-73525000D01*
%TO.C,Q1*%
X97430000Y-71015000D02*
X97430000Y-72515000D01*
X90530000Y-71015000D02*
X90530000Y-72515000D01*
X90800000Y-72515000D02*
X90800000Y-75345000D01*
X97160000Y-72515000D02*
X97160000Y-73615000D01*
X97430000Y-72515000D02*
X97160000Y-72515000D01*
X90530000Y-72515000D02*
X90800000Y-72515000D01*
%TO.C,D34*%
X61900000Y-53205000D02*
X65785000Y-53205000D01*
X65785000Y-50935000D02*
X61900000Y-50935000D01*
X65785000Y-53205000D02*
X65785000Y-50935000D01*
%TO.C,R18*%
X86361000Y-77369641D02*
X86361000Y-77062359D01*
X87121000Y-77369641D02*
X87121000Y-77062359D01*
%TO.C,R11*%
X102962064Y-71480000D02*
X101507936Y-71480000D01*
X102962064Y-73300000D02*
X101507936Y-73300000D01*
%TO.C,R5*%
X78012936Y-71480000D02*
X79467064Y-71480000D01*
X78012936Y-73300000D02*
X79467064Y-73300000D01*
%TO.C,D19*%
X70865000Y-71255000D02*
X66980000Y-71255000D01*
X70865000Y-73525000D02*
X70865000Y-71255000D01*
X66980000Y-73525000D02*
X70865000Y-73525000D01*
%TO.C,D26*%
X119075000Y-81415000D02*
X115190000Y-81415000D01*
X115190000Y-81415000D02*
X115190000Y-83685000D01*
X115190000Y-83685000D02*
X119075000Y-83685000D01*
%TO.C,D6*%
X65785000Y-63365000D02*
X65785000Y-61095000D01*
X61900000Y-63365000D02*
X65785000Y-63365000D01*
X65785000Y-61095000D02*
X61900000Y-61095000D01*
%TO.C,C2*%
X84101000Y-81160252D02*
X84101000Y-80637748D01*
X85571000Y-81160252D02*
X85571000Y-80637748D01*
%TO.C,D41*%
X124155000Y-71255000D02*
X120270000Y-71255000D01*
X120270000Y-71255000D02*
X120270000Y-73525000D01*
X120270000Y-73525000D02*
X124155000Y-73525000D01*
%TO.C,D22*%
X65785000Y-83685000D02*
X65785000Y-81415000D01*
X61900000Y-83685000D02*
X65785000Y-83685000D01*
X65785000Y-81415000D02*
X61900000Y-81415000D01*
%TO.C,D45*%
X120270000Y-53205000D02*
X124155000Y-53205000D01*
X124155000Y-50935000D02*
X120270000Y-50935000D01*
X120270000Y-50935000D02*
X120270000Y-53205000D01*
%TO.C,D63*%
X66980000Y-80510000D02*
X70865000Y-80510000D01*
X70865000Y-78240000D02*
X66980000Y-78240000D01*
X70865000Y-80510000D02*
X70865000Y-78240000D01*
%TO.C,D3*%
X110110000Y-68080000D02*
X110110000Y-70350000D01*
X110110000Y-70350000D02*
X113995000Y-70350000D01*
X113995000Y-68080000D02*
X110110000Y-68080000D01*
%TO.C,R3*%
X78012936Y-49805000D02*
X79467064Y-49805000D01*
X78012936Y-47985000D02*
X79467064Y-47985000D01*
%TO.C,D21*%
X60705000Y-83685000D02*
X60705000Y-81415000D01*
X56820000Y-83685000D02*
X60705000Y-83685000D01*
X60705000Y-81415000D02*
X56820000Y-81415000D01*
%TO.C,D64*%
X72060000Y-80510000D02*
X75945000Y-80510000D01*
X75945000Y-80510000D02*
X75945000Y-78240000D01*
X75945000Y-78240000D02*
X72060000Y-78240000D01*
%TO.C,D32*%
X75945000Y-57920000D02*
X72060000Y-57920000D01*
X75945000Y-60190000D02*
X75945000Y-57920000D01*
X72060000Y-60190000D02*
X75945000Y-60190000D01*
%TO.C,D56*%
X105030000Y-78240000D02*
X105030000Y-80510000D01*
X105030000Y-80510000D02*
X108915000Y-80510000D01*
X108915000Y-78240000D02*
X105030000Y-78240000D01*
%TO.C,D50*%
X115190000Y-47760000D02*
X115190000Y-50030000D01*
X115190000Y-50030000D02*
X119075000Y-50030000D01*
X119075000Y-47760000D02*
X115190000Y-47760000D01*
%TO.C,D61*%
X60705000Y-80510000D02*
X60705000Y-78240000D01*
X56820000Y-80510000D02*
X60705000Y-80510000D01*
X60705000Y-78240000D02*
X56820000Y-78240000D01*
%TO.C,R16*%
X78012936Y-78465000D02*
X79467064Y-78465000D01*
X78012936Y-80285000D02*
X79467064Y-80285000D01*
%TO.C,D28*%
X105030000Y-81415000D02*
X105030000Y-83685000D01*
X108915000Y-81415000D02*
X105030000Y-81415000D01*
X105030000Y-83685000D02*
X108915000Y-83685000D01*
%TO.C,D35*%
X66980000Y-53205000D02*
X70865000Y-53205000D01*
X70865000Y-53205000D02*
X70865000Y-50935000D01*
X70865000Y-50935000D02*
X66980000Y-50935000D01*
%TO.C,D2*%
X119075000Y-68080000D02*
X115190000Y-68080000D01*
X115190000Y-68080000D02*
X115190000Y-70350000D01*
X115190000Y-70350000D02*
X119075000Y-70350000D01*
%TO.C,R17*%
X92711000Y-77242641D02*
X92711000Y-76935359D01*
X93471000Y-77242641D02*
X93471000Y-76935359D01*
%TO.C,D9*%
X60705000Y-47760000D02*
X56820000Y-47760000D01*
X56820000Y-50030000D02*
X60705000Y-50030000D01*
X60705000Y-50030000D02*
X60705000Y-47760000D01*
%TO.C,Q2*%
X82910000Y-72515000D02*
X83180000Y-72515000D01*
X89810000Y-72515000D02*
X89540000Y-72515000D01*
X89540000Y-72515000D02*
X89540000Y-73615000D01*
X89810000Y-71015000D02*
X89810000Y-72515000D01*
X82910000Y-71015000D02*
X82910000Y-72515000D01*
X83180000Y-72515000D02*
X83180000Y-75345000D01*
%TO.C,D33*%
X60705000Y-50935000D02*
X56820000Y-50935000D01*
X56820000Y-53205000D02*
X60705000Y-53205000D01*
X60705000Y-53205000D02*
X60705000Y-50935000D01*
%TO.C,D14*%
X65785000Y-70350000D02*
X65785000Y-68080000D01*
X61900000Y-70350000D02*
X65785000Y-70350000D01*
X65785000Y-68080000D02*
X61900000Y-68080000D01*
%TO.C,R8*%
X78012936Y-58145000D02*
X79467064Y-58145000D01*
X78012936Y-59965000D02*
X79467064Y-59965000D01*
%TO.C,D46*%
X119075000Y-50935000D02*
X115190000Y-50935000D01*
X115190000Y-50935000D02*
X115190000Y-53205000D01*
X115190000Y-53205000D02*
X119075000Y-53205000D01*
%TO.C,R7*%
X102962064Y-83460000D02*
X101507936Y-83460000D01*
X102962064Y-81640000D02*
X101507936Y-81640000D01*
%TO.C,D7*%
X70865000Y-63365000D02*
X70865000Y-61095000D01*
X70865000Y-61095000D02*
X66980000Y-61095000D01*
X66980000Y-63365000D02*
X70865000Y-63365000D01*
%TO.C,D29*%
X60705000Y-60190000D02*
X60705000Y-57920000D01*
X56820000Y-60190000D02*
X60705000Y-60190000D01*
X60705000Y-57920000D02*
X56820000Y-57920000D01*
%TO.C,D36*%
X72060000Y-53205000D02*
X75945000Y-53205000D01*
X75945000Y-53205000D02*
X75945000Y-50935000D01*
X75945000Y-50935000D02*
X72060000Y-50935000D01*
%TO.C,D42*%
X115190000Y-71255000D02*
X115190000Y-73525000D01*
X115190000Y-73525000D02*
X119075000Y-73525000D01*
X119075000Y-71255000D02*
X115190000Y-71255000D01*
%TO.C,D43*%
X110110000Y-73525000D02*
X113995000Y-73525000D01*
X113995000Y-71255000D02*
X110110000Y-71255000D01*
X110110000Y-71255000D02*
X110110000Y-73525000D01*
%TO.C,D24*%
X75945000Y-81415000D02*
X72060000Y-81415000D01*
X75945000Y-83685000D02*
X75945000Y-81415000D01*
X72060000Y-83685000D02*
X75945000Y-83685000D01*
%TO.C,D55*%
X113995000Y-78240000D02*
X110110000Y-78240000D01*
X110110000Y-80510000D02*
X113995000Y-80510000D01*
X110110000Y-78240000D02*
X110110000Y-80510000D01*
%TO.C,U1*%
X95667000Y-80391000D02*
X95667000Y-79591000D01*
X92547000Y-80391000D02*
X92547000Y-82191000D01*
X95667000Y-80391000D02*
X95667000Y-81191000D01*
X92547000Y-80391000D02*
X92547000Y-79591000D01*
%TO.C,D37*%
X120270000Y-57920000D02*
X120270000Y-60190000D01*
X120270000Y-60190000D02*
X124155000Y-60190000D01*
X124155000Y-57920000D02*
X120270000Y-57920000D01*
%TO.C,D58*%
X115190000Y-61095000D02*
X115190000Y-63365000D01*
X115190000Y-63365000D02*
X119075000Y-63365000D01*
X119075000Y-61095000D02*
X115190000Y-61095000D01*
%TO.C,D12*%
X72060000Y-50030000D02*
X75945000Y-50030000D01*
X75945000Y-50030000D02*
X75945000Y-47760000D01*
X75945000Y-47760000D02*
X72060000Y-47760000D01*
%TO.C,D30*%
X61900000Y-60190000D02*
X65785000Y-60190000D01*
X65785000Y-60190000D02*
X65785000Y-57920000D01*
X65785000Y-57920000D02*
X61900000Y-57920000D01*
%TO.C,G\u002A\u002A\u002A*%
G36*
X106414492Y-83997410D02*
G01*
X106438724Y-83999240D01*
X106454289Y-84002806D01*
X106464372Y-84008279D01*
X106468642Y-84012072D01*
X106482854Y-84031214D01*
X106486615Y-84043150D01*
X106480027Y-84053839D01*
X106461333Y-84079550D01*
X106431844Y-84118588D01*
X106392871Y-84169260D01*
X106345725Y-84229871D01*
X106291716Y-84298727D01*
X106232156Y-84374133D01*
X106170010Y-84452321D01*
X106090188Y-84552806D01*
X106023385Y-84637719D01*
X105968922Y-84707973D01*
X105926117Y-84764481D01*
X105894290Y-84808156D01*
X105872762Y-84839910D01*
X105860851Y-84860657D01*
X105857852Y-84871178D01*
X105863787Y-84884201D01*
X105879541Y-84914118D01*
X105904187Y-84959279D01*
X105936799Y-85018033D01*
X105976448Y-85088727D01*
X106022210Y-85169710D01*
X106073156Y-85259331D01*
X106128360Y-85355938D01*
X106186896Y-85457880D01*
X106195852Y-85473436D01*
X106255016Y-85576246D01*
X106311225Y-85674091D01*
X106363523Y-85765301D01*
X106410959Y-85848203D01*
X106452578Y-85921127D01*
X106487425Y-85982400D01*
X106514549Y-86030352D01*
X106532995Y-86063310D01*
X106541808Y-86079604D01*
X106542211Y-86080443D01*
X106549101Y-86104924D01*
X106541468Y-86123256D01*
X106540938Y-86123902D01*
X106534670Y-86128496D01*
X106522861Y-86132163D01*
X106503338Y-86135004D01*
X106473925Y-86137118D01*
X106432446Y-86138603D01*
X106376726Y-86139560D01*
X106304590Y-86140088D01*
X106213862Y-86140286D01*
X106181994Y-86140296D01*
X106086227Y-86140215D01*
X106009630Y-86139895D01*
X105949938Y-86139218D01*
X105904885Y-86138067D01*
X105872207Y-86136323D01*
X105849639Y-86133871D01*
X105834917Y-86130592D01*
X105825775Y-86126368D01*
X105820341Y-86121540D01*
X105811922Y-86108294D01*
X105794601Y-86078189D01*
X105769517Y-86033300D01*
X105737811Y-85975704D01*
X105700621Y-85907478D01*
X105659089Y-85830698D01*
X105614353Y-85747441D01*
X105590937Y-85703650D01*
X105545393Y-85618880D01*
X105502679Y-85540414D01*
X105463891Y-85470186D01*
X105430122Y-85410130D01*
X105402466Y-85362179D01*
X105382016Y-85328269D01*
X105369868Y-85310332D01*
X105367131Y-85307973D01*
X105357077Y-85317238D01*
X105336541Y-85340445D01*
X105308103Y-85374538D01*
X105274342Y-85416462D01*
X105257278Y-85438118D01*
X105158143Y-85564804D01*
X105158143Y-85839689D01*
X105157818Y-85932224D01*
X105156797Y-86004894D01*
X105155010Y-86059259D01*
X105152388Y-86096879D01*
X105148860Y-86119314D01*
X105145283Y-86127435D01*
X105134676Y-86131471D01*
X105110784Y-86134667D01*
X105072074Y-86137085D01*
X105017014Y-86138785D01*
X104944070Y-86139826D01*
X104851710Y-86140270D01*
X104818609Y-86140296D01*
X104504796Y-86140296D01*
X104499350Y-86116182D01*
X104498421Y-86101772D01*
X104497447Y-86067658D01*
X104496445Y-86015569D01*
X104495436Y-85947235D01*
X104494438Y-85864387D01*
X104493471Y-85768754D01*
X104492552Y-85662066D01*
X104491702Y-85546053D01*
X104490940Y-85422446D01*
X104490287Y-85293629D01*
X104489588Y-85143339D01*
X104488914Y-85012859D01*
X104488218Y-84900567D01*
X104487452Y-84804837D01*
X104486568Y-84724046D01*
X104485518Y-84656570D01*
X104484255Y-84600786D01*
X104482730Y-84555069D01*
X104480896Y-84517795D01*
X104478705Y-84487341D01*
X104476110Y-84462083D01*
X104473061Y-84440397D01*
X104469513Y-84420658D01*
X104465416Y-84401244D01*
X104463798Y-84394024D01*
X104431108Y-84274844D01*
X104391410Y-84175669D01*
X104344571Y-84096199D01*
X104314372Y-84059331D01*
X104298660Y-84037741D01*
X104294098Y-84021158D01*
X104294862Y-84019141D01*
X104305922Y-84015827D01*
X104335038Y-84013095D01*
X104382809Y-84010927D01*
X104449832Y-84009309D01*
X104536706Y-84008223D01*
X104644029Y-84007654D01*
X104723579Y-84007553D01*
X104830666Y-84007628D01*
X104918273Y-84007904D01*
X104988352Y-84008459D01*
X105042856Y-84009371D01*
X105083738Y-84010716D01*
X105112953Y-84012571D01*
X105132453Y-84015015D01*
X105144191Y-84018125D01*
X105150120Y-84021977D01*
X105151638Y-84024506D01*
X105153108Y-84038760D01*
X105154462Y-84071972D01*
X105155662Y-84121665D01*
X105156668Y-84185363D01*
X105157442Y-84260590D01*
X105157946Y-84344867D01*
X105158142Y-84435720D01*
X105158143Y-84443373D01*
X105158406Y-84549144D01*
X105159173Y-84640662D01*
X105160411Y-84716643D01*
X105162087Y-84775806D01*
X105164170Y-84816867D01*
X105166626Y-84838544D01*
X105168256Y-84841716D01*
X105176518Y-84832674D01*
X105196312Y-84808125D01*
X105226354Y-84769742D01*
X105265360Y-84719197D01*
X105312045Y-84658165D01*
X105365124Y-84588317D01*
X105423313Y-84511327D01*
X105485328Y-84428868D01*
X105489843Y-84422848D01*
X105801318Y-84007553D01*
X105933498Y-84007553D01*
X105991112Y-84007121D01*
X106062820Y-84005931D01*
X106141302Y-84004140D01*
X106219236Y-84001905D01*
X106257936Y-84000589D01*
X106327283Y-83998258D01*
X106378407Y-83997140D01*
X106414492Y-83997410D01*
G37*
G36*
X98314168Y-90888059D02*
G01*
X98435562Y-90529030D01*
X98575150Y-90526047D01*
X98714738Y-90523065D01*
X98727355Y-90558199D01*
X98735227Y-90580728D01*
X98748297Y-90618834D01*
X98765611Y-90669683D01*
X98786215Y-90730438D01*
X98809153Y-90798263D01*
X98833472Y-90870321D01*
X98858215Y-90943777D01*
X98882428Y-91015795D01*
X98905157Y-91083537D01*
X98925447Y-91144169D01*
X98942343Y-91194853D01*
X98954889Y-91232754D01*
X98962132Y-91255035D01*
X98963544Y-91259799D01*
X98953548Y-91261169D01*
X98926418Y-91261797D01*
X98886445Y-91261647D01*
X98843848Y-91260837D01*
X98791432Y-91259721D01*
X98756126Y-91257583D01*
X98733691Y-91251498D01*
X98719886Y-91238540D01*
X98710474Y-91215784D01*
X98701213Y-91180305D01*
X98695776Y-91158671D01*
X98684068Y-91113123D01*
X98462140Y-91113123D01*
X98425370Y-91263165D01*
X98308634Y-91263165D01*
X98261569Y-91262477D01*
X98223667Y-91260614D01*
X98199254Y-91257875D01*
X98192336Y-91255127D01*
X98195756Y-91243447D01*
X98205287Y-91213823D01*
X98220147Y-91168609D01*
X98239556Y-91110157D01*
X98262732Y-91040820D01*
X98288852Y-90963080D01*
X98506619Y-90963080D01*
X98574322Y-90963080D01*
X98609240Y-90962324D01*
X98633687Y-90960349D01*
X98642025Y-90957835D01*
X98639300Y-90945606D01*
X98632086Y-90918241D01*
X98621820Y-90880829D01*
X98609944Y-90838459D01*
X98597896Y-90796221D01*
X98587116Y-90759202D01*
X98579044Y-90732493D01*
X98575118Y-90721182D01*
X98575070Y-90721125D01*
X98571426Y-90729740D01*
X98563505Y-90755163D01*
X98552474Y-90793470D01*
X98539500Y-90840738D01*
X98539491Y-90840773D01*
X98506619Y-90963080D01*
X98288852Y-90963080D01*
X98288895Y-90962951D01*
X98314168Y-90888059D01*
G37*
G36*
X99310365Y-88852183D02*
G01*
X99327844Y-88876616D01*
X99353761Y-88915417D01*
X99386872Y-88966551D01*
X99425935Y-89027985D01*
X99469707Y-89097685D01*
X99516945Y-89173616D01*
X99566406Y-89253744D01*
X99616848Y-89336034D01*
X99667028Y-89418453D01*
X99715703Y-89498967D01*
X99761630Y-89575541D01*
X99803567Y-89646141D01*
X99840271Y-89708733D01*
X99870498Y-89761283D01*
X99893007Y-89801756D01*
X99906554Y-89828119D01*
X99909938Y-89838303D01*
X99895708Y-89844071D01*
X99866468Y-89851517D01*
X99828397Y-89859078D01*
X99826287Y-89859446D01*
X99798401Y-89862663D01*
X99754402Y-89865747D01*
X99697160Y-89868645D01*
X99629546Y-89871310D01*
X99554430Y-89873689D01*
X99474684Y-89875732D01*
X99393177Y-89877389D01*
X99312782Y-89878610D01*
X99236369Y-89879343D01*
X99166808Y-89879539D01*
X99106970Y-89879146D01*
X99059727Y-89878115D01*
X99027948Y-89876395D01*
X99014505Y-89873936D01*
X99014318Y-89873722D01*
X99015723Y-89861391D01*
X99022449Y-89830963D01*
X99033821Y-89784854D01*
X99049162Y-89725477D01*
X99067796Y-89655244D01*
X99089049Y-89576570D01*
X99112244Y-89491868D01*
X99136705Y-89403552D01*
X99161757Y-89314034D01*
X99186725Y-89225729D01*
X99210932Y-89141050D01*
X99233703Y-89062410D01*
X99254362Y-88992223D01*
X99272233Y-88932903D01*
X99286642Y-88886862D01*
X99296911Y-88856515D01*
X99302365Y-88844274D01*
X99302566Y-88844152D01*
X99310365Y-88852183D01*
G37*
G36*
X114300580Y-90824783D02*
G01*
X114320796Y-90735981D01*
X114357351Y-90660944D01*
X114410135Y-90599833D01*
X114479037Y-90552812D01*
X114492846Y-90545995D01*
X114522081Y-90533405D01*
X114549261Y-90525295D01*
X114580478Y-90520713D01*
X114621822Y-90518706D01*
X114669747Y-90518313D01*
X114723720Y-90518796D01*
X114762335Y-90520923D01*
X114791657Y-90525709D01*
X114817752Y-90534167D01*
X114846686Y-90547312D01*
X114848528Y-90548215D01*
X114916516Y-90591962D01*
X114969078Y-90649368D01*
X115007083Y-90721632D01*
X115028867Y-90796962D01*
X115036648Y-90866985D01*
X115034629Y-90945071D01*
X115023479Y-91020579D01*
X115012211Y-91061621D01*
X114983894Y-91117813D01*
X114940393Y-91172079D01*
X114887476Y-91217982D01*
X114853263Y-91239009D01*
X114824600Y-91252419D01*
X114796788Y-91261172D01*
X114763580Y-91266442D01*
X114718726Y-91269405D01*
X114685823Y-91270505D01*
X114607727Y-91270145D01*
X114550073Y-91264212D01*
X114526921Y-91258546D01*
X114457507Y-91225646D01*
X114395932Y-91176503D01*
X114347005Y-91115655D01*
X114321251Y-91064411D01*
X114307582Y-91013101D01*
X114299209Y-90949424D01*
X114297954Y-90913176D01*
X114537425Y-90913176D01*
X114538046Y-90924420D01*
X114547097Y-90991390D01*
X114565054Y-91040324D01*
X114592873Y-91073091D01*
X114622048Y-91088634D01*
X114672515Y-91096663D01*
X114720745Y-91083678D01*
X114737625Y-91074053D01*
X114767020Y-91042296D01*
X114786040Y-90991784D01*
X114794683Y-90922519D01*
X114795251Y-90898296D01*
X114791135Y-90823044D01*
X114777577Y-90766235D01*
X114753878Y-90726742D01*
X114719338Y-90703436D01*
X114673255Y-90695191D01*
X114669124Y-90695148D01*
X114619425Y-90704241D01*
X114581086Y-90731148D01*
X114554428Y-90775311D01*
X114539768Y-90836173D01*
X114537425Y-90913176D01*
X114297954Y-90913176D01*
X114296873Y-90881958D01*
X114300580Y-90824783D01*
G37*
G36*
X102311597Y-84608521D02*
G01*
X102309361Y-84549860D01*
X102306818Y-84511784D01*
X102306178Y-84505907D01*
X102285519Y-84379087D01*
X102256563Y-84270379D01*
X102218657Y-84177870D01*
X102171148Y-84099646D01*
X102164304Y-84090519D01*
X102151465Y-84074546D01*
X102140083Y-84060718D01*
X102131482Y-84048887D01*
X102126987Y-84038908D01*
X102127921Y-84030633D01*
X102135609Y-84023915D01*
X102151377Y-84018607D01*
X102176547Y-84014561D01*
X102212445Y-84011631D01*
X102260395Y-84009670D01*
X102321721Y-84008530D01*
X102397749Y-84008065D01*
X102489802Y-84008127D01*
X102599204Y-84008569D01*
X102727281Y-84009244D01*
X102875357Y-84010006D01*
X102888755Y-84010069D01*
X103035201Y-84010768D01*
X103161848Y-84011432D01*
X103270330Y-84012114D01*
X103362284Y-84012866D01*
X103439344Y-84013740D01*
X103503145Y-84014789D01*
X103555323Y-84016066D01*
X103597513Y-84017622D01*
X103631350Y-84019511D01*
X103658468Y-84021785D01*
X103680504Y-84024497D01*
X103699093Y-84027698D01*
X103715869Y-84031441D01*
X103732467Y-84035780D01*
X103738101Y-84037328D01*
X103860142Y-84079723D01*
X103966018Y-84134838D01*
X104055174Y-84202262D01*
X104127056Y-84281584D01*
X104176298Y-84362353D01*
X104211341Y-84447475D01*
X104233874Y-84537180D01*
X104245056Y-84637099D01*
X104246801Y-84704177D01*
X104239272Y-84832268D01*
X104216412Y-84945832D01*
X104177812Y-85045732D01*
X104123060Y-85132832D01*
X104051749Y-85207994D01*
X103982691Y-85259983D01*
X103943534Y-85285658D01*
X103909542Y-85308192D01*
X103885931Y-85324118D01*
X103880010Y-85328257D01*
X103876159Y-85332842D01*
X103875403Y-85340357D01*
X103878686Y-85352446D01*
X103886949Y-85370753D01*
X103901134Y-85396925D01*
X103922184Y-85432605D01*
X103951040Y-85479438D01*
X103988646Y-85539069D01*
X104035942Y-85613143D01*
X104093872Y-85703305D01*
X104102663Y-85716962D01*
X104163285Y-85811745D01*
X104216265Y-85895857D01*
X104260876Y-85968087D01*
X104296391Y-86027227D01*
X104322080Y-86072065D01*
X104337217Y-86101392D01*
X104341218Y-86113502D01*
X104339726Y-86119455D01*
X104335589Y-86124216D01*
X104326590Y-86127942D01*
X104310513Y-86130790D01*
X104285141Y-86132917D01*
X104248258Y-86134481D01*
X104197647Y-86135639D01*
X104131093Y-86136547D01*
X104046379Y-86137363D01*
X103998910Y-86137766D01*
X103902013Y-86138433D01*
X103824403Y-86138598D01*
X103763938Y-86138184D01*
X103718475Y-86137116D01*
X103685872Y-86135320D01*
X103663985Y-86132719D01*
X103650671Y-86129239D01*
X103644261Y-86125305D01*
X103635666Y-86112678D01*
X103617963Y-86083506D01*
X103592426Y-86039995D01*
X103560329Y-85984352D01*
X103522944Y-85918785D01*
X103481546Y-85845500D01*
X103438580Y-85768805D01*
X103394462Y-85690194D01*
X103353032Y-85617241D01*
X103315573Y-85552140D01*
X103283368Y-85497084D01*
X103257700Y-85454267D01*
X103239852Y-85425883D01*
X103231202Y-85414199D01*
X103212363Y-85407771D01*
X103178541Y-85403348D01*
X103135529Y-85400942D01*
X103089119Y-85400566D01*
X103045103Y-85402234D01*
X103009273Y-85405956D01*
X102987423Y-85411746D01*
X102984675Y-85413663D01*
X102980797Y-85423919D01*
X102977692Y-85447124D01*
X102975306Y-85484786D01*
X102973583Y-85538412D01*
X102972468Y-85609508D01*
X102971908Y-85699581D01*
X102971814Y-85766457D01*
X102971615Y-85850329D01*
X102971051Y-85927746D01*
X102970171Y-85995988D01*
X102969025Y-86052335D01*
X102967662Y-86094066D01*
X102966133Y-86118463D01*
X102965309Y-86123343D01*
X102961358Y-86128268D01*
X102952205Y-86132151D01*
X102935584Y-86135113D01*
X102909228Y-86137272D01*
X102870871Y-86138750D01*
X102818246Y-86139667D01*
X102749088Y-86140141D01*
X102661130Y-86140293D01*
X102644937Y-86140296D01*
X102553715Y-86140184D01*
X102481662Y-86139770D01*
X102426509Y-86138934D01*
X102385992Y-86137555D01*
X102357843Y-86135514D01*
X102339797Y-86132691D01*
X102329586Y-86128965D01*
X102324946Y-86124218D01*
X102324564Y-86123343D01*
X102323481Y-86110039D01*
X102322454Y-86077065D01*
X102321497Y-86026185D01*
X102320626Y-85959166D01*
X102319855Y-85877771D01*
X102319200Y-85783765D01*
X102318676Y-85678914D01*
X102318297Y-85564981D01*
X102318078Y-85443731D01*
X102318029Y-85354377D01*
X102317836Y-85186606D01*
X102317279Y-85035305D01*
X102316367Y-84901160D01*
X102315110Y-84784858D01*
X102313939Y-84712956D01*
X102971814Y-84712956D01*
X102972295Y-84794821D01*
X102973796Y-84856783D01*
X102976402Y-84900348D01*
X102980201Y-84927028D01*
X102984675Y-84937815D01*
X103000304Y-84942831D01*
X103033196Y-84946634D01*
X103079212Y-84949216D01*
X103134215Y-84950565D01*
X103194066Y-84950671D01*
X103254627Y-84949524D01*
X103311760Y-84947113D01*
X103361327Y-84943428D01*
X103397013Y-84938847D01*
X103466305Y-84919658D01*
X103518207Y-84888585D01*
X103553917Y-84844418D01*
X103574634Y-84785949D01*
X103579376Y-84754722D01*
X103578945Y-84678937D01*
X103561080Y-84614946D01*
X103526150Y-84563409D01*
X103474524Y-84524985D01*
X103443375Y-84511193D01*
X103420460Y-84506516D01*
X103380621Y-84502095D01*
X103328368Y-84498103D01*
X103268212Y-84494711D01*
X103204663Y-84492093D01*
X103142232Y-84490419D01*
X103085429Y-84489864D01*
X103038765Y-84490598D01*
X103006750Y-84492795D01*
X102998730Y-84494202D01*
X102971814Y-84500957D01*
X102971814Y-84712956D01*
X102313939Y-84712956D01*
X102313517Y-84687083D01*
X102311597Y-84608521D01*
G37*
G36*
X117330179Y-86644050D02*
G01*
X117413384Y-86644248D01*
X117479459Y-86644712D01*
X117530556Y-86645555D01*
X117568827Y-86646887D01*
X117596423Y-86648819D01*
X117615498Y-86651462D01*
X117628203Y-86654926D01*
X117636689Y-86659322D01*
X117643110Y-86664762D01*
X117643797Y-86665443D01*
X117646717Y-86668632D01*
X117649359Y-86672762D01*
X117651736Y-86678868D01*
X117653864Y-86687986D01*
X117655755Y-86701149D01*
X117657424Y-86719393D01*
X117658885Y-86743753D01*
X117660151Y-86775263D01*
X117661236Y-86814959D01*
X117662155Y-86863876D01*
X117662921Y-86923048D01*
X117663548Y-86993510D01*
X117664050Y-87076298D01*
X117664440Y-87172446D01*
X117664734Y-87282988D01*
X117664944Y-87408961D01*
X117665085Y-87551399D01*
X117665170Y-87711336D01*
X117665214Y-87889808D01*
X117665230Y-88087849D01*
X117665232Y-88261543D01*
X117665232Y-89836208D01*
X117636993Y-89858421D01*
X117629930Y-89863562D01*
X117621705Y-89867842D01*
X117610418Y-89871339D01*
X117594166Y-89874133D01*
X117571049Y-89876303D01*
X117539165Y-89877927D01*
X117496612Y-89879084D01*
X117441488Y-89879854D01*
X117371893Y-89880315D01*
X117285924Y-89880545D01*
X117181681Y-89880625D01*
X117101726Y-89880633D01*
X116594697Y-89880633D01*
X116567928Y-89856519D01*
X116559145Y-89843841D01*
X116541133Y-89813863D01*
X116514767Y-89768191D01*
X116480921Y-89708429D01*
X116440468Y-89636182D01*
X116394281Y-89553056D01*
X116343236Y-89460655D01*
X116288206Y-89360585D01*
X116230064Y-89254451D01*
X116169685Y-89143857D01*
X116107943Y-89030408D01*
X116045710Y-88915710D01*
X115983862Y-88801368D01*
X115923272Y-88688987D01*
X115864814Y-88580171D01*
X115809361Y-88476527D01*
X115757788Y-88379658D01*
X115710968Y-88291170D01*
X115669776Y-88212668D01*
X115635085Y-88145756D01*
X115613907Y-88104241D01*
X115584272Y-88046950D01*
X115557046Y-87996882D01*
X115533938Y-87956980D01*
X115516659Y-87930187D01*
X115506918Y-87919446D01*
X115506467Y-87919367D01*
X115503987Y-87922624D01*
X115501814Y-87933174D01*
X115499932Y-87952189D01*
X115498325Y-87980839D01*
X115496977Y-88020294D01*
X115495874Y-88071727D01*
X115494999Y-88136306D01*
X115494337Y-88215204D01*
X115493873Y-88309591D01*
X115493590Y-88420638D01*
X115493474Y-88549514D01*
X115493508Y-88697392D01*
X115493677Y-88865442D01*
X115493695Y-88879477D01*
X115494979Y-89839587D01*
X115469677Y-89860110D01*
X115461978Y-89865520D01*
X115452123Y-89869888D01*
X115437905Y-89873325D01*
X115417118Y-89875942D01*
X115387553Y-89877850D01*
X115347003Y-89879159D01*
X115293261Y-89879981D01*
X115224121Y-89880426D01*
X115137374Y-89880606D01*
X115061186Y-89880633D01*
X114960297Y-89880589D01*
X114878618Y-89880379D01*
X114813927Y-89879885D01*
X114763998Y-89878988D01*
X114726609Y-89877570D01*
X114699535Y-89875514D01*
X114680552Y-89872702D01*
X114667437Y-89869015D01*
X114657966Y-89864335D01*
X114650268Y-89858822D01*
X114622539Y-89837011D01*
X114618331Y-88629012D01*
X114617643Y-88439330D01*
X114616960Y-88269837D01*
X114616262Y-88119285D01*
X114615526Y-87986429D01*
X114614733Y-87870023D01*
X114613861Y-87768819D01*
X114612890Y-87681572D01*
X114611798Y-87607036D01*
X114610565Y-87543964D01*
X114609169Y-87491109D01*
X114607591Y-87447226D01*
X114605807Y-87411069D01*
X114603799Y-87381390D01*
X114601545Y-87356944D01*
X114599023Y-87336484D01*
X114596337Y-87319464D01*
X114561622Y-87157734D01*
X114517482Y-87015204D01*
X114463893Y-86891812D01*
X114400829Y-86787495D01*
X114373996Y-86752376D01*
X114356376Y-86731366D01*
X114341388Y-86713411D01*
X114330404Y-86698272D01*
X114324795Y-86685711D01*
X114325933Y-86675489D01*
X114335190Y-86667366D01*
X114353938Y-86661105D01*
X114383549Y-86656466D01*
X114425393Y-86653211D01*
X114480844Y-86651100D01*
X114551273Y-86649895D01*
X114638051Y-86649357D01*
X114742551Y-86649248D01*
X114866144Y-86649327D01*
X114965645Y-86649367D01*
X115591434Y-86649367D01*
X115652942Y-86678194D01*
X115695401Y-86702588D01*
X115737525Y-86733852D01*
X115758448Y-86753215D01*
X115770266Y-86768696D01*
X115788876Y-86797573D01*
X115814508Y-86840272D01*
X115847395Y-86897220D01*
X115887770Y-86968841D01*
X115935864Y-87055562D01*
X115991910Y-87157808D01*
X116056139Y-87276005D01*
X116128783Y-87410579D01*
X116210076Y-87561955D01*
X116300247Y-87730560D01*
X116399531Y-87916818D01*
X116508158Y-88121157D01*
X116626361Y-88344001D01*
X116655431Y-88398869D01*
X116688733Y-88460839D01*
X116719246Y-88515917D01*
X116745414Y-88561434D01*
X116765683Y-88594719D01*
X116778498Y-88613103D01*
X116781797Y-88615894D01*
X116783938Y-88608143D01*
X116785751Y-88584464D01*
X116787238Y-88544278D01*
X116788403Y-88487006D01*
X116789251Y-88412070D01*
X116789785Y-88318891D01*
X116790010Y-88206890D01*
X116789929Y-88075489D01*
X116789547Y-87924107D01*
X116788867Y-87752167D01*
X116788407Y-87656324D01*
X116783559Y-86696657D01*
X116833019Y-86644009D01*
X117227691Y-86644009D01*
X117330179Y-86644050D01*
G37*
G36*
X104204304Y-90695148D02*
G01*
X103968523Y-90695148D01*
X103968523Y-91263165D01*
X103732742Y-91263165D01*
X103732742Y-90695148D01*
X103496962Y-90695148D01*
X103496962Y-90523671D01*
X104204304Y-90523671D01*
X104204304Y-90695148D01*
G37*
G36*
X101269389Y-90515327D02*
G01*
X101322613Y-90518780D01*
X101361910Y-90524234D01*
X101394786Y-90533384D01*
X101428745Y-90547927D01*
X101441560Y-90554246D01*
X101480807Y-90575404D01*
X101516499Y-90597058D01*
X101538788Y-90612891D01*
X101568673Y-90637666D01*
X101513391Y-90709276D01*
X101487666Y-90741856D01*
X101466973Y-90766680D01*
X101454651Y-90779794D01*
X101452901Y-90780886D01*
X101442218Y-90774620D01*
X101421825Y-90758956D01*
X101413994Y-90752469D01*
X101361808Y-90717627D01*
X101304267Y-90698826D01*
X101243816Y-90693710D01*
X101202780Y-90695328D01*
X101176324Y-90701744D01*
X101157832Y-90714579D01*
X101157594Y-90714816D01*
X101143818Y-90735926D01*
X101142474Y-90752639D01*
X101146965Y-90760079D01*
X101156270Y-90766752D01*
X101173534Y-90773679D01*
X101201903Y-90781881D01*
X101244520Y-90792380D01*
X101304532Y-90806197D01*
X101314094Y-90808362D01*
X101383246Y-90828948D01*
X101444422Y-90856664D01*
X101493278Y-90889089D01*
X101525469Y-90923806D01*
X101527549Y-90927215D01*
X101540848Y-90958966D01*
X101551108Y-90998903D01*
X101553472Y-91014157D01*
X101551819Y-91082200D01*
X101530558Y-91142542D01*
X101490606Y-91193673D01*
X101432877Y-91234081D01*
X101415204Y-91242584D01*
X101386115Y-91253962D01*
X101355984Y-91261654D01*
X101319200Y-91266507D01*
X101270153Y-91269370D01*
X101230253Y-91270537D01*
X101158258Y-91270574D01*
X101099267Y-91267290D01*
X101057125Y-91260918D01*
X101052660Y-91259757D01*
X101011875Y-91245059D01*
X100968057Y-91224224D01*
X100928263Y-91201085D01*
X100899550Y-91179475D01*
X100893852Y-91173506D01*
X100889287Y-91162482D01*
X100892833Y-91146263D01*
X100906091Y-91120905D01*
X100930664Y-91082462D01*
X100931110Y-91081791D01*
X100954526Y-91047407D01*
X100973455Y-91021157D01*
X100984867Y-91007181D01*
X100986592Y-91005950D01*
X100996958Y-91012381D01*
X101017246Y-91028614D01*
X101027738Y-91037641D01*
X101068105Y-91063918D01*
X101120379Y-91085617D01*
X101175068Y-91099348D01*
X101209164Y-91102405D01*
X101250651Y-91098184D01*
X101284674Y-91087012D01*
X101306020Y-91071127D01*
X101310633Y-91058865D01*
X101307267Y-91044404D01*
X101295112Y-91032255D01*
X101271079Y-91020969D01*
X101232078Y-91009097D01*
X101175022Y-90995189D01*
X101174915Y-90995164D01*
X101113069Y-90980259D01*
X101067335Y-90967163D01*
X101032708Y-90954012D01*
X101004183Y-90938940D01*
X100980163Y-90922616D01*
X100939300Y-90884947D01*
X100914908Y-90841836D01*
X100904354Y-90787720D01*
X100903415Y-90760393D01*
X100912610Y-90690226D01*
X100939718Y-90630996D01*
X100983897Y-90583269D01*
X101044304Y-90547609D01*
X101120095Y-90524580D01*
X101210426Y-90514749D01*
X101269389Y-90515327D01*
G37*
G36*
X108849976Y-90807196D02*
G01*
X108866226Y-90735637D01*
X108895152Y-90674322D01*
X108937949Y-90619142D01*
X108982561Y-90577469D01*
X109028856Y-90548348D01*
X109081755Y-90529986D01*
X109146179Y-90520590D01*
X109214641Y-90518313D01*
X109268615Y-90518796D01*
X109307229Y-90520923D01*
X109336551Y-90525709D01*
X109362646Y-90534167D01*
X109391581Y-90547312D01*
X109393423Y-90548215D01*
X109457548Y-90589091D01*
X109508802Y-90643625D01*
X109550331Y-90715176D01*
X109550757Y-90716094D01*
X109563663Y-90746809D01*
X109571857Y-90775743D01*
X109576388Y-90809366D01*
X109578305Y-90854151D01*
X109578634Y-90888059D01*
X109575809Y-90968428D01*
X109565717Y-91033092D01*
X109546877Y-91086984D01*
X109517808Y-91135039D01*
X109496714Y-91161006D01*
X109461883Y-91194450D01*
X109420771Y-91225500D01*
X109398157Y-91239009D01*
X109369494Y-91252419D01*
X109341683Y-91261172D01*
X109308475Y-91266442D01*
X109263621Y-91269405D01*
X109230717Y-91270505D01*
X109152622Y-91270145D01*
X109094967Y-91264212D01*
X109071815Y-91258546D01*
X108996187Y-91223954D01*
X108935684Y-91174257D01*
X108890440Y-91109668D01*
X108860585Y-91030399D01*
X108846253Y-90936665D01*
X108845514Y-90913176D01*
X109082319Y-90913176D01*
X109082941Y-90924420D01*
X109091992Y-90991390D01*
X109109949Y-91040324D01*
X109137768Y-91073091D01*
X109166943Y-91088634D01*
X109217409Y-91096663D01*
X109265640Y-91083678D01*
X109282519Y-91074053D01*
X109311751Y-91042558D01*
X109331108Y-90992728D01*
X109340315Y-90925397D01*
X109341083Y-90898777D01*
X109336803Y-90823144D01*
X109322564Y-90765871D01*
X109297798Y-90726051D01*
X109261941Y-90702779D01*
X109214427Y-90695148D01*
X109214018Y-90695148D01*
X109164319Y-90704241D01*
X109125981Y-90731148D01*
X109099322Y-90775311D01*
X109084662Y-90836173D01*
X109082319Y-90913176D01*
X108845514Y-90913176D01*
X108844894Y-90893445D01*
X108849976Y-90807196D01*
G37*
G36*
X104916182Y-88374925D02*
G01*
X104961343Y-88239644D01*
X105005974Y-88105708D01*
X105049557Y-87974667D01*
X105091572Y-87848071D01*
X105131502Y-87727469D01*
X105168830Y-87614411D01*
X105203038Y-87510448D01*
X105233606Y-87417129D01*
X105260018Y-87336004D01*
X105281756Y-87268623D01*
X105298301Y-87216536D01*
X105309136Y-87181293D01*
X105313545Y-87165403D01*
X105328800Y-87063311D01*
X105326322Y-86972749D01*
X105305873Y-86892861D01*
X105267214Y-86822793D01*
X105210109Y-86761689D01*
X105198421Y-86752030D01*
X105160875Y-86719043D01*
X105141373Y-86693436D01*
X105138812Y-86672944D01*
X105151572Y-86655732D01*
X105161009Y-86653072D01*
X105183073Y-86650841D01*
X105218803Y-86649026D01*
X105269239Y-86647613D01*
X105335422Y-86646588D01*
X105418392Y-86645937D01*
X105519187Y-86645646D01*
X105638848Y-86645702D01*
X105778414Y-86646090D01*
X105850876Y-86646382D01*
X105988891Y-86646998D01*
X106107133Y-86647592D01*
X106207268Y-86648222D01*
X106290957Y-86648945D01*
X106359863Y-86649822D01*
X106415649Y-86650911D01*
X106459979Y-86652271D01*
X106494516Y-86653959D01*
X106520922Y-86656035D01*
X106540860Y-86658557D01*
X106555993Y-86661585D01*
X106567984Y-86665176D01*
X106578497Y-86669390D01*
X106584856Y-86672274D01*
X106644121Y-86707938D01*
X106699533Y-86756056D01*
X106743183Y-86809538D01*
X106749627Y-86819948D01*
X106755985Y-86835050D01*
X106768615Y-86868940D01*
X106787048Y-86920230D01*
X106810813Y-86987529D01*
X106839439Y-87069449D01*
X106872457Y-87164602D01*
X106909396Y-87271598D01*
X106949787Y-87389048D01*
X106993158Y-87515564D01*
X107039040Y-87649757D01*
X107086962Y-87790237D01*
X107136454Y-87935617D01*
X107187047Y-88084506D01*
X107238269Y-88235517D01*
X107289650Y-88387260D01*
X107340720Y-88538346D01*
X107391010Y-88687387D01*
X107440048Y-88832993D01*
X107487364Y-88973776D01*
X107532489Y-89108347D01*
X107574952Y-89235316D01*
X107614282Y-89353296D01*
X107650010Y-89460897D01*
X107681665Y-89556730D01*
X107708778Y-89639406D01*
X107730877Y-89707537D01*
X107747492Y-89759734D01*
X107758154Y-89794607D01*
X107762392Y-89810768D01*
X107762447Y-89811405D01*
X107754066Y-89835879D01*
X107734208Y-89858421D01*
X107726740Y-89863832D01*
X107718041Y-89868284D01*
X107706086Y-89871872D01*
X107688854Y-89874688D01*
X107664318Y-89876826D01*
X107630456Y-89878378D01*
X107585244Y-89879439D01*
X107526657Y-89880102D01*
X107452672Y-89880460D01*
X107361265Y-89880606D01*
X107252528Y-89880633D01*
X106799085Y-89880633D01*
X106772404Y-89856519D01*
X106762671Y-89845019D01*
X106752706Y-89826738D01*
X106741649Y-89799158D01*
X106728640Y-89759758D01*
X106712820Y-89706019D01*
X106693327Y-89635421D01*
X106680040Y-89585907D01*
X106654742Y-89490970D01*
X106634295Y-89414620D01*
X106617989Y-89354747D01*
X106605111Y-89309237D01*
X106594949Y-89275978D01*
X106586791Y-89252860D01*
X106579926Y-89237769D01*
X106573641Y-89228594D01*
X106567225Y-89223222D01*
X106559966Y-89219542D01*
X106555946Y-89217744D01*
X106538959Y-89214826D01*
X106503459Y-89212277D01*
X106452228Y-89210102D01*
X106388047Y-89208306D01*
X106313697Y-89206893D01*
X106231957Y-89205869D01*
X106145610Y-89205238D01*
X106057437Y-89205007D01*
X105970217Y-89205179D01*
X105886732Y-89205759D01*
X105809762Y-89206754D01*
X105742089Y-89208167D01*
X105686494Y-89210004D01*
X105645756Y-89212270D01*
X105622658Y-89214970D01*
X105619178Y-89216059D01*
X105612083Y-89220814D01*
X105605329Y-89228455D01*
X105598214Y-89241087D01*
X105590037Y-89260815D01*
X105580097Y-89289744D01*
X105567692Y-89329979D01*
X105552121Y-89383624D01*
X105532681Y-89452785D01*
X105508672Y-89539566D01*
X105495921Y-89585907D01*
X105471189Y-89674294D01*
X105450780Y-89743533D01*
X105434115Y-89795345D01*
X105420615Y-89831450D01*
X105409701Y-89853567D01*
X105403023Y-89861878D01*
X105397975Y-89865267D01*
X105390455Y-89868224D01*
X105379062Y-89870776D01*
X105362396Y-89872955D01*
X105339057Y-89874789D01*
X105307645Y-89876307D01*
X105266758Y-89877539D01*
X105214998Y-89878515D01*
X105150964Y-89879264D01*
X105073255Y-89879814D01*
X104980472Y-89880197D01*
X104871213Y-89880440D01*
X104744080Y-89880574D01*
X104597672Y-89880627D01*
X104509747Y-89880633D01*
X104352311Y-89880611D01*
X104214911Y-89880525D01*
X104096147Y-89880345D01*
X103994619Y-89880042D01*
X103908929Y-89879587D01*
X103837676Y-89878950D01*
X103779462Y-89878102D01*
X103732887Y-89877013D01*
X103696552Y-89875655D01*
X103669057Y-89873997D01*
X103649004Y-89872011D01*
X103634992Y-89869667D01*
X103625623Y-89866935D01*
X103619497Y-89863786D01*
X103617017Y-89861878D01*
X103607847Y-89849176D01*
X103589361Y-89819481D01*
X103562586Y-89774575D01*
X103528549Y-89716239D01*
X103488278Y-89646253D01*
X103442801Y-89566400D01*
X103393144Y-89478459D01*
X103340337Y-89384212D01*
X103309409Y-89328692D01*
X103254955Y-89231216D01*
X103202761Y-89138710D01*
X103153895Y-89053005D01*
X103109426Y-88975933D01*
X103070422Y-88909326D01*
X103037952Y-88855016D01*
X103013085Y-88814833D01*
X102996888Y-88790610D01*
X102992102Y-88784789D01*
X102979541Y-88773485D01*
X102967324Y-88765519D01*
X102951638Y-88760306D01*
X102928668Y-88757264D01*
X102894600Y-88755807D01*
X102845620Y-88755352D01*
X102799681Y-88755317D01*
X102737615Y-88755454D01*
X102693249Y-88756216D01*
X102662847Y-88758128D01*
X102642674Y-88761712D01*
X102628996Y-88767495D01*
X102618077Y-88775999D01*
X102612297Y-88781623D01*
X102585991Y-88807929D01*
X102585827Y-89320167D01*
X102585634Y-89423154D01*
X102585144Y-89519709D01*
X102584390Y-89607694D01*
X102583405Y-89684968D01*
X102582221Y-89749392D01*
X102580872Y-89798826D01*
X102579391Y-89831131D01*
X102577809Y-89844167D01*
X102577789Y-89844198D01*
X102570634Y-89853089D01*
X102560835Y-89860407D01*
X102546401Y-89866298D01*
X102525345Y-89870909D01*
X102495675Y-89874389D01*
X102455404Y-89876885D01*
X102402541Y-89878545D01*
X102335098Y-89879515D01*
X102251084Y-89879944D01*
X102148512Y-89879980D01*
X102096379Y-89879908D01*
X101968516Y-89879387D01*
X101861981Y-89878294D01*
X101776676Y-89876627D01*
X101712500Y-89874381D01*
X101669357Y-89871556D01*
X101647145Y-89868147D01*
X101645315Y-89867449D01*
X101624414Y-89849849D01*
X101615960Y-89833343D01*
X101615254Y-89819811D01*
X101614507Y-89786254D01*
X101613732Y-89734082D01*
X101612937Y-89664704D01*
X101612133Y-89579531D01*
X101611332Y-89479971D01*
X101610543Y-89367434D01*
X101609776Y-89243330D01*
X101609044Y-89109068D01*
X101608355Y-88966059D01*
X101607720Y-88815712D01*
X101607151Y-88659435D01*
X101607095Y-88642785D01*
X101606463Y-88455537D01*
X101605842Y-88288351D01*
X101605189Y-88139858D01*
X101604459Y-88008686D01*
X101603609Y-87893464D01*
X101602594Y-87792821D01*
X101601699Y-87728967D01*
X102591350Y-87728967D01*
X102591409Y-87818691D01*
X102591692Y-87889400D01*
X102592358Y-87943515D01*
X102593566Y-87983457D01*
X102595476Y-88011645D01*
X102598247Y-88030501D01*
X102602038Y-88042443D01*
X102607007Y-88049893D01*
X102612785Y-88054880D01*
X102630777Y-88060070D01*
X102666875Y-88064044D01*
X102717787Y-88066849D01*
X102780222Y-88068533D01*
X102850888Y-88069145D01*
X102926495Y-88068733D01*
X103003749Y-88067346D01*
X103079361Y-88065030D01*
X103150037Y-88061836D01*
X103212488Y-88057810D01*
X103263422Y-88053001D01*
X103299546Y-88047458D01*
X103310335Y-88044658D01*
X103383723Y-88011661D01*
X103440207Y-87966082D01*
X103480839Y-87907046D01*
X103484305Y-87899869D01*
X103498333Y-87866579D01*
X103506897Y-87835662D01*
X103511283Y-87799793D01*
X103512774Y-87751644D01*
X103512844Y-87737173D01*
X103506984Y-87644502D01*
X103488253Y-87568272D01*
X103455505Y-87506980D01*
X103407594Y-87459122D01*
X103343371Y-87423195D01*
X103261692Y-87397696D01*
X103252305Y-87395616D01*
X103222963Y-87391804D01*
X103174762Y-87388603D01*
X103110271Y-87386103D01*
X103032060Y-87384394D01*
X102942697Y-87383567D01*
X102908295Y-87383502D01*
X102821255Y-87383626D01*
X102753186Y-87384094D01*
X102701626Y-87385050D01*
X102664113Y-87386638D01*
X102638184Y-87389004D01*
X102621379Y-87392291D01*
X102611233Y-87396643D01*
X102606059Y-87401226D01*
X102601614Y-87410661D01*
X102598111Y-87428469D01*
X102595452Y-87456790D01*
X102593543Y-87497761D01*
X102592288Y-87553520D01*
X102591589Y-87626207D01*
X102591352Y-87717958D01*
X102591350Y-87728967D01*
X101601699Y-87728967D01*
X101601369Y-87705385D01*
X101599892Y-87629785D01*
X101598118Y-87564651D01*
X101596003Y-87508611D01*
X101593502Y-87460293D01*
X101590572Y-87418328D01*
X101587168Y-87381343D01*
X101583247Y-87347967D01*
X101578764Y-87316829D01*
X101573676Y-87286559D01*
X101567937Y-87255784D01*
X101561505Y-87223135D01*
X101561427Y-87222743D01*
X101534548Y-87112570D01*
X101499421Y-87006827D01*
X101457839Y-86909656D01*
X101411598Y-86825199D01*
X101362492Y-86757598D01*
X101357457Y-86751885D01*
X101327673Y-86715805D01*
X101313495Y-86689743D01*
X101313811Y-86670307D01*
X101325803Y-86655478D01*
X101333700Y-86653330D01*
X101352484Y-86651463D01*
X101383075Y-86649869D01*
X101426392Y-86648543D01*
X101483354Y-86647475D01*
X101554882Y-86646661D01*
X101641894Y-86646091D01*
X101745310Y-86645761D01*
X101866050Y-86645661D01*
X102005033Y-86645786D01*
X102163179Y-86646129D01*
X102341407Y-86646682D01*
X102432364Y-86647012D01*
X102609621Y-86647694D01*
X102766807Y-86648338D01*
X102905286Y-86648977D01*
X103026423Y-86649639D01*
X103131580Y-86650356D01*
X103222122Y-86651157D01*
X103299413Y-86652072D01*
X103364816Y-86653133D01*
X103419696Y-86654369D01*
X103465416Y-86655810D01*
X103503340Y-86657487D01*
X103534831Y-86659429D01*
X103561255Y-86661668D01*
X103583974Y-86664233D01*
X103604353Y-86667154D01*
X103623755Y-86670462D01*
X103641645Y-86673822D01*
X103804310Y-86712870D01*
X103949606Y-86764245D01*
X104077927Y-86828281D01*
X104189672Y-86905311D01*
X104285235Y-86995669D01*
X104365014Y-87099690D01*
X104429403Y-87217708D01*
X104478800Y-87350057D01*
X104489793Y-87388952D01*
X104500307Y-87430723D01*
X104507920Y-87467756D01*
X104513124Y-87505022D01*
X104516405Y-87547494D01*
X104518255Y-87600145D01*
X104519162Y-87667946D01*
X104519305Y-87688945D01*
X104519185Y-87770241D01*
X104517525Y-87834851D01*
X104514018Y-87887487D01*
X104508359Y-87932864D01*
X104500874Y-87972785D01*
X104463277Y-88107615D01*
X104411049Y-88228432D01*
X104342736Y-88338132D01*
X104277202Y-88418003D01*
X104237862Y-88455585D01*
X104185466Y-88498110D01*
X104126238Y-88541149D01*
X104066397Y-88580275D01*
X104012167Y-88611057D01*
X103993268Y-88620118D01*
X103965094Y-88634962D01*
X103946418Y-88649085D01*
X103943127Y-88653726D01*
X103947613Y-88665093D01*
X103962399Y-88692041D01*
X103986153Y-88732486D01*
X104017547Y-88784349D01*
X104055251Y-88845549D01*
X104097933Y-88914003D01*
X104144265Y-88987632D01*
X104192916Y-89064354D01*
X104242556Y-89142089D01*
X104291855Y-89218754D01*
X104339484Y-89292270D01*
X104384112Y-89360555D01*
X104424409Y-89421528D01*
X104459045Y-89473108D01*
X104486690Y-89513214D01*
X104506014Y-89539765D01*
X104515688Y-89550681D01*
X104516424Y-89550744D01*
X104521356Y-89539022D01*
X104532489Y-89508497D01*
X104549308Y-89460717D01*
X104571292Y-89397233D01*
X104597925Y-89319595D01*
X104628689Y-89229352D01*
X104663065Y-89128055D01*
X104700536Y-89017254D01*
X104740583Y-88898498D01*
X104782690Y-88773337D01*
X104826337Y-88643321D01*
X104862173Y-88536366D01*
X105794629Y-88536366D01*
X105799459Y-88541000D01*
X105811464Y-88544629D01*
X105832869Y-88547366D01*
X105865901Y-88549325D01*
X105912786Y-88550619D01*
X105975751Y-88551360D01*
X106057023Y-88551664D01*
X106095571Y-88551688D01*
X106390633Y-88551688D01*
X106390633Y-88527130D01*
X106387871Y-88510639D01*
X106380076Y-88476421D01*
X106367987Y-88427392D01*
X106352338Y-88366467D01*
X106333868Y-88296564D01*
X106313313Y-88220598D01*
X106311410Y-88213649D01*
X106286295Y-88121495D01*
X106259105Y-88020768D01*
X106231554Y-87917876D01*
X106205354Y-87819227D01*
X106182215Y-87731230D01*
X106171221Y-87688945D01*
X106149723Y-87606696D01*
X106132509Y-87543280D01*
X106118878Y-87496683D01*
X106108127Y-87464892D01*
X106099553Y-87445893D01*
X106092454Y-87437673D01*
X106086128Y-87438218D01*
X106084282Y-87439783D01*
X106079953Y-87451520D01*
X106071092Y-87481276D01*
X106058457Y-87526298D01*
X106042808Y-87583834D01*
X106024902Y-87651132D01*
X106005499Y-87725440D01*
X106004723Y-87728436D01*
X105980250Y-87822137D01*
X105952591Y-87926479D01*
X105923660Y-88034339D01*
X105895374Y-88138593D01*
X105869647Y-88232116D01*
X105860269Y-88265754D01*
X105840747Y-88336858D01*
X105823730Y-88401583D01*
X105809946Y-88456934D01*
X105800120Y-88499919D01*
X105794979Y-88527543D01*
X105794629Y-88536366D01*
X104862173Y-88536366D01*
X104871007Y-88510001D01*
X104916182Y-88374925D01*
G37*
G36*
X117954599Y-91263165D02*
G01*
X117750970Y-91263165D01*
X117749684Y-90754093D01*
X117672221Y-91005950D01*
X117594759Y-91257806D01*
X117498562Y-91260854D01*
X117402364Y-91263902D01*
X117325525Y-91008998D01*
X117248685Y-90754093D01*
X117247257Y-91263165D01*
X117043629Y-91263165D01*
X117043629Y-90523671D01*
X117372142Y-90523671D01*
X117433771Y-90746055D01*
X117452249Y-90812556D01*
X117469033Y-90872633D01*
X117483201Y-90923011D01*
X117493831Y-90960415D01*
X117500001Y-90981569D01*
X117500931Y-90984515D01*
X117505510Y-90980604D01*
X117514430Y-90959105D01*
X117526587Y-90923164D01*
X117540873Y-90875922D01*
X117548053Y-90850549D01*
X117565540Y-90787738D01*
X117583513Y-90723655D01*
X117600002Y-90665292D01*
X117613037Y-90619643D01*
X117614444Y-90614768D01*
X117639244Y-90529030D01*
X117796921Y-90526064D01*
X117954599Y-90523098D01*
X117954599Y-91263165D01*
G37*
G36*
X119562194Y-86648061D02*
G01*
X119747990Y-86660052D01*
X119917132Y-86681726D01*
X120072571Y-86714107D01*
X120217258Y-86758215D01*
X120354147Y-86815073D01*
X120486188Y-86885702D01*
X120616332Y-86971124D01*
X120717552Y-87047977D01*
X120770077Y-87092209D01*
X120805962Y-87128070D01*
X120827038Y-87158064D01*
X120835134Y-87184697D01*
X120833236Y-87206331D01*
X120824811Y-87221989D01*
X120804845Y-87251550D01*
X120775413Y-87292364D01*
X120738592Y-87341781D01*
X120696456Y-87397149D01*
X120651080Y-87455819D01*
X120604540Y-87515140D01*
X120558911Y-87572461D01*
X120516268Y-87625131D01*
X120478687Y-87670500D01*
X120448242Y-87705917D01*
X120427010Y-87728732D01*
X120418680Y-87735818D01*
X120391964Y-87745358D01*
X120363720Y-87742753D01*
X120330752Y-87726663D01*
X120289865Y-87695743D01*
X120259626Y-87668986D01*
X120142682Y-87574408D01*
X120018801Y-87499344D01*
X119886936Y-87443427D01*
X119746039Y-87406289D01*
X119595064Y-87387566D01*
X119451272Y-87386096D01*
X119386537Y-87389249D01*
X119337318Y-87393688D01*
X119297701Y-87400314D01*
X119261769Y-87410026D01*
X119236722Y-87418742D01*
X119166030Y-87452669D01*
X119112029Y-87495103D01*
X119076063Y-87544545D01*
X119059477Y-87599498D01*
X119058481Y-87617305D01*
X119061409Y-87647334D01*
X119071225Y-87674143D01*
X119089477Y-87698404D01*
X119117711Y-87720787D01*
X119157475Y-87741965D01*
X119210315Y-87762608D01*
X119277779Y-87783387D01*
X119361415Y-87804973D01*
X119462769Y-87828039D01*
X119583389Y-87853254D01*
X119618863Y-87860398D01*
X119797016Y-87898841D01*
X119955450Y-87939164D01*
X120095846Y-87982076D01*
X120219888Y-88028281D01*
X120329257Y-88078486D01*
X120425637Y-88133397D01*
X120510710Y-88193722D01*
X120586159Y-88260165D01*
X120597105Y-88271062D01*
X120672812Y-88360104D01*
X120731883Y-88457931D01*
X120774926Y-88566238D01*
X120802550Y-88686718D01*
X120815361Y-88821065D01*
X120816470Y-88882393D01*
X120810410Y-89008712D01*
X120792110Y-89120667D01*
X120760469Y-89222208D01*
X120714387Y-89317284D01*
X120680102Y-89371765D01*
X120592596Y-89481126D01*
X120488346Y-89577446D01*
X120367714Y-89660596D01*
X120231065Y-89730451D01*
X120078762Y-89786881D01*
X119911168Y-89829760D01*
X119728647Y-89858960D01*
X119531561Y-89874352D01*
X119320275Y-89875810D01*
X119251392Y-89873388D01*
X119109668Y-89863725D01*
X118969767Y-89847858D01*
X118836231Y-89826544D01*
X118713600Y-89800536D01*
X118606417Y-89770590D01*
X118580473Y-89761842D01*
X118450440Y-89709299D01*
X118317782Y-89643285D01*
X118189640Y-89567798D01*
X118073158Y-89486834D01*
X118034596Y-89456412D01*
X118014573Y-89439491D01*
X117999634Y-89423944D01*
X117990520Y-89407732D01*
X117987974Y-89388819D01*
X117992736Y-89365165D01*
X118005548Y-89334734D01*
X118027151Y-89295485D01*
X118058288Y-89245382D01*
X118099698Y-89182387D01*
X118152124Y-89104461D01*
X118174867Y-89070838D01*
X118221883Y-89001746D01*
X118265724Y-88938059D01*
X118304788Y-88882050D01*
X118337470Y-88835993D01*
X118362165Y-88802159D01*
X118377270Y-88782823D01*
X118380544Y-88779431D01*
X118402238Y-88767997D01*
X118425689Y-88767914D01*
X118454017Y-88780486D01*
X118490348Y-88807019D01*
X118530443Y-88842062D01*
X118639665Y-88930606D01*
X118755862Y-89002422D01*
X118881100Y-89058288D01*
X119017441Y-89098978D01*
X119166949Y-89125269D01*
X119315696Y-89137314D01*
X119436654Y-89139067D01*
X119538922Y-89132934D01*
X119623882Y-89118556D01*
X119692915Y-89095573D01*
X119747401Y-89063626D01*
X119788721Y-89022356D01*
X119795986Y-89012277D01*
X119813330Y-88979365D01*
X119817501Y-88945366D01*
X119816238Y-88928806D01*
X119809716Y-88897503D01*
X119796350Y-88869591D01*
X119774522Y-88844354D01*
X119742609Y-88821078D01*
X119698992Y-88799048D01*
X119642048Y-88777552D01*
X119570158Y-88755874D01*
X119481701Y-88733300D01*
X119375055Y-88709117D01*
X119265262Y-88686016D01*
X119098844Y-88650162D01*
X118951861Y-88614562D01*
X118822341Y-88578375D01*
X118708311Y-88540763D01*
X118607801Y-88500884D01*
X118518838Y-88457900D01*
X118439450Y-88410971D01*
X118367665Y-88359258D01*
X118301512Y-88301921D01*
X118255851Y-88256252D01*
X118185338Y-88172547D01*
X118132027Y-88086845D01*
X118092178Y-87992575D01*
X118076306Y-87940802D01*
X118066508Y-87889833D01*
X118059871Y-87823446D01*
X118056394Y-87747420D01*
X118056078Y-87667536D01*
X118058921Y-87589575D01*
X118064924Y-87519319D01*
X118074086Y-87462548D01*
X118076338Y-87453165D01*
X118098885Y-87383949D01*
X118131718Y-87306435D01*
X118171190Y-87227855D01*
X118213656Y-87155440D01*
X118255471Y-87096423D01*
X118257330Y-87094135D01*
X118346734Y-87000566D01*
X118453941Y-86915432D01*
X118576537Y-86840049D01*
X118712107Y-86775733D01*
X118858237Y-86723798D01*
X119004201Y-86687216D01*
X119155259Y-86663349D01*
X119319456Y-86649558D01*
X119490796Y-86646263D01*
X119562194Y-86648061D01*
G37*
G36*
X98029006Y-84849334D02*
G01*
X98027615Y-84758659D01*
X98025746Y-84681048D01*
X98023333Y-84614827D01*
X98020315Y-84558324D01*
X98016626Y-84509862D01*
X98012204Y-84467769D01*
X98006985Y-84430371D01*
X98000905Y-84395993D01*
X97993900Y-84362963D01*
X97992265Y-84355865D01*
X97974622Y-84294391D01*
X97950760Y-84230867D01*
X97923329Y-84171082D01*
X97894979Y-84120825D01*
X97868853Y-84086387D01*
X97848437Y-84059936D01*
X97839847Y-84037185D01*
X97840049Y-84032800D01*
X97841610Y-84028619D01*
X97845640Y-84025053D01*
X97853762Y-84022043D01*
X97867601Y-84019531D01*
X97888780Y-84017456D01*
X97918923Y-84015758D01*
X97959654Y-84014380D01*
X98012596Y-84013260D01*
X98079374Y-84012339D01*
X98161611Y-84011558D01*
X98260931Y-84010858D01*
X98378958Y-84010179D01*
X98470694Y-84009699D01*
X98633871Y-84009092D01*
X98776068Y-84009057D01*
X98897729Y-84009599D01*
X98999302Y-84010723D01*
X99081232Y-84012436D01*
X99143966Y-84014743D01*
X99187949Y-84017649D01*
X99199253Y-84018840D01*
X99348178Y-84045901D01*
X99483290Y-84089195D01*
X99604459Y-84148635D01*
X99711557Y-84224136D01*
X99804454Y-84315610D01*
X99883021Y-84422971D01*
X99929302Y-84507281D01*
X99973696Y-84618033D01*
X100007586Y-84743561D01*
X100030331Y-84879611D01*
X100041293Y-85021930D01*
X100039832Y-85166264D01*
X100036142Y-85217893D01*
X100017141Y-85365811D01*
X99987175Y-85497197D01*
X99945155Y-85614544D01*
X99889989Y-85720347D01*
X99820585Y-85817099D01*
X99735853Y-85907294D01*
X99733539Y-85909476D01*
X99681351Y-85955783D01*
X99632712Y-85991604D01*
X99578404Y-86023260D01*
X99538170Y-86043409D01*
X99465776Y-86076199D01*
X99400988Y-86100237D01*
X99337421Y-86117022D01*
X99268692Y-86128051D01*
X99188418Y-86134824D01*
X99138504Y-86137220D01*
X98986586Y-86143196D01*
X98974607Y-86096198D01*
X98946085Y-85992630D01*
X98918582Y-85910031D01*
X98891873Y-85847971D01*
X98865730Y-85806018D01*
X98839929Y-85783744D01*
X98814243Y-85780718D01*
X98809563Y-85782204D01*
X98793900Y-85792337D01*
X98779454Y-85811739D01*
X98765094Y-85843081D01*
X98749692Y-85889031D01*
X98732118Y-85952260D01*
X98723602Y-85985470D01*
X98709272Y-86039137D01*
X98695408Y-86085367D01*
X98683334Y-86120130D01*
X98674374Y-86139396D01*
X98672304Y-86141680D01*
X98657180Y-86144547D01*
X98624051Y-86146842D01*
X98576339Y-86148575D01*
X98517465Y-86149760D01*
X98450851Y-86150410D01*
X98379918Y-86150535D01*
X98308089Y-86150150D01*
X98238784Y-86149265D01*
X98175425Y-86147894D01*
X98121435Y-86146048D01*
X98080234Y-86143740D01*
X98055244Y-86140983D01*
X98049894Y-86139437D01*
X98046268Y-86136311D01*
X98043139Y-86130467D01*
X98040471Y-86120417D01*
X98038228Y-86104671D01*
X98036373Y-86081738D01*
X98034868Y-86050130D01*
X98033677Y-86008356D01*
X98032764Y-85954926D01*
X98032091Y-85888351D01*
X98031621Y-85807142D01*
X98031319Y-85709808D01*
X98031147Y-85594859D01*
X98031068Y-85460807D01*
X98031051Y-85376155D01*
X98030940Y-85216484D01*
X98030605Y-85076572D01*
X98030582Y-85072158D01*
X98695612Y-85072158D01*
X98695724Y-85202689D01*
X98696082Y-85313201D01*
X98696720Y-85405108D01*
X98697670Y-85479824D01*
X98698965Y-85538763D01*
X98700639Y-85583339D01*
X98702724Y-85614968D01*
X98705254Y-85635062D01*
X98708261Y-85645036D01*
X98709008Y-85646032D01*
X98720166Y-85651453D01*
X98742853Y-85654996D01*
X98779628Y-85656800D01*
X98833047Y-85657004D01*
X98893882Y-85656011D01*
X98959293Y-85654362D01*
X99007666Y-85652302D01*
X99043395Y-85649204D01*
X99070875Y-85644441D01*
X99094501Y-85637387D01*
X99118668Y-85627413D01*
X99129662Y-85622377D01*
X99187305Y-85590513D01*
X99233087Y-85552393D01*
X99269673Y-85504381D01*
X99299732Y-85442837D01*
X99325930Y-85364124D01*
X99330166Y-85348867D01*
X99340674Y-85295129D01*
X99348235Y-85225813D01*
X99352784Y-85146582D01*
X99354254Y-85063097D01*
X99352581Y-84981021D01*
X99347697Y-84906017D01*
X99339538Y-84843746D01*
X99336223Y-84827426D01*
X99307981Y-84731384D01*
X99270448Y-84653831D01*
X99222161Y-84593304D01*
X99161659Y-84548338D01*
X99087479Y-84517471D01*
X99009974Y-84500842D01*
X98959977Y-84495316D01*
X98904069Y-84491850D01*
X98847311Y-84490443D01*
X98794765Y-84491093D01*
X98751494Y-84493799D01*
X98722559Y-84498560D01*
X98716342Y-84500926D01*
X98711757Y-84504018D01*
X98707903Y-84509136D01*
X98704717Y-84518026D01*
X98702134Y-84532431D01*
X98700091Y-84554097D01*
X98698526Y-84584767D01*
X98697375Y-84626187D01*
X98696574Y-84680102D01*
X98696061Y-84748255D01*
X98695772Y-84832391D01*
X98695643Y-84934256D01*
X98695612Y-85055593D01*
X98695612Y-85072158D01*
X98030582Y-85072158D01*
X98029981Y-84954747D01*
X98029006Y-84849334D01*
G37*
G36*
X100341740Y-85066911D02*
G01*
X100385035Y-84937219D01*
X100425965Y-84814334D01*
X100464030Y-84699765D01*
X100498733Y-84595022D01*
X100529576Y-84501614D01*
X100556059Y-84421049D01*
X100577685Y-84354838D01*
X100593956Y-84304488D01*
X100604372Y-84271508D01*
X100608394Y-84257627D01*
X100609902Y-84204259D01*
X100591509Y-84153399D01*
X100552574Y-84103575D01*
X100533459Y-84085655D01*
X100504744Y-84058753D01*
X100483832Y-84035888D01*
X100474894Y-84021659D01*
X100474819Y-84020950D01*
X100479089Y-84017594D01*
X100493006Y-84014808D01*
X100518114Y-84012550D01*
X100555958Y-84010773D01*
X100608085Y-84009434D01*
X100676039Y-84008489D01*
X100761367Y-84007892D01*
X100865614Y-84007601D01*
X100941313Y-84007553D01*
X101053905Y-84007595D01*
X101147110Y-84007776D01*
X101222976Y-84008182D01*
X101283550Y-84008899D01*
X101330881Y-84010010D01*
X101367015Y-84011602D01*
X101394000Y-84013759D01*
X101413885Y-84016566D01*
X101428716Y-84020108D01*
X101440542Y-84024471D01*
X101449305Y-84028654D01*
X101481774Y-84051254D01*
X101509073Y-84080072D01*
X101512948Y-84085808D01*
X101519833Y-84101451D01*
X101532767Y-84135382D01*
X101551185Y-84185930D01*
X101574520Y-84251424D01*
X101602208Y-84330192D01*
X101633683Y-84420562D01*
X101668379Y-84520865D01*
X101705732Y-84629428D01*
X101745177Y-84744580D01*
X101786146Y-84864651D01*
X101828076Y-84987967D01*
X101870401Y-85112859D01*
X101912555Y-85237656D01*
X101953973Y-85360685D01*
X101994090Y-85480275D01*
X102032340Y-85594756D01*
X102068158Y-85702456D01*
X102100979Y-85801704D01*
X102130236Y-85890828D01*
X102155365Y-85968157D01*
X102175801Y-86032020D01*
X102190977Y-86080745D01*
X102200329Y-86112662D01*
X102203291Y-86126099D01*
X102203247Y-86126296D01*
X102198035Y-86130397D01*
X102184577Y-86133586D01*
X102160873Y-86135930D01*
X102124923Y-86137498D01*
X102074725Y-86138356D01*
X102008277Y-86138574D01*
X101923581Y-86138218D01*
X101864330Y-86137767D01*
X101530901Y-86134937D01*
X101475530Y-85929509D01*
X101458183Y-85865881D01*
X101442328Y-85809085D01*
X101428930Y-85762473D01*
X101418956Y-85729399D01*
X101413371Y-85713216D01*
X101412991Y-85712484D01*
X101400896Y-85709557D01*
X101370649Y-85707019D01*
X101325530Y-85704887D01*
X101268819Y-85703177D01*
X101203794Y-85701906D01*
X101133735Y-85701090D01*
X101061922Y-85700745D01*
X100991634Y-85700888D01*
X100926152Y-85701536D01*
X100868753Y-85702705D01*
X100822719Y-85704412D01*
X100791328Y-85706672D01*
X100778141Y-85709292D01*
X100771525Y-85721673D01*
X100760454Y-85751518D01*
X100745986Y-85795578D01*
X100729179Y-85850602D01*
X100711091Y-85913342D01*
X100707517Y-85926154D01*
X100649596Y-86134937D01*
X100326083Y-86137774D01*
X100231086Y-86138441D01*
X100155506Y-86138549D01*
X100097331Y-86138028D01*
X100054551Y-86136808D01*
X100025152Y-86134821D01*
X100007124Y-86131996D01*
X99998455Y-86128265D01*
X99997127Y-86126426D01*
X99999657Y-86114384D01*
X100008564Y-86083499D01*
X100023375Y-86035235D01*
X100043614Y-85971060D01*
X100068807Y-85892439D01*
X100098479Y-85800837D01*
X100132155Y-85697721D01*
X100169361Y-85584557D01*
X100209620Y-85462810D01*
X100252460Y-85333947D01*
X100276525Y-85261921D01*
X100898291Y-85261921D01*
X100910837Y-85265470D01*
X100941746Y-85268429D01*
X100987951Y-85270634D01*
X101046384Y-85271924D01*
X101091897Y-85272194D01*
X101161739Y-85271894D01*
X101212896Y-85270849D01*
X101248110Y-85268843D01*
X101270124Y-85265657D01*
X101281679Y-85261076D01*
X101285016Y-85256918D01*
X101284055Y-85242395D01*
X101278023Y-85210536D01*
X101267674Y-85164633D01*
X101253762Y-85107979D01*
X101237042Y-85043865D01*
X101231631Y-85023817D01*
X101210721Y-84946669D01*
X101188797Y-84865306D01*
X101167556Y-84786064D01*
X101148698Y-84715279D01*
X101134809Y-84662675D01*
X101120871Y-84610365D01*
X101108615Y-84565951D01*
X101099147Y-84533329D01*
X101093575Y-84516393D01*
X101092824Y-84514948D01*
X101088951Y-84523321D01*
X101080943Y-84549278D01*
X101069712Y-84589575D01*
X101056167Y-84640963D01*
X101043643Y-84690417D01*
X101024443Y-84766007D01*
X101001644Y-84853331D01*
X100977598Y-84943528D01*
X100954651Y-85027738D01*
X100945407Y-85060971D01*
X100928792Y-85121928D01*
X100914975Y-85175944D01*
X100904759Y-85219586D01*
X100898950Y-85249419D01*
X100898291Y-85261921D01*
X100276525Y-85261921D01*
X100296578Y-85201901D01*
X100341740Y-85066911D01*
G37*
G36*
X120214083Y-90628165D02*
G01*
X120237614Y-90677073D01*
X120259757Y-90724406D01*
X120277410Y-90763475D01*
X120284853Y-90780886D01*
X120304564Y-90829114D01*
X120320048Y-90791604D01*
X120330852Y-90766832D01*
X120348336Y-90728282D01*
X120369951Y-90681521D01*
X120389948Y-90638882D01*
X120444365Y-90523671D01*
X120560579Y-90523671D01*
X120607588Y-90524078D01*
X120645476Y-90525180D01*
X120669888Y-90526800D01*
X120676793Y-90528403D01*
X120671893Y-90538726D01*
X120658107Y-90565292D01*
X120636806Y-90605524D01*
X120609361Y-90656844D01*
X120577143Y-90716675D01*
X120548185Y-90770169D01*
X120419578Y-91007203D01*
X120419578Y-91263165D01*
X120183797Y-91263165D01*
X120183797Y-91002291D01*
X120090977Y-90829964D01*
X120058158Y-90769107D01*
X120025951Y-90709512D01*
X119996901Y-90655885D01*
X119973557Y-90612928D01*
X119961386Y-90590654D01*
X119924615Y-90523671D01*
X120163024Y-90523671D01*
X120214083Y-90628165D01*
G37*
G36*
X106420839Y-90523671D02*
G01*
X106505825Y-90524123D01*
X106572375Y-90525596D01*
X106623473Y-90528264D01*
X106662100Y-90532303D01*
X106691240Y-90537889D01*
X106698981Y-90540011D01*
X106764200Y-90568482D01*
X106812730Y-90610305D01*
X106844709Y-90665673D01*
X106860275Y-90734780D01*
X106861959Y-90769465D01*
X106854039Y-90842791D01*
X106829948Y-90902859D01*
X106790006Y-90948965D01*
X106775442Y-90959665D01*
X106758636Y-90970551D01*
X106747517Y-90979664D01*
X106742948Y-90990124D01*
X106745797Y-91005049D01*
X106756931Y-91027557D01*
X106777214Y-91060767D01*
X106807514Y-91107797D01*
X106823425Y-91132404D01*
X106850794Y-91174915D01*
X106874245Y-91211516D01*
X106891108Y-91238029D01*
X106898419Y-91249768D01*
X106897225Y-91255642D01*
X106883740Y-91259619D01*
X106855370Y-91261989D01*
X106809515Y-91263042D01*
X106778262Y-91263165D01*
X106650197Y-91263165D01*
X106580600Y-91137237D01*
X106511003Y-91011308D01*
X106466894Y-91008013D01*
X106422785Y-91004717D01*
X106422785Y-91263165D01*
X106197721Y-91263165D01*
X106197721Y-90845190D01*
X106422785Y-90845190D01*
X106506862Y-90845190D01*
X106551972Y-90844244D01*
X106581012Y-90840702D01*
X106599293Y-90833508D01*
X106609386Y-90824807D01*
X106623567Y-90793746D01*
X106624444Y-90763429D01*
X106617228Y-90733023D01*
X106599492Y-90712684D01*
X106568179Y-90700802D01*
X106520232Y-90695766D01*
X106495126Y-90695306D01*
X106422785Y-90695148D01*
X106422785Y-90845190D01*
X106197721Y-90845190D01*
X106197721Y-90523671D01*
X106420839Y-90523671D01*
G37*
G36*
X111071863Y-88052683D02*
G01*
X111097109Y-87855404D01*
X111138785Y-87670883D01*
X111196566Y-87499517D01*
X111270126Y-87341706D01*
X111359137Y-87197848D01*
X111463273Y-87068342D01*
X111582207Y-86953586D01*
X111715613Y-86853978D01*
X111863165Y-86769917D01*
X112024535Y-86701801D01*
X112199398Y-86650030D01*
X112387426Y-86615001D01*
X112416369Y-86611261D01*
X112486265Y-86605295D01*
X112570853Y-86602142D01*
X112664933Y-86601638D01*
X112763305Y-86603620D01*
X112860769Y-86607926D01*
X112952125Y-86614392D01*
X113032171Y-86622857D01*
X113092154Y-86632429D01*
X113272695Y-86678306D01*
X113439562Y-86740512D01*
X113592579Y-86818915D01*
X113731570Y-86913384D01*
X113856356Y-87023789D01*
X113966762Y-87149999D01*
X114062610Y-87291882D01*
X114115242Y-87388861D01*
X114173825Y-87522538D01*
X114219815Y-87663506D01*
X114253712Y-87814290D01*
X114276020Y-87977411D01*
X114287238Y-88155393D01*
X114288864Y-88262321D01*
X114283185Y-88455223D01*
X114265749Y-88632056D01*
X114235964Y-88795049D01*
X114193233Y-88946433D01*
X114136961Y-89088437D01*
X114066554Y-89223293D01*
X114007858Y-89315629D01*
X113904824Y-89447867D01*
X113787391Y-89564295D01*
X113655756Y-89664801D01*
X113510116Y-89749272D01*
X113350669Y-89817595D01*
X113177613Y-89869656D01*
X112991145Y-89905344D01*
X112972516Y-89907908D01*
X112928480Y-89912283D01*
X112870068Y-89915956D01*
X112801935Y-89918850D01*
X112728737Y-89920885D01*
X112655133Y-89921982D01*
X112585777Y-89922063D01*
X112525327Y-89921048D01*
X112478439Y-89918858D01*
X112456624Y-89916650D01*
X112432933Y-89913223D01*
X112395744Y-89907896D01*
X112352781Y-89901776D01*
X112349451Y-89901303D01*
X112219261Y-89876645D01*
X112086423Y-89840137D01*
X111957395Y-89794001D01*
X111838634Y-89740460D01*
X111767031Y-89700951D01*
X111631312Y-89608719D01*
X111512138Y-89505201D01*
X111407503Y-89388222D01*
X111315401Y-89255608D01*
X111253065Y-89144037D01*
X111184732Y-88991370D01*
X111132077Y-88831252D01*
X111094626Y-88661493D01*
X111071909Y-88479901D01*
X111063455Y-88284284D01*
X111063402Y-88269845D01*
X112098056Y-88269845D01*
X112099482Y-88364086D01*
X112103334Y-88452428D01*
X112109609Y-88529524D01*
X112117135Y-88583840D01*
X112147809Y-88717784D01*
X112188071Y-88832876D01*
X112238368Y-88929652D01*
X112299146Y-89008647D01*
X112370853Y-89070397D01*
X112453935Y-89115436D01*
X112548838Y-89144302D01*
X112590591Y-89151492D01*
X112677377Y-89156614D01*
X112769628Y-89150337D01*
X112853164Y-89134031D01*
X112944518Y-89098989D01*
X113023782Y-89047225D01*
X113091379Y-88978259D01*
X113147735Y-88891616D01*
X113193274Y-88786818D01*
X113210903Y-88731702D01*
X113233619Y-88638411D01*
X113249645Y-88537250D01*
X113259430Y-88424226D01*
X113263422Y-88295349D01*
X113263568Y-88262321D01*
X113258403Y-88094024D01*
X113242774Y-87944179D01*
X113216477Y-87812419D01*
X113179307Y-87698376D01*
X113131062Y-87601682D01*
X113071537Y-87521972D01*
X113000530Y-87458878D01*
X112917835Y-87412031D01*
X112823250Y-87381066D01*
X112769238Y-87371110D01*
X112702724Y-87364548D01*
X112641159Y-87365767D01*
X112593658Y-87371178D01*
X112491904Y-87394514D01*
X112402343Y-87434250D01*
X112324642Y-87490784D01*
X112258471Y-87564509D01*
X112203498Y-87655823D01*
X112159391Y-87765121D01*
X112125820Y-87892799D01*
X112116688Y-87940802D01*
X112108372Y-88005182D01*
X112102497Y-88085047D01*
X112099060Y-88175050D01*
X112098056Y-88269845D01*
X111063402Y-88269845D01*
X111063375Y-88262321D01*
X111071863Y-88052683D01*
G37*
G36*
X111717867Y-90526021D02*
G01*
X111847211Y-90529030D01*
X111967044Y-90748893D01*
X112086877Y-90968755D01*
X112083262Y-90746213D01*
X112079646Y-90523671D01*
X112285147Y-90523671D01*
X112285147Y-91263165D01*
X112031789Y-91263165D01*
X111937569Y-91091211D01*
X111905376Y-91032196D01*
X111874957Y-90975954D01*
X111848564Y-90926685D01*
X111828449Y-90888589D01*
X111818315Y-90868827D01*
X111793280Y-90818397D01*
X111792152Y-91263165D01*
X111588523Y-91263165D01*
X111588523Y-90523011D01*
X111717867Y-90526021D01*
G37*
G36*
X97629667Y-88709540D02*
G01*
X97641931Y-88677255D01*
X97659771Y-88636053D01*
X97684297Y-88583171D01*
X97716616Y-88515847D01*
X97744300Y-88458997D01*
X97788970Y-88367123D01*
X97825051Y-88291006D01*
X97853544Y-88227232D01*
X97875449Y-88172389D01*
X97891764Y-88123062D01*
X97903491Y-88075839D01*
X97911627Y-88027305D01*
X97917174Y-87974047D01*
X97921130Y-87912652D01*
X97924297Y-87844346D01*
X97924803Y-87832638D01*
X98064130Y-87832638D01*
X98064131Y-87838988D01*
X98064653Y-87935443D01*
X98102586Y-87828270D01*
X98118355Y-87781712D01*
X98130878Y-87740912D01*
X98138604Y-87711165D01*
X98140324Y-87699663D01*
X98137497Y-87675090D01*
X98130653Y-87645762D01*
X98121689Y-87617269D01*
X98112504Y-87595200D01*
X98104995Y-87585147D01*
X98102113Y-87587131D01*
X98087528Y-87636254D01*
X98075538Y-87698834D01*
X98067340Y-87766939D01*
X98064130Y-87832638D01*
X97924803Y-87832638D01*
X97927634Y-87767127D01*
X97931271Y-87703615D01*
X97936580Y-87650675D01*
X97944931Y-87605170D01*
X97957694Y-87563965D01*
X97976240Y-87523923D01*
X98001940Y-87481910D01*
X98036163Y-87434789D01*
X98080281Y-87379424D01*
X98135664Y-87312679D01*
X98179570Y-87260253D01*
X98229168Y-87199778D01*
X98279628Y-87136084D01*
X98327171Y-87074093D01*
X98368019Y-87018728D01*
X98397040Y-86976965D01*
X98483792Y-86834190D01*
X98565697Y-86677098D01*
X98639510Y-86512746D01*
X98701990Y-86348192D01*
X98737270Y-86236580D01*
X98752630Y-86180095D01*
X98768146Y-86117845D01*
X98782827Y-86054417D01*
X98795680Y-85994399D01*
X98805713Y-85942380D01*
X98811934Y-85902946D01*
X98813502Y-85884076D01*
X98819415Y-85866158D01*
X98828275Y-85861646D01*
X98839828Y-85872145D01*
X98852186Y-85902831D01*
X98865048Y-85952482D01*
X98878112Y-86019879D01*
X98891076Y-86103801D01*
X98894680Y-86130348D01*
X98900471Y-86189429D01*
X98904503Y-86261976D01*
X98906749Y-86342241D01*
X98907182Y-86424474D01*
X98905776Y-86502928D01*
X98902503Y-86571852D01*
X98897338Y-86625499D01*
X98896993Y-86627933D01*
X98896745Y-86632960D01*
X98898799Y-86637163D01*
X98904966Y-86640644D01*
X98917058Y-86643506D01*
X98936888Y-86645851D01*
X98966267Y-86647781D01*
X99007006Y-86649400D01*
X99060919Y-86650810D01*
X99129816Y-86652114D01*
X99215511Y-86653414D01*
X99319813Y-86654812D01*
X99386877Y-86655675D01*
X99511173Y-86657361D01*
X99616475Y-86659111D01*
X99705227Y-86661135D01*
X99779868Y-86663640D01*
X99842841Y-86666834D01*
X99896586Y-86670925D01*
X99943546Y-86676122D01*
X99986161Y-86682632D01*
X100026874Y-86690663D01*
X100068124Y-86700423D01*
X100112355Y-86712121D01*
X100140332Y-86719874D01*
X100265863Y-86761364D01*
X100399368Y-86816974D01*
X100535583Y-86883967D01*
X100669243Y-86959607D01*
X100795085Y-87041157D01*
X100883004Y-87105989D01*
X100925344Y-87140427D01*
X100967796Y-87177044D01*
X101007151Y-87212819D01*
X101040195Y-87244731D01*
X101063717Y-87269757D01*
X101074505Y-87284875D01*
X101074852Y-87286481D01*
X101072681Y-87294372D01*
X101063880Y-87296489D01*
X101045013Y-87292116D01*
X101012647Y-87280538D01*
X100974742Y-87265612D01*
X100924087Y-87245922D01*
X100889909Y-87235186D01*
X100871505Y-87234877D01*
X100868170Y-87246468D01*
X100879202Y-87271433D01*
X100903897Y-87311244D01*
X100932515Y-87354030D01*
X101032298Y-87517990D01*
X101119978Y-87695498D01*
X101193256Y-87881041D01*
X101249834Y-88069105D01*
X101272561Y-88169414D01*
X101286625Y-88246399D01*
X101298556Y-88324368D01*
X101308148Y-88400471D01*
X101315198Y-88471856D01*
X101319500Y-88535670D01*
X101320850Y-88589061D01*
X101319043Y-88629177D01*
X101313874Y-88653167D01*
X101307696Y-88658861D01*
X101297220Y-88649827D01*
X101280785Y-88625668D01*
X101261240Y-88590799D01*
X101252351Y-88573123D01*
X101226896Y-88524744D01*
X101207379Y-88496775D01*
X101193561Y-88489102D01*
X101185202Y-88501610D01*
X101182063Y-88534185D01*
X101182025Y-88539567D01*
X101174900Y-88636002D01*
X101154502Y-88744055D01*
X101122296Y-88859782D01*
X101079747Y-88979238D01*
X101028321Y-89098479D01*
X100969483Y-89213559D01*
X100904698Y-89320533D01*
X100876965Y-89360844D01*
X100835306Y-89416604D01*
X100791559Y-89470896D01*
X100747703Y-89521727D01*
X100705716Y-89567106D01*
X100667575Y-89605041D01*
X100635259Y-89633539D01*
X100610746Y-89650610D01*
X100596015Y-89654260D01*
X100592574Y-89647223D01*
X100596480Y-89633947D01*
X100606802Y-89606523D01*
X100621442Y-89570477D01*
X100624016Y-89564348D01*
X100638461Y-89528118D01*
X100648016Y-89500198D01*
X100650947Y-89485764D01*
X100650634Y-89484995D01*
X100639979Y-89487637D01*
X100620109Y-89500409D01*
X100616512Y-89503169D01*
X100545747Y-89555497D01*
X100465966Y-89609203D01*
X100384885Y-89659351D01*
X100310220Y-89701004D01*
X100295728Y-89708385D01*
X100242664Y-89733341D01*
X100185875Y-89757504D01*
X100129026Y-89779605D01*
X100075786Y-89798376D01*
X100029823Y-89812547D01*
X99994804Y-89820849D01*
X99974397Y-89822016D01*
X99971437Y-89820559D01*
X99964668Y-89809723D01*
X99948340Y-89781865D01*
X99923401Y-89738647D01*
X99890799Y-89681730D01*
X99851482Y-89612776D01*
X99806396Y-89533447D01*
X99756490Y-89445403D01*
X99702710Y-89350307D01*
X99649973Y-89256859D01*
X99337573Y-88702747D01*
X99354187Y-88670619D01*
X99368215Y-88635595D01*
X99366509Y-88608383D01*
X99347883Y-88581052D01*
X99339474Y-88572298D01*
X99304090Y-88546898D01*
X99269281Y-88542796D01*
X99233925Y-88560005D01*
X99218681Y-88573552D01*
X99197751Y-88597952D01*
X99190760Y-88619076D01*
X99192877Y-88640020D01*
X99204153Y-88671747D01*
X99219532Y-88695856D01*
X99223678Y-88701051D01*
X99226652Y-88707553D01*
X99228103Y-88717032D01*
X99227681Y-88731157D01*
X99225035Y-88751598D01*
X99219816Y-88780024D01*
X99211671Y-88818103D01*
X99200252Y-88867507D01*
X99185208Y-88929903D01*
X99166188Y-89006961D01*
X99142842Y-89100350D01*
X99114820Y-89211740D01*
X99093439Y-89296540D01*
X98947468Y-89875275D01*
X98483945Y-89878068D01*
X98386601Y-89878481D01*
X98296202Y-89878532D01*
X98214930Y-89878242D01*
X98144965Y-89877636D01*
X98088490Y-89876736D01*
X98047685Y-89875566D01*
X98024734Y-89874149D01*
X98020422Y-89873121D01*
X98027730Y-89864069D01*
X98048577Y-89841526D01*
X98081347Y-89807159D01*
X98124424Y-89762636D01*
X98176193Y-89709624D01*
X98235038Y-89649789D01*
X98299344Y-89584800D01*
X98319123Y-89564885D01*
X98398907Y-89484444D01*
X98464736Y-89417413D01*
X98517873Y-89362106D01*
X98559580Y-89316839D01*
X98591123Y-89279927D01*
X98613764Y-89249686D01*
X98628766Y-89224431D01*
X98637394Y-89202478D01*
X98640909Y-89182141D01*
X98640577Y-89161735D01*
X98637734Y-89140040D01*
X98635462Y-89113811D01*
X98637939Y-89099292D01*
X98639667Y-89098270D01*
X98651122Y-89105372D01*
X98672398Y-89123877D01*
X98695612Y-89146498D01*
X98723262Y-89171858D01*
X98747589Y-89189327D01*
X98761305Y-89194726D01*
X98774825Y-89187101D01*
X98799716Y-89166106D01*
X98833298Y-89134556D01*
X98872892Y-89095269D01*
X98915819Y-89051063D01*
X98959398Y-89004753D01*
X99000952Y-88959156D01*
X99037801Y-88917091D01*
X99067265Y-88881374D01*
X99086665Y-88854821D01*
X99090202Y-88848919D01*
X99101120Y-88827318D01*
X99107890Y-88807134D01*
X99111105Y-88783029D01*
X99111359Y-88749662D01*
X99109246Y-88701693D01*
X99108353Y-88685654D01*
X99105728Y-88632655D01*
X99105321Y-88596046D01*
X99107629Y-88570851D01*
X99113148Y-88552096D01*
X99122374Y-88534804D01*
X99123601Y-88532835D01*
X99160835Y-88491609D01*
X99210982Y-88461085D01*
X99251266Y-88448518D01*
X99303602Y-88448454D01*
X99355929Y-88465083D01*
X99402290Y-88495095D01*
X99436726Y-88535177D01*
X99447474Y-88557577D01*
X99457970Y-88581708D01*
X99466827Y-88594114D01*
X99468108Y-88594557D01*
X99477262Y-88587098D01*
X99498829Y-88566217D01*
X99530595Y-88534162D01*
X99570346Y-88493178D01*
X99615868Y-88445513D01*
X99636386Y-88423818D01*
X99691942Y-88364395D01*
X99734477Y-88317470D01*
X99766109Y-88280370D01*
X99788955Y-88250420D01*
X99805135Y-88224944D01*
X99816767Y-88201268D01*
X99820996Y-88190716D01*
X99838948Y-88114778D01*
X99839766Y-88030139D01*
X99823681Y-87940663D01*
X99802147Y-87876370D01*
X99788410Y-87838687D01*
X99780361Y-87809479D01*
X99779254Y-87793611D01*
X99780442Y-87792188D01*
X99792795Y-87797130D01*
X99815472Y-87813830D01*
X99843754Y-87838777D01*
X99846117Y-87841025D01*
X99899746Y-87891262D01*
X99944090Y-87930672D01*
X99977531Y-87957896D01*
X99998451Y-87971575D01*
X100003153Y-87972954D01*
X100011389Y-87963564D01*
X100013706Y-87938779D01*
X100010535Y-87903675D01*
X100002309Y-87863329D01*
X99990663Y-87825993D01*
X99968173Y-87779086D01*
X99934841Y-87733618D01*
X99902246Y-87698725D01*
X99834770Y-87642230D01*
X99763380Y-87605344D01*
X99683905Y-87586243D01*
X99637045Y-87582705D01*
X99597263Y-87579625D01*
X99565173Y-87573593D01*
X99548988Y-87566818D01*
X99536987Y-87558577D01*
X99525515Y-87557676D01*
X99510937Y-87566295D01*
X99489617Y-87586612D01*
X99457918Y-87620806D01*
X99456742Y-87622098D01*
X99428315Y-87654634D01*
X99413221Y-87676073D01*
X99409363Y-87690196D01*
X99413676Y-87699670D01*
X99416688Y-87708318D01*
X99412587Y-87721467D01*
X99399664Y-87741605D01*
X99376210Y-87771220D01*
X99340514Y-87812801D01*
X99319914Y-87836179D01*
X99281961Y-87879038D01*
X99233322Y-87933965D01*
X99177520Y-87996981D01*
X99118079Y-88064107D01*
X99058522Y-88131364D01*
X99023626Y-88170773D01*
X98973275Y-88228361D01*
X98928210Y-88281301D01*
X98890262Y-88327329D01*
X98861258Y-88364183D01*
X98843028Y-88389600D01*
X98837369Y-88401195D01*
X98849225Y-88415608D01*
X98864519Y-88421147D01*
X98883315Y-88428889D01*
X98888523Y-88437895D01*
X98881614Y-88448989D01*
X98862081Y-88473834D01*
X98831718Y-88510318D01*
X98792314Y-88556331D01*
X98745664Y-88609759D01*
X98693559Y-88668493D01*
X98679536Y-88684153D01*
X98626300Y-88743980D01*
X98578064Y-88799131D01*
X98536622Y-88847480D01*
X98503770Y-88886898D01*
X98481301Y-88915259D01*
X98471008Y-88930435D01*
X98470548Y-88931935D01*
X98479467Y-88946801D01*
X98491983Y-88953587D01*
X98509297Y-88963011D01*
X98513418Y-88969919D01*
X98503614Y-88978886D01*
X98477215Y-88990314D01*
X98438734Y-89002957D01*
X98392689Y-89015568D01*
X98343594Y-89026903D01*
X98295965Y-89035714D01*
X98257569Y-89040501D01*
X98177626Y-89042549D01*
X98091464Y-89036734D01*
X98002758Y-89024035D01*
X97915181Y-89005431D01*
X97832408Y-88981900D01*
X97758111Y-88954423D01*
X97695964Y-88923978D01*
X97649642Y-88891544D01*
X97632879Y-88874029D01*
X97620338Y-88853589D01*
X97614703Y-88829004D01*
X97614559Y-88792765D01*
X97615246Y-88780516D01*
X97617433Y-88758408D01*
X97621223Y-88738992D01*
X97722233Y-88738992D01*
X97726610Y-88745517D01*
X97742131Y-88736092D01*
X97747131Y-88731879D01*
X97766122Y-88708908D01*
X97772862Y-88679263D01*
X97773032Y-88664966D01*
X97772140Y-88621350D01*
X97746896Y-88674937D01*
X97728996Y-88715728D01*
X97722233Y-88738992D01*
X97621223Y-88738992D01*
X97621871Y-88735670D01*
X97629667Y-88709540D01*
G37*
G36*
X109335525Y-86602822D02*
G01*
X109401682Y-86604013D01*
X109523714Y-86607936D01*
X109628806Y-86614421D01*
X109721366Y-86624105D01*
X109805802Y-86637630D01*
X109886524Y-86655633D01*
X109967938Y-86678756D01*
X110009559Y-86692194D01*
X110142864Y-86743484D01*
X110260248Y-86803899D01*
X110366282Y-86876272D01*
X110465537Y-86963437D01*
X110494890Y-86993120D01*
X110554017Y-87060137D01*
X110614753Y-87138452D01*
X110671883Y-87220778D01*
X110720190Y-87299824D01*
X110737587Y-87332239D01*
X110754856Y-87375929D01*
X110762472Y-87417039D01*
X110759927Y-87449979D01*
X110749894Y-87466977D01*
X110735703Y-87474174D01*
X110704010Y-87487573D01*
X110657465Y-87506195D01*
X110598718Y-87529058D01*
X110530421Y-87555182D01*
X110455221Y-87583585D01*
X110375771Y-87613286D01*
X110294720Y-87643306D01*
X110214717Y-87672662D01*
X110138414Y-87700375D01*
X110068460Y-87725463D01*
X110007506Y-87746945D01*
X109958201Y-87763841D01*
X109923196Y-87775170D01*
X109905141Y-87779951D01*
X109904030Y-87780042D01*
X109880321Y-87775129D01*
X109860239Y-87758309D01*
X109841225Y-87726459D01*
X109822087Y-87680168D01*
X109791915Y-87613757D01*
X109753297Y-87550549D01*
X109710679Y-87497186D01*
X109680827Y-87469228D01*
X109601583Y-87419693D01*
X109510229Y-87385677D01*
X109409951Y-87367681D01*
X109303935Y-87366206D01*
X109195366Y-87381754D01*
X109167822Y-87388459D01*
X109069288Y-87425119D01*
X108981975Y-87479830D01*
X108906207Y-87552184D01*
X108842304Y-87641777D01*
X108790589Y-87748200D01*
X108751385Y-87871049D01*
X108738185Y-87930182D01*
X108727740Y-87998923D01*
X108719884Y-88082695D01*
X108714898Y-88175219D01*
X108713062Y-88270218D01*
X108714655Y-88361412D01*
X108716966Y-88405754D01*
X108733037Y-88559441D01*
X108759825Y-88694797D01*
X108797734Y-88812284D01*
X108847170Y-88912365D01*
X108908540Y-88995501D01*
X108982248Y-89062154D01*
X109068703Y-89112786D01*
X109168308Y-89147859D01*
X109281470Y-89167834D01*
X109391477Y-89173291D01*
X109517712Y-89166172D01*
X109628194Y-89144749D01*
X109723223Y-89108926D01*
X109803095Y-89058604D01*
X109837637Y-89027779D01*
X109887600Y-88965009D01*
X109919623Y-88893408D01*
X109935077Y-88809869D01*
X109935370Y-88806224D01*
X109940939Y-88733882D01*
X109326199Y-88733882D01*
X109299892Y-88707576D01*
X109273586Y-88681270D01*
X109273586Y-88417504D01*
X109273846Y-88329007D01*
X109274817Y-88259420D01*
X109276788Y-88206224D01*
X109280047Y-88166901D01*
X109284882Y-88138930D01*
X109291582Y-88119792D01*
X109300434Y-88106968D01*
X109310022Y-88099046D01*
X109322667Y-88097571D01*
X109354765Y-88096181D01*
X109404331Y-88094900D01*
X109469385Y-88093757D01*
X109547942Y-88092777D01*
X109638020Y-88091986D01*
X109737638Y-88091412D01*
X109844811Y-88091080D01*
X109913543Y-88091008D01*
X110041328Y-88090996D01*
X110149520Y-88091076D01*
X110239959Y-88091313D01*
X110314486Y-88091769D01*
X110374941Y-88092508D01*
X110423166Y-88093593D01*
X110461002Y-88095087D01*
X110490289Y-88097053D01*
X110512868Y-88099554D01*
X110530581Y-88102653D01*
X110545267Y-88106414D01*
X110558768Y-88110900D01*
X110565477Y-88113370D01*
X110628002Y-88146655D01*
X110685897Y-88195583D01*
X110733409Y-88254392D01*
X110762440Y-88310735D01*
X110767139Y-88323734D01*
X110771133Y-88336802D01*
X110774471Y-88351682D01*
X110777202Y-88370113D01*
X110779374Y-88393837D01*
X110781035Y-88424595D01*
X110782235Y-88464128D01*
X110783021Y-88514176D01*
X110783443Y-88576480D01*
X110783550Y-88652783D01*
X110783389Y-88744823D01*
X110783009Y-88854343D01*
X110782459Y-88983083D01*
X110782287Y-89021614D01*
X110779367Y-89671646D01*
X110753135Y-89724953D01*
X110710085Y-89791026D01*
X110652237Y-89848872D01*
X110586176Y-89891912D01*
X110532869Y-89918144D01*
X109771941Y-89919889D01*
X109616951Y-89920163D01*
X109481887Y-89920210D01*
X109365242Y-89920008D01*
X109265507Y-89919531D01*
X109181175Y-89918758D01*
X109110739Y-89917666D01*
X109052691Y-89916230D01*
X109005524Y-89914427D01*
X108967728Y-89912235D01*
X108937798Y-89909629D01*
X108914557Y-89906638D01*
X108739776Y-89869270D01*
X108575563Y-89813548D01*
X108422685Y-89740181D01*
X108281906Y-89649879D01*
X108153994Y-89543350D01*
X108039715Y-89421304D01*
X107939835Y-89284449D01*
X107855121Y-89133495D01*
X107786338Y-88969150D01*
X107741438Y-88821285D01*
X107720247Y-88729816D01*
X107704409Y-88640329D01*
X107693368Y-88547616D01*
X107686570Y-88446467D01*
X107683461Y-88331676D01*
X107683117Y-88273038D01*
X107684508Y-88153519D01*
X107689210Y-88049736D01*
X107697815Y-87956164D01*
X107710917Y-87867279D01*
X107729107Y-87777556D01*
X107742010Y-87723798D01*
X107796230Y-87549272D01*
X107867600Y-87387277D01*
X107955409Y-87238491D01*
X108058949Y-87103589D01*
X108177511Y-86983249D01*
X108310385Y-86878148D01*
X108456863Y-86788962D01*
X108616236Y-86716368D01*
X108787793Y-86661043D01*
X108877358Y-86640182D01*
X108950568Y-86626232D01*
X109018761Y-86615804D01*
X109086645Y-86608574D01*
X109158928Y-86604217D01*
X109240319Y-86602408D01*
X109335525Y-86602822D01*
G37*
%TO.C,D25*%
X124155000Y-81415000D02*
X120270000Y-81415000D01*
X120270000Y-83685000D02*
X124155000Y-83685000D01*
X120270000Y-81415000D02*
X120270000Y-83685000D01*
%TO.C,D53*%
X124155000Y-78240000D02*
X120270000Y-78240000D01*
X120270000Y-80510000D02*
X124155000Y-80510000D01*
X120270000Y-78240000D02*
X120270000Y-80510000D01*
%TO.C,D18*%
X61900000Y-73525000D02*
X65785000Y-73525000D01*
X65785000Y-71255000D02*
X61900000Y-71255000D01*
X65785000Y-73525000D02*
X65785000Y-71255000D01*
%TO.C,D60*%
X105030000Y-61095000D02*
X105030000Y-63365000D01*
X105030000Y-63365000D02*
X108915000Y-63365000D01*
X108915000Y-61095000D02*
X105030000Y-61095000D01*
%TO.C,D27*%
X113995000Y-81415000D02*
X110110000Y-81415000D01*
X110110000Y-83685000D02*
X113995000Y-83685000D01*
X110110000Y-81415000D02*
X110110000Y-83685000D01*
%TO.C,D8*%
X72060000Y-63365000D02*
X75945000Y-63365000D01*
X75945000Y-61095000D02*
X72060000Y-61095000D01*
X75945000Y-63365000D02*
X75945000Y-61095000D01*
%TO.C,D4*%
X105030000Y-68080000D02*
X105030000Y-70350000D01*
X108915000Y-68080000D02*
X105030000Y-68080000D01*
X105030000Y-70350000D02*
X108915000Y-70350000D01*
%TO.C,R13*%
X102962064Y-47985000D02*
X101507936Y-47985000D01*
X102962064Y-49805000D02*
X101507936Y-49805000D01*
%TO.C,D20*%
X75945000Y-71255000D02*
X72060000Y-71255000D01*
X75945000Y-73525000D02*
X75945000Y-71255000D01*
X72060000Y-73525000D02*
X75945000Y-73525000D01*
%TO.C,C1*%
X92048000Y-81033252D02*
X92048000Y-80510748D01*
X90578000Y-81033252D02*
X90578000Y-80510748D01*
%TO.C,D5*%
X60705000Y-63365000D02*
X60705000Y-61095000D01*
X56820000Y-63365000D02*
X60705000Y-63365000D01*
X60705000Y-61095000D02*
X56820000Y-61095000D01*
%TO.C,D59*%
X110110000Y-61095000D02*
X110110000Y-63365000D01*
X113995000Y-61095000D02*
X110110000Y-61095000D01*
X110110000Y-63365000D02*
X113995000Y-63365000D01*
%TO.C,D38*%
X115190000Y-57920000D02*
X115190000Y-60190000D01*
X119075000Y-57920000D02*
X115190000Y-57920000D01*
X115190000Y-60190000D02*
X119075000Y-60190000D01*
%TO.C,D39*%
X110110000Y-60190000D02*
X113995000Y-60190000D01*
X110110000Y-57920000D02*
X110110000Y-60190000D01*
X113995000Y-57920000D02*
X110110000Y-57920000D01*
%TO.C,R2*%
X78012936Y-61320000D02*
X79467064Y-61320000D01*
X78012936Y-63140000D02*
X79467064Y-63140000D01*
%TO.C,R1*%
X102962064Y-68305000D02*
X101507936Y-68305000D01*
X102962064Y-70125000D02*
X101507936Y-70125000D01*
%TO.C,D10*%
X65785000Y-47760000D02*
X61900000Y-47760000D01*
X61900000Y-50030000D02*
X65785000Y-50030000D01*
X65785000Y-50030000D02*
X65785000Y-47760000D01*
%TO.C,R6*%
X78012936Y-81640000D02*
X79467064Y-81640000D01*
X78012936Y-83460000D02*
X79467064Y-83460000D01*
%TO.C,D40*%
X108915000Y-57920000D02*
X105030000Y-57920000D01*
X105030000Y-57920000D02*
X105030000Y-60190000D01*
X105030000Y-60190000D02*
X108915000Y-60190000D01*
%TO.C,D62*%
X61900000Y-80510000D02*
X65785000Y-80510000D01*
X65785000Y-80510000D02*
X65785000Y-78240000D01*
X65785000Y-78240000D02*
X61900000Y-78240000D01*
%TO.C,D51*%
X110110000Y-50030000D02*
X113995000Y-50030000D01*
X110110000Y-47760000D02*
X110110000Y-50030000D01*
X113995000Y-47760000D02*
X110110000Y-47760000D01*
%TO.C,D54*%
X115190000Y-80510000D02*
X119075000Y-80510000D01*
X115190000Y-78240000D02*
X115190000Y-80510000D01*
X119075000Y-78240000D02*
X115190000Y-78240000D01*
%TO.C,J1*%
X95720000Y-89625000D02*
X95720000Y-86675000D01*
X94670000Y-91875000D02*
X96470000Y-91875000D01*
X96470000Y-89625000D02*
X95720000Y-89625000D01*
X83870000Y-91875000D02*
X85670000Y-91875000D01*
X93170000Y-91125000D02*
X87170000Y-91125000D01*
X83870000Y-91125000D02*
X83870000Y-91875000D01*
X96470000Y-91125000D02*
X94670000Y-91125000D01*
X83860000Y-85915000D02*
X83860000Y-91885000D01*
X87170000Y-91875000D02*
X93170000Y-91875000D01*
X96470000Y-91875000D02*
X96470000Y-91125000D01*
X84620000Y-89625000D02*
X84620000Y-86675000D01*
X94670000Y-91125000D02*
X94670000Y-91875000D01*
X84620000Y-86675000D02*
X90170000Y-86675000D01*
X95720000Y-86675000D02*
X90170000Y-86675000D01*
X83860000Y-91885000D02*
X96480000Y-91885000D01*
X85670000Y-91125000D02*
X83870000Y-91125000D01*
X96770000Y-92175000D02*
X96770000Y-90925000D01*
X96480000Y-91885000D02*
X96480000Y-85915000D01*
X87170000Y-91125000D02*
X87170000Y-91875000D01*
X83870000Y-89625000D02*
X84620000Y-89625000D01*
X96480000Y-85915000D02*
X83860000Y-85915000D01*
X85670000Y-91875000D02*
X85670000Y-91125000D01*
X95520000Y-92175000D02*
X96770000Y-92175000D01*
X93170000Y-91875000D02*
X93170000Y-91125000D01*
%TO.C,D13*%
X60705000Y-70350000D02*
X60705000Y-68080000D01*
X60705000Y-68080000D02*
X56820000Y-68080000D01*
X56820000Y-70350000D02*
X60705000Y-70350000D01*
%TO.C,D48*%
X108915000Y-50935000D02*
X105030000Y-50935000D01*
X105030000Y-50935000D02*
X105030000Y-53205000D01*
X105030000Y-53205000D02*
X108915000Y-53205000D01*
%TO.C,R9*%
X78012936Y-51160000D02*
X79467064Y-51160000D01*
X78012936Y-52980000D02*
X79467064Y-52980000D01*
%TO.C,D31*%
X66980000Y-60190000D02*
X70865000Y-60190000D01*
X70865000Y-57920000D02*
X66980000Y-57920000D01*
X70865000Y-60190000D02*
X70865000Y-57920000D01*
%TO.C,R12*%
X102962064Y-51160000D02*
X101507936Y-51160000D01*
X102962064Y-52980000D02*
X101507936Y-52980000D01*
%TD*%
%LPC*%
D12*
%TO.C,D1*%
X121155000Y-69215000D03*
X123955000Y-69215000D03*
%TD*%
D13*
%TO.C,R10*%
X103697500Y-59055000D03*
X100772500Y-59055000D03*
%TD*%
D14*
%TO.C,D23*%
X69980000Y-82550000D03*
X67180000Y-82550000D03*
%TD*%
D15*
%TO.C,R4*%
X77277500Y-69215000D03*
X80202500Y-69215000D03*
%TD*%
D14*
%TO.C,D16*%
X75060000Y-69215000D03*
X72260000Y-69215000D03*
%TD*%
D13*
%TO.C,R14*%
X103697500Y-79375000D03*
X100772500Y-79375000D03*
%TD*%
D14*
%TO.C,D11*%
X69980000Y-48895000D03*
X67180000Y-48895000D03*
%TD*%
D12*
%TO.C,D47*%
X110995000Y-52070000D03*
X113795000Y-52070000D03*
%TD*%
%TO.C,D57*%
X121155000Y-62230000D03*
X123955000Y-62230000D03*
%TD*%
%TO.C,D44*%
X105915000Y-72390000D03*
X108715000Y-72390000D03*
%TD*%
D16*
%TO.C,U2*%
X86807000Y-81655500D03*
X87757000Y-81655500D03*
X88707000Y-81655500D03*
X88707000Y-79380500D03*
X86807000Y-79380500D03*
%TD*%
D12*
%TO.C,D52*%
X105915000Y-48895000D03*
X108715000Y-48895000D03*
%TD*%
D13*
%TO.C,R15*%
X103697500Y-62230000D03*
X100772500Y-62230000D03*
%TD*%
D12*
%TO.C,D49*%
X121155000Y-48895000D03*
X123955000Y-48895000D03*
%TD*%
D14*
%TO.C,D15*%
X69980000Y-69215000D03*
X67180000Y-69215000D03*
%TD*%
%TO.C,D17*%
X59820000Y-72390000D03*
X57020000Y-72390000D03*
%TD*%
D17*
%TO.C,Q1*%
X91700000Y-74245000D03*
D18*
X93980000Y-67945000D03*
D17*
X96260000Y-74245000D03*
%TD*%
D14*
%TO.C,D34*%
X64900000Y-52070000D03*
X62100000Y-52070000D03*
%TD*%
D19*
%TO.C,R18*%
X86741000Y-77726000D03*
X86741000Y-76706000D03*
%TD*%
D13*
%TO.C,R11*%
X103697500Y-72390000D03*
X100772500Y-72390000D03*
%TD*%
D15*
%TO.C,R5*%
X77277500Y-72390000D03*
X80202500Y-72390000D03*
%TD*%
D14*
%TO.C,D19*%
X69980000Y-72390000D03*
X67180000Y-72390000D03*
%TD*%
D12*
%TO.C,D26*%
X116075000Y-82550000D03*
X118875000Y-82550000D03*
%TD*%
D14*
%TO.C,D6*%
X64900000Y-62230000D03*
X62100000Y-62230000D03*
%TD*%
D20*
%TO.C,C2*%
X84836000Y-81849000D03*
X84836000Y-79949000D03*
%TD*%
D12*
%TO.C,D41*%
X121155000Y-72390000D03*
X123955000Y-72390000D03*
%TD*%
D14*
%TO.C,D22*%
X64900000Y-82550000D03*
X62100000Y-82550000D03*
%TD*%
D12*
%TO.C,D45*%
X121155000Y-52070000D03*
X123955000Y-52070000D03*
%TD*%
D14*
%TO.C,D63*%
X69980000Y-79375000D03*
X67180000Y-79375000D03*
%TD*%
D12*
%TO.C,D3*%
X110995000Y-69215000D03*
X113795000Y-69215000D03*
%TD*%
D15*
%TO.C,R3*%
X77277500Y-48895000D03*
X80202500Y-48895000D03*
%TD*%
D14*
%TO.C,D21*%
X59820000Y-82550000D03*
X57020000Y-82550000D03*
%TD*%
%TO.C,D64*%
X75060000Y-79375000D03*
X72260000Y-79375000D03*
%TD*%
%TO.C,D32*%
X75060000Y-59055000D03*
X72260000Y-59055000D03*
%TD*%
D12*
%TO.C,D56*%
X105915000Y-79375000D03*
X108715000Y-79375000D03*
%TD*%
%TO.C,D50*%
X116075000Y-48895000D03*
X118875000Y-48895000D03*
%TD*%
D14*
%TO.C,D61*%
X59820000Y-79375000D03*
X57020000Y-79375000D03*
%TD*%
D15*
%TO.C,R16*%
X77277500Y-79375000D03*
X80202500Y-79375000D03*
%TD*%
D12*
%TO.C,D28*%
X105915000Y-82550000D03*
X108715000Y-82550000D03*
%TD*%
D14*
%TO.C,D35*%
X69980000Y-52070000D03*
X67180000Y-52070000D03*
%TD*%
D12*
%TO.C,D2*%
X116075000Y-69215000D03*
X118875000Y-69215000D03*
%TD*%
D19*
%TO.C,R17*%
X93091000Y-77599000D03*
X93091000Y-76579000D03*
%TD*%
D14*
%TO.C,D9*%
X59820000Y-48895000D03*
X57020000Y-48895000D03*
%TD*%
D17*
%TO.C,Q2*%
X84080000Y-74245000D03*
D18*
X86360000Y-67945000D03*
D17*
X88640000Y-74245000D03*
%TD*%
D14*
%TO.C,D33*%
X59820000Y-52070000D03*
X57020000Y-52070000D03*
%TD*%
%TO.C,D14*%
X64900000Y-69215000D03*
X62100000Y-69215000D03*
%TD*%
D15*
%TO.C,R8*%
X77277500Y-59055000D03*
X80202500Y-59055000D03*
%TD*%
D12*
%TO.C,D46*%
X116075000Y-52070000D03*
X118875000Y-52070000D03*
%TD*%
D13*
%TO.C,R7*%
X103697500Y-82550000D03*
X100772500Y-82550000D03*
%TD*%
D14*
%TO.C,D7*%
X69980000Y-62230000D03*
X67180000Y-62230000D03*
%TD*%
D21*
%TO.C,H3*%
X55880000Y-43180000D03*
%TD*%
D14*
%TO.C,D29*%
X59820000Y-59055000D03*
X57020000Y-59055000D03*
%TD*%
%TO.C,D36*%
X75060000Y-52070000D03*
X72260000Y-52070000D03*
%TD*%
D12*
%TO.C,D42*%
X116075000Y-72390000D03*
X118875000Y-72390000D03*
%TD*%
%TO.C,D43*%
X110995000Y-72390000D03*
X113795000Y-72390000D03*
%TD*%
D14*
%TO.C,D24*%
X75060000Y-82550000D03*
X72260000Y-82550000D03*
%TD*%
D21*
%TO.C,H2*%
X55880000Y-88900000D03*
%TD*%
D12*
%TO.C,D55*%
X110995000Y-79375000D03*
X113795000Y-79375000D03*
%TD*%
D16*
%TO.C,U1*%
X93157000Y-81528500D03*
X94107000Y-81528500D03*
X95057000Y-81528500D03*
X95057000Y-79253500D03*
X93157000Y-79253500D03*
%TD*%
D12*
%TO.C,D37*%
X121155000Y-59055000D03*
X123955000Y-59055000D03*
%TD*%
%TO.C,D58*%
X116075000Y-62230000D03*
X118875000Y-62230000D03*
%TD*%
D14*
%TO.C,D12*%
X75060000Y-48895000D03*
X72260000Y-48895000D03*
%TD*%
%TO.C,D30*%
X64900000Y-59055000D03*
X62100000Y-59055000D03*
%TD*%
D21*
%TO.C,H1*%
X124460000Y-43180000D03*
%TD*%
D12*
%TO.C,D25*%
X121155000Y-82550000D03*
X123955000Y-82550000D03*
%TD*%
%TO.C,D53*%
X121155000Y-79375000D03*
X123955000Y-79375000D03*
%TD*%
D14*
%TO.C,D18*%
X64900000Y-72390000D03*
X62100000Y-72390000D03*
%TD*%
D12*
%TO.C,D60*%
X105915000Y-62230000D03*
X108715000Y-62230000D03*
%TD*%
%TO.C,D27*%
X110995000Y-82550000D03*
X113795000Y-82550000D03*
%TD*%
D14*
%TO.C,D8*%
X75060000Y-62230000D03*
X72260000Y-62230000D03*
%TD*%
D12*
%TO.C,D4*%
X105915000Y-69215000D03*
X108715000Y-69215000D03*
%TD*%
D13*
%TO.C,R13*%
X103697500Y-48895000D03*
X100772500Y-48895000D03*
%TD*%
D14*
%TO.C,D20*%
X75060000Y-72390000D03*
X72260000Y-72390000D03*
%TD*%
D20*
%TO.C,C1*%
X91313000Y-81722000D03*
X91313000Y-79822000D03*
%TD*%
D14*
%TO.C,D5*%
X59820000Y-62230000D03*
X57020000Y-62230000D03*
%TD*%
D12*
%TO.C,D59*%
X110995000Y-62230000D03*
X113795000Y-62230000D03*
%TD*%
%TO.C,D38*%
X116075000Y-59055000D03*
X118875000Y-59055000D03*
%TD*%
%TO.C,D39*%
X110995000Y-59055000D03*
X113795000Y-59055000D03*
%TD*%
D15*
%TO.C,R2*%
X77277500Y-62230000D03*
X80202500Y-62230000D03*
%TD*%
D13*
%TO.C,R1*%
X103697500Y-69215000D03*
X100772500Y-69215000D03*
%TD*%
D14*
%TO.C,D10*%
X64900000Y-48895000D03*
X62100000Y-48895000D03*
%TD*%
D21*
%TO.C,H4*%
X124460000Y-88900000D03*
%TD*%
D15*
%TO.C,R6*%
X77277500Y-82550000D03*
X80202500Y-82550000D03*
%TD*%
D12*
%TO.C,D40*%
X105915000Y-59055000D03*
X108715000Y-59055000D03*
%TD*%
D14*
%TO.C,D62*%
X64900000Y-79375000D03*
X62100000Y-79375000D03*
%TD*%
D12*
%TO.C,D51*%
X110995000Y-48895000D03*
X113795000Y-48895000D03*
%TD*%
%TO.C,D54*%
X116075000Y-79375000D03*
X118875000Y-79375000D03*
%TD*%
D22*
%TO.C,J1*%
X93920000Y-89425000D03*
D23*
X91420000Y-89425000D03*
X88920000Y-89425000D03*
X86420000Y-89425000D03*
%TD*%
D14*
%TO.C,D13*%
X59820000Y-69215000D03*
X57020000Y-69215000D03*
%TD*%
D12*
%TO.C,D48*%
X105915000Y-52070000D03*
X108715000Y-52070000D03*
%TD*%
D15*
%TO.C,R9*%
X77277500Y-52070000D03*
X80202500Y-52070000D03*
%TD*%
D14*
%TO.C,D31*%
X69980000Y-59055000D03*
X67180000Y-59055000D03*
%TD*%
D13*
%TO.C,R12*%
X103697500Y-52070000D03*
X100772500Y-52070000D03*
%TD*%
M02*
