%TF.GenerationSoftware,KiCad,Pcbnew,6.0.2+dfsg-1*%
%TF.CreationDate,2023-01-01T10:44:38-05:00*%
%TF.ProjectId,LM317,4c4d3331-372e-46b6-9963-61645f706362,rev?*%
%TF.SameCoordinates,Original*%
%TF.FileFunction,Copper,L1,Top*%
%TF.FilePolarity,Positive*%
%FSLAX46Y46*%
G04 Gerber Fmt 4.6, Leading zero omitted, Abs format (unit mm)*
G04 Created by KiCad (PCBNEW 6.0.2+dfsg-1) date 2023-01-01 10:44:38*
%MOMM*%
%LPD*%
G01*
G04 APERTURE LIST*
G04 Aperture macros list*
%AMRoundRect*
0 Rectangle with rounded corners*
0 $1 Rounding radius*
0 $2 $3 $4 $5 $6 $7 $8 $9 X,Y pos of 4 corners*
0 Add a 4 corners polygon primitive as box body*
4,1,4,$2,$3,$4,$5,$6,$7,$8,$9,$2,$3,0*
0 Add four circle primitives for the rounded corners*
1,1,$1+$1,$2,$3*
1,1,$1+$1,$4,$5*
1,1,$1+$1,$6,$7*
1,1,$1+$1,$8,$9*
0 Add four rect primitives between the rounded corners*
20,1,$1+$1,$2,$3,$4,$5,0*
20,1,$1+$1,$4,$5,$6,$7,0*
20,1,$1+$1,$6,$7,$8,$9,0*
20,1,$1+$1,$8,$9,$2,$3,0*%
G04 Aperture macros list end*
%TA.AperFunction,SMDPad,CuDef*%
%ADD10R,2.200000X1.200000*%
%TD*%
%TA.AperFunction,SMDPad,CuDef*%
%ADD11R,6.400000X5.800000*%
%TD*%
%TA.AperFunction,SMDPad,CuDef*%
%ADD12RoundRect,0.135000X0.185000X-0.135000X0.185000X0.135000X-0.185000X0.135000X-0.185000X-0.135000X0*%
%TD*%
%TA.AperFunction,SMDPad,CuDef*%
%ADD13RoundRect,0.135000X0.135000X0.185000X-0.135000X0.185000X-0.135000X-0.185000X0.135000X-0.185000X0*%
%TD*%
%TA.AperFunction,ComponentPad*%
%ADD14R,1.700000X1.700000*%
%TD*%
%TA.AperFunction,ComponentPad*%
%ADD15O,1.700000X1.700000*%
%TD*%
%TA.AperFunction,SMDPad,CuDef*%
%ADD16RoundRect,0.140000X-0.170000X0.140000X-0.170000X-0.140000X0.170000X-0.140000X0.170000X0.140000X0*%
%TD*%
%TA.AperFunction,SMDPad,CuDef*%
%ADD17RoundRect,0.140000X-0.140000X-0.170000X0.140000X-0.170000X0.140000X0.170000X-0.140000X0.170000X0*%
%TD*%
%TA.AperFunction,ViaPad*%
%ADD18C,0.800000*%
%TD*%
%TA.AperFunction,Conductor*%
%ADD19C,0.508000*%
%TD*%
G04 APERTURE END LIST*
D10*
%TO.P,U2,1,ADJ*%
%TO.N,Net-(R3-Pad2)*%
X89780000Y-66300000D03*
D11*
%TO.P,U2,2,VO*%
%TO.N,+3V3*%
X96080000Y-68580000D03*
D10*
%TO.P,U2,3,VI*%
%TO.N,+12V*%
X89780000Y-70860000D03*
%TD*%
D12*
%TO.P,R4,1*%
%TO.N,Net-(R3-Pad2)*%
X90805000Y-64135000D03*
%TO.P,R4,2*%
%TO.N,GND*%
X90805000Y-63115000D03*
%TD*%
D13*
%TO.P,R3,1*%
%TO.N,+3V3*%
X93220000Y-64135000D03*
%TO.P,R3,2*%
%TO.N,Net-(R3-Pad2)*%
X92200000Y-64135000D03*
%TD*%
D14*
%TO.P,J3,1,Pin_1*%
%TO.N,+3V3*%
X104140000Y-66040000D03*
D15*
%TO.P,J3,2,Pin_2*%
%TO.N,GND*%
X104140000Y-68580000D03*
%TD*%
D16*
%TO.P,C4,1*%
%TO.N,+3V3*%
X101600000Y-66830000D03*
%TO.P,C4,2*%
%TO.N,GND*%
X101600000Y-67790000D03*
%TD*%
D17*
%TO.P,C3,1*%
%TO.N,+12V*%
X90960000Y-73025000D03*
%TO.P,C3,2*%
%TO.N,GND*%
X91920000Y-73025000D03*
%TD*%
D10*
%TO.P,U1,1,ADJ*%
%TO.N,Net-(R1-Pad2)*%
X89780000Y-53600000D03*
D11*
%TO.P,U1,2,VO*%
%TO.N,+5V*%
X96080000Y-55880000D03*
D10*
%TO.P,U1,3,VI*%
%TO.N,+12V*%
X89780000Y-58160000D03*
%TD*%
D12*
%TO.P,R2,1*%
%TO.N,Net-(R1-Pad2)*%
X90805000Y-51435000D03*
%TO.P,R2,2*%
%TO.N,GND*%
X90805000Y-50415000D03*
%TD*%
D13*
%TO.P,R1,1*%
%TO.N,+5V*%
X93220000Y-51435000D03*
%TO.P,R1,2*%
%TO.N,Net-(R1-Pad2)*%
X92200000Y-51435000D03*
%TD*%
D14*
%TO.P,J2,1,Pin_1*%
%TO.N,+5V*%
X104140000Y-55880000D03*
D15*
%TO.P,J2,2,Pin_2*%
%TO.N,GND*%
X104140000Y-58420000D03*
%TD*%
D14*
%TO.P,J1,1,Pin_1*%
%TO.N,+12V*%
X85090000Y-60955000D03*
D15*
%TO.P,J1,2,Pin_2*%
%TO.N,GND*%
X85090000Y-63495000D03*
%TD*%
D16*
%TO.P,C2,1*%
%TO.N,+5V*%
X101600000Y-56670000D03*
%TO.P,C2,2*%
%TO.N,GND*%
X101600000Y-57630000D03*
%TD*%
D17*
%TO.P,C1,1*%
%TO.N,+12V*%
X90960000Y-60325000D03*
%TO.P,C1,2*%
%TO.N,GND*%
X91920000Y-60325000D03*
%TD*%
D18*
%TO.N,GND*%
X92075000Y-62865000D03*
X92075000Y-50165000D03*
%TD*%
D19*
%TO.N,GND*%
X92075000Y-62865000D02*
X91055000Y-62865000D01*
X91055000Y-62865000D02*
X90805000Y-63115000D01*
X92075000Y-50165000D02*
X91055000Y-50165000D01*
X91055000Y-50165000D02*
X90805000Y-50415000D01*
%TO.N,Net-(R1-Pad2)*%
X90805000Y-51435000D02*
X89780000Y-52460000D01*
X89780000Y-52460000D02*
X89780000Y-53600000D01*
%TO.N,Net-(R3-Pad2)*%
X90805000Y-64135000D02*
X89780000Y-65160000D01*
X89780000Y-65160000D02*
X89780000Y-66300000D01*
X92200000Y-64135000D02*
X90805000Y-64135000D01*
%TO.N,Net-(R1-Pad2)*%
X92200000Y-51435000D02*
X90805000Y-51435000D01*
%TO.N,GND*%
X91920000Y-60325000D02*
X103505000Y-60325000D01*
X103505000Y-60325000D02*
X104140000Y-59690000D01*
X104140000Y-59690000D02*
X104140000Y-58420000D01*
X91920000Y-73025000D02*
X102235000Y-73025000D01*
X102235000Y-73025000D02*
X104140000Y-71120000D01*
X104140000Y-71120000D02*
X104140000Y-68580000D01*
X104140000Y-68580000D02*
X102390000Y-68580000D01*
X102390000Y-68580000D02*
X101600000Y-67790000D01*
X104140000Y-58420000D02*
X102390000Y-58420000D01*
X102390000Y-58420000D02*
X101600000Y-57630000D01*
%TO.N,+12V*%
X89780000Y-70860000D02*
X89780000Y-71845000D01*
X89780000Y-71845000D02*
X90960000Y-73025000D01*
X89780000Y-58160000D02*
X89780000Y-59145000D01*
X89780000Y-59145000D02*
X90960000Y-60325000D01*
%TD*%
%TA.AperFunction,Conductor*%
%TO.N,+12V*%
G36*
X89969201Y-49549258D02*
G01*
X90051280Y-49604102D01*
X90106124Y-49686181D01*
X90125382Y-49783000D01*
X90106124Y-49879819D01*
X90090149Y-49911788D01*
X90032834Y-50008701D01*
X90032832Y-50008707D01*
X90024731Y-50022404D01*
X89979371Y-50178534D01*
X89976500Y-50215011D01*
X89976501Y-50614988D01*
X89979371Y-50651466D01*
X90024731Y-50807596D01*
X90032835Y-50821299D01*
X90034230Y-50824523D01*
X90055006Y-50921028D01*
X90034230Y-51025477D01*
X90032835Y-51028701D01*
X90024731Y-51042404D01*
X90004145Y-51113261D01*
X89958639Y-51200862D01*
X89940089Y-51221573D01*
X89295260Y-51866402D01*
X89271575Y-51886757D01*
X89268278Y-51889831D01*
X89256436Y-51898546D01*
X89246920Y-51909747D01*
X89246918Y-51909749D01*
X89225365Y-51935119D01*
X89219387Y-51941603D01*
X89219424Y-51941636D01*
X89214545Y-51947117D01*
X89209347Y-51952315D01*
X89204788Y-51958078D01*
X89192994Y-51972985D01*
X89187394Y-51979814D01*
X89141316Y-52034051D01*
X89135193Y-52046042D01*
X89126840Y-52056600D01*
X89096699Y-52121091D01*
X89092837Y-52128991D01*
X89060457Y-52192404D01*
X89057257Y-52205481D01*
X89051556Y-52217679D01*
X89037056Y-52287393D01*
X89035113Y-52295977D01*
X89034459Y-52298653D01*
X88992735Y-52388114D01*
X88919950Y-52454801D01*
X88827185Y-52488558D01*
X88788714Y-52491500D01*
X88631866Y-52491500D01*
X88625058Y-52492240D01*
X88625050Y-52492240D01*
X88585458Y-52496541D01*
X88585455Y-52496542D01*
X88569684Y-52498255D01*
X88501396Y-52523855D01*
X88450174Y-52543057D01*
X88450172Y-52543058D01*
X88433295Y-52549385D01*
X88418874Y-52560193D01*
X88418872Y-52560194D01*
X88331160Y-52625931D01*
X88316739Y-52636739D01*
X88229385Y-52753295D01*
X88178255Y-52889684D01*
X88171500Y-52951866D01*
X88171500Y-54248134D01*
X88178255Y-54310316D01*
X88229385Y-54446705D01*
X88316739Y-54563261D01*
X88331160Y-54574069D01*
X88418872Y-54639806D01*
X88418874Y-54639807D01*
X88433295Y-54650615D01*
X88450172Y-54656942D01*
X88450174Y-54656943D01*
X88479384Y-54667893D01*
X88569684Y-54701745D01*
X88585455Y-54703458D01*
X88585458Y-54703459D01*
X88625050Y-54707760D01*
X88625058Y-54707760D01*
X88631866Y-54708500D01*
X90928134Y-54708500D01*
X90934942Y-54707760D01*
X90934950Y-54707760D01*
X90974542Y-54703459D01*
X90974545Y-54703458D01*
X90990316Y-54701745D01*
X91080616Y-54667893D01*
X91098190Y-54661305D01*
X91195608Y-54645351D01*
X91291716Y-54667893D01*
X91371882Y-54725498D01*
X91423900Y-54809395D01*
X91440000Y-54898205D01*
X91440000Y-59473087D01*
X91420742Y-59569906D01*
X91365898Y-59651985D01*
X91263512Y-59754371D01*
X91255411Y-59768069D01*
X91210438Y-59844115D01*
X91180106Y-59895403D01*
X91134394Y-60052746D01*
X91131500Y-60089516D01*
X91131500Y-60560484D01*
X91134394Y-60597254D01*
X91180106Y-60754597D01*
X91263512Y-60895629D01*
X91365898Y-60998015D01*
X91420742Y-61080094D01*
X91440000Y-61176913D01*
X91440000Y-61849500D01*
X91420742Y-61946319D01*
X91365898Y-62028398D01*
X91283819Y-62083242D01*
X91187000Y-62102500D01*
X91131971Y-62102500D01*
X91100850Y-62100146D01*
X91096326Y-62099988D01*
X91081792Y-62097777D01*
X91033965Y-62101667D01*
X91025152Y-62102025D01*
X91025155Y-62102074D01*
X91017828Y-62102500D01*
X91010475Y-62102500D01*
X90984278Y-62105555D01*
X90975518Y-62106421D01*
X90944447Y-62108948D01*
X90919228Y-62110999D01*
X90919227Y-62110999D01*
X90904573Y-62112191D01*
X90891766Y-62116340D01*
X90878393Y-62117899D01*
X90864571Y-62122916D01*
X90864572Y-62122916D01*
X90811470Y-62142191D01*
X90803128Y-62145055D01*
X90735425Y-62166988D01*
X90723917Y-62173971D01*
X90711259Y-62178566D01*
X90698966Y-62186626D01*
X90651715Y-62217605D01*
X90644247Y-62222316D01*
X90617813Y-62238357D01*
X90583419Y-62259228D01*
X90574994Y-62266668D01*
X90572215Y-62269447D01*
X90571228Y-62270374D01*
X90562565Y-62276054D01*
X90543720Y-62295947D01*
X90463159Y-62352990D01*
X90430648Y-62364904D01*
X90362404Y-62384731D01*
X90222459Y-62467494D01*
X90107494Y-62582459D01*
X90099393Y-62596157D01*
X90059699Y-62663277D01*
X90024731Y-62722404D01*
X90020290Y-62737690D01*
X89984651Y-62860361D01*
X89979371Y-62878534D01*
X89976500Y-62915011D01*
X89976501Y-63314988D01*
X89979371Y-63351466D01*
X89982976Y-63363876D01*
X89982977Y-63363879D01*
X90011930Y-63463536D01*
X90024731Y-63507596D01*
X90032835Y-63521299D01*
X90034230Y-63524523D01*
X90055006Y-63621028D01*
X90034230Y-63725477D01*
X90032835Y-63728701D01*
X90024731Y-63742404D01*
X90004145Y-63813261D01*
X89958639Y-63900862D01*
X89940089Y-63921573D01*
X89295260Y-64566402D01*
X89271575Y-64586757D01*
X89268278Y-64589831D01*
X89256436Y-64598546D01*
X89246920Y-64609747D01*
X89246918Y-64609749D01*
X89225365Y-64635119D01*
X89219387Y-64641603D01*
X89219424Y-64641636D01*
X89214545Y-64647117D01*
X89209347Y-64652315D01*
X89192994Y-64672985D01*
X89187394Y-64679814D01*
X89141316Y-64734051D01*
X89135193Y-64746042D01*
X89126840Y-64756600D01*
X89096699Y-64821091D01*
X89092837Y-64828991D01*
X89060457Y-64892404D01*
X89057257Y-64905481D01*
X89051556Y-64917679D01*
X89037056Y-64987393D01*
X89035113Y-64995977D01*
X89034459Y-64998653D01*
X88992735Y-65088114D01*
X88919950Y-65154801D01*
X88827185Y-65188558D01*
X88788714Y-65191500D01*
X88631866Y-65191500D01*
X88625058Y-65192240D01*
X88625050Y-65192240D01*
X88585458Y-65196541D01*
X88585455Y-65196542D01*
X88569684Y-65198255D01*
X88501396Y-65223855D01*
X88450174Y-65243057D01*
X88450172Y-65243058D01*
X88433295Y-65249385D01*
X88418874Y-65260193D01*
X88418872Y-65260194D01*
X88331160Y-65325931D01*
X88316739Y-65336739D01*
X88229385Y-65453295D01*
X88178255Y-65589684D01*
X88171500Y-65651866D01*
X88171500Y-66948134D01*
X88178255Y-67010316D01*
X88229385Y-67146705D01*
X88316739Y-67263261D01*
X88331160Y-67274069D01*
X88418872Y-67339806D01*
X88418874Y-67339807D01*
X88433295Y-67350615D01*
X88450172Y-67356942D01*
X88450174Y-67356943D01*
X88479384Y-67367893D01*
X88569684Y-67401745D01*
X88585455Y-67403458D01*
X88585458Y-67403459D01*
X88625050Y-67407760D01*
X88625058Y-67407760D01*
X88631866Y-67408500D01*
X90928134Y-67408500D01*
X90934942Y-67407760D01*
X90934950Y-67407760D01*
X90974542Y-67403459D01*
X90974545Y-67403458D01*
X90990316Y-67401745D01*
X91080616Y-67367893D01*
X91098190Y-67361305D01*
X91195608Y-67345351D01*
X91291716Y-67367893D01*
X91371882Y-67425498D01*
X91423900Y-67509395D01*
X91440000Y-67598205D01*
X91440000Y-72173087D01*
X91420742Y-72269906D01*
X91365898Y-72351985D01*
X91263512Y-72454371D01*
X91180106Y-72595403D01*
X91134394Y-72752746D01*
X91131500Y-72789516D01*
X91131500Y-73260484D01*
X91134394Y-73297254D01*
X91180106Y-73454597D01*
X91263512Y-73595629D01*
X91365898Y-73698015D01*
X91420742Y-73780094D01*
X91440000Y-73876913D01*
X91440000Y-74405420D01*
X91437837Y-74438431D01*
X91427037Y-74520463D01*
X91409944Y-74584253D01*
X91384686Y-74645230D01*
X91351662Y-74702427D01*
X91311485Y-74754786D01*
X91264786Y-74801485D01*
X91212427Y-74841662D01*
X91155230Y-74874686D01*
X91134996Y-74883068D01*
X91094250Y-74899945D01*
X91030463Y-74917037D01*
X90948431Y-74927837D01*
X90915420Y-74930000D01*
X83074580Y-74930000D01*
X83041569Y-74927837D01*
X82959537Y-74917037D01*
X82895750Y-74899945D01*
X82855004Y-74883068D01*
X82834770Y-74874686D01*
X82777573Y-74841662D01*
X82725214Y-74801485D01*
X82678515Y-74754786D01*
X82638338Y-74702427D01*
X82605314Y-74645230D01*
X82580056Y-74584253D01*
X82562963Y-74520463D01*
X82552163Y-74438431D01*
X82550000Y-74405420D01*
X82550000Y-63461695D01*
X83727251Y-63461695D01*
X83727849Y-63472067D01*
X83727849Y-63472068D01*
X83730874Y-63524523D01*
X83740110Y-63684715D01*
X83764514Y-63793003D01*
X83785250Y-63885012D01*
X83789222Y-63902639D01*
X83822128Y-63983677D01*
X83869360Y-64099998D01*
X83869363Y-64100004D01*
X83873266Y-64109616D01*
X83878690Y-64118467D01*
X83984560Y-64291233D01*
X83984564Y-64291239D01*
X83989987Y-64300088D01*
X84136250Y-64468938D01*
X84308126Y-64611632D01*
X84501000Y-64724338D01*
X84709692Y-64804030D01*
X84793416Y-64821064D01*
X84918427Y-64846498D01*
X84918428Y-64846498D01*
X84928597Y-64848567D01*
X85051419Y-64853071D01*
X85141466Y-64856373D01*
X85141470Y-64856373D01*
X85151837Y-64856753D01*
X85270221Y-64841588D01*
X85363113Y-64829688D01*
X85363115Y-64829688D01*
X85373416Y-64828368D01*
X85568242Y-64769917D01*
X85577442Y-64767157D01*
X85577445Y-64767156D01*
X85587384Y-64764174D01*
X85787994Y-64665896D01*
X85796443Y-64659869D01*
X85796447Y-64659867D01*
X85961410Y-64542200D01*
X85969860Y-64536173D01*
X85977214Y-64528845D01*
X86120745Y-64385815D01*
X86120749Y-64385811D01*
X86128096Y-64378489D01*
X86258453Y-64197077D01*
X86357430Y-63996811D01*
X86386582Y-63900862D01*
X86419352Y-63793003D01*
X86419352Y-63793001D01*
X86422370Y-63783069D01*
X86451529Y-63561590D01*
X86451753Y-63552459D01*
X86452992Y-63501730D01*
X86452992Y-63501722D01*
X86453156Y-63495000D01*
X86434852Y-63272361D01*
X86426616Y-63239570D01*
X86382958Y-63065764D01*
X86380431Y-63055702D01*
X86319257Y-62915011D01*
X86295494Y-62860361D01*
X86295493Y-62860360D01*
X86291354Y-62850840D01*
X86170014Y-62663277D01*
X86142226Y-62632738D01*
X86091309Y-62548169D01*
X86076632Y-62450550D01*
X86100428Y-62354746D01*
X86159076Y-62275341D01*
X86186772Y-62255585D01*
X86186462Y-62255172D01*
X86288479Y-62178715D01*
X86313715Y-62153479D01*
X86379363Y-62065885D01*
X86396499Y-62034585D01*
X86435682Y-61930064D01*
X86442966Y-61899434D01*
X86447260Y-61859905D01*
X86448000Y-61846236D01*
X86448000Y-61233918D01*
X86443866Y-61213134D01*
X86423082Y-61209000D01*
X83756919Y-61209000D01*
X83736135Y-61213134D01*
X83732001Y-61233918D01*
X83732001Y-61846245D01*
X83732740Y-61859888D01*
X83737035Y-61899436D01*
X83744318Y-61930064D01*
X83783501Y-62034585D01*
X83800637Y-62065885D01*
X83866285Y-62153479D01*
X83891521Y-62178715D01*
X83993538Y-62255172D01*
X83991754Y-62257552D01*
X84045816Y-62302832D01*
X84091478Y-62390352D01*
X84100171Y-62488684D01*
X84070573Y-62582858D01*
X84043028Y-62620510D01*
X84044334Y-62621567D01*
X84037809Y-62629624D01*
X84030629Y-62637138D01*
X83904743Y-62821680D01*
X83810688Y-63024305D01*
X83750989Y-63239570D01*
X83727251Y-63461695D01*
X82550000Y-63461695D01*
X82550000Y-60676082D01*
X83732000Y-60676082D01*
X83736134Y-60696866D01*
X83756918Y-60701000D01*
X84811082Y-60701000D01*
X84831866Y-60696866D01*
X84836000Y-60676082D01*
X85344000Y-60676082D01*
X85348134Y-60696866D01*
X85368918Y-60701000D01*
X86423081Y-60701000D01*
X86443865Y-60696866D01*
X86447999Y-60676082D01*
X86447999Y-60063755D01*
X86447260Y-60050112D01*
X86442965Y-60010564D01*
X86435682Y-59979936D01*
X86396499Y-59875415D01*
X86379363Y-59844115D01*
X86313715Y-59756521D01*
X86288479Y-59731285D01*
X86200885Y-59665637D01*
X86169585Y-59648501D01*
X86065064Y-59609318D01*
X86034434Y-59602034D01*
X85994905Y-59597740D01*
X85981236Y-59597000D01*
X85368918Y-59597000D01*
X85348134Y-59601134D01*
X85344000Y-59621918D01*
X85344000Y-60676082D01*
X84836000Y-60676082D01*
X84836000Y-59621919D01*
X84831866Y-59601135D01*
X84811082Y-59597001D01*
X84198755Y-59597001D01*
X84185112Y-59597740D01*
X84145564Y-59602035D01*
X84114936Y-59609318D01*
X84010415Y-59648501D01*
X83979115Y-59665637D01*
X83891521Y-59731285D01*
X83866285Y-59756521D01*
X83800637Y-59844115D01*
X83783501Y-59875415D01*
X83744318Y-59979936D01*
X83737034Y-60010566D01*
X83732740Y-60050095D01*
X83732000Y-60063764D01*
X83732000Y-60676082D01*
X82550000Y-60676082D01*
X82550000Y-50054580D01*
X82552163Y-50021569D01*
X82562963Y-49939537D01*
X82580056Y-49875747D01*
X82605314Y-49814770D01*
X82638338Y-49757573D01*
X82678515Y-49705214D01*
X82725214Y-49658515D01*
X82777573Y-49618338D01*
X82834770Y-49585314D01*
X82855004Y-49576932D01*
X82895750Y-49560055D01*
X82959537Y-49542963D01*
X83041569Y-49532163D01*
X83074580Y-49530000D01*
X89872382Y-49530000D01*
X89969201Y-49549258D01*
G37*
%TD.AperFunction*%
%TD*%
%TA.AperFunction,Conductor*%
%TO.N,+3V3*%
G36*
X104918431Y-63502163D02*
G01*
X105000463Y-63512963D01*
X105064250Y-63530055D01*
X105104996Y-63546932D01*
X105125230Y-63555314D01*
X105182427Y-63588338D01*
X105234786Y-63628515D01*
X105281485Y-63675214D01*
X105321662Y-63727573D01*
X105354686Y-63784770D01*
X105371986Y-63826534D01*
X105379944Y-63845747D01*
X105397037Y-63909537D01*
X105407837Y-63991569D01*
X105410000Y-64024580D01*
X105410000Y-64444235D01*
X105390742Y-64541054D01*
X105335898Y-64623133D01*
X105253819Y-64677977D01*
X105157000Y-64697235D01*
X105098476Y-64690373D01*
X105084436Y-64687035D01*
X105044905Y-64682740D01*
X105031236Y-64682000D01*
X104418918Y-64682000D01*
X104398134Y-64686134D01*
X104394000Y-64706918D01*
X104394000Y-66041000D01*
X104374742Y-66137819D01*
X104319898Y-66219898D01*
X104237819Y-66274742D01*
X104141000Y-66294000D01*
X102806919Y-66294000D01*
X102786135Y-66298134D01*
X102782001Y-66318918D01*
X102782001Y-66931245D01*
X102782740Y-66944888D01*
X102787035Y-66984436D01*
X102794318Y-67015064D01*
X102833501Y-67119585D01*
X102850637Y-67150885D01*
X102916285Y-67238479D01*
X102941521Y-67263715D01*
X103043538Y-67340172D01*
X103041754Y-67342552D01*
X103095816Y-67387832D01*
X103141478Y-67475352D01*
X103150171Y-67573684D01*
X103120573Y-67667858D01*
X103093031Y-67705507D01*
X103094336Y-67706564D01*
X103087806Y-67714627D01*
X103080629Y-67722138D01*
X103078379Y-67725437D01*
X103004547Y-67786841D01*
X102910271Y-67816114D01*
X102883827Y-67817500D01*
X102810634Y-67817500D01*
X102713815Y-67798242D01*
X102631736Y-67743398D01*
X102453154Y-67564816D01*
X102398310Y-67482737D01*
X102389097Y-67456501D01*
X102374333Y-67405683D01*
X102369894Y-67390403D01*
X102286488Y-67249371D01*
X102170629Y-67133512D01*
X102147080Y-67119585D01*
X102043299Y-67058209D01*
X102043297Y-67058208D01*
X102029597Y-67050106D01*
X102014309Y-67045665D01*
X102014308Y-67045664D01*
X101884673Y-67008002D01*
X101872254Y-67004394D01*
X101859369Y-67003380D01*
X101859364Y-67003379D01*
X101840439Y-67001890D01*
X101835484Y-67001500D01*
X101364516Y-67001500D01*
X101359561Y-67001890D01*
X101340636Y-67003379D01*
X101340631Y-67003380D01*
X101327746Y-67004394D01*
X101315327Y-67008002D01*
X101185692Y-67045664D01*
X101185691Y-67045665D01*
X101170403Y-67050106D01*
X101156703Y-67058208D01*
X101156701Y-67058209D01*
X101052920Y-67119585D01*
X101029371Y-67133512D01*
X100913512Y-67249371D01*
X100830106Y-67390403D01*
X100784394Y-67547746D01*
X100783380Y-67560631D01*
X100783379Y-67560636D01*
X100781933Y-67579016D01*
X100781500Y-67584516D01*
X100781500Y-67995484D01*
X100784394Y-68032254D01*
X100830106Y-68189597D01*
X100913512Y-68330629D01*
X101029371Y-68446488D01*
X101170403Y-68529894D01*
X101223038Y-68545186D01*
X101236501Y-68549097D01*
X101324103Y-68594602D01*
X101344816Y-68613154D01*
X101796402Y-69064740D01*
X101816757Y-69088425D01*
X101819831Y-69091722D01*
X101828546Y-69103564D01*
X101839747Y-69113080D01*
X101839749Y-69113082D01*
X101865119Y-69134635D01*
X101871603Y-69140613D01*
X101871636Y-69140576D01*
X101877117Y-69145455D01*
X101882315Y-69150653D01*
X101888078Y-69155212D01*
X101902985Y-69167006D01*
X101909814Y-69172606D01*
X101964051Y-69218684D01*
X101976042Y-69224807D01*
X101986600Y-69233160D01*
X102051071Y-69263292D01*
X102059001Y-69267169D01*
X102109308Y-69292857D01*
X102109316Y-69292860D01*
X102122404Y-69299543D01*
X102135483Y-69302743D01*
X102147680Y-69308444D01*
X102202525Y-69319852D01*
X102217352Y-69322936D01*
X102225963Y-69324884D01*
X102274248Y-69336699D01*
X102295112Y-69341804D01*
X102306330Y-69342500D01*
X102310245Y-69342500D01*
X102311616Y-69342543D01*
X102321757Y-69344652D01*
X102397841Y-69342593D01*
X102404684Y-69342500D01*
X102887530Y-69342500D01*
X102984349Y-69361758D01*
X103066428Y-69416602D01*
X103078760Y-69429850D01*
X103179444Y-69546082D01*
X103179450Y-69546088D01*
X103186250Y-69553938D01*
X103286110Y-69636843D01*
X103348299Y-69713505D01*
X103376418Y-69808131D01*
X103377500Y-69831500D01*
X103377500Y-70699366D01*
X103358242Y-70796185D01*
X103303398Y-70878264D01*
X101993264Y-72188398D01*
X101911185Y-72243242D01*
X101814366Y-72262500D01*
X92999892Y-72262500D01*
X92903073Y-72243242D01*
X92820994Y-72188398D01*
X92799160Y-72163499D01*
X92798323Y-72162408D01*
X92765314Y-72105230D01*
X92740056Y-72044253D01*
X92722963Y-71980463D01*
X92712163Y-71898431D01*
X92710000Y-71865420D01*
X92710000Y-65761082D01*
X102782000Y-65761082D01*
X102786134Y-65781866D01*
X102806918Y-65786000D01*
X103861082Y-65786000D01*
X103881866Y-65781866D01*
X103886000Y-65761082D01*
X103886000Y-64706919D01*
X103881866Y-64686135D01*
X103861082Y-64682001D01*
X103248755Y-64682001D01*
X103235112Y-64682740D01*
X103195564Y-64687035D01*
X103164936Y-64694318D01*
X103060415Y-64733501D01*
X103029115Y-64750637D01*
X102941521Y-64816285D01*
X102916285Y-64841521D01*
X102850637Y-64929115D01*
X102833501Y-64960415D01*
X102794318Y-65064936D01*
X102787034Y-65095566D01*
X102782740Y-65135095D01*
X102782000Y-65148764D01*
X102782000Y-65761082D01*
X92710000Y-65761082D01*
X92710000Y-64959843D01*
X92729258Y-64863024D01*
X92784102Y-64780945D01*
X92847506Y-64717541D01*
X92930269Y-64577596D01*
X92934710Y-64562310D01*
X92972022Y-64433883D01*
X92972023Y-64433879D01*
X92975629Y-64421466D01*
X92978500Y-64384989D01*
X92978499Y-63885012D01*
X92975629Y-63848534D01*
X92969237Y-63826532D01*
X92960719Y-63728186D01*
X92990485Y-63634065D01*
X93054004Y-63558500D01*
X93141605Y-63512994D01*
X93179162Y-63505113D01*
X93201559Y-63502165D01*
X93234580Y-63500000D01*
X104885420Y-63500000D01*
X104918431Y-63502163D01*
G37*
%TD.AperFunction*%
%TD*%
%TA.AperFunction,Conductor*%
%TO.N,+5V*%
G36*
X104918431Y-50802163D02*
G01*
X105000463Y-50812963D01*
X105064250Y-50830055D01*
X105104996Y-50846932D01*
X105125230Y-50855314D01*
X105182427Y-50888338D01*
X105234786Y-50928515D01*
X105281485Y-50975214D01*
X105321662Y-51027573D01*
X105354686Y-51084770D01*
X105371986Y-51126534D01*
X105379944Y-51145747D01*
X105397037Y-51209537D01*
X105407837Y-51291569D01*
X105410000Y-51324580D01*
X105410000Y-54284235D01*
X105390742Y-54381054D01*
X105335898Y-54463133D01*
X105253819Y-54517977D01*
X105157000Y-54537235D01*
X105098476Y-54530373D01*
X105084436Y-54527035D01*
X105044905Y-54522740D01*
X105031236Y-54522000D01*
X104418918Y-54522000D01*
X104398134Y-54526134D01*
X104394000Y-54546918D01*
X104394000Y-55881000D01*
X104374742Y-55977819D01*
X104319898Y-56059898D01*
X104237819Y-56114742D01*
X104141000Y-56134000D01*
X102806919Y-56134000D01*
X102786135Y-56138134D01*
X102782001Y-56158918D01*
X102782001Y-56771245D01*
X102782740Y-56784888D01*
X102787035Y-56824436D01*
X102794318Y-56855064D01*
X102833501Y-56959585D01*
X102850637Y-56990885D01*
X102916285Y-57078479D01*
X102941521Y-57103715D01*
X103043538Y-57180172D01*
X103041754Y-57182552D01*
X103095816Y-57227832D01*
X103141478Y-57315352D01*
X103150171Y-57413684D01*
X103120573Y-57507858D01*
X103093031Y-57545507D01*
X103094336Y-57546564D01*
X103087806Y-57554627D01*
X103080629Y-57562138D01*
X103078379Y-57565437D01*
X103004547Y-57626841D01*
X102910271Y-57656114D01*
X102883827Y-57657500D01*
X102810634Y-57657500D01*
X102713815Y-57638242D01*
X102631736Y-57583398D01*
X102453154Y-57404816D01*
X102398310Y-57322737D01*
X102389097Y-57296501D01*
X102374333Y-57245683D01*
X102369894Y-57230403D01*
X102286488Y-57089371D01*
X102170629Y-56973512D01*
X102147080Y-56959585D01*
X102043299Y-56898209D01*
X102043297Y-56898208D01*
X102029597Y-56890106D01*
X102014309Y-56885665D01*
X102014308Y-56885664D01*
X101884673Y-56848002D01*
X101872254Y-56844394D01*
X101859369Y-56843380D01*
X101859364Y-56843379D01*
X101840439Y-56841890D01*
X101835484Y-56841500D01*
X101364516Y-56841500D01*
X101359561Y-56841890D01*
X101340636Y-56843379D01*
X101340631Y-56843380D01*
X101327746Y-56844394D01*
X101315327Y-56848002D01*
X101185692Y-56885664D01*
X101185691Y-56885665D01*
X101170403Y-56890106D01*
X101156703Y-56898208D01*
X101156701Y-56898209D01*
X101052920Y-56959585D01*
X101029371Y-56973512D01*
X100913512Y-57089371D01*
X100830106Y-57230403D01*
X100784394Y-57387746D01*
X100783380Y-57400631D01*
X100783379Y-57400636D01*
X100781933Y-57419016D01*
X100781500Y-57424516D01*
X100781500Y-57835484D01*
X100784394Y-57872254D01*
X100830106Y-58029597D01*
X100913512Y-58170629D01*
X101029371Y-58286488D01*
X101170403Y-58369894D01*
X101223038Y-58385186D01*
X101236501Y-58389097D01*
X101324103Y-58434602D01*
X101344816Y-58453154D01*
X101796402Y-58904740D01*
X101816757Y-58928425D01*
X101819831Y-58931722D01*
X101828546Y-58943564D01*
X101839747Y-58953080D01*
X101839749Y-58953082D01*
X101865119Y-58974635D01*
X101871603Y-58980613D01*
X101871636Y-58980576D01*
X101877117Y-58985455D01*
X101882315Y-58990653D01*
X101888078Y-58995212D01*
X101902985Y-59007006D01*
X101909814Y-59012606D01*
X101964051Y-59058684D01*
X101976042Y-59064807D01*
X101986600Y-59073160D01*
X102001872Y-59080298D01*
X102004387Y-59082145D01*
X102012418Y-59087105D01*
X102012019Y-59087751D01*
X102081429Y-59138737D01*
X102132567Y-59223174D01*
X102147500Y-59320754D01*
X102123953Y-59416621D01*
X102065513Y-59496179D01*
X101981076Y-59547317D01*
X101894750Y-59562500D01*
X92999892Y-59562500D01*
X92903073Y-59543242D01*
X92820994Y-59488398D01*
X92799160Y-59463499D01*
X92798323Y-59462408D01*
X92765314Y-59405230D01*
X92740056Y-59344253D01*
X92722963Y-59280463D01*
X92712163Y-59198431D01*
X92710000Y-59165420D01*
X92710000Y-55601082D01*
X102782000Y-55601082D01*
X102786134Y-55621866D01*
X102806918Y-55626000D01*
X103861082Y-55626000D01*
X103881866Y-55621866D01*
X103886000Y-55601082D01*
X103886000Y-54546919D01*
X103881866Y-54526135D01*
X103861082Y-54522001D01*
X103248755Y-54522001D01*
X103235112Y-54522740D01*
X103195564Y-54527035D01*
X103164936Y-54534318D01*
X103060415Y-54573501D01*
X103029115Y-54590637D01*
X102941521Y-54656285D01*
X102916285Y-54681521D01*
X102850637Y-54769115D01*
X102833501Y-54800415D01*
X102794318Y-54904936D01*
X102787034Y-54935566D01*
X102782740Y-54975095D01*
X102782000Y-54988764D01*
X102782000Y-55601082D01*
X92710000Y-55601082D01*
X92710000Y-52259843D01*
X92729258Y-52163024D01*
X92784102Y-52080945D01*
X92847506Y-52017541D01*
X92930269Y-51877596D01*
X92975629Y-51721466D01*
X92978500Y-51684989D01*
X92978499Y-51185012D01*
X92975629Y-51148534D01*
X92969237Y-51126532D01*
X92960719Y-51028186D01*
X92990485Y-50934065D01*
X93054004Y-50858500D01*
X93141605Y-50812994D01*
X93179162Y-50805113D01*
X93201559Y-50802165D01*
X93234580Y-50800000D01*
X104885420Y-50800000D01*
X104918431Y-50802163D01*
G37*
%TD.AperFunction*%
%TD*%
M02*
