%TF.GenerationSoftware,KiCad,Pcbnew,6.0.2+dfsg-1*%
%TF.CreationDate,2023-01-01T10:44:38-05:00*%
%TF.ProjectId,LM317,4c4d3331-372e-46b6-9963-61645f706362,rev?*%
%TF.SameCoordinates,Original*%
%TF.FileFunction,Legend,Top*%
%TF.FilePolarity,Positive*%
%FSLAX46Y46*%
G04 Gerber Fmt 4.6, Leading zero omitted, Abs format (unit mm)*
G04 Created by KiCad (PCBNEW 6.0.2+dfsg-1) date 2023-01-01 10:44:38*
%MOMM*%
%LPD*%
G01*
G04 APERTURE LIST*
%ADD10C,0.150000*%
%ADD11C,0.120000*%
G04 APERTURE END LIST*
D10*
X102217261Y-70402380D02*
X102836309Y-70402380D01*
X102502976Y-70783333D01*
X102645833Y-70783333D01*
X102741071Y-70830952D01*
X102788690Y-70878571D01*
X102836309Y-70973809D01*
X102836309Y-71211904D01*
X102788690Y-71307142D01*
X102741071Y-71354761D01*
X102645833Y-71402380D01*
X102360119Y-71402380D01*
X102264880Y-71354761D01*
X102217261Y-71307142D01*
X103264880Y-71307142D02*
X103312500Y-71354761D01*
X103264880Y-71402380D01*
X103217261Y-71354761D01*
X103264880Y-71307142D01*
X103264880Y-71402380D01*
X103645833Y-70402380D02*
X104264880Y-70402380D01*
X103931547Y-70783333D01*
X104074404Y-70783333D01*
X104169642Y-70830952D01*
X104217261Y-70878571D01*
X104264880Y-70973809D01*
X104264880Y-71211904D01*
X104217261Y-71307142D01*
X104169642Y-71354761D01*
X104074404Y-71402380D01*
X103788690Y-71402380D01*
X103693452Y-71354761D01*
X103645833Y-71307142D01*
X104550595Y-70402380D02*
X104883928Y-71402380D01*
X105217261Y-70402380D01*
X103026785Y-72060000D02*
X102931547Y-72012380D01*
X102788690Y-72012380D01*
X102645833Y-72060000D01*
X102550595Y-72155238D01*
X102502976Y-72250476D01*
X102455357Y-72440952D01*
X102455357Y-72583809D01*
X102502976Y-72774285D01*
X102550595Y-72869523D01*
X102645833Y-72964761D01*
X102788690Y-73012380D01*
X102883928Y-73012380D01*
X103026785Y-72964761D01*
X103074404Y-72917142D01*
X103074404Y-72583809D01*
X102883928Y-72583809D01*
X103502976Y-73012380D02*
X103502976Y-72012380D01*
X104074404Y-73012380D01*
X104074404Y-72012380D01*
X104550595Y-73012380D02*
X104550595Y-72012380D01*
X104788690Y-72012380D01*
X104931547Y-72060000D01*
X105026785Y-72155238D01*
X105074404Y-72250476D01*
X105122023Y-72440952D01*
X105122023Y-72583809D01*
X105074404Y-72774285D01*
X105026785Y-72869523D01*
X104931547Y-72964761D01*
X104788690Y-73012380D01*
X104550595Y-73012380D01*
X104217261Y-51352380D02*
X103741071Y-51352380D01*
X103693452Y-51828571D01*
X103741071Y-51780952D01*
X103836309Y-51733333D01*
X104074404Y-51733333D01*
X104169642Y-51780952D01*
X104217261Y-51828571D01*
X104264880Y-51923809D01*
X104264880Y-52161904D01*
X104217261Y-52257142D01*
X104169642Y-52304761D01*
X104074404Y-52352380D01*
X103836309Y-52352380D01*
X103741071Y-52304761D01*
X103693452Y-52257142D01*
X104550595Y-51352380D02*
X104883928Y-52352380D01*
X105217261Y-51352380D01*
X103026785Y-53010000D02*
X102931547Y-52962380D01*
X102788690Y-52962380D01*
X102645833Y-53010000D01*
X102550595Y-53105238D01*
X102502976Y-53200476D01*
X102455357Y-53390952D01*
X102455357Y-53533809D01*
X102502976Y-53724285D01*
X102550595Y-53819523D01*
X102645833Y-53914761D01*
X102788690Y-53962380D01*
X102883928Y-53962380D01*
X103026785Y-53914761D01*
X103074404Y-53867142D01*
X103074404Y-53533809D01*
X102883928Y-53533809D01*
X103502976Y-53962380D02*
X103502976Y-52962380D01*
X104074404Y-53962380D01*
X104074404Y-52962380D01*
X104550595Y-53962380D02*
X104550595Y-52962380D01*
X104788690Y-52962380D01*
X104931547Y-53010000D01*
X105026785Y-53105238D01*
X105074404Y-53200476D01*
X105122023Y-53390952D01*
X105122023Y-53533809D01*
X105074404Y-53724285D01*
X105026785Y-53819523D01*
X104931547Y-53914761D01*
X104788690Y-53962380D01*
X104550595Y-53962380D01*
D11*
%TO.C,U2*%
X93010000Y-65130000D02*
X91510000Y-65130000D01*
X91510000Y-65400000D02*
X88680000Y-65400000D01*
X91510000Y-71760000D02*
X90410000Y-71760000D01*
X93010000Y-72030000D02*
X91510000Y-72030000D01*
X91510000Y-65130000D02*
X91510000Y-65400000D01*
X91510000Y-72030000D02*
X91510000Y-71760000D01*
%TO.C,R4*%
X90425000Y-63778641D02*
X90425000Y-63471359D01*
X91185000Y-63778641D02*
X91185000Y-63471359D01*
%TO.C,R3*%
X92863641Y-64515000D02*
X92556359Y-64515000D01*
X92863641Y-63755000D02*
X92556359Y-63755000D01*
%TO.C,J3*%
X102810000Y-66040000D02*
X102810000Y-64710000D01*
X102810000Y-69910000D02*
X105470000Y-69910000D01*
X102810000Y-67310000D02*
X102810000Y-69910000D01*
X102810000Y-67310000D02*
X105470000Y-67310000D01*
X102810000Y-64710000D02*
X104140000Y-64710000D01*
X105470000Y-67310000D02*
X105470000Y-69910000D01*
%TO.C,C4*%
X101240000Y-67202164D02*
X101240000Y-67417836D01*
X101960000Y-67202164D02*
X101960000Y-67417836D01*
%TO.C,C3*%
X91332164Y-73385000D02*
X91547836Y-73385000D01*
X91332164Y-72665000D02*
X91547836Y-72665000D01*
%TO.C,U1*%
X93010000Y-52430000D02*
X91510000Y-52430000D01*
X91510000Y-52700000D02*
X88680000Y-52700000D01*
X91510000Y-59060000D02*
X90410000Y-59060000D01*
X93010000Y-59330000D02*
X91510000Y-59330000D01*
X91510000Y-52430000D02*
X91510000Y-52700000D01*
X91510000Y-59330000D02*
X91510000Y-59060000D01*
%TO.C,R2*%
X90425000Y-51078641D02*
X90425000Y-50771359D01*
X91185000Y-51078641D02*
X91185000Y-50771359D01*
%TO.C,R1*%
X92863641Y-51815000D02*
X92556359Y-51815000D01*
X92863641Y-51055000D02*
X92556359Y-51055000D01*
%TO.C,J2*%
X102810000Y-55880000D02*
X102810000Y-54550000D01*
X102810000Y-59750000D02*
X105470000Y-59750000D01*
X102810000Y-57150000D02*
X102810000Y-59750000D01*
X102810000Y-57150000D02*
X105470000Y-57150000D01*
X102810000Y-54550000D02*
X104140000Y-54550000D01*
X105470000Y-57150000D02*
X105470000Y-59750000D01*
%TO.C,J1*%
X83760000Y-60955000D02*
X83760000Y-59625000D01*
X83760000Y-64825000D02*
X86420000Y-64825000D01*
X83760000Y-62225000D02*
X83760000Y-64825000D01*
X83760000Y-62225000D02*
X86420000Y-62225000D01*
X83760000Y-59625000D02*
X85090000Y-59625000D01*
X86420000Y-62225000D02*
X86420000Y-64825000D01*
%TO.C,C2*%
X101240000Y-57042164D02*
X101240000Y-57257836D01*
X101960000Y-57042164D02*
X101960000Y-57257836D01*
%TO.C,C1*%
X91332164Y-60685000D02*
X91547836Y-60685000D01*
X91332164Y-59965000D02*
X91547836Y-59965000D01*
%TD*%
M02*
