<?xml version="1.0" standalone="no"?>
<!DOCTYPE svg PUBLIC "-//W3C//DTD SVG 20010904//EN"
 "http://www.w3.org/TR/2001/REC-SVG-20010904/DTD/svg10.dtd">
<svg version="1.0" xmlns="http://www.w3.org/2000/svg"
 width="700.000000pt" height="700.000000pt" viewBox="0 0 700.000000 700.000000"
 preserveAspectRatio="xMidYMid meet">
<metadata>
Created by potrace 1.14, written by Peter Selinger 2001-2017
</metadata>
<g transform="translate(0.000000,700.000000) scale(0.100000,-0.100000)"
fill="#000000" stroke="none">
<path d="M2537 6523 c-4 -6 -18 -73 -32 -149 -106 -572 -318 -1094 -636 -1570
-80 -120 -171 -235 -378 -479 -285 -335 -297 -366 -311 -805 -12 -380 -26
-429 -282 -941 -82 -166 -159 -327 -169 -357 -23 -65 -25 -171 -5 -210 54
-103 280 -201 596 -258 130 -24 397 -24 499 0 101 23 234 68 238 82 2 6 -10
17 -26 24 -37 15 -46 36 -27 64 12 18 533 602 614 689 22 24 24 29 12 37 -8 5
-25 10 -37 10 -24 0 -53 24 -53 45 0 7 202 241 450 521 445 503 449 508 430
526 -14 13 -18 24 -12 34 21 37 175 194 191 194 10 0 28 -11 41 -25 23 -24 29
-25 90 -20 218 21 460 -130 560 -350 47 -103 66 -239 35 -251 -17 -7 -94 54
-250 196 -107 98 -126 100 -81 11 52 -101 79 -216 79 -336 0 -127 -20 -204
-79 -293 -40 -60 -471 -512 -489 -512 -7 0 -20 21 -30 47 -24 63 -85 126 -147
153 -76 32 -177 26 -244 -15 -66 -41 -110 -101 -124 -172 -10 -48 -10 -70 5
-140 36 -172 9 -246 -155 -422 -213 -228 -355 -371 -368 -371 -8 0 -44 28 -80
63 -37 34 -77 70 -89 80 l-21 18 5 -80 c10 -138 17 -128 -489 -637 -241 -242
-438 -443 -438 -447 0 -4 312 -6 693 -5 l692 3 72 285 c40 157 140 550 221
874 l149 589 -23 20 c-38 33 -58 96 -45 145 34 124 196 137 257 20 19 -37 18
-77 -6 -123 -11 -22 -20 -43 -20 -47 0 -9 938 -1670 950 -1682 10 -10 170 37
303 90 206 82 458 229 631 368 38 31 73 56 78 56 23 0 15 -36 -26 -131 -67
-151 -61 -162 40 -73 201 177 449 524 579 812 124 273 215 623 215 825 0 38 5
59 16 68 22 18 31 4 102 -143 32 -65 63 -118 71 -118 21 0 9 355 -19 535 -69
455 -229 907 -453 1280 -59 99 -142 223 -191 287 -16 22 -22 38 -17 47 11 17
112 -12 227 -64 133 -61 139 -40 22 71 -405 381 -998 699 -1500 804 -236 49
-295 52 -1018 57 -377 2 -688 8 -692 11 -4 4 0 66 8 137 21 172 14 504 -15
695 -36 239 -75 384 -94 353z m-1063 -2632 c4 -24 16 -65 27 -92 l21 -47 -36
-89 c-19 -48 -45 -124 -57 -168 -26 -97 -31 -107 -40 -75 -23 84 -2 325 42
474 23 75 31 74 43 -3z m-513 -1532 c-6 -24 -11 -64 -11 -89 -1 -41 -5 -49
-45 -83 -25 -21 -45 -34 -45 -29 0 30 98 257 107 248 2 -2 -1 -23 -6 -47z"/>
<path d="M3247 2023 c-8 -12 -427 -1527 -427 -1541 0 -15 845 -17 1025 -2 136
11 316 38 328 50 9 8 -892 1491 -910 1497 -6 2 -14 0 -16 -4z"/>
</g>
</svg>
