%TF.GenerationSoftware,KiCad,Pcbnew,6.0.2+dfsg-1*%
%TF.CreationDate,2023-01-04T10:20:38-05:00*%
%TF.ProjectId,rp2040-basic-parts,72703230-3430-42d6-9261-7369632d7061,rev?*%
%TF.SameCoordinates,Original*%
%TF.FileFunction,Copper,L2,Bot*%
%TF.FilePolarity,Positive*%
%FSLAX46Y46*%
G04 Gerber Fmt 4.6, Leading zero omitted, Abs format (unit mm)*
G04 Created by KiCad (PCBNEW 6.0.2+dfsg-1) date 2023-01-04 10:20:38*
%MOMM*%
%LPD*%
G01*
G04 APERTURE LIST*
%TA.AperFunction,ComponentPad*%
%ADD10R,1.700000X1.700000*%
%TD*%
%TA.AperFunction,ComponentPad*%
%ADD11O,1.700000X1.700000*%
%TD*%
%TA.AperFunction,ComponentPad*%
%ADD12O,2.000000X0.900000*%
%TD*%
%TA.AperFunction,ComponentPad*%
%ADD13O,1.700000X0.900000*%
%TD*%
%TA.AperFunction,ViaPad*%
%ADD14C,0.500000*%
%TD*%
%TA.AperFunction,ViaPad*%
%ADD15C,0.800000*%
%TD*%
%TA.AperFunction,Conductor*%
%ADD16C,0.500000*%
%TD*%
%TA.AperFunction,Conductor*%
%ADD17C,0.200000*%
%TD*%
G04 APERTURE END LIST*
D10*
%TO.P,J2,1,Pin_1*%
%TO.N,GPIO0*%
X167640000Y-101600000D03*
D11*
%TO.P,J2,2,Pin_2*%
%TO.N,GPIO1*%
X165100000Y-101600000D03*
%TO.P,J2,3,Pin_3*%
%TO.N,GND*%
X162560000Y-101600000D03*
%TO.P,J2,4,Pin_4*%
%TO.N,GPIO2*%
X160020000Y-101600000D03*
%TO.P,J2,5,Pin_5*%
%TO.N,GPIO3*%
X157480000Y-101600000D03*
%TO.P,J2,6,Pin_6*%
%TO.N,GPIO4*%
X154940000Y-101600000D03*
%TO.P,J2,7,Pin_7*%
%TO.N,GPIO5*%
X152400000Y-101600000D03*
%TO.P,J2,8,Pin_8*%
%TO.N,GND*%
X149860000Y-101600000D03*
%TO.P,J2,9,Pin_9*%
%TO.N,GPIO6*%
X147320000Y-101600000D03*
%TO.P,J2,10,Pin_10*%
%TO.N,GPIO7*%
X144780000Y-101600000D03*
%TO.P,J2,11,Pin_11*%
%TO.N,GPIO8*%
X142240000Y-101600000D03*
%TO.P,J2,12,Pin_12*%
%TO.N,GPIO9*%
X139700000Y-101600000D03*
%TO.P,J2,13,Pin_13*%
%TO.N,GND*%
X137160000Y-101600000D03*
%TO.P,J2,14,Pin_14*%
%TO.N,GPIO10*%
X134620000Y-101600000D03*
%TO.P,J2,15,Pin_15*%
%TO.N,GPIO11*%
X132080000Y-101600000D03*
%TO.P,J2,16,Pin_16*%
%TO.N,GPIO12*%
X129540000Y-101600000D03*
%TO.P,J2,17,Pin_17*%
%TO.N,GPIO13*%
X127000000Y-101600000D03*
%TO.P,J2,18,Pin_18*%
%TO.N,GND*%
X124460000Y-101600000D03*
%TO.P,J2,19,Pin_19*%
%TO.N,GPIO14*%
X121920000Y-101600000D03*
%TO.P,J2,20,Pin_20*%
%TO.N,GPIO15*%
X119380000Y-101600000D03*
%TD*%
D10*
%TO.P,J3,1,Pin_1*%
%TO.N,GPIO16*%
X119380000Y-119380000D03*
D11*
%TO.P,J3,2,Pin_2*%
%TO.N,GPIO17*%
X121920000Y-119380000D03*
%TO.P,J3,3,Pin_3*%
%TO.N,GND*%
X124460000Y-119380000D03*
%TO.P,J3,4,Pin_4*%
%TO.N,GPIO18*%
X127000000Y-119380000D03*
%TO.P,J3,5,Pin_5*%
%TO.N,GPIO19*%
X129540000Y-119380000D03*
%TO.P,J3,6,Pin_6*%
%TO.N,GPIO20*%
X132080000Y-119380000D03*
%TO.P,J3,7,Pin_7*%
%TO.N,GPIO21*%
X134620000Y-119380000D03*
%TO.P,J3,8,Pin_8*%
%TO.N,GND*%
X137160000Y-119380000D03*
%TO.P,J3,9,Pin_9*%
%TO.N,GPIO22*%
X139700000Y-119380000D03*
%TO.P,J3,10,Pin_10*%
%TO.N,RUN*%
X142240000Y-119380000D03*
%TO.P,J3,11,Pin_11*%
%TO.N,GPIO26{slash}ADC0*%
X144780000Y-119380000D03*
%TO.P,J3,12,Pin_12*%
%TO.N,GPIO27{slash}ADC1*%
X147320000Y-119380000D03*
%TO.P,J3,13,Pin_13*%
%TO.N,GND*%
X149860000Y-119380000D03*
%TO.P,J3,14,Pin_14*%
%TO.N,GPIO28{slash}ADC2*%
X152400000Y-119380000D03*
%TO.P,J3,15,Pin_15*%
%TO.N,ADC_VREF*%
X154940000Y-119380000D03*
%TO.P,J3,16,Pin_16*%
%TO.N,+3V3*%
X157480000Y-119380000D03*
%TO.P,J3,17,Pin_17*%
X160020000Y-119380000D03*
%TO.P,J3,18,Pin_18*%
%TO.N,GND*%
X162560000Y-119380000D03*
%TO.P,J3,19,Pin_19*%
%TO.N,VSYS*%
X165100000Y-119380000D03*
%TO.P,J3,20,Pin_20*%
%TO.N,VBUS*%
X167640000Y-119380000D03*
%TD*%
D10*
%TO.P,JP1,1,A*%
%TO.N,Net-(JP1-Pad1)*%
X153939000Y-107061000D03*
D11*
%TO.P,JP1,2,C*%
%TO.N,GND*%
X156479000Y-107061000D03*
%TO.P,JP1,3,B*%
%TO.N,unconnected-(JP1-Pad3)*%
X159019000Y-107061000D03*
%TD*%
D12*
%TO.P,J1,S1,SHIELD*%
%TO.N,Net-(J1-PadS1)*%
X163470000Y-114815000D03*
%TO.P,J1,S2,SHIELD*%
X163470000Y-106165000D03*
D13*
%TO.P,J1,S3,SHIELD*%
X167640000Y-114815000D03*
%TO.P,J1,S4,SHIELD*%
X167640000Y-106165000D03*
%TD*%
D14*
%TO.N,GND*%
X143891000Y-109728000D03*
X132842000Y-108712000D03*
X126746000Y-106934000D03*
X127889000Y-112903000D03*
D15*
X123190000Y-114300000D03*
X156210000Y-102870000D03*
X158750000Y-102870000D03*
X166370000Y-110490000D03*
D14*
%TO.N,+3V3*%
X148463000Y-113792000D03*
X134747000Y-114300000D03*
%TO.N,GND*%
X161798000Y-114046000D03*
%TO.N,+1V1*%
X132842000Y-112140500D03*
X132842000Y-110140500D03*
%TO.N,/RUSB_D_N*%
X158767122Y-111234878D03*
%TO.N,/RUSB_D_P*%
X158750000Y-109728000D03*
%TO.N,+1V1*%
X127852989Y-111239500D03*
D15*
%TO.N,GND*%
X124206000Y-108966000D03*
D14*
%TO.N,/RUSB_D_N*%
X135382000Y-111895624D03*
%TO.N,/RUSB_D_P*%
X132894506Y-111340500D03*
D15*
%TO.N,GND*%
X129159000Y-111633000D03*
X131445000Y-111633000D03*
X131445000Y-109347000D03*
X129159000Y-109347000D03*
X130302000Y-110490000D03*
D14*
X119634000Y-109601000D03*
X118999000Y-104013000D03*
X136652000Y-105410000D03*
X137033000Y-116459000D03*
%TO.N,RUN*%
X125561500Y-114554000D03*
D15*
%TO.N,GND*%
X139864763Y-106642237D03*
D14*
%TO.N,Net-(R6-Pad1)*%
X139954000Y-114468500D03*
X134569444Y-113248556D03*
%TO.N,GPIO29{slash}ADC3*%
X136398000Y-113284000D03*
D15*
%TO.N,GPIO24*%
X166431497Y-117067258D03*
%TO.N,GND*%
X137922000Y-111506000D03*
D14*
%TO.N,GPIO29{slash}ADC3*%
X131826000Y-113030000D03*
%TO.N,GPIO24*%
X130683000Y-115189000D03*
%TO.N,GPIO0*%
X134239000Y-106299000D03*
D15*
%TO.N,GND*%
X133731000Y-113919000D03*
X130429000Y-116713000D03*
X118618000Y-115189000D03*
X148717000Y-110236000D03*
X159131000Y-112903000D03*
D14*
X128258580Y-105187794D03*
D15*
X161798000Y-106680000D03*
X144907000Y-115316000D03*
X168402000Y-117856000D03*
X151257000Y-115189000D03*
%TO.N,Net-(C9-Pad1)*%
X148971000Y-108585000D03*
X138938000Y-111506000D03*
D14*
%TO.N,GPIO7*%
X129921000Y-104267000D03*
%TO.N,GPIO8*%
X127762000Y-107950000D03*
%TO.N,GPIO9*%
X128588711Y-103819020D03*
%TD*%
D16*
%TO.N,+3V3*%
X148463000Y-113792000D02*
X141619759Y-113792000D01*
X141619759Y-113792000D02*
X140222759Y-115189000D01*
X140222759Y-115189000D02*
X139391144Y-115189000D01*
X139391144Y-115189000D02*
X138756144Y-114554000D01*
X138756144Y-114554000D02*
X135001000Y-114554000D01*
X135001000Y-114554000D02*
X134747000Y-114300000D01*
D17*
%TO.N,GPIO24*%
X166431497Y-117067258D02*
X166322230Y-116957991D01*
X166322230Y-116957991D02*
X140382997Y-116957991D01*
X140382997Y-116957991D02*
X138868007Y-115443001D01*
X138868007Y-115443001D02*
X130937000Y-115443000D01*
X130937000Y-115443000D02*
X130683000Y-115189000D01*
%TO.N,Net-(R6-Pad1)*%
X139954000Y-114468500D02*
X139404500Y-113919000D01*
X139404500Y-113919000D02*
X135239888Y-113919000D01*
X135239888Y-113919000D02*
X134569444Y-113248556D01*
%TO.N,GPIO7*%
X129921000Y-104267000D02*
X129922060Y-104265940D01*
X129922060Y-104265940D02*
X142114060Y-104265940D01*
X142114060Y-104265940D02*
X144780000Y-101600000D01*
%TO.N,GPIO8*%
X127762000Y-107950000D02*
X127709069Y-107897069D01*
X140123571Y-103716429D02*
X142240000Y-101600000D01*
X127709069Y-107897069D02*
X127709069Y-104700931D01*
X129582571Y-103716429D02*
X140123571Y-103716429D01*
X127709069Y-104700931D02*
X128016000Y-104394000D01*
X128016000Y-104394000D02*
X128905000Y-104394000D01*
X128905000Y-104394000D02*
X129582571Y-103716429D01*
%TO.N,GPIO9*%
X128588711Y-103819020D02*
X129090822Y-103316909D01*
X129090822Y-103316909D02*
X137983091Y-103316909D01*
X137983091Y-103316909D02*
X139700000Y-101600000D01*
%TO.N,RUN*%
X126850020Y-115842520D02*
X138702520Y-115842520D01*
X125561500Y-114554000D02*
X126850020Y-115842520D01*
X138702520Y-115842520D02*
X142240000Y-119380000D01*
%TO.N,/RUSB_D_N*%
X135382000Y-111895624D02*
X136152624Y-111895624D01*
X136152624Y-111895624D02*
X136906000Y-112649000D01*
X136906000Y-112649000D02*
X156337000Y-112649000D01*
X156337000Y-112649000D02*
X157751122Y-111234878D01*
X157751122Y-111234878D02*
X158767122Y-111234878D01*
%TO.N,+1V1*%
X132842000Y-112140500D02*
X132344995Y-111643495D01*
X132344995Y-111643495D02*
X132344995Y-110637505D01*
X132344995Y-110637505D02*
X132842000Y-110140500D01*
%TO.N,/RUSB_D_P*%
X158115000Y-109728000D02*
X158750000Y-109728000D01*
X132894506Y-111340500D02*
X133038885Y-111196121D01*
X133038885Y-111196121D02*
X136596121Y-111196121D01*
X136596121Y-111196121D02*
X137605511Y-112205511D01*
X137605511Y-112205511D02*
X155637489Y-112205511D01*
X155637489Y-112205511D02*
X158115000Y-109728000D01*
%TO.N,+1V1*%
X127852989Y-111239500D02*
X128159000Y-110933489D01*
X131921500Y-110140500D02*
X132842000Y-110140500D01*
X128159000Y-110933489D02*
X129602489Y-110933489D01*
X129602489Y-110933489D02*
X129858511Y-111189511D01*
X129858511Y-111189511D02*
X130872489Y-111189511D01*
X130872489Y-111189511D02*
X131921500Y-110140500D01*
%TO.N,GPIO29{slash}ADC3*%
X131826000Y-113030000D02*
X132156955Y-112699045D01*
X132156955Y-112699045D02*
X135813045Y-112699045D01*
X135813045Y-112699045D02*
X136398000Y-113284000D01*
D16*
%TO.N,Net-(C9-Pad1)*%
X138938000Y-111506000D02*
X141859000Y-108585000D01*
X141859000Y-108585000D02*
X148971000Y-108585000D01*
D17*
%TO.N,GPIO0*%
X134239000Y-106299000D02*
X139218741Y-106299000D01*
X139218741Y-106299000D02*
X140102261Y-105415480D01*
X140102261Y-105415480D02*
X163824520Y-105415480D01*
X163824520Y-105415480D02*
X167640000Y-101600000D01*
%TD*%
%TA.AperFunction,Conductor*%
%TO.N,GND*%
G36*
X121533686Y-100350002D02*
G01*
X121580179Y-100403658D01*
X121590283Y-100473932D01*
X121560789Y-100538512D01*
X121509176Y-100574212D01*
X121470256Y-100588571D01*
X121442463Y-100598824D01*
X121268010Y-100702612D01*
X121263670Y-100706418D01*
X121263666Y-100706421D01*
X121119733Y-100832648D01*
X121115392Y-100836455D01*
X120989720Y-100995869D01*
X120987031Y-101000980D01*
X120987029Y-101000983D01*
X120974073Y-101025609D01*
X120895203Y-101175515D01*
X120835007Y-101369378D01*
X120811148Y-101570964D01*
X120824424Y-101773522D01*
X120825845Y-101779118D01*
X120825846Y-101779123D01*
X120867514Y-101943186D01*
X120874392Y-101970269D01*
X120876807Y-101975507D01*
X120876809Y-101975512D01*
X120956843Y-102149120D01*
X120959377Y-102154616D01*
X121076533Y-102320389D01*
X121221938Y-102462035D01*
X121390720Y-102574812D01*
X121396023Y-102577090D01*
X121396026Y-102577092D01*
X121508211Y-102625290D01*
X121577228Y-102654942D01*
X121650244Y-102671464D01*
X121769579Y-102698467D01*
X121769584Y-102698468D01*
X121775216Y-102699742D01*
X121780987Y-102699969D01*
X121780989Y-102699969D01*
X121840756Y-102702317D01*
X121978053Y-102707712D01*
X122085341Y-102692156D01*
X122173231Y-102679413D01*
X122173236Y-102679412D01*
X122178945Y-102678584D01*
X122184409Y-102676729D01*
X122184414Y-102676728D01*
X122365693Y-102615192D01*
X122365698Y-102615190D01*
X122371165Y-102613334D01*
X122377019Y-102610056D01*
X122485504Y-102549301D01*
X122548276Y-102514147D01*
X122595265Y-102475067D01*
X122699913Y-102388031D01*
X122704345Y-102384345D01*
X122761734Y-102315343D01*
X122830453Y-102232718D01*
X122830455Y-102232715D01*
X122834147Y-102228276D01*
X122911941Y-102089365D01*
X122930510Y-102056208D01*
X122930511Y-102056206D01*
X122933334Y-102051165D01*
X122935190Y-102045698D01*
X122935192Y-102045693D01*
X122996728Y-101864414D01*
X122996729Y-101864409D01*
X122998584Y-101858945D01*
X122999412Y-101853236D01*
X122999413Y-101853231D01*
X123015453Y-101742602D01*
X123362899Y-101742602D01*
X123364542Y-101767676D01*
X123366343Y-101779046D01*
X123413443Y-101964502D01*
X123417284Y-101975348D01*
X123497394Y-102149120D01*
X123503145Y-102159081D01*
X123613579Y-102315343D01*
X123621057Y-102324098D01*
X123758114Y-102457612D01*
X123767058Y-102464855D01*
X123926156Y-102571161D01*
X123936266Y-102576651D01*
X124112077Y-102652185D01*
X124123020Y-102655740D01*
X124309647Y-102697970D01*
X124316383Y-102698857D01*
X124330302Y-102695357D01*
X124330658Y-102694978D01*
X124333000Y-102685144D01*
X124333000Y-102679095D01*
X124587000Y-102679095D01*
X124590966Y-102692601D01*
X124604966Y-102694605D01*
X124713106Y-102678926D01*
X124724302Y-102676238D01*
X124905497Y-102614730D01*
X124915994Y-102610056D01*
X125082958Y-102516552D01*
X125092430Y-102510042D01*
X125239553Y-102387682D01*
X125247682Y-102379553D01*
X125370042Y-102232430D01*
X125376552Y-102222958D01*
X125470056Y-102055994D01*
X125474730Y-102045497D01*
X125536238Y-101864302D01*
X125538926Y-101853106D01*
X125554610Y-101744929D01*
X125552624Y-101730993D01*
X125539056Y-101727000D01*
X124605115Y-101727000D01*
X124589876Y-101731475D01*
X124588671Y-101732865D01*
X124587000Y-101740548D01*
X124587000Y-102679095D01*
X124333000Y-102679095D01*
X124333000Y-101745115D01*
X124328525Y-101729876D01*
X124327135Y-101728671D01*
X124319452Y-101727000D01*
X123379991Y-101727000D01*
X123364951Y-101731416D01*
X123362899Y-101742602D01*
X123015453Y-101742602D01*
X123027179Y-101661727D01*
X123027712Y-101658053D01*
X123029232Y-101600000D01*
X123017562Y-101473000D01*
X123011187Y-101403613D01*
X123011186Y-101403610D01*
X123010658Y-101397859D01*
X123004271Y-101375211D01*
X122957125Y-101208046D01*
X122957124Y-101208044D01*
X122955557Y-101202487D01*
X122945076Y-101181232D01*
X122868331Y-101025609D01*
X122865776Y-101020428D01*
X122744320Y-100857779D01*
X122595258Y-100719987D01*
X122590375Y-100716906D01*
X122590371Y-100716903D01*
X122444728Y-100625010D01*
X122423581Y-100611667D01*
X122326737Y-100573030D01*
X122270877Y-100529209D01*
X122247577Y-100462145D01*
X122264233Y-100393130D01*
X122315557Y-100344075D01*
X122373427Y-100330000D01*
X124007010Y-100330000D01*
X124075131Y-100350002D01*
X124121624Y-100403658D01*
X124131728Y-100473932D01*
X124102234Y-100538512D01*
X124050621Y-100574212D01*
X123988095Y-100597279D01*
X123977717Y-100602229D01*
X123813273Y-100700063D01*
X123803961Y-100706829D01*
X123660097Y-100832994D01*
X123652180Y-100841337D01*
X123533718Y-100991605D01*
X123527450Y-101001256D01*
X123438360Y-101170589D01*
X123433951Y-101181232D01*
X123377210Y-101363967D01*
X123374820Y-101375211D01*
X123365375Y-101455012D01*
X123367817Y-101469431D01*
X123380559Y-101473000D01*
X125538945Y-101473000D01*
X125553490Y-101468729D01*
X125555553Y-101456595D01*
X125550693Y-101403707D01*
X125548595Y-101392386D01*
X125496658Y-101208231D01*
X125492533Y-101197484D01*
X125407903Y-101025871D01*
X125401893Y-101016063D01*
X125287400Y-100862739D01*
X125279710Y-100854199D01*
X125139192Y-100724304D01*
X125130067Y-100717303D01*
X124968236Y-100615195D01*
X124957989Y-100609974D01*
X124865387Y-100573030D01*
X124809528Y-100529210D01*
X124786227Y-100462146D01*
X124802883Y-100393130D01*
X124854207Y-100344076D01*
X124912077Y-100330000D01*
X126545565Y-100330000D01*
X126613686Y-100350002D01*
X126660179Y-100403658D01*
X126670283Y-100473932D01*
X126640789Y-100538512D01*
X126589176Y-100574212D01*
X126550256Y-100588571D01*
X126522463Y-100598824D01*
X126348010Y-100702612D01*
X126343670Y-100706418D01*
X126343666Y-100706421D01*
X126199733Y-100832648D01*
X126195392Y-100836455D01*
X126069720Y-100995869D01*
X126067031Y-101000980D01*
X126067029Y-101000983D01*
X126054073Y-101025609D01*
X125975203Y-101175515D01*
X125915007Y-101369378D01*
X125891148Y-101570964D01*
X125904424Y-101773522D01*
X125905845Y-101779118D01*
X125905846Y-101779123D01*
X125947514Y-101943186D01*
X125954392Y-101970269D01*
X125956807Y-101975507D01*
X125956809Y-101975512D01*
X126036843Y-102149120D01*
X126039377Y-102154616D01*
X126156533Y-102320389D01*
X126301938Y-102462035D01*
X126470720Y-102574812D01*
X126476023Y-102577090D01*
X126476026Y-102577092D01*
X126588211Y-102625290D01*
X126657228Y-102654942D01*
X126730244Y-102671464D01*
X126849579Y-102698467D01*
X126849584Y-102698468D01*
X126855216Y-102699742D01*
X126860987Y-102699969D01*
X126860989Y-102699969D01*
X126920756Y-102702317D01*
X127058053Y-102707712D01*
X127165341Y-102692156D01*
X127253231Y-102679413D01*
X127253236Y-102679412D01*
X127258945Y-102678584D01*
X127264409Y-102676729D01*
X127264414Y-102676728D01*
X127445693Y-102615192D01*
X127445698Y-102615190D01*
X127451165Y-102613334D01*
X127457019Y-102610056D01*
X127565504Y-102549301D01*
X127628276Y-102514147D01*
X127675265Y-102475067D01*
X127779913Y-102388031D01*
X127784345Y-102384345D01*
X127841734Y-102315343D01*
X127910453Y-102232718D01*
X127910455Y-102232715D01*
X127914147Y-102228276D01*
X127991941Y-102089365D01*
X128010510Y-102056208D01*
X128010511Y-102056206D01*
X128013334Y-102051165D01*
X128015190Y-102045698D01*
X128015192Y-102045693D01*
X128076728Y-101864414D01*
X128076729Y-101864409D01*
X128078584Y-101858945D01*
X128079412Y-101853236D01*
X128079413Y-101853231D01*
X128107179Y-101661727D01*
X128107712Y-101658053D01*
X128109232Y-101600000D01*
X128097562Y-101473000D01*
X128091187Y-101403613D01*
X128091186Y-101403610D01*
X128090658Y-101397859D01*
X128084271Y-101375211D01*
X128037125Y-101208046D01*
X128037124Y-101208044D01*
X128035557Y-101202487D01*
X128025076Y-101181232D01*
X127948331Y-101025609D01*
X127945776Y-101020428D01*
X127824320Y-100857779D01*
X127675258Y-100719987D01*
X127670375Y-100716906D01*
X127670371Y-100716903D01*
X127524728Y-100625010D01*
X127503581Y-100611667D01*
X127406737Y-100573030D01*
X127350877Y-100529209D01*
X127327577Y-100462145D01*
X127344233Y-100393130D01*
X127395557Y-100344075D01*
X127453427Y-100330000D01*
X129085565Y-100330000D01*
X129153686Y-100350002D01*
X129200179Y-100403658D01*
X129210283Y-100473932D01*
X129180789Y-100538512D01*
X129129176Y-100574212D01*
X129090256Y-100588571D01*
X129062463Y-100598824D01*
X128888010Y-100702612D01*
X128883670Y-100706418D01*
X128883666Y-100706421D01*
X128739733Y-100832648D01*
X128735392Y-100836455D01*
X128609720Y-100995869D01*
X128607031Y-101000980D01*
X128607029Y-101000983D01*
X128594073Y-101025609D01*
X128515203Y-101175515D01*
X128455007Y-101369378D01*
X128431148Y-101570964D01*
X128444424Y-101773522D01*
X128445845Y-101779118D01*
X128445846Y-101779123D01*
X128487514Y-101943186D01*
X128494392Y-101970269D01*
X128496807Y-101975507D01*
X128496809Y-101975512D01*
X128576843Y-102149120D01*
X128579377Y-102154616D01*
X128696533Y-102320389D01*
X128841938Y-102462035D01*
X129010720Y-102574812D01*
X129016023Y-102577090D01*
X129016026Y-102577092D01*
X129128211Y-102625290D01*
X129197228Y-102654942D01*
X129270244Y-102671464D01*
X129389579Y-102698467D01*
X129389584Y-102698468D01*
X129395216Y-102699742D01*
X129400987Y-102699969D01*
X129400989Y-102699969D01*
X129460756Y-102702317D01*
X129598053Y-102707712D01*
X129705341Y-102692156D01*
X129793231Y-102679413D01*
X129793236Y-102679412D01*
X129798945Y-102678584D01*
X129804409Y-102676729D01*
X129804414Y-102676728D01*
X129985693Y-102615192D01*
X129985698Y-102615190D01*
X129991165Y-102613334D01*
X129997019Y-102610056D01*
X130105504Y-102549301D01*
X130168276Y-102514147D01*
X130215265Y-102475067D01*
X130319913Y-102388031D01*
X130324345Y-102384345D01*
X130381734Y-102315343D01*
X130450453Y-102232718D01*
X130450455Y-102232715D01*
X130454147Y-102228276D01*
X130531941Y-102089365D01*
X130550510Y-102056208D01*
X130550511Y-102056206D01*
X130553334Y-102051165D01*
X130555190Y-102045698D01*
X130555192Y-102045693D01*
X130616728Y-101864414D01*
X130616729Y-101864409D01*
X130618584Y-101858945D01*
X130619412Y-101853236D01*
X130619413Y-101853231D01*
X130647179Y-101661727D01*
X130647712Y-101658053D01*
X130649232Y-101600000D01*
X130637562Y-101473000D01*
X130631187Y-101403613D01*
X130631186Y-101403610D01*
X130630658Y-101397859D01*
X130624271Y-101375211D01*
X130577125Y-101208046D01*
X130577124Y-101208044D01*
X130575557Y-101202487D01*
X130565076Y-101181232D01*
X130488331Y-101025609D01*
X130485776Y-101020428D01*
X130364320Y-100857779D01*
X130215258Y-100719987D01*
X130210375Y-100716906D01*
X130210371Y-100716903D01*
X130064728Y-100625010D01*
X130043581Y-100611667D01*
X129946737Y-100573030D01*
X129890877Y-100529209D01*
X129867577Y-100462145D01*
X129884233Y-100393130D01*
X129935557Y-100344075D01*
X129993427Y-100330000D01*
X131625565Y-100330000D01*
X131693686Y-100350002D01*
X131740179Y-100403658D01*
X131750283Y-100473932D01*
X131720789Y-100538512D01*
X131669176Y-100574212D01*
X131630256Y-100588571D01*
X131602463Y-100598824D01*
X131428010Y-100702612D01*
X131423670Y-100706418D01*
X131423666Y-100706421D01*
X131279733Y-100832648D01*
X131275392Y-100836455D01*
X131149720Y-100995869D01*
X131147031Y-101000980D01*
X131147029Y-101000983D01*
X131134073Y-101025609D01*
X131055203Y-101175515D01*
X130995007Y-101369378D01*
X130971148Y-101570964D01*
X130984424Y-101773522D01*
X130985845Y-101779118D01*
X130985846Y-101779123D01*
X131027514Y-101943186D01*
X131034392Y-101970269D01*
X131036807Y-101975507D01*
X131036809Y-101975512D01*
X131116843Y-102149120D01*
X131119377Y-102154616D01*
X131236533Y-102320389D01*
X131381938Y-102462035D01*
X131550720Y-102574812D01*
X131556023Y-102577090D01*
X131556026Y-102577092D01*
X131668211Y-102625290D01*
X131737228Y-102654942D01*
X131810244Y-102671464D01*
X131929579Y-102698467D01*
X131929584Y-102698468D01*
X131935216Y-102699742D01*
X131940987Y-102699969D01*
X131940989Y-102699969D01*
X132000756Y-102702317D01*
X132138053Y-102707712D01*
X132245341Y-102692156D01*
X132333231Y-102679413D01*
X132333236Y-102679412D01*
X132338945Y-102678584D01*
X132344409Y-102676729D01*
X132344414Y-102676728D01*
X132525693Y-102615192D01*
X132525698Y-102615190D01*
X132531165Y-102613334D01*
X132537019Y-102610056D01*
X132645504Y-102549301D01*
X132708276Y-102514147D01*
X132755265Y-102475067D01*
X132859913Y-102388031D01*
X132864345Y-102384345D01*
X132921734Y-102315343D01*
X132990453Y-102232718D01*
X132990455Y-102232715D01*
X132994147Y-102228276D01*
X133071941Y-102089365D01*
X133090510Y-102056208D01*
X133090511Y-102056206D01*
X133093334Y-102051165D01*
X133095190Y-102045698D01*
X133095192Y-102045693D01*
X133156728Y-101864414D01*
X133156729Y-101864409D01*
X133158584Y-101858945D01*
X133159412Y-101853236D01*
X133159413Y-101853231D01*
X133187179Y-101661727D01*
X133187712Y-101658053D01*
X133189232Y-101600000D01*
X133177562Y-101473000D01*
X133171187Y-101403613D01*
X133171186Y-101403610D01*
X133170658Y-101397859D01*
X133164271Y-101375211D01*
X133117125Y-101208046D01*
X133117124Y-101208044D01*
X133115557Y-101202487D01*
X133105076Y-101181232D01*
X133028331Y-101025609D01*
X133025776Y-101020428D01*
X132904320Y-100857779D01*
X132755258Y-100719987D01*
X132750375Y-100716906D01*
X132750371Y-100716903D01*
X132604728Y-100625010D01*
X132583581Y-100611667D01*
X132486737Y-100573030D01*
X132430877Y-100529209D01*
X132407577Y-100462145D01*
X132424233Y-100393130D01*
X132475557Y-100344075D01*
X132533427Y-100330000D01*
X134165565Y-100330000D01*
X134233686Y-100350002D01*
X134280179Y-100403658D01*
X134290283Y-100473932D01*
X134260789Y-100538512D01*
X134209176Y-100574212D01*
X134170256Y-100588571D01*
X134142463Y-100598824D01*
X133968010Y-100702612D01*
X133963670Y-100706418D01*
X133963666Y-100706421D01*
X133819733Y-100832648D01*
X133815392Y-100836455D01*
X133689720Y-100995869D01*
X133687031Y-101000980D01*
X133687029Y-101000983D01*
X133674073Y-101025609D01*
X133595203Y-101175515D01*
X133535007Y-101369378D01*
X133511148Y-101570964D01*
X133524424Y-101773522D01*
X133525845Y-101779118D01*
X133525846Y-101779123D01*
X133567514Y-101943186D01*
X133574392Y-101970269D01*
X133576807Y-101975507D01*
X133576809Y-101975512D01*
X133656843Y-102149120D01*
X133659377Y-102154616D01*
X133776533Y-102320389D01*
X133921938Y-102462035D01*
X134090720Y-102574812D01*
X134096023Y-102577090D01*
X134096026Y-102577092D01*
X134208211Y-102625290D01*
X134277228Y-102654942D01*
X134350244Y-102671464D01*
X134469579Y-102698467D01*
X134469584Y-102698468D01*
X134475216Y-102699742D01*
X134480987Y-102699969D01*
X134480989Y-102699969D01*
X134540756Y-102702317D01*
X134678053Y-102707712D01*
X134785341Y-102692156D01*
X134873231Y-102679413D01*
X134873236Y-102679412D01*
X134878945Y-102678584D01*
X134884409Y-102676729D01*
X134884414Y-102676728D01*
X135065693Y-102615192D01*
X135065698Y-102615190D01*
X135071165Y-102613334D01*
X135077019Y-102610056D01*
X135185504Y-102549301D01*
X135248276Y-102514147D01*
X135295265Y-102475067D01*
X135399913Y-102388031D01*
X135404345Y-102384345D01*
X135461734Y-102315343D01*
X135530453Y-102232718D01*
X135530455Y-102232715D01*
X135534147Y-102228276D01*
X135611941Y-102089365D01*
X135630510Y-102056208D01*
X135630511Y-102056206D01*
X135633334Y-102051165D01*
X135635190Y-102045698D01*
X135635192Y-102045693D01*
X135696728Y-101864414D01*
X135696729Y-101864409D01*
X135698584Y-101858945D01*
X135699412Y-101853236D01*
X135699413Y-101853231D01*
X135715453Y-101742602D01*
X136062899Y-101742602D01*
X136064542Y-101767676D01*
X136066343Y-101779046D01*
X136113443Y-101964502D01*
X136117284Y-101975348D01*
X136197394Y-102149120D01*
X136203145Y-102159081D01*
X136313579Y-102315343D01*
X136321057Y-102324098D01*
X136458114Y-102457612D01*
X136467058Y-102464855D01*
X136626156Y-102571161D01*
X136636266Y-102576651D01*
X136812077Y-102652185D01*
X136823020Y-102655740D01*
X137009647Y-102697970D01*
X137016383Y-102698857D01*
X137030302Y-102695357D01*
X137030658Y-102694978D01*
X137033000Y-102685144D01*
X137033000Y-102679095D01*
X137287000Y-102679095D01*
X137290966Y-102692601D01*
X137304966Y-102694605D01*
X137413106Y-102678926D01*
X137424302Y-102676238D01*
X137605497Y-102614730D01*
X137615994Y-102610056D01*
X137782958Y-102516552D01*
X137792430Y-102510042D01*
X137939553Y-102387682D01*
X137947682Y-102379553D01*
X138070042Y-102232430D01*
X138076552Y-102222958D01*
X138170056Y-102055994D01*
X138174730Y-102045497D01*
X138236238Y-101864302D01*
X138238926Y-101853106D01*
X138254610Y-101744929D01*
X138252624Y-101730993D01*
X138239056Y-101727000D01*
X137305115Y-101727000D01*
X137289876Y-101731475D01*
X137288671Y-101732865D01*
X137287000Y-101740548D01*
X137287000Y-102679095D01*
X137033000Y-102679095D01*
X137033000Y-101745115D01*
X137028525Y-101729876D01*
X137027135Y-101728671D01*
X137019452Y-101727000D01*
X136079991Y-101727000D01*
X136064951Y-101731416D01*
X136062899Y-101742602D01*
X135715453Y-101742602D01*
X135727179Y-101661727D01*
X135727712Y-101658053D01*
X135729232Y-101600000D01*
X135717562Y-101473000D01*
X135711187Y-101403613D01*
X135711186Y-101403610D01*
X135710658Y-101397859D01*
X135704271Y-101375211D01*
X135657125Y-101208046D01*
X135657124Y-101208044D01*
X135655557Y-101202487D01*
X135645076Y-101181232D01*
X135568331Y-101025609D01*
X135565776Y-101020428D01*
X135444320Y-100857779D01*
X135295258Y-100719987D01*
X135290375Y-100716906D01*
X135290371Y-100716903D01*
X135144728Y-100625010D01*
X135123581Y-100611667D01*
X135026737Y-100573030D01*
X134970877Y-100529209D01*
X134947577Y-100462145D01*
X134964233Y-100393130D01*
X135015557Y-100344075D01*
X135073427Y-100330000D01*
X136707010Y-100330000D01*
X136775131Y-100350002D01*
X136821624Y-100403658D01*
X136831728Y-100473932D01*
X136802234Y-100538512D01*
X136750621Y-100574212D01*
X136688095Y-100597279D01*
X136677717Y-100602229D01*
X136513273Y-100700063D01*
X136503961Y-100706829D01*
X136360097Y-100832994D01*
X136352180Y-100841337D01*
X136233718Y-100991605D01*
X136227450Y-101001256D01*
X136138360Y-101170589D01*
X136133951Y-101181232D01*
X136077210Y-101363967D01*
X136074820Y-101375211D01*
X136065375Y-101455012D01*
X136067817Y-101469431D01*
X136080559Y-101473000D01*
X138238945Y-101473000D01*
X138253490Y-101468729D01*
X138255553Y-101456595D01*
X138250693Y-101403707D01*
X138248595Y-101392386D01*
X138196658Y-101208231D01*
X138192533Y-101197484D01*
X138107903Y-101025871D01*
X138101893Y-101016063D01*
X137987400Y-100862739D01*
X137979710Y-100854199D01*
X137839192Y-100724304D01*
X137830067Y-100717303D01*
X137668236Y-100615195D01*
X137657989Y-100609974D01*
X137565387Y-100573030D01*
X137509528Y-100529210D01*
X137486227Y-100462146D01*
X137502883Y-100393130D01*
X137554207Y-100344076D01*
X137612077Y-100330000D01*
X139245565Y-100330000D01*
X139313686Y-100350002D01*
X139360179Y-100403658D01*
X139370283Y-100473932D01*
X139340789Y-100538512D01*
X139289176Y-100574212D01*
X139250256Y-100588571D01*
X139222463Y-100598824D01*
X139048010Y-100702612D01*
X139043670Y-100706418D01*
X139043666Y-100706421D01*
X138899733Y-100832648D01*
X138895392Y-100836455D01*
X138769720Y-100995869D01*
X138767031Y-101000980D01*
X138767029Y-101000983D01*
X138754073Y-101025609D01*
X138675203Y-101175515D01*
X138615007Y-101369378D01*
X138591148Y-101570964D01*
X138604424Y-101773522D01*
X138605845Y-101779118D01*
X138605846Y-101779123D01*
X138647514Y-101943186D01*
X138654392Y-101970269D01*
X138672531Y-102009616D01*
X138682886Y-102079852D01*
X138653624Y-102144537D01*
X138647200Y-102151461D01*
X137873157Y-102925504D01*
X137810845Y-102959530D01*
X137784062Y-102962409D01*
X129142079Y-102962409D01*
X129122285Y-102960303D01*
X129117932Y-102960098D01*
X129107752Y-102957906D01*
X129077082Y-102961536D01*
X129071739Y-102961851D01*
X129071750Y-102961981D01*
X129066570Y-102962409D01*
X129061371Y-102962409D01*
X129056247Y-102963262D01*
X129056234Y-102963263D01*
X129043781Y-102965336D01*
X129037906Y-102966173D01*
X129000893Y-102970554D01*
X128990552Y-102971778D01*
X128982844Y-102975479D01*
X128974405Y-102976884D01*
X128932421Y-102999538D01*
X128927158Y-103002219D01*
X128884164Y-103022864D01*
X128880172Y-103026220D01*
X128878225Y-103028167D01*
X128876600Y-103029657D01*
X128876168Y-103029890D01*
X128876135Y-103029854D01*
X128875977Y-103029993D01*
X128870542Y-103032926D01*
X128863473Y-103040573D01*
X128836476Y-103069778D01*
X128833047Y-103073344D01*
X128629126Y-103277265D01*
X128566814Y-103311291D01*
X128539264Y-103314168D01*
X128531295Y-103314120D01*
X128519538Y-103314048D01*
X128510906Y-103316515D01*
X128389220Y-103351292D01*
X128389216Y-103351294D01*
X128380590Y-103353759D01*
X128373003Y-103358546D01*
X128373001Y-103358547D01*
X128367641Y-103361929D01*
X128258372Y-103430873D01*
X128162710Y-103539190D01*
X128101294Y-103670002D01*
X128079061Y-103812793D01*
X128080225Y-103821695D01*
X128080225Y-103821698D01*
X128085620Y-103862947D01*
X128089346Y-103891438D01*
X128090328Y-103898950D01*
X128079328Y-103969089D01*
X128032154Y-104022147D01*
X127986079Y-104039578D01*
X127972646Y-104041814D01*
X127968958Y-104042428D01*
X127963084Y-104043264D01*
X127926071Y-104047645D01*
X127915730Y-104048869D01*
X127908022Y-104052570D01*
X127899583Y-104053975D01*
X127857599Y-104076629D01*
X127852336Y-104079310D01*
X127809342Y-104099955D01*
X127805350Y-104103311D01*
X127803403Y-104105258D01*
X127801778Y-104106748D01*
X127801346Y-104106981D01*
X127801313Y-104106945D01*
X127801155Y-104107084D01*
X127795720Y-104110017D01*
X127788651Y-104117664D01*
X127761654Y-104146869D01*
X127758226Y-104150435D01*
X127494647Y-104414015D01*
X127479167Y-104426517D01*
X127475937Y-104429456D01*
X127467187Y-104435106D01*
X127448060Y-104459369D01*
X127444510Y-104463364D01*
X127444609Y-104463448D01*
X127441251Y-104467411D01*
X127437575Y-104471087D01*
X127434552Y-104475316D01*
X127434552Y-104475317D01*
X127427215Y-104485583D01*
X127423654Y-104490326D01*
X127400572Y-104519606D01*
X127400570Y-104519610D01*
X127394123Y-104527788D01*
X127391290Y-104535856D01*
X127386316Y-104542816D01*
X127383332Y-104552794D01*
X127372649Y-104588517D01*
X127370813Y-104594166D01*
X127366669Y-104605965D01*
X127355019Y-104639139D01*
X127354569Y-104644335D01*
X127354569Y-104647040D01*
X127354472Y-104649296D01*
X127354329Y-104649772D01*
X127354283Y-104649770D01*
X127354270Y-104649969D01*
X127352501Y-104655886D01*
X127353899Y-104691475D01*
X127354472Y-104706055D01*
X127354569Y-104711001D01*
X127354569Y-107606535D01*
X127335595Y-107669981D01*
X127335999Y-107670170D01*
X127332186Y-107678292D01*
X127332185Y-107678293D01*
X127314308Y-107716371D01*
X127274583Y-107800982D01*
X127273203Y-107809846D01*
X127273202Y-107809849D01*
X127254356Y-107930892D01*
X127252350Y-107943773D01*
X127253514Y-107952675D01*
X127253514Y-107952678D01*
X127269924Y-108078164D01*
X127271088Y-108087065D01*
X127329289Y-108219339D01*
X127422276Y-108329960D01*
X127429747Y-108334933D01*
X127429748Y-108334934D01*
X127535101Y-108405063D01*
X127535103Y-108405064D01*
X127542574Y-108410037D01*
X127551138Y-108412713D01*
X127551141Y-108412714D01*
X127599214Y-108427733D01*
X127680510Y-108453132D01*
X127824998Y-108455780D01*
X127844530Y-108450455D01*
X127955763Y-108420130D01*
X127955765Y-108420129D01*
X127964422Y-108417769D01*
X128087572Y-108342154D01*
X128184551Y-108235014D01*
X128224211Y-108153155D01*
X128243645Y-108113043D01*
X128243645Y-108113042D01*
X128247560Y-108104962D01*
X128271536Y-107962453D01*
X128271688Y-107950000D01*
X128251201Y-107806948D01*
X128241267Y-107785098D01*
X128236970Y-107775649D01*
X128191388Y-107675395D01*
X128185530Y-107668596D01*
X128185527Y-107668592D01*
X128097056Y-107565918D01*
X128099131Y-107564130D01*
X128068553Y-107516194D01*
X128063569Y-107481105D01*
X128063569Y-104899961D01*
X128083571Y-104831840D01*
X128100472Y-104810867D01*
X128125932Y-104785406D01*
X128188243Y-104751380D01*
X128215029Y-104748500D01*
X128853743Y-104748500D01*
X128873537Y-104750606D01*
X128877890Y-104750811D01*
X128888070Y-104753003D01*
X128918740Y-104749373D01*
X128924083Y-104749058D01*
X128924072Y-104748928D01*
X128929252Y-104748500D01*
X128934451Y-104748500D01*
X128939575Y-104747647D01*
X128939588Y-104747646D01*
X128952041Y-104745573D01*
X128957916Y-104744736D01*
X128994929Y-104740355D01*
X129005270Y-104739131D01*
X129012978Y-104735430D01*
X129021417Y-104734025D01*
X129063401Y-104711371D01*
X129068664Y-104708690D01*
X129076870Y-104704750D01*
X129111658Y-104688045D01*
X129115650Y-104684689D01*
X129117597Y-104682742D01*
X129119222Y-104681252D01*
X129119654Y-104681019D01*
X129119687Y-104681055D01*
X129119845Y-104680916D01*
X129125280Y-104677983D01*
X129142686Y-104659154D01*
X129159357Y-104641119D01*
X129162786Y-104637553D01*
X129290956Y-104509383D01*
X129353268Y-104475357D01*
X129424083Y-104480422D01*
X129480919Y-104522969D01*
X129485092Y-104529073D01*
X129488289Y-104536339D01*
X129494063Y-104543208D01*
X129573369Y-104637553D01*
X129581276Y-104646960D01*
X129588747Y-104651933D01*
X129588748Y-104651934D01*
X129694101Y-104722063D01*
X129694103Y-104722064D01*
X129701574Y-104727037D01*
X129710138Y-104729713D01*
X129710141Y-104729714D01*
X129744201Y-104740355D01*
X129839510Y-104770132D01*
X129983998Y-104772780D01*
X130003530Y-104767455D01*
X130114763Y-104737130D01*
X130114765Y-104737129D01*
X130123422Y-104734769D01*
X130246572Y-104659154D01*
X130252596Y-104652499D01*
X130256213Y-104649496D01*
X130321401Y-104621372D01*
X130336698Y-104620440D01*
X142062803Y-104620440D01*
X142082597Y-104622546D01*
X142086950Y-104622751D01*
X142097130Y-104624943D01*
X142127800Y-104621313D01*
X142133143Y-104620998D01*
X142133132Y-104620868D01*
X142138312Y-104620440D01*
X142143511Y-104620440D01*
X142148635Y-104619587D01*
X142148648Y-104619586D01*
X142161101Y-104617513D01*
X142166976Y-104616676D01*
X142203989Y-104612295D01*
X142214330Y-104611071D01*
X142222038Y-104607370D01*
X142230477Y-104605965D01*
X142272461Y-104583311D01*
X142277724Y-104580630D01*
X142285930Y-104576690D01*
X142320718Y-104559985D01*
X142324710Y-104556629D01*
X142326657Y-104554682D01*
X142328282Y-104553192D01*
X142328714Y-104552959D01*
X142328747Y-104552995D01*
X142328905Y-104552856D01*
X142334340Y-104549923D01*
X142368417Y-104513059D01*
X142371846Y-104509493D01*
X144229377Y-102651962D01*
X144291689Y-102617936D01*
X144368210Y-102625290D01*
X144431912Y-102652659D01*
X144431921Y-102652662D01*
X144437228Y-102654942D01*
X144510244Y-102671464D01*
X144629579Y-102698467D01*
X144629584Y-102698468D01*
X144635216Y-102699742D01*
X144640987Y-102699969D01*
X144640989Y-102699969D01*
X144700756Y-102702317D01*
X144838053Y-102707712D01*
X144945341Y-102692156D01*
X145033231Y-102679413D01*
X145033236Y-102679412D01*
X145038945Y-102678584D01*
X145044409Y-102676729D01*
X145044414Y-102676728D01*
X145225693Y-102615192D01*
X145225698Y-102615190D01*
X145231165Y-102613334D01*
X145237019Y-102610056D01*
X145345504Y-102549301D01*
X145408276Y-102514147D01*
X145455265Y-102475067D01*
X145559913Y-102388031D01*
X145564345Y-102384345D01*
X145621734Y-102315343D01*
X145690453Y-102232718D01*
X145690455Y-102232715D01*
X145694147Y-102228276D01*
X145771941Y-102089365D01*
X145790510Y-102056208D01*
X145790511Y-102056206D01*
X145793334Y-102051165D01*
X145795190Y-102045698D01*
X145795192Y-102045693D01*
X145856728Y-101864414D01*
X145856729Y-101864409D01*
X145858584Y-101858945D01*
X145859412Y-101853236D01*
X145859413Y-101853231D01*
X145887179Y-101661727D01*
X145887712Y-101658053D01*
X145889232Y-101600000D01*
X145877562Y-101473000D01*
X145871187Y-101403613D01*
X145871186Y-101403610D01*
X145870658Y-101397859D01*
X145864271Y-101375211D01*
X145817125Y-101208046D01*
X145817124Y-101208044D01*
X145815557Y-101202487D01*
X145805076Y-101181232D01*
X145728331Y-101025609D01*
X145725776Y-101020428D01*
X145604320Y-100857779D01*
X145455258Y-100719987D01*
X145450375Y-100716906D01*
X145450371Y-100716903D01*
X145304728Y-100625010D01*
X145283581Y-100611667D01*
X145186737Y-100573030D01*
X145130877Y-100529209D01*
X145107577Y-100462145D01*
X145124233Y-100393130D01*
X145175557Y-100344075D01*
X145233427Y-100330000D01*
X146865565Y-100330000D01*
X146933686Y-100350002D01*
X146980179Y-100403658D01*
X146990283Y-100473932D01*
X146960789Y-100538512D01*
X146909176Y-100574212D01*
X146870256Y-100588571D01*
X146842463Y-100598824D01*
X146668010Y-100702612D01*
X146663670Y-100706418D01*
X146663666Y-100706421D01*
X146519733Y-100832648D01*
X146515392Y-100836455D01*
X146389720Y-100995869D01*
X146387031Y-101000980D01*
X146387029Y-101000983D01*
X146374073Y-101025609D01*
X146295203Y-101175515D01*
X146235007Y-101369378D01*
X146211148Y-101570964D01*
X146224424Y-101773522D01*
X146225845Y-101779118D01*
X146225846Y-101779123D01*
X146267514Y-101943186D01*
X146274392Y-101970269D01*
X146276807Y-101975507D01*
X146276809Y-101975512D01*
X146356843Y-102149120D01*
X146359377Y-102154616D01*
X146476533Y-102320389D01*
X146621938Y-102462035D01*
X146790720Y-102574812D01*
X146796023Y-102577090D01*
X146796026Y-102577092D01*
X146908211Y-102625290D01*
X146977228Y-102654942D01*
X147050244Y-102671464D01*
X147169579Y-102698467D01*
X147169584Y-102698468D01*
X147175216Y-102699742D01*
X147180987Y-102699969D01*
X147180989Y-102699969D01*
X147240756Y-102702317D01*
X147378053Y-102707712D01*
X147485341Y-102692156D01*
X147573231Y-102679413D01*
X147573236Y-102679412D01*
X147578945Y-102678584D01*
X147584409Y-102676729D01*
X147584414Y-102676728D01*
X147765693Y-102615192D01*
X147765698Y-102615190D01*
X147771165Y-102613334D01*
X147777019Y-102610056D01*
X147885504Y-102549301D01*
X147948276Y-102514147D01*
X147995265Y-102475067D01*
X148099913Y-102388031D01*
X148104345Y-102384345D01*
X148161734Y-102315343D01*
X148230453Y-102232718D01*
X148230455Y-102232715D01*
X148234147Y-102228276D01*
X148311941Y-102089365D01*
X148330510Y-102056208D01*
X148330511Y-102056206D01*
X148333334Y-102051165D01*
X148335190Y-102045698D01*
X148335192Y-102045693D01*
X148396728Y-101864414D01*
X148396729Y-101864409D01*
X148398584Y-101858945D01*
X148399412Y-101853236D01*
X148399413Y-101853231D01*
X148415453Y-101742602D01*
X148762899Y-101742602D01*
X148764542Y-101767676D01*
X148766343Y-101779046D01*
X148813443Y-101964502D01*
X148817284Y-101975348D01*
X148897394Y-102149120D01*
X148903145Y-102159081D01*
X149013579Y-102315343D01*
X149021057Y-102324098D01*
X149158114Y-102457612D01*
X149167058Y-102464855D01*
X149326156Y-102571161D01*
X149336266Y-102576651D01*
X149512077Y-102652185D01*
X149523020Y-102655740D01*
X149709647Y-102697970D01*
X149716383Y-102698857D01*
X149730302Y-102695357D01*
X149730658Y-102694978D01*
X149733000Y-102685144D01*
X149733000Y-102679095D01*
X149987000Y-102679095D01*
X149990966Y-102692601D01*
X150004966Y-102694605D01*
X150113106Y-102678926D01*
X150124302Y-102676238D01*
X150305497Y-102614730D01*
X150315994Y-102610056D01*
X150482958Y-102516552D01*
X150492430Y-102510042D01*
X150639553Y-102387682D01*
X150647682Y-102379553D01*
X150770042Y-102232430D01*
X150776552Y-102222958D01*
X150870056Y-102055994D01*
X150874730Y-102045497D01*
X150936238Y-101864302D01*
X150938926Y-101853106D01*
X150954610Y-101744929D01*
X150952624Y-101730993D01*
X150939056Y-101727000D01*
X150005115Y-101727000D01*
X149989876Y-101731475D01*
X149988671Y-101732865D01*
X149987000Y-101740548D01*
X149987000Y-102679095D01*
X149733000Y-102679095D01*
X149733000Y-101745115D01*
X149728525Y-101729876D01*
X149727135Y-101728671D01*
X149719452Y-101727000D01*
X148779991Y-101727000D01*
X148764951Y-101731416D01*
X148762899Y-101742602D01*
X148415453Y-101742602D01*
X148427179Y-101661727D01*
X148427712Y-101658053D01*
X148429232Y-101600000D01*
X148417562Y-101473000D01*
X148411187Y-101403613D01*
X148411186Y-101403610D01*
X148410658Y-101397859D01*
X148404271Y-101375211D01*
X148357125Y-101208046D01*
X148357124Y-101208044D01*
X148355557Y-101202487D01*
X148345076Y-101181232D01*
X148268331Y-101025609D01*
X148265776Y-101020428D01*
X148144320Y-100857779D01*
X147995258Y-100719987D01*
X147990375Y-100716906D01*
X147990371Y-100716903D01*
X147844728Y-100625010D01*
X147823581Y-100611667D01*
X147726737Y-100573030D01*
X147670877Y-100529209D01*
X147647577Y-100462145D01*
X147664233Y-100393130D01*
X147715557Y-100344075D01*
X147773427Y-100330000D01*
X149407010Y-100330000D01*
X149475131Y-100350002D01*
X149521624Y-100403658D01*
X149531728Y-100473932D01*
X149502234Y-100538512D01*
X149450621Y-100574212D01*
X149388095Y-100597279D01*
X149377717Y-100602229D01*
X149213273Y-100700063D01*
X149203961Y-100706829D01*
X149060097Y-100832994D01*
X149052180Y-100841337D01*
X148933718Y-100991605D01*
X148927450Y-101001256D01*
X148838360Y-101170589D01*
X148833951Y-101181232D01*
X148777210Y-101363967D01*
X148774820Y-101375211D01*
X148765375Y-101455012D01*
X148767817Y-101469431D01*
X148780559Y-101473000D01*
X150938945Y-101473000D01*
X150953490Y-101468729D01*
X150955553Y-101456595D01*
X150950693Y-101403707D01*
X150948595Y-101392386D01*
X150896658Y-101208231D01*
X150892533Y-101197484D01*
X150807903Y-101025871D01*
X150801893Y-101016063D01*
X150687400Y-100862739D01*
X150679710Y-100854199D01*
X150539192Y-100724304D01*
X150530067Y-100717303D01*
X150368236Y-100615195D01*
X150357989Y-100609974D01*
X150265387Y-100573030D01*
X150209528Y-100529210D01*
X150186227Y-100462146D01*
X150202883Y-100393130D01*
X150254207Y-100344076D01*
X150312077Y-100330000D01*
X151945565Y-100330000D01*
X152013686Y-100350002D01*
X152060179Y-100403658D01*
X152070283Y-100473932D01*
X152040789Y-100538512D01*
X151989176Y-100574212D01*
X151950256Y-100588571D01*
X151922463Y-100598824D01*
X151748010Y-100702612D01*
X151743670Y-100706418D01*
X151743666Y-100706421D01*
X151599733Y-100832648D01*
X151595392Y-100836455D01*
X151469720Y-100995869D01*
X151467031Y-101000980D01*
X151467029Y-101000983D01*
X151454073Y-101025609D01*
X151375203Y-101175515D01*
X151315007Y-101369378D01*
X151291148Y-101570964D01*
X151304424Y-101773522D01*
X151305845Y-101779118D01*
X151305846Y-101779123D01*
X151347514Y-101943186D01*
X151354392Y-101970269D01*
X151356807Y-101975507D01*
X151356809Y-101975512D01*
X151436843Y-102149120D01*
X151439377Y-102154616D01*
X151556533Y-102320389D01*
X151701938Y-102462035D01*
X151870720Y-102574812D01*
X151876023Y-102577090D01*
X151876026Y-102577092D01*
X151988211Y-102625290D01*
X152057228Y-102654942D01*
X152130244Y-102671464D01*
X152249579Y-102698467D01*
X152249584Y-102698468D01*
X152255216Y-102699742D01*
X152260987Y-102699969D01*
X152260989Y-102699969D01*
X152320756Y-102702317D01*
X152458053Y-102707712D01*
X152565341Y-102692156D01*
X152653231Y-102679413D01*
X152653236Y-102679412D01*
X152658945Y-102678584D01*
X152664409Y-102676729D01*
X152664414Y-102676728D01*
X152845693Y-102615192D01*
X152845698Y-102615190D01*
X152851165Y-102613334D01*
X152857019Y-102610056D01*
X152965504Y-102549301D01*
X153028276Y-102514147D01*
X153075265Y-102475067D01*
X153179913Y-102388031D01*
X153184345Y-102384345D01*
X153241734Y-102315343D01*
X153310453Y-102232718D01*
X153310455Y-102232715D01*
X153314147Y-102228276D01*
X153391941Y-102089365D01*
X153410510Y-102056208D01*
X153410511Y-102056206D01*
X153413334Y-102051165D01*
X153415190Y-102045698D01*
X153415192Y-102045693D01*
X153476728Y-101864414D01*
X153476729Y-101864409D01*
X153478584Y-101858945D01*
X153479412Y-101853236D01*
X153479413Y-101853231D01*
X153507179Y-101661727D01*
X153507712Y-101658053D01*
X153509232Y-101600000D01*
X153497562Y-101473000D01*
X153491187Y-101403613D01*
X153491186Y-101403610D01*
X153490658Y-101397859D01*
X153484271Y-101375211D01*
X153437125Y-101208046D01*
X153437124Y-101208044D01*
X153435557Y-101202487D01*
X153425076Y-101181232D01*
X153348331Y-101025609D01*
X153345776Y-101020428D01*
X153224320Y-100857779D01*
X153075258Y-100719987D01*
X153070375Y-100716906D01*
X153070371Y-100716903D01*
X152924728Y-100625010D01*
X152903581Y-100611667D01*
X152806737Y-100573030D01*
X152750877Y-100529209D01*
X152727577Y-100462145D01*
X152744233Y-100393130D01*
X152795557Y-100344075D01*
X152853427Y-100330000D01*
X154485565Y-100330000D01*
X154553686Y-100350002D01*
X154600179Y-100403658D01*
X154610283Y-100473932D01*
X154580789Y-100538512D01*
X154529176Y-100574212D01*
X154490256Y-100588571D01*
X154462463Y-100598824D01*
X154288010Y-100702612D01*
X154283670Y-100706418D01*
X154283666Y-100706421D01*
X154139733Y-100832648D01*
X154135392Y-100836455D01*
X154009720Y-100995869D01*
X154007031Y-101000980D01*
X154007029Y-101000983D01*
X153994073Y-101025609D01*
X153915203Y-101175515D01*
X153855007Y-101369378D01*
X153831148Y-101570964D01*
X153844424Y-101773522D01*
X153845845Y-101779118D01*
X153845846Y-101779123D01*
X153887514Y-101943186D01*
X153894392Y-101970269D01*
X153896807Y-101975507D01*
X153896809Y-101975512D01*
X153976843Y-102149120D01*
X153979377Y-102154616D01*
X154096533Y-102320389D01*
X154241938Y-102462035D01*
X154410720Y-102574812D01*
X154416023Y-102577090D01*
X154416026Y-102577092D01*
X154528211Y-102625290D01*
X154597228Y-102654942D01*
X154670244Y-102671464D01*
X154789579Y-102698467D01*
X154789584Y-102698468D01*
X154795216Y-102699742D01*
X154800987Y-102699969D01*
X154800989Y-102699969D01*
X154860756Y-102702317D01*
X154998053Y-102707712D01*
X155105341Y-102692156D01*
X155193231Y-102679413D01*
X155193236Y-102679412D01*
X155198945Y-102678584D01*
X155204409Y-102676729D01*
X155204414Y-102676728D01*
X155385693Y-102615192D01*
X155385698Y-102615190D01*
X155391165Y-102613334D01*
X155397019Y-102610056D01*
X155505504Y-102549301D01*
X155568276Y-102514147D01*
X155615265Y-102475067D01*
X155719913Y-102388031D01*
X155724345Y-102384345D01*
X155781734Y-102315343D01*
X155850453Y-102232718D01*
X155850455Y-102232715D01*
X155854147Y-102228276D01*
X155931941Y-102089365D01*
X155950510Y-102056208D01*
X155950511Y-102056206D01*
X155953334Y-102051165D01*
X155955190Y-102045698D01*
X155955192Y-102045693D01*
X156016728Y-101864414D01*
X156016729Y-101864409D01*
X156018584Y-101858945D01*
X156019412Y-101853236D01*
X156019413Y-101853231D01*
X156047179Y-101661727D01*
X156047712Y-101658053D01*
X156049232Y-101600000D01*
X156037562Y-101473000D01*
X156031187Y-101403613D01*
X156031186Y-101403610D01*
X156030658Y-101397859D01*
X156024271Y-101375211D01*
X155977125Y-101208046D01*
X155977124Y-101208044D01*
X155975557Y-101202487D01*
X155965076Y-101181232D01*
X155888331Y-101025609D01*
X155885776Y-101020428D01*
X155764320Y-100857779D01*
X155615258Y-100719987D01*
X155610375Y-100716906D01*
X155610371Y-100716903D01*
X155464728Y-100625010D01*
X155443581Y-100611667D01*
X155346737Y-100573030D01*
X155290877Y-100529209D01*
X155267577Y-100462145D01*
X155284233Y-100393130D01*
X155335557Y-100344075D01*
X155393427Y-100330000D01*
X157025565Y-100330000D01*
X157093686Y-100350002D01*
X157140179Y-100403658D01*
X157150283Y-100473932D01*
X157120789Y-100538512D01*
X157069176Y-100574212D01*
X157030256Y-100588571D01*
X157002463Y-100598824D01*
X156828010Y-100702612D01*
X156823670Y-100706418D01*
X156823666Y-100706421D01*
X156679733Y-100832648D01*
X156675392Y-100836455D01*
X156549720Y-100995869D01*
X156547031Y-101000980D01*
X156547029Y-101000983D01*
X156534073Y-101025609D01*
X156455203Y-101175515D01*
X156395007Y-101369378D01*
X156371148Y-101570964D01*
X156384424Y-101773522D01*
X156385845Y-101779118D01*
X156385846Y-101779123D01*
X156427514Y-101943186D01*
X156434392Y-101970269D01*
X156436807Y-101975507D01*
X156436809Y-101975512D01*
X156516843Y-102149120D01*
X156519377Y-102154616D01*
X156636533Y-102320389D01*
X156781938Y-102462035D01*
X156950720Y-102574812D01*
X156956023Y-102577090D01*
X156956026Y-102577092D01*
X157068211Y-102625290D01*
X157137228Y-102654942D01*
X157210244Y-102671464D01*
X157329579Y-102698467D01*
X157329584Y-102698468D01*
X157335216Y-102699742D01*
X157340987Y-102699969D01*
X157340989Y-102699969D01*
X157400756Y-102702317D01*
X157538053Y-102707712D01*
X157645341Y-102692156D01*
X157733231Y-102679413D01*
X157733236Y-102679412D01*
X157738945Y-102678584D01*
X157744409Y-102676729D01*
X157744414Y-102676728D01*
X157925693Y-102615192D01*
X157925698Y-102615190D01*
X157931165Y-102613334D01*
X157937019Y-102610056D01*
X158045504Y-102549301D01*
X158108276Y-102514147D01*
X158155265Y-102475067D01*
X158259913Y-102388031D01*
X158264345Y-102384345D01*
X158321734Y-102315343D01*
X158390453Y-102232718D01*
X158390455Y-102232715D01*
X158394147Y-102228276D01*
X158471941Y-102089365D01*
X158490510Y-102056208D01*
X158490511Y-102056206D01*
X158493334Y-102051165D01*
X158495190Y-102045698D01*
X158495192Y-102045693D01*
X158556728Y-101864414D01*
X158556729Y-101864409D01*
X158558584Y-101858945D01*
X158559412Y-101853236D01*
X158559413Y-101853231D01*
X158587179Y-101661727D01*
X158587712Y-101658053D01*
X158589232Y-101600000D01*
X158577562Y-101473000D01*
X158571187Y-101403613D01*
X158571186Y-101403610D01*
X158570658Y-101397859D01*
X158564271Y-101375211D01*
X158517125Y-101208046D01*
X158517124Y-101208044D01*
X158515557Y-101202487D01*
X158505076Y-101181232D01*
X158428331Y-101025609D01*
X158425776Y-101020428D01*
X158304320Y-100857779D01*
X158155258Y-100719987D01*
X158150375Y-100716906D01*
X158150371Y-100716903D01*
X158004728Y-100625010D01*
X157983581Y-100611667D01*
X157886737Y-100573030D01*
X157830877Y-100529209D01*
X157807577Y-100462145D01*
X157824233Y-100393130D01*
X157875557Y-100344075D01*
X157933427Y-100330000D01*
X159565565Y-100330000D01*
X159633686Y-100350002D01*
X159680179Y-100403658D01*
X159690283Y-100473932D01*
X159660789Y-100538512D01*
X159609176Y-100574212D01*
X159570256Y-100588571D01*
X159542463Y-100598824D01*
X159368010Y-100702612D01*
X159363670Y-100706418D01*
X159363666Y-100706421D01*
X159219733Y-100832648D01*
X159215392Y-100836455D01*
X159089720Y-100995869D01*
X159087031Y-101000980D01*
X159087029Y-101000983D01*
X159074073Y-101025609D01*
X158995203Y-101175515D01*
X158935007Y-101369378D01*
X158911148Y-101570964D01*
X158924424Y-101773522D01*
X158925845Y-101779118D01*
X158925846Y-101779123D01*
X158967514Y-101943186D01*
X158974392Y-101970269D01*
X158976807Y-101975507D01*
X158976809Y-101975512D01*
X159056843Y-102149120D01*
X159059377Y-102154616D01*
X159176533Y-102320389D01*
X159321938Y-102462035D01*
X159490720Y-102574812D01*
X159496023Y-102577090D01*
X159496026Y-102577092D01*
X159608211Y-102625290D01*
X159677228Y-102654942D01*
X159750244Y-102671464D01*
X159869579Y-102698467D01*
X159869584Y-102698468D01*
X159875216Y-102699742D01*
X159880987Y-102699969D01*
X159880989Y-102699969D01*
X159940756Y-102702317D01*
X160078053Y-102707712D01*
X160185341Y-102692156D01*
X160273231Y-102679413D01*
X160273236Y-102679412D01*
X160278945Y-102678584D01*
X160284409Y-102676729D01*
X160284414Y-102676728D01*
X160465693Y-102615192D01*
X160465698Y-102615190D01*
X160471165Y-102613334D01*
X160477019Y-102610056D01*
X160585504Y-102549301D01*
X160648276Y-102514147D01*
X160695265Y-102475067D01*
X160799913Y-102388031D01*
X160804345Y-102384345D01*
X160861734Y-102315343D01*
X160930453Y-102232718D01*
X160930455Y-102232715D01*
X160934147Y-102228276D01*
X161011941Y-102089365D01*
X161030510Y-102056208D01*
X161030511Y-102056206D01*
X161033334Y-102051165D01*
X161035190Y-102045698D01*
X161035192Y-102045693D01*
X161096728Y-101864414D01*
X161096729Y-101864409D01*
X161098584Y-101858945D01*
X161099412Y-101853236D01*
X161099413Y-101853231D01*
X161115453Y-101742602D01*
X161462899Y-101742602D01*
X161464542Y-101767676D01*
X161466343Y-101779046D01*
X161513443Y-101964502D01*
X161517284Y-101975348D01*
X161597394Y-102149120D01*
X161603145Y-102159081D01*
X161713579Y-102315343D01*
X161721057Y-102324098D01*
X161858114Y-102457612D01*
X161867058Y-102464855D01*
X162026156Y-102571161D01*
X162036266Y-102576651D01*
X162212077Y-102652185D01*
X162223020Y-102655740D01*
X162409647Y-102697970D01*
X162416383Y-102698857D01*
X162430302Y-102695357D01*
X162430658Y-102694978D01*
X162433000Y-102685144D01*
X162433000Y-102679095D01*
X162687000Y-102679095D01*
X162690966Y-102692601D01*
X162704966Y-102694605D01*
X162813106Y-102678926D01*
X162824302Y-102676238D01*
X163005497Y-102614730D01*
X163015994Y-102610056D01*
X163182958Y-102516552D01*
X163192430Y-102510042D01*
X163339553Y-102387682D01*
X163347682Y-102379553D01*
X163470042Y-102232430D01*
X163476552Y-102222958D01*
X163570056Y-102055994D01*
X163574730Y-102045497D01*
X163636238Y-101864302D01*
X163638926Y-101853106D01*
X163654610Y-101744929D01*
X163652624Y-101730993D01*
X163639056Y-101727000D01*
X162705115Y-101727000D01*
X162689876Y-101731475D01*
X162688671Y-101732865D01*
X162687000Y-101740548D01*
X162687000Y-102679095D01*
X162433000Y-102679095D01*
X162433000Y-101745115D01*
X162428525Y-101729876D01*
X162427135Y-101728671D01*
X162419452Y-101727000D01*
X161479991Y-101727000D01*
X161464951Y-101731416D01*
X161462899Y-101742602D01*
X161115453Y-101742602D01*
X161127179Y-101661727D01*
X161127712Y-101658053D01*
X161129232Y-101600000D01*
X161117562Y-101473000D01*
X161111187Y-101403613D01*
X161111186Y-101403610D01*
X161110658Y-101397859D01*
X161104271Y-101375211D01*
X161057125Y-101208046D01*
X161057124Y-101208044D01*
X161055557Y-101202487D01*
X161045076Y-101181232D01*
X160968331Y-101025609D01*
X160965776Y-101020428D01*
X160844320Y-100857779D01*
X160695258Y-100719987D01*
X160690375Y-100716906D01*
X160690371Y-100716903D01*
X160544728Y-100625010D01*
X160523581Y-100611667D01*
X160426737Y-100573030D01*
X160370877Y-100529209D01*
X160347577Y-100462145D01*
X160364233Y-100393130D01*
X160415557Y-100344075D01*
X160473427Y-100330000D01*
X162107010Y-100330000D01*
X162175131Y-100350002D01*
X162221624Y-100403658D01*
X162231728Y-100473932D01*
X162202234Y-100538512D01*
X162150621Y-100574212D01*
X162088095Y-100597279D01*
X162077717Y-100602229D01*
X161913273Y-100700063D01*
X161903961Y-100706829D01*
X161760097Y-100832994D01*
X161752180Y-100841337D01*
X161633718Y-100991605D01*
X161627450Y-101001256D01*
X161538360Y-101170589D01*
X161533951Y-101181232D01*
X161477210Y-101363967D01*
X161474820Y-101375211D01*
X161465375Y-101455012D01*
X161467817Y-101469431D01*
X161480559Y-101473000D01*
X163638945Y-101473000D01*
X163653490Y-101468729D01*
X163655553Y-101456595D01*
X163650693Y-101403707D01*
X163648595Y-101392386D01*
X163596658Y-101208231D01*
X163592533Y-101197484D01*
X163507903Y-101025871D01*
X163501893Y-101016063D01*
X163387400Y-100862739D01*
X163379710Y-100854199D01*
X163239192Y-100724304D01*
X163230067Y-100717303D01*
X163068236Y-100615195D01*
X163057989Y-100609974D01*
X162965387Y-100573030D01*
X162909528Y-100529210D01*
X162886227Y-100462146D01*
X162902883Y-100393130D01*
X162954207Y-100344076D01*
X163012077Y-100330000D01*
X164645565Y-100330000D01*
X164713686Y-100350002D01*
X164760179Y-100403658D01*
X164770283Y-100473932D01*
X164740789Y-100538512D01*
X164689176Y-100574212D01*
X164650256Y-100588571D01*
X164622463Y-100598824D01*
X164448010Y-100702612D01*
X164443670Y-100706418D01*
X164443666Y-100706421D01*
X164299733Y-100832648D01*
X164295392Y-100836455D01*
X164169720Y-100995869D01*
X164167031Y-101000980D01*
X164167029Y-101000983D01*
X164154073Y-101025609D01*
X164075203Y-101175515D01*
X164015007Y-101369378D01*
X163991148Y-101570964D01*
X164004424Y-101773522D01*
X164005845Y-101779118D01*
X164005846Y-101779123D01*
X164047514Y-101943186D01*
X164054392Y-101970269D01*
X164056807Y-101975507D01*
X164056809Y-101975512D01*
X164136843Y-102149120D01*
X164139377Y-102154616D01*
X164256533Y-102320389D01*
X164401938Y-102462035D01*
X164570720Y-102574812D01*
X164576023Y-102577090D01*
X164576026Y-102577092D01*
X164688211Y-102625290D01*
X164757228Y-102654942D01*
X164830244Y-102671464D01*
X164949579Y-102698467D01*
X164949584Y-102698468D01*
X164955216Y-102699742D01*
X164960987Y-102699969D01*
X164960989Y-102699969D01*
X165020756Y-102702317D01*
X165158053Y-102707712D01*
X165265341Y-102692156D01*
X165353231Y-102679413D01*
X165353236Y-102679412D01*
X165358945Y-102678584D01*
X165364409Y-102676729D01*
X165364414Y-102676728D01*
X165545693Y-102615192D01*
X165545698Y-102615190D01*
X165551165Y-102613334D01*
X165557019Y-102610056D01*
X165665504Y-102549301D01*
X165728276Y-102514147D01*
X165775265Y-102475067D01*
X165879913Y-102388031D01*
X165884345Y-102384345D01*
X165941734Y-102315343D01*
X166010453Y-102232718D01*
X166010455Y-102232715D01*
X166014147Y-102228276D01*
X166091941Y-102089365D01*
X166110510Y-102056208D01*
X166110511Y-102056206D01*
X166113334Y-102051165D01*
X166115190Y-102045698D01*
X166115192Y-102045693D01*
X166176728Y-101864414D01*
X166176729Y-101864409D01*
X166178584Y-101858945D01*
X166179412Y-101853236D01*
X166179413Y-101853231D01*
X166207179Y-101661727D01*
X166207712Y-101658053D01*
X166209232Y-101600000D01*
X166197562Y-101473000D01*
X166191187Y-101403613D01*
X166191186Y-101403610D01*
X166190658Y-101397859D01*
X166184271Y-101375211D01*
X166137125Y-101208046D01*
X166137124Y-101208044D01*
X166135557Y-101202487D01*
X166125076Y-101181232D01*
X166048331Y-101025609D01*
X166045776Y-101020428D01*
X165924320Y-100857779D01*
X165775258Y-100719987D01*
X165770375Y-100716906D01*
X165770371Y-100716903D01*
X165624728Y-100625010D01*
X165603581Y-100611667D01*
X165506737Y-100573030D01*
X165450877Y-100529209D01*
X165427577Y-100462145D01*
X165444233Y-100393130D01*
X165495557Y-100344075D01*
X165553427Y-100330000D01*
X166545121Y-100330000D01*
X166613242Y-100350002D01*
X166659735Y-100403658D01*
X166669839Y-100473932D01*
X166640345Y-100538512D01*
X166619940Y-100556515D01*
X166616832Y-100559623D01*
X166606516Y-100566516D01*
X166550266Y-100650699D01*
X166535500Y-100724933D01*
X166535501Y-101456595D01*
X166535501Y-102150970D01*
X166515499Y-102219091D01*
X166498596Y-102240065D01*
X163714587Y-105024075D01*
X163652275Y-105058101D01*
X163625492Y-105060980D01*
X140153518Y-105060980D01*
X140133724Y-105058874D01*
X140129371Y-105058669D01*
X140119191Y-105056477D01*
X140088521Y-105060107D01*
X140083178Y-105060422D01*
X140083189Y-105060552D01*
X140078009Y-105060980D01*
X140072810Y-105060980D01*
X140067686Y-105061833D01*
X140067673Y-105061834D01*
X140055220Y-105063907D01*
X140049345Y-105064744D01*
X140012332Y-105069125D01*
X140001991Y-105070349D01*
X139994283Y-105074050D01*
X139985844Y-105075455D01*
X139943860Y-105098109D01*
X139938597Y-105100790D01*
X139895603Y-105121435D01*
X139891611Y-105124791D01*
X139889664Y-105126738D01*
X139888039Y-105128228D01*
X139887607Y-105128461D01*
X139887574Y-105128425D01*
X139887416Y-105128564D01*
X139881981Y-105131497D01*
X139874912Y-105139144D01*
X139847916Y-105168348D01*
X139844488Y-105171914D01*
X139472472Y-105543931D01*
X139108808Y-105907595D01*
X139046495Y-105941620D01*
X139019712Y-105944500D01*
X134653265Y-105944500D01*
X134585144Y-105924498D01*
X134577112Y-105918465D01*
X134574056Y-105914918D01*
X134452790Y-105836317D01*
X134435921Y-105831272D01*
X134322938Y-105797482D01*
X134322936Y-105797482D01*
X134314337Y-105794910D01*
X134305363Y-105794855D01*
X134305361Y-105794855D01*
X134242082Y-105794469D01*
X134169827Y-105794028D01*
X134161196Y-105796495D01*
X134161194Y-105796495D01*
X134039509Y-105831272D01*
X134039505Y-105831274D01*
X134030879Y-105833739D01*
X134023292Y-105838526D01*
X134023290Y-105838527D01*
X133983286Y-105863768D01*
X133908661Y-105910853D01*
X133902718Y-105917582D01*
X133902717Y-105917583D01*
X133857140Y-105969190D01*
X133812999Y-106019170D01*
X133809185Y-106027293D01*
X133809184Y-106027295D01*
X133804237Y-106037832D01*
X133751583Y-106149982D01*
X133750203Y-106158846D01*
X133750202Y-106158849D01*
X133734248Y-106261317D01*
X133729350Y-106292773D01*
X133730514Y-106301675D01*
X133730514Y-106301678D01*
X133733356Y-106323409D01*
X133748088Y-106436065D01*
X133806289Y-106568339D01*
X133812063Y-106575208D01*
X133886270Y-106663487D01*
X133899276Y-106678960D01*
X133906747Y-106683933D01*
X133906748Y-106683934D01*
X134012101Y-106754063D01*
X134012103Y-106754064D01*
X134019574Y-106759037D01*
X134028138Y-106761713D01*
X134028141Y-106761714D01*
X134088542Y-106780584D01*
X134157510Y-106802132D01*
X134301998Y-106804780D01*
X134321530Y-106799455D01*
X134432763Y-106769130D01*
X134432765Y-106769129D01*
X134441422Y-106766769D01*
X134564572Y-106691154D01*
X134570595Y-106684500D01*
X134572938Y-106682555D01*
X134638127Y-106654432D01*
X134653422Y-106653500D01*
X139167484Y-106653500D01*
X139187278Y-106655606D01*
X139191631Y-106655811D01*
X139201811Y-106658003D01*
X139232481Y-106654373D01*
X139237824Y-106654058D01*
X139237813Y-106653928D01*
X139242993Y-106653500D01*
X139248192Y-106653500D01*
X139253316Y-106652647D01*
X139253329Y-106652646D01*
X139265782Y-106650573D01*
X139271657Y-106649736D01*
X139308670Y-106645355D01*
X139319011Y-106644131D01*
X139326719Y-106640430D01*
X139335158Y-106639025D01*
X139377142Y-106616371D01*
X139382405Y-106613690D01*
X139390611Y-106609750D01*
X139425399Y-106593045D01*
X139429391Y-106589689D01*
X139431338Y-106587742D01*
X139432963Y-106586252D01*
X139433395Y-106586019D01*
X139433428Y-106586055D01*
X139433586Y-106585916D01*
X139439021Y-106582983D01*
X139457210Y-106563307D01*
X139473086Y-106546132D01*
X139476514Y-106542566D01*
X139841177Y-106177903D01*
X140212194Y-105806885D01*
X140274507Y-105772860D01*
X140301290Y-105769980D01*
X152875579Y-105769980D01*
X152943700Y-105789982D01*
X152990193Y-105843638D01*
X153000297Y-105913912D01*
X152970803Y-105978492D01*
X152945585Y-106000743D01*
X152905516Y-106027516D01*
X152849266Y-106111699D01*
X152834500Y-106185933D01*
X152834501Y-107936066D01*
X152837805Y-107952678D01*
X152842474Y-107976150D01*
X152849266Y-108010301D01*
X152856161Y-108020620D01*
X152856162Y-108020622D01*
X152893803Y-108076954D01*
X152905516Y-108094484D01*
X152989699Y-108150734D01*
X153063933Y-108165500D01*
X153938858Y-108165500D01*
X154814066Y-108165499D01*
X154849818Y-108158388D01*
X154876126Y-108153156D01*
X154876128Y-108153155D01*
X154888301Y-108150734D01*
X154898621Y-108143839D01*
X154898622Y-108143838D01*
X154962168Y-108101377D01*
X154972484Y-108094484D01*
X155028734Y-108010301D01*
X155043500Y-107936067D01*
X155043500Y-107203602D01*
X155381899Y-107203602D01*
X155383542Y-107228676D01*
X155385343Y-107240046D01*
X155432443Y-107425502D01*
X155436284Y-107436348D01*
X155516394Y-107610120D01*
X155522145Y-107620081D01*
X155632579Y-107776343D01*
X155640057Y-107785098D01*
X155777114Y-107918612D01*
X155786058Y-107925855D01*
X155945156Y-108032161D01*
X155955266Y-108037651D01*
X156131077Y-108113185D01*
X156142020Y-108116740D01*
X156328647Y-108158970D01*
X156335383Y-108159857D01*
X156349302Y-108156357D01*
X156349658Y-108155978D01*
X156352000Y-108146144D01*
X156352000Y-108140095D01*
X156606000Y-108140095D01*
X156609966Y-108153601D01*
X156623966Y-108155605D01*
X156732106Y-108139926D01*
X156743302Y-108137238D01*
X156924497Y-108075730D01*
X156934994Y-108071056D01*
X157101958Y-107977552D01*
X157111430Y-107971042D01*
X157258553Y-107848682D01*
X157266682Y-107840553D01*
X157389042Y-107693430D01*
X157395552Y-107683958D01*
X157489056Y-107516994D01*
X157493730Y-107506497D01*
X157555238Y-107325302D01*
X157557926Y-107314106D01*
X157573610Y-107205929D01*
X157571624Y-107191993D01*
X157558056Y-107188000D01*
X156624115Y-107188000D01*
X156608876Y-107192475D01*
X156607671Y-107193865D01*
X156606000Y-107201548D01*
X156606000Y-108140095D01*
X156352000Y-108140095D01*
X156352000Y-107206115D01*
X156347525Y-107190876D01*
X156346135Y-107189671D01*
X156338452Y-107188000D01*
X155398991Y-107188000D01*
X155383951Y-107192416D01*
X155381899Y-107203602D01*
X155043500Y-107203602D01*
X155043499Y-106185934D01*
X155028734Y-106111699D01*
X155009996Y-106083655D01*
X154979377Y-106037832D01*
X154972484Y-106027516D01*
X154932417Y-106000744D01*
X154886891Y-105946267D01*
X154878044Y-105875824D01*
X154908685Y-105811780D01*
X154969087Y-105774469D01*
X155002421Y-105769980D01*
X156082987Y-105769980D01*
X156151108Y-105789982D01*
X156197601Y-105843638D01*
X156207705Y-105913912D01*
X156178211Y-105978492D01*
X156126598Y-106014192D01*
X156007095Y-106058279D01*
X155996717Y-106063229D01*
X155832273Y-106161063D01*
X155822961Y-106167829D01*
X155679097Y-106293994D01*
X155671180Y-106302337D01*
X155552718Y-106452605D01*
X155546450Y-106462256D01*
X155457360Y-106631589D01*
X155452951Y-106642232D01*
X155396210Y-106824967D01*
X155393820Y-106836211D01*
X155384375Y-106916012D01*
X155386817Y-106930431D01*
X155399559Y-106934000D01*
X157557945Y-106934000D01*
X157572490Y-106929729D01*
X157574553Y-106917595D01*
X157569693Y-106864707D01*
X157567595Y-106853386D01*
X157515658Y-106669231D01*
X157511533Y-106658484D01*
X157426903Y-106486871D01*
X157420893Y-106477063D01*
X157306400Y-106323739D01*
X157298710Y-106315199D01*
X157158192Y-106185304D01*
X157149067Y-106178303D01*
X156987236Y-106076195D01*
X156976989Y-106070974D01*
X156831700Y-106013010D01*
X156775841Y-105969190D01*
X156752540Y-105902125D01*
X156769196Y-105833110D01*
X156820520Y-105784056D01*
X156878390Y-105769980D01*
X158621542Y-105769980D01*
X158689663Y-105789982D01*
X158736156Y-105843638D01*
X158746260Y-105913912D01*
X158716766Y-105978492D01*
X158665153Y-106014192D01*
X158541463Y-106059824D01*
X158367010Y-106163612D01*
X158362670Y-106167418D01*
X158362666Y-106167421D01*
X158255599Y-106261317D01*
X158214392Y-106297455D01*
X158088720Y-106456869D01*
X158086031Y-106461980D01*
X158086029Y-106461983D01*
X158073073Y-106486609D01*
X157994203Y-106636515D01*
X157934007Y-106830378D01*
X157910148Y-107031964D01*
X157923424Y-107234522D01*
X157924845Y-107240118D01*
X157924846Y-107240123D01*
X157967552Y-107408275D01*
X157973392Y-107431269D01*
X157975809Y-107436512D01*
X158012543Y-107516194D01*
X158058377Y-107615616D01*
X158175533Y-107781389D01*
X158320938Y-107923035D01*
X158489720Y-108035812D01*
X158495023Y-108038090D01*
X158495026Y-108038092D01*
X158637993Y-108099515D01*
X158676228Y-108115942D01*
X158746854Y-108131923D01*
X158868579Y-108159467D01*
X158868584Y-108159468D01*
X158874216Y-108160742D01*
X158879987Y-108160969D01*
X158879989Y-108160969D01*
X158939756Y-108163317D01*
X159077053Y-108168712D01*
X159193224Y-108151868D01*
X159272231Y-108140413D01*
X159272236Y-108140412D01*
X159277945Y-108139584D01*
X159283409Y-108137729D01*
X159283414Y-108137728D01*
X159464693Y-108076192D01*
X159464698Y-108076190D01*
X159470165Y-108074334D01*
X159476019Y-108071056D01*
X159558350Y-108024948D01*
X159647276Y-107975147D01*
X159656310Y-107967634D01*
X159798913Y-107849031D01*
X159803345Y-107845345D01*
X159903893Y-107724450D01*
X159929453Y-107693718D01*
X159929455Y-107693715D01*
X159933147Y-107689276D01*
X160032334Y-107512165D01*
X160034190Y-107506698D01*
X160034192Y-107506693D01*
X160095728Y-107325414D01*
X160095729Y-107325409D01*
X160097584Y-107319945D01*
X160098412Y-107314236D01*
X160098413Y-107314231D01*
X160116715Y-107188000D01*
X160126712Y-107119053D01*
X160128232Y-107061000D01*
X160116562Y-106934000D01*
X160110187Y-106864613D01*
X160110186Y-106864610D01*
X160109658Y-106858859D01*
X160103271Y-106836211D01*
X160056125Y-106669046D01*
X160056124Y-106669044D01*
X160054557Y-106663487D01*
X160049908Y-106654058D01*
X159967331Y-106486609D01*
X159964776Y-106481428D01*
X159960559Y-106475780D01*
X159907700Y-106404994D01*
X159843320Y-106318779D01*
X159694258Y-106180987D01*
X159689375Y-106177906D01*
X159689371Y-106177903D01*
X159539996Y-106083655D01*
X159522581Y-106072667D01*
X159373050Y-106013010D01*
X159317190Y-105969189D01*
X159293890Y-105902125D01*
X159310546Y-105833110D01*
X159361870Y-105784055D01*
X159419740Y-105769980D01*
X162131239Y-105769980D01*
X162199360Y-105789982D01*
X162245853Y-105843638D01*
X162255957Y-105913912D01*
X162253443Y-105926675D01*
X162219999Y-106059824D01*
X162215922Y-106076054D01*
X162215882Y-106083653D01*
X162215882Y-106083655D01*
X162215577Y-106141859D01*
X162215029Y-106246568D01*
X162216801Y-106253948D01*
X162216801Y-106253950D01*
X162233477Y-106323409D01*
X162254835Y-106412373D01*
X162333042Y-106563896D01*
X162338034Y-106569618D01*
X162338035Y-106569620D01*
X162440139Y-106686664D01*
X162445135Y-106692391D01*
X162584643Y-106790438D01*
X162673205Y-106824967D01*
X162736431Y-106849618D01*
X162736434Y-106849619D01*
X162743511Y-106852378D01*
X162751044Y-106853370D01*
X162751045Y-106853370D01*
X162869477Y-106868962D01*
X162869478Y-106868962D01*
X162873564Y-106869500D01*
X163643364Y-106869500D01*
X163711485Y-106889502D01*
X163757978Y-106943158D01*
X163768082Y-107013432D01*
X163738588Y-107078012D01*
X163693405Y-107111137D01*
X163670054Y-107121242D01*
X163663381Y-107126646D01*
X163558661Y-107211445D01*
X163558659Y-107211447D01*
X163551987Y-107216850D01*
X163547013Y-107223849D01*
X163547012Y-107223850D01*
X163511201Y-107274241D01*
X163463980Y-107340687D01*
X163412518Y-107483629D01*
X163411889Y-107492189D01*
X163411889Y-107492191D01*
X163410824Y-107506693D01*
X163401391Y-107635145D01*
X163431420Y-107784071D01*
X163435320Y-107791725D01*
X163496492Y-107911783D01*
X163496494Y-107911786D01*
X163500392Y-107919436D01*
X163506205Y-107925757D01*
X163506206Y-107925759D01*
X163583947Y-108010301D01*
X163603226Y-108031266D01*
X163610521Y-108035789D01*
X163610522Y-108035790D01*
X163725044Y-108106797D01*
X163732344Y-108111323D01*
X163878235Y-108153709D01*
X163889007Y-108154500D01*
X163998057Y-108154500D01*
X164002303Y-108153918D01*
X164002309Y-108153918D01*
X164090435Y-108141846D01*
X164110518Y-108139095D01*
X164127092Y-108131923D01*
X164242064Y-108082169D01*
X164242065Y-108082169D01*
X164249946Y-108078758D01*
X164302980Y-108035812D01*
X164361339Y-107988555D01*
X164361341Y-107988553D01*
X164368013Y-107983150D01*
X164373701Y-107975147D01*
X164451044Y-107866315D01*
X164451044Y-107866314D01*
X164456020Y-107859313D01*
X164507482Y-107716371D01*
X164510279Y-107678293D01*
X164517980Y-107573418D01*
X164518609Y-107564855D01*
X164488580Y-107415929D01*
X164454361Y-107348770D01*
X164423508Y-107288217D01*
X164423506Y-107288214D01*
X164419608Y-107280564D01*
X164382421Y-107240123D01*
X164322584Y-107175052D01*
X164322583Y-107175051D01*
X164316774Y-107168734D01*
X164309478Y-107164210D01*
X164194958Y-107093204D01*
X164194955Y-107093203D01*
X164187656Y-107088677D01*
X164181142Y-107086784D01*
X164127710Y-107041367D01*
X164107062Y-106973439D01*
X164126416Y-106905131D01*
X164179627Y-106858131D01*
X164189460Y-106854662D01*
X164189281Y-106854189D01*
X164341686Y-106796600D01*
X164348789Y-106793916D01*
X164489316Y-106697334D01*
X164494369Y-106691663D01*
X164597695Y-106575693D01*
X164597697Y-106575690D01*
X164602748Y-106570021D01*
X164646774Y-106486871D01*
X164678984Y-106426037D01*
X164678985Y-106426035D01*
X164682538Y-106419324D01*
X164685143Y-106408955D01*
X164722227Y-106261317D01*
X164722227Y-106261313D01*
X164724078Y-106253946D01*
X164724157Y-106238974D01*
X164724931Y-106091026D01*
X164724971Y-106083432D01*
X164720012Y-106062776D01*
X164686937Y-105925006D01*
X164686936Y-105925002D01*
X164685165Y-105917627D01*
X164606958Y-105766104D01*
X164494865Y-105637609D01*
X164387801Y-105562364D01*
X164343570Y-105506830D01*
X164336384Y-105436197D01*
X164371157Y-105370182D01*
X166999934Y-102741405D01*
X167062246Y-102707379D01*
X167089029Y-102704500D01*
X168358353Y-102704499D01*
X168515066Y-102704499D01*
X168550818Y-102697388D01*
X168577126Y-102692156D01*
X168577128Y-102692155D01*
X168589301Y-102689734D01*
X168599621Y-102682839D01*
X168599622Y-102682838D01*
X168663168Y-102640377D01*
X168673484Y-102633484D01*
X168680377Y-102623168D01*
X168689154Y-102614391D01*
X168690350Y-102615587D01*
X168733712Y-102579349D01*
X168804155Y-102570501D01*
X168868199Y-102601142D01*
X168905510Y-102661544D01*
X168910000Y-102694879D01*
X168910000Y-105795647D01*
X168889998Y-105863768D01*
X168836342Y-105910261D01*
X168766068Y-105920365D01*
X168701488Y-105890871D01*
X168672034Y-105853437D01*
X168630441Y-105772852D01*
X168630441Y-105772851D01*
X168626958Y-105766104D01*
X168514865Y-105637609D01*
X168375357Y-105539562D01*
X168279488Y-105502184D01*
X168223569Y-105480382D01*
X168223566Y-105480381D01*
X168216489Y-105477622D01*
X168208956Y-105476630D01*
X168208955Y-105476630D01*
X168090523Y-105461038D01*
X168090522Y-105461038D01*
X168086436Y-105460500D01*
X167197244Y-105460500D01*
X167070719Y-105475811D01*
X166911211Y-105536084D01*
X166904953Y-105540385D01*
X166872974Y-105562364D01*
X166770684Y-105632666D01*
X166765632Y-105638336D01*
X166765631Y-105638337D01*
X166662305Y-105754307D01*
X166662303Y-105754310D01*
X166657252Y-105759979D01*
X166653697Y-105766692D01*
X166653697Y-105766693D01*
X166581990Y-105902125D01*
X166577462Y-105910676D01*
X166575612Y-105918041D01*
X166539999Y-106059824D01*
X166535922Y-106076054D01*
X166535882Y-106083653D01*
X166535882Y-106083655D01*
X166535577Y-106141859D01*
X166535029Y-106246568D01*
X166536801Y-106253948D01*
X166536801Y-106253950D01*
X166553477Y-106323409D01*
X166574835Y-106412373D01*
X166653042Y-106563896D01*
X166658034Y-106569618D01*
X166658035Y-106569620D01*
X166760139Y-106686664D01*
X166765135Y-106692391D01*
X166904643Y-106790438D01*
X166993205Y-106824967D01*
X167056431Y-106849618D01*
X167056434Y-106849619D01*
X167063511Y-106852378D01*
X167071044Y-106853370D01*
X167071045Y-106853370D01*
X167189477Y-106868962D01*
X167189478Y-106868962D01*
X167193564Y-106869500D01*
X168082756Y-106869500D01*
X168209281Y-106854189D01*
X168368789Y-106793916D01*
X168509316Y-106697334D01*
X168514369Y-106691663D01*
X168617695Y-106575693D01*
X168617697Y-106575690D01*
X168622748Y-106570021D01*
X168672646Y-106475780D01*
X168722198Y-106424937D01*
X168791373Y-106408955D01*
X168858206Y-106432909D01*
X168901480Y-106489193D01*
X168910000Y-106534739D01*
X168910000Y-114445647D01*
X168889998Y-114513768D01*
X168836342Y-114560261D01*
X168766068Y-114570365D01*
X168701488Y-114540871D01*
X168672034Y-114503437D01*
X168630441Y-114422852D01*
X168630441Y-114422851D01*
X168626958Y-114416104D01*
X168608025Y-114394400D01*
X168519861Y-114293336D01*
X168514865Y-114287609D01*
X168375357Y-114189562D01*
X168270521Y-114148688D01*
X168223569Y-114130382D01*
X168223566Y-114130381D01*
X168216489Y-114127622D01*
X168208956Y-114126630D01*
X168208955Y-114126630D01*
X168090523Y-114111038D01*
X168090522Y-114111038D01*
X168086436Y-114110500D01*
X167197244Y-114110500D01*
X167070719Y-114125811D01*
X166911211Y-114186084D01*
X166904953Y-114190385D01*
X166779685Y-114276480D01*
X166770684Y-114282666D01*
X166765632Y-114288336D01*
X166765631Y-114288337D01*
X166662305Y-114404307D01*
X166662303Y-114404310D01*
X166657252Y-114409979D01*
X166653697Y-114416692D01*
X166653697Y-114416693D01*
X166584294Y-114547773D01*
X166577462Y-114560676D01*
X166575612Y-114568041D01*
X166542169Y-114701185D01*
X166535922Y-114726054D01*
X166535882Y-114733653D01*
X166535882Y-114733655D01*
X166535555Y-114796062D01*
X166535029Y-114896568D01*
X166536801Y-114903948D01*
X166536801Y-114903950D01*
X166570892Y-115045948D01*
X166574835Y-115062373D01*
X166653042Y-115213896D01*
X166765135Y-115342391D01*
X166904643Y-115440438D01*
X167000512Y-115477816D01*
X167056431Y-115499618D01*
X167056434Y-115499619D01*
X167063511Y-115502378D01*
X167071044Y-115503370D01*
X167071045Y-115503370D01*
X167189477Y-115518962D01*
X167189478Y-115518962D01*
X167193564Y-115519500D01*
X168082756Y-115519500D01*
X168209281Y-115504189D01*
X168368789Y-115443916D01*
X168509316Y-115347334D01*
X168528266Y-115326065D01*
X168617695Y-115225693D01*
X168617697Y-115225690D01*
X168622748Y-115220021D01*
X168672646Y-115125780D01*
X168722198Y-115074937D01*
X168791373Y-115058955D01*
X168858206Y-115082909D01*
X168901480Y-115139193D01*
X168910000Y-115184739D01*
X168910000Y-118917506D01*
X168889998Y-118985627D01*
X168836342Y-119032120D01*
X168766068Y-119042224D01*
X168701488Y-119012730D01*
X168670994Y-118973234D01*
X168588331Y-118805609D01*
X168585776Y-118800428D01*
X168464320Y-118637779D01*
X168315258Y-118499987D01*
X168310375Y-118496906D01*
X168310371Y-118496903D01*
X168157820Y-118400651D01*
X168143581Y-118391667D01*
X167955039Y-118316446D01*
X167949379Y-118315320D01*
X167949375Y-118315319D01*
X167761613Y-118277971D01*
X167761610Y-118277971D01*
X167755946Y-118276844D01*
X167750171Y-118276768D01*
X167750167Y-118276768D01*
X167648793Y-118275441D01*
X167552971Y-118274187D01*
X167547274Y-118275166D01*
X167547273Y-118275166D01*
X167459397Y-118290266D01*
X167352910Y-118308564D01*
X167162463Y-118378824D01*
X166988010Y-118482612D01*
X166983670Y-118486418D01*
X166983666Y-118486421D01*
X166839733Y-118612648D01*
X166835392Y-118616455D01*
X166709720Y-118775869D01*
X166707031Y-118780980D01*
X166707029Y-118780983D01*
X166694073Y-118805609D01*
X166615203Y-118955515D01*
X166555007Y-119149378D01*
X166531148Y-119350964D01*
X166544424Y-119553522D01*
X166545845Y-119559118D01*
X166545846Y-119559123D01*
X166566119Y-119638945D01*
X166594392Y-119750269D01*
X166596809Y-119755512D01*
X166633912Y-119835994D01*
X166679377Y-119934616D01*
X166796533Y-120100389D01*
X166941938Y-120242035D01*
X167110720Y-120354812D01*
X167116023Y-120357090D01*
X167116026Y-120357092D01*
X167195006Y-120391024D01*
X167226808Y-120404687D01*
X167235059Y-120408232D01*
X167289752Y-120453500D01*
X167311289Y-120521151D01*
X167292832Y-120589707D01*
X167240241Y-120637401D01*
X167185321Y-120650000D01*
X165558221Y-120650000D01*
X165490100Y-120629998D01*
X165443607Y-120576342D01*
X165433503Y-120506068D01*
X165462997Y-120441488D01*
X165517720Y-120404687D01*
X165545693Y-120395192D01*
X165545698Y-120395190D01*
X165551165Y-120393334D01*
X165557019Y-120390056D01*
X165665504Y-120329301D01*
X165728276Y-120294147D01*
X165767969Y-120261135D01*
X165879913Y-120168031D01*
X165884345Y-120164345D01*
X166014147Y-120008276D01*
X166073845Y-119901677D01*
X166110510Y-119836208D01*
X166110511Y-119836206D01*
X166113334Y-119831165D01*
X166115190Y-119825698D01*
X166115192Y-119825693D01*
X166176728Y-119644414D01*
X166176729Y-119644409D01*
X166178584Y-119638945D01*
X166179412Y-119633236D01*
X166179413Y-119633231D01*
X166207179Y-119441727D01*
X166207712Y-119438053D01*
X166209232Y-119380000D01*
X166197298Y-119250124D01*
X166191187Y-119183613D01*
X166191186Y-119183610D01*
X166190658Y-119177859D01*
X166184271Y-119155211D01*
X166137125Y-118988046D01*
X166137124Y-118988044D01*
X166135557Y-118982487D01*
X166125076Y-118961232D01*
X166048331Y-118805609D01*
X166045776Y-118800428D01*
X165924320Y-118637779D01*
X165775258Y-118499987D01*
X165770375Y-118496906D01*
X165770371Y-118496903D01*
X165617820Y-118400651D01*
X165603581Y-118391667D01*
X165415039Y-118316446D01*
X165409379Y-118315320D01*
X165409375Y-118315319D01*
X165221613Y-118277971D01*
X165221610Y-118277971D01*
X165215946Y-118276844D01*
X165210171Y-118276768D01*
X165210167Y-118276768D01*
X165108793Y-118275441D01*
X165012971Y-118274187D01*
X165007274Y-118275166D01*
X165007273Y-118275166D01*
X164919397Y-118290266D01*
X164812910Y-118308564D01*
X164622463Y-118378824D01*
X164448010Y-118482612D01*
X164443670Y-118486418D01*
X164443666Y-118486421D01*
X164299733Y-118612648D01*
X164295392Y-118616455D01*
X164169720Y-118775869D01*
X164167031Y-118780980D01*
X164167029Y-118780983D01*
X164154073Y-118805609D01*
X164075203Y-118955515D01*
X164015007Y-119149378D01*
X163991148Y-119350964D01*
X164004424Y-119553522D01*
X164005845Y-119559118D01*
X164005846Y-119559123D01*
X164026119Y-119638945D01*
X164054392Y-119750269D01*
X164056809Y-119755512D01*
X164093912Y-119835994D01*
X164139377Y-119934616D01*
X164256533Y-120100389D01*
X164401938Y-120242035D01*
X164570720Y-120354812D01*
X164576023Y-120357090D01*
X164576026Y-120357092D01*
X164655006Y-120391024D01*
X164686808Y-120404687D01*
X164695059Y-120408232D01*
X164749752Y-120453500D01*
X164771289Y-120521151D01*
X164752832Y-120589707D01*
X164700241Y-120637401D01*
X164645321Y-120650000D01*
X163016666Y-120650000D01*
X162948545Y-120629998D01*
X162902052Y-120576342D01*
X162891948Y-120506068D01*
X162921442Y-120441488D01*
X162976165Y-120404687D01*
X163005494Y-120394731D01*
X163015994Y-120390056D01*
X163182958Y-120296552D01*
X163192430Y-120290042D01*
X163339553Y-120167682D01*
X163347682Y-120159553D01*
X163470042Y-120012430D01*
X163476552Y-120002958D01*
X163570056Y-119835994D01*
X163574730Y-119825497D01*
X163636238Y-119644302D01*
X163638926Y-119633106D01*
X163654610Y-119524929D01*
X163652624Y-119510993D01*
X163639056Y-119507000D01*
X161479991Y-119507000D01*
X161464951Y-119511416D01*
X161462899Y-119522602D01*
X161464542Y-119547676D01*
X161466343Y-119559046D01*
X161513443Y-119744502D01*
X161517284Y-119755348D01*
X161597394Y-119929120D01*
X161603145Y-119939081D01*
X161713579Y-120095343D01*
X161721057Y-120104098D01*
X161858114Y-120237612D01*
X161867058Y-120244855D01*
X162026156Y-120351161D01*
X162036266Y-120356651D01*
X162156325Y-120408232D01*
X162211018Y-120453500D01*
X162232555Y-120521151D01*
X162214098Y-120589707D01*
X162161507Y-120637401D01*
X162106587Y-120650000D01*
X160478221Y-120650000D01*
X160410100Y-120629998D01*
X160363607Y-120576342D01*
X160353503Y-120506068D01*
X160382997Y-120441488D01*
X160437720Y-120404687D01*
X160465693Y-120395192D01*
X160465698Y-120395190D01*
X160471165Y-120393334D01*
X160477019Y-120390056D01*
X160585504Y-120329301D01*
X160648276Y-120294147D01*
X160687969Y-120261135D01*
X160799913Y-120168031D01*
X160804345Y-120164345D01*
X160934147Y-120008276D01*
X160993845Y-119901677D01*
X161030510Y-119836208D01*
X161030511Y-119836206D01*
X161033334Y-119831165D01*
X161035190Y-119825698D01*
X161035192Y-119825693D01*
X161096728Y-119644414D01*
X161096729Y-119644409D01*
X161098584Y-119638945D01*
X161099412Y-119633236D01*
X161099413Y-119633231D01*
X161127179Y-119441727D01*
X161127712Y-119438053D01*
X161129232Y-119380000D01*
X161117298Y-119250124D01*
X161115910Y-119235012D01*
X161465375Y-119235012D01*
X161467817Y-119249431D01*
X161480559Y-119253000D01*
X162414885Y-119253000D01*
X162430124Y-119248525D01*
X162431329Y-119247135D01*
X162433000Y-119239452D01*
X162433000Y-119234885D01*
X162687000Y-119234885D01*
X162691475Y-119250124D01*
X162692865Y-119251329D01*
X162700548Y-119253000D01*
X163638945Y-119253000D01*
X163653490Y-119248729D01*
X163655553Y-119236595D01*
X163650693Y-119183707D01*
X163648595Y-119172386D01*
X163596658Y-118988231D01*
X163592533Y-118977484D01*
X163507903Y-118805871D01*
X163501893Y-118796063D01*
X163387400Y-118642739D01*
X163379710Y-118634199D01*
X163239192Y-118504304D01*
X163230067Y-118497303D01*
X163068236Y-118395195D01*
X163057989Y-118389974D01*
X162880260Y-118319068D01*
X162869232Y-118315801D01*
X162704769Y-118283088D01*
X162691894Y-118284240D01*
X162687000Y-118299396D01*
X162687000Y-119234885D01*
X162433000Y-119234885D01*
X162433000Y-118299678D01*
X162429194Y-118286716D01*
X162414278Y-118284780D01*
X162278737Y-118308070D01*
X162267617Y-118311050D01*
X162088095Y-118377279D01*
X162077717Y-118382229D01*
X161913273Y-118480063D01*
X161903961Y-118486829D01*
X161760097Y-118612994D01*
X161752180Y-118621337D01*
X161633718Y-118771605D01*
X161627450Y-118781256D01*
X161538360Y-118950589D01*
X161533951Y-118961232D01*
X161477210Y-119143967D01*
X161474820Y-119155211D01*
X161465375Y-119235012D01*
X161115910Y-119235012D01*
X161111187Y-119183613D01*
X161111186Y-119183610D01*
X161110658Y-119177859D01*
X161104271Y-119155211D01*
X161057125Y-118988046D01*
X161057124Y-118988044D01*
X161055557Y-118982487D01*
X161045076Y-118961232D01*
X160968331Y-118805609D01*
X160965776Y-118800428D01*
X160844320Y-118637779D01*
X160695258Y-118499987D01*
X160690375Y-118496906D01*
X160690371Y-118496903D01*
X160537820Y-118400651D01*
X160523581Y-118391667D01*
X160335039Y-118316446D01*
X160329379Y-118315320D01*
X160329375Y-118315319D01*
X160141613Y-118277971D01*
X160141610Y-118277971D01*
X160135946Y-118276844D01*
X160130171Y-118276768D01*
X160130167Y-118276768D01*
X160028793Y-118275441D01*
X159932971Y-118274187D01*
X159927274Y-118275166D01*
X159927273Y-118275166D01*
X159839397Y-118290266D01*
X159732910Y-118308564D01*
X159542463Y-118378824D01*
X159368010Y-118482612D01*
X159363670Y-118486418D01*
X159363666Y-118486421D01*
X159219733Y-118612648D01*
X159215392Y-118616455D01*
X159089720Y-118775869D01*
X159087031Y-118780980D01*
X159087029Y-118780983D01*
X159074073Y-118805609D01*
X158995203Y-118955515D01*
X158935007Y-119149378D01*
X158911148Y-119350964D01*
X158924424Y-119553522D01*
X158925845Y-119559118D01*
X158925846Y-119559123D01*
X158946119Y-119638945D01*
X158974392Y-119750269D01*
X158976809Y-119755512D01*
X159013912Y-119835994D01*
X159059377Y-119934616D01*
X159176533Y-120100389D01*
X159321938Y-120242035D01*
X159490720Y-120354812D01*
X159496023Y-120357090D01*
X159496026Y-120357092D01*
X159575006Y-120391024D01*
X159606808Y-120404687D01*
X159615059Y-120408232D01*
X159669752Y-120453500D01*
X159691289Y-120521151D01*
X159672832Y-120589707D01*
X159620241Y-120637401D01*
X159565321Y-120650000D01*
X157938221Y-120650000D01*
X157870100Y-120629998D01*
X157823607Y-120576342D01*
X157813503Y-120506068D01*
X157842997Y-120441488D01*
X157897720Y-120404687D01*
X157925693Y-120395192D01*
X157925698Y-120395190D01*
X157931165Y-120393334D01*
X157937019Y-120390056D01*
X158045504Y-120329301D01*
X158108276Y-120294147D01*
X158147969Y-120261135D01*
X158259913Y-120168031D01*
X158264345Y-120164345D01*
X158394147Y-120008276D01*
X158453845Y-119901677D01*
X158490510Y-119836208D01*
X158490511Y-119836206D01*
X158493334Y-119831165D01*
X158495190Y-119825698D01*
X158495192Y-119825693D01*
X158556728Y-119644414D01*
X158556729Y-119644409D01*
X158558584Y-119638945D01*
X158559412Y-119633236D01*
X158559413Y-119633231D01*
X158587179Y-119441727D01*
X158587712Y-119438053D01*
X158589232Y-119380000D01*
X158577298Y-119250124D01*
X158571187Y-119183613D01*
X158571186Y-119183610D01*
X158570658Y-119177859D01*
X158564271Y-119155211D01*
X158517125Y-118988046D01*
X158517124Y-118988044D01*
X158515557Y-118982487D01*
X158505076Y-118961232D01*
X158428331Y-118805609D01*
X158425776Y-118800428D01*
X158304320Y-118637779D01*
X158155258Y-118499987D01*
X158150375Y-118496906D01*
X158150371Y-118496903D01*
X157997820Y-118400651D01*
X157983581Y-118391667D01*
X157795039Y-118316446D01*
X157789379Y-118315320D01*
X157789375Y-118315319D01*
X157601613Y-118277971D01*
X157601610Y-118277971D01*
X157595946Y-118276844D01*
X157590171Y-118276768D01*
X157590167Y-118276768D01*
X157488793Y-118275441D01*
X157392971Y-118274187D01*
X157387274Y-118275166D01*
X157387273Y-118275166D01*
X157299397Y-118290266D01*
X157192910Y-118308564D01*
X157002463Y-118378824D01*
X156828010Y-118482612D01*
X156823670Y-118486418D01*
X156823666Y-118486421D01*
X156679733Y-118612648D01*
X156675392Y-118616455D01*
X156549720Y-118775869D01*
X156547031Y-118780980D01*
X156547029Y-118780983D01*
X156534073Y-118805609D01*
X156455203Y-118955515D01*
X156395007Y-119149378D01*
X156371148Y-119350964D01*
X156384424Y-119553522D01*
X156385845Y-119559118D01*
X156385846Y-119559123D01*
X156406119Y-119638945D01*
X156434392Y-119750269D01*
X156436809Y-119755512D01*
X156473912Y-119835994D01*
X156519377Y-119934616D01*
X156636533Y-120100389D01*
X156781938Y-120242035D01*
X156950720Y-120354812D01*
X156956023Y-120357090D01*
X156956026Y-120357092D01*
X157035006Y-120391024D01*
X157066808Y-120404687D01*
X157075059Y-120408232D01*
X157129752Y-120453500D01*
X157151289Y-120521151D01*
X157132832Y-120589707D01*
X157080241Y-120637401D01*
X157025321Y-120650000D01*
X155398221Y-120650000D01*
X155330100Y-120629998D01*
X155283607Y-120576342D01*
X155273503Y-120506068D01*
X155302997Y-120441488D01*
X155357720Y-120404687D01*
X155385693Y-120395192D01*
X155385698Y-120395190D01*
X155391165Y-120393334D01*
X155397019Y-120390056D01*
X155505504Y-120329301D01*
X155568276Y-120294147D01*
X155607969Y-120261135D01*
X155719913Y-120168031D01*
X155724345Y-120164345D01*
X155854147Y-120008276D01*
X155913845Y-119901677D01*
X155950510Y-119836208D01*
X155950511Y-119836206D01*
X155953334Y-119831165D01*
X155955190Y-119825698D01*
X155955192Y-119825693D01*
X156016728Y-119644414D01*
X156016729Y-119644409D01*
X156018584Y-119638945D01*
X156019412Y-119633236D01*
X156019413Y-119633231D01*
X156047179Y-119441727D01*
X156047712Y-119438053D01*
X156049232Y-119380000D01*
X156037298Y-119250124D01*
X156031187Y-119183613D01*
X156031186Y-119183610D01*
X156030658Y-119177859D01*
X156024271Y-119155211D01*
X155977125Y-118988046D01*
X155977124Y-118988044D01*
X155975557Y-118982487D01*
X155965076Y-118961232D01*
X155888331Y-118805609D01*
X155885776Y-118800428D01*
X155764320Y-118637779D01*
X155615258Y-118499987D01*
X155610375Y-118496906D01*
X155610371Y-118496903D01*
X155457820Y-118400651D01*
X155443581Y-118391667D01*
X155255039Y-118316446D01*
X155249379Y-118315320D01*
X155249375Y-118315319D01*
X155061613Y-118277971D01*
X155061610Y-118277971D01*
X155055946Y-118276844D01*
X155050171Y-118276768D01*
X155050167Y-118276768D01*
X154948793Y-118275441D01*
X154852971Y-118274187D01*
X154847274Y-118275166D01*
X154847273Y-118275166D01*
X154759397Y-118290266D01*
X154652910Y-118308564D01*
X154462463Y-118378824D01*
X154288010Y-118482612D01*
X154283670Y-118486418D01*
X154283666Y-118486421D01*
X154139733Y-118612648D01*
X154135392Y-118616455D01*
X154009720Y-118775869D01*
X154007031Y-118780980D01*
X154007029Y-118780983D01*
X153994073Y-118805609D01*
X153915203Y-118955515D01*
X153855007Y-119149378D01*
X153831148Y-119350964D01*
X153844424Y-119553522D01*
X153845845Y-119559118D01*
X153845846Y-119559123D01*
X153866119Y-119638945D01*
X153894392Y-119750269D01*
X153896809Y-119755512D01*
X153933912Y-119835994D01*
X153979377Y-119934616D01*
X154096533Y-120100389D01*
X154241938Y-120242035D01*
X154410720Y-120354812D01*
X154416023Y-120357090D01*
X154416026Y-120357092D01*
X154495006Y-120391024D01*
X154526808Y-120404687D01*
X154535059Y-120408232D01*
X154589752Y-120453500D01*
X154611289Y-120521151D01*
X154592832Y-120589707D01*
X154540241Y-120637401D01*
X154485321Y-120650000D01*
X152858221Y-120650000D01*
X152790100Y-120629998D01*
X152743607Y-120576342D01*
X152733503Y-120506068D01*
X152762997Y-120441488D01*
X152817720Y-120404687D01*
X152845693Y-120395192D01*
X152845698Y-120395190D01*
X152851165Y-120393334D01*
X152857019Y-120390056D01*
X152965504Y-120329301D01*
X153028276Y-120294147D01*
X153067969Y-120261135D01*
X153179913Y-120168031D01*
X153184345Y-120164345D01*
X153314147Y-120008276D01*
X153373845Y-119901677D01*
X153410510Y-119836208D01*
X153410511Y-119836206D01*
X153413334Y-119831165D01*
X153415190Y-119825698D01*
X153415192Y-119825693D01*
X153476728Y-119644414D01*
X153476729Y-119644409D01*
X153478584Y-119638945D01*
X153479412Y-119633236D01*
X153479413Y-119633231D01*
X153507179Y-119441727D01*
X153507712Y-119438053D01*
X153509232Y-119380000D01*
X153497298Y-119250124D01*
X153491187Y-119183613D01*
X153491186Y-119183610D01*
X153490658Y-119177859D01*
X153484271Y-119155211D01*
X153437125Y-118988046D01*
X153437124Y-118988044D01*
X153435557Y-118982487D01*
X153425076Y-118961232D01*
X153348331Y-118805609D01*
X153345776Y-118800428D01*
X153224320Y-118637779D01*
X153075258Y-118499987D01*
X153070375Y-118496906D01*
X153070371Y-118496903D01*
X152917820Y-118400651D01*
X152903581Y-118391667D01*
X152715039Y-118316446D01*
X152709379Y-118315320D01*
X152709375Y-118315319D01*
X152521613Y-118277971D01*
X152521610Y-118277971D01*
X152515946Y-118276844D01*
X152510171Y-118276768D01*
X152510167Y-118276768D01*
X152408793Y-118275441D01*
X152312971Y-118274187D01*
X152307274Y-118275166D01*
X152307273Y-118275166D01*
X152219397Y-118290266D01*
X152112910Y-118308564D01*
X151922463Y-118378824D01*
X151748010Y-118482612D01*
X151743670Y-118486418D01*
X151743666Y-118486421D01*
X151599733Y-118612648D01*
X151595392Y-118616455D01*
X151469720Y-118775869D01*
X151467031Y-118780980D01*
X151467029Y-118780983D01*
X151454073Y-118805609D01*
X151375203Y-118955515D01*
X151315007Y-119149378D01*
X151291148Y-119350964D01*
X151304424Y-119553522D01*
X151305845Y-119559118D01*
X151305846Y-119559123D01*
X151326119Y-119638945D01*
X151354392Y-119750269D01*
X151356809Y-119755512D01*
X151393912Y-119835994D01*
X151439377Y-119934616D01*
X151556533Y-120100389D01*
X151701938Y-120242035D01*
X151870720Y-120354812D01*
X151876023Y-120357090D01*
X151876026Y-120357092D01*
X151955006Y-120391024D01*
X151986808Y-120404687D01*
X151995059Y-120408232D01*
X152049752Y-120453500D01*
X152071289Y-120521151D01*
X152052832Y-120589707D01*
X152000241Y-120637401D01*
X151945321Y-120650000D01*
X150316666Y-120650000D01*
X150248545Y-120629998D01*
X150202052Y-120576342D01*
X150191948Y-120506068D01*
X150221442Y-120441488D01*
X150276165Y-120404687D01*
X150305494Y-120394731D01*
X150315994Y-120390056D01*
X150482958Y-120296552D01*
X150492430Y-120290042D01*
X150639553Y-120167682D01*
X150647682Y-120159553D01*
X150770042Y-120012430D01*
X150776552Y-120002958D01*
X150870056Y-119835994D01*
X150874730Y-119825497D01*
X150936238Y-119644302D01*
X150938926Y-119633106D01*
X150954610Y-119524929D01*
X150952624Y-119510993D01*
X150939056Y-119507000D01*
X148779991Y-119507000D01*
X148764951Y-119511416D01*
X148762899Y-119522602D01*
X148764542Y-119547676D01*
X148766343Y-119559046D01*
X148813443Y-119744502D01*
X148817284Y-119755348D01*
X148897394Y-119929120D01*
X148903145Y-119939081D01*
X149013579Y-120095343D01*
X149021057Y-120104098D01*
X149158114Y-120237612D01*
X149167058Y-120244855D01*
X149326156Y-120351161D01*
X149336266Y-120356651D01*
X149456325Y-120408232D01*
X149511018Y-120453500D01*
X149532555Y-120521151D01*
X149514098Y-120589707D01*
X149461507Y-120637401D01*
X149406587Y-120650000D01*
X147778221Y-120650000D01*
X147710100Y-120629998D01*
X147663607Y-120576342D01*
X147653503Y-120506068D01*
X147682997Y-120441488D01*
X147737720Y-120404687D01*
X147765693Y-120395192D01*
X147765698Y-120395190D01*
X147771165Y-120393334D01*
X147777019Y-120390056D01*
X147885504Y-120329301D01*
X147948276Y-120294147D01*
X147987969Y-120261135D01*
X148099913Y-120168031D01*
X148104345Y-120164345D01*
X148234147Y-120008276D01*
X148293845Y-119901677D01*
X148330510Y-119836208D01*
X148330511Y-119836206D01*
X148333334Y-119831165D01*
X148335190Y-119825698D01*
X148335192Y-119825693D01*
X148396728Y-119644414D01*
X148396729Y-119644409D01*
X148398584Y-119638945D01*
X148399412Y-119633236D01*
X148399413Y-119633231D01*
X148427179Y-119441727D01*
X148427712Y-119438053D01*
X148429232Y-119380000D01*
X148417298Y-119250124D01*
X148415910Y-119235012D01*
X148765375Y-119235012D01*
X148767817Y-119249431D01*
X148780559Y-119253000D01*
X149714885Y-119253000D01*
X149730124Y-119248525D01*
X149731329Y-119247135D01*
X149733000Y-119239452D01*
X149733000Y-119234885D01*
X149987000Y-119234885D01*
X149991475Y-119250124D01*
X149992865Y-119251329D01*
X150000548Y-119253000D01*
X150938945Y-119253000D01*
X150953490Y-119248729D01*
X150955553Y-119236595D01*
X150950693Y-119183707D01*
X150948595Y-119172386D01*
X150896658Y-118988231D01*
X150892533Y-118977484D01*
X150807903Y-118805871D01*
X150801893Y-118796063D01*
X150687400Y-118642739D01*
X150679710Y-118634199D01*
X150539192Y-118504304D01*
X150530067Y-118497303D01*
X150368236Y-118395195D01*
X150357989Y-118389974D01*
X150180260Y-118319068D01*
X150169232Y-118315801D01*
X150004769Y-118283088D01*
X149991894Y-118284240D01*
X149987000Y-118299396D01*
X149987000Y-119234885D01*
X149733000Y-119234885D01*
X149733000Y-118299678D01*
X149729194Y-118286716D01*
X149714278Y-118284780D01*
X149578737Y-118308070D01*
X149567617Y-118311050D01*
X149388095Y-118377279D01*
X149377717Y-118382229D01*
X149213273Y-118480063D01*
X149203961Y-118486829D01*
X149060097Y-118612994D01*
X149052180Y-118621337D01*
X148933718Y-118771605D01*
X148927450Y-118781256D01*
X148838360Y-118950589D01*
X148833951Y-118961232D01*
X148777210Y-119143967D01*
X148774820Y-119155211D01*
X148765375Y-119235012D01*
X148415910Y-119235012D01*
X148411187Y-119183613D01*
X148411186Y-119183610D01*
X148410658Y-119177859D01*
X148404271Y-119155211D01*
X148357125Y-118988046D01*
X148357124Y-118988044D01*
X148355557Y-118982487D01*
X148345076Y-118961232D01*
X148268331Y-118805609D01*
X148265776Y-118800428D01*
X148144320Y-118637779D01*
X147995258Y-118499987D01*
X147990375Y-118496906D01*
X147990371Y-118496903D01*
X147837820Y-118400651D01*
X147823581Y-118391667D01*
X147635039Y-118316446D01*
X147629379Y-118315320D01*
X147629375Y-118315319D01*
X147441613Y-118277971D01*
X147441610Y-118277971D01*
X147435946Y-118276844D01*
X147430171Y-118276768D01*
X147430167Y-118276768D01*
X147328793Y-118275441D01*
X147232971Y-118274187D01*
X147227274Y-118275166D01*
X147227273Y-118275166D01*
X147139397Y-118290266D01*
X147032910Y-118308564D01*
X146842463Y-118378824D01*
X146668010Y-118482612D01*
X146663670Y-118486418D01*
X146663666Y-118486421D01*
X146519733Y-118612648D01*
X146515392Y-118616455D01*
X146389720Y-118775869D01*
X146387031Y-118780980D01*
X146387029Y-118780983D01*
X146374073Y-118805609D01*
X146295203Y-118955515D01*
X146235007Y-119149378D01*
X146211148Y-119350964D01*
X146224424Y-119553522D01*
X146225845Y-119559118D01*
X146225846Y-119559123D01*
X146246119Y-119638945D01*
X146274392Y-119750269D01*
X146276809Y-119755512D01*
X146313912Y-119835994D01*
X146359377Y-119934616D01*
X146476533Y-120100389D01*
X146621938Y-120242035D01*
X146790720Y-120354812D01*
X146796023Y-120357090D01*
X146796026Y-120357092D01*
X146875006Y-120391024D01*
X146906808Y-120404687D01*
X146915059Y-120408232D01*
X146969752Y-120453500D01*
X146991289Y-120521151D01*
X146972832Y-120589707D01*
X146920241Y-120637401D01*
X146865321Y-120650000D01*
X145238221Y-120650000D01*
X145170100Y-120629998D01*
X145123607Y-120576342D01*
X145113503Y-120506068D01*
X145142997Y-120441488D01*
X145197720Y-120404687D01*
X145225693Y-120395192D01*
X145225698Y-120395190D01*
X145231165Y-120393334D01*
X145237019Y-120390056D01*
X145345504Y-120329301D01*
X145408276Y-120294147D01*
X145447969Y-120261135D01*
X145559913Y-120168031D01*
X145564345Y-120164345D01*
X145694147Y-120008276D01*
X145753845Y-119901677D01*
X145790510Y-119836208D01*
X145790511Y-119836206D01*
X145793334Y-119831165D01*
X145795190Y-119825698D01*
X145795192Y-119825693D01*
X145856728Y-119644414D01*
X145856729Y-119644409D01*
X145858584Y-119638945D01*
X145859412Y-119633236D01*
X145859413Y-119633231D01*
X145887179Y-119441727D01*
X145887712Y-119438053D01*
X145889232Y-119380000D01*
X145877298Y-119250124D01*
X145871187Y-119183613D01*
X145871186Y-119183610D01*
X145870658Y-119177859D01*
X145864271Y-119155211D01*
X145817125Y-118988046D01*
X145817124Y-118988044D01*
X145815557Y-118982487D01*
X145805076Y-118961232D01*
X145728331Y-118805609D01*
X145725776Y-118800428D01*
X145604320Y-118637779D01*
X145455258Y-118499987D01*
X145450375Y-118496906D01*
X145450371Y-118496903D01*
X145297820Y-118400651D01*
X145283581Y-118391667D01*
X145095039Y-118316446D01*
X145089379Y-118315320D01*
X145089375Y-118315319D01*
X144901613Y-118277971D01*
X144901610Y-118277971D01*
X144895946Y-118276844D01*
X144890171Y-118276768D01*
X144890167Y-118276768D01*
X144788793Y-118275441D01*
X144692971Y-118274187D01*
X144687274Y-118275166D01*
X144687273Y-118275166D01*
X144599397Y-118290266D01*
X144492910Y-118308564D01*
X144302463Y-118378824D01*
X144128010Y-118482612D01*
X144123670Y-118486418D01*
X144123666Y-118486421D01*
X143979733Y-118612648D01*
X143975392Y-118616455D01*
X143849720Y-118775869D01*
X143847031Y-118780980D01*
X143847029Y-118780983D01*
X143834073Y-118805609D01*
X143755203Y-118955515D01*
X143695007Y-119149378D01*
X143671148Y-119350964D01*
X143684424Y-119553522D01*
X143685845Y-119559118D01*
X143685846Y-119559123D01*
X143706119Y-119638945D01*
X143734392Y-119750269D01*
X143736809Y-119755512D01*
X143773912Y-119835994D01*
X143819377Y-119934616D01*
X143936533Y-120100389D01*
X144081938Y-120242035D01*
X144250720Y-120354812D01*
X144256023Y-120357090D01*
X144256026Y-120357092D01*
X144335006Y-120391024D01*
X144366808Y-120404687D01*
X144375059Y-120408232D01*
X144429752Y-120453500D01*
X144451289Y-120521151D01*
X144432832Y-120589707D01*
X144380241Y-120637401D01*
X144325321Y-120650000D01*
X142698221Y-120650000D01*
X142630100Y-120629998D01*
X142583607Y-120576342D01*
X142573503Y-120506068D01*
X142602997Y-120441488D01*
X142657720Y-120404687D01*
X142685693Y-120395192D01*
X142685698Y-120395190D01*
X142691165Y-120393334D01*
X142697019Y-120390056D01*
X142805504Y-120329301D01*
X142868276Y-120294147D01*
X142907969Y-120261135D01*
X143019913Y-120168031D01*
X143024345Y-120164345D01*
X143154147Y-120008276D01*
X143213845Y-119901677D01*
X143250510Y-119836208D01*
X143250511Y-119836206D01*
X143253334Y-119831165D01*
X143255190Y-119825698D01*
X143255192Y-119825693D01*
X143316728Y-119644414D01*
X143316729Y-119644409D01*
X143318584Y-119638945D01*
X143319412Y-119633236D01*
X143319413Y-119633231D01*
X143347179Y-119441727D01*
X143347712Y-119438053D01*
X143349232Y-119380000D01*
X143337298Y-119250124D01*
X143331187Y-119183613D01*
X143331186Y-119183610D01*
X143330658Y-119177859D01*
X143324271Y-119155211D01*
X143277125Y-118988046D01*
X143277124Y-118988044D01*
X143275557Y-118982487D01*
X143265076Y-118961232D01*
X143188331Y-118805609D01*
X143185776Y-118800428D01*
X143064320Y-118637779D01*
X142915258Y-118499987D01*
X142910375Y-118496906D01*
X142910371Y-118496903D01*
X142757820Y-118400651D01*
X142743581Y-118391667D01*
X142555039Y-118316446D01*
X142549379Y-118315320D01*
X142549375Y-118315319D01*
X142361613Y-118277971D01*
X142361610Y-118277971D01*
X142355946Y-118276844D01*
X142350171Y-118276768D01*
X142350167Y-118276768D01*
X142248793Y-118275441D01*
X142152971Y-118274187D01*
X142147274Y-118275166D01*
X142147273Y-118275166D01*
X142059397Y-118290266D01*
X141952910Y-118308564D01*
X141821844Y-118356917D01*
X141751012Y-118361729D01*
X141689141Y-118327802D01*
X140888923Y-117527584D01*
X140854899Y-117465274D01*
X140859963Y-117394459D01*
X140902510Y-117337623D01*
X140969030Y-117312812D01*
X140978019Y-117312491D01*
X165740569Y-117312491D01*
X165808690Y-117332493D01*
X165845150Y-117368214D01*
X165932405Y-117498063D01*
X165938024Y-117503176D01*
X165938025Y-117503177D01*
X166043957Y-117599567D01*
X166049573Y-117604677D01*
X166188790Y-117680266D01*
X166342019Y-117720465D01*
X166425974Y-117721784D01*
X166492816Y-117722834D01*
X166492819Y-117722834D01*
X166500413Y-117722953D01*
X166654829Y-117687587D01*
X166725239Y-117652175D01*
X166789569Y-117619821D01*
X166789572Y-117619819D01*
X166796352Y-117616409D01*
X166802123Y-117611480D01*
X166802126Y-117611478D01*
X166911033Y-117518462D01*
X166911033Y-117518461D01*
X166916811Y-117513527D01*
X167009252Y-117384882D01*
X167068339Y-117237899D01*
X167090659Y-117081065D01*
X167090804Y-117067258D01*
X167071773Y-116909991D01*
X167015777Y-116761804D01*
X166926050Y-116631250D01*
X166807772Y-116525869D01*
X166800386Y-116521958D01*
X166674485Y-116455297D01*
X166674486Y-116455297D01*
X166667771Y-116451742D01*
X166514130Y-116413150D01*
X166506531Y-116413110D01*
X166506530Y-116413110D01*
X166440678Y-116412765D01*
X166355718Y-116412320D01*
X166348338Y-116414092D01*
X166348336Y-116414092D01*
X166209060Y-116447529D01*
X166209057Y-116447530D01*
X166201681Y-116449301D01*
X166060911Y-116521958D01*
X166055189Y-116526950D01*
X166055187Y-116526951D01*
X166003042Y-116572440D01*
X165938560Y-116602148D01*
X165920213Y-116603491D01*
X140582025Y-116603491D01*
X140513904Y-116583489D01*
X140492930Y-116566586D01*
X139834939Y-115908595D01*
X139800913Y-115846283D01*
X139805978Y-115775468D01*
X139848525Y-115718632D01*
X139915045Y-115693821D01*
X139924034Y-115693500D01*
X140152135Y-115693500D01*
X140164140Y-115694841D01*
X140164180Y-115694345D01*
X140173127Y-115695065D01*
X140181883Y-115697046D01*
X140235141Y-115693742D01*
X140242943Y-115693500D01*
X140258985Y-115693500D01*
X140263416Y-115692865D01*
X140263421Y-115692865D01*
X140267446Y-115692288D01*
X140269216Y-115692035D01*
X140279273Y-115691004D01*
X140301735Y-115689611D01*
X140317159Y-115688654D01*
X140317161Y-115688654D01*
X140326118Y-115688098D01*
X140334558Y-115685051D01*
X140337848Y-115684370D01*
X140353697Y-115680418D01*
X140356927Y-115679473D01*
X140365811Y-115678201D01*
X140408522Y-115658782D01*
X140417887Y-115654970D01*
X140453596Y-115642078D01*
X140453599Y-115642076D01*
X140462043Y-115639028D01*
X140469292Y-115633732D01*
X140472249Y-115632160D01*
X140486373Y-115623907D01*
X140489196Y-115622102D01*
X140497364Y-115618388D01*
X140504161Y-115612531D01*
X140504163Y-115612530D01*
X140532912Y-115587757D01*
X140540823Y-115581475D01*
X140551703Y-115573527D01*
X140562565Y-115562665D01*
X140569412Y-115556307D01*
X140600041Y-115529915D01*
X140606841Y-115524056D01*
X140611725Y-115516521D01*
X140617458Y-115509949D01*
X140626685Y-115498545D01*
X141228662Y-114896568D01*
X162215029Y-114896568D01*
X162216801Y-114903948D01*
X162216801Y-114903950D01*
X162250892Y-115045948D01*
X162254835Y-115062373D01*
X162333042Y-115213896D01*
X162445135Y-115342391D01*
X162584643Y-115440438D01*
X162680512Y-115477816D01*
X162736431Y-115499618D01*
X162736434Y-115499619D01*
X162743511Y-115502378D01*
X162751044Y-115503370D01*
X162751045Y-115503370D01*
X162869477Y-115518962D01*
X162869478Y-115518962D01*
X162873564Y-115519500D01*
X164062756Y-115519500D01*
X164189281Y-115504189D01*
X164348789Y-115443916D01*
X164489316Y-115347334D01*
X164508266Y-115326065D01*
X164597695Y-115225693D01*
X164597697Y-115225690D01*
X164602748Y-115220021D01*
X164652646Y-115125780D01*
X164678984Y-115076037D01*
X164678985Y-115076035D01*
X164682538Y-115069324D01*
X164685972Y-115055651D01*
X164722227Y-114911317D01*
X164722227Y-114911313D01*
X164724078Y-114903946D01*
X164724157Y-114888974D01*
X164724931Y-114741026D01*
X164724971Y-114733432D01*
X164723199Y-114726050D01*
X164686937Y-114575006D01*
X164686936Y-114575002D01*
X164685165Y-114567627D01*
X164606958Y-114416104D01*
X164588025Y-114394400D01*
X164499861Y-114293336D01*
X164494865Y-114287609D01*
X164355357Y-114189562D01*
X164240654Y-114144841D01*
X164203566Y-114130381D01*
X164203564Y-114130381D01*
X164196489Y-114127622D01*
X164193506Y-114127229D01*
X164134180Y-114091917D01*
X164102490Y-114028385D01*
X164110178Y-113957806D01*
X164154804Y-113902588D01*
X164176478Y-113890551D01*
X164242064Y-113862169D01*
X164242065Y-113862169D01*
X164249946Y-113858758D01*
X164297909Y-113819919D01*
X164361339Y-113768555D01*
X164361341Y-113768553D01*
X164368013Y-113763150D01*
X164396670Y-113722827D01*
X164451044Y-113646315D01*
X164451044Y-113646314D01*
X164456020Y-113639313D01*
X164507482Y-113496371D01*
X164508313Y-113485063D01*
X164517980Y-113353418D01*
X164518609Y-113344855D01*
X164488580Y-113195929D01*
X164454361Y-113128770D01*
X164423508Y-113068217D01*
X164423506Y-113068214D01*
X164419608Y-113060564D01*
X164393966Y-113032678D01*
X164322584Y-112955052D01*
X164322583Y-112955051D01*
X164316774Y-112948734D01*
X164300598Y-112938704D01*
X164194956Y-112873203D01*
X164194955Y-112873202D01*
X164187656Y-112868677D01*
X164041765Y-112826291D01*
X164030993Y-112825500D01*
X163921943Y-112825500D01*
X163917697Y-112826082D01*
X163917691Y-112826082D01*
X163838946Y-112836869D01*
X163809482Y-112840905D01*
X163801598Y-112844317D01*
X163801597Y-112844317D01*
X163681892Y-112896119D01*
X163670054Y-112901242D01*
X163663381Y-112906646D01*
X163558661Y-112991445D01*
X163558659Y-112991447D01*
X163551987Y-112996850D01*
X163547013Y-113003849D01*
X163547012Y-113003850D01*
X163511201Y-113054241D01*
X163463980Y-113120687D01*
X163412518Y-113263629D01*
X163411889Y-113272189D01*
X163411889Y-113272191D01*
X163408215Y-113322225D01*
X163401391Y-113415145D01*
X163431420Y-113564071D01*
X163435320Y-113571725D01*
X163496492Y-113691783D01*
X163496494Y-113691786D01*
X163500392Y-113699436D01*
X163506205Y-113705757D01*
X163506206Y-113705759D01*
X163562396Y-113766864D01*
X163603226Y-113811266D01*
X163610521Y-113815789D01*
X163610522Y-113815790D01*
X163709911Y-113877414D01*
X163757266Y-113930310D01*
X163768505Y-114000411D01*
X163740061Y-114065461D01*
X163680964Y-114104806D01*
X163643514Y-114110500D01*
X162877244Y-114110500D01*
X162750719Y-114125811D01*
X162591211Y-114186084D01*
X162584953Y-114190385D01*
X162459685Y-114276480D01*
X162450684Y-114282666D01*
X162445632Y-114288336D01*
X162445631Y-114288337D01*
X162342305Y-114404307D01*
X162342303Y-114404310D01*
X162337252Y-114409979D01*
X162333697Y-114416692D01*
X162333697Y-114416693D01*
X162264294Y-114547773D01*
X162257462Y-114560676D01*
X162255612Y-114568041D01*
X162222169Y-114701185D01*
X162215922Y-114726054D01*
X162215882Y-114733653D01*
X162215882Y-114733655D01*
X162215555Y-114796062D01*
X162215029Y-114896568D01*
X141228662Y-114896568D01*
X141791825Y-114333405D01*
X141854137Y-114299379D01*
X141880920Y-114296500D01*
X148454992Y-114296500D01*
X148457301Y-114296521D01*
X148525998Y-114297780D01*
X148557971Y-114289063D01*
X148573252Y-114285898D01*
X148606052Y-114281201D01*
X148614223Y-114277486D01*
X148614226Y-114277485D01*
X148625637Y-114272296D01*
X148644649Y-114265432D01*
X148656765Y-114262129D01*
X148665422Y-114259769D01*
X148693666Y-114242427D01*
X148707442Y-114235103D01*
X148729428Y-114225107D01*
X148729435Y-114225103D01*
X148737605Y-114221388D01*
X148746925Y-114213357D01*
X148753911Y-114207338D01*
X148770228Y-114195418D01*
X148780921Y-114188852D01*
X148780922Y-114188851D01*
X148788572Y-114184154D01*
X148810817Y-114159578D01*
X148821977Y-114148688D01*
X148840280Y-114132917D01*
X148847082Y-114127056D01*
X148851966Y-114119522D01*
X148851968Y-114119519D01*
X148858786Y-114109000D01*
X148871103Y-114092977D01*
X148879524Y-114083673D01*
X148879525Y-114083672D01*
X148885551Y-114077014D01*
X148890820Y-114066139D01*
X148900002Y-114047188D01*
X148907662Y-114033594D01*
X148920797Y-114013329D01*
X148920799Y-114013326D01*
X148925683Y-114005790D01*
X148931853Y-113985161D01*
X148939176Y-113966331D01*
X148944645Y-113955043D01*
X148944645Y-113955042D01*
X148948560Y-113946962D01*
X148954057Y-113914286D01*
X148957594Y-113899087D01*
X148960227Y-113890283D01*
X148967090Y-113867337D01*
X148967221Y-113845813D01*
X148968966Y-113825675D01*
X148971729Y-113809255D01*
X148971730Y-113809243D01*
X148972536Y-113804453D01*
X148972688Y-113792000D01*
X148969088Y-113766860D01*
X148967817Y-113748232D01*
X148967917Y-113731802D01*
X148967972Y-113722827D01*
X148965506Y-113714197D01*
X148965505Y-113714193D01*
X148959928Y-113694680D01*
X148956350Y-113677919D01*
X148955312Y-113670670D01*
X148952201Y-113648948D01*
X148941692Y-113625835D01*
X148935242Y-113608306D01*
X148930727Y-113592507D01*
X148930726Y-113592506D01*
X148928261Y-113583879D01*
X148912641Y-113559123D01*
X148904503Y-113544040D01*
X148896105Y-113525571D01*
X148892388Y-113517395D01*
X148886524Y-113510589D01*
X148875809Y-113498153D01*
X148864701Y-113483142D01*
X148855939Y-113469255D01*
X148855937Y-113469253D01*
X148851147Y-113461661D01*
X148829204Y-113442282D01*
X148817163Y-113430093D01*
X148798056Y-113407918D01*
X148776744Y-113394104D01*
X148761872Y-113382816D01*
X148749558Y-113371941D01*
X148742830Y-113365999D01*
X148728487Y-113359265D01*
X148716335Y-113353559D01*
X148701356Y-113345238D01*
X148684326Y-113334200D01*
X148684318Y-113334196D01*
X148676790Y-113329317D01*
X148652449Y-113322037D01*
X148635013Y-113315379D01*
X148612018Y-113304583D01*
X148603152Y-113303203D01*
X148603150Y-113303202D01*
X148583103Y-113300081D01*
X148566385Y-113296298D01*
X148546938Y-113290482D01*
X148546936Y-113290482D01*
X148538337Y-113287910D01*
X148529365Y-113287855D01*
X148529363Y-113287855D01*
X148519086Y-113287793D01*
X148504154Y-113287702D01*
X148503392Y-113287670D01*
X148502303Y-113287500D01*
X148471602Y-113287500D01*
X148470833Y-113287498D01*
X148393827Y-113287028D01*
X148392492Y-113287410D01*
X148391164Y-113287500D01*
X141690383Y-113287500D01*
X141678378Y-113286159D01*
X141678338Y-113286655D01*
X141669391Y-113285935D01*
X141660635Y-113283954D01*
X141607377Y-113287258D01*
X141599575Y-113287500D01*
X141583533Y-113287500D01*
X141579102Y-113288135D01*
X141579097Y-113288135D01*
X141575072Y-113288712D01*
X141573302Y-113288965D01*
X141563245Y-113289996D01*
X141540783Y-113291389D01*
X141525359Y-113292346D01*
X141525357Y-113292346D01*
X141516400Y-113292902D01*
X141507960Y-113295949D01*
X141504670Y-113296630D01*
X141488821Y-113300582D01*
X141485591Y-113301527D01*
X141476707Y-113302799D01*
X141434392Y-113322038D01*
X141433981Y-113322225D01*
X141424619Y-113326036D01*
X141388917Y-113338925D01*
X141388916Y-113338926D01*
X141380475Y-113341973D01*
X141373226Y-113347269D01*
X141370245Y-113348854D01*
X141356167Y-113357080D01*
X141353328Y-113358896D01*
X141345154Y-113362612D01*
X141328781Y-113376720D01*
X141309607Y-113393242D01*
X141301689Y-113399530D01*
X141290815Y-113407473D01*
X141279953Y-113418335D01*
X141273107Y-113424693D01*
X141235677Y-113456944D01*
X141230793Y-113464479D01*
X141225060Y-113471051D01*
X141215833Y-113482455D01*
X140535356Y-114162932D01*
X140473044Y-114196958D01*
X140402229Y-114191893D01*
X140350810Y-114156086D01*
X140289056Y-114084418D01*
X140220765Y-114040154D01*
X140175324Y-114010700D01*
X140175322Y-114010699D01*
X140167790Y-114005817D01*
X140138947Y-113997191D01*
X140037938Y-113966982D01*
X140037936Y-113966982D01*
X140029337Y-113964410D01*
X140020361Y-113964355D01*
X140020360Y-113964355D01*
X140002508Y-113964246D01*
X139934511Y-113943828D01*
X139914183Y-113927344D01*
X139691416Y-113704578D01*
X139678914Y-113689098D01*
X139675975Y-113685868D01*
X139670325Y-113677118D01*
X139646062Y-113657991D01*
X139642067Y-113654441D01*
X139641983Y-113654540D01*
X139638020Y-113651182D01*
X139634344Y-113647506D01*
X139624920Y-113640771D01*
X139619848Y-113637146D01*
X139615105Y-113633585D01*
X139585825Y-113610503D01*
X139585821Y-113610501D01*
X139577643Y-113604054D01*
X139569575Y-113601221D01*
X139562615Y-113596247D01*
X139550109Y-113592507D01*
X139516914Y-113582580D01*
X139511265Y-113580744D01*
X139496037Y-113575396D01*
X139466292Y-113564950D01*
X139461096Y-113564500D01*
X139458391Y-113564500D01*
X139456135Y-113564403D01*
X139455659Y-113564260D01*
X139455661Y-113564214D01*
X139455462Y-113564201D01*
X139449545Y-113562432D01*
X139399911Y-113564382D01*
X139399376Y-113564403D01*
X139394430Y-113564500D01*
X137011409Y-113564500D01*
X136943288Y-113544498D01*
X136896795Y-113490842D01*
X136887155Y-113417595D01*
X136899393Y-113344855D01*
X136907536Y-113296453D01*
X136907619Y-113289683D01*
X136907629Y-113288860D01*
X136907629Y-113288856D01*
X136907688Y-113284000D01*
X136903614Y-113255550D01*
X136888120Y-113147362D01*
X136898262Y-113077094D01*
X136944785Y-113023464D01*
X137012847Y-113003500D01*
X156285743Y-113003500D01*
X156305537Y-113005606D01*
X156309890Y-113005811D01*
X156320070Y-113008003D01*
X156350740Y-113004373D01*
X156356083Y-113004058D01*
X156356072Y-113003928D01*
X156361252Y-113003500D01*
X156366451Y-113003500D01*
X156371575Y-113002647D01*
X156371588Y-113002646D01*
X156384041Y-113000573D01*
X156389916Y-112999736D01*
X156426929Y-112995355D01*
X156437270Y-112994131D01*
X156444978Y-112990430D01*
X156453417Y-112989025D01*
X156495401Y-112966371D01*
X156500664Y-112963690D01*
X156531810Y-112948734D01*
X156543658Y-112943045D01*
X156547650Y-112939689D01*
X156549597Y-112937742D01*
X156551222Y-112936252D01*
X156551654Y-112936019D01*
X156551687Y-112936055D01*
X156551845Y-112935916D01*
X156557280Y-112932983D01*
X156591357Y-112896119D01*
X156594786Y-112892553D01*
X157861056Y-111626283D01*
X157923368Y-111592257D01*
X157950151Y-111589378D01*
X158352717Y-111589378D01*
X158420838Y-111609380D01*
X158426309Y-111613543D01*
X158427398Y-111614838D01*
X158432301Y-111618102D01*
X158432308Y-111618107D01*
X158540223Y-111689941D01*
X158540225Y-111689942D01*
X158547696Y-111694915D01*
X158556260Y-111697591D01*
X158556263Y-111697592D01*
X158616664Y-111716463D01*
X158685632Y-111738010D01*
X158830120Y-111740658D01*
X158849652Y-111735333D01*
X158960885Y-111705008D01*
X158960887Y-111705007D01*
X158969544Y-111702647D01*
X159092694Y-111627032D01*
X159109335Y-111608648D01*
X159165935Y-111546117D01*
X159189673Y-111519892D01*
X159245854Y-111403934D01*
X159248767Y-111397921D01*
X159248767Y-111397920D01*
X159252682Y-111389840D01*
X159276658Y-111247331D01*
X159276810Y-111234878D01*
X159256323Y-111091826D01*
X159196510Y-110960273D01*
X159190652Y-110953474D01*
X159190649Y-110953470D01*
X159108038Y-110857596D01*
X159108035Y-110857594D01*
X159102178Y-110850796D01*
X159041545Y-110811495D01*
X158988446Y-110777078D01*
X158988444Y-110777077D01*
X158980912Y-110772195D01*
X158936718Y-110758978D01*
X158851060Y-110733360D01*
X158851058Y-110733360D01*
X158842459Y-110730788D01*
X158833485Y-110730733D01*
X158833483Y-110730733D01*
X158770204Y-110730347D01*
X158697949Y-110729906D01*
X158689318Y-110732373D01*
X158689316Y-110732373D01*
X158567631Y-110767150D01*
X158567627Y-110767152D01*
X158559001Y-110769617D01*
X158551414Y-110774404D01*
X158551412Y-110774405D01*
X158444882Y-110841621D01*
X158436783Y-110846731D01*
X158433010Y-110851003D01*
X158369677Y-110879250D01*
X158352852Y-110880378D01*
X157802380Y-110880378D01*
X157782586Y-110878272D01*
X157778233Y-110878067D01*
X157768053Y-110875875D01*
X157762408Y-110876543D01*
X157697908Y-110854255D01*
X157653994Y-110798469D01*
X157647211Y-110727797D01*
X157681851Y-110662488D01*
X158224934Y-110119405D01*
X158287246Y-110085379D01*
X158314029Y-110082500D01*
X158335595Y-110082500D01*
X158403716Y-110102502D01*
X158409187Y-110106665D01*
X158410276Y-110107960D01*
X158415179Y-110111224D01*
X158415186Y-110111229D01*
X158523101Y-110183063D01*
X158523103Y-110183064D01*
X158530574Y-110188037D01*
X158539138Y-110190713D01*
X158539141Y-110190714D01*
X158599542Y-110209585D01*
X158668510Y-110231132D01*
X158812998Y-110233780D01*
X158832530Y-110228455D01*
X158943763Y-110198130D01*
X158943765Y-110198129D01*
X158952422Y-110195769D01*
X159075572Y-110120154D01*
X159172551Y-110013014D01*
X159229634Y-109895193D01*
X159231645Y-109891043D01*
X159231645Y-109891042D01*
X159235560Y-109882962D01*
X159259536Y-109740453D01*
X159259688Y-109728000D01*
X159239201Y-109584948D01*
X159179388Y-109453395D01*
X159173530Y-109446596D01*
X159173527Y-109446592D01*
X159090916Y-109350718D01*
X159090913Y-109350716D01*
X159085056Y-109343918D01*
X158963790Y-109265317D01*
X158946921Y-109260272D01*
X158833938Y-109226482D01*
X158833936Y-109226482D01*
X158825337Y-109223910D01*
X158816363Y-109223855D01*
X158816361Y-109223855D01*
X158753082Y-109223469D01*
X158680827Y-109223028D01*
X158672196Y-109225495D01*
X158672194Y-109225495D01*
X158550509Y-109260272D01*
X158550505Y-109260274D01*
X158541879Y-109262739D01*
X158419661Y-109339853D01*
X158415888Y-109344125D01*
X158352555Y-109372372D01*
X158335730Y-109373500D01*
X158166258Y-109373500D01*
X158146464Y-109371394D01*
X158142111Y-109371189D01*
X158131931Y-109368997D01*
X158101262Y-109372627D01*
X158095917Y-109372942D01*
X158095928Y-109373072D01*
X158090750Y-109373500D01*
X158085549Y-109373500D01*
X158067964Y-109376427D01*
X158062087Y-109377264D01*
X158014730Y-109382869D01*
X158007022Y-109386570D01*
X157998583Y-109387975D01*
X157956940Y-109410445D01*
X157956615Y-109410620D01*
X157951324Y-109413316D01*
X157915483Y-109430526D01*
X157915480Y-109430528D01*
X157908343Y-109433955D01*
X157904350Y-109437311D01*
X157902424Y-109439237D01*
X157900774Y-109440750D01*
X157900338Y-109440986D01*
X157900306Y-109440951D01*
X157900155Y-109441084D01*
X157894720Y-109444017D01*
X157887651Y-109451664D01*
X157860643Y-109480881D01*
X157857214Y-109484447D01*
X156679174Y-110662488D01*
X155527556Y-111814106D01*
X155465244Y-111848131D01*
X155438461Y-111851011D01*
X139691197Y-111851011D01*
X139623076Y-111831009D01*
X139576583Y-111777353D01*
X139566479Y-111707079D01*
X139570742Y-111691215D01*
X139570042Y-111691027D01*
X139572007Y-111683693D01*
X139574842Y-111676641D01*
X139584518Y-111608647D01*
X139613918Y-111544025D01*
X139620166Y-111537305D01*
X142031066Y-109126405D01*
X142093378Y-109092379D01*
X142120161Y-109089500D01*
X148504153Y-109089500D01*
X148572274Y-109109502D01*
X148577068Y-109113185D01*
X148577266Y-109112907D01*
X148583459Y-109117308D01*
X148589076Y-109122419D01*
X148728293Y-109198008D01*
X148881522Y-109238207D01*
X148965477Y-109239526D01*
X149032319Y-109240576D01*
X149032322Y-109240576D01*
X149039916Y-109240695D01*
X149194332Y-109205329D01*
X149264742Y-109169917D01*
X149329072Y-109137563D01*
X149329075Y-109137561D01*
X149335855Y-109134151D01*
X149341626Y-109129222D01*
X149341629Y-109129220D01*
X149450536Y-109036204D01*
X149450536Y-109036203D01*
X149456314Y-109031269D01*
X149548755Y-108902624D01*
X149607842Y-108755641D01*
X149630162Y-108598807D01*
X149630307Y-108585000D01*
X149611276Y-108427733D01*
X149555280Y-108279546D01*
X149495480Y-108192536D01*
X149469855Y-108155251D01*
X149469854Y-108155249D01*
X149465553Y-108148992D01*
X149459770Y-108143839D01*
X149394118Y-108085346D01*
X149347275Y-108043611D01*
X149339889Y-108039700D01*
X149219864Y-107976150D01*
X149207274Y-107969484D01*
X149053633Y-107930892D01*
X149046034Y-107930852D01*
X149046033Y-107930852D01*
X148980181Y-107930507D01*
X148895221Y-107930062D01*
X148887841Y-107931834D01*
X148887839Y-107931834D01*
X148748563Y-107965271D01*
X148748560Y-107965272D01*
X148741184Y-107967043D01*
X148680962Y-107998126D01*
X148615021Y-108032161D01*
X148600414Y-108039700D01*
X148594692Y-108044692D01*
X148594690Y-108044693D01*
X148589236Y-108049451D01*
X148524753Y-108079157D01*
X148506409Y-108080500D01*
X141929625Y-108080500D01*
X141917620Y-108079159D01*
X141917580Y-108079655D01*
X141908633Y-108078935D01*
X141899877Y-108076954D01*
X141856339Y-108079655D01*
X141846619Y-108080258D01*
X141838817Y-108080500D01*
X141822774Y-108080500D01*
X141818344Y-108081135D01*
X141818337Y-108081135D01*
X141812536Y-108081966D01*
X141802481Y-108082996D01*
X141764601Y-108085346D01*
X141764599Y-108085346D01*
X141755642Y-108085902D01*
X141747201Y-108088949D01*
X141743923Y-108089628D01*
X141728055Y-108093584D01*
X141724831Y-108094527D01*
X141715948Y-108095799D01*
X141707779Y-108099513D01*
X141707773Y-108099515D01*
X141673221Y-108115225D01*
X141663853Y-108119039D01*
X141619716Y-108134972D01*
X141612466Y-108140269D01*
X141609499Y-108141846D01*
X141595386Y-108150093D01*
X141592563Y-108151898D01*
X141584395Y-108155612D01*
X141577598Y-108161469D01*
X141577596Y-108161470D01*
X141548847Y-108186243D01*
X141540936Y-108192525D01*
X141530056Y-108200473D01*
X141519194Y-108211335D01*
X141512348Y-108217693D01*
X141474918Y-108249944D01*
X141470034Y-108257479D01*
X141464301Y-108264051D01*
X141455074Y-108275455D01*
X138910044Y-110820485D01*
X138850363Y-110853909D01*
X138829769Y-110858853D01*
X138715563Y-110886271D01*
X138715560Y-110886272D01*
X138708184Y-110888043D01*
X138567414Y-110960700D01*
X138448039Y-111064838D01*
X138356950Y-111194444D01*
X138339291Y-111239738D01*
X138306090Y-111324894D01*
X138299406Y-111342037D01*
X138298414Y-111349570D01*
X138298414Y-111349571D01*
X138280775Y-111483556D01*
X138278729Y-111499096D01*
X138284050Y-111547290D01*
X138293944Y-111636903D01*
X138296113Y-111656553D01*
X138298723Y-111663686D01*
X138298724Y-111663689D01*
X138305319Y-111681711D01*
X138309945Y-111752556D01*
X138275535Y-111814657D01*
X138213013Y-111848295D01*
X138186993Y-111851011D01*
X137804541Y-111851011D01*
X137736420Y-111831009D01*
X137715446Y-111814107D01*
X136883037Y-110981699D01*
X136870535Y-110966219D01*
X136867596Y-110962989D01*
X136861946Y-110954239D01*
X136837683Y-110935112D01*
X136833688Y-110931562D01*
X136833604Y-110931661D01*
X136829641Y-110928303D01*
X136825965Y-110924627D01*
X136817964Y-110918909D01*
X136811469Y-110914267D01*
X136806726Y-110910706D01*
X136777446Y-110887624D01*
X136777442Y-110887622D01*
X136769264Y-110881175D01*
X136761196Y-110878342D01*
X136754236Y-110873368D01*
X136744258Y-110870384D01*
X136708535Y-110859701D01*
X136702886Y-110857865D01*
X136665390Y-110844697D01*
X136665391Y-110844697D01*
X136657913Y-110842071D01*
X136652717Y-110841621D01*
X136650012Y-110841621D01*
X136647756Y-110841524D01*
X136647280Y-110841381D01*
X136647282Y-110841335D01*
X136647083Y-110841322D01*
X136641166Y-110839553D01*
X136591532Y-110841503D01*
X136590997Y-110841524D01*
X136586051Y-110841621D01*
X133110388Y-110841621D01*
X133042267Y-110821619D01*
X132995774Y-110767963D01*
X132985670Y-110697689D01*
X133015164Y-110633109D01*
X133044459Y-110608246D01*
X133045264Y-110607752D01*
X133167572Y-110532654D01*
X133264551Y-110425514D01*
X133327560Y-110295462D01*
X133351536Y-110152953D01*
X133351688Y-110140500D01*
X133341347Y-110068296D01*
X133332474Y-110006335D01*
X133332473Y-110006333D01*
X133331201Y-109997448D01*
X133271388Y-109865895D01*
X133265530Y-109859096D01*
X133265527Y-109859092D01*
X133182916Y-109763218D01*
X133182913Y-109763216D01*
X133177056Y-109756418D01*
X133055790Y-109677817D01*
X133038921Y-109672772D01*
X132925938Y-109638982D01*
X132925936Y-109638982D01*
X132917337Y-109636410D01*
X132908363Y-109636355D01*
X132908361Y-109636355D01*
X132845082Y-109635969D01*
X132772827Y-109635528D01*
X132764196Y-109637995D01*
X132764194Y-109637995D01*
X132642509Y-109672772D01*
X132642505Y-109672774D01*
X132633879Y-109675239D01*
X132511661Y-109752353D01*
X132507888Y-109756625D01*
X132444555Y-109784872D01*
X132427730Y-109786000D01*
X131972758Y-109786000D01*
X131952964Y-109783894D01*
X131948611Y-109783689D01*
X131938431Y-109781497D01*
X131907762Y-109785127D01*
X131902417Y-109785442D01*
X131902428Y-109785572D01*
X131897250Y-109786000D01*
X131892049Y-109786000D01*
X131874464Y-109788927D01*
X131868587Y-109789764D01*
X131821230Y-109795369D01*
X131813522Y-109799070D01*
X131805083Y-109800475D01*
X131763440Y-109822945D01*
X131763115Y-109823120D01*
X131757824Y-109825816D01*
X131721983Y-109843026D01*
X131721980Y-109843028D01*
X131714843Y-109846455D01*
X131710850Y-109849811D01*
X131708924Y-109851737D01*
X131707274Y-109853250D01*
X131706838Y-109853486D01*
X131706806Y-109853451D01*
X131706655Y-109853584D01*
X131701220Y-109856517D01*
X131694151Y-109864164D01*
X131667155Y-109893368D01*
X131663727Y-109896934D01*
X130762556Y-110798106D01*
X130700243Y-110832131D01*
X130673460Y-110835011D01*
X130057541Y-110835011D01*
X129989420Y-110815009D01*
X129968446Y-110798107D01*
X129889405Y-110719067D01*
X129876903Y-110703587D01*
X129873964Y-110700357D01*
X129868314Y-110691607D01*
X129844051Y-110672480D01*
X129840056Y-110668930D01*
X129839972Y-110669029D01*
X129836009Y-110665671D01*
X129832333Y-110661995D01*
X129825558Y-110657153D01*
X129817837Y-110651635D01*
X129813094Y-110648074D01*
X129783814Y-110624992D01*
X129783810Y-110624990D01*
X129775632Y-110618543D01*
X129767564Y-110615710D01*
X129760604Y-110610736D01*
X129714903Y-110597069D01*
X129709254Y-110595233D01*
X129686192Y-110587134D01*
X129664281Y-110579439D01*
X129659085Y-110578989D01*
X129656380Y-110578989D01*
X129654124Y-110578892D01*
X129653648Y-110578749D01*
X129653650Y-110578703D01*
X129653451Y-110578690D01*
X129647534Y-110576921D01*
X129597900Y-110578871D01*
X129597365Y-110578892D01*
X129592419Y-110578989D01*
X128210257Y-110578989D01*
X128190463Y-110576883D01*
X128186110Y-110576678D01*
X128175930Y-110574486D01*
X128145260Y-110578116D01*
X128139917Y-110578431D01*
X128139928Y-110578561D01*
X128134748Y-110578989D01*
X128129549Y-110578989D01*
X128124425Y-110579842D01*
X128124412Y-110579843D01*
X128111959Y-110581916D01*
X128106084Y-110582753D01*
X128069071Y-110587134D01*
X128058730Y-110588358D01*
X128051022Y-110592059D01*
X128042583Y-110593464D01*
X128000599Y-110616118D01*
X127995336Y-110618799D01*
X127952342Y-110639444D01*
X127948350Y-110642800D01*
X127946403Y-110644747D01*
X127944778Y-110646237D01*
X127944346Y-110646470D01*
X127944313Y-110646434D01*
X127944155Y-110646573D01*
X127938720Y-110649506D01*
X127931651Y-110657153D01*
X127904654Y-110686358D01*
X127901225Y-110689924D01*
X127893404Y-110697745D01*
X127831092Y-110731771D01*
X127803542Y-110734648D01*
X127795573Y-110734600D01*
X127783816Y-110734528D01*
X127775184Y-110736995D01*
X127653498Y-110771772D01*
X127653494Y-110771774D01*
X127644868Y-110774239D01*
X127637281Y-110779026D01*
X127637279Y-110779027D01*
X127537361Y-110842071D01*
X127522650Y-110851353D01*
X127516707Y-110858082D01*
X127516706Y-110858083D01*
X127488742Y-110889747D01*
X127426988Y-110959670D01*
X127423174Y-110967793D01*
X127423173Y-110967795D01*
X127393513Y-111030969D01*
X127365572Y-111090482D01*
X127364192Y-111099346D01*
X127364191Y-111099349D01*
X127349385Y-111194444D01*
X127343339Y-111233273D01*
X127344503Y-111242175D01*
X127344503Y-111242178D01*
X127355320Y-111324894D01*
X127362077Y-111376565D01*
X127420278Y-111508839D01*
X127426052Y-111515708D01*
X127506550Y-111611471D01*
X127513265Y-111619460D01*
X127520736Y-111624433D01*
X127520737Y-111624434D01*
X127626090Y-111694563D01*
X127626092Y-111694564D01*
X127633563Y-111699537D01*
X127642127Y-111702213D01*
X127642130Y-111702214D01*
X127692607Y-111717984D01*
X127771499Y-111742632D01*
X127915987Y-111745280D01*
X127928862Y-111741770D01*
X128046752Y-111709630D01*
X128046754Y-111709629D01*
X128055411Y-111707269D01*
X128178561Y-111631654D01*
X128275540Y-111524514D01*
X128338549Y-111394462D01*
X128340038Y-111385611D01*
X128342768Y-111377057D01*
X128346054Y-111378106D01*
X128369828Y-111329204D01*
X128430462Y-111292272D01*
X128463035Y-111287989D01*
X129403460Y-111287989D01*
X129471581Y-111307991D01*
X129492555Y-111324894D01*
X129571595Y-111403934D01*
X129584103Y-111419420D01*
X129587037Y-111422645D01*
X129592686Y-111431393D01*
X129600863Y-111437839D01*
X129616941Y-111450514D01*
X129620944Y-111454072D01*
X129621029Y-111453972D01*
X129624986Y-111457325D01*
X129628667Y-111461006D01*
X129632899Y-111464030D01*
X129632901Y-111464032D01*
X129643176Y-111471375D01*
X129647920Y-111474937D01*
X129677186Y-111498008D01*
X129677190Y-111498010D01*
X129685368Y-111504457D01*
X129693436Y-111507290D01*
X129700396Y-111512264D01*
X129710374Y-111515248D01*
X129746097Y-111525931D01*
X129751746Y-111527767D01*
X129796719Y-111543561D01*
X129801915Y-111544011D01*
X129804620Y-111544011D01*
X129806876Y-111544108D01*
X129807352Y-111544251D01*
X129807350Y-111544297D01*
X129807549Y-111544310D01*
X129813466Y-111546079D01*
X129863635Y-111544108D01*
X129868581Y-111544011D01*
X130821232Y-111544011D01*
X130841026Y-111546117D01*
X130845379Y-111546322D01*
X130855559Y-111548514D01*
X130886229Y-111544884D01*
X130891572Y-111544569D01*
X130891561Y-111544439D01*
X130896741Y-111544011D01*
X130901940Y-111544011D01*
X130907064Y-111543158D01*
X130907077Y-111543157D01*
X130919530Y-111541084D01*
X130925405Y-111540247D01*
X130962418Y-111535866D01*
X130972759Y-111534642D01*
X130980467Y-111530941D01*
X130988906Y-111529536D01*
X131030890Y-111506882D01*
X131036153Y-111504201D01*
X131049050Y-111498008D01*
X131079147Y-111483556D01*
X131083139Y-111480200D01*
X131085086Y-111478253D01*
X131086711Y-111476763D01*
X131087143Y-111476530D01*
X131087176Y-111476566D01*
X131087334Y-111476427D01*
X131092769Y-111473494D01*
X131126846Y-111436630D01*
X131130275Y-111433064D01*
X131775400Y-110787939D01*
X131837712Y-110753913D01*
X131908527Y-110758978D01*
X131965363Y-110801525D01*
X131990174Y-110868045D01*
X131990495Y-110877034D01*
X131990495Y-111592238D01*
X131988389Y-111612032D01*
X131988184Y-111616385D01*
X131985992Y-111626565D01*
X131989622Y-111657232D01*
X131989937Y-111662578D01*
X131990067Y-111662567D01*
X131990495Y-111667747D01*
X131990495Y-111672946D01*
X131991348Y-111678070D01*
X131991349Y-111678083D01*
X131993422Y-111690536D01*
X131994259Y-111696411D01*
X131998255Y-111730171D01*
X131999864Y-111743765D01*
X132003565Y-111751473D01*
X132004970Y-111759912D01*
X132027624Y-111801896D01*
X132030305Y-111807159D01*
X132050950Y-111850153D01*
X132054306Y-111854145D01*
X132056253Y-111856092D01*
X132057743Y-111857717D01*
X132057976Y-111858149D01*
X132057940Y-111858182D01*
X132058079Y-111858340D01*
X132061012Y-111863775D01*
X132068659Y-111870844D01*
X132097876Y-111897852D01*
X132101442Y-111901281D01*
X132301749Y-112101588D01*
X132335775Y-112163900D01*
X132337589Y-112174340D01*
X132341234Y-112202207D01*
X132330235Y-112272344D01*
X132283062Y-112325403D01*
X132216298Y-112344545D01*
X132208212Y-112344545D01*
X132188418Y-112342439D01*
X132184065Y-112342234D01*
X132173885Y-112340042D01*
X132143215Y-112343672D01*
X132137872Y-112343987D01*
X132137883Y-112344117D01*
X132132703Y-112344545D01*
X132127504Y-112344545D01*
X132122380Y-112345398D01*
X132122367Y-112345399D01*
X132109914Y-112347472D01*
X132104039Y-112348309D01*
X132067026Y-112352690D01*
X132056685Y-112353914D01*
X132048977Y-112357615D01*
X132040538Y-112359020D01*
X131998554Y-112381674D01*
X131993291Y-112384355D01*
X131950297Y-112405000D01*
X131946305Y-112408356D01*
X131944358Y-112410303D01*
X131942733Y-112411793D01*
X131942301Y-112412026D01*
X131942268Y-112411990D01*
X131942110Y-112412129D01*
X131936675Y-112415062D01*
X131929606Y-112422709D01*
X131902609Y-112451914D01*
X131899180Y-112455480D01*
X131866415Y-112488245D01*
X131804103Y-112522271D01*
X131776553Y-112525148D01*
X131768584Y-112525100D01*
X131756827Y-112525028D01*
X131748195Y-112527495D01*
X131626509Y-112562272D01*
X131626505Y-112562274D01*
X131617879Y-112564739D01*
X131495661Y-112641853D01*
X131399999Y-112750170D01*
X131338583Y-112880982D01*
X131337203Y-112889846D01*
X131337202Y-112889849D01*
X131318589Y-113009395D01*
X131316350Y-113023773D01*
X131317514Y-113032675D01*
X131317514Y-113032678D01*
X131329023Y-113120687D01*
X131335088Y-113167065D01*
X131393289Y-113299339D01*
X131399063Y-113306208D01*
X131472948Y-113394104D01*
X131486276Y-113409960D01*
X131493747Y-113414933D01*
X131493748Y-113414934D01*
X131599101Y-113485063D01*
X131599103Y-113485064D01*
X131606574Y-113490037D01*
X131615138Y-113492713D01*
X131615141Y-113492714D01*
X131652706Y-113504450D01*
X131744510Y-113533132D01*
X131888998Y-113535780D01*
X131929405Y-113524764D01*
X132019763Y-113500130D01*
X132019765Y-113500129D01*
X132028422Y-113497769D01*
X132151572Y-113422154D01*
X132248551Y-113315014D01*
X132291837Y-113225670D01*
X132307645Y-113193043D01*
X132307645Y-113193042D01*
X132311560Y-113184962D01*
X132315988Y-113158642D01*
X132347014Y-113094784D01*
X132407639Y-113057836D01*
X132440242Y-113053545D01*
X133942051Y-113053545D01*
X134010172Y-113073547D01*
X134056665Y-113127203D01*
X134066551Y-113198929D01*
X134061175Y-113233455D01*
X134061175Y-113233460D01*
X134059794Y-113242329D01*
X134060958Y-113251231D01*
X134060958Y-113251234D01*
X134072824Y-113341973D01*
X134078532Y-113385621D01*
X134136733Y-113517895D01*
X134142507Y-113524764D01*
X134192199Y-113583879D01*
X134229720Y-113628516D01*
X134237191Y-113633489D01*
X134237192Y-113633490D01*
X134342545Y-113703619D01*
X134342547Y-113703620D01*
X134350018Y-113708593D01*
X134358585Y-113711269D01*
X134366689Y-113715135D01*
X134365978Y-113716626D01*
X134416448Y-113750302D01*
X134444825Y-113815380D01*
X134433514Y-113885470D01*
X134414260Y-113914571D01*
X134383037Y-113949925D01*
X134377145Y-113956155D01*
X134347774Y-113985170D01*
X134341018Y-113991844D01*
X134336660Y-113999690D01*
X134331574Y-114006390D01*
X134326945Y-114013437D01*
X134320999Y-114020170D01*
X134299406Y-114066163D01*
X134295523Y-114073751D01*
X134270847Y-114118175D01*
X134268866Y-114126931D01*
X134265863Y-114134795D01*
X134263399Y-114142854D01*
X134259583Y-114150982D01*
X134253576Y-114189562D01*
X134251768Y-114201173D01*
X134250161Y-114209593D01*
X134238954Y-114259124D01*
X134239510Y-114268082D01*
X134238834Y-114276480D01*
X134238731Y-114284900D01*
X134237350Y-114293773D01*
X134242533Y-114333405D01*
X134243936Y-114344131D01*
X134244757Y-114352662D01*
X134247902Y-114403359D01*
X134250949Y-114411800D01*
X134252654Y-114420033D01*
X134254924Y-114428161D01*
X134256088Y-114437065D01*
X134276549Y-114483569D01*
X134279724Y-114491508D01*
X134296972Y-114539284D01*
X134302269Y-114546535D01*
X134306228Y-114553980D01*
X134310674Y-114561123D01*
X134314289Y-114569339D01*
X134320065Y-114576210D01*
X134320066Y-114576212D01*
X134346970Y-114608219D01*
X134352260Y-114614965D01*
X134357970Y-114622780D01*
X134362473Y-114628944D01*
X134370654Y-114637125D01*
X134378010Y-114645144D01*
X134407276Y-114679960D01*
X134415440Y-114685395D01*
X134434714Y-114701185D01*
X134594323Y-114860794D01*
X134601864Y-114870233D01*
X134602244Y-114869910D01*
X134608063Y-114876747D01*
X134612853Y-114884339D01*
X134613269Y-114884707D01*
X134640462Y-114945676D01*
X134629735Y-115015857D01*
X134582768Y-115069098D01*
X134515590Y-115088500D01*
X131272672Y-115088500D01*
X131204551Y-115068498D01*
X131157971Y-115014651D01*
X131157692Y-115014037D01*
X131112388Y-114914395D01*
X131106530Y-114907596D01*
X131106527Y-114907592D01*
X131023916Y-114811718D01*
X131023913Y-114811716D01*
X131018056Y-114804918D01*
X130919483Y-114741026D01*
X130904324Y-114731200D01*
X130904322Y-114731199D01*
X130896790Y-114726317D01*
X130812756Y-114701185D01*
X130766938Y-114687482D01*
X130766936Y-114687482D01*
X130758337Y-114684910D01*
X130749363Y-114684855D01*
X130749361Y-114684855D01*
X130686082Y-114684469D01*
X130613827Y-114684028D01*
X130605196Y-114686495D01*
X130605194Y-114686495D01*
X130483509Y-114721272D01*
X130483505Y-114721274D01*
X130474879Y-114723739D01*
X130467292Y-114728526D01*
X130467290Y-114728527D01*
X130360254Y-114796062D01*
X130352661Y-114800853D01*
X130346718Y-114807582D01*
X130346717Y-114807583D01*
X130299723Y-114860794D01*
X130256999Y-114909170D01*
X130253185Y-114917293D01*
X130253184Y-114917295D01*
X130243025Y-114938934D01*
X130195583Y-115039982D01*
X130194203Y-115048846D01*
X130194202Y-115048849D01*
X130180136Y-115139193D01*
X130173350Y-115182773D01*
X130174514Y-115191675D01*
X130174514Y-115191678D01*
X130185718Y-115277353D01*
X130192088Y-115326065D01*
X130193959Y-115330317D01*
X130193041Y-115399127D01*
X130153864Y-115458336D01*
X130088896Y-115486966D01*
X130072629Y-115488020D01*
X127049048Y-115488020D01*
X126980927Y-115468018D01*
X126959953Y-115451115D01*
X126102265Y-114593427D01*
X126068239Y-114531115D01*
X126066633Y-114522195D01*
X126051974Y-114419835D01*
X126051973Y-114419833D01*
X126050701Y-114410948D01*
X125990888Y-114279395D01*
X125985030Y-114272596D01*
X125985027Y-114272592D01*
X125902416Y-114176718D01*
X125902413Y-114176716D01*
X125896556Y-114169918D01*
X125828508Y-114125811D01*
X125782824Y-114096200D01*
X125782822Y-114096199D01*
X125775290Y-114091317D01*
X125749731Y-114083673D01*
X125645438Y-114052482D01*
X125645436Y-114052482D01*
X125636837Y-114049910D01*
X125627863Y-114049855D01*
X125627861Y-114049855D01*
X125564582Y-114049469D01*
X125492327Y-114049028D01*
X125483696Y-114051495D01*
X125483694Y-114051495D01*
X125362009Y-114086272D01*
X125362005Y-114086274D01*
X125353379Y-114088739D01*
X125345792Y-114093526D01*
X125345790Y-114093527D01*
X125279757Y-114135191D01*
X125231161Y-114165853D01*
X125225218Y-114172582D01*
X125225217Y-114172583D01*
X125163533Y-114242427D01*
X125135499Y-114274170D01*
X125131685Y-114282293D01*
X125131684Y-114282295D01*
X125124414Y-114297780D01*
X125074083Y-114404982D01*
X125072703Y-114413846D01*
X125072702Y-114413849D01*
X125054444Y-114531115D01*
X125051850Y-114547773D01*
X125053014Y-114556675D01*
X125053014Y-114556678D01*
X125063534Y-114637125D01*
X125070588Y-114691065D01*
X125128789Y-114823339D01*
X125134563Y-114830208D01*
X125207768Y-114917295D01*
X125221776Y-114933960D01*
X125229247Y-114938933D01*
X125229248Y-114938934D01*
X125334601Y-115009063D01*
X125334603Y-115009064D01*
X125342074Y-115014037D01*
X125350638Y-115016713D01*
X125350641Y-115016714D01*
X125411042Y-115035585D01*
X125480010Y-115057132D01*
X125514014Y-115057755D01*
X125581756Y-115079002D01*
X125600800Y-115094639D01*
X126563104Y-116056943D01*
X126575612Y-116072429D01*
X126578546Y-116075654D01*
X126584195Y-116084402D01*
X126592372Y-116090848D01*
X126608450Y-116103523D01*
X126612451Y-116107079D01*
X126612536Y-116106979D01*
X126616493Y-116110332D01*
X126620175Y-116114014D01*
X126634711Y-116124402D01*
X126639398Y-116127921D01*
X126676877Y-116157466D01*
X126684945Y-116160299D01*
X126691905Y-116165273D01*
X126701883Y-116168257D01*
X126737580Y-116178933D01*
X126743223Y-116180767D01*
X126780743Y-116193942D01*
X126780747Y-116193943D01*
X126788228Y-116196570D01*
X126793424Y-116197020D01*
X126796131Y-116197020D01*
X126798389Y-116197117D01*
X126798861Y-116197259D01*
X126798859Y-116197305D01*
X126799058Y-116197318D01*
X126804975Y-116199087D01*
X126855119Y-116197117D01*
X126860065Y-116197020D01*
X138503491Y-116197020D01*
X138571612Y-116217022D01*
X138592586Y-116233925D01*
X141185064Y-118826402D01*
X141219089Y-118888714D01*
X141213172Y-118954884D01*
X141215203Y-118955515D01*
X141155007Y-119149378D01*
X141131148Y-119350964D01*
X141144424Y-119553522D01*
X141145845Y-119559118D01*
X141145846Y-119559123D01*
X141166119Y-119638945D01*
X141194392Y-119750269D01*
X141196809Y-119755512D01*
X141233912Y-119835994D01*
X141279377Y-119934616D01*
X141396533Y-120100389D01*
X141541938Y-120242035D01*
X141710720Y-120354812D01*
X141716023Y-120357090D01*
X141716026Y-120357092D01*
X141795006Y-120391024D01*
X141826808Y-120404687D01*
X141835059Y-120408232D01*
X141889752Y-120453500D01*
X141911289Y-120521151D01*
X141892832Y-120589707D01*
X141840241Y-120637401D01*
X141785321Y-120650000D01*
X140158221Y-120650000D01*
X140090100Y-120629998D01*
X140043607Y-120576342D01*
X140033503Y-120506068D01*
X140062997Y-120441488D01*
X140117720Y-120404687D01*
X140145693Y-120395192D01*
X140145698Y-120395190D01*
X140151165Y-120393334D01*
X140157019Y-120390056D01*
X140265504Y-120329301D01*
X140328276Y-120294147D01*
X140367969Y-120261135D01*
X140479913Y-120168031D01*
X140484345Y-120164345D01*
X140614147Y-120008276D01*
X140673845Y-119901677D01*
X140710510Y-119836208D01*
X140710511Y-119836206D01*
X140713334Y-119831165D01*
X140715190Y-119825698D01*
X140715192Y-119825693D01*
X140776728Y-119644414D01*
X140776729Y-119644409D01*
X140778584Y-119638945D01*
X140779412Y-119633236D01*
X140779413Y-119633231D01*
X140807179Y-119441727D01*
X140807712Y-119438053D01*
X140809232Y-119380000D01*
X140797298Y-119250124D01*
X140791187Y-119183613D01*
X140791186Y-119183610D01*
X140790658Y-119177859D01*
X140784271Y-119155211D01*
X140737125Y-118988046D01*
X140737124Y-118988044D01*
X140735557Y-118982487D01*
X140725076Y-118961232D01*
X140648331Y-118805609D01*
X140645776Y-118800428D01*
X140524320Y-118637779D01*
X140375258Y-118499987D01*
X140370375Y-118496906D01*
X140370371Y-118496903D01*
X140217820Y-118400651D01*
X140203581Y-118391667D01*
X140015039Y-118316446D01*
X140009379Y-118315320D01*
X140009375Y-118315319D01*
X139821613Y-118277971D01*
X139821610Y-118277971D01*
X139815946Y-118276844D01*
X139810171Y-118276768D01*
X139810167Y-118276768D01*
X139708793Y-118275441D01*
X139612971Y-118274187D01*
X139607274Y-118275166D01*
X139607273Y-118275166D01*
X139519397Y-118290266D01*
X139412910Y-118308564D01*
X139222463Y-118378824D01*
X139048010Y-118482612D01*
X139043670Y-118486418D01*
X139043666Y-118486421D01*
X138899733Y-118612648D01*
X138895392Y-118616455D01*
X138769720Y-118775869D01*
X138767031Y-118780980D01*
X138767029Y-118780983D01*
X138754073Y-118805609D01*
X138675203Y-118955515D01*
X138615007Y-119149378D01*
X138591148Y-119350964D01*
X138604424Y-119553522D01*
X138605845Y-119559118D01*
X138605846Y-119559123D01*
X138626119Y-119638945D01*
X138654392Y-119750269D01*
X138656809Y-119755512D01*
X138693912Y-119835994D01*
X138739377Y-119934616D01*
X138856533Y-120100389D01*
X139001938Y-120242035D01*
X139170720Y-120354812D01*
X139176023Y-120357090D01*
X139176026Y-120357092D01*
X139255006Y-120391024D01*
X139286808Y-120404687D01*
X139295059Y-120408232D01*
X139349752Y-120453500D01*
X139371289Y-120521151D01*
X139352832Y-120589707D01*
X139300241Y-120637401D01*
X139245321Y-120650000D01*
X137616666Y-120650000D01*
X137548545Y-120629998D01*
X137502052Y-120576342D01*
X137491948Y-120506068D01*
X137521442Y-120441488D01*
X137576165Y-120404687D01*
X137605494Y-120394731D01*
X137615994Y-120390056D01*
X137782958Y-120296552D01*
X137792430Y-120290042D01*
X137939553Y-120167682D01*
X137947682Y-120159553D01*
X138070042Y-120012430D01*
X138076552Y-120002958D01*
X138170056Y-119835994D01*
X138174730Y-119825497D01*
X138236238Y-119644302D01*
X138238926Y-119633106D01*
X138254610Y-119524929D01*
X138252624Y-119510993D01*
X138239056Y-119507000D01*
X136079991Y-119507000D01*
X136064951Y-119511416D01*
X136062899Y-119522602D01*
X136064542Y-119547676D01*
X136066343Y-119559046D01*
X136113443Y-119744502D01*
X136117284Y-119755348D01*
X136197394Y-119929120D01*
X136203145Y-119939081D01*
X136313579Y-120095343D01*
X136321057Y-120104098D01*
X136458114Y-120237612D01*
X136467058Y-120244855D01*
X136626156Y-120351161D01*
X136636266Y-120356651D01*
X136756325Y-120408232D01*
X136811018Y-120453500D01*
X136832555Y-120521151D01*
X136814098Y-120589707D01*
X136761507Y-120637401D01*
X136706587Y-120650000D01*
X135078221Y-120650000D01*
X135010100Y-120629998D01*
X134963607Y-120576342D01*
X134953503Y-120506068D01*
X134982997Y-120441488D01*
X135037720Y-120404687D01*
X135065693Y-120395192D01*
X135065698Y-120395190D01*
X135071165Y-120393334D01*
X135077019Y-120390056D01*
X135185504Y-120329301D01*
X135248276Y-120294147D01*
X135287969Y-120261135D01*
X135399913Y-120168031D01*
X135404345Y-120164345D01*
X135534147Y-120008276D01*
X135593845Y-119901677D01*
X135630510Y-119836208D01*
X135630511Y-119836206D01*
X135633334Y-119831165D01*
X135635190Y-119825698D01*
X135635192Y-119825693D01*
X135696728Y-119644414D01*
X135696729Y-119644409D01*
X135698584Y-119638945D01*
X135699412Y-119633236D01*
X135699413Y-119633231D01*
X135727179Y-119441727D01*
X135727712Y-119438053D01*
X135729232Y-119380000D01*
X135717298Y-119250124D01*
X135715910Y-119235012D01*
X136065375Y-119235012D01*
X136067817Y-119249431D01*
X136080559Y-119253000D01*
X137014885Y-119253000D01*
X137030124Y-119248525D01*
X137031329Y-119247135D01*
X137033000Y-119239452D01*
X137033000Y-119234885D01*
X137287000Y-119234885D01*
X137291475Y-119250124D01*
X137292865Y-119251329D01*
X137300548Y-119253000D01*
X138238945Y-119253000D01*
X138253490Y-119248729D01*
X138255553Y-119236595D01*
X138250693Y-119183707D01*
X138248595Y-119172386D01*
X138196658Y-118988231D01*
X138192533Y-118977484D01*
X138107903Y-118805871D01*
X138101893Y-118796063D01*
X137987400Y-118642739D01*
X137979710Y-118634199D01*
X137839192Y-118504304D01*
X137830067Y-118497303D01*
X137668236Y-118395195D01*
X137657989Y-118389974D01*
X137480260Y-118319068D01*
X137469232Y-118315801D01*
X137304769Y-118283088D01*
X137291894Y-118284240D01*
X137287000Y-118299396D01*
X137287000Y-119234885D01*
X137033000Y-119234885D01*
X137033000Y-118299678D01*
X137029194Y-118286716D01*
X137014278Y-118284780D01*
X136878737Y-118308070D01*
X136867617Y-118311050D01*
X136688095Y-118377279D01*
X136677717Y-118382229D01*
X136513273Y-118480063D01*
X136503961Y-118486829D01*
X136360097Y-118612994D01*
X136352180Y-118621337D01*
X136233718Y-118771605D01*
X136227450Y-118781256D01*
X136138360Y-118950589D01*
X136133951Y-118961232D01*
X136077210Y-119143967D01*
X136074820Y-119155211D01*
X136065375Y-119235012D01*
X135715910Y-119235012D01*
X135711187Y-119183613D01*
X135711186Y-119183610D01*
X135710658Y-119177859D01*
X135704271Y-119155211D01*
X135657125Y-118988046D01*
X135657124Y-118988044D01*
X135655557Y-118982487D01*
X135645076Y-118961232D01*
X135568331Y-118805609D01*
X135565776Y-118800428D01*
X135444320Y-118637779D01*
X135295258Y-118499987D01*
X135290375Y-118496906D01*
X135290371Y-118496903D01*
X135137820Y-118400651D01*
X135123581Y-118391667D01*
X134935039Y-118316446D01*
X134929379Y-118315320D01*
X134929375Y-118315319D01*
X134741613Y-118277971D01*
X134741610Y-118277971D01*
X134735946Y-118276844D01*
X134730171Y-118276768D01*
X134730167Y-118276768D01*
X134628793Y-118275441D01*
X134532971Y-118274187D01*
X134527274Y-118275166D01*
X134527273Y-118275166D01*
X134439397Y-118290266D01*
X134332910Y-118308564D01*
X134142463Y-118378824D01*
X133968010Y-118482612D01*
X133963670Y-118486418D01*
X133963666Y-118486421D01*
X133819733Y-118612648D01*
X133815392Y-118616455D01*
X133689720Y-118775869D01*
X133687031Y-118780980D01*
X133687029Y-118780983D01*
X133674073Y-118805609D01*
X133595203Y-118955515D01*
X133535007Y-119149378D01*
X133511148Y-119350964D01*
X133524424Y-119553522D01*
X133525845Y-119559118D01*
X133525846Y-119559123D01*
X133546119Y-119638945D01*
X133574392Y-119750269D01*
X133576809Y-119755512D01*
X133613912Y-119835994D01*
X133659377Y-119934616D01*
X133776533Y-120100389D01*
X133921938Y-120242035D01*
X134090720Y-120354812D01*
X134096023Y-120357090D01*
X134096026Y-120357092D01*
X134175006Y-120391024D01*
X134206808Y-120404687D01*
X134215059Y-120408232D01*
X134269752Y-120453500D01*
X134291289Y-120521151D01*
X134272832Y-120589707D01*
X134220241Y-120637401D01*
X134165321Y-120650000D01*
X132538221Y-120650000D01*
X132470100Y-120629998D01*
X132423607Y-120576342D01*
X132413503Y-120506068D01*
X132442997Y-120441488D01*
X132497720Y-120404687D01*
X132525693Y-120395192D01*
X132525698Y-120395190D01*
X132531165Y-120393334D01*
X132537019Y-120390056D01*
X132645504Y-120329301D01*
X132708276Y-120294147D01*
X132747969Y-120261135D01*
X132859913Y-120168031D01*
X132864345Y-120164345D01*
X132994147Y-120008276D01*
X133053845Y-119901677D01*
X133090510Y-119836208D01*
X133090511Y-119836206D01*
X133093334Y-119831165D01*
X133095190Y-119825698D01*
X133095192Y-119825693D01*
X133156728Y-119644414D01*
X133156729Y-119644409D01*
X133158584Y-119638945D01*
X133159412Y-119633236D01*
X133159413Y-119633231D01*
X133187179Y-119441727D01*
X133187712Y-119438053D01*
X133189232Y-119380000D01*
X133177298Y-119250124D01*
X133171187Y-119183613D01*
X133171186Y-119183610D01*
X133170658Y-119177859D01*
X133164271Y-119155211D01*
X133117125Y-118988046D01*
X133117124Y-118988044D01*
X133115557Y-118982487D01*
X133105076Y-118961232D01*
X133028331Y-118805609D01*
X133025776Y-118800428D01*
X132904320Y-118637779D01*
X132755258Y-118499987D01*
X132750375Y-118496906D01*
X132750371Y-118496903D01*
X132597820Y-118400651D01*
X132583581Y-118391667D01*
X132395039Y-118316446D01*
X132389379Y-118315320D01*
X132389375Y-118315319D01*
X132201613Y-118277971D01*
X132201610Y-118277971D01*
X132195946Y-118276844D01*
X132190171Y-118276768D01*
X132190167Y-118276768D01*
X132088793Y-118275441D01*
X131992971Y-118274187D01*
X131987274Y-118275166D01*
X131987273Y-118275166D01*
X131899397Y-118290266D01*
X131792910Y-118308564D01*
X131602463Y-118378824D01*
X131428010Y-118482612D01*
X131423670Y-118486418D01*
X131423666Y-118486421D01*
X131279733Y-118612648D01*
X131275392Y-118616455D01*
X131149720Y-118775869D01*
X131147031Y-118780980D01*
X131147029Y-118780983D01*
X131134073Y-118805609D01*
X131055203Y-118955515D01*
X130995007Y-119149378D01*
X130971148Y-119350964D01*
X130984424Y-119553522D01*
X130985845Y-119559118D01*
X130985846Y-119559123D01*
X131006119Y-119638945D01*
X131034392Y-119750269D01*
X131036809Y-119755512D01*
X131073912Y-119835994D01*
X131119377Y-119934616D01*
X131236533Y-120100389D01*
X131381938Y-120242035D01*
X131550720Y-120354812D01*
X131556023Y-120357090D01*
X131556026Y-120357092D01*
X131635006Y-120391024D01*
X131666808Y-120404687D01*
X131675059Y-120408232D01*
X131729752Y-120453500D01*
X131751289Y-120521151D01*
X131732832Y-120589707D01*
X131680241Y-120637401D01*
X131625321Y-120650000D01*
X129998221Y-120650000D01*
X129930100Y-120629998D01*
X129883607Y-120576342D01*
X129873503Y-120506068D01*
X129902997Y-120441488D01*
X129957720Y-120404687D01*
X129985693Y-120395192D01*
X129985698Y-120395190D01*
X129991165Y-120393334D01*
X129997019Y-120390056D01*
X130105504Y-120329301D01*
X130168276Y-120294147D01*
X130207969Y-120261135D01*
X130319913Y-120168031D01*
X130324345Y-120164345D01*
X130454147Y-120008276D01*
X130513845Y-119901677D01*
X130550510Y-119836208D01*
X130550511Y-119836206D01*
X130553334Y-119831165D01*
X130555190Y-119825698D01*
X130555192Y-119825693D01*
X130616728Y-119644414D01*
X130616729Y-119644409D01*
X130618584Y-119638945D01*
X130619412Y-119633236D01*
X130619413Y-119633231D01*
X130647179Y-119441727D01*
X130647712Y-119438053D01*
X130649232Y-119380000D01*
X130637298Y-119250124D01*
X130631187Y-119183613D01*
X130631186Y-119183610D01*
X130630658Y-119177859D01*
X130624271Y-119155211D01*
X130577125Y-118988046D01*
X130577124Y-118988044D01*
X130575557Y-118982487D01*
X130565076Y-118961232D01*
X130488331Y-118805609D01*
X130485776Y-118800428D01*
X130364320Y-118637779D01*
X130215258Y-118499987D01*
X130210375Y-118496906D01*
X130210371Y-118496903D01*
X130057820Y-118400651D01*
X130043581Y-118391667D01*
X129855039Y-118316446D01*
X129849379Y-118315320D01*
X129849375Y-118315319D01*
X129661613Y-118277971D01*
X129661610Y-118277971D01*
X129655946Y-118276844D01*
X129650171Y-118276768D01*
X129650167Y-118276768D01*
X129548793Y-118275441D01*
X129452971Y-118274187D01*
X129447274Y-118275166D01*
X129447273Y-118275166D01*
X129359397Y-118290266D01*
X129252910Y-118308564D01*
X129062463Y-118378824D01*
X128888010Y-118482612D01*
X128883670Y-118486418D01*
X128883666Y-118486421D01*
X128739733Y-118612648D01*
X128735392Y-118616455D01*
X128609720Y-118775869D01*
X128607031Y-118780980D01*
X128607029Y-118780983D01*
X128594073Y-118805609D01*
X128515203Y-118955515D01*
X128455007Y-119149378D01*
X128431148Y-119350964D01*
X128444424Y-119553522D01*
X128445845Y-119559118D01*
X128445846Y-119559123D01*
X128466119Y-119638945D01*
X128494392Y-119750269D01*
X128496809Y-119755512D01*
X128533912Y-119835994D01*
X128579377Y-119934616D01*
X128696533Y-120100389D01*
X128841938Y-120242035D01*
X129010720Y-120354812D01*
X129016023Y-120357090D01*
X129016026Y-120357092D01*
X129095006Y-120391024D01*
X129126808Y-120404687D01*
X129135059Y-120408232D01*
X129189752Y-120453500D01*
X129211289Y-120521151D01*
X129192832Y-120589707D01*
X129140241Y-120637401D01*
X129085321Y-120650000D01*
X127458221Y-120650000D01*
X127390100Y-120629998D01*
X127343607Y-120576342D01*
X127333503Y-120506068D01*
X127362997Y-120441488D01*
X127417720Y-120404687D01*
X127445693Y-120395192D01*
X127445698Y-120395190D01*
X127451165Y-120393334D01*
X127457019Y-120390056D01*
X127565504Y-120329301D01*
X127628276Y-120294147D01*
X127667969Y-120261135D01*
X127779913Y-120168031D01*
X127784345Y-120164345D01*
X127914147Y-120008276D01*
X127973845Y-119901677D01*
X128010510Y-119836208D01*
X128010511Y-119836206D01*
X128013334Y-119831165D01*
X128015190Y-119825698D01*
X128015192Y-119825693D01*
X128076728Y-119644414D01*
X128076729Y-119644409D01*
X128078584Y-119638945D01*
X128079412Y-119633236D01*
X128079413Y-119633231D01*
X128107179Y-119441727D01*
X128107712Y-119438053D01*
X128109232Y-119380000D01*
X128097298Y-119250124D01*
X128091187Y-119183613D01*
X128091186Y-119183610D01*
X128090658Y-119177859D01*
X128084271Y-119155211D01*
X128037125Y-118988046D01*
X128037124Y-118988044D01*
X128035557Y-118982487D01*
X128025076Y-118961232D01*
X127948331Y-118805609D01*
X127945776Y-118800428D01*
X127824320Y-118637779D01*
X127675258Y-118499987D01*
X127670375Y-118496906D01*
X127670371Y-118496903D01*
X127517820Y-118400651D01*
X127503581Y-118391667D01*
X127315039Y-118316446D01*
X127309379Y-118315320D01*
X127309375Y-118315319D01*
X127121613Y-118277971D01*
X127121610Y-118277971D01*
X127115946Y-118276844D01*
X127110171Y-118276768D01*
X127110167Y-118276768D01*
X127008793Y-118275441D01*
X126912971Y-118274187D01*
X126907274Y-118275166D01*
X126907273Y-118275166D01*
X126819397Y-118290266D01*
X126712910Y-118308564D01*
X126522463Y-118378824D01*
X126348010Y-118482612D01*
X126343670Y-118486418D01*
X126343666Y-118486421D01*
X126199733Y-118612648D01*
X126195392Y-118616455D01*
X126069720Y-118775869D01*
X126067031Y-118780980D01*
X126067029Y-118780983D01*
X126054073Y-118805609D01*
X125975203Y-118955515D01*
X125915007Y-119149378D01*
X125891148Y-119350964D01*
X125904424Y-119553522D01*
X125905845Y-119559118D01*
X125905846Y-119559123D01*
X125926119Y-119638945D01*
X125954392Y-119750269D01*
X125956809Y-119755512D01*
X125993912Y-119835994D01*
X126039377Y-119934616D01*
X126156533Y-120100389D01*
X126301938Y-120242035D01*
X126470720Y-120354812D01*
X126476023Y-120357090D01*
X126476026Y-120357092D01*
X126555006Y-120391024D01*
X126586808Y-120404687D01*
X126595059Y-120408232D01*
X126649752Y-120453500D01*
X126671289Y-120521151D01*
X126652832Y-120589707D01*
X126600241Y-120637401D01*
X126545321Y-120650000D01*
X124916666Y-120650000D01*
X124848545Y-120629998D01*
X124802052Y-120576342D01*
X124791948Y-120506068D01*
X124821442Y-120441488D01*
X124876165Y-120404687D01*
X124905494Y-120394731D01*
X124915994Y-120390056D01*
X125082958Y-120296552D01*
X125092430Y-120290042D01*
X125239553Y-120167682D01*
X125247682Y-120159553D01*
X125370042Y-120012430D01*
X125376552Y-120002958D01*
X125470056Y-119835994D01*
X125474730Y-119825497D01*
X125536238Y-119644302D01*
X125538926Y-119633106D01*
X125554610Y-119524929D01*
X125552624Y-119510993D01*
X125539056Y-119507000D01*
X123379991Y-119507000D01*
X123364951Y-119511416D01*
X123362899Y-119522602D01*
X123364542Y-119547676D01*
X123366343Y-119559046D01*
X123413443Y-119744502D01*
X123417284Y-119755348D01*
X123497394Y-119929120D01*
X123503145Y-119939081D01*
X123613579Y-120095343D01*
X123621057Y-120104098D01*
X123758114Y-120237612D01*
X123767058Y-120244855D01*
X123926156Y-120351161D01*
X123936266Y-120356651D01*
X124056325Y-120408232D01*
X124111018Y-120453500D01*
X124132555Y-120521151D01*
X124114098Y-120589707D01*
X124061507Y-120637401D01*
X124006587Y-120650000D01*
X122378221Y-120650000D01*
X122310100Y-120629998D01*
X122263607Y-120576342D01*
X122253503Y-120506068D01*
X122282997Y-120441488D01*
X122337720Y-120404687D01*
X122365693Y-120395192D01*
X122365698Y-120395190D01*
X122371165Y-120393334D01*
X122377019Y-120390056D01*
X122485504Y-120329301D01*
X122548276Y-120294147D01*
X122587969Y-120261135D01*
X122699913Y-120168031D01*
X122704345Y-120164345D01*
X122834147Y-120008276D01*
X122893845Y-119901677D01*
X122930510Y-119836208D01*
X122930511Y-119836206D01*
X122933334Y-119831165D01*
X122935190Y-119825698D01*
X122935192Y-119825693D01*
X122996728Y-119644414D01*
X122996729Y-119644409D01*
X122998584Y-119638945D01*
X122999412Y-119633236D01*
X122999413Y-119633231D01*
X123027179Y-119441727D01*
X123027712Y-119438053D01*
X123029232Y-119380000D01*
X123017298Y-119250124D01*
X123015910Y-119235012D01*
X123365375Y-119235012D01*
X123367817Y-119249431D01*
X123380559Y-119253000D01*
X124314885Y-119253000D01*
X124330124Y-119248525D01*
X124331329Y-119247135D01*
X124333000Y-119239452D01*
X124333000Y-119234885D01*
X124587000Y-119234885D01*
X124591475Y-119250124D01*
X124592865Y-119251329D01*
X124600548Y-119253000D01*
X125538945Y-119253000D01*
X125553490Y-119248729D01*
X125555553Y-119236595D01*
X125550693Y-119183707D01*
X125548595Y-119172386D01*
X125496658Y-118988231D01*
X125492533Y-118977484D01*
X125407903Y-118805871D01*
X125401893Y-118796063D01*
X125287400Y-118642739D01*
X125279710Y-118634199D01*
X125139192Y-118504304D01*
X125130067Y-118497303D01*
X124968236Y-118395195D01*
X124957989Y-118389974D01*
X124780260Y-118319068D01*
X124769232Y-118315801D01*
X124604769Y-118283088D01*
X124591894Y-118284240D01*
X124587000Y-118299396D01*
X124587000Y-119234885D01*
X124333000Y-119234885D01*
X124333000Y-118299678D01*
X124329194Y-118286716D01*
X124314278Y-118284780D01*
X124178737Y-118308070D01*
X124167617Y-118311050D01*
X123988095Y-118377279D01*
X123977717Y-118382229D01*
X123813273Y-118480063D01*
X123803961Y-118486829D01*
X123660097Y-118612994D01*
X123652180Y-118621337D01*
X123533718Y-118771605D01*
X123527450Y-118781256D01*
X123438360Y-118950589D01*
X123433951Y-118961232D01*
X123377210Y-119143967D01*
X123374820Y-119155211D01*
X123365375Y-119235012D01*
X123015910Y-119235012D01*
X123011187Y-119183613D01*
X123011186Y-119183610D01*
X123010658Y-119177859D01*
X123004271Y-119155211D01*
X122957125Y-118988046D01*
X122957124Y-118988044D01*
X122955557Y-118982487D01*
X122945076Y-118961232D01*
X122868331Y-118805609D01*
X122865776Y-118800428D01*
X122744320Y-118637779D01*
X122595258Y-118499987D01*
X122590375Y-118496906D01*
X122590371Y-118496903D01*
X122437820Y-118400651D01*
X122423581Y-118391667D01*
X122235039Y-118316446D01*
X122229379Y-118315320D01*
X122229375Y-118315319D01*
X122041613Y-118277971D01*
X122041610Y-118277971D01*
X122035946Y-118276844D01*
X122030171Y-118276768D01*
X122030167Y-118276768D01*
X121928793Y-118275441D01*
X121832971Y-118274187D01*
X121827274Y-118275166D01*
X121827273Y-118275166D01*
X121739397Y-118290266D01*
X121632910Y-118308564D01*
X121442463Y-118378824D01*
X121268010Y-118482612D01*
X121263670Y-118486418D01*
X121263666Y-118486421D01*
X121119733Y-118612648D01*
X121115392Y-118616455D01*
X120989720Y-118775869D01*
X120987031Y-118780980D01*
X120987029Y-118780983D01*
X120974073Y-118805609D01*
X120895203Y-118955515D01*
X120835007Y-119149378D01*
X120811148Y-119350964D01*
X120824424Y-119553522D01*
X120825845Y-119559118D01*
X120825846Y-119559123D01*
X120846119Y-119638945D01*
X120874392Y-119750269D01*
X120876809Y-119755512D01*
X120913912Y-119835994D01*
X120959377Y-119934616D01*
X121076533Y-120100389D01*
X121221938Y-120242035D01*
X121390720Y-120354812D01*
X121396023Y-120357090D01*
X121396026Y-120357092D01*
X121475006Y-120391024D01*
X121506808Y-120404687D01*
X121515059Y-120408232D01*
X121569752Y-120453500D01*
X121591289Y-120521151D01*
X121572832Y-120589707D01*
X121520241Y-120637401D01*
X121465321Y-120650000D01*
X120474879Y-120650000D01*
X120406758Y-120629998D01*
X120360265Y-120576342D01*
X120350161Y-120506068D01*
X120379655Y-120441488D01*
X120400060Y-120423485D01*
X120403168Y-120420377D01*
X120413484Y-120413484D01*
X120469734Y-120329301D01*
X120484500Y-120255067D01*
X120484499Y-118504934D01*
X120469734Y-118430699D01*
X120455569Y-118409499D01*
X120420377Y-118356832D01*
X120413484Y-118346516D01*
X120329301Y-118290266D01*
X120255067Y-118275500D01*
X119380142Y-118275500D01*
X118504934Y-118275501D01*
X118469182Y-118282612D01*
X118442874Y-118287844D01*
X118442872Y-118287845D01*
X118430699Y-118290266D01*
X118420379Y-118297161D01*
X118420378Y-118297162D01*
X118359985Y-118337516D01*
X118346516Y-118346516D01*
X118339623Y-118356832D01*
X118330846Y-118365609D01*
X118329650Y-118364413D01*
X118286288Y-118400651D01*
X118215845Y-118409499D01*
X118151801Y-118378858D01*
X118114490Y-118318456D01*
X118110000Y-118285121D01*
X118110000Y-102057800D01*
X118130002Y-101989679D01*
X118183658Y-101943186D01*
X118253932Y-101933082D01*
X118318512Y-101962576D01*
X118350425Y-102005048D01*
X118419377Y-102154616D01*
X118536533Y-102320389D01*
X118681938Y-102462035D01*
X118850720Y-102574812D01*
X118856023Y-102577090D01*
X118856026Y-102577092D01*
X118968211Y-102625290D01*
X119037228Y-102654942D01*
X119110244Y-102671464D01*
X119229579Y-102698467D01*
X119229584Y-102698468D01*
X119235216Y-102699742D01*
X119240987Y-102699969D01*
X119240989Y-102699969D01*
X119300756Y-102702317D01*
X119438053Y-102707712D01*
X119545341Y-102692156D01*
X119633231Y-102679413D01*
X119633236Y-102679412D01*
X119638945Y-102678584D01*
X119644409Y-102676729D01*
X119644414Y-102676728D01*
X119825693Y-102615192D01*
X119825698Y-102615190D01*
X119831165Y-102613334D01*
X119837019Y-102610056D01*
X119945504Y-102549301D01*
X120008276Y-102514147D01*
X120055265Y-102475067D01*
X120159913Y-102388031D01*
X120164345Y-102384345D01*
X120221734Y-102315343D01*
X120290453Y-102232718D01*
X120290455Y-102232715D01*
X120294147Y-102228276D01*
X120371941Y-102089365D01*
X120390510Y-102056208D01*
X120390511Y-102056206D01*
X120393334Y-102051165D01*
X120395190Y-102045698D01*
X120395192Y-102045693D01*
X120456728Y-101864414D01*
X120456729Y-101864409D01*
X120458584Y-101858945D01*
X120459412Y-101853236D01*
X120459413Y-101853231D01*
X120487179Y-101661727D01*
X120487712Y-101658053D01*
X120489232Y-101600000D01*
X120477562Y-101473000D01*
X120471187Y-101403613D01*
X120471186Y-101403610D01*
X120470658Y-101397859D01*
X120464271Y-101375211D01*
X120417125Y-101208046D01*
X120417124Y-101208044D01*
X120415557Y-101202487D01*
X120405076Y-101181232D01*
X120328331Y-101025609D01*
X120325776Y-101020428D01*
X120204320Y-100857779D01*
X120055258Y-100719987D01*
X120050375Y-100716906D01*
X120050371Y-100716903D01*
X119904728Y-100625010D01*
X119883581Y-100611667D01*
X119786737Y-100573030D01*
X119730877Y-100529209D01*
X119707577Y-100462145D01*
X119724233Y-100393130D01*
X119775557Y-100344075D01*
X119833427Y-100330000D01*
X121465565Y-100330000D01*
X121533686Y-100350002D01*
G37*
%TD.AperFunction*%
%TD*%
M02*
