%TF.GenerationSoftware,KiCad,Pcbnew,6.0.2+dfsg-1*%
%TF.CreationDate,2023-01-04T10:20:39-05:00*%
%TF.ProjectId,rp2040-basic-parts,72703230-3430-42d6-9261-7369632d7061,rev?*%
%TF.SameCoordinates,Original*%
%TF.FileFunction,Soldermask,Top*%
%TF.FilePolarity,Negative*%
%FSLAX46Y46*%
G04 Gerber Fmt 4.6, Leading zero omitted, Abs format (unit mm)*
G04 Created by KiCad (PCBNEW 6.0.2+dfsg-1) date 2023-01-04 10:20:39*
%MOMM*%
%LPD*%
G01*
G04 APERTURE LIST*
G04 Aperture macros list*
%AMRoundRect*
0 Rectangle with rounded corners*
0 $1 Rounding radius*
0 $2 $3 $4 $5 $6 $7 $8 $9 X,Y pos of 4 corners*
0 Add a 4 corners polygon primitive as box body*
4,1,4,$2,$3,$4,$5,$6,$7,$8,$9,$2,$3,0*
0 Add four circle primitives for the rounded corners*
1,1,$1+$1,$2,$3*
1,1,$1+$1,$4,$5*
1,1,$1+$1,$6,$7*
1,1,$1+$1,$8,$9*
0 Add four rect primitives between the rounded corners*
20,1,$1+$1,$2,$3,$4,$5,0*
20,1,$1+$1,$4,$5,$6,$7,0*
20,1,$1+$1,$6,$7,$8,$9,0*
20,1,$1+$1,$8,$9,$2,$3,0*%
G04 Aperture macros list end*
%ADD10C,0.010000*%
%ADD11R,1.000000X0.750000*%
%ADD12R,2.000000X1.500000*%
%ADD13R,2.000000X3.800000*%
%ADD14RoundRect,0.140000X0.140000X0.170000X-0.140000X0.170000X-0.140000X-0.170000X0.140000X-0.170000X0*%
%ADD15RoundRect,0.140000X-0.140000X-0.170000X0.140000X-0.170000X0.140000X0.170000X-0.140000X0.170000X0*%
%ADD16RoundRect,0.135000X-0.135000X-0.185000X0.135000X-0.185000X0.135000X0.185000X-0.135000X0.185000X0*%
%ADD17R,1.700000X1.700000*%
%ADD18O,1.700000X1.700000*%
%ADD19R,1.400000X1.200000*%
%ADD20RoundRect,0.250000X0.475000X-0.250000X0.475000X0.250000X-0.475000X0.250000X-0.475000X-0.250000X0*%
%ADD21RoundRect,0.150000X-0.587500X-0.150000X0.587500X-0.150000X0.587500X0.150000X-0.587500X0.150000X0*%
%ADD22RoundRect,0.250000X-0.250000X-0.475000X0.250000X-0.475000X0.250000X0.475000X-0.250000X0.475000X0*%
%ADD23RoundRect,0.140000X0.170000X-0.140000X0.170000X0.140000X-0.170000X0.140000X-0.170000X-0.140000X0*%
%ADD24RoundRect,0.135000X0.135000X0.185000X-0.135000X0.185000X-0.135000X-0.185000X0.135000X-0.185000X0*%
%ADD25RoundRect,0.150000X-0.150000X0.825000X-0.150000X-0.825000X0.150000X-0.825000X0.150000X0.825000X0*%
%ADD26RoundRect,0.135000X-0.185000X0.135000X-0.185000X-0.135000X0.185000X-0.135000X0.185000X0.135000X0*%
%ADD27RoundRect,0.140000X-0.170000X0.140000X-0.170000X-0.140000X0.170000X-0.140000X0.170000X0.140000X0*%
%ADD28R,2.500000X1.800000*%
%ADD29RoundRect,0.050000X-0.050000X0.387500X-0.050000X-0.387500X0.050000X-0.387500X0.050000X0.387500X0*%
%ADD30RoundRect,0.050000X-0.387500X0.050000X-0.387500X-0.050000X0.387500X-0.050000X0.387500X0.050000X0*%
%ADD31R,3.200000X3.200000*%
%ADD32RoundRect,0.200000X-0.200000X-0.275000X0.200000X-0.275000X0.200000X0.275000X-0.200000X0.275000X0*%
%ADD33RoundRect,0.135000X0.185000X-0.135000X0.185000X0.135000X-0.185000X0.135000X-0.185000X-0.135000X0*%
%ADD34C,0.600000*%
%ADD35O,2.000000X0.900000*%
%ADD36O,1.700000X0.900000*%
G04 APERTURE END LIST*
D10*
%TO.C,J1*%
X162270000Y-112440000D02*
X162270000Y-112040000D01*
X162270000Y-112040000D02*
X163510000Y-112040000D01*
X163510000Y-112040000D02*
X163510000Y-112440000D01*
X163510000Y-112440000D02*
X162270000Y-112440000D01*
G36*
X163510000Y-112440000D02*
G01*
X162270000Y-112440000D01*
X162270000Y-112040000D01*
X163510000Y-112040000D01*
X163510000Y-112440000D01*
G37*
X163510000Y-112440000D02*
X162270000Y-112440000D01*
X162270000Y-112040000D01*
X163510000Y-112040000D01*
X163510000Y-112440000D01*
X162270000Y-110940000D02*
X162270000Y-110540000D01*
X162270000Y-110540000D02*
X163510000Y-110540000D01*
X163510000Y-110540000D02*
X163510000Y-110940000D01*
X163510000Y-110940000D02*
X162270000Y-110940000D01*
G36*
X163510000Y-110940000D02*
G01*
X162270000Y-110940000D01*
X162270000Y-110540000D01*
X163510000Y-110540000D01*
X163510000Y-110940000D01*
G37*
X163510000Y-110940000D02*
X162270000Y-110940000D01*
X162270000Y-110540000D01*
X163510000Y-110540000D01*
X163510000Y-110940000D01*
X162270000Y-108940000D02*
X162270000Y-108540000D01*
X162270000Y-108540000D02*
X163510000Y-108540000D01*
X163510000Y-108540000D02*
X163510000Y-108940000D01*
X163510000Y-108940000D02*
X162270000Y-108940000D01*
G36*
X163510000Y-108940000D02*
G01*
X162270000Y-108940000D01*
X162270000Y-108540000D01*
X163510000Y-108540000D01*
X163510000Y-108940000D01*
G37*
X163510000Y-108940000D02*
X162270000Y-108940000D01*
X162270000Y-108540000D01*
X163510000Y-108540000D01*
X163510000Y-108940000D01*
X162270000Y-108440000D02*
X162270000Y-107740000D01*
X162270000Y-107740000D02*
X163510000Y-107740000D01*
X163510000Y-107740000D02*
X163510000Y-108440000D01*
X163510000Y-108440000D02*
X162270000Y-108440000D01*
G36*
X163510000Y-108440000D02*
G01*
X162270000Y-108440000D01*
X162270000Y-107740000D01*
X163510000Y-107740000D01*
X163510000Y-108440000D01*
G37*
X163510000Y-108440000D02*
X162270000Y-108440000D01*
X162270000Y-107740000D01*
X163510000Y-107740000D01*
X163510000Y-108440000D01*
X162270000Y-113240000D02*
X162270000Y-112540000D01*
X162270000Y-112540000D02*
X163510000Y-112540000D01*
X163510000Y-112540000D02*
X163510000Y-113240000D01*
X163510000Y-113240000D02*
X162270000Y-113240000D01*
G36*
X163510000Y-113240000D02*
G01*
X162270000Y-113240000D01*
X162270000Y-112540000D01*
X163510000Y-112540000D01*
X163510000Y-113240000D01*
G37*
X163510000Y-113240000D02*
X162270000Y-113240000D01*
X162270000Y-112540000D01*
X163510000Y-112540000D01*
X163510000Y-113240000D01*
X162270000Y-111440000D02*
X162270000Y-111040000D01*
X162270000Y-111040000D02*
X163510000Y-111040000D01*
X163510000Y-111040000D02*
X163510000Y-111440000D01*
X163510000Y-111440000D02*
X162270000Y-111440000D01*
G36*
X163510000Y-111440000D02*
G01*
X162270000Y-111440000D01*
X162270000Y-111040000D01*
X163510000Y-111040000D01*
X163510000Y-111440000D01*
G37*
X163510000Y-111440000D02*
X162270000Y-111440000D01*
X162270000Y-111040000D01*
X163510000Y-111040000D01*
X163510000Y-111440000D01*
X162270000Y-111940000D02*
X162270000Y-111540000D01*
X162270000Y-111540000D02*
X163510000Y-111540000D01*
X163510000Y-111540000D02*
X163510000Y-111940000D01*
X163510000Y-111940000D02*
X162270000Y-111940000D01*
G36*
X163510000Y-111940000D02*
G01*
X162270000Y-111940000D01*
X162270000Y-111540000D01*
X163510000Y-111540000D01*
X163510000Y-111940000D01*
G37*
X163510000Y-111940000D02*
X162270000Y-111940000D01*
X162270000Y-111540000D01*
X163510000Y-111540000D01*
X163510000Y-111940000D01*
X162270000Y-107640000D02*
X162270000Y-106940000D01*
X162270000Y-106940000D02*
X163510000Y-106940000D01*
X163510000Y-106940000D02*
X163510000Y-107640000D01*
X163510000Y-107640000D02*
X162270000Y-107640000D01*
G36*
X163510000Y-107640000D02*
G01*
X162270000Y-107640000D01*
X162270000Y-106940000D01*
X163510000Y-106940000D01*
X163510000Y-107640000D01*
G37*
X163510000Y-107640000D02*
X162270000Y-107640000D01*
X162270000Y-106940000D01*
X163510000Y-106940000D01*
X163510000Y-107640000D01*
X162270000Y-109940000D02*
X162270000Y-109540000D01*
X162270000Y-109540000D02*
X163510000Y-109540000D01*
X163510000Y-109540000D02*
X163510000Y-109940000D01*
X163510000Y-109940000D02*
X162270000Y-109940000D01*
G36*
X163510000Y-109940000D02*
G01*
X162270000Y-109940000D01*
X162270000Y-109540000D01*
X163510000Y-109540000D01*
X163510000Y-109940000D01*
G37*
X163510000Y-109940000D02*
X162270000Y-109940000D01*
X162270000Y-109540000D01*
X163510000Y-109540000D01*
X163510000Y-109940000D01*
X162270000Y-110440000D02*
X162270000Y-110040000D01*
X162270000Y-110040000D02*
X163510000Y-110040000D01*
X163510000Y-110040000D02*
X163510000Y-110440000D01*
X163510000Y-110440000D02*
X162270000Y-110440000D01*
G36*
X163510000Y-110440000D02*
G01*
X162270000Y-110440000D01*
X162270000Y-110040000D01*
X163510000Y-110040000D01*
X163510000Y-110440000D01*
G37*
X163510000Y-110440000D02*
X162270000Y-110440000D01*
X162270000Y-110040000D01*
X163510000Y-110040000D01*
X163510000Y-110440000D01*
X162270000Y-109440000D02*
X162270000Y-109040000D01*
X162270000Y-109040000D02*
X163510000Y-109040000D01*
X163510000Y-109040000D02*
X163510000Y-109440000D01*
X163510000Y-109440000D02*
X162270000Y-109440000D01*
G36*
X163510000Y-109440000D02*
G01*
X162270000Y-109440000D01*
X162270000Y-109040000D01*
X163510000Y-109040000D01*
X163510000Y-109440000D01*
G37*
X163510000Y-109440000D02*
X162270000Y-109440000D01*
X162270000Y-109040000D01*
X163510000Y-109040000D01*
X163510000Y-109440000D01*
X162270000Y-114040000D02*
X162270000Y-113340000D01*
X162270000Y-113340000D02*
X163510000Y-113340000D01*
X163510000Y-113340000D02*
X163510000Y-114040000D01*
X163510000Y-114040000D02*
X162270000Y-114040000D01*
G36*
X163510000Y-114040000D02*
G01*
X162270000Y-114040000D01*
X162270000Y-113340000D01*
X163510000Y-113340000D01*
X163510000Y-114040000D01*
G37*
X163510000Y-114040000D02*
X162270000Y-114040000D01*
X162270000Y-113340000D01*
X163510000Y-113340000D01*
X163510000Y-114040000D01*
%TD*%
D11*
%TO.C,SW1*%
X124412000Y-112806000D03*
X118412000Y-112806000D03*
X118412000Y-116556000D03*
X124412000Y-116556000D03*
%TD*%
D12*
%TO.C,U1*%
X153010000Y-116092000D03*
X153010000Y-113792000D03*
D13*
X146710000Y-113792000D03*
D12*
X153010000Y-111492000D03*
%TD*%
D14*
%TO.C,C10*%
X121003000Y-104013000D03*
X120043000Y-104013000D03*
%TD*%
D15*
%TO.C,C8*%
X137823000Y-109347000D03*
X138783000Y-109347000D03*
%TD*%
D16*
%TO.C,R11*%
X148336000Y-107315000D03*
X149356000Y-107315000D03*
%TD*%
D17*
%TO.C,J2*%
X167640000Y-101600000D03*
D18*
X165100000Y-101600000D03*
X162560000Y-101600000D03*
X160020000Y-101600000D03*
X157480000Y-101600000D03*
X154940000Y-101600000D03*
X152400000Y-101600000D03*
X149860000Y-101600000D03*
X147320000Y-101600000D03*
X144780000Y-101600000D03*
X142240000Y-101600000D03*
X139700000Y-101600000D03*
X137160000Y-101600000D03*
X134620000Y-101600000D03*
X132080000Y-101600000D03*
X129540000Y-101600000D03*
X127000000Y-101600000D03*
X124460000Y-101600000D03*
X121920000Y-101600000D03*
X119380000Y-101600000D03*
%TD*%
D19*
%TO.C,U2*%
X121623000Y-105449000D03*
X119423000Y-105449000D03*
X119423000Y-107149000D03*
X121623000Y-107149000D03*
%TD*%
D16*
%TO.C,R8*%
X149477000Y-109601000D03*
X150497000Y-109601000D03*
%TD*%
D20*
%TO.C,C5*%
X146431000Y-109281000D03*
X146431000Y-107381000D03*
%TD*%
D21*
%TO.C,Q1*%
X136730500Y-112334000D03*
X136730500Y-114234000D03*
X138605500Y-113284000D03*
%TD*%
D15*
%TO.C,C1*%
X155095000Y-113284000D03*
X156055000Y-113284000D03*
%TD*%
D22*
%TO.C,C2*%
X155387000Y-110744000D03*
X157287000Y-110744000D03*
%TD*%
D23*
%TO.C,C13*%
X129032000Y-105763000D03*
X129032000Y-104803000D03*
%TD*%
D14*
%TO.C,C18*%
X123797000Y-110998000D03*
X122837000Y-110998000D03*
%TD*%
D24*
%TO.C,R9*%
X121033000Y-108585000D03*
X120013000Y-108585000D03*
%TD*%
D25*
%TO.C,U4*%
X144526000Y-106872000D03*
X143256000Y-106872000D03*
X141986000Y-106872000D03*
X140716000Y-106872000D03*
X140716000Y-111822000D03*
X141986000Y-111822000D03*
X143256000Y-111822000D03*
X144526000Y-111822000D03*
%TD*%
D16*
%TO.C,R1*%
X163447000Y-116078000D03*
X164467000Y-116078000D03*
%TD*%
D24*
%TO.C,R7*%
X153545000Y-109601000D03*
X152525000Y-109601000D03*
%TD*%
D15*
%TO.C,C16*%
X135918000Y-110998000D03*
X136878000Y-110998000D03*
%TD*%
D26*
%TO.C,R10*%
X124841000Y-114171000D03*
X124841000Y-115191000D03*
%TD*%
D27*
%TO.C,C12*%
X135128000Y-115090000D03*
X135128000Y-116050000D03*
%TD*%
D24*
%TO.C,R5*%
X143766000Y-114681000D03*
X142746000Y-114681000D03*
%TD*%
D26*
%TO.C,R13*%
X161417000Y-107440000D03*
X161417000Y-108460000D03*
%TD*%
D15*
%TO.C,C15*%
X133124000Y-115189000D03*
X134084000Y-115189000D03*
%TD*%
D16*
%TO.C,R12*%
X160018000Y-112522000D03*
X161038000Y-112522000D03*
%TD*%
D28*
%TO.C,D1*%
X156369000Y-115570000D03*
X160369000Y-115570000D03*
%TD*%
D17*
%TO.C,J3*%
X119380000Y-119380000D03*
D18*
X121920000Y-119380000D03*
X124460000Y-119380000D03*
X127000000Y-119380000D03*
X129540000Y-119380000D03*
X132080000Y-119380000D03*
X134620000Y-119380000D03*
X137160000Y-119380000D03*
X139700000Y-119380000D03*
X142240000Y-119380000D03*
X144780000Y-119380000D03*
X147320000Y-119380000D03*
X149860000Y-119380000D03*
X152400000Y-119380000D03*
X154940000Y-119380000D03*
X157480000Y-119380000D03*
X160020000Y-119380000D03*
X162560000Y-119380000D03*
X165100000Y-119380000D03*
X167640000Y-119380000D03*
%TD*%
D23*
%TO.C,C19*%
X135763000Y-106525000D03*
X135763000Y-105565000D03*
%TD*%
%TO.C,C4*%
X147955000Y-109573000D03*
X147955000Y-108613000D03*
%TD*%
D29*
%TO.C,U3*%
X132902000Y-107052500D03*
X132502000Y-107052500D03*
X132102000Y-107052500D03*
X131702000Y-107052500D03*
X131302000Y-107052500D03*
X130902000Y-107052500D03*
X130502000Y-107052500D03*
X130102000Y-107052500D03*
X129702000Y-107052500D03*
X129302000Y-107052500D03*
X128902000Y-107052500D03*
X128502000Y-107052500D03*
X128102000Y-107052500D03*
X127702000Y-107052500D03*
D30*
X126864500Y-107890000D03*
X126864500Y-108290000D03*
X126864500Y-108690000D03*
X126864500Y-109090000D03*
X126864500Y-109490000D03*
X126864500Y-109890000D03*
X126864500Y-110290000D03*
X126864500Y-110690000D03*
X126864500Y-111090000D03*
X126864500Y-111490000D03*
X126864500Y-111890000D03*
X126864500Y-112290000D03*
X126864500Y-112690000D03*
X126864500Y-113090000D03*
D29*
X127702000Y-113927500D03*
X128102000Y-113927500D03*
X128502000Y-113927500D03*
X128902000Y-113927500D03*
X129302000Y-113927500D03*
X129702000Y-113927500D03*
X130102000Y-113927500D03*
X130502000Y-113927500D03*
X130902000Y-113927500D03*
X131302000Y-113927500D03*
X131702000Y-113927500D03*
X132102000Y-113927500D03*
X132502000Y-113927500D03*
X132902000Y-113927500D03*
D30*
X133739500Y-113090000D03*
X133739500Y-112690000D03*
X133739500Y-112290000D03*
X133739500Y-111890000D03*
X133739500Y-111490000D03*
X133739500Y-111090000D03*
X133739500Y-110690000D03*
X133739500Y-110290000D03*
X133739500Y-109890000D03*
X133739500Y-109490000D03*
X133739500Y-109090000D03*
X133739500Y-108690000D03*
X133739500Y-108290000D03*
X133739500Y-107890000D03*
D31*
X130302000Y-110490000D03*
%TD*%
D32*
%TO.C,R4*%
X159703000Y-111252000D03*
X161353000Y-111252000D03*
%TD*%
D16*
%TO.C,R6*%
X140714000Y-114681000D03*
X141734000Y-114681000D03*
%TD*%
%TO.C,R2*%
X165479000Y-116078000D03*
X166499000Y-116078000D03*
%TD*%
D27*
%TO.C,C6*%
X136144000Y-115471000D03*
X136144000Y-116431000D03*
%TD*%
D23*
%TO.C,C9*%
X151511000Y-109573000D03*
X151511000Y-108613000D03*
%TD*%
D14*
%TO.C,C7*%
X125702000Y-111633000D03*
X124742000Y-111633000D03*
%TD*%
D15*
%TO.C,C17*%
X137823000Y-110363000D03*
X138783000Y-110363000D03*
%TD*%
D27*
%TO.C,C11*%
X118745000Y-108613000D03*
X118745000Y-109573000D03*
%TD*%
D17*
%TO.C,JP1*%
X153939000Y-107061000D03*
D18*
X156479000Y-107061000D03*
X159019000Y-107061000D03*
%TD*%
D15*
%TO.C,C3*%
X155095000Y-112268000D03*
X156055000Y-112268000D03*
%TD*%
D32*
%TO.C,R3*%
X159703000Y-109728000D03*
X161353000Y-109728000D03*
%TD*%
D27*
%TO.C,C14*%
X129413000Y-115725000D03*
X129413000Y-116685000D03*
%TD*%
%TO.C,C20*%
X144907000Y-113566000D03*
X144907000Y-114526000D03*
%TD*%
D33*
%TO.C,R14*%
X167640000Y-117096000D03*
X167640000Y-116076000D03*
%TD*%
D34*
%TO.C,J1*%
X163960000Y-107600000D03*
X163960000Y-113380000D03*
D35*
X163470000Y-114815000D03*
X163470000Y-106165000D03*
D36*
X167640000Y-114815000D03*
X167640000Y-106165000D03*
%TD*%
M02*
