%TF.GenerationSoftware,KiCad,Pcbnew,6.0.2+dfsg-1*%
%TF.CreationDate,2023-01-04T10:20:39-05:00*%
%TF.ProjectId,rp2040-basic-parts,72703230-3430-42d6-9261-7369632d7061,rev?*%
%TF.SameCoordinates,Original*%
%TF.FileFunction,Soldermask,Bot*%
%TF.FilePolarity,Negative*%
%FSLAX46Y46*%
G04 Gerber Fmt 4.6, Leading zero omitted, Abs format (unit mm)*
G04 Created by KiCad (PCBNEW 6.0.2+dfsg-1) date 2023-01-04 10:20:39*
%MOMM*%
%LPD*%
G01*
G04 APERTURE LIST*
%ADD10R,1.700000X1.700000*%
%ADD11O,1.700000X1.700000*%
%ADD12C,0.600000*%
%ADD13O,2.000000X0.900000*%
%ADD14O,1.700000X0.900000*%
G04 APERTURE END LIST*
D10*
%TO.C,J2*%
X167640000Y-101600000D03*
D11*
X165100000Y-101600000D03*
X162560000Y-101600000D03*
X160020000Y-101600000D03*
X157480000Y-101600000D03*
X154940000Y-101600000D03*
X152400000Y-101600000D03*
X149860000Y-101600000D03*
X147320000Y-101600000D03*
X144780000Y-101600000D03*
X142240000Y-101600000D03*
X139700000Y-101600000D03*
X137160000Y-101600000D03*
X134620000Y-101600000D03*
X132080000Y-101600000D03*
X129540000Y-101600000D03*
X127000000Y-101600000D03*
X124460000Y-101600000D03*
X121920000Y-101600000D03*
X119380000Y-101600000D03*
%TD*%
D10*
%TO.C,J3*%
X119380000Y-119380000D03*
D11*
X121920000Y-119380000D03*
X124460000Y-119380000D03*
X127000000Y-119380000D03*
X129540000Y-119380000D03*
X132080000Y-119380000D03*
X134620000Y-119380000D03*
X137160000Y-119380000D03*
X139700000Y-119380000D03*
X142240000Y-119380000D03*
X144780000Y-119380000D03*
X147320000Y-119380000D03*
X149860000Y-119380000D03*
X152400000Y-119380000D03*
X154940000Y-119380000D03*
X157480000Y-119380000D03*
X160020000Y-119380000D03*
X162560000Y-119380000D03*
X165100000Y-119380000D03*
X167640000Y-119380000D03*
%TD*%
D10*
%TO.C,JP1*%
X153939000Y-107061000D03*
D11*
X156479000Y-107061000D03*
X159019000Y-107061000D03*
%TD*%
D12*
%TO.C,J1*%
X163960000Y-107600000D03*
X163960000Y-113380000D03*
D13*
X163470000Y-114815000D03*
X163470000Y-106165000D03*
D14*
X167640000Y-114815000D03*
X167640000Y-106165000D03*
%TD*%
M02*
