M48
; DRILL file {KiCad 6.0.2+dfsg-1} date Wed 04 Jan 2023 10:20:40 AM EST
; FORMAT={-:-/ absolute / metric / decimal}
; #@! TF.CreationDate,2023-01-04T10:20:40-05:00
; #@! TF.GenerationSoftware,Kicad,Pcbnew,6.0.2+dfsg-1
; #@! TF.FileFunction,Plated,1,2,PTH
FMAT,2
METRIC
; #@! TA.AperFunction,Plated,PTH,ViaDrill
T1C0.300
; #@! TA.AperFunction,Plated,PTH,ViaDrill
T2C0.400
; #@! TA.AperFunction,Plated,PTH,ComponentDrill
T3C0.600
; #@! TA.AperFunction,Plated,PTH,ComponentDrill
T4C1.000
%
G90
G05
T1
X118.999Y-104.013
X119.634Y-109.601
X125.561Y-114.554
X126.746Y-106.934
X127.762Y-107.95
X127.853Y-111.239
X127.889Y-112.903
X128.259Y-105.188
X128.589Y-103.819
X129.921Y-104.267
X130.683Y-115.189
X131.826Y-113.03
X132.842Y-108.712
X132.842Y-110.14
X132.842Y-112.14
X132.895Y-111.34
X134.239Y-106.299
X134.569Y-113.249
X134.747Y-114.3
X135.382Y-111.896
X136.398Y-113.284
X136.652Y-105.41
X137.033Y-116.459
X139.954Y-114.468
X143.891Y-109.728
X148.463Y-113.792
X158.75Y-109.728
X158.767Y-111.235
X161.798Y-114.046
T2
X118.618Y-115.189
X123.19Y-114.3
X124.206Y-108.966
X129.159Y-109.347
X129.159Y-111.633
X130.302Y-110.49
X130.429Y-116.713
X131.445Y-109.347
X131.445Y-111.633
X133.731Y-113.919
X137.922Y-111.506
X138.938Y-111.506
X139.865Y-106.642
X144.907Y-115.316
X148.717Y-110.236
X148.971Y-108.585
X151.257Y-115.189
X156.21Y-102.87
X158.75Y-102.87
X159.131Y-112.903
X161.798Y-106.68
X166.37Y-110.49
X166.431Y-117.067
X168.402Y-117.856
T4
X119.38Y-101.6
X119.38Y-119.38
X121.92Y-101.6
X121.92Y-119.38
X124.46Y-101.6
X124.46Y-119.38
X127.0Y-101.6
X127.0Y-119.38
X129.54Y-101.6
X129.54Y-119.38
X132.08Y-101.6
X132.08Y-119.38
X134.62Y-101.6
X134.62Y-119.38
X137.16Y-101.6
X137.16Y-119.38
X139.7Y-101.6
X139.7Y-119.38
X142.24Y-101.6
X142.24Y-119.38
X144.78Y-101.6
X144.78Y-119.38
X147.32Y-101.6
X147.32Y-119.38
X149.86Y-101.6
X149.86Y-119.38
X152.4Y-101.6
X152.4Y-119.38
X153.939Y-107.061
X154.94Y-101.6
X154.94Y-119.38
X156.479Y-107.061
X157.48Y-101.6
X157.48Y-119.38
X159.019Y-107.061
X160.02Y-101.6
X160.02Y-119.38
X162.56Y-101.6
X162.56Y-119.38
X165.1Y-101.6
X165.1Y-119.38
X167.64Y-101.6
X167.64Y-119.38
T3
X162.92Y-106.165G85X164.02Y-106.165
G05
X162.92Y-114.815G85X164.02Y-114.815
G05
X167.24Y-106.165G85X168.04Y-106.165
G05
X167.24Y-114.815G85X168.04Y-114.815
G05
T0
M30
