%TF.GenerationSoftware,KiCad,Pcbnew,6.0.2+dfsg-1*%
%TF.CreationDate,2022-12-10T13:13:51-05:00*%
%TF.ProjectId,5v-8a-ps,35762d38-612d-4707-932e-6b696361645f,rev?*%
%TF.SameCoordinates,Original*%
%TF.FileFunction,Soldermask,Top*%
%TF.FilePolarity,Negative*%
%FSLAX46Y46*%
G04 Gerber Fmt 4.6, Leading zero omitted, Abs format (unit mm)*
G04 Created by KiCad (PCBNEW 6.0.2+dfsg-1) date 2022-12-10 13:13:51*
%MOMM*%
%LPD*%
G01*
G04 APERTURE LIST*
G04 Aperture macros list*
%AMRoundRect*
0 Rectangle with rounded corners*
0 $1 Rounding radius*
0 $2 $3 $4 $5 $6 $7 $8 $9 X,Y pos of 4 corners*
0 Add a 4 corners polygon primitive as box body*
4,1,4,$2,$3,$4,$5,$6,$7,$8,$9,$2,$3,0*
0 Add four circle primitives for the rounded corners*
1,1,$1+$1,$2,$3*
1,1,$1+$1,$4,$5*
1,1,$1+$1,$6,$7*
1,1,$1+$1,$8,$9*
0 Add four rect primitives between the rounded corners*
20,1,$1+$1,$2,$3,$4,$5,0*
20,1,$1+$1,$4,$5,$6,$7,0*
20,1,$1+$1,$6,$7,$8,$9,0*
20,1,$1+$1,$8,$9,$2,$3,0*%
G04 Aperture macros list end*
%ADD10R,2.400000X2.900000*%
%ADD11RoundRect,0.175000X-1.250000X-0.175000X1.250000X-0.175000X1.250000X0.175000X-1.250000X0.175000X0*%
%ADD12R,4.570000X4.450000*%
%ADD13RoundRect,0.200000X-0.200000X-0.275000X0.200000X-0.275000X0.200000X0.275000X-0.200000X0.275000X0*%
%ADD14R,3.200000X5.100000*%
%ADD15R,1.530000X1.630000*%
%ADD16RoundRect,0.225000X-0.250000X0.225000X-0.250000X-0.225000X0.250000X-0.225000X0.250000X0.225000X0*%
%ADD17RoundRect,0.225000X-0.225000X-0.250000X0.225000X-0.250000X0.225000X0.250000X-0.225000X0.250000X0*%
%ADD18RoundRect,0.250000X-1.500000X-0.550000X1.500000X-0.550000X1.500000X0.550000X-1.500000X0.550000X0*%
%ADD19C,1.500000*%
%ADD20C,2.400000*%
%ADD21RoundRect,0.200000X0.275000X-0.200000X0.275000X0.200000X-0.275000X0.200000X-0.275000X-0.200000X0*%
%ADD22C,3.316000*%
%ADD23C,1.428000*%
%ADD24R,1.428000X1.428000*%
G04 APERTURE END LIST*
D10*
%TO.C,C6*%
X75440000Y-86360000D03*
X69340000Y-86360000D03*
%TD*%
D11*
%TO.C,U4*%
X76622000Y-101092000D03*
X76622000Y-102362000D03*
X76622000Y-103632000D03*
X76622000Y-104902000D03*
X84922000Y-104902000D03*
X84922000Y-103632000D03*
X84922000Y-102362000D03*
X84922000Y-101092000D03*
D12*
X80772000Y-102997000D03*
%TD*%
D13*
%TO.C,R2*%
X72391000Y-105727000D03*
X74041000Y-105727000D03*
%TD*%
D14*
%TO.C,L1*%
X89094000Y-90170000D03*
X78994000Y-90170000D03*
%TD*%
D15*
%TO.C,D1*%
X84958000Y-98679000D03*
X81158000Y-98679000D03*
%TD*%
D16*
%TO.C,C7*%
X72517000Y-102616000D03*
X72517000Y-104166000D03*
%TD*%
D17*
%TO.C,C5*%
X88760000Y-105918000D03*
X90310000Y-105918000D03*
%TD*%
%TO.C,C4*%
X88760000Y-102870000D03*
X90310000Y-102870000D03*
%TD*%
%TO.C,C3*%
X88760000Y-104394000D03*
X90310000Y-104394000D03*
%TD*%
%TO.C,C2*%
X77838000Y-99441000D03*
X79388000Y-99441000D03*
%TD*%
D18*
%TO.C,C1*%
X69055000Y-96520000D03*
X74455000Y-96520000D03*
%TD*%
D19*
%TO.C,U1*%
X71120000Y-125730000D03*
X86360000Y-125730000D03*
D20*
X74930000Y-110490000D03*
X82550000Y-110490000D03*
%TD*%
D21*
%TO.C,R1*%
X74041000Y-104266000D03*
X74041000Y-102616000D03*
%TD*%
D22*
%TO.C,J1*%
X72170000Y-75720000D03*
X85310000Y-75720000D03*
X72170000Y-81400000D03*
X85310000Y-81400000D03*
D23*
X75240000Y-81050000D03*
X77740000Y-81050000D03*
X79740000Y-81050000D03*
D24*
X82240000Y-81050000D03*
D23*
X75240000Y-78430000D03*
X77740000Y-78430000D03*
X79740000Y-78430000D03*
D24*
X82240000Y-78430000D03*
%TD*%
M02*
