%TF.GenerationSoftware,KiCad,Pcbnew,6.0.2+dfsg-1*%
%TF.CreationDate,2022-12-10T13:13:51-05:00*%
%TF.ProjectId,5v-8a-ps,35762d38-612d-4707-932e-6b696361645f,rev?*%
%TF.SameCoordinates,Original*%
%TF.FileFunction,Legend,Bot*%
%TF.FilePolarity,Positive*%
%FSLAX46Y46*%
G04 Gerber Fmt 4.6, Leading zero omitted, Abs format (unit mm)*
G04 Created by KiCad (PCBNEW 6.0.2+dfsg-1) date 2022-12-10 13:13:51*
%MOMM*%
%LPD*%
G01*
G04 APERTURE LIST*
%ADD10C,0.150000*%
G04 APERTURE END LIST*
D10*
X84763809Y-121567380D02*
X85335238Y-121567380D01*
X85049523Y-121567380D02*
X85049523Y-120567380D01*
X85144761Y-120710238D01*
X85240000Y-120805476D01*
X85335238Y-120853095D01*
X84382857Y-120662619D02*
X84335238Y-120615000D01*
X84240000Y-120567380D01*
X84001904Y-120567380D01*
X83906666Y-120615000D01*
X83859047Y-120662619D01*
X83811428Y-120757857D01*
X83811428Y-120853095D01*
X83859047Y-120995952D01*
X84430476Y-121567380D01*
X83811428Y-121567380D01*
X83478095Y-120900714D02*
X83240000Y-121567380D01*
X83001904Y-120900714D01*
X81859047Y-121186428D02*
X81097142Y-121186428D01*
X80620952Y-120900714D02*
X79859047Y-121186428D01*
X80620952Y-121472142D01*
X78144761Y-120567380D02*
X78620952Y-120567380D01*
X78668571Y-121043571D01*
X78620952Y-120995952D01*
X78525714Y-120948333D01*
X78287619Y-120948333D01*
X78192380Y-120995952D01*
X78144761Y-121043571D01*
X78097142Y-121138809D01*
X78097142Y-121376904D01*
X78144761Y-121472142D01*
X78192380Y-121519761D01*
X78287619Y-121567380D01*
X78525714Y-121567380D01*
X78620952Y-121519761D01*
X78668571Y-121472142D01*
X77763809Y-120900714D02*
X77525714Y-121567380D01*
X77287619Y-120900714D01*
X76144761Y-121567380D02*
X76144761Y-120567380D01*
X75763809Y-120567380D01*
X75668571Y-120615000D01*
X75620952Y-120662619D01*
X75573333Y-120757857D01*
X75573333Y-120900714D01*
X75620952Y-120995952D01*
X75668571Y-121043571D01*
X75763809Y-121091190D01*
X76144761Y-121091190D01*
X75001904Y-121567380D02*
X75097142Y-121519761D01*
X75144761Y-121472142D01*
X75192380Y-121376904D01*
X75192380Y-121091190D01*
X75144761Y-120995952D01*
X75097142Y-120948333D01*
X75001904Y-120900714D01*
X74859047Y-120900714D01*
X74763809Y-120948333D01*
X74716190Y-120995952D01*
X74668571Y-121091190D01*
X74668571Y-121376904D01*
X74716190Y-121472142D01*
X74763809Y-121519761D01*
X74859047Y-121567380D01*
X75001904Y-121567380D01*
X74335238Y-120900714D02*
X74144761Y-121567380D01*
X73954285Y-121091190D01*
X73763809Y-121567380D01*
X73573333Y-120900714D01*
X72811428Y-121519761D02*
X72906666Y-121567380D01*
X73097142Y-121567380D01*
X73192380Y-121519761D01*
X73240000Y-121424523D01*
X73240000Y-121043571D01*
X73192380Y-120948333D01*
X73097142Y-120900714D01*
X72906666Y-120900714D01*
X72811428Y-120948333D01*
X72763809Y-121043571D01*
X72763809Y-121138809D01*
X73240000Y-121234047D01*
X72335238Y-121567380D02*
X72335238Y-120900714D01*
X72335238Y-121091190D02*
X72287619Y-120995952D01*
X72240000Y-120948333D01*
X72144761Y-120900714D01*
X72049523Y-120900714D01*
X81763809Y-122177380D02*
X82240000Y-122177380D01*
X82287619Y-122653571D01*
X82240000Y-122605952D01*
X82144761Y-122558333D01*
X81906666Y-122558333D01*
X81811428Y-122605952D01*
X81763809Y-122653571D01*
X81716190Y-122748809D01*
X81716190Y-122986904D01*
X81763809Y-123082142D01*
X81811428Y-123129761D01*
X81906666Y-123177380D01*
X82144761Y-123177380D01*
X82240000Y-123129761D01*
X82287619Y-123082142D01*
X81335238Y-122891666D02*
X80859047Y-122891666D01*
X81430476Y-123177380D02*
X81097142Y-122177380D01*
X80763809Y-123177380D01*
X79478095Y-122177380D02*
X79287619Y-122177380D01*
X79192380Y-122225000D01*
X79097142Y-122320238D01*
X79049523Y-122510714D01*
X79049523Y-122844047D01*
X79097142Y-123034523D01*
X79192380Y-123129761D01*
X79287619Y-123177380D01*
X79478095Y-123177380D01*
X79573333Y-123129761D01*
X79668571Y-123034523D01*
X79716190Y-122844047D01*
X79716190Y-122510714D01*
X79668571Y-122320238D01*
X79573333Y-122225000D01*
X79478095Y-122177380D01*
X78192380Y-122510714D02*
X78192380Y-123177380D01*
X78620952Y-122510714D02*
X78620952Y-123034523D01*
X78573333Y-123129761D01*
X78478095Y-123177380D01*
X78335238Y-123177380D01*
X78240000Y-123129761D01*
X78192380Y-123082142D01*
X77859047Y-122510714D02*
X77478095Y-122510714D01*
X77716190Y-122177380D02*
X77716190Y-123034523D01*
X77668571Y-123129761D01*
X77573333Y-123177380D01*
X77478095Y-123177380D01*
X77144761Y-122510714D02*
X77144761Y-123510714D01*
X77144761Y-122558333D02*
X77049523Y-122510714D01*
X76859047Y-122510714D01*
X76763809Y-122558333D01*
X76716190Y-122605952D01*
X76668571Y-122701190D01*
X76668571Y-122986904D01*
X76716190Y-123082142D01*
X76763809Y-123129761D01*
X76859047Y-123177380D01*
X77049523Y-123177380D01*
X77144761Y-123129761D01*
X75811428Y-122510714D02*
X75811428Y-123177380D01*
X76240000Y-122510714D02*
X76240000Y-123034523D01*
X76192380Y-123129761D01*
X76097142Y-123177380D01*
X75954285Y-123177380D01*
X75859047Y-123129761D01*
X75811428Y-123082142D01*
X75478095Y-122510714D02*
X75097142Y-122510714D01*
X75335238Y-122177380D02*
X75335238Y-123034523D01*
X75287619Y-123129761D01*
X75192380Y-123177380D01*
X75097142Y-123177380D01*
%TO.C,G\u002A\u002A\u002A*%
G36*
X79442268Y-95633842D02*
G01*
X79442711Y-95634506D01*
X79451418Y-95659087D01*
X79469019Y-95716304D01*
X79494787Y-95803530D01*
X79527995Y-95918140D01*
X79567915Y-96057506D01*
X79613819Y-96219003D01*
X79664980Y-96400006D01*
X79720670Y-96597886D01*
X79780162Y-96810020D01*
X79842728Y-97033779D01*
X79907641Y-97266539D01*
X79974173Y-97505673D01*
X80041596Y-97748555D01*
X80109184Y-97992558D01*
X80176209Y-98235057D01*
X80241942Y-98473426D01*
X80305657Y-98705038D01*
X80366626Y-98927267D01*
X80424121Y-99137487D01*
X80477415Y-99333072D01*
X80525781Y-99511396D01*
X80568490Y-99669833D01*
X80604816Y-99805755D01*
X80634031Y-99916539D01*
X80655407Y-99999556D01*
X80668216Y-100052181D01*
X80671732Y-100071788D01*
X80666080Y-100073051D01*
X80628444Y-100075289D01*
X80557872Y-100077233D01*
X80457066Y-100078868D01*
X80328726Y-100080180D01*
X80175550Y-100081152D01*
X80000240Y-100081770D01*
X79805496Y-100082019D01*
X79594016Y-100081883D01*
X79368502Y-100081348D01*
X79131653Y-100080399D01*
X79080472Y-100080153D01*
X78807127Y-100078812D01*
X78567237Y-100077496D01*
X78357761Y-100076069D01*
X78175657Y-100074390D01*
X78017883Y-100072323D01*
X77881398Y-100069729D01*
X77763160Y-100066469D01*
X77660128Y-100062407D01*
X77569260Y-100057403D01*
X77487514Y-100051320D01*
X77411849Y-100044019D01*
X77339223Y-100035362D01*
X77266595Y-100025212D01*
X77190923Y-100013429D01*
X77109165Y-99999877D01*
X77018280Y-99984416D01*
X76949712Y-99972564D01*
X76872500Y-99958253D01*
X76822419Y-99946844D01*
X76793773Y-99936648D01*
X76780865Y-99925974D01*
X76778002Y-99913133D01*
X76778540Y-99911424D01*
X76792413Y-99885320D01*
X76824027Y-99830453D01*
X76872014Y-99749058D01*
X76935008Y-99643372D01*
X77011639Y-99515631D01*
X77100543Y-99368073D01*
X77200350Y-99202933D01*
X77309694Y-99022448D01*
X77427207Y-98828855D01*
X77551522Y-98624391D01*
X77681272Y-98411291D01*
X77815089Y-98191793D01*
X77951607Y-97968133D01*
X78089457Y-97742549D01*
X78227272Y-97517275D01*
X78363686Y-97294549D01*
X78497330Y-97076608D01*
X78626838Y-96865688D01*
X78750842Y-96664026D01*
X78867974Y-96473858D01*
X78976868Y-96297421D01*
X79076157Y-96136951D01*
X79164472Y-95994686D01*
X79240446Y-95872861D01*
X79302713Y-95773713D01*
X79349905Y-95699479D01*
X79380654Y-95652396D01*
X79393593Y-95634700D01*
X79411467Y-95626437D01*
X79442268Y-95633842D01*
G37*
G36*
X86708777Y-95476949D02*
G01*
X86696614Y-95586817D01*
X86668096Y-95672404D01*
X86609606Y-95767306D01*
X86532678Y-95851820D01*
X86430355Y-95929847D01*
X86315338Y-96000164D01*
X86105264Y-96105705D01*
X85865341Y-96202189D01*
X85599621Y-96288048D01*
X85312157Y-96361720D01*
X85264132Y-96372451D01*
X85077307Y-96411334D01*
X84909171Y-96440471D01*
X84748616Y-96461085D01*
X84584537Y-96474399D01*
X84405824Y-96481636D01*
X84201370Y-96484019D01*
X84098653Y-96483981D01*
X83975536Y-96482908D01*
X83876945Y-96480192D01*
X83795480Y-96475347D01*
X83723738Y-96467887D01*
X83654317Y-96457325D01*
X83579816Y-96443175D01*
X83530203Y-96432606D01*
X83410247Y-96403763D01*
X83283451Y-96369563D01*
X83158426Y-96332613D01*
X83043786Y-96295521D01*
X82948143Y-96260894D01*
X82880108Y-96231340D01*
X82854538Y-96217600D01*
X82828549Y-96196901D01*
X82830258Y-96177033D01*
X82861749Y-96152793D01*
X82925105Y-96118977D01*
X82976967Y-96088632D01*
X83003178Y-96058822D01*
X83012960Y-96018916D01*
X83012828Y-96007187D01*
X83008752Y-95991332D01*
X82998853Y-95970690D01*
X82981405Y-95943196D01*
X82954683Y-95906787D01*
X82916960Y-95859399D01*
X82866510Y-95798971D01*
X82801607Y-95723437D01*
X82720525Y-95630735D01*
X82621537Y-95518801D01*
X82502919Y-95385573D01*
X82362943Y-95228986D01*
X82199883Y-95046977D01*
X82151622Y-94993151D01*
X82009999Y-94835295D01*
X81874147Y-94684013D01*
X81777164Y-94576121D01*
X85965587Y-94576121D01*
X85967086Y-94600839D01*
X85974981Y-94650775D01*
X85987816Y-94716491D01*
X86001153Y-94791956D01*
X86012757Y-94885204D01*
X86017868Y-94964567D01*
X86019568Y-95077865D01*
X86137947Y-95185735D01*
X86169716Y-95214278D01*
X86218568Y-95254082D01*
X86245831Y-95266111D01*
X86253499Y-95248699D01*
X86243565Y-95200183D01*
X86218025Y-95118899D01*
X86202493Y-95076495D01*
X86175102Y-95009172D01*
X86141026Y-94930091D01*
X86103298Y-94845796D01*
X86064950Y-94762831D01*
X86029017Y-94687740D01*
X85998530Y-94627067D01*
X85976522Y-94587355D01*
X85966026Y-94575150D01*
X85965587Y-94576121D01*
X81777164Y-94576121D01*
X81746431Y-94541931D01*
X81629219Y-94411675D01*
X81524875Y-94295872D01*
X81435765Y-94197147D01*
X81364256Y-94118128D01*
X81312714Y-94061442D01*
X81283504Y-94029713D01*
X81234042Y-93972981D01*
X81199832Y-93918653D01*
X81196262Y-93880299D01*
X81223297Y-93855299D01*
X81280900Y-93841031D01*
X81313899Y-93834606D01*
X81382780Y-93807330D01*
X81433934Y-93767887D01*
X81457715Y-93722731D01*
X81457967Y-93721279D01*
X81459627Y-93715297D01*
X81461020Y-93709895D01*
X81460800Y-93703499D01*
X81457617Y-93694536D01*
X81450123Y-93681434D01*
X81436972Y-93662620D01*
X81416814Y-93636519D01*
X81388301Y-93601561D01*
X81350086Y-93556171D01*
X81300821Y-93498777D01*
X81239157Y-93427805D01*
X81163747Y-93341682D01*
X81073243Y-93238837D01*
X80966295Y-93117695D01*
X80841558Y-92976684D01*
X80697681Y-92814230D01*
X80533318Y-92628761D01*
X80347121Y-92418704D01*
X80137740Y-92182486D01*
X80056417Y-92090690D01*
X79889214Y-91901700D01*
X79729626Y-91720977D01*
X79579351Y-91550462D01*
X79440088Y-91392094D01*
X79313536Y-91247815D01*
X79201392Y-91119566D01*
X79105355Y-91009287D01*
X79027123Y-90918918D01*
X78968394Y-90850402D01*
X78930868Y-90805678D01*
X78916242Y-90786687D01*
X78907471Y-90757826D01*
X78921201Y-90740897D01*
X78925864Y-90738322D01*
X84368699Y-90738322D01*
X84422480Y-90834606D01*
X84436229Y-90860760D01*
X84476740Y-90950954D01*
X84521738Y-91066731D01*
X84568511Y-91200484D01*
X84614349Y-91344605D01*
X84656543Y-91491491D01*
X84657528Y-91495124D01*
X84686453Y-91597212D01*
X84709752Y-91667322D01*
X84728143Y-91704733D01*
X84742345Y-91708725D01*
X84753076Y-91678577D01*
X84761055Y-91613570D01*
X84767001Y-91512982D01*
X84771631Y-91376092D01*
X84771846Y-91367930D01*
X84770715Y-91126429D01*
X84753142Y-90901672D01*
X84717296Y-90678135D01*
X84661348Y-90440292D01*
X84639915Y-90359353D01*
X84619276Y-90280497D01*
X84603619Y-90219669D01*
X84595246Y-90185736D01*
X84585826Y-90159700D01*
X84569827Y-90144082D01*
X84557951Y-90153251D01*
X84545249Y-90185736D01*
X84528197Y-90267493D01*
X84505070Y-90372567D01*
X84485094Y-90453217D01*
X84466209Y-90516831D01*
X84446355Y-90570798D01*
X84423472Y-90622506D01*
X84368699Y-90738322D01*
X78925864Y-90738322D01*
X78950056Y-90724962D01*
X78984554Y-90688785D01*
X78999184Y-90651172D01*
X78997028Y-90645767D01*
X78975771Y-90616006D01*
X78935534Y-90566680D01*
X78880940Y-90502911D01*
X78816616Y-90429818D01*
X78747186Y-90352522D01*
X78677276Y-90276145D01*
X78611509Y-90205807D01*
X78554512Y-90146628D01*
X78510908Y-90103729D01*
X78485324Y-90082232D01*
X78467397Y-90076609D01*
X78418998Y-90084649D01*
X78361768Y-90114546D01*
X78305590Y-90161918D01*
X78255606Y-90214090D01*
X78030347Y-90204703D01*
X77971574Y-90202571D01*
X77875973Y-90201678D01*
X77797642Y-90206068D01*
X77723570Y-90216743D01*
X77640747Y-90234706D01*
X77424237Y-90302082D01*
X77201525Y-90408096D01*
X76994539Y-90547614D01*
X76803352Y-90720596D01*
X76646960Y-90904941D01*
X76517272Y-91108412D01*
X76421051Y-91322693D01*
X76359922Y-91544760D01*
X76340754Y-91665798D01*
X76333465Y-91775081D01*
X76340941Y-91855218D01*
X76363006Y-91904531D01*
X76399484Y-91921341D01*
X76404650Y-91919459D01*
X76435339Y-91898791D01*
X76488109Y-91857968D01*
X76559056Y-91800303D01*
X76644278Y-91729109D01*
X76739870Y-91647699D01*
X76841928Y-91559385D01*
X76946551Y-91467482D01*
X77049833Y-91375301D01*
X77147872Y-91286157D01*
X77193920Y-91244183D01*
X77271092Y-91176505D01*
X77326474Y-91132844D01*
X77362733Y-91111455D01*
X77382534Y-91110591D01*
X77388542Y-91128507D01*
X77388450Y-91129689D01*
X77379994Y-91157498D01*
X77359785Y-91211190D01*
X77330640Y-91283548D01*
X77295372Y-91367355D01*
X77275579Y-91414495D01*
X77178902Y-91686441D01*
X77115475Y-91949644D01*
X77085384Y-92202775D01*
X77088715Y-92444510D01*
X77125556Y-92673522D01*
X77195993Y-92888484D01*
X77211724Y-92924688D01*
X77243638Y-92990526D01*
X77280591Y-93055613D01*
X77325263Y-93123277D01*
X77380334Y-93196847D01*
X77448484Y-93279653D01*
X77532393Y-93375023D01*
X77634741Y-93486287D01*
X77758208Y-93616774D01*
X77905473Y-93769812D01*
X77905969Y-93770324D01*
X78023932Y-93892354D01*
X78139670Y-94012288D01*
X78249257Y-94126046D01*
X78348771Y-94229546D01*
X78434286Y-94318706D01*
X78501877Y-94389445D01*
X78547621Y-94437681D01*
X78599010Y-94490135D01*
X78652724Y-94539981D01*
X78694130Y-94572855D01*
X78717044Y-94583438D01*
X78734684Y-94567567D01*
X78759592Y-94525253D01*
X78784455Y-94466689D01*
X78817285Y-94387529D01*
X78904753Y-94241866D01*
X79016274Y-94122711D01*
X79149267Y-94032033D01*
X79301152Y-93971803D01*
X79469347Y-93943989D01*
X79539617Y-93942005D01*
X79700370Y-93958952D01*
X79846331Y-94008185D01*
X79981140Y-94091216D01*
X80108437Y-94209558D01*
X80184020Y-94305177D01*
X80240939Y-94411947D01*
X80275003Y-94529529D01*
X80287145Y-94663145D01*
X80278296Y-94818018D01*
X80249390Y-94999373D01*
X80233410Y-95082109D01*
X80218910Y-95165318D01*
X80211112Y-95228232D01*
X80209362Y-95279864D01*
X80213007Y-95329225D01*
X80221392Y-95385327D01*
X80221990Y-95388809D01*
X80257258Y-95519823D01*
X80315756Y-95658508D01*
X80390838Y-95791306D01*
X80475862Y-95904657D01*
X80527326Y-95961714D01*
X80599976Y-96040378D01*
X80686765Y-96132981D01*
X80784647Y-96236386D01*
X80890575Y-96347453D01*
X81001502Y-96463041D01*
X81114381Y-96580012D01*
X81226165Y-96695225D01*
X81333807Y-96805541D01*
X81434261Y-96907821D01*
X81524479Y-96998924D01*
X81601415Y-97075711D01*
X81662021Y-97135044D01*
X81703252Y-97173781D01*
X81722059Y-97188783D01*
X81723997Y-97189382D01*
X81744110Y-97192718D01*
X81766343Y-97188482D01*
X81794826Y-97173694D01*
X81833688Y-97145377D01*
X81887060Y-97100550D01*
X81959070Y-97036236D01*
X82053848Y-96949456D01*
X82097399Y-96909851D01*
X82166986Y-96848738D01*
X82224869Y-96800623D01*
X82265983Y-96769653D01*
X82285262Y-96759978D01*
X82294193Y-96765553D01*
X82298906Y-96779866D01*
X82297894Y-96809532D01*
X82290860Y-96861576D01*
X82277506Y-96943025D01*
X82277251Y-96944546D01*
X82270304Y-97098035D01*
X82299718Y-97252472D01*
X82365004Y-97405274D01*
X82391581Y-97447834D01*
X82438402Y-97511212D01*
X82503125Y-97590283D01*
X82586665Y-97686007D01*
X82689934Y-97799344D01*
X82813848Y-97931253D01*
X82959319Y-98082695D01*
X83127263Y-98254630D01*
X83318592Y-98448017D01*
X83534222Y-98663816D01*
X83775065Y-98902987D01*
X84042036Y-99166490D01*
X84131732Y-99254877D01*
X84278884Y-99400250D01*
X84416758Y-99536915D01*
X84543209Y-99662720D01*
X84656091Y-99775514D01*
X84753260Y-99873144D01*
X84832570Y-99953460D01*
X84891876Y-100014310D01*
X84929033Y-100053542D01*
X84941895Y-100069005D01*
X84935977Y-100070416D01*
X84897590Y-100072791D01*
X84825151Y-100075016D01*
X84720557Y-100077074D01*
X84585706Y-100078949D01*
X84422493Y-100080625D01*
X84232816Y-100082088D01*
X84018572Y-100083319D01*
X83781657Y-100084305D01*
X83523969Y-100085029D01*
X83247404Y-100085475D01*
X82953859Y-100085627D01*
X80965823Y-100085627D01*
X80926771Y-99942150D01*
X80925453Y-99937241D01*
X80914201Y-99894032D01*
X80894604Y-99817700D01*
X80867235Y-99710515D01*
X80832671Y-99574749D01*
X80791488Y-99412673D01*
X80744262Y-99226556D01*
X80691567Y-99018671D01*
X80633980Y-98791289D01*
X80572077Y-98546679D01*
X80506432Y-98287113D01*
X80437623Y-98014862D01*
X80366224Y-97732196D01*
X80292811Y-97441387D01*
X79697902Y-95084100D01*
X79772331Y-95006912D01*
X79806625Y-94969498D01*
X79865186Y-94888095D01*
X79896834Y-94807361D01*
X79906326Y-94717004D01*
X79889269Y-94605089D01*
X79839852Y-94502446D01*
X79762495Y-94417512D01*
X79661622Y-94356798D01*
X79637214Y-94347623D01*
X79528427Y-94329108D01*
X79420927Y-94343572D01*
X79321423Y-94388261D01*
X79236626Y-94460420D01*
X79173247Y-94557294D01*
X79143589Y-94637712D01*
X79132021Y-94745543D01*
X79156388Y-94849987D01*
X79217113Y-94954871D01*
X79228412Y-94970281D01*
X79249935Y-95006456D01*
X79251391Y-95035864D01*
X79235304Y-95075206D01*
X79232442Y-95080835D01*
X79212364Y-95117965D01*
X79175984Y-95183803D01*
X79124533Y-95276172D01*
X79059243Y-95392895D01*
X78981345Y-95531794D01*
X78892070Y-95690693D01*
X78792651Y-95867413D01*
X78684318Y-96059777D01*
X78568302Y-96265609D01*
X78445836Y-96482730D01*
X78318149Y-96708963D01*
X78186475Y-96942130D01*
X78052043Y-97180056D01*
X77916086Y-97420561D01*
X77779835Y-97661469D01*
X77644521Y-97900603D01*
X77511375Y-98135784D01*
X77381630Y-98364836D01*
X77256515Y-98585581D01*
X77137263Y-98795842D01*
X77025105Y-98993442D01*
X76921273Y-99176203D01*
X76826997Y-99341947D01*
X76743509Y-99488498D01*
X76672040Y-99613678D01*
X76613823Y-99715310D01*
X76570087Y-99791215D01*
X76542065Y-99839218D01*
X76530988Y-99857140D01*
X76521557Y-99862089D01*
X76492401Y-99863031D01*
X76442078Y-99854445D01*
X76365988Y-99835449D01*
X76259530Y-99805162D01*
X75967534Y-99711915D01*
X75504521Y-99533223D01*
X75052906Y-99320703D01*
X74615745Y-99075977D01*
X74196090Y-98800667D01*
X73796997Y-98496398D01*
X73759834Y-98466244D01*
X73704958Y-98423117D01*
X73664930Y-98393472D01*
X73646531Y-98382443D01*
X73635991Y-98387302D01*
X73611419Y-98410728D01*
X73604085Y-98433414D01*
X73608642Y-98474942D01*
X73626749Y-98537454D01*
X73659403Y-98623857D01*
X73707601Y-98737057D01*
X73772340Y-98879959D01*
X73795922Y-98932096D01*
X73825130Y-99000378D01*
X73845124Y-99051896D01*
X73852536Y-99078324D01*
X73845308Y-99097003D01*
X73816239Y-99122555D01*
X73810132Y-99125325D01*
X73790808Y-99126818D01*
X73765022Y-99116013D01*
X73727756Y-99089529D01*
X73673992Y-99043986D01*
X73598710Y-98976001D01*
X73494903Y-98877859D01*
X73293649Y-98671866D01*
X73089210Y-98443488D01*
X72888457Y-98200549D01*
X72698264Y-97950874D01*
X72466086Y-97612603D01*
X72219513Y-97203078D01*
X71998310Y-96778253D01*
X71804598Y-96342944D01*
X71640496Y-95901969D01*
X71508124Y-95460145D01*
X71409601Y-95022289D01*
X71399032Y-94963070D01*
X71378121Y-94831916D01*
X71358652Y-94692624D01*
X71341676Y-94554105D01*
X71328246Y-94425270D01*
X71319416Y-94315027D01*
X71316239Y-94232289D01*
X71313367Y-94179444D01*
X71297677Y-94116233D01*
X71270002Y-94082251D01*
X71232255Y-94080940D01*
X71226179Y-94084819D01*
X71198937Y-94117540D01*
X71160006Y-94178612D01*
X71111701Y-94263833D01*
X71056339Y-94369002D01*
X70996236Y-94489919D01*
X70933709Y-94622383D01*
X70929540Y-94631431D01*
X70887994Y-94719320D01*
X70856982Y-94778652D01*
X70833112Y-94814612D01*
X70812993Y-94832385D01*
X70793233Y-94837157D01*
X70782757Y-94836843D01*
X70769697Y-94832594D01*
X70760658Y-94818908D01*
X70754698Y-94790268D01*
X70750878Y-94741158D01*
X70748257Y-94666061D01*
X70745895Y-94559461D01*
X70744932Y-94491127D01*
X70753221Y-94124476D01*
X70782933Y-93735711D01*
X70833080Y-93330866D01*
X70902676Y-92915978D01*
X70990733Y-92497083D01*
X71096263Y-92080216D01*
X71218280Y-91671414D01*
X71289142Y-91460503D01*
X71461631Y-91003548D01*
X71657443Y-90551828D01*
X71873437Y-90111542D01*
X72106474Y-89688890D01*
X72353413Y-89290072D01*
X72611116Y-88921287D01*
X72648319Y-88870881D01*
X72697727Y-88800595D01*
X72726928Y-88751803D01*
X72737957Y-88719877D01*
X72732849Y-88700188D01*
X72713638Y-88688109D01*
X72708517Y-88686666D01*
X72663271Y-88688105D01*
X72590680Y-88703337D01*
X72495883Y-88730652D01*
X72384019Y-88768339D01*
X72260229Y-88814687D01*
X72129652Y-88867985D01*
X71997426Y-88926522D01*
X71956724Y-88944548D01*
X71888716Y-88971156D01*
X71836061Y-88987263D01*
X71807667Y-88989892D01*
X71787186Y-88976865D01*
X71780824Y-88952717D01*
X71795872Y-88916523D01*
X71834141Y-88865434D01*
X71897445Y-88796601D01*
X71987597Y-88707176D01*
X72129820Y-88573465D01*
X72489042Y-88264090D01*
X72876229Y-87966755D01*
X73286341Y-87684319D01*
X73714337Y-87419638D01*
X74155177Y-87175572D01*
X74603820Y-86954977D01*
X75055227Y-86760712D01*
X75504358Y-86595634D01*
X75946171Y-86462602D01*
X76138790Y-86415330D01*
X76380564Y-86364570D01*
X76629647Y-86320356D01*
X76870175Y-86285722D01*
X76926617Y-86278725D01*
X77022845Y-86267155D01*
X77113524Y-86256969D01*
X77201494Y-86248088D01*
X77289591Y-86240431D01*
X77380656Y-86233920D01*
X77477525Y-86228475D01*
X77583038Y-86224017D01*
X77700031Y-86220465D01*
X77831345Y-86217742D01*
X77979816Y-86215766D01*
X78148284Y-86214459D01*
X78339586Y-86213742D01*
X78556561Y-86213534D01*
X78802046Y-86213756D01*
X79078881Y-86214330D01*
X79389904Y-86215175D01*
X79493962Y-86215470D01*
X79782152Y-86216202D01*
X80036125Y-86216683D01*
X80257989Y-86216888D01*
X80449851Y-86216791D01*
X80613819Y-86216369D01*
X80751998Y-86215594D01*
X80866497Y-86214443D01*
X80959423Y-86212889D01*
X81032882Y-86210908D01*
X81088981Y-86208474D01*
X81129828Y-86205563D01*
X81157529Y-86202148D01*
X81174193Y-86198205D01*
X81181925Y-86193708D01*
X81185827Y-86187776D01*
X81192469Y-86161846D01*
X81193002Y-86117151D01*
X81187262Y-86047801D01*
X81175085Y-85947907D01*
X81170195Y-85908865D01*
X81158066Y-85798914D01*
X81145592Y-85670568D01*
X81133988Y-85536742D01*
X81124470Y-85410353D01*
X81116653Y-85248796D01*
X81114465Y-84988921D01*
X81122557Y-84708092D01*
X81140162Y-84414545D01*
X81166516Y-84116517D01*
X81200856Y-83822242D01*
X81242415Y-83539958D01*
X81290431Y-83277898D01*
X81344137Y-83044300D01*
X81363400Y-82971422D01*
X81385895Y-82893167D01*
X81404441Y-82841779D01*
X81421608Y-82811813D01*
X81439965Y-82797826D01*
X81462080Y-82794373D01*
X81482901Y-82795211D01*
X81498527Y-82799002D01*
X81499134Y-82803313D01*
X81504433Y-82836404D01*
X81514303Y-82896575D01*
X81527672Y-82977304D01*
X81543465Y-83072070D01*
X81567189Y-83209009D01*
X81701432Y-83853109D01*
X81871389Y-84488915D01*
X82076416Y-85114748D01*
X82315870Y-85728929D01*
X82589109Y-86329779D01*
X82895489Y-86915621D01*
X83234366Y-87484774D01*
X83288316Y-87569138D01*
X83367763Y-87690045D01*
X83448343Y-87808119D01*
X83532668Y-87926745D01*
X83623350Y-88049310D01*
X83723000Y-88179198D01*
X83834230Y-88319796D01*
X83959652Y-88474490D01*
X84101877Y-88646664D01*
X84263518Y-88839706D01*
X84447186Y-89056999D01*
X84544707Y-89172180D01*
X84666777Y-89317277D01*
X84768690Y-89439923D01*
X84852917Y-89543340D01*
X84921933Y-89630749D01*
X84978210Y-89705372D01*
X85024223Y-89770431D01*
X85062443Y-89829147D01*
X85095344Y-89884742D01*
X85125399Y-89940437D01*
X85134303Y-89957750D01*
X85179568Y-90051551D01*
X85217685Y-90143446D01*
X85249349Y-90237759D01*
X85275257Y-90338814D01*
X85296103Y-90450936D01*
X85312584Y-90578450D01*
X85325395Y-90725681D01*
X85335233Y-90896954D01*
X85342792Y-91096592D01*
X85348769Y-91328921D01*
X85349481Y-91361364D01*
X85349645Y-91367930D01*
X85354538Y-91564223D01*
X85360395Y-91736196D01*
X85367747Y-91882644D01*
X85377292Y-92008928D01*
X85389726Y-92120407D01*
X85405746Y-92222443D01*
X85426049Y-92320395D01*
X85451332Y-92419624D01*
X85482290Y-92525490D01*
X85519622Y-92643353D01*
X85542602Y-92713047D01*
X85570136Y-92792744D01*
X85599156Y-92871602D01*
X85631192Y-92953006D01*
X85667776Y-93040338D01*
X85710440Y-93136983D01*
X85760716Y-93246322D01*
X85820134Y-93371741D01*
X85890227Y-93516621D01*
X85972526Y-93684346D01*
X86068562Y-93878300D01*
X86179868Y-94101866D01*
X86196167Y-94134585D01*
X86280292Y-94304695D01*
X86360431Y-94468737D01*
X86434764Y-94622859D01*
X86501474Y-94763208D01*
X86558742Y-94885932D01*
X86604748Y-94987176D01*
X86637674Y-95063089D01*
X86655701Y-95109817D01*
X86684820Y-95219735D01*
X86689203Y-95248699D01*
X86704781Y-95351642D01*
X86708777Y-95476949D01*
G37*
%TD*%
M02*
