M48
; DRILL file {KiCad 6.0.2+dfsg-1} date Sat 10 Dec 2022 01:13:53 PM EST
; FORMAT={-:-/ absolute / inch / decimal}
; #@! TF.CreationDate,2022-12-10T13:13:53-05:00
; #@! TF.GenerationSoftware,Kicad,Pcbnew,6.0.2+dfsg-1
; #@! TF.FileFunction,Plated,1,2,PTH
FMAT,2
INCH
; #@! TA.AperFunction,Plated,PTH,ViaDrill
T1C0.0157
; #@! TA.AperFunction,Plated,PTH,ComponentDrill
T2C0.0201
; #@! TA.AperFunction,Plated,PTH,ComponentDrill
T3C0.0362
; #@! TA.AperFunction,Plated,PTH,ComponentDrill
T4C0.0394
; #@! TA.AperFunction,Plated,PTH,ComponentDrill
T5C0.0591
; #@! TA.AperFunction,Plated,PTH,ComponentDrill
T6C0.0906
%
G90
G05
T1
X3.2Y-3.75
X3.525Y-3.975
T2
X3.13Y-4.005
X3.13Y-4.055
X3.13Y-4.105
X3.23Y-4.005
X3.23Y-4.055
X3.23Y-4.105
T3
X2.9622Y-3.0878
X2.9622Y-3.1909
X3.0606Y-3.0878
X3.0606Y-3.1909
X3.1394Y-3.0878
X3.1394Y-3.1909
X3.2378Y-3.0878
X3.2378Y-3.1909
T4
X2.8Y-4.95
X3.4Y-4.95
T5
X2.95Y-4.35
X3.25Y-4.35
T6
X2.8413Y-2.9811
X2.8413Y-3.2047
X3.3587Y-2.9811
X3.3587Y-3.2047
T0
M30
