%TF.GenerationSoftware,KiCad,Pcbnew,6.0.2+dfsg-1*%
%TF.CreationDate,2022-12-19T10:39:50-05:00*%
%TF.ProjectId,mosfet-test-board,6d6f7366-6574-42d7-9465-73742d626f61,rev?*%
%TF.SameCoordinates,Original*%
%TF.FileFunction,Copper,L2,Bot*%
%TF.FilePolarity,Positive*%
%FSLAX46Y46*%
G04 Gerber Fmt 4.6, Leading zero omitted, Abs format (unit mm)*
G04 Created by KiCad (PCBNEW 6.0.2+dfsg-1) date 2022-12-19 10:39:50*
%MOMM*%
%LPD*%
G01*
G04 APERTURE LIST*
%TA.AperFunction,ComponentPad*%
%ADD10R,1.700000X1.700000*%
%TD*%
%TA.AperFunction,ComponentPad*%
%ADD11O,1.700000X1.700000*%
%TD*%
%TA.AperFunction,ViaPad*%
%ADD12C,0.800000*%
%TD*%
G04 APERTURE END LIST*
D10*
%TO.P,J2,1,Pin_1*%
%TO.N,+12V*%
X66675000Y-86995000D03*
D11*
%TO.P,J2,2,Pin_2*%
%TO.N,PWM_IN_1*%
X69215000Y-86995000D03*
%TO.P,J2,3,Pin_3*%
%TO.N,GND*%
X71755000Y-86995000D03*
%TD*%
D10*
%TO.P,J1,1,Pin_1*%
%TO.N,+12V*%
X67945000Y-66675000D03*
D11*
%TO.P,J1,2,Pin_2*%
%TO.N,PWM_OUT_1*%
X70485000Y-66675000D03*
%TD*%
D12*
%TO.N,GND*%
X73660000Y-77470000D03*
X73660000Y-79375000D03*
X69850000Y-79375000D03*
X69850000Y-77470000D03*
%TD*%
%TA.AperFunction,Conductor*%
%TO.N,GND*%
G36*
X74872121Y-64155002D02*
G01*
X74918614Y-64208658D01*
X74930000Y-64261000D01*
X74930000Y-89409000D01*
X74909998Y-89477121D01*
X74856342Y-89523614D01*
X74804000Y-89535000D01*
X63626000Y-89535000D01*
X63557879Y-89514998D01*
X63511386Y-89461342D01*
X63500000Y-89409000D01*
X63500000Y-87893134D01*
X65316500Y-87893134D01*
X65323255Y-87955316D01*
X65374385Y-88091705D01*
X65461739Y-88208261D01*
X65578295Y-88295615D01*
X65714684Y-88346745D01*
X65776866Y-88353500D01*
X67573134Y-88353500D01*
X67635316Y-88346745D01*
X67771705Y-88295615D01*
X67888261Y-88208261D01*
X67975615Y-88091705D01*
X67997799Y-88032529D01*
X68019598Y-87974382D01*
X68062240Y-87917618D01*
X68128802Y-87892918D01*
X68198150Y-87908126D01*
X68232817Y-87936114D01*
X68261250Y-87968938D01*
X68433126Y-88111632D01*
X68626000Y-88224338D01*
X68834692Y-88304030D01*
X68839760Y-88305061D01*
X68839763Y-88305062D01*
X68934862Y-88324410D01*
X69053597Y-88348567D01*
X69058772Y-88348757D01*
X69058774Y-88348757D01*
X69271673Y-88356564D01*
X69271677Y-88356564D01*
X69276837Y-88356753D01*
X69281957Y-88356097D01*
X69281959Y-88356097D01*
X69493288Y-88329025D01*
X69493289Y-88329025D01*
X69498416Y-88328368D01*
X69503366Y-88326883D01*
X69707429Y-88265661D01*
X69707434Y-88265659D01*
X69712384Y-88264174D01*
X69912994Y-88165896D01*
X70094860Y-88036173D01*
X70253096Y-87878489D01*
X70383453Y-87697077D01*
X70384640Y-87697930D01*
X70431960Y-87654362D01*
X70501897Y-87642145D01*
X70567338Y-87669678D01*
X70595166Y-87701511D01*
X70652694Y-87795388D01*
X70658777Y-87803699D01*
X70798213Y-87964667D01*
X70805580Y-87971883D01*
X70969434Y-88107916D01*
X70977881Y-88113831D01*
X71161756Y-88221279D01*
X71171042Y-88225729D01*
X71370001Y-88301703D01*
X71379899Y-88304579D01*
X71483250Y-88325606D01*
X71497299Y-88324410D01*
X71501000Y-88314065D01*
X71501000Y-88313517D01*
X72009000Y-88313517D01*
X72013064Y-88327359D01*
X72026478Y-88329393D01*
X72033184Y-88328534D01*
X72043262Y-88326392D01*
X72247255Y-88265191D01*
X72256842Y-88261433D01*
X72448095Y-88167739D01*
X72456945Y-88162464D01*
X72630328Y-88038792D01*
X72638200Y-88032139D01*
X72789052Y-87881812D01*
X72795730Y-87873965D01*
X72920003Y-87701020D01*
X72925313Y-87692183D01*
X73019670Y-87501267D01*
X73023469Y-87491672D01*
X73085377Y-87287910D01*
X73087555Y-87277837D01*
X73088986Y-87266962D01*
X73086775Y-87252778D01*
X73073617Y-87249000D01*
X72027115Y-87249000D01*
X72011876Y-87253475D01*
X72010671Y-87254865D01*
X72009000Y-87262548D01*
X72009000Y-88313517D01*
X71501000Y-88313517D01*
X71501000Y-86722885D01*
X72009000Y-86722885D01*
X72013475Y-86738124D01*
X72014865Y-86739329D01*
X72022548Y-86741000D01*
X73073344Y-86741000D01*
X73086875Y-86737027D01*
X73088180Y-86727947D01*
X73046214Y-86560875D01*
X73042894Y-86551124D01*
X72957972Y-86355814D01*
X72953105Y-86346739D01*
X72837426Y-86167926D01*
X72831136Y-86159757D01*
X72687806Y-86002240D01*
X72680273Y-85995215D01*
X72513139Y-85863222D01*
X72504552Y-85857517D01*
X72318117Y-85754599D01*
X72308705Y-85750369D01*
X72107959Y-85679280D01*
X72097988Y-85676646D01*
X72026837Y-85663972D01*
X72013540Y-85665432D01*
X72009000Y-85679989D01*
X72009000Y-86722885D01*
X71501000Y-86722885D01*
X71501000Y-85678102D01*
X71497082Y-85664758D01*
X71482806Y-85662771D01*
X71444324Y-85668660D01*
X71434288Y-85671051D01*
X71231868Y-85737212D01*
X71222359Y-85741209D01*
X71033463Y-85839542D01*
X71024738Y-85845036D01*
X70854433Y-85972905D01*
X70846726Y-85979748D01*
X70699590Y-86133717D01*
X70693109Y-86141722D01*
X70588498Y-86295074D01*
X70533587Y-86340076D01*
X70463062Y-86348247D01*
X70399315Y-86316993D01*
X70378618Y-86292509D01*
X70297822Y-86167617D01*
X70297820Y-86167614D01*
X70295014Y-86163277D01*
X70144670Y-85998051D01*
X70140619Y-85994852D01*
X70140615Y-85994848D01*
X69973414Y-85862800D01*
X69973410Y-85862798D01*
X69969359Y-85859598D01*
X69933028Y-85839542D01*
X69917136Y-85830769D01*
X69773789Y-85751638D01*
X69768920Y-85749914D01*
X69768916Y-85749912D01*
X69568087Y-85678795D01*
X69568083Y-85678794D01*
X69563212Y-85677069D01*
X69558119Y-85676162D01*
X69558116Y-85676161D01*
X69348373Y-85638800D01*
X69348367Y-85638799D01*
X69343284Y-85637894D01*
X69269452Y-85636992D01*
X69125081Y-85635228D01*
X69125079Y-85635228D01*
X69119911Y-85635165D01*
X68899091Y-85668955D01*
X68686756Y-85738357D01*
X68488607Y-85841507D01*
X68484474Y-85844610D01*
X68484471Y-85844612D01*
X68314100Y-85972530D01*
X68309965Y-85975635D01*
X68253537Y-86034684D01*
X68229283Y-86060064D01*
X68167759Y-86095494D01*
X68096846Y-86092037D01*
X68039060Y-86050791D01*
X68020207Y-86017243D01*
X67978767Y-85906703D01*
X67975615Y-85898295D01*
X67888261Y-85781739D01*
X67771705Y-85694385D01*
X67635316Y-85643255D01*
X67573134Y-85636500D01*
X65776866Y-85636500D01*
X65714684Y-85643255D01*
X65578295Y-85694385D01*
X65461739Y-85781739D01*
X65374385Y-85898295D01*
X65323255Y-86034684D01*
X65316500Y-86096866D01*
X65316500Y-87893134D01*
X63500000Y-87893134D01*
X63500000Y-67573134D01*
X66586500Y-67573134D01*
X66593255Y-67635316D01*
X66644385Y-67771705D01*
X66731739Y-67888261D01*
X66848295Y-67975615D01*
X66984684Y-68026745D01*
X67046866Y-68033500D01*
X68843134Y-68033500D01*
X68905316Y-68026745D01*
X69041705Y-67975615D01*
X69158261Y-67888261D01*
X69245615Y-67771705D01*
X69267799Y-67712529D01*
X69289598Y-67654382D01*
X69332240Y-67597618D01*
X69398802Y-67572918D01*
X69468150Y-67588126D01*
X69502817Y-67616114D01*
X69531250Y-67648938D01*
X69703126Y-67791632D01*
X69896000Y-67904338D01*
X70104692Y-67984030D01*
X70109760Y-67985061D01*
X70109763Y-67985062D01*
X70217017Y-68006883D01*
X70323597Y-68028567D01*
X70328772Y-68028757D01*
X70328774Y-68028757D01*
X70541673Y-68036564D01*
X70541677Y-68036564D01*
X70546837Y-68036753D01*
X70551957Y-68036097D01*
X70551959Y-68036097D01*
X70763288Y-68009025D01*
X70763289Y-68009025D01*
X70768416Y-68008368D01*
X70773366Y-68006883D01*
X70977429Y-67945661D01*
X70977434Y-67945659D01*
X70982384Y-67944174D01*
X71182994Y-67845896D01*
X71364860Y-67716173D01*
X71523096Y-67558489D01*
X71653453Y-67377077D01*
X71752430Y-67176811D01*
X71817370Y-66963069D01*
X71846529Y-66741590D01*
X71848156Y-66675000D01*
X71829852Y-66452361D01*
X71775431Y-66235702D01*
X71686354Y-66030840D01*
X71565014Y-65843277D01*
X71414670Y-65678051D01*
X71410619Y-65674852D01*
X71410615Y-65674848D01*
X71243414Y-65542800D01*
X71243410Y-65542798D01*
X71239359Y-65539598D01*
X71043789Y-65431638D01*
X71038920Y-65429914D01*
X71038916Y-65429912D01*
X70838087Y-65358795D01*
X70838083Y-65358794D01*
X70833212Y-65357069D01*
X70828119Y-65356162D01*
X70828116Y-65356161D01*
X70618373Y-65318800D01*
X70618367Y-65318799D01*
X70613284Y-65317894D01*
X70539452Y-65316992D01*
X70395081Y-65315228D01*
X70395079Y-65315228D01*
X70389911Y-65315165D01*
X70169091Y-65348955D01*
X69956756Y-65418357D01*
X69758607Y-65521507D01*
X69754474Y-65524610D01*
X69754471Y-65524612D01*
X69584100Y-65652530D01*
X69579965Y-65655635D01*
X69523537Y-65714684D01*
X69499283Y-65740064D01*
X69437759Y-65775494D01*
X69366846Y-65772037D01*
X69309060Y-65730791D01*
X69290207Y-65697243D01*
X69248767Y-65586703D01*
X69245615Y-65578295D01*
X69158261Y-65461739D01*
X69041705Y-65374385D01*
X68905316Y-65323255D01*
X68843134Y-65316500D01*
X67046866Y-65316500D01*
X66984684Y-65323255D01*
X66848295Y-65374385D01*
X66731739Y-65461739D01*
X66644385Y-65578295D01*
X66593255Y-65714684D01*
X66586500Y-65776866D01*
X66586500Y-67573134D01*
X63500000Y-67573134D01*
X63500000Y-64261000D01*
X63520002Y-64192879D01*
X63573658Y-64146386D01*
X63626000Y-64135000D01*
X74804000Y-64135000D01*
X74872121Y-64155002D01*
G37*
%TD.AperFunction*%
%TD*%
M02*
