%TF.GenerationSoftware,KiCad,Pcbnew,6.0.2+dfsg-1*%
%TF.CreationDate,2022-12-19T10:39:51-05:00*%
%TF.ProjectId,mosfet-test-board,6d6f7366-6574-42d7-9465-73742d626f61,rev?*%
%TF.SameCoordinates,Original*%
%TF.FileFunction,Legend,Top*%
%TF.FilePolarity,Positive*%
%FSLAX46Y46*%
G04 Gerber Fmt 4.6, Leading zero omitted, Abs format (unit mm)*
G04 Created by KiCad (PCBNEW 6.0.2+dfsg-1) date 2022-12-19 10:39:51*
%MOMM*%
%LPD*%
G01*
G04 APERTURE LIST*
%ADD10C,0.120000*%
G04 APERTURE END LIST*
D10*
%TO.C,J2*%
X65345000Y-88325000D02*
X65345000Y-86995000D01*
X67945000Y-88325000D02*
X67945000Y-85665000D01*
X73085000Y-88325000D02*
X73085000Y-85665000D01*
X67945000Y-85665000D02*
X73085000Y-85665000D01*
X66675000Y-88325000D02*
X65345000Y-88325000D01*
X67945000Y-88325000D02*
X73085000Y-88325000D01*
%TO.C,U1*%
X70775000Y-82550000D02*
X70775000Y-81750000D01*
X70775000Y-82550000D02*
X70775000Y-83350000D01*
X67655000Y-82550000D02*
X67655000Y-84350000D01*
X67655000Y-82550000D02*
X67655000Y-81750000D01*
%TO.C,J1*%
X67945000Y-68005000D02*
X66615000Y-68005000D01*
X69215000Y-65345000D02*
X71815000Y-65345000D01*
X69215000Y-68005000D02*
X71815000Y-68005000D01*
X66615000Y-68005000D02*
X66615000Y-66675000D01*
X69215000Y-68005000D02*
X69215000Y-65345000D01*
X71815000Y-68005000D02*
X71815000Y-65345000D01*
%TO.C,C1*%
X71245000Y-82690580D02*
X71245000Y-82409420D01*
X72265000Y-82690580D02*
X72265000Y-82409420D01*
%TO.C,R1*%
X66562500Y-82152258D02*
X66562500Y-81677742D01*
X65517500Y-82152258D02*
X65517500Y-81677742D01*
%TO.C,Q1*%
X72855000Y-76820000D02*
X72585000Y-76820000D01*
X65955000Y-76820000D02*
X66225000Y-76820000D01*
X72855000Y-75320000D02*
X72855000Y-76820000D01*
X65955000Y-75320000D02*
X65955000Y-76820000D01*
X72585000Y-76820000D02*
X72585000Y-77920000D01*
X66225000Y-76820000D02*
X66225000Y-79650000D01*
%TD*%
M02*
