%TF.GenerationSoftware,KiCad,Pcbnew,6.0.2+dfsg-1*%
%TF.CreationDate,2022-12-19T10:39:50-05:00*%
%TF.ProjectId,mosfet-test-board,6d6f7366-6574-42d7-9465-73742d626f61,rev?*%
%TF.SameCoordinates,Original*%
%TF.FileFunction,Copper,L1,Top*%
%TF.FilePolarity,Positive*%
%FSLAX46Y46*%
G04 Gerber Fmt 4.6, Leading zero omitted, Abs format (unit mm)*
G04 Created by KiCad (PCBNEW 6.0.2+dfsg-1) date 2022-12-19 10:39:50*
%MOMM*%
%LPD*%
G01*
G04 APERTURE LIST*
G04 Aperture macros list*
%AMRoundRect*
0 Rectangle with rounded corners*
0 $1 Rounding radius*
0 $2 $3 $4 $5 $6 $7 $8 $9 X,Y pos of 4 corners*
0 Add a 4 corners polygon primitive as box body*
4,1,4,$2,$3,$4,$5,$6,$7,$8,$9,$2,$3,0*
0 Add four circle primitives for the rounded corners*
1,1,$1+$1,$2,$3*
1,1,$1+$1,$4,$5*
1,1,$1+$1,$6,$7*
1,1,$1+$1,$8,$9*
0 Add four rect primitives between the rounded corners*
20,1,$1+$1,$2,$3,$4,$5,0*
20,1,$1+$1,$4,$5,$6,$7,0*
20,1,$1+$1,$6,$7,$8,$9,0*
20,1,$1+$1,$8,$9,$2,$3,0*%
G04 Aperture macros list end*
%TA.AperFunction,ComponentPad*%
%ADD10R,1.700000X1.700000*%
%TD*%
%TA.AperFunction,ComponentPad*%
%ADD11O,1.700000X1.700000*%
%TD*%
%TA.AperFunction,SMDPad,CuDef*%
%ADD12RoundRect,0.150000X0.150000X-0.512500X0.150000X0.512500X-0.150000X0.512500X-0.150000X-0.512500X0*%
%TD*%
%TA.AperFunction,SMDPad,CuDef*%
%ADD13RoundRect,0.225000X0.250000X-0.225000X0.250000X0.225000X-0.250000X0.225000X-0.250000X-0.225000X0*%
%TD*%
%TA.AperFunction,SMDPad,CuDef*%
%ADD14RoundRect,0.200000X0.275000X-0.200000X0.275000X0.200000X-0.275000X0.200000X-0.275000X-0.200000X0*%
%TD*%
%TA.AperFunction,SMDPad,CuDef*%
%ADD15R,1.200000X2.200000*%
%TD*%
%TA.AperFunction,SMDPad,CuDef*%
%ADD16R,5.800000X6.400000*%
%TD*%
%TA.AperFunction,ViaPad*%
%ADD17C,0.800000*%
%TD*%
%TA.AperFunction,Conductor*%
%ADD18C,0.600000*%
%TD*%
%TA.AperFunction,Conductor*%
%ADD19C,1.700000*%
%TD*%
G04 APERTURE END LIST*
D10*
%TO.P,J2,1,Pin_1*%
%TO.N,+12V*%
X66675000Y-86995000D03*
D11*
%TO.P,J2,2,Pin_2*%
%TO.N,PWM_IN_1*%
X69215000Y-86995000D03*
%TO.P,J2,3,Pin_3*%
%TO.N,GND*%
X71755000Y-86995000D03*
%TD*%
D12*
%TO.P,U1,1,VDD*%
%TO.N,+12V*%
X68265000Y-83687500D03*
%TO.P,U1,2,GND*%
%TO.N,GND*%
X69215000Y-83687500D03*
%TO.P,U1,3,IN+*%
%TO.N,PWM_IN_1*%
X70165000Y-83687500D03*
%TO.P,U1,4,IN-*%
%TO.N,GND*%
X70165000Y-81412500D03*
%TO.P,U1,5,OUT*%
%TO.N,Net-(R1-Pad1)*%
X68265000Y-81412500D03*
%TD*%
D10*
%TO.P,J1,1,Pin_1*%
%TO.N,+12V*%
X67945000Y-66675000D03*
D11*
%TO.P,J1,2,Pin_2*%
%TO.N,PWM_OUT_1*%
X70485000Y-66675000D03*
%TD*%
D13*
%TO.P,C1,1*%
%TO.N,+12V*%
X71755000Y-83325000D03*
%TO.P,C1,2*%
%TO.N,GND*%
X71755000Y-81775000D03*
%TD*%
D14*
%TO.P,R1,1*%
%TO.N,Net-(R1-Pad1)*%
X66040000Y-82740000D03*
%TO.P,R1,2*%
%TO.N,Net-(Q1-Pad1)*%
X66040000Y-81090000D03*
%TD*%
D15*
%TO.P,Q1,1,G*%
%TO.N,Net-(Q1-Pad1)*%
X67125000Y-78550000D03*
D16*
%TO.P,Q1,2,D*%
%TO.N,PWM_OUT_1*%
X69405000Y-72250000D03*
D15*
%TO.P,Q1,3,S*%
%TO.N,GND*%
X71685000Y-78550000D03*
%TD*%
D17*
%TO.N,GND*%
X73660000Y-77470000D03*
X73660000Y-79375000D03*
X69850000Y-79375000D03*
X69850000Y-77470000D03*
%TD*%
D18*
%TO.N,+12V*%
X64770000Y-67945000D02*
X66040000Y-66675000D01*
X66675000Y-86995000D02*
X68024511Y-88344511D01*
X73104511Y-87553987D02*
X73104511Y-84674511D01*
X67442500Y-83687500D02*
X68265000Y-83687500D01*
X73104511Y-84674511D02*
X71755000Y-83325000D01*
X66040000Y-66675000D02*
X67945000Y-66675000D01*
X66675000Y-84455000D02*
X67442500Y-83687500D01*
X68024511Y-88344511D02*
X72313987Y-88344511D01*
X66675000Y-86995000D02*
X66675000Y-84455000D01*
X72313987Y-88344511D02*
X73104511Y-87553987D01*
X64770000Y-85090000D02*
X64770000Y-67945000D01*
X66675000Y-86995000D02*
X64770000Y-85090000D01*
%TO.N,GND*%
X69215000Y-83687500D02*
X69215000Y-82362500D01*
X69215000Y-82362500D02*
X70165000Y-81412500D01*
D19*
%TO.N,PWM_OUT_1*%
X70485000Y-71170000D02*
X69405000Y-72250000D01*
X70485000Y-66675000D02*
X70485000Y-71170000D01*
D18*
%TO.N,PWM_IN_1*%
X70165000Y-86045000D02*
X70165000Y-83687500D01*
X69215000Y-86995000D02*
X70165000Y-86045000D01*
%TO.N,Net-(Q1-Pad1)*%
X66040000Y-81090000D02*
X66040000Y-79635000D01*
X66040000Y-79635000D02*
X67125000Y-78550000D01*
%TO.N,Net-(R1-Pad1)*%
X67367500Y-81412500D02*
X66040000Y-82740000D01*
X68265000Y-81412500D02*
X67367500Y-81412500D01*
%TD*%
%TA.AperFunction,Conductor*%
%TO.N,GND*%
G36*
X74872121Y-64155002D02*
G01*
X74918614Y-64208658D01*
X74930000Y-64261000D01*
X74930000Y-89409000D01*
X74909998Y-89477121D01*
X74856342Y-89523614D01*
X74804000Y-89535000D01*
X63626000Y-89535000D01*
X63557879Y-89514998D01*
X63511386Y-89461342D01*
X63500000Y-89409000D01*
X63500000Y-85172221D01*
X63960549Y-85172221D01*
X63969711Y-85214597D01*
X63971769Y-85227163D01*
X63976603Y-85270255D01*
X63978919Y-85276906D01*
X63978920Y-85276910D01*
X63987633Y-85301930D01*
X63991796Y-85316742D01*
X63998881Y-85349510D01*
X64017208Y-85388813D01*
X64021990Y-85400589D01*
X64036255Y-85441552D01*
X64039989Y-85447527D01*
X64039990Y-85447530D01*
X64054027Y-85469995D01*
X64061366Y-85483512D01*
X64072559Y-85507514D01*
X64075538Y-85513902D01*
X64079855Y-85519467D01*
X64079856Y-85519469D01*
X64102106Y-85548153D01*
X64109402Y-85558612D01*
X64132374Y-85595376D01*
X64137334Y-85600371D01*
X64137335Y-85600372D01*
X64160976Y-85624179D01*
X64161561Y-85624804D01*
X64162078Y-85625470D01*
X64188068Y-85651460D01*
X64260185Y-85724082D01*
X64261222Y-85724740D01*
X64262451Y-85725843D01*
X65279595Y-86742987D01*
X65313621Y-86805299D01*
X65316500Y-86832082D01*
X65316500Y-87893134D01*
X65323255Y-87955316D01*
X65374385Y-88091705D01*
X65461739Y-88208261D01*
X65578295Y-88295615D01*
X65714684Y-88346745D01*
X65776866Y-88353500D01*
X66837918Y-88353500D01*
X66906039Y-88373502D01*
X66927013Y-88390405D01*
X67446277Y-88909669D01*
X67447205Y-88910606D01*
X67486532Y-88950765D01*
X67510282Y-88975018D01*
X67546732Y-88998509D01*
X67557057Y-89005928D01*
X67590954Y-89032987D01*
X67597295Y-89036052D01*
X67597296Y-89036053D01*
X67621148Y-89047583D01*
X67634565Y-89055112D01*
X67662749Y-89073276D01*
X67669366Y-89075684D01*
X67669371Y-89075687D01*
X67703484Y-89088103D01*
X67715227Y-89093064D01*
X67747911Y-89108864D01*
X67747920Y-89108867D01*
X67754260Y-89111932D01*
X67761125Y-89113517D01*
X67786939Y-89119477D01*
X67801679Y-89123843D01*
X67833196Y-89135314D01*
X67840181Y-89136196D01*
X67840188Y-89136198D01*
X67876203Y-89140748D01*
X67888754Y-89142983D01*
X67930996Y-89152736D01*
X67938040Y-89152761D01*
X67938044Y-89152761D01*
X67971583Y-89152878D01*
X67972453Y-89152907D01*
X67973280Y-89153011D01*
X68009769Y-89153011D01*
X68010208Y-89153012D01*
X68108854Y-89153356D01*
X68108859Y-89153356D01*
X68112381Y-89153368D01*
X68113581Y-89153100D01*
X68115219Y-89153011D01*
X72304773Y-89153011D01*
X72306093Y-89153018D01*
X72396208Y-89153962D01*
X72438584Y-89144800D01*
X72451150Y-89142742D01*
X72494242Y-89137908D01*
X72500893Y-89135592D01*
X72500897Y-89135591D01*
X72525917Y-89126878D01*
X72540729Y-89122715D01*
X72566606Y-89117120D01*
X72573497Y-89115630D01*
X72612800Y-89097303D01*
X72624576Y-89092521D01*
X72665539Y-89078256D01*
X72671514Y-89074522D01*
X72671517Y-89074521D01*
X72693982Y-89060484D01*
X72707499Y-89053145D01*
X72731501Y-89041952D01*
X72731502Y-89041951D01*
X72737889Y-89038973D01*
X72772140Y-89012405D01*
X72782599Y-89005109D01*
X72813391Y-88985869D01*
X72813394Y-88985867D01*
X72819363Y-88982137D01*
X72848166Y-88953535D01*
X72848791Y-88952950D01*
X72849457Y-88952433D01*
X72875447Y-88926443D01*
X72948069Y-88854326D01*
X72948727Y-88853289D01*
X72949830Y-88852060D01*
X73669669Y-88132221D01*
X73670606Y-88131293D01*
X73729986Y-88073144D01*
X73729987Y-88073143D01*
X73735018Y-88068216D01*
X73758509Y-88031766D01*
X73765928Y-88021441D01*
X73792987Y-87987544D01*
X73807584Y-87957349D01*
X73815113Y-87943932D01*
X73829459Y-87921671D01*
X73833276Y-87915749D01*
X73835684Y-87909132D01*
X73835687Y-87909127D01*
X73848103Y-87875014D01*
X73853064Y-87863271D01*
X73868864Y-87830587D01*
X73868867Y-87830578D01*
X73871932Y-87824238D01*
X73879477Y-87791559D01*
X73883845Y-87776812D01*
X73895314Y-87745302D01*
X73896196Y-87738317D01*
X73896198Y-87738310D01*
X73900748Y-87702295D01*
X73902983Y-87689744D01*
X73911151Y-87654365D01*
X73912736Y-87647502D01*
X73912878Y-87606915D01*
X73912907Y-87606045D01*
X73913011Y-87605218D01*
X73913011Y-87568577D01*
X73913012Y-87568290D01*
X73913356Y-87469644D01*
X73913356Y-87469639D01*
X73913368Y-87466117D01*
X73913100Y-87464917D01*
X73913011Y-87463279D01*
X73913011Y-84683725D01*
X73913018Y-84682405D01*
X73913888Y-84599337D01*
X73913962Y-84592290D01*
X73904800Y-84549914D01*
X73902741Y-84537343D01*
X73898693Y-84501255D01*
X73897908Y-84494256D01*
X73886878Y-84462581D01*
X73882715Y-84447769D01*
X73877120Y-84421892D01*
X73875630Y-84415001D01*
X73857303Y-84375698D01*
X73852521Y-84363922D01*
X73838256Y-84322959D01*
X73834521Y-84316981D01*
X73820484Y-84294516D01*
X73813145Y-84280999D01*
X73801952Y-84256997D01*
X73801951Y-84256996D01*
X73798973Y-84250609D01*
X73774689Y-84219302D01*
X73772405Y-84216358D01*
X73765109Y-84205899D01*
X73745869Y-84175107D01*
X73745867Y-84175104D01*
X73742137Y-84169135D01*
X73713535Y-84140332D01*
X73712950Y-84139707D01*
X73712433Y-84139041D01*
X73686443Y-84113051D01*
X73614326Y-84040429D01*
X73613289Y-84039771D01*
X73612060Y-84038668D01*
X72775405Y-83202013D01*
X72741379Y-83139701D01*
X72738500Y-83112918D01*
X72738500Y-83051268D01*
X72727887Y-82948981D01*
X72713071Y-82904573D01*
X72676073Y-82793676D01*
X72676072Y-82793674D01*
X72673756Y-82786732D01*
X72666509Y-82775020D01*
X72587606Y-82647515D01*
X72583752Y-82641287D01*
X72462702Y-82520448D01*
X72363650Y-82459391D01*
X72323331Y-82434538D01*
X72323329Y-82434537D01*
X72317101Y-82430698D01*
X72154757Y-82376851D01*
X72147920Y-82376151D01*
X72147918Y-82376150D01*
X72106599Y-82371917D01*
X72053732Y-82366500D01*
X71456268Y-82366500D01*
X71453022Y-82366837D01*
X71453018Y-82366837D01*
X71418917Y-82370375D01*
X71353981Y-82377113D01*
X71347440Y-82379295D01*
X71347441Y-82379295D01*
X71198676Y-82428927D01*
X71198674Y-82428928D01*
X71191732Y-82431244D01*
X71185508Y-82435096D01*
X71185507Y-82435096D01*
X71146247Y-82459391D01*
X71046287Y-82521248D01*
X70925448Y-82642298D01*
X70921605Y-82648532D01*
X70920356Y-82650114D01*
X70862439Y-82691177D01*
X70791516Y-82694410D01*
X70732378Y-82661118D01*
X70721807Y-82650547D01*
X70714983Y-82646511D01*
X70714980Y-82646509D01*
X70607411Y-82582893D01*
X70578601Y-82565855D01*
X70570990Y-82563644D01*
X70570988Y-82563643D01*
X70469453Y-82534145D01*
X70418831Y-82519438D01*
X70412426Y-82518934D01*
X70412421Y-82518933D01*
X70383958Y-82516693D01*
X70383950Y-82516693D01*
X70381502Y-82516500D01*
X69948498Y-82516500D01*
X69946050Y-82516693D01*
X69946042Y-82516693D01*
X69917579Y-82518933D01*
X69917574Y-82518934D01*
X69911169Y-82519438D01*
X69860547Y-82534145D01*
X69759012Y-82563643D01*
X69759010Y-82563644D01*
X69751399Y-82565855D01*
X69722589Y-82582893D01*
X69615020Y-82646509D01*
X69615017Y-82646511D01*
X69608193Y-82650547D01*
X69490547Y-82768193D01*
X69486512Y-82775016D01*
X69486509Y-82775020D01*
X69432945Y-82865592D01*
X69405855Y-82911399D01*
X69403644Y-82919010D01*
X69403643Y-82919012D01*
X69392945Y-82955837D01*
X69359438Y-83071169D01*
X69356500Y-83108498D01*
X69356500Y-85510506D01*
X69336498Y-85578627D01*
X69282842Y-85625120D01*
X69228961Y-85636497D01*
X69125081Y-85635228D01*
X69125079Y-85635228D01*
X69119911Y-85635165D01*
X68899091Y-85668955D01*
X68686756Y-85738357D01*
X68488607Y-85841507D01*
X68484474Y-85844610D01*
X68484471Y-85844612D01*
X68336738Y-85955533D01*
X68309965Y-85975635D01*
X68253537Y-86034684D01*
X68229283Y-86060064D01*
X68167759Y-86095494D01*
X68096846Y-86092037D01*
X68039060Y-86050791D01*
X68020207Y-86017243D01*
X67978767Y-85906703D01*
X67975615Y-85898295D01*
X67888261Y-85781739D01*
X67771705Y-85694385D01*
X67635316Y-85643255D01*
X67607636Y-85640248D01*
X67595892Y-85638972D01*
X67530330Y-85611730D01*
X67489904Y-85553366D01*
X67483500Y-85513709D01*
X67483500Y-84842082D01*
X67503502Y-84773961D01*
X67520405Y-84752987D01*
X67540667Y-84732725D01*
X67602979Y-84698699D01*
X67673794Y-84703764D01*
X67704757Y-84721017D01*
X67708193Y-84724453D01*
X67851399Y-84809145D01*
X67859010Y-84811356D01*
X67859012Y-84811357D01*
X67911231Y-84826528D01*
X68011169Y-84855562D01*
X68017574Y-84856066D01*
X68017579Y-84856067D01*
X68046042Y-84858307D01*
X68046050Y-84858307D01*
X68048498Y-84858500D01*
X68481502Y-84858500D01*
X68483950Y-84858307D01*
X68483958Y-84858307D01*
X68512421Y-84856067D01*
X68512426Y-84856066D01*
X68518831Y-84855562D01*
X68618769Y-84826528D01*
X68670988Y-84811357D01*
X68670990Y-84811356D01*
X68678601Y-84809145D01*
X68738094Y-84773961D01*
X68814980Y-84728491D01*
X68814983Y-84728489D01*
X68821807Y-84724453D01*
X68939453Y-84606807D01*
X68943489Y-84599983D01*
X68943491Y-84599980D01*
X69020108Y-84470427D01*
X69024145Y-84463601D01*
X69026555Y-84455308D01*
X69063073Y-84329607D01*
X69070562Y-84303831D01*
X69071296Y-84294516D01*
X69073307Y-84268958D01*
X69073307Y-84268950D01*
X69073500Y-84266502D01*
X69073500Y-83743405D01*
X69074386Y-83728486D01*
X69077762Y-83700173D01*
X69078596Y-83693180D01*
X69074190Y-83651260D01*
X69073500Y-83638089D01*
X69073500Y-83108498D01*
X69070562Y-83071169D01*
X69037055Y-82955837D01*
X69026357Y-82919012D01*
X69026356Y-82919010D01*
X69024145Y-82911399D01*
X68997055Y-82865592D01*
X68943491Y-82775020D01*
X68943488Y-82775016D01*
X68939453Y-82768193D01*
X68821807Y-82650547D01*
X68817998Y-82648294D01*
X68777345Y-82592004D01*
X68773494Y-82521112D01*
X68808582Y-82459391D01*
X68816276Y-82452724D01*
X68821807Y-82449453D01*
X68939453Y-82331807D01*
X68943489Y-82324983D01*
X68943491Y-82324980D01*
X69020108Y-82195427D01*
X69024145Y-82188601D01*
X69070562Y-82028831D01*
X69073500Y-81991502D01*
X69073500Y-81468405D01*
X69074386Y-81453486D01*
X69077762Y-81425173D01*
X69078596Y-81418180D01*
X69074190Y-81376260D01*
X69073500Y-81363089D01*
X69073500Y-80833498D01*
X69070562Y-80796169D01*
X69040190Y-80691628D01*
X69026357Y-80644012D01*
X69026356Y-80644010D01*
X69024145Y-80636399D01*
X68995483Y-80587934D01*
X68943491Y-80500020D01*
X68943488Y-80500016D01*
X68939453Y-80493193D01*
X68821807Y-80375547D01*
X68814983Y-80371511D01*
X68814980Y-80371509D01*
X68685427Y-80294892D01*
X68685428Y-80294892D01*
X68678601Y-80290855D01*
X68670990Y-80288644D01*
X68670988Y-80288643D01*
X68618769Y-80273472D01*
X68518831Y-80244438D01*
X68512426Y-80243934D01*
X68512421Y-80243933D01*
X68483958Y-80241693D01*
X68483950Y-80241693D01*
X68481502Y-80241500D01*
X68161941Y-80241500D01*
X68093820Y-80221498D01*
X68047327Y-80167842D01*
X68037223Y-80097568D01*
X68066717Y-80032988D01*
X68075005Y-80025266D01*
X68074731Y-80024992D01*
X68081081Y-80018642D01*
X68088261Y-80013261D01*
X68175615Y-79896705D01*
X68226745Y-79760316D01*
X68233500Y-79698134D01*
X68233500Y-77401866D01*
X68226745Y-77339684D01*
X68175615Y-77203295D01*
X68088261Y-77086739D01*
X67971705Y-76999385D01*
X67835316Y-76948255D01*
X67773134Y-76941500D01*
X66476866Y-76941500D01*
X66414684Y-76948255D01*
X66278295Y-76999385D01*
X66161739Y-77086739D01*
X66074385Y-77203295D01*
X66023255Y-77339684D01*
X66016500Y-77401866D01*
X66016500Y-78462918D01*
X65996498Y-78531039D01*
X65979595Y-78552013D01*
X65793595Y-78738013D01*
X65731283Y-78772039D01*
X65660468Y-78766974D01*
X65603632Y-78724427D01*
X65578821Y-78657907D01*
X65578500Y-78648918D01*
X65578500Y-68332082D01*
X65598502Y-68263961D01*
X65615405Y-68242987D01*
X66337987Y-67520405D01*
X66400299Y-67486379D01*
X66427082Y-67483500D01*
X66463709Y-67483500D01*
X66531830Y-67503502D01*
X66578323Y-67557158D01*
X66588972Y-67595892D01*
X66593255Y-67635316D01*
X66644385Y-67771705D01*
X66731739Y-67888261D01*
X66848295Y-67975615D01*
X66984684Y-68026745D01*
X67046866Y-68033500D01*
X68843134Y-68033500D01*
X68905316Y-68026745D01*
X68956271Y-68007643D01*
X69027077Y-68002460D01*
X69089446Y-68036381D01*
X69123576Y-68098636D01*
X69126500Y-68125625D01*
X69126500Y-68415500D01*
X69106498Y-68483621D01*
X69052842Y-68530114D01*
X69000500Y-68541500D01*
X66456866Y-68541500D01*
X66394684Y-68548255D01*
X66258295Y-68599385D01*
X66141739Y-68686739D01*
X66054385Y-68803295D01*
X66003255Y-68939684D01*
X65996500Y-69001866D01*
X65996500Y-75498134D01*
X66003255Y-75560316D01*
X66054385Y-75696705D01*
X66141739Y-75813261D01*
X66258295Y-75900615D01*
X66394684Y-75951745D01*
X66456866Y-75958500D01*
X72353134Y-75958500D01*
X72415316Y-75951745D01*
X72551705Y-75900615D01*
X72668261Y-75813261D01*
X72755615Y-75696705D01*
X72806745Y-75560316D01*
X72813500Y-75498134D01*
X72813500Y-69001866D01*
X72806745Y-68939684D01*
X72755615Y-68803295D01*
X72668261Y-68686739D01*
X72551705Y-68599385D01*
X72415316Y-68548255D01*
X72353134Y-68541500D01*
X71969500Y-68541500D01*
X71901379Y-68521498D01*
X71854886Y-68467842D01*
X71843500Y-68415500D01*
X71843500Y-66772856D01*
X71844578Y-66756409D01*
X71846092Y-66744908D01*
X71846529Y-66741590D01*
X71848156Y-66675000D01*
X71843583Y-66619372D01*
X71843500Y-66618043D01*
X71843500Y-66617110D01*
X71840175Y-66577922D01*
X71829852Y-66452361D01*
X71829352Y-66450370D01*
X71828920Y-66445280D01*
X71802748Y-66344444D01*
X71802547Y-66343655D01*
X71776690Y-66240714D01*
X71776690Y-66240713D01*
X71775431Y-66235702D01*
X71773830Y-66232021D01*
X71772828Y-66228675D01*
X71772342Y-66227294D01*
X71771001Y-66222128D01*
X71768810Y-66217263D01*
X71768806Y-66217253D01*
X71728968Y-66128816D01*
X71728301Y-66127309D01*
X71688418Y-66035584D01*
X71688411Y-66035572D01*
X71686354Y-66030840D01*
X71683547Y-66026501D01*
X71681421Y-66022537D01*
X71679254Y-66018138D01*
X71678502Y-66016787D01*
X71676312Y-66011925D01*
X71658086Y-65984852D01*
X71620803Y-65929474D01*
X71619531Y-65927547D01*
X71617817Y-65924898D01*
X71565014Y-65843277D01*
X71561527Y-65839445D01*
X71558378Y-65835356D01*
X71558431Y-65835315D01*
X71551253Y-65826168D01*
X71550538Y-65825105D01*
X71550534Y-65825100D01*
X71547559Y-65820681D01*
X71543874Y-65816818D01*
X71481276Y-65751198D01*
X71479251Y-65749025D01*
X71453730Y-65720977D01*
X71414670Y-65678051D01*
X71408756Y-65673380D01*
X71395689Y-65661479D01*
X71392111Y-65657729D01*
X71392106Y-65657725D01*
X71388424Y-65653865D01*
X71338953Y-65617057D01*
X71314270Y-65598692D01*
X71311391Y-65596485D01*
X71243421Y-65542806D01*
X71239359Y-65539598D01*
X71232175Y-65535632D01*
X71229338Y-65534066D01*
X71215023Y-65524850D01*
X71207740Y-65519432D01*
X71203458Y-65516246D01*
X71198703Y-65513828D01*
X71198699Y-65513826D01*
X71124320Y-65476010D01*
X71120530Y-65474001D01*
X71048319Y-65434138D01*
X71048312Y-65434135D01*
X71043789Y-65431638D01*
X71038914Y-65429912D01*
X71038910Y-65429910D01*
X71029301Y-65426507D01*
X71014255Y-65420050D01*
X71002715Y-65414183D01*
X71002713Y-65414182D01*
X70997949Y-65411760D01*
X70916721Y-65386538D01*
X70912028Y-65384979D01*
X70838084Y-65358794D01*
X70838081Y-65358793D01*
X70833212Y-65357069D01*
X70814225Y-65353687D01*
X70798972Y-65349975D01*
X70782873Y-65344976D01*
X70782866Y-65344975D01*
X70777773Y-65343393D01*
X70772492Y-65342693D01*
X70772487Y-65342692D01*
X70697164Y-65332709D01*
X70691646Y-65331852D01*
X70613284Y-65317894D01*
X70598629Y-65317715D01*
X70590083Y-65317610D01*
X70575073Y-65316527D01*
X70563893Y-65315046D01*
X70549226Y-65313102D01*
X70543897Y-65313302D01*
X70543895Y-65313302D01*
X70503479Y-65314819D01*
X70471792Y-65316009D01*
X70465535Y-65316089D01*
X70434693Y-65315712D01*
X70395080Y-65315228D01*
X70395078Y-65315228D01*
X70389911Y-65315165D01*
X70363097Y-65319268D01*
X70348780Y-65320627D01*
X70318842Y-65321751D01*
X70313628Y-65322845D01*
X70313620Y-65322846D01*
X70246711Y-65336885D01*
X70239897Y-65338120D01*
X70220299Y-65341119D01*
X70169091Y-65348955D01*
X70154601Y-65353691D01*
X70139603Y-65358593D01*
X70126330Y-65362143D01*
X70093209Y-65369093D01*
X70088250Y-65371051D01*
X70088248Y-65371052D01*
X70028219Y-65394759D01*
X70021082Y-65397332D01*
X69961675Y-65416749D01*
X69961673Y-65416750D01*
X69956756Y-65418357D01*
X69952172Y-65420743D01*
X69952168Y-65420745D01*
X69925760Y-65434493D01*
X69913858Y-65439923D01*
X69878779Y-65453776D01*
X69853824Y-65468919D01*
X69822318Y-65488037D01*
X69815138Y-65492079D01*
X69758607Y-65521507D01*
X69754473Y-65524611D01*
X69727533Y-65544838D01*
X69717247Y-65551796D01*
X69681683Y-65573377D01*
X69677653Y-65576874D01*
X69634707Y-65614140D01*
X69627787Y-65619729D01*
X69579965Y-65655635D01*
X69576393Y-65659373D01*
X69550408Y-65686564D01*
X69541896Y-65694677D01*
X69507555Y-65724477D01*
X69504167Y-65728609D01*
X69504061Y-65728738D01*
X69504002Y-65728778D01*
X69500452Y-65732429D01*
X69499708Y-65731706D01*
X69445401Y-65768733D01*
X69374431Y-65770664D01*
X69313683Y-65733920D01*
X69288645Y-65693077D01*
X69255246Y-65603987D01*
X69245615Y-65578295D01*
X69158261Y-65461739D01*
X69041705Y-65374385D01*
X68905316Y-65323255D01*
X68843134Y-65316500D01*
X67046866Y-65316500D01*
X66984684Y-65323255D01*
X66848295Y-65374385D01*
X66731739Y-65461739D01*
X66644385Y-65578295D01*
X66593255Y-65714684D01*
X66590297Y-65741914D01*
X66588972Y-65754108D01*
X66561730Y-65819670D01*
X66503366Y-65860096D01*
X66463709Y-65866500D01*
X66049165Y-65866500D01*
X66047846Y-65866493D01*
X65957779Y-65865550D01*
X65950901Y-65867037D01*
X65950891Y-65867038D01*
X65915413Y-65874709D01*
X65902838Y-65876769D01*
X65859745Y-65881603D01*
X65828074Y-65892632D01*
X65813265Y-65896795D01*
X65787371Y-65902393D01*
X65787368Y-65902394D01*
X65780490Y-65903881D01*
X65741187Y-65922208D01*
X65729411Y-65926990D01*
X65688448Y-65941255D01*
X65682473Y-65944989D01*
X65682470Y-65944990D01*
X65660005Y-65959027D01*
X65646488Y-65966366D01*
X65622481Y-65977561D01*
X65622477Y-65977563D01*
X65616098Y-65980538D01*
X65595943Y-65996172D01*
X65581844Y-66007108D01*
X65571395Y-66014397D01*
X65534624Y-66037374D01*
X65529625Y-66042339D01*
X65529623Y-66042340D01*
X65505815Y-66065983D01*
X65505192Y-66066566D01*
X65504530Y-66067079D01*
X65478681Y-66092928D01*
X65442542Y-66128816D01*
X65405918Y-66165185D01*
X65405259Y-66166223D01*
X65404153Y-66167456D01*
X64204843Y-67366765D01*
X64203906Y-67367693D01*
X64139493Y-67430771D01*
X64116002Y-67467221D01*
X64108583Y-67477546D01*
X64081524Y-67511443D01*
X64078459Y-67517784D01*
X64078458Y-67517785D01*
X64066928Y-67541637D01*
X64059399Y-67555054D01*
X64041235Y-67583238D01*
X64038827Y-67589855D01*
X64038824Y-67589860D01*
X64026408Y-67623973D01*
X64021447Y-67635716D01*
X64005646Y-67668403D01*
X64005644Y-67668408D01*
X64002579Y-67674749D01*
X64000996Y-67681607D01*
X64000995Y-67681609D01*
X63995035Y-67707426D01*
X63990668Y-67722169D01*
X63979197Y-67753685D01*
X63978314Y-67760675D01*
X63978312Y-67760683D01*
X63973762Y-67796701D01*
X63971526Y-67809253D01*
X63961776Y-67851485D01*
X63961751Y-67858531D01*
X63961751Y-67858534D01*
X63961634Y-67892056D01*
X63961605Y-67892938D01*
X63961500Y-67893769D01*
X63961500Y-67930419D01*
X63961499Y-67930859D01*
X63961362Y-67970229D01*
X63961143Y-68032870D01*
X63961411Y-68034070D01*
X63961500Y-68035707D01*
X63961500Y-85080786D01*
X63961493Y-85082106D01*
X63960549Y-85172221D01*
X63500000Y-85172221D01*
X63500000Y-64261000D01*
X63520002Y-64192879D01*
X63573658Y-64146386D01*
X63626000Y-64135000D01*
X74804000Y-64135000D01*
X74872121Y-64155002D01*
G37*
%TD.AperFunction*%
%TA.AperFunction,Conductor*%
G36*
X71165617Y-84202485D02*
G01*
X71186667Y-84215461D01*
X71186670Y-84215462D01*
X71192899Y-84219302D01*
X71355243Y-84273149D01*
X71362080Y-84273849D01*
X71362082Y-84273850D01*
X71403401Y-84278083D01*
X71456268Y-84283500D01*
X71517918Y-84283500D01*
X71586039Y-84303502D01*
X71607013Y-84320405D01*
X72259106Y-84972498D01*
X72293132Y-85034810D01*
X72296011Y-85061593D01*
X72296011Y-85567587D01*
X72276009Y-85635708D01*
X72222353Y-85682201D01*
X72152079Y-85692305D01*
X72127951Y-85686360D01*
X72107959Y-85679280D01*
X72097988Y-85676646D01*
X72026837Y-85663972D01*
X72013540Y-85665432D01*
X72009000Y-85679989D01*
X72009000Y-87123000D01*
X71988998Y-87191121D01*
X71935342Y-87237614D01*
X71883000Y-87249000D01*
X71627000Y-87249000D01*
X71558879Y-87228998D01*
X71512386Y-87175342D01*
X71501000Y-87123000D01*
X71501000Y-85678102D01*
X71497082Y-85664758D01*
X71482806Y-85662771D01*
X71444324Y-85668660D01*
X71434288Y-85671051D01*
X71231868Y-85737212D01*
X71222364Y-85741207D01*
X71157681Y-85774879D01*
X71088021Y-85788592D01*
X71022006Y-85762467D01*
X70980594Y-85704799D01*
X70973500Y-85663116D01*
X70973500Y-84309744D01*
X70993502Y-84241623D01*
X71047158Y-84195130D01*
X71117432Y-84185026D01*
X71165617Y-84202485D01*
G37*
%TD.AperFunction*%
%TD*%
M02*
