%TF.GenerationSoftware,KiCad,Pcbnew,6.0.2+dfsg-1*%
%TF.CreationDate,2022-12-07T15:13:48-05:00*%
%TF.ProjectId,dragon-lair-board,64726167-6f6e-42d6-9c61-69722d626f61,rev?*%
%TF.SameCoordinates,Original*%
%TF.FileFunction,Copper,L1,Top*%
%TF.FilePolarity,Positive*%
%FSLAX46Y46*%
G04 Gerber Fmt 4.6, Leading zero omitted, Abs format (unit mm)*
G04 Created by KiCad (PCBNEW 6.0.2+dfsg-1) date 2022-12-07 15:13:48*
%MOMM*%
%LPD*%
G01*
G04 APERTURE LIST*
G04 Aperture macros list*
%AMRoundRect*
0 Rectangle with rounded corners*
0 $1 Rounding radius*
0 $2 $3 $4 $5 $6 $7 $8 $9 X,Y pos of 4 corners*
0 Add a 4 corners polygon primitive as box body*
4,1,4,$2,$3,$4,$5,$6,$7,$8,$9,$2,$3,0*
0 Add four circle primitives for the rounded corners*
1,1,$1+$1,$2,$3*
1,1,$1+$1,$4,$5*
1,1,$1+$1,$6,$7*
1,1,$1+$1,$8,$9*
0 Add four rect primitives between the rounded corners*
20,1,$1+$1,$2,$3,$4,$5,0*
20,1,$1+$1,$4,$5,$6,$7,0*
20,1,$1+$1,$6,$7,$8,$9,0*
20,1,$1+$1,$8,$9,$2,$3,0*%
G04 Aperture macros list end*
%TA.AperFunction,ComponentPad*%
%ADD10C,1.651000*%
%TD*%
%TA.AperFunction,SMDPad,CuDef*%
%ADD11RoundRect,0.200000X0.275000X-0.200000X0.275000X0.200000X-0.275000X0.200000X-0.275000X-0.200000X0*%
%TD*%
%TA.AperFunction,SMDPad,CuDef*%
%ADD12R,0.800000X4.600000*%
%TD*%
%TA.AperFunction,SMDPad,CuDef*%
%ADD13R,10.800000X9.400000*%
%TD*%
%TA.AperFunction,SMDPad,CuDef*%
%ADD14RoundRect,0.200000X0.200000X0.275000X-0.200000X0.275000X-0.200000X-0.275000X0.200000X-0.275000X0*%
%TD*%
%TA.AperFunction,SMDPad,CuDef*%
%ADD15RoundRect,0.200000X-0.275000X0.200000X-0.275000X-0.200000X0.275000X-0.200000X0.275000X0.200000X0*%
%TD*%
%TA.AperFunction,ComponentPad*%
%ADD16RoundRect,0.250000X-0.600000X-0.750000X0.600000X-0.750000X0.600000X0.750000X-0.600000X0.750000X0*%
%TD*%
%TA.AperFunction,ComponentPad*%
%ADD17O,1.700000X2.000000*%
%TD*%
%TA.AperFunction,SMDPad,CuDef*%
%ADD18RoundRect,0.225000X-0.250000X0.225000X-0.250000X-0.225000X0.250000X-0.225000X0.250000X0.225000X0*%
%TD*%
%TA.AperFunction,SMDPad,CuDef*%
%ADD19RoundRect,0.225000X0.250000X-0.225000X0.250000X0.225000X-0.250000X0.225000X-0.250000X-0.225000X0*%
%TD*%
%TA.AperFunction,ComponentPad*%
%ADD20O,3.200000X1.600000*%
%TD*%
%TA.AperFunction,ComponentPad*%
%ADD21C,5.600000*%
%TD*%
%TA.AperFunction,SMDPad,CuDef*%
%ADD22RoundRect,0.250000X1.500000X0.550000X-1.500000X0.550000X-1.500000X-0.550000X1.500000X-0.550000X0*%
%TD*%
%TA.AperFunction,ComponentPad*%
%ADD23C,1.524000*%
%TD*%
%TA.AperFunction,SMDPad,CuDef*%
%ADD24RoundRect,0.400000X-1.000000X0.400000X-1.000000X-0.400000X1.000000X-0.400000X1.000000X0.400000X0*%
%TD*%
%TA.AperFunction,ComponentPad*%
%ADD25C,1.303000*%
%TD*%
%TA.AperFunction,SMDPad,CuDef*%
%ADD26RoundRect,0.200000X-0.200000X-0.275000X0.200000X-0.275000X0.200000X0.275000X-0.200000X0.275000X0*%
%TD*%
%TA.AperFunction,ComponentPad*%
%ADD27RoundRect,0.250000X-0.600000X-0.725000X0.600000X-0.725000X0.600000X0.725000X-0.600000X0.725000X0*%
%TD*%
%TA.AperFunction,ComponentPad*%
%ADD28O,1.700000X1.950000*%
%TD*%
%TA.AperFunction,ComponentPad*%
%ADD29C,3.500000*%
%TD*%
%TA.AperFunction,ComponentPad*%
%ADD30R,1.524000X1.524000*%
%TD*%
%TA.AperFunction,ComponentPad*%
%ADD31C,2.500000*%
%TD*%
%TA.AperFunction,ComponentPad*%
%ADD32O,7.000000X3.000000*%
%TD*%
%TA.AperFunction,SMDPad,CuDef*%
%ADD33RoundRect,0.100000X-0.637500X-0.100000X0.637500X-0.100000X0.637500X0.100000X-0.637500X0.100000X0*%
%TD*%
%TA.AperFunction,SMDPad,CuDef*%
%ADD34RoundRect,0.225000X0.225000X0.250000X-0.225000X0.250000X-0.225000X-0.250000X0.225000X-0.250000X0*%
%TD*%
%TA.AperFunction,ComponentPad*%
%ADD35R,1.508000X1.508000*%
%TD*%
%TA.AperFunction,ComponentPad*%
%ADD36C,1.508000*%
%TD*%
%TA.AperFunction,ViaPad*%
%ADD37C,0.800000*%
%TD*%
%TA.AperFunction,Conductor*%
%ADD38C,0.508000*%
%TD*%
%TA.AperFunction,Conductor*%
%ADD39C,0.400000*%
%TD*%
G04 APERTURE END LIST*
D10*
%TO.P,BZ1,1,-*%
%TO.N,BUZZER*%
X77470000Y-76320000D03*
%TO.P,BZ1,2,+*%
%TO.N,GND*%
X77470000Y-91320000D03*
%TD*%
D11*
%TO.P,R3,1*%
%TO.N,GND*%
X97790000Y-71500000D03*
%TO.P,R3,2*%
%TO.N,ON_B*%
X97790000Y-69850000D03*
%TD*%
D12*
%TO.P,Q1,1*%
%TO.N,GND*%
X139700000Y-93720000D03*
%TO.P,Q1,2,IN*%
%TO.N,IN_A*%
X138430000Y-93720000D03*
%TO.P,Q1,3,INH*%
%TO.N,INH_A*%
X137160000Y-93720000D03*
%TO.P,Q1,4*%
%TO.N,MOTOR_A*%
X135890000Y-93720000D03*
%TO.P,Q1,5,SR*%
%TO.N,Net-(C12-Pad1)*%
X134620000Y-93720000D03*
%TO.P,Q1,6,IS*%
%TO.N,Net-(C11-Pad1)*%
X133350000Y-93720000D03*
%TO.P,Q1,7*%
%TO.N,+12V*%
X132080000Y-93720000D03*
D13*
%TO.P,Q1,8*%
%TO.N,MOTOR_A*%
X135890000Y-102870000D03*
%TD*%
D14*
%TO.P,R14,1*%
%TO.N,INH_B*%
X110680000Y-70485000D03*
%TO.P,R14,2*%
%TO.N,Net-(R14-Pad2)*%
X109030000Y-70485000D03*
%TD*%
D15*
%TO.P,R2,1*%
%TO.N,SAFE_TO_MOVE_2*%
X63500000Y-109855000D03*
%TO.P,R2,2*%
%TO.N,GND*%
X63500000Y-111505000D03*
%TD*%
D16*
%TO.P,J5,1,Pin_1*%
%TO.N,GND*%
X182880000Y-109220000D03*
D17*
%TO.P,J5,2,Pin_2*%
%TO.N,OPEN*%
X185380000Y-109220000D03*
%TD*%
D16*
%TO.P,J4,1,Pin_1*%
%TO.N,GND*%
X182880000Y-100330000D03*
D17*
%TO.P,J4,2,Pin_2*%
%TO.N,CLOSE*%
X185380000Y-100330000D03*
%TD*%
D18*
%TO.P,C2,1*%
%TO.N,+5V*%
X63500000Y-60960000D03*
%TO.P,C2,2*%
%TO.N,GND*%
X63500000Y-62510000D03*
%TD*%
D11*
%TO.P,R20,1*%
%TO.N,GND*%
X65405000Y-111505000D03*
%TO.P,R20,2*%
%TO.N,SAFE_TO_MOVE_2*%
X65405000Y-109855000D03*
%TD*%
%TO.P,R13,1*%
%TO.N,GND*%
X95885000Y-71500000D03*
%TO.P,R13,2*%
%TO.N,BACKWARD_MOTOR*%
X95885000Y-69850000D03*
%TD*%
D15*
%TO.P,R19,1*%
%TO.N,SAFE_TO_MOVE_2*%
X67310000Y-109855000D03*
%TO.P,R19,2*%
%TO.N,Net-(J7-Pad2)*%
X67310000Y-111505000D03*
%TD*%
D19*
%TO.P,C5,1*%
%TO.N,+12V*%
X108585000Y-88405000D03*
%TO.P,C5,2*%
%TO.N,GND*%
X108585000Y-86855000D03*
%TD*%
D20*
%TO.P,J9,1*%
%TO.N,GND*%
X164872500Y-129530000D03*
%TO.P,J9,2*%
%TO.N,OPEN_LIMIT*%
X162872500Y-127130000D03*
%TO.P,J9,3*%
%TO.N,unconnected-(J9-Pad3)*%
X162872500Y-121630000D03*
%TO.P,J9,4*%
%TO.N,unconnected-(J9-Pad4)*%
X164872500Y-117930000D03*
%TD*%
D21*
%TO.P,H4,1,1*%
%TO.N,unconnected-(H4-Pad1)*%
X193040000Y-127000000D03*
%TD*%
D19*
%TO.P,C9,1*%
%TO.N,MOTOR_A*%
X142875000Y-97930000D03*
%TO.P,C9,2*%
%TO.N,GND*%
X142875000Y-96380000D03*
%TD*%
D21*
%TO.P,H2,1,1*%
%TO.N,unconnected-(H2-Pad1)*%
X33020000Y-127000000D03*
%TD*%
D11*
%TO.P,R16,1*%
%TO.N,Net-(C12-Pad1)*%
X137160000Y-88455000D03*
%TO.P,R16,2*%
%TO.N,GND*%
X137160000Y-86805000D03*
%TD*%
D16*
%TO.P,J2,1,Pin_1*%
%TO.N,GND*%
X153035000Y-110490000D03*
D17*
%TO.P,J2,2,Pin_2*%
%TO.N,CLOSE_LIMIT*%
X155535000Y-110490000D03*
%TD*%
D22*
%TO.P,C4,1*%
%TO.N,+12V*%
X99220000Y-76835000D03*
%TO.P,C4,2*%
%TO.N,GND*%
X93820000Y-76835000D03*
%TD*%
D19*
%TO.P,C14,1*%
%TO.N,Net-(C14-Pad1)*%
X110490000Y-88405000D03*
%TO.P,C14,2*%
%TO.N,GND*%
X110490000Y-86855000D03*
%TD*%
D15*
%TO.P,R21,1*%
%TO.N,SAFE_TO_MOVE_1*%
X67310000Y-113030000D03*
%TO.P,R21,2*%
%TO.N,Net-(J8-Pad2)*%
X67310000Y-114680000D03*
%TD*%
D21*
%TO.P,H3,1,1*%
%TO.N,unconnected-(H3-Pad1)*%
X33020000Y-55880000D03*
%TD*%
D23*
%TO.P,RV1,1,1*%
%TO.N,ADC_REF*%
X87725000Y-62325000D03*
%TO.P,RV1,2,2*%
%TO.N,MAX_SPEED*%
X90265000Y-64865000D03*
%TO.P,RV1,3,3*%
%TO.N,GND*%
X92805000Y-62325000D03*
%TD*%
D21*
%TO.P,H1,1,1*%
%TO.N,unconnected-(H1-Pad1)*%
X193040000Y-55880000D03*
%TD*%
D11*
%TO.P,R18,1*%
%TO.N,Net-(C14-Pad1)*%
X112395000Y-88455000D03*
%TO.P,R18,2*%
%TO.N,GND*%
X112395000Y-86805000D03*
%TD*%
D24*
%TO.P,D1,1,K*%
%TO.N,Net-(D1-Pad1)*%
X80010000Y-60960000D03*
%TO.P,D1,2,A*%
%TO.N,+12V*%
X80010000Y-64760000D03*
%TD*%
D14*
%TO.P,R9,1*%
%TO.N,INH_A*%
X110680000Y-66675000D03*
%TO.P,R9,2*%
%TO.N,Net-(R9-Pad2)*%
X109030000Y-66675000D03*
%TD*%
D11*
%TO.P,R22,1*%
%TO.N,GND*%
X65405000Y-114680000D03*
%TO.P,R22,2*%
%TO.N,SAFE_TO_MOVE_1*%
X65405000Y-113030000D03*
%TD*%
D20*
%TO.P,J10,1*%
%TO.N,GND*%
X154712500Y-129530000D03*
%TO.P,J10,2*%
%TO.N,CLOSE_LIMIT*%
X152712500Y-127130000D03*
%TO.P,J10,3*%
%TO.N,unconnected-(J10-Pad3)*%
X152712500Y-121630000D03*
%TO.P,J10,4*%
%TO.N,unconnected-(J10-Pad4)*%
X154712500Y-117930000D03*
%TD*%
D11*
%TO.P,R15,1*%
%TO.N,Net-(C11-Pad1)*%
X135255000Y-88455000D03*
%TO.P,R15,2*%
%TO.N,GND*%
X135255000Y-86805000D03*
%TD*%
D14*
%TO.P,R12,1*%
%TO.N,IN_B*%
X110680000Y-68580000D03*
%TO.P,R12,2*%
%TO.N,Net-(R12-Pad2)*%
X109030000Y-68580000D03*
%TD*%
D19*
%TO.P,C1,1*%
%TO.N,+12V*%
X83185000Y-64910000D03*
%TO.P,C1,2*%
%TO.N,GND*%
X83185000Y-63360000D03*
%TD*%
D11*
%TO.P,R6,1*%
%TO.N,Net-(J8-Pad3)*%
X83185000Y-114680000D03*
%TO.P,R6,2*%
%TO.N,+12V*%
X83185000Y-113030000D03*
%TD*%
D25*
%TO.P,J15,1,1*%
%TO.N,GND*%
X173990000Y-121920000D03*
%TO.P,J15,2,2*%
%TO.N,ABORT*%
X175260000Y-119380000D03*
%TO.P,J15,3,3*%
%TO.N,TOGGLE_OPEN*%
X176530000Y-121920000D03*
%TO.P,J15,4,4*%
%TO.N,TOGGLE_CLOSE*%
X177800000Y-119380000D03*
%TO.P,J15,5,5*%
%TO.N,CLOSE*%
X179070000Y-121920000D03*
%TO.P,J15,6,6*%
%TO.N,OPEN*%
X180340000Y-119380000D03*
%TO.P,J15,7,7*%
%TO.N,+12V*%
X181610000Y-121920000D03*
%TO.P,J15,8,8*%
X182880000Y-119380000D03*
%TD*%
D19*
%TO.P,C6,1*%
%TO.N,+12V*%
X131445000Y-88405000D03*
%TO.P,C6,2*%
%TO.N,GND*%
X131445000Y-86855000D03*
%TD*%
D16*
%TO.P,J6,1,Pin_1*%
%TO.N,GND*%
X171450000Y-109220000D03*
D17*
%TO.P,J6,2,Pin_2*%
%TO.N,ABORT*%
X173950000Y-109220000D03*
%TD*%
D26*
%TO.P,R11,1*%
%TO.N,Net-(R11-Pad1)*%
X65215000Y-69850000D03*
%TO.P,R11,2*%
%TO.N,BUZZER*%
X66865000Y-69850000D03*
%TD*%
D19*
%TO.P,C12,1*%
%TO.N,Net-(C12-Pad1)*%
X139065000Y-88405000D03*
%TO.P,C12,2*%
%TO.N,GND*%
X139065000Y-86855000D03*
%TD*%
D11*
%TO.P,R5,1*%
%TO.N,Net-(J7-Pad3)*%
X85090000Y-114680000D03*
%TO.P,R5,2*%
%TO.N,+12V*%
X85090000Y-113030000D03*
%TD*%
D27*
%TO.P,J1,1,Pin_1*%
%TO.N,TOGGLE_OPEN*%
X171450000Y-100330000D03*
D28*
%TO.P,J1,2,Pin_2*%
%TO.N,GND*%
X173950000Y-100330000D03*
%TO.P,J1,3,Pin_3*%
%TO.N,TOGGLE_CLOSE*%
X176450000Y-100330000D03*
%TD*%
D11*
%TO.P,R10,1*%
%TO.N,GND*%
X98425000Y-67500000D03*
%TO.P,R10,2*%
%TO.N,ON_A*%
X98425000Y-65850000D03*
%TD*%
D16*
%TO.P,J3,1,Pin_1*%
%TO.N,GND*%
X161925000Y-110490000D03*
D17*
%TO.P,J3,2,Pin_2*%
%TO.N,OPEN_LIMIT*%
X164425000Y-110490000D03*
%TD*%
D18*
%TO.P,C7,1*%
%TO.N,+12V*%
X128905000Y-96380000D03*
%TO.P,C7,2*%
%TO.N,MOTOR_A*%
X128905000Y-97930000D03*
%TD*%
D11*
%TO.P,R17,1*%
%TO.N,Net-(C13-Pad1)*%
X114300000Y-88455000D03*
%TO.P,R17,2*%
%TO.N,GND*%
X114300000Y-86805000D03*
%TD*%
D20*
%TO.P,J8,1*%
%TO.N,GND*%
X68987500Y-129530000D03*
%TO.P,J8,2*%
%TO.N,Net-(J8-Pad2)*%
X66987500Y-127130000D03*
%TO.P,J8,3*%
%TO.N,Net-(J8-Pad3)*%
X66987500Y-121630000D03*
%TO.P,J8,4*%
X68987500Y-117930000D03*
%TD*%
D29*
%TO.P,F1,1*%
%TO.N,12V_UNFUSED*%
X100330000Y-104140000D03*
X100330000Y-99060000D03*
%TO.P,F1,2*%
%TO.N,+12V*%
X100330000Y-95000000D03*
X100330000Y-89920000D03*
%TD*%
D19*
%TO.P,C11,1*%
%TO.N,Net-(C11-Pad1)*%
X133350000Y-88405000D03*
%TO.P,C11,2*%
%TO.N,GND*%
X133350000Y-86855000D03*
%TD*%
D12*
%TO.P,Q2,1*%
%TO.N,GND*%
X116840000Y-93720000D03*
%TO.P,Q2,2,IN*%
%TO.N,IN_B*%
X115570000Y-93720000D03*
%TO.P,Q2,3,INH*%
%TO.N,INH_B*%
X114300000Y-93720000D03*
%TO.P,Q2,4*%
%TO.N,MOTOR_B*%
X113030000Y-93720000D03*
%TO.P,Q2,5,SR*%
%TO.N,Net-(C13-Pad1)*%
X111760000Y-93720000D03*
%TO.P,Q2,6,IS*%
%TO.N,Net-(C14-Pad1)*%
X110490000Y-93720000D03*
%TO.P,Q2,7*%
%TO.N,+12V*%
X109220000Y-93720000D03*
D13*
%TO.P,Q2,8*%
%TO.N,MOTOR_B*%
X113030000Y-102870000D03*
%TD*%
D15*
%TO.P,R8,1*%
%TO.N,GND*%
X98425000Y-62675000D03*
%TO.P,R8,2*%
%TO.N,FOREWARD_MOTOR*%
X98425000Y-64325000D03*
%TD*%
D14*
%TO.P,R7,1*%
%TO.N,IN_A*%
X110680000Y-64770000D03*
%TO.P,R7,2*%
%TO.N,Net-(R7-Pad2)*%
X109030000Y-64770000D03*
%TD*%
D23*
%TO.P,U1,1,GP0*%
%TO.N,OPEN_LIMIT*%
X41275000Y-58420000D03*
%TO.P,U1,2,GP1*%
%TO.N,CLOSE_LIMIT*%
X41275000Y-60960000D03*
D30*
%TO.P,U1,3,GND*%
%TO.N,GND*%
X41275000Y-63500000D03*
D23*
%TO.P,U1,4,GP2*%
%TO.N,Net-(R11-Pad1)*%
X41275000Y-66040000D03*
%TO.P,U1,5,GP3*%
%TO.N,unconnected-(U1-Pad5)*%
X41275000Y-68580000D03*
%TO.P,U1,6,GP4*%
%TO.N,FOREWARD_MOTOR*%
X41275000Y-71120000D03*
%TO.P,U1,7,GP5*%
%TO.N,ON_A*%
X41275000Y-73660000D03*
D30*
%TO.P,U1,8,GND*%
%TO.N,GND*%
X41275000Y-76200000D03*
D23*
%TO.P,U1,9,GP6*%
%TO.N,BACKWARD_MOTOR*%
X41275000Y-78740000D03*
%TO.P,U1,10,GP7*%
%TO.N,ON_B*%
X41275000Y-81280000D03*
%TO.P,U1,11,GP8*%
%TO.N,ABORT*%
X41275000Y-83820000D03*
%TO.P,U1,12,GP9*%
%TO.N,TOGGLE_OPEN*%
X41275000Y-86360000D03*
D30*
%TO.P,U1,13,GND*%
%TO.N,GND*%
X41275000Y-88900000D03*
D23*
%TO.P,U1,14,GP10*%
%TO.N,TOGGLE_CLOSE*%
X41275000Y-91440000D03*
%TO.P,U1,15,GP11*%
%TO.N,CLOSE*%
X41275000Y-93980000D03*
%TO.P,U1,16,GP12*%
%TO.N,OPEN*%
X41275000Y-96520000D03*
%TO.P,U1,17,GP13*%
%TO.N,unconnected-(U1-Pad17)*%
X41275000Y-99060000D03*
D30*
%TO.P,U1,18,GND*%
%TO.N,GND*%
X41275000Y-101600000D03*
D23*
%TO.P,U1,19,GP14*%
%TO.N,SAFE_TO_MOVE_2*%
X41275000Y-104140000D03*
%TO.P,U1,20,GP15*%
%TO.N,SAFE_TO_MOVE_1*%
X41275000Y-106680000D03*
%TO.P,U1,21,GP16*%
%TO.N,unconnected-(U1-Pad21)*%
X59055000Y-106680000D03*
%TO.P,U1,22,GP17*%
%TO.N,unconnected-(U1-Pad22)*%
X59055000Y-104140000D03*
D30*
%TO.P,U1,23,GND*%
%TO.N,GND*%
X59055000Y-101600000D03*
D23*
%TO.P,U1,24,GP18*%
%TO.N,unconnected-(U1-Pad24)*%
X59055000Y-99060000D03*
%TO.P,U1,25,GP19*%
%TO.N,unconnected-(U1-Pad25)*%
X59055000Y-96520000D03*
%TO.P,U1,26,GP20*%
%TO.N,unconnected-(U1-Pad26)*%
X59055000Y-93980000D03*
%TO.P,U1,27,GP21*%
%TO.N,unconnected-(U1-Pad27)*%
X59055000Y-91440000D03*
D30*
%TO.P,U1,28,GND*%
%TO.N,GND*%
X59055000Y-88900000D03*
D23*
%TO.P,U1,29,GP22*%
%TO.N,unconnected-(U1-Pad29)*%
X59055000Y-86360000D03*
%TO.P,U1,30,RUN*%
%TO.N,unconnected-(U1-Pad30)*%
X59055000Y-83820000D03*
%TO.P,U1,31,GP26*%
%TO.N,unconnected-(U1-Pad31)*%
X59055000Y-81280000D03*
%TO.P,U1,32,GP27*%
%TO.N,unconnected-(U1-Pad32)*%
X59055000Y-78740000D03*
D30*
%TO.P,U1,33,GND*%
%TO.N,GND*%
X59055000Y-76200000D03*
D23*
%TO.P,U1,34,GP28*%
%TO.N,MAX_SPEED*%
X59055000Y-73660000D03*
%TO.P,U1,35,ADC_REF*%
%TO.N,ADC_REF*%
X59055000Y-71120000D03*
%TO.P,U1,36,3V3*%
%TO.N,+3.3V*%
X59055000Y-68580000D03*
%TO.P,U1,37,3V3_EN*%
%TO.N,unconnected-(U1-Pad37)*%
X59055000Y-66040000D03*
D30*
%TO.P,U1,38,GND*%
%TO.N,GND*%
X59055000Y-63500000D03*
D23*
%TO.P,U1,39,VSYS*%
%TO.N,+5V*%
X59055000Y-60960000D03*
%TO.P,U1,40,VBUS*%
%TO.N,unconnected-(U1-Pad40)*%
X59055000Y-58420000D03*
%TD*%
D19*
%TO.P,C13,1*%
%TO.N,Net-(C13-Pad1)*%
X116205000Y-88405000D03*
%TO.P,C13,2*%
%TO.N,GND*%
X116205000Y-86855000D03*
%TD*%
%TO.P,C10,1*%
%TO.N,MOTOR_B*%
X120015000Y-97930000D03*
%TO.P,C10,2*%
%TO.N,GND*%
X120015000Y-96380000D03*
%TD*%
D31*
%TO.P,J11,*%
%TO.N,*%
X103846000Y-128838000D03*
X89114000Y-128838000D03*
D32*
%TO.P,J11,1,+*%
%TO.N,12V_UNFUSED*%
X100417000Y-110550000D03*
%TO.P,J11,2,-*%
%TO.N,GND*%
X92416000Y-110550000D03*
%TD*%
D33*
%TO.P,U7,1,1OE*%
%TO.N,GND*%
X100642500Y-64385000D03*
%TO.P,U7,2,1A1*%
%TO.N,FOREWARD_MOTOR*%
X100642500Y-65035000D03*
%TO.P,U7,3,2Y4*%
%TO.N,unconnected-(U7-Pad3)*%
X100642500Y-65685000D03*
%TO.P,U7,4,1A2*%
%TO.N,ON_A*%
X100642500Y-66335000D03*
%TO.P,U7,5,2Y3*%
%TO.N,unconnected-(U7-Pad5)*%
X100642500Y-66985000D03*
%TO.P,U7,6,1A3*%
%TO.N,BACKWARD_MOTOR*%
X100642500Y-67635000D03*
%TO.P,U7,7,2Y2*%
%TO.N,unconnected-(U7-Pad7)*%
X100642500Y-68285000D03*
%TO.P,U7,8,1A4*%
%TO.N,ON_B*%
X100642500Y-68935000D03*
%TO.P,U7,9,2Y1*%
%TO.N,unconnected-(U7-Pad9)*%
X100642500Y-69585000D03*
%TO.P,U7,10,GND*%
%TO.N,GND*%
X100642500Y-70235000D03*
%TO.P,U7,11,2A1*%
%TO.N,unconnected-(U7-Pad11)*%
X106367500Y-70235000D03*
%TO.P,U7,12,1Y4*%
%TO.N,Net-(R14-Pad2)*%
X106367500Y-69585000D03*
%TO.P,U7,13,2A2*%
%TO.N,unconnected-(U7-Pad13)*%
X106367500Y-68935000D03*
%TO.P,U7,14,1Y3*%
%TO.N,Net-(R12-Pad2)*%
X106367500Y-68285000D03*
%TO.P,U7,15,2A3*%
%TO.N,unconnected-(U7-Pad15)*%
X106367500Y-67635000D03*
%TO.P,U7,16,1Y2*%
%TO.N,Net-(R9-Pad2)*%
X106367500Y-66985000D03*
%TO.P,U7,17,2A4*%
%TO.N,unconnected-(U7-Pad17)*%
X106367500Y-66335000D03*
%TO.P,U7,18,1Y1*%
%TO.N,Net-(R7-Pad2)*%
X106367500Y-65685000D03*
%TO.P,U7,19,2OE*%
%TO.N,GND*%
X106367500Y-65035000D03*
%TO.P,U7,20,VCC*%
%TO.N,+3.3V*%
X106367500Y-64385000D03*
%TD*%
D31*
%TO.P,J13,*%
%TO.N,*%
X131786000Y-128838000D03*
X117054000Y-128838000D03*
D32*
%TO.P,J13,1,+*%
%TO.N,MOTOR_A*%
X128357000Y-110550000D03*
%TO.P,J13,2,-*%
%TO.N,MOTOR_B*%
X120356000Y-110550000D03*
%TD*%
D15*
%TO.P,R1,1*%
%TO.N,SAFE_TO_MOVE_1*%
X63500000Y-113030000D03*
%TO.P,R1,2*%
%TO.N,GND*%
X63500000Y-114680000D03*
%TD*%
D34*
%TO.P,C3,1*%
%TO.N,+3.3V*%
X104280000Y-62865000D03*
%TO.P,C3,2*%
%TO.N,GND*%
X102730000Y-62865000D03*
%TD*%
D18*
%TO.P,C8,1*%
%TO.N,+12V*%
X106045000Y-96380000D03*
%TO.P,C8,2*%
%TO.N,MOTOR_B*%
X106045000Y-97930000D03*
%TD*%
D20*
%TO.P,J7,1*%
%TO.N,GND*%
X79147500Y-129530000D03*
%TO.P,J7,2*%
%TO.N,Net-(J7-Pad2)*%
X77147500Y-127130000D03*
%TO.P,J7,3*%
%TO.N,Net-(J7-Pad3)*%
X77147500Y-121630000D03*
%TO.P,J7,4*%
X79147500Y-117930000D03*
%TD*%
D35*
%TO.P,PS1,1,+VIN*%
%TO.N,Net-(D1-Pad1)*%
X73660000Y-60960000D03*
D36*
%TO.P,PS1,2,GND/-VOUT*%
%TO.N,GND*%
X71120000Y-60960000D03*
%TO.P,PS1,3,+VOUT/GND*%
%TO.N,+5V*%
X68580000Y-60960000D03*
%TD*%
D37*
%TO.N,GND*%
X96520000Y-67310000D03*
%TO.N,BUZZER*%
X72012500Y-70862500D03*
%TO.N,ON_B*%
X90170000Y-70649500D03*
%TO.N,BACKWARD_MOTOR*%
X89535000Y-69850000D03*
%TO.N,ON_A*%
X93345000Y-66675000D03*
%TO.N,ON_B*%
X86360000Y-73025000D03*
%TO.N,BACKWARD_MOTOR*%
X85254500Y-72390000D03*
%TO.N,ON_A*%
X84455000Y-71755000D03*
%TO.N,Net-(J8-Pad3)*%
X73660000Y-116205000D03*
%TO.N,MOTOR_B*%
X109220000Y-100965000D03*
X109220000Y-106680000D03*
X113030000Y-104775000D03*
X111125000Y-102870000D03*
X116840000Y-106680000D03*
X114935000Y-100965000D03*
X116840000Y-102870000D03*
X114935000Y-104775000D03*
X116840000Y-104775000D03*
X114935000Y-102870000D03*
X109220000Y-104775000D03*
X114935000Y-99060000D03*
X109220000Y-102870000D03*
X111125000Y-100965000D03*
X113030000Y-102870000D03*
X111125000Y-99060000D03*
X109220000Y-99060000D03*
X111125000Y-104775000D03*
X116840000Y-100965000D03*
X116840000Y-99060000D03*
X114935000Y-106680000D03*
X113030000Y-100965000D03*
X111125000Y-106680000D03*
X113030000Y-99060000D03*
X113030000Y-106680000D03*
%TO.N,GND*%
X120015000Y-93345000D03*
X144145000Y-92075000D03*
X118745000Y-90805000D03*
X141605000Y-90805000D03*
X122555000Y-94615000D03*
X121285000Y-92075000D03*
X142875000Y-93345000D03*
X144145000Y-90805000D03*
X141605000Y-93345000D03*
X118745000Y-93345000D03*
X145415000Y-93345000D03*
X141605000Y-92075000D03*
X145415000Y-94615000D03*
X121285000Y-94615000D03*
X141605000Y-95885000D03*
X145415000Y-92075000D03*
X144145000Y-93345000D03*
X122555000Y-90805000D03*
X62230000Y-111125000D03*
X144145000Y-95885000D03*
X120015000Y-92075000D03*
X118745000Y-92075000D03*
X120015000Y-90805000D03*
X84455000Y-62230000D03*
X144145000Y-94615000D03*
X122555000Y-92075000D03*
X121285000Y-95885000D03*
X102730000Y-69850000D03*
X62230000Y-114300000D03*
X118745000Y-94615000D03*
X141605000Y-94615000D03*
X122555000Y-95885000D03*
X120015000Y-94615000D03*
X142875000Y-94615000D03*
X142875000Y-92075000D03*
X145415000Y-95885000D03*
X142875000Y-90805000D03*
X118745000Y-95885000D03*
X121285000Y-90805000D03*
X145415000Y-90805000D03*
X121285000Y-93345000D03*
X66040000Y-62230000D03*
X122555000Y-93345000D03*
%TO.N,MOTOR_A*%
X132080000Y-104775000D03*
X132080000Y-106680000D03*
X133985000Y-102870000D03*
X139700000Y-100965000D03*
X132080000Y-102870000D03*
X135890000Y-99060000D03*
X139700000Y-102870000D03*
X137795000Y-99060000D03*
X135890000Y-100965000D03*
X137795000Y-100965000D03*
X133985000Y-100965000D03*
X133985000Y-99060000D03*
X133985000Y-104775000D03*
X137795000Y-106680000D03*
X133985000Y-106680000D03*
X135890000Y-106680000D03*
X137795000Y-104775000D03*
X139700000Y-106680000D03*
X132080000Y-100965000D03*
X139700000Y-99060000D03*
X132080000Y-99060000D03*
X135890000Y-102870000D03*
X137795000Y-102870000D03*
X135890000Y-104775000D03*
X139700000Y-104775000D03*
%TO.N,FOREWARD_MOTOR*%
X83185000Y-71120000D03*
X88265000Y-66675000D03*
%TO.N,IN_A*%
X138430000Y-90170000D03*
X138430000Y-85090000D03*
%TO.N,INH_A*%
X137160000Y-85090000D03*
X137160000Y-90170000D03*
%TO.N,IN_B*%
X115570000Y-90170000D03*
X115570000Y-74930000D03*
%TO.N,INH_B*%
X114300000Y-74930000D03*
X114300000Y-90170000D03*
%TD*%
D38*
%TO.N,INH_A*%
X137160000Y-85090000D02*
X137160000Y-70485000D01*
X137160000Y-70485000D02*
X133350000Y-66675000D01*
X133350000Y-66675000D02*
X110680000Y-66675000D01*
%TO.N,IN_B*%
X110680000Y-68580000D02*
X115570000Y-73470000D01*
X115570000Y-73470000D02*
X115570000Y-74930000D01*
D39*
%TO.N,GND*%
X98425000Y-67500000D02*
X96710000Y-67500000D01*
X96710000Y-67500000D02*
X96520000Y-67310000D01*
%TO.N,ON_B*%
X90170000Y-70649500D02*
X90170020Y-70649520D01*
X90170020Y-70649520D02*
X96990480Y-70649520D01*
X96990480Y-70649520D02*
X97790000Y-69850000D01*
%TO.N,BACKWARD_MOTOR*%
X95885000Y-69850000D02*
X89535000Y-69850000D01*
%TO.N,ON_B*%
X86360000Y-73025000D02*
X85725000Y-73660000D01*
X85725000Y-73660000D02*
X71123550Y-73660000D01*
X71123550Y-73660000D02*
X62342039Y-82441511D01*
X62342039Y-82441511D02*
X42436511Y-82441511D01*
X42436511Y-82441511D02*
X41275000Y-81280000D01*
%TO.N,BACKWARD_MOTOR*%
X85254500Y-72390000D02*
X84619500Y-73025000D01*
X70910700Y-73025000D02*
X64034189Y-79901511D01*
X84619500Y-73025000D02*
X70910700Y-73025000D01*
X64034189Y-79901511D02*
X42436511Y-79901511D01*
X42436511Y-79901511D02*
X41275000Y-78740000D01*
%TO.N,ON_A*%
X84455000Y-71755000D02*
X83820000Y-72390000D01*
X83820000Y-72390000D02*
X70697850Y-72390000D01*
X70697850Y-72390000D02*
X65509361Y-77578489D01*
X65509361Y-77578489D02*
X45193489Y-77578489D01*
X45193489Y-77578489D02*
X41275000Y-73660000D01*
%TO.N,FOREWARD_MOTOR*%
X83185000Y-71120000D02*
X82550000Y-71755000D01*
X82550000Y-71755000D02*
X70485000Y-71755000D01*
X70485000Y-71755000D02*
X67201511Y-75038489D01*
X67201511Y-75038489D02*
X45193489Y-75038489D01*
X45193489Y-75038489D02*
X41275000Y-71120000D01*
%TO.N,ON_A*%
X93345000Y-66675000D02*
X94170000Y-65850000D01*
X94170000Y-65850000D02*
X98425000Y-65850000D01*
%TO.N,FOREWARD_MOTOR*%
X88265000Y-66675000D02*
X90805000Y-66675000D01*
X90805000Y-66675000D02*
X93155000Y-64325000D01*
X93155000Y-64325000D02*
X98425000Y-64325000D01*
%TO.N,BACKWARD_MOTOR*%
X100642500Y-67635000D02*
X99755978Y-67635000D01*
X99755978Y-67635000D02*
X99055498Y-68335480D01*
X99055498Y-68335480D02*
X97399520Y-68335480D01*
X97399520Y-68335480D02*
X95885000Y-69850000D01*
%TO.N,ON_B*%
X100642500Y-68935000D02*
X98705000Y-68935000D01*
X98705000Y-68935000D02*
X97790000Y-69850000D01*
%TO.N,GND*%
X97790000Y-71500000D02*
X95885000Y-71500000D01*
X100642500Y-70235000D02*
X99055000Y-70235000D01*
X99055000Y-70235000D02*
X97790000Y-71500000D01*
X102730000Y-69850000D02*
X102345000Y-70235000D01*
X102345000Y-70235000D02*
X100642500Y-70235000D01*
D38*
%TO.N,ABORT*%
X173950000Y-109220000D02*
X168910000Y-104180000D01*
X168910000Y-74391168D02*
X150308281Y-55789449D01*
X168910000Y-104180000D02*
X168910000Y-74391168D01*
X150308281Y-55789449D02*
X42186558Y-55789449D01*
X42186558Y-55789449D02*
X40005000Y-57971007D01*
X40005000Y-57971007D02*
X40005000Y-82550000D01*
X40005000Y-82550000D02*
X41275000Y-83820000D01*
%TO.N,TOGGLE_OPEN*%
X171450000Y-100330000D02*
X171450000Y-75930584D01*
X171450000Y-75930584D02*
X150601345Y-55081929D01*
X150601345Y-55081929D02*
X41893494Y-55081929D01*
X41893494Y-55081929D02*
X39297480Y-57677943D01*
X39297480Y-57677943D02*
X39297480Y-84382480D01*
X39297480Y-84382480D02*
X41275000Y-86360000D01*
%TO.N,TOGGLE_CLOSE*%
X176450000Y-100330000D02*
X176450000Y-79930000D01*
X41600430Y-54374409D02*
X38589960Y-57384879D01*
X176450000Y-79930000D02*
X150894409Y-54374409D01*
X38589960Y-88754960D02*
X41275000Y-91440000D01*
X150894409Y-54374409D02*
X41600430Y-54374409D01*
X38589960Y-57384879D02*
X38589960Y-88754960D01*
%TO.N,CLOSE*%
X185380000Y-100330000D02*
X185380000Y-87859416D01*
X185380000Y-87859416D02*
X151187473Y-53666889D01*
X151187473Y-53666889D02*
X41307366Y-53666889D01*
X37882440Y-90587440D02*
X41275000Y-93980000D01*
X41307366Y-53666889D02*
X37882440Y-57091815D01*
X37882440Y-57091815D02*
X37882440Y-90587440D01*
%TO.N,OPEN*%
X185380000Y-109220000D02*
X186683520Y-107916480D01*
X186683520Y-107916480D02*
X186683520Y-88162352D01*
X186683520Y-88162352D02*
X151480537Y-52959369D01*
X151480537Y-52959369D02*
X41014302Y-52959369D01*
X41014302Y-52959369D02*
X37174920Y-56798751D01*
X37174920Y-56798751D02*
X37174920Y-92419920D01*
X37174920Y-92419920D02*
X41275000Y-96520000D01*
%TO.N,+5V*%
X59055000Y-60960000D02*
X63500000Y-60960000D01*
X63500000Y-60960000D02*
X68580000Y-60960000D01*
%TO.N,+3.3V*%
X68164169Y-63083511D02*
X69787511Y-61460169D01*
X70557342Y-59690000D02*
X101105000Y-59690000D01*
X59690000Y-68580000D02*
X65186489Y-63083511D01*
X69787511Y-60459831D02*
X70557342Y-59690000D01*
X59055000Y-68580000D02*
X59690000Y-68580000D01*
X65186489Y-63083511D02*
X68164169Y-63083511D01*
X105796480Y-64381480D02*
X106367500Y-64381480D01*
X69787511Y-61460169D02*
X69787511Y-60459831D01*
X101105000Y-59690000D02*
X104280000Y-62865000D01*
X104280000Y-62865000D02*
X105796480Y-64381480D01*
%TO.N,TOGGLE_CLOSE*%
X176450000Y-100330000D02*
X177800000Y-101680000D01*
X177800000Y-101680000D02*
X177800000Y-119380000D01*
%TO.N,TOGGLE_OPEN*%
X171450000Y-100330000D02*
X176530000Y-105410000D01*
X176530000Y-105410000D02*
X176530000Y-121920000D01*
%TO.N,CLOSE_LIMIT*%
X45030511Y-57204489D02*
X41275000Y-60960000D01*
X155535000Y-110490000D02*
X155535000Y-63017336D01*
X155535000Y-63017336D02*
X149722153Y-57204489D01*
X149722153Y-57204489D02*
X45030511Y-57204489D01*
%TO.N,OPEN_LIMIT*%
X164425000Y-110490000D02*
X164425000Y-70906752D01*
X43198031Y-56496969D02*
X41275000Y-58420000D01*
X164425000Y-70906752D02*
X150015217Y-56496969D01*
X150015217Y-56496969D02*
X43198031Y-56496969D01*
%TO.N,CLOSE*%
X185380000Y-100330000D02*
X179070000Y-106640000D01*
X179070000Y-106640000D02*
X179070000Y-121920000D01*
%TO.N,OPEN*%
X180340000Y-114260000D02*
X185380000Y-109220000D01*
X180340000Y-119380000D02*
X180340000Y-114260000D01*
%TO.N,ABORT*%
X173950000Y-118070000D02*
X175260000Y-119380000D01*
X173950000Y-109220000D02*
X173950000Y-118070000D01*
%TO.N,Net-(J7-Pad2)*%
X67310000Y-111505000D02*
X71827520Y-116022520D01*
X71827520Y-116022520D02*
X71827520Y-121810020D01*
X71827520Y-121810020D02*
X77147500Y-127130000D01*
%TO.N,Net-(J7-Pad3)*%
X77147500Y-121630000D02*
X77147500Y-119930000D01*
X79147500Y-117930000D02*
X81840000Y-117930000D01*
X77147500Y-119930000D02*
X79147500Y-117930000D01*
X81840000Y-117930000D02*
X85090000Y-114680000D01*
%TO.N,Net-(J8-Pad2)*%
X66987500Y-127130000D02*
X64933980Y-125076480D01*
X64933980Y-125076480D02*
X64933980Y-117056020D01*
X64933980Y-117056020D02*
X67310000Y-114680000D01*
%TO.N,Net-(J8-Pad3)*%
X66987500Y-121630000D02*
X66987500Y-119930000D01*
X73660000Y-116205000D02*
X81660000Y-116205000D01*
X66987500Y-119930000D02*
X68987500Y-117930000D01*
X81660000Y-116205000D02*
X83185000Y-114680000D01*
%TO.N,SAFE_TO_MOVE_1*%
X63500000Y-113030000D02*
X65405000Y-113030000D01*
X63500000Y-113030000D02*
X47625000Y-113030000D01*
X65405000Y-113030000D02*
X67310000Y-113030000D01*
X47625000Y-113030000D02*
X41275000Y-106680000D01*
%TO.N,SAFE_TO_MOVE_2*%
X65405000Y-109855000D02*
X67310000Y-109855000D01*
X46990000Y-109855000D02*
X41275000Y-104140000D01*
X63500000Y-109855000D02*
X46990000Y-109855000D01*
X63500000Y-109855000D02*
X65405000Y-109855000D01*
%TO.N,MOTOR_B*%
X113030000Y-93605000D02*
X113030000Y-102755000D01*
%TO.N,BUZZER*%
X66865000Y-69850000D02*
X71000000Y-69850000D01*
X71000000Y-69850000D02*
X72012500Y-70862500D01*
%TO.N,Net-(D1-Pad1)*%
X73660000Y-60960000D02*
X80010000Y-60960000D01*
D39*
%TO.N,GND*%
X102345000Y-70235000D02*
X99945000Y-70235000D01*
D38*
X110490000Y-86855000D02*
X112345000Y-86855000D01*
D39*
X102730000Y-62935000D02*
X101280000Y-64385000D01*
D38*
X112395000Y-86805000D02*
X114300000Y-86805000D01*
X63500000Y-114680000D02*
X62610000Y-114680000D01*
D39*
X102730000Y-62865000D02*
X102730000Y-62935000D01*
D38*
X116155000Y-86805000D02*
X116205000Y-86855000D01*
X131445000Y-86855000D02*
X133350000Y-86855000D01*
X133350000Y-86855000D02*
X135205000Y-86855000D01*
X63500000Y-114680000D02*
X65405000Y-114680000D01*
X62610000Y-114680000D02*
X62230000Y-114300000D01*
D39*
X101280000Y-64385000D02*
X100642500Y-64385000D01*
D38*
X66040000Y-62230000D02*
X63780000Y-62230000D01*
X114300000Y-86805000D02*
X116155000Y-86805000D01*
X139065000Y-86855000D02*
X141605000Y-89395000D01*
X135255000Y-86805000D02*
X137160000Y-86805000D01*
X112345000Y-86855000D02*
X112395000Y-86805000D01*
X116205000Y-86855000D02*
X118745000Y-89395000D01*
X92805000Y-62325000D02*
X98075000Y-62325000D01*
X135205000Y-86855000D02*
X135255000Y-86805000D01*
X62610000Y-111505000D02*
X62230000Y-111125000D01*
X63500000Y-111505000D02*
X65405000Y-111505000D01*
D39*
X104900000Y-65035000D02*
X106367500Y-65035000D01*
X100638980Y-70235000D02*
X100642500Y-70238520D01*
X102730000Y-62865000D02*
X104900000Y-65035000D01*
D38*
X83325000Y-63360000D02*
X83185000Y-63360000D01*
X141605000Y-89395000D02*
X141605000Y-90805000D01*
X63500000Y-111505000D02*
X62610000Y-111505000D01*
X137160000Y-86805000D02*
X139015000Y-86805000D01*
X108585000Y-86855000D02*
X110490000Y-86855000D01*
X98075000Y-62325000D02*
X98425000Y-62675000D01*
X84455000Y-62230000D02*
X83325000Y-63360000D01*
X118745000Y-89395000D02*
X118745000Y-90805000D01*
X63780000Y-62230000D02*
X63500000Y-62510000D01*
D39*
X100642500Y-64385000D02*
X100135000Y-64385000D01*
X100135000Y-64385000D02*
X98425000Y-62675000D01*
D38*
X139015000Y-86805000D02*
X139065000Y-86855000D01*
%TO.N,+12V*%
X88900000Y-73660000D02*
X85090000Y-77470000D01*
X83035000Y-64760000D02*
X83185000Y-64910000D01*
X85090000Y-77470000D02*
X85090000Y-113030000D01*
X91935000Y-73660000D02*
X96045000Y-73660000D01*
X83185000Y-113030000D02*
X85090000Y-113030000D01*
X86995000Y-114935000D02*
X86995000Y-125730000D01*
X85090000Y-113030000D02*
X86995000Y-114935000D01*
X88265000Y-127000000D02*
X150006480Y-127000000D01*
X96045000Y-73660000D02*
X99220000Y-76835000D01*
X150006480Y-127000000D02*
X151130000Y-125876480D01*
X177653520Y-125876480D02*
X181610000Y-121920000D01*
X92710000Y-73660000D02*
X88900000Y-73660000D01*
X181610000Y-121920000D02*
X181610000Y-120650000D01*
X80010000Y-64760000D02*
X83035000Y-64760000D01*
X181610000Y-120650000D02*
X182880000Y-119380000D01*
X86995000Y-125730000D02*
X88265000Y-127000000D01*
X151130000Y-125876480D02*
X177653520Y-125876480D01*
X83185000Y-64910000D02*
X91935000Y-73660000D01*
%TO.N,Net-(R11-Pad1)*%
X45085000Y-69850000D02*
X41275000Y-66040000D01*
X65215000Y-69850000D02*
X45085000Y-69850000D01*
%TO.N,MOTOR_A*%
X135890000Y-93720000D02*
X135890000Y-102870000D01*
D39*
%TO.N,FOREWARD_MOTOR*%
X99135000Y-65035000D02*
X100642500Y-65035000D01*
X98425000Y-64325000D02*
X99135000Y-65035000D01*
%TO.N,ON_A*%
X98910000Y-66335000D02*
X100642500Y-66335000D01*
X98425000Y-65850000D02*
X98910000Y-66335000D01*
D38*
%TO.N,Net-(C11-Pad1)*%
X135205000Y-88405000D02*
X135255000Y-88455000D01*
X133350000Y-93720000D02*
X133350000Y-88405000D01*
X133350000Y-88405000D02*
X135205000Y-88405000D01*
%TO.N,Net-(C12-Pad1)*%
X134620000Y-90995000D02*
X137160000Y-88455000D01*
X134620000Y-93720000D02*
X134620000Y-90995000D01*
X137160000Y-88455000D02*
X139015000Y-88455000D01*
X139015000Y-88455000D02*
X139065000Y-88405000D01*
%TO.N,Net-(C13-Pad1)*%
X116155000Y-88455000D02*
X116205000Y-88405000D01*
X111760000Y-90995000D02*
X114300000Y-88455000D01*
X114300000Y-88455000D02*
X116155000Y-88455000D01*
X111760000Y-93605000D02*
X111760000Y-90995000D01*
%TO.N,Net-(C14-Pad1)*%
X112345000Y-88405000D02*
X112395000Y-88455000D01*
X110490000Y-93605000D02*
X110490000Y-88405000D01*
X110490000Y-88405000D02*
X112345000Y-88405000D01*
%TO.N,IN_A*%
X138430000Y-70485000D02*
X132715000Y-64770000D01*
X138430000Y-85090000D02*
X138430000Y-70485000D01*
X138430000Y-90170000D02*
X138430000Y-93720000D01*
X132715000Y-64770000D02*
X110680000Y-64770000D01*
%TO.N,INH_A*%
X137160000Y-90170000D02*
X137160000Y-93720000D01*
%TO.N,IN_B*%
X115570000Y-90170000D02*
X115570000Y-93605000D01*
%TO.N,INH_B*%
X114300000Y-74105000D02*
X114300000Y-74930000D01*
X114300000Y-90170000D02*
X114300000Y-93605000D01*
X110680000Y-70485000D02*
X114300000Y-74105000D01*
D39*
%TO.N,Net-(R7-Pad2)*%
X106367500Y-65685000D02*
X108115000Y-65685000D01*
X108115000Y-65685000D02*
X109030000Y-64770000D01*
%TO.N,Net-(R9-Pad2)*%
X108720000Y-66985000D02*
X109030000Y-66675000D01*
X106367500Y-66985000D02*
X108720000Y-66985000D01*
%TO.N,Net-(R12-Pad2)*%
X108735000Y-68285000D02*
X109030000Y-68580000D01*
X106367500Y-68285000D02*
X108735000Y-68285000D01*
%TO.N,Net-(R14-Pad2)*%
X108130000Y-69585000D02*
X109030000Y-70485000D01*
X106367500Y-69585000D02*
X108130000Y-69585000D01*
%TD*%
%TA.AperFunction,Conductor*%
%TO.N,GND*%
G36*
X148595474Y-90170479D02*
G01*
X148643516Y-90174682D01*
X148799555Y-90188334D01*
X148821178Y-90192146D01*
X148971625Y-90232458D01*
X149013718Y-90243737D01*
X149034358Y-90251249D01*
X149215015Y-90335492D01*
X149225000Y-90341257D01*
X149225000Y-96774000D01*
X140340507Y-96774000D01*
X140329526Y-96773521D01*
X140281484Y-96769318D01*
X140125445Y-96755666D01*
X140103822Y-96751854D01*
X139911283Y-96700263D01*
X139890643Y-96692751D01*
X139867807Y-96682102D01*
X139709985Y-96608508D01*
X139690974Y-96597532D01*
X139527686Y-96483196D01*
X139510862Y-96469078D01*
X139369922Y-96328138D01*
X139355805Y-96311315D01*
X139334006Y-96280184D01*
X139311317Y-96212911D01*
X139319237Y-96163681D01*
X139328970Y-96137718D01*
X139331745Y-96130316D01*
X139338500Y-96068134D01*
X139338500Y-91371866D01*
X139331745Y-91309684D01*
X139280615Y-91173295D01*
X139217674Y-91089313D01*
X139192826Y-91022807D01*
X139192500Y-91013748D01*
X139192500Y-90924392D01*
X139204305Y-90871142D01*
X139230492Y-90814985D01*
X139241468Y-90795974D01*
X139355804Y-90632686D01*
X139369922Y-90615862D01*
X139510862Y-90474922D01*
X139527686Y-90460804D01*
X139549511Y-90445522D01*
X139690974Y-90346468D01*
X139709985Y-90335492D01*
X139890642Y-90251249D01*
X139911282Y-90243737D01*
X139953375Y-90232458D01*
X140103822Y-90192146D01*
X140125445Y-90188334D01*
X140281484Y-90174682D01*
X140329526Y-90170479D01*
X140340507Y-90170000D01*
X148584493Y-90170000D01*
X148595474Y-90170479D01*
G37*
%TD.AperFunction*%
%TD*%
%TA.AperFunction,Conductor*%
%TO.N,GND*%
G36*
X94620474Y-76200479D02*
G01*
X94668516Y-76204682D01*
X94824555Y-76218334D01*
X94846178Y-76222146D01*
X94996625Y-76262458D01*
X95038718Y-76273737D01*
X95059358Y-76281249D01*
X95240015Y-76365492D01*
X95259026Y-76376468D01*
X95400489Y-76475522D01*
X95422314Y-76490804D01*
X95439138Y-76504922D01*
X95580078Y-76645862D01*
X95594196Y-76662686D01*
X95708532Y-76825974D01*
X95719508Y-76844985D01*
X95793102Y-77002807D01*
X95803751Y-77025643D01*
X95811263Y-77046282D01*
X95862853Y-77238818D01*
X95866667Y-77260448D01*
X95884521Y-77464526D01*
X95885000Y-77475507D01*
X95885000Y-112395000D01*
X88265000Y-112395000D01*
X88265000Y-77475507D01*
X88265479Y-77464526D01*
X88283333Y-77260448D01*
X88287147Y-77238818D01*
X88338737Y-77046282D01*
X88346249Y-77025643D01*
X88356898Y-77002807D01*
X88430492Y-76844985D01*
X88441468Y-76825974D01*
X88555804Y-76662686D01*
X88569922Y-76645862D01*
X88710862Y-76504922D01*
X88727686Y-76490804D01*
X88749511Y-76475522D01*
X88890974Y-76376468D01*
X88909985Y-76365492D01*
X89090642Y-76281249D01*
X89111282Y-76273737D01*
X89153375Y-76262458D01*
X89303822Y-76222146D01*
X89325445Y-76218334D01*
X89481484Y-76204682D01*
X89529526Y-76200479D01*
X89540507Y-76200000D01*
X94609493Y-76200000D01*
X94620474Y-76200479D01*
G37*
%TD.AperFunction*%
%TD*%
%TA.AperFunction,Conductor*%
%TO.N,GND*%
G36*
X122687474Y-90170479D02*
G01*
X122735516Y-90174682D01*
X122891555Y-90188334D01*
X122913178Y-90192146D01*
X123063625Y-90232458D01*
X123105718Y-90243737D01*
X123126358Y-90251249D01*
X123307015Y-90335492D01*
X123326026Y-90346468D01*
X123467489Y-90445522D01*
X123489314Y-90460804D01*
X123506138Y-90474922D01*
X123647078Y-90615862D01*
X123661196Y-90632686D01*
X123775532Y-90795974D01*
X123786508Y-90814985D01*
X123812695Y-90871142D01*
X123870751Y-90995643D01*
X123878263Y-91016282D01*
X123922588Y-91181703D01*
X123929853Y-91208818D01*
X123933667Y-91230448D01*
X123951521Y-91434526D01*
X123952000Y-91445507D01*
X123952000Y-95498493D01*
X123951521Y-95509474D01*
X123933667Y-95713552D01*
X123929853Y-95735182D01*
X123878263Y-95927718D01*
X123870751Y-95948357D01*
X123786508Y-96129015D01*
X123775532Y-96148026D01*
X123730099Y-96212911D01*
X123661196Y-96311314D01*
X123647078Y-96328138D01*
X123506138Y-96469078D01*
X123489314Y-96483196D01*
X123326026Y-96597532D01*
X123307015Y-96608508D01*
X123149193Y-96682102D01*
X123126357Y-96692751D01*
X123105717Y-96700263D01*
X122913178Y-96751854D01*
X122891555Y-96755666D01*
X122735516Y-96769318D01*
X122687474Y-96773521D01*
X122676493Y-96774000D01*
X117480507Y-96774000D01*
X117469526Y-96773521D01*
X117421484Y-96769318D01*
X117265445Y-96755666D01*
X117243822Y-96751854D01*
X117051283Y-96700263D01*
X117030643Y-96692751D01*
X117007807Y-96682102D01*
X116849985Y-96608508D01*
X116830974Y-96597532D01*
X116667686Y-96483196D01*
X116650862Y-96469078D01*
X116509922Y-96328138D01*
X116495805Y-96311315D01*
X116474006Y-96280184D01*
X116451317Y-96212911D01*
X116459237Y-96163681D01*
X116468970Y-96137718D01*
X116471745Y-96130316D01*
X116478500Y-96068134D01*
X116478500Y-91371866D01*
X116471745Y-91309684D01*
X116420615Y-91173295D01*
X116357674Y-91089313D01*
X116332826Y-91022807D01*
X116332500Y-91013748D01*
X116332500Y-90924392D01*
X116344305Y-90871142D01*
X116370492Y-90814985D01*
X116381468Y-90795974D01*
X116495804Y-90632686D01*
X116509922Y-90615862D01*
X116650862Y-90474922D01*
X116667686Y-90460804D01*
X116689511Y-90445522D01*
X116830974Y-90346468D01*
X116849985Y-90335492D01*
X117030642Y-90251249D01*
X117051282Y-90243737D01*
X117093375Y-90232458D01*
X117243822Y-90192146D01*
X117265445Y-90188334D01*
X117421484Y-90174682D01*
X117469526Y-90170479D01*
X117480507Y-90170000D01*
X122676493Y-90170000D01*
X122687474Y-90170479D01*
G37*
%TD.AperFunction*%
%TD*%
%TA.AperFunction,Conductor*%
%TO.N,+12V*%
G36*
X131450474Y-76200479D02*
G01*
X131498516Y-76204682D01*
X131654555Y-76218334D01*
X131676178Y-76222146D01*
X131826625Y-76262458D01*
X131868718Y-76273737D01*
X131889358Y-76281249D01*
X132070015Y-76365492D01*
X132089026Y-76376468D01*
X132230489Y-76475522D01*
X132252314Y-76490804D01*
X132269138Y-76504922D01*
X132410078Y-76645862D01*
X132424196Y-76662686D01*
X132538532Y-76825974D01*
X132549508Y-76844985D01*
X132623102Y-77002807D01*
X132633751Y-77025643D01*
X132641263Y-77046282D01*
X132692853Y-77238818D01*
X132696667Y-77260448D01*
X132714521Y-77464526D01*
X132715000Y-77475507D01*
X132715000Y-85935431D01*
X132694998Y-86003552D01*
X132655304Y-86042574D01*
X132641287Y-86051248D01*
X132636114Y-86056430D01*
X132630377Y-86060977D01*
X132629370Y-86059707D01*
X132574735Y-86089598D01*
X132547851Y-86092500D01*
X132246954Y-86092500D01*
X132178833Y-86072498D01*
X132157935Y-86055672D01*
X132157882Y-86055619D01*
X132152702Y-86050448D01*
X132134818Y-86039424D01*
X132013331Y-85964538D01*
X132013329Y-85964537D01*
X132007101Y-85960698D01*
X131844757Y-85906851D01*
X131837920Y-85906151D01*
X131837918Y-85906150D01*
X131796599Y-85901917D01*
X131743732Y-85896500D01*
X131146268Y-85896500D01*
X131143022Y-85896837D01*
X131143018Y-85896837D01*
X131108917Y-85900375D01*
X131043981Y-85907113D01*
X131037440Y-85909295D01*
X131037441Y-85909295D01*
X130888676Y-85958927D01*
X130888674Y-85958928D01*
X130881732Y-85961244D01*
X130736287Y-86051248D01*
X130615448Y-86172298D01*
X130611608Y-86178528D01*
X130611607Y-86178529D01*
X130530255Y-86310507D01*
X130525698Y-86317899D01*
X130471851Y-86480243D01*
X130461500Y-86581268D01*
X130461500Y-87128732D01*
X130472113Y-87231019D01*
X130526244Y-87393268D01*
X130616248Y-87538713D01*
X130737298Y-87659552D01*
X130743528Y-87663392D01*
X130743529Y-87663393D01*
X130839091Y-87722298D01*
X130882899Y-87749302D01*
X131045243Y-87803149D01*
X131052080Y-87803849D01*
X131052082Y-87803850D01*
X131093401Y-87808083D01*
X131146268Y-87813500D01*
X131743732Y-87813500D01*
X131746978Y-87813163D01*
X131746982Y-87813163D01*
X131781166Y-87809616D01*
X131846019Y-87802887D01*
X131999726Y-87751606D01*
X132001324Y-87751073D01*
X132001326Y-87751072D01*
X132008268Y-87748756D01*
X132097786Y-87693361D01*
X132147485Y-87662606D01*
X132153713Y-87658752D01*
X132158886Y-87653570D01*
X132164623Y-87649023D01*
X132165630Y-87650293D01*
X132220265Y-87620402D01*
X132247149Y-87617500D01*
X132359364Y-87617500D01*
X132427485Y-87637502D01*
X132473978Y-87691158D01*
X132484082Y-87761432D01*
X132466624Y-87809616D01*
X132430698Y-87867899D01*
X132376851Y-88030243D01*
X132366500Y-88131268D01*
X132366500Y-88678732D01*
X132377113Y-88781019D01*
X132379295Y-88787559D01*
X132423721Y-88920718D01*
X132431244Y-88943268D01*
X132521248Y-89088713D01*
X132526430Y-89093886D01*
X132550518Y-89117932D01*
X132584597Y-89180214D01*
X132587500Y-89207105D01*
X132587500Y-91013748D01*
X132567498Y-91081869D01*
X132562326Y-91089313D01*
X132499385Y-91173295D01*
X132448255Y-91309684D01*
X132441500Y-91371866D01*
X132441500Y-96068134D01*
X132448255Y-96130316D01*
X132451030Y-96137718D01*
X132460763Y-96163681D01*
X132465947Y-96234488D01*
X132445994Y-96280184D01*
X132424195Y-96311315D01*
X132410078Y-96328138D01*
X132269138Y-96469078D01*
X132252314Y-96483196D01*
X132089026Y-96597532D01*
X132070015Y-96608508D01*
X131912193Y-96682102D01*
X131889357Y-96692751D01*
X131868717Y-96700263D01*
X131676178Y-96751854D01*
X131654555Y-96755666D01*
X131498516Y-96769318D01*
X131450474Y-96773521D01*
X131439493Y-96774000D01*
X125989507Y-96774000D01*
X125978526Y-96773521D01*
X125930484Y-96769318D01*
X125774445Y-96755666D01*
X125752822Y-96751854D01*
X125560283Y-96700263D01*
X125539643Y-96692751D01*
X125516807Y-96682102D01*
X125358985Y-96608508D01*
X125339974Y-96597532D01*
X125176686Y-96483196D01*
X125159862Y-96469078D01*
X125018922Y-96328138D01*
X125004804Y-96311314D01*
X124983006Y-96280184D01*
X124890468Y-96148026D01*
X124879492Y-96129015D01*
X124795249Y-95948357D01*
X124787737Y-95927718D01*
X124736147Y-95735182D01*
X124732333Y-95713552D01*
X124714479Y-95509474D01*
X124714000Y-95498493D01*
X124714000Y-90170000D01*
X124694706Y-89949467D01*
X124637410Y-89735634D01*
X124635087Y-89730652D01*
X124546178Y-89539987D01*
X124546175Y-89539982D01*
X124543852Y-89535000D01*
X124416876Y-89353660D01*
X124260340Y-89197124D01*
X124255832Y-89193967D01*
X124255829Y-89193965D01*
X124112901Y-89093886D01*
X124079000Y-89070148D01*
X124074018Y-89067825D01*
X124074013Y-89067822D01*
X123883348Y-88978913D01*
X123883346Y-88978912D01*
X123878366Y-88976590D01*
X123873058Y-88975168D01*
X123873056Y-88975167D01*
X123669848Y-88920718D01*
X123669846Y-88920718D01*
X123664533Y-88919294D01*
X123536363Y-88908081D01*
X123446724Y-88900238D01*
X123446717Y-88900238D01*
X123444000Y-88900000D01*
X119381444Y-88900000D01*
X119313323Y-88879998D01*
X119294792Y-88865474D01*
X119277415Y-88849013D01*
X119274972Y-88846634D01*
X117225405Y-86797067D01*
X117191379Y-86734755D01*
X117188500Y-86707972D01*
X117188500Y-86581268D01*
X117177887Y-86478981D01*
X117128662Y-86331436D01*
X117126073Y-86323676D01*
X117126072Y-86323674D01*
X117123756Y-86316732D01*
X117033752Y-86171287D01*
X116912702Y-86050448D01*
X116894818Y-86039424D01*
X116773331Y-85964538D01*
X116773329Y-85964537D01*
X116767101Y-85960698D01*
X116604757Y-85906851D01*
X116597920Y-85906151D01*
X116597918Y-85906150D01*
X116556599Y-85901917D01*
X116503732Y-85896500D01*
X115906268Y-85896500D01*
X115903022Y-85896837D01*
X115903018Y-85896837D01*
X115868917Y-85900375D01*
X115803981Y-85907113D01*
X115797440Y-85909295D01*
X115797441Y-85909295D01*
X115648676Y-85958927D01*
X115648674Y-85958928D01*
X115641732Y-85961244D01*
X115635508Y-85965096D01*
X115635507Y-85965096D01*
X115540895Y-86023644D01*
X115474592Y-86042500D01*
X115049138Y-86042500D01*
X114983867Y-86024276D01*
X114868699Y-85954528D01*
X114861452Y-85952257D01*
X114861450Y-85952256D01*
X114795164Y-85931483D01*
X114705062Y-85903247D01*
X114631635Y-85896500D01*
X114628737Y-85896500D01*
X114299140Y-85896501D01*
X113968366Y-85896501D01*
X113965508Y-85896764D01*
X113965499Y-85896764D01*
X113929996Y-85900026D01*
X113894938Y-85903247D01*
X113888560Y-85905246D01*
X113888559Y-85905246D01*
X113738550Y-85952256D01*
X113738548Y-85952257D01*
X113731301Y-85954528D01*
X113616133Y-86024276D01*
X113550862Y-86042500D01*
X113144138Y-86042500D01*
X113078867Y-86024276D01*
X112963699Y-85954528D01*
X112956452Y-85952257D01*
X112956450Y-85952256D01*
X112890164Y-85931483D01*
X112800062Y-85903247D01*
X112726635Y-85896500D01*
X112723737Y-85896500D01*
X112394140Y-85896501D01*
X112063366Y-85896501D01*
X112060508Y-85896764D01*
X112060499Y-85896764D01*
X112024996Y-85900026D01*
X111989938Y-85903247D01*
X111983560Y-85905246D01*
X111983559Y-85905246D01*
X111833550Y-85952256D01*
X111833548Y-85952257D01*
X111826301Y-85954528D01*
X111679619Y-86043361D01*
X111667385Y-86055595D01*
X111605073Y-86089621D01*
X111578290Y-86092500D01*
X111291954Y-86092500D01*
X111223833Y-86072498D01*
X111202935Y-86055672D01*
X111202882Y-86055619D01*
X111197702Y-86050448D01*
X111179818Y-86039424D01*
X111058331Y-85964538D01*
X111058329Y-85964537D01*
X111052101Y-85960698D01*
X110889757Y-85906851D01*
X110882920Y-85906151D01*
X110882918Y-85906150D01*
X110841599Y-85901917D01*
X110788732Y-85896500D01*
X110191268Y-85896500D01*
X110188022Y-85896837D01*
X110188018Y-85896837D01*
X110153917Y-85900375D01*
X110088981Y-85907113D01*
X110082440Y-85909295D01*
X110082441Y-85909295D01*
X109933676Y-85958927D01*
X109933674Y-85958928D01*
X109926732Y-85961244D01*
X109781287Y-86051248D01*
X109776114Y-86056430D01*
X109770377Y-86060977D01*
X109769370Y-86059707D01*
X109714735Y-86089598D01*
X109687851Y-86092500D01*
X109386954Y-86092500D01*
X109318833Y-86072498D01*
X109297935Y-86055672D01*
X109297882Y-86055619D01*
X109292702Y-86050448D01*
X109274818Y-86039424D01*
X109153331Y-85964538D01*
X109153329Y-85964537D01*
X109147101Y-85960698D01*
X108984757Y-85906851D01*
X108977920Y-85906151D01*
X108977918Y-85906150D01*
X108936599Y-85901917D01*
X108883732Y-85896500D01*
X108286268Y-85896500D01*
X108283022Y-85896837D01*
X108283018Y-85896837D01*
X108248917Y-85900375D01*
X108183981Y-85907113D01*
X108177440Y-85909295D01*
X108177441Y-85909295D01*
X108028676Y-85958927D01*
X108028674Y-85958928D01*
X108021732Y-85961244D01*
X107876287Y-86051248D01*
X107755448Y-86172298D01*
X107751608Y-86178528D01*
X107751607Y-86178529D01*
X107670255Y-86310507D01*
X107665698Y-86317899D01*
X107611851Y-86480243D01*
X107601500Y-86581268D01*
X107601500Y-87128732D01*
X107612113Y-87231019D01*
X107666244Y-87393268D01*
X107756248Y-87538713D01*
X107877298Y-87659552D01*
X107883528Y-87663392D01*
X107883529Y-87663393D01*
X107979091Y-87722298D01*
X108022899Y-87749302D01*
X108185243Y-87803149D01*
X108192080Y-87803849D01*
X108192082Y-87803850D01*
X108233401Y-87808083D01*
X108286268Y-87813500D01*
X108883732Y-87813500D01*
X108886978Y-87813163D01*
X108886982Y-87813163D01*
X108921166Y-87809616D01*
X108986019Y-87802887D01*
X109139726Y-87751606D01*
X109141324Y-87751073D01*
X109141326Y-87751072D01*
X109148268Y-87748756D01*
X109237786Y-87693361D01*
X109287485Y-87662606D01*
X109293713Y-87658752D01*
X109298886Y-87653570D01*
X109304623Y-87649023D01*
X109305630Y-87650293D01*
X109360265Y-87620402D01*
X109387149Y-87617500D01*
X109499364Y-87617500D01*
X109567485Y-87637502D01*
X109613978Y-87691158D01*
X109624082Y-87761432D01*
X109606624Y-87809616D01*
X109570698Y-87867899D01*
X109516851Y-88030243D01*
X109506500Y-88131268D01*
X109506500Y-88678732D01*
X109517113Y-88781019D01*
X109519295Y-88787559D01*
X109563721Y-88920718D01*
X109571244Y-88943268D01*
X109661248Y-89088713D01*
X109666430Y-89093886D01*
X109690518Y-89117932D01*
X109724597Y-89180214D01*
X109727500Y-89207105D01*
X109727500Y-91013748D01*
X109707498Y-91081869D01*
X109702326Y-91089313D01*
X109639385Y-91173295D01*
X109588255Y-91309684D01*
X109581500Y-91371866D01*
X109581500Y-96068134D01*
X109588255Y-96130316D01*
X109591030Y-96137718D01*
X109600763Y-96163681D01*
X109605947Y-96234488D01*
X109585994Y-96280184D01*
X109564195Y-96311315D01*
X109550078Y-96328138D01*
X109409138Y-96469078D01*
X109392314Y-96483196D01*
X109229026Y-96597532D01*
X109210015Y-96608508D01*
X109052193Y-96682102D01*
X109029357Y-96692751D01*
X109008717Y-96700263D01*
X108816178Y-96751854D01*
X108794555Y-96755666D01*
X108638516Y-96769318D01*
X108590474Y-96773521D01*
X108579493Y-96774000D01*
X98430507Y-96774000D01*
X98419526Y-96773521D01*
X98371484Y-96769318D01*
X98215445Y-96755666D01*
X98193822Y-96751854D01*
X98001283Y-96700263D01*
X97980643Y-96692751D01*
X97957807Y-96682102D01*
X97799985Y-96608508D01*
X97780974Y-96597532D01*
X97617686Y-96483196D01*
X97600862Y-96469078D01*
X97459922Y-96328138D01*
X97445804Y-96311314D01*
X97424006Y-96280184D01*
X97331468Y-96148026D01*
X97320492Y-96129015D01*
X97236249Y-95948357D01*
X97228737Y-95927718D01*
X97177147Y-95735182D01*
X97173333Y-95713552D01*
X97155479Y-95509474D01*
X97155000Y-95498493D01*
X97155000Y-77475507D01*
X97155479Y-77464526D01*
X97173333Y-77260448D01*
X97177147Y-77238818D01*
X97228737Y-77046282D01*
X97236249Y-77025643D01*
X97246898Y-77002807D01*
X97320492Y-76844985D01*
X97331468Y-76825974D01*
X97445804Y-76662686D01*
X97459922Y-76645862D01*
X97600862Y-76504922D01*
X97617686Y-76490804D01*
X97639511Y-76475522D01*
X97780974Y-76376468D01*
X97799985Y-76365492D01*
X97980642Y-76281249D01*
X98001282Y-76273737D01*
X98043375Y-76262458D01*
X98193822Y-76222146D01*
X98215445Y-76218334D01*
X98371484Y-76204682D01*
X98419526Y-76200479D01*
X98430507Y-76200000D01*
X131439493Y-76200000D01*
X131450474Y-76200479D01*
G37*
%TD.AperFunction*%
%TD*%
%TA.AperFunction,Conductor*%
%TO.N,MOTOR_A*%
G36*
X128385424Y-97288407D02*
G01*
X128505243Y-97328149D01*
X128512080Y-97328849D01*
X128512082Y-97328850D01*
X128553401Y-97333083D01*
X128606268Y-97338500D01*
X129203732Y-97338500D01*
X129206978Y-97338163D01*
X129206982Y-97338163D01*
X129241083Y-97334625D01*
X129306019Y-97327887D01*
X129424144Y-97288477D01*
X129464021Y-97282000D01*
X142315758Y-97282000D01*
X142355424Y-97288407D01*
X142475243Y-97328149D01*
X142482080Y-97328849D01*
X142482082Y-97328850D01*
X142523401Y-97333083D01*
X142576268Y-97338500D01*
X143173732Y-97338500D01*
X143194316Y-97336364D01*
X143239930Y-97339985D01*
X143298719Y-97355738D01*
X143319358Y-97363249D01*
X143500015Y-97447492D01*
X143519026Y-97458468D01*
X143660489Y-97557522D01*
X143682314Y-97572804D01*
X143699138Y-97586922D01*
X143840078Y-97727862D01*
X143854196Y-97744686D01*
X143968532Y-97907974D01*
X143979508Y-97926985D01*
X144053102Y-98084807D01*
X144063751Y-98107643D01*
X144071263Y-98128282D01*
X144122853Y-98320818D01*
X144126667Y-98342448D01*
X144144521Y-98546526D01*
X144145000Y-98557507D01*
X144145000Y-111754493D01*
X144144521Y-111765474D01*
X144126667Y-111969552D01*
X144122853Y-111991182D01*
X144071263Y-112183718D01*
X144063751Y-112204357D01*
X143979508Y-112385015D01*
X143968532Y-112404026D01*
X143869478Y-112545489D01*
X143854196Y-112567314D01*
X143840078Y-112584138D01*
X143699138Y-112725078D01*
X143682314Y-112739196D01*
X143519026Y-112853532D01*
X143500015Y-112864508D01*
X143342193Y-112938102D01*
X143319357Y-112948751D01*
X143298717Y-112956263D01*
X143106178Y-113007854D01*
X143084555Y-113011666D01*
X142928516Y-113025318D01*
X142880474Y-113029521D01*
X142869493Y-113030000D01*
X125989507Y-113030000D01*
X125978526Y-113029521D01*
X125930484Y-113025318D01*
X125774445Y-113011666D01*
X125752822Y-113007854D01*
X125560283Y-112956263D01*
X125539643Y-112948751D01*
X125516807Y-112938102D01*
X125358985Y-112864508D01*
X125339974Y-112853532D01*
X125176686Y-112739196D01*
X125159862Y-112725078D01*
X125018922Y-112584138D01*
X125004804Y-112567314D01*
X124989522Y-112545489D01*
X124890468Y-112404026D01*
X124879492Y-112385015D01*
X124795249Y-112204357D01*
X124787737Y-112183718D01*
X124736147Y-111991182D01*
X124732333Y-111969552D01*
X124714479Y-111765474D01*
X124714000Y-111754493D01*
X124714000Y-98557507D01*
X124714479Y-98546526D01*
X124732333Y-98342448D01*
X124736147Y-98320818D01*
X124787737Y-98128282D01*
X124795249Y-98107643D01*
X124805898Y-98084807D01*
X124879492Y-97926985D01*
X124890468Y-97907974D01*
X125004804Y-97744686D01*
X125018922Y-97727862D01*
X125159862Y-97586922D01*
X125176686Y-97572804D01*
X125198511Y-97557522D01*
X125339974Y-97458468D01*
X125358985Y-97447492D01*
X125539642Y-97363249D01*
X125560282Y-97355737D01*
X125624611Y-97338500D01*
X125752822Y-97304146D01*
X125774445Y-97300334D01*
X125930484Y-97286682D01*
X125978526Y-97282479D01*
X125989507Y-97282000D01*
X128345758Y-97282000D01*
X128385424Y-97288407D01*
G37*
%TD.AperFunction*%
%TD*%
%TA.AperFunction,Conductor*%
%TO.N,MOTOR_B*%
G36*
X119495424Y-97288407D02*
G01*
X119615243Y-97328149D01*
X119622080Y-97328849D01*
X119622082Y-97328850D01*
X119663401Y-97333083D01*
X119716268Y-97338500D01*
X120313732Y-97338500D01*
X120316978Y-97338163D01*
X120316982Y-97338163D01*
X120351083Y-97334625D01*
X120416019Y-97327887D01*
X120534144Y-97288477D01*
X120574021Y-97282000D01*
X122676493Y-97282000D01*
X122687474Y-97282479D01*
X122735516Y-97286682D01*
X122891555Y-97300334D01*
X122913178Y-97304146D01*
X123041389Y-97338500D01*
X123105718Y-97355737D01*
X123126358Y-97363249D01*
X123307015Y-97447492D01*
X123326026Y-97458468D01*
X123467489Y-97557522D01*
X123489314Y-97572804D01*
X123506138Y-97586922D01*
X123647078Y-97727862D01*
X123661196Y-97744686D01*
X123775532Y-97907974D01*
X123786508Y-97926985D01*
X123860102Y-98084807D01*
X123870751Y-98107643D01*
X123878263Y-98128282D01*
X123929853Y-98320818D01*
X123933667Y-98342448D01*
X123951521Y-98546526D01*
X123952000Y-98557507D01*
X123952000Y-111754493D01*
X123951521Y-111765474D01*
X123933667Y-111969552D01*
X123929853Y-111991182D01*
X123878263Y-112183718D01*
X123870751Y-112204357D01*
X123786508Y-112385015D01*
X123775532Y-112404026D01*
X123676478Y-112545489D01*
X123661196Y-112567314D01*
X123647078Y-112584138D01*
X123506138Y-112725078D01*
X123489314Y-112739196D01*
X123326026Y-112853532D01*
X123307015Y-112864508D01*
X123149193Y-112938102D01*
X123126357Y-112948751D01*
X123105717Y-112956263D01*
X122913178Y-113007854D01*
X122891555Y-113011666D01*
X122735516Y-113025318D01*
X122687474Y-113029521D01*
X122676493Y-113030000D01*
X106050507Y-113030000D01*
X106039526Y-113029521D01*
X105991484Y-113025318D01*
X105835445Y-113011666D01*
X105813822Y-113007854D01*
X105621283Y-112956263D01*
X105600643Y-112948751D01*
X105577807Y-112938102D01*
X105419985Y-112864508D01*
X105400974Y-112853532D01*
X105237686Y-112739196D01*
X105220862Y-112725078D01*
X105079922Y-112584138D01*
X105065804Y-112567314D01*
X105050522Y-112545489D01*
X104951468Y-112404026D01*
X104940492Y-112385015D01*
X104856249Y-112204357D01*
X104848737Y-112183718D01*
X104797147Y-111991182D01*
X104793333Y-111969552D01*
X104775479Y-111765474D01*
X104775000Y-111754493D01*
X104775000Y-98557507D01*
X104775479Y-98546526D01*
X104793333Y-98342448D01*
X104797147Y-98320818D01*
X104848737Y-98128282D01*
X104856249Y-98107643D01*
X104866898Y-98084807D01*
X104940492Y-97926985D01*
X104951468Y-97907974D01*
X105065804Y-97744686D01*
X105079922Y-97727862D01*
X105220862Y-97586922D01*
X105237686Y-97572804D01*
X105259511Y-97557522D01*
X105400974Y-97458468D01*
X105419985Y-97447492D01*
X105600642Y-97363249D01*
X105621282Y-97355737D01*
X105679998Y-97340004D01*
X105725451Y-97336367D01*
X105746268Y-97338500D01*
X106343732Y-97338500D01*
X106346978Y-97338163D01*
X106346982Y-97338163D01*
X106381083Y-97334625D01*
X106446019Y-97327887D01*
X106564144Y-97288477D01*
X106604021Y-97282000D01*
X119455758Y-97282000D01*
X119495424Y-97288407D01*
G37*
%TD.AperFunction*%
%TD*%
%TA.AperFunction,Conductor*%
%TO.N,12V_UNFUSED*%
G36*
X102875474Y-97282479D02*
G01*
X102923516Y-97286682D01*
X103079555Y-97300334D01*
X103101178Y-97304146D01*
X103251625Y-97344458D01*
X103293718Y-97355737D01*
X103314358Y-97363249D01*
X103495015Y-97447492D01*
X103514026Y-97458468D01*
X103655489Y-97557522D01*
X103677314Y-97572804D01*
X103694138Y-97586922D01*
X103835078Y-97727862D01*
X103849196Y-97744686D01*
X103963532Y-97907974D01*
X103974508Y-97926985D01*
X104048102Y-98084807D01*
X104058751Y-98107643D01*
X104066263Y-98128282D01*
X104117853Y-98320818D01*
X104121667Y-98342448D01*
X104139521Y-98546526D01*
X104140000Y-98557507D01*
X104140000Y-111754493D01*
X104139521Y-111765474D01*
X104121667Y-111969552D01*
X104117853Y-111991182D01*
X104066263Y-112183718D01*
X104058751Y-112204357D01*
X103974508Y-112385015D01*
X103963532Y-112404026D01*
X103864478Y-112545489D01*
X103849196Y-112567314D01*
X103835078Y-112584138D01*
X103694138Y-112725078D01*
X103677314Y-112739196D01*
X103514026Y-112853532D01*
X103495015Y-112864508D01*
X103337193Y-112938102D01*
X103314357Y-112948751D01*
X103293717Y-112956263D01*
X103101178Y-113007854D01*
X103079555Y-113011666D01*
X102923516Y-113025318D01*
X102875474Y-113029521D01*
X102864493Y-113030000D01*
X98430507Y-113030000D01*
X98419526Y-113029521D01*
X98371484Y-113025318D01*
X98215445Y-113011666D01*
X98193822Y-113007854D01*
X98001283Y-112956263D01*
X97980643Y-112948751D01*
X97957807Y-112938102D01*
X97799985Y-112864508D01*
X97780974Y-112853532D01*
X97617686Y-112739196D01*
X97600862Y-112725078D01*
X97459922Y-112584138D01*
X97445804Y-112567314D01*
X97430522Y-112545489D01*
X97331468Y-112404026D01*
X97320492Y-112385015D01*
X97236249Y-112204357D01*
X97228737Y-112183718D01*
X97177147Y-111991182D01*
X97173333Y-111969552D01*
X97155479Y-111765474D01*
X97155000Y-111754493D01*
X97155000Y-98557507D01*
X97155479Y-98546526D01*
X97173333Y-98342448D01*
X97177147Y-98320818D01*
X97228737Y-98128282D01*
X97236249Y-98107643D01*
X97246898Y-98084807D01*
X97320492Y-97926985D01*
X97331468Y-97907974D01*
X97445804Y-97744686D01*
X97459922Y-97727862D01*
X97600862Y-97586922D01*
X97617686Y-97572804D01*
X97639511Y-97557522D01*
X97780974Y-97458468D01*
X97799985Y-97447492D01*
X97980642Y-97363249D01*
X98001282Y-97355737D01*
X98043375Y-97344458D01*
X98193822Y-97304146D01*
X98215445Y-97300334D01*
X98371484Y-97286682D01*
X98419526Y-97282479D01*
X98430507Y-97282000D01*
X102864493Y-97282000D01*
X102875474Y-97282479D01*
G37*
%TD.AperFunction*%
%TD*%
%TA.AperFunction,Conductor*%
%TO.N,GND*%
G36*
X148595474Y-90170479D02*
G01*
X148643516Y-90174682D01*
X148799555Y-90188334D01*
X148821178Y-90192146D01*
X148971625Y-90232458D01*
X149013718Y-90243737D01*
X149034358Y-90251249D01*
X149215015Y-90335492D01*
X149234026Y-90346468D01*
X149375489Y-90445522D01*
X149397314Y-90460804D01*
X149414138Y-90474922D01*
X149555078Y-90615862D01*
X149569196Y-90632686D01*
X149683532Y-90795974D01*
X149694508Y-90814985D01*
X149720695Y-90871142D01*
X149778751Y-90995643D01*
X149786263Y-91016282D01*
X149830588Y-91181703D01*
X149837853Y-91208818D01*
X149841667Y-91230448D01*
X149859521Y-91434526D01*
X149860000Y-91445507D01*
X149860000Y-124454493D01*
X149859521Y-124465474D01*
X149841667Y-124669552D01*
X149837853Y-124691182D01*
X149786263Y-124883718D01*
X149778751Y-124904357D01*
X149694508Y-125085015D01*
X149683532Y-125104026D01*
X149584478Y-125245489D01*
X149569196Y-125267314D01*
X149555078Y-125284138D01*
X149414138Y-125425078D01*
X149397314Y-125439196D01*
X149234026Y-125553532D01*
X149215015Y-125564508D01*
X149057193Y-125638102D01*
X149034357Y-125648751D01*
X149013717Y-125656263D01*
X148821178Y-125707854D01*
X148799555Y-125711666D01*
X148643516Y-125725318D01*
X148595474Y-125729521D01*
X148584493Y-125730000D01*
X89540507Y-125730000D01*
X89529526Y-125729521D01*
X89481484Y-125725318D01*
X89325445Y-125711666D01*
X89303822Y-125707854D01*
X89111283Y-125656263D01*
X89090643Y-125648751D01*
X89067807Y-125638102D01*
X88909985Y-125564508D01*
X88890974Y-125553532D01*
X88727686Y-125439196D01*
X88710862Y-125425078D01*
X88569922Y-125284138D01*
X88555804Y-125267314D01*
X88540522Y-125245489D01*
X88441468Y-125104026D01*
X88430492Y-125085015D01*
X88346249Y-124904357D01*
X88338737Y-124883718D01*
X88287147Y-124691182D01*
X88283333Y-124669552D01*
X88265479Y-124465474D01*
X88265000Y-124454493D01*
X88265000Y-107950000D01*
X95885000Y-107950000D01*
X95885000Y-113030000D01*
X95904294Y-113250533D01*
X95961590Y-113464366D01*
X95963912Y-113469346D01*
X95963913Y-113469348D01*
X96052822Y-113660013D01*
X96052825Y-113660018D01*
X96055148Y-113665000D01*
X96182124Y-113846340D01*
X96338660Y-114002876D01*
X96343168Y-114006033D01*
X96343171Y-114006035D01*
X96418628Y-114058871D01*
X96520000Y-114129852D01*
X96524982Y-114132175D01*
X96524987Y-114132178D01*
X96715652Y-114221087D01*
X96720634Y-114223410D01*
X96725942Y-114224832D01*
X96725944Y-114224833D01*
X96929152Y-114279282D01*
X96929154Y-114279282D01*
X96934467Y-114280706D01*
X97062637Y-114291919D01*
X97152276Y-114299762D01*
X97152283Y-114299762D01*
X97155000Y-114300000D01*
X143510000Y-114300000D01*
X143512717Y-114299762D01*
X143512724Y-114299762D01*
X143602363Y-114291919D01*
X143730533Y-114280706D01*
X143735846Y-114279282D01*
X143735848Y-114279282D01*
X143939056Y-114224833D01*
X143939058Y-114224832D01*
X143944366Y-114223410D01*
X143949348Y-114221087D01*
X144140013Y-114132178D01*
X144140018Y-114132175D01*
X144145000Y-114129852D01*
X144246372Y-114058871D01*
X144321829Y-114006035D01*
X144321832Y-114006033D01*
X144326340Y-114002876D01*
X144482876Y-113846340D01*
X144609852Y-113665000D01*
X144612175Y-113660018D01*
X144612178Y-113660013D01*
X144701087Y-113469348D01*
X144701088Y-113469346D01*
X144703410Y-113464366D01*
X144760706Y-113250533D01*
X144780000Y-113030000D01*
X144780000Y-98044000D01*
X144760706Y-97823467D01*
X144703410Y-97609634D01*
X144701087Y-97604652D01*
X144612178Y-97413987D01*
X144612175Y-97413982D01*
X144609852Y-97409000D01*
X144482876Y-97227660D01*
X144326340Y-97071124D01*
X144321832Y-97067967D01*
X144321829Y-97067965D01*
X144246372Y-97015129D01*
X144145000Y-96944148D01*
X144140018Y-96941825D01*
X144140013Y-96941822D01*
X143949348Y-96852913D01*
X143949346Y-96852912D01*
X143944366Y-96850590D01*
X143939058Y-96849168D01*
X143939056Y-96849167D01*
X143735848Y-96794718D01*
X143735846Y-96794718D01*
X143730533Y-96793294D01*
X143602363Y-96782081D01*
X143512724Y-96774238D01*
X143512717Y-96774238D01*
X143510000Y-96774000D01*
X140340507Y-96774000D01*
X140329526Y-96773521D01*
X140281484Y-96769318D01*
X140125445Y-96755666D01*
X140103822Y-96751854D01*
X139911283Y-96700263D01*
X139890643Y-96692751D01*
X139867807Y-96682102D01*
X139709985Y-96608508D01*
X139690974Y-96597532D01*
X139527686Y-96483196D01*
X139510862Y-96469078D01*
X139369922Y-96328138D01*
X139355805Y-96311315D01*
X139334006Y-96280184D01*
X139311317Y-96212911D01*
X139319237Y-96163681D01*
X139328970Y-96137718D01*
X139331745Y-96130316D01*
X139338500Y-96068134D01*
X139338500Y-91371866D01*
X139331745Y-91309684D01*
X139280615Y-91173295D01*
X139217674Y-91089313D01*
X139192826Y-91022807D01*
X139192500Y-91013748D01*
X139192500Y-90924392D01*
X139204305Y-90871142D01*
X139230492Y-90814985D01*
X139241468Y-90795974D01*
X139355804Y-90632686D01*
X139369922Y-90615862D01*
X139510862Y-90474922D01*
X139527686Y-90460804D01*
X139549511Y-90445522D01*
X139690974Y-90346468D01*
X139709985Y-90335492D01*
X139890642Y-90251249D01*
X139911282Y-90243737D01*
X139953375Y-90232458D01*
X140103822Y-90192146D01*
X140125445Y-90188334D01*
X140281484Y-90174682D01*
X140329526Y-90170479D01*
X140340507Y-90170000D01*
X148584493Y-90170000D01*
X148595474Y-90170479D01*
G37*
%TD.AperFunction*%
%TD*%
M02*
