M48
; DRILL file {KiCad 6.0.2+dfsg-1} date Wed 07 Dec 2022 03:13:50 PM EST
; FORMAT={-:-/ absolute / inch / decimal}
; #@! TF.CreationDate,2022-12-07T15:13:50-05:00
; #@! TF.GenerationSoftware,Kicad,Pcbnew,6.0.2+dfsg-1
; #@! TF.FileFunction,Plated,1,2,PTH
FMAT,2
INCH
; #@! TA.AperFunction,Plated,PTH,ViaDrill
T1C0.0157
; #@! TA.AperFunction,Plated,PTH,ComponentDrill
T2C0.0299
; #@! TA.AperFunction,Plated,PTH,ComponentDrill
T3C0.0300
; #@! TA.AperFunction,Plated,PTH,ComponentDrill
T4C0.0374
; #@! TA.AperFunction,Plated,PTH,ComponentDrill
T5C0.0394
; #@! TA.AperFunction,Plated,PTH,ComponentDrill
T6C0.0400
; #@! TA.AperFunction,Plated,PTH,ComponentDrill
T7C0.0500
; #@! TA.AperFunction,Plated,PTH,ComponentDrill
T8C0.0512
; #@! TA.AperFunction,Plated,PTH,ComponentDrill
T9C0.1000
; #@! TA.AperFunction,Plated,PTH,ComponentDrill
T10C0.1260
%
G90
G05
T1
X2.45Y-4.375
X2.45Y-4.5
X2.6Y-2.45
X2.8351Y-2.7899
X2.9Y-4.575
X3.275Y-2.8
X3.325Y-2.45
X3.325Y-2.825
X3.3565Y-2.85
X3.4Y-2.875
X3.475Y-2.625
X3.525Y-2.75
X3.55Y-2.7815
X3.675Y-2.625
X3.8Y-2.65
X4.0445Y-2.75
X4.3Y-3.9
X4.3Y-3.975
X4.3Y-4.05
X4.3Y-4.125
X4.3Y-4.2
X4.375Y-3.9
X4.375Y-3.975
X4.375Y-4.05
X4.375Y-4.125
X4.375Y-4.2
X4.45Y-3.9
X4.45Y-3.975
X4.45Y-4.05
X4.45Y-4.125
X4.45Y-4.2
X4.5Y-2.95
X4.5Y-3.55
X4.525Y-3.9
X4.525Y-3.975
X4.525Y-4.05
X4.525Y-4.125
X4.525Y-4.2
X4.55Y-2.95
X4.55Y-3.55
X4.6Y-3.9
X4.6Y-3.975
X4.6Y-4.05
X4.6Y-4.125
X4.6Y-4.2
X4.675Y-3.575
X4.675Y-3.625
X4.675Y-3.675
X4.675Y-3.725
X4.675Y-3.775
X4.725Y-3.575
X4.725Y-3.625
X4.725Y-3.675
X4.725Y-3.725
X4.775Y-3.575
X4.775Y-3.625
X4.775Y-3.675
X4.775Y-3.725
X4.775Y-3.775
X4.825Y-3.575
X4.825Y-3.625
X4.825Y-3.675
X4.825Y-3.725
X4.825Y-3.775
X5.2Y-3.9
X5.2Y-3.975
X5.2Y-4.05
X5.2Y-4.125
X5.2Y-4.2
X5.275Y-3.9
X5.275Y-3.975
X5.275Y-4.05
X5.275Y-4.125
X5.275Y-4.2
X5.35Y-3.9
X5.35Y-3.975
X5.35Y-4.05
X5.35Y-4.125
X5.35Y-4.2
X5.4Y-3.35
X5.4Y-3.55
X5.425Y-3.9
X5.425Y-3.975
X5.425Y-4.05
X5.425Y-4.125
X5.425Y-4.2
X5.45Y-3.35
X5.45Y-3.55
X5.5Y-3.9
X5.5Y-3.975
X5.5Y-4.05
X5.5Y-4.125
X5.5Y-4.2
X5.575Y-3.575
X5.575Y-3.625
X5.575Y-3.675
X5.575Y-3.725
X5.575Y-3.775
X5.625Y-3.575
X5.625Y-3.625
X5.625Y-3.675
X5.625Y-3.725
X5.675Y-3.575
X5.675Y-3.625
X5.675Y-3.675
X5.675Y-3.725
X5.675Y-3.775
X5.725Y-3.575
X5.725Y-3.625
X5.725Y-3.675
X5.725Y-3.725
X5.725Y-3.775
T2
X6.85Y-4.8
X6.9Y-4.7
X6.95Y-4.8
X7.0Y-4.7
X7.05Y-4.8
X7.1Y-4.7
X7.15Y-4.8
X7.2Y-4.7
T3
X1.625Y-2.3
X1.625Y-2.4
X1.625Y-2.5
X1.625Y-2.6
X1.625Y-2.7
X1.625Y-2.8
X1.625Y-2.9
X1.625Y-3.0
X1.625Y-3.1
X1.625Y-3.2
X1.625Y-3.3
X1.625Y-3.4
X1.625Y-3.5
X1.625Y-3.6
X1.625Y-3.7
X1.625Y-3.8
X1.625Y-3.9
X1.625Y-4.0
X1.625Y-4.1
X1.625Y-4.2
X2.325Y-2.3
X2.325Y-2.4
X2.325Y-2.5
X2.325Y-2.6
X2.325Y-2.7
X2.325Y-2.8
X2.325Y-2.9
X2.325Y-3.0
X2.325Y-3.1
X2.325Y-3.2
X2.325Y-3.3
X2.325Y-3.4
X2.325Y-3.5
X2.325Y-3.6
X2.325Y-3.7
X2.325Y-3.8
X2.325Y-3.9
X2.325Y-4.0
X2.325Y-4.1
X2.325Y-4.2
X3.4537Y-2.4537
X3.5537Y-2.5537
X3.6537Y-2.4537
T4
X6.75Y-3.95
X6.8484Y-3.95
X6.9469Y-3.95
T5
X2.7Y-2.4
X2.8Y-2.4
X2.9Y-2.4
X6.025Y-4.35
X6.1234Y-4.35
X6.375Y-4.35
X6.4734Y-4.35
X6.75Y-4.3
X6.8484Y-4.3
X7.2Y-3.95
X7.2Y-4.3
X7.2984Y-3.95
X7.2984Y-4.3
T6
X3.05Y-3.0047
X3.05Y-3.5953
T8
X3.5084Y-5.0724
X4.0884Y-5.0724
X4.6084Y-5.0724
X5.1884Y-5.0724
T9
X3.95Y-3.5402
X3.95Y-3.7402
X3.95Y-3.9
X3.95Y-4.1
T10
X1.3Y-2.2
X1.3Y-5.0
X7.6Y-2.2
X7.6Y-5.0
T5
G00X2.6176Y-4.7886
M15
G01X2.657Y-4.7886
M16
G05
G00X2.6176Y-5.0051
M15
G01X2.657Y-5.0051
M16
G05
G00X2.6964Y-4.6429
M15
G01X2.7357Y-4.6429
M16
G05
G00X2.6964Y-5.0996
M15
G01X2.7357Y-5.0996
M16
G05
G00X3.0176Y-4.7886
M15
G01X3.057Y-4.7886
M16
G05
G00X3.0176Y-5.0051
M15
G01X3.057Y-5.0051
M16
G05
G00X3.0964Y-4.6429
M15
G01X3.1357Y-4.6429
M16
G05
G00X3.0964Y-5.0996
M15
G01X3.1357Y-5.0996
M16
G05
G00X5.9926Y-4.7886
M15
G01X6.032Y-4.7886
M16
G05
G00X5.9926Y-5.0051
M15
G01X6.032Y-5.0051
M16
G05
G00X6.0714Y-4.6429
M15
G01X6.1107Y-4.6429
M16
G05
G00X6.0714Y-5.0996
M15
G01X6.1107Y-5.0996
M16
G05
G00X6.3926Y-4.7886
M15
G01X6.432Y-4.7886
M16
G05
G00X6.3926Y-5.0051
M15
G01X6.432Y-5.0051
M16
G05
G00X6.4714Y-4.6429
M15
G01X6.5107Y-4.6429
M16
G05
G00X6.4714Y-5.0996
M15
G01X6.5107Y-5.0996
M16
G05
T7
G00X3.7164Y-4.3524
M15
G01X3.5605Y-4.3524
M16
G05
G00X4.0318Y-4.3524
M15
G01X3.8751Y-4.3524
M16
G05
G00X4.8164Y-4.3524
M15
G01X4.6605Y-4.3524
M16
G05
G00X5.1318Y-4.3524
M15
G01X4.9751Y-4.3524
M16
G05
T0
M30
