%TF.GenerationSoftware,KiCad,Pcbnew,6.0.2+dfsg-1*%
%TF.CreationDate,2022-12-07T15:13:48-05:00*%
%TF.ProjectId,dragon-lair-board,64726167-6f6e-42d6-9c61-69722d626f61,rev?*%
%TF.SameCoordinates,Original*%
%TF.FileFunction,Paste,Top*%
%TF.FilePolarity,Positive*%
%FSLAX46Y46*%
G04 Gerber Fmt 4.6, Leading zero omitted, Abs format (unit mm)*
G04 Created by KiCad (PCBNEW 6.0.2+dfsg-1) date 2022-12-07 15:13:48*
%MOMM*%
%LPD*%
G01*
G04 APERTURE LIST*
G04 Aperture macros list*
%AMRoundRect*
0 Rectangle with rounded corners*
0 $1 Rounding radius*
0 $2 $3 $4 $5 $6 $7 $8 $9 X,Y pos of 4 corners*
0 Add a 4 corners polygon primitive as box body*
4,1,4,$2,$3,$4,$5,$6,$7,$8,$9,$2,$3,0*
0 Add four circle primitives for the rounded corners*
1,1,$1+$1,$2,$3*
1,1,$1+$1,$4,$5*
1,1,$1+$1,$6,$7*
1,1,$1+$1,$8,$9*
0 Add four rect primitives between the rounded corners*
20,1,$1+$1,$2,$3,$4,$5,0*
20,1,$1+$1,$4,$5,$6,$7,0*
20,1,$1+$1,$6,$7,$8,$9,0*
20,1,$1+$1,$8,$9,$2,$3,0*%
G04 Aperture macros list end*
%ADD10RoundRect,0.200000X0.275000X-0.200000X0.275000X0.200000X-0.275000X0.200000X-0.275000X-0.200000X0*%
%ADD11R,5.250000X4.550000*%
%ADD12R,0.800000X4.600000*%
%ADD13RoundRect,0.200000X0.200000X0.275000X-0.200000X0.275000X-0.200000X-0.275000X0.200000X-0.275000X0*%
%ADD14RoundRect,0.200000X-0.275000X0.200000X-0.275000X-0.200000X0.275000X-0.200000X0.275000X0.200000X0*%
%ADD15RoundRect,0.225000X-0.250000X0.225000X-0.250000X-0.225000X0.250000X-0.225000X0.250000X0.225000X0*%
%ADD16RoundRect,0.225000X0.250000X-0.225000X0.250000X0.225000X-0.250000X0.225000X-0.250000X-0.225000X0*%
%ADD17RoundRect,0.250000X1.500000X0.550000X-1.500000X0.550000X-1.500000X-0.550000X1.500000X-0.550000X0*%
%ADD18RoundRect,0.400000X-1.000000X0.400000X-1.000000X-0.400000X1.000000X-0.400000X1.000000X0.400000X0*%
%ADD19RoundRect,0.200000X-0.200000X-0.275000X0.200000X-0.275000X0.200000X0.275000X-0.200000X0.275000X0*%
%ADD20RoundRect,0.100000X-0.637500X-0.100000X0.637500X-0.100000X0.637500X0.100000X-0.637500X0.100000X0*%
%ADD21RoundRect,0.225000X0.225000X0.250000X-0.225000X0.250000X-0.225000X-0.250000X0.225000X-0.250000X0*%
G04 APERTURE END LIST*
D10*
%TO.C,R3*%
X97790000Y-71500000D03*
X97790000Y-69850000D03*
%TD*%
D11*
%TO.C,Q1*%
X138665000Y-100445000D03*
X133115000Y-100445000D03*
X133115000Y-105295000D03*
X138665000Y-105295000D03*
D12*
X139700000Y-93720000D03*
X138430000Y-93720000D03*
X137160000Y-93720000D03*
X135890000Y-93720000D03*
X134620000Y-93720000D03*
X133350000Y-93720000D03*
X132080000Y-93720000D03*
%TD*%
D13*
%TO.C,R14*%
X110680000Y-70485000D03*
X109030000Y-70485000D03*
%TD*%
D14*
%TO.C,R2*%
X63500000Y-109855000D03*
X63500000Y-111505000D03*
%TD*%
D15*
%TO.C,C2*%
X63500000Y-60960000D03*
X63500000Y-62510000D03*
%TD*%
D10*
%TO.C,R20*%
X65405000Y-111505000D03*
X65405000Y-109855000D03*
%TD*%
%TO.C,R13*%
X95885000Y-71500000D03*
X95885000Y-69850000D03*
%TD*%
D14*
%TO.C,R19*%
X67310000Y-109855000D03*
X67310000Y-111505000D03*
%TD*%
D16*
%TO.C,C5*%
X108585000Y-88405000D03*
X108585000Y-86855000D03*
%TD*%
%TO.C,C9*%
X142875000Y-97930000D03*
X142875000Y-96380000D03*
%TD*%
D10*
%TO.C,R16*%
X137160000Y-88455000D03*
X137160000Y-86805000D03*
%TD*%
D17*
%TO.C,C4*%
X99220000Y-76835000D03*
X93820000Y-76835000D03*
%TD*%
D16*
%TO.C,C14*%
X110490000Y-88405000D03*
X110490000Y-86855000D03*
%TD*%
D14*
%TO.C,R21*%
X67310000Y-113030000D03*
X67310000Y-114680000D03*
%TD*%
D10*
%TO.C,R18*%
X112395000Y-88455000D03*
X112395000Y-86805000D03*
%TD*%
D18*
%TO.C,D1*%
X80010000Y-60960000D03*
X80010000Y-64760000D03*
%TD*%
D13*
%TO.C,R9*%
X110680000Y-66675000D03*
X109030000Y-66675000D03*
%TD*%
D10*
%TO.C,R22*%
X65405000Y-114680000D03*
X65405000Y-113030000D03*
%TD*%
%TO.C,R15*%
X135255000Y-88455000D03*
X135255000Y-86805000D03*
%TD*%
D13*
%TO.C,R12*%
X110680000Y-68580000D03*
X109030000Y-68580000D03*
%TD*%
D16*
%TO.C,C1*%
X83185000Y-64910000D03*
X83185000Y-63360000D03*
%TD*%
D10*
%TO.C,R6*%
X83185000Y-114680000D03*
X83185000Y-113030000D03*
%TD*%
D16*
%TO.C,C6*%
X131445000Y-88405000D03*
X131445000Y-86855000D03*
%TD*%
D19*
%TO.C,R11*%
X65215000Y-69850000D03*
X66865000Y-69850000D03*
%TD*%
D16*
%TO.C,C12*%
X139065000Y-88405000D03*
X139065000Y-86855000D03*
%TD*%
D10*
%TO.C,R5*%
X85090000Y-114680000D03*
X85090000Y-113030000D03*
%TD*%
%TO.C,R10*%
X98425000Y-67500000D03*
X98425000Y-65850000D03*
%TD*%
D15*
%TO.C,C7*%
X128905000Y-96380000D03*
X128905000Y-97930000D03*
%TD*%
D10*
%TO.C,R17*%
X114300000Y-88455000D03*
X114300000Y-86805000D03*
%TD*%
D16*
%TO.C,C11*%
X133350000Y-88405000D03*
X133350000Y-86855000D03*
%TD*%
D11*
%TO.C,Q2*%
X115805000Y-105295000D03*
X110255000Y-105295000D03*
X110255000Y-100445000D03*
X115805000Y-100445000D03*
D12*
X116840000Y-93720000D03*
X115570000Y-93720000D03*
X114300000Y-93720000D03*
X113030000Y-93720000D03*
X111760000Y-93720000D03*
X110490000Y-93720000D03*
X109220000Y-93720000D03*
%TD*%
D14*
%TO.C,R8*%
X98425000Y-62675000D03*
X98425000Y-64325000D03*
%TD*%
D13*
%TO.C,R7*%
X110680000Y-64770000D03*
X109030000Y-64770000D03*
%TD*%
D16*
%TO.C,C13*%
X116205000Y-88405000D03*
X116205000Y-86855000D03*
%TD*%
%TO.C,C10*%
X120015000Y-97930000D03*
X120015000Y-96380000D03*
%TD*%
D20*
%TO.C,U7*%
X100642500Y-64385000D03*
X100642500Y-65035000D03*
X100642500Y-65685000D03*
X100642500Y-66335000D03*
X100642500Y-66985000D03*
X100642500Y-67635000D03*
X100642500Y-68285000D03*
X100642500Y-68935000D03*
X100642500Y-69585000D03*
X100642500Y-70235000D03*
X106367500Y-70235000D03*
X106367500Y-69585000D03*
X106367500Y-68935000D03*
X106367500Y-68285000D03*
X106367500Y-67635000D03*
X106367500Y-66985000D03*
X106367500Y-66335000D03*
X106367500Y-65685000D03*
X106367500Y-65035000D03*
X106367500Y-64385000D03*
%TD*%
D14*
%TO.C,R1*%
X63500000Y-113030000D03*
X63500000Y-114680000D03*
%TD*%
D21*
%TO.C,C3*%
X104280000Y-62865000D03*
X102730000Y-62865000D03*
%TD*%
D15*
%TO.C,C8*%
X106045000Y-96380000D03*
X106045000Y-97930000D03*
%TD*%
M02*
