%TF.GenerationSoftware,KiCad,Pcbnew,6.0.2+dfsg-1*%
%TF.CreationDate,2022-12-07T15:13:48-05:00*%
%TF.ProjectId,dragon-lair-board,64726167-6f6e-42d6-9c61-69722d626f61,rev?*%
%TF.SameCoordinates,Original*%
%TF.FileFunction,Legend,Top*%
%TF.FilePolarity,Positive*%
%FSLAX46Y46*%
G04 Gerber Fmt 4.6, Leading zero omitted, Abs format (unit mm)*
G04 Created by KiCad (PCBNEW 6.0.2+dfsg-1) date 2022-12-07 15:13:48*
%MOMM*%
%LPD*%
G01*
G04 APERTURE LIST*
%ADD10C,0.150000*%
%ADD11C,0.254000*%
%ADD12C,0.120000*%
%ADD13C,0.127000*%
%ADD14C,0.340000*%
%ADD15C,0.100000*%
%ADD16C,0.200000*%
G04 APERTURE END LIST*
D10*
X161766428Y-103252380D02*
X161956904Y-103252380D01*
X162052142Y-103300000D01*
X162147380Y-103395238D01*
X162195000Y-103585714D01*
X162195000Y-103919047D01*
X162147380Y-104109523D01*
X162052142Y-104204761D01*
X161956904Y-104252380D01*
X161766428Y-104252380D01*
X161671190Y-104204761D01*
X161575952Y-104109523D01*
X161528333Y-103919047D01*
X161528333Y-103585714D01*
X161575952Y-103395238D01*
X161671190Y-103300000D01*
X161766428Y-103252380D01*
X162623571Y-103585714D02*
X162623571Y-104585714D01*
X162623571Y-103633333D02*
X162718809Y-103585714D01*
X162909285Y-103585714D01*
X163004523Y-103633333D01*
X163052142Y-103680952D01*
X163099761Y-103776190D01*
X163099761Y-104061904D01*
X163052142Y-104157142D01*
X163004523Y-104204761D01*
X162909285Y-104252380D01*
X162718809Y-104252380D01*
X162623571Y-104204761D01*
X163909285Y-104204761D02*
X163814047Y-104252380D01*
X163623571Y-104252380D01*
X163528333Y-104204761D01*
X163480714Y-104109523D01*
X163480714Y-103728571D01*
X163528333Y-103633333D01*
X163623571Y-103585714D01*
X163814047Y-103585714D01*
X163909285Y-103633333D01*
X163956904Y-103728571D01*
X163956904Y-103823809D01*
X163480714Y-103919047D01*
X164385476Y-103585714D02*
X164385476Y-104252380D01*
X164385476Y-103680952D02*
X164433095Y-103633333D01*
X164528333Y-103585714D01*
X164671190Y-103585714D01*
X164766428Y-103633333D01*
X164814047Y-103728571D01*
X164814047Y-104252380D01*
X162075952Y-105862380D02*
X161599761Y-105862380D01*
X161599761Y-104862380D01*
X162409285Y-105862380D02*
X162409285Y-105195714D01*
X162409285Y-104862380D02*
X162361666Y-104910000D01*
X162409285Y-104957619D01*
X162456904Y-104910000D01*
X162409285Y-104862380D01*
X162409285Y-104957619D01*
X162885476Y-105862380D02*
X162885476Y-105195714D01*
X162885476Y-105290952D02*
X162933095Y-105243333D01*
X163028333Y-105195714D01*
X163171190Y-105195714D01*
X163266428Y-105243333D01*
X163314047Y-105338571D01*
X163314047Y-105862380D01*
X163314047Y-105338571D02*
X163361666Y-105243333D01*
X163456904Y-105195714D01*
X163599761Y-105195714D01*
X163695000Y-105243333D01*
X163742619Y-105338571D01*
X163742619Y-105862380D01*
X164218809Y-105862380D02*
X164218809Y-105195714D01*
X164218809Y-104862380D02*
X164171190Y-104910000D01*
X164218809Y-104957619D01*
X164266428Y-104910000D01*
X164218809Y-104862380D01*
X164218809Y-104957619D01*
X164552142Y-105195714D02*
X164933095Y-105195714D01*
X164695000Y-104862380D02*
X164695000Y-105719523D01*
X164742619Y-105814761D01*
X164837857Y-105862380D01*
X164933095Y-105862380D01*
X160980714Y-107424761D02*
X161123571Y-107472380D01*
X161361666Y-107472380D01*
X161456904Y-107424761D01*
X161504523Y-107377142D01*
X161552142Y-107281904D01*
X161552142Y-107186666D01*
X161504523Y-107091428D01*
X161456904Y-107043809D01*
X161361666Y-106996190D01*
X161171190Y-106948571D01*
X161075952Y-106900952D01*
X161028333Y-106853333D01*
X160980714Y-106758095D01*
X160980714Y-106662857D01*
X161028333Y-106567619D01*
X161075952Y-106520000D01*
X161171190Y-106472380D01*
X161409285Y-106472380D01*
X161552142Y-106520000D01*
X161885476Y-106805714D02*
X162075952Y-107472380D01*
X162266428Y-106996190D01*
X162456904Y-107472380D01*
X162647380Y-106805714D01*
X163028333Y-107472380D02*
X163028333Y-106805714D01*
X163028333Y-106472380D02*
X162980714Y-106520000D01*
X163028333Y-106567619D01*
X163075952Y-106520000D01*
X163028333Y-106472380D01*
X163028333Y-106567619D01*
X163361666Y-106805714D02*
X163742619Y-106805714D01*
X163504523Y-106472380D02*
X163504523Y-107329523D01*
X163552142Y-107424761D01*
X163647380Y-107472380D01*
X163742619Y-107472380D01*
X164504523Y-107424761D02*
X164409285Y-107472380D01*
X164218809Y-107472380D01*
X164123571Y-107424761D01*
X164075952Y-107377142D01*
X164028333Y-107281904D01*
X164028333Y-106996190D01*
X164075952Y-106900952D01*
X164123571Y-106853333D01*
X164218809Y-106805714D01*
X164409285Y-106805714D01*
X164504523Y-106853333D01*
X164933095Y-107472380D02*
X164933095Y-106472380D01*
X165361666Y-107472380D02*
X165361666Y-106948571D01*
X165314047Y-106853333D01*
X165218809Y-106805714D01*
X165075952Y-106805714D01*
X164980714Y-106853333D01*
X164933095Y-106900952D01*
X106380595Y-128552380D02*
X106380595Y-127552380D01*
X106761547Y-127552380D01*
X106856785Y-127600000D01*
X106904404Y-127647619D01*
X106952023Y-127742857D01*
X106952023Y-127885714D01*
X106904404Y-127980952D01*
X106856785Y-128028571D01*
X106761547Y-128076190D01*
X106380595Y-128076190D01*
X107523452Y-128552380D02*
X107428214Y-128504761D01*
X107380595Y-128457142D01*
X107332976Y-128361904D01*
X107332976Y-128076190D01*
X107380595Y-127980952D01*
X107428214Y-127933333D01*
X107523452Y-127885714D01*
X107666309Y-127885714D01*
X107761547Y-127933333D01*
X107809166Y-127980952D01*
X107856785Y-128076190D01*
X107856785Y-128361904D01*
X107809166Y-128457142D01*
X107761547Y-128504761D01*
X107666309Y-128552380D01*
X107523452Y-128552380D01*
X108190119Y-127885714D02*
X108380595Y-128552380D01*
X108571071Y-128076190D01*
X108761547Y-128552380D01*
X108952023Y-127885714D01*
X109713928Y-128504761D02*
X109618690Y-128552380D01*
X109428214Y-128552380D01*
X109332976Y-128504761D01*
X109285357Y-128409523D01*
X109285357Y-128028571D01*
X109332976Y-127933333D01*
X109428214Y-127885714D01*
X109618690Y-127885714D01*
X109713928Y-127933333D01*
X109761547Y-128028571D01*
X109761547Y-128123809D01*
X109285357Y-128219047D01*
X110190119Y-128552380D02*
X110190119Y-127885714D01*
X110190119Y-128076190D02*
X110237738Y-127980952D01*
X110285357Y-127933333D01*
X110380595Y-127885714D01*
X110475833Y-127885714D01*
X106904404Y-130162380D02*
X106332976Y-130162380D01*
X106618690Y-130162380D02*
X106618690Y-129162380D01*
X106523452Y-129305238D01*
X106428214Y-129400476D01*
X106332976Y-129448095D01*
X107856785Y-130162380D02*
X107285357Y-130162380D01*
X107571071Y-130162380D02*
X107571071Y-129162380D01*
X107475833Y-129305238D01*
X107380595Y-129400476D01*
X107285357Y-129448095D01*
X108285357Y-129781428D02*
X109047261Y-129781428D01*
X110047261Y-130162380D02*
X109475833Y-130162380D01*
X109761547Y-130162380D02*
X109761547Y-129162380D01*
X109666309Y-129305238D01*
X109571071Y-129400476D01*
X109475833Y-129448095D01*
X110904404Y-129495714D02*
X110904404Y-130162380D01*
X110666309Y-129114761D02*
X110428214Y-129829047D01*
X111047261Y-129829047D01*
X111332976Y-129495714D02*
X111571071Y-130162380D01*
X111809166Y-129495714D01*
X86360476Y-56332380D02*
X86360476Y-55332380D01*
X86693809Y-56046666D01*
X87027142Y-55332380D01*
X87027142Y-56332380D01*
X87931904Y-56332380D02*
X87931904Y-55808571D01*
X87884285Y-55713333D01*
X87789047Y-55665714D01*
X87598571Y-55665714D01*
X87503333Y-55713333D01*
X87931904Y-56284761D02*
X87836666Y-56332380D01*
X87598571Y-56332380D01*
X87503333Y-56284761D01*
X87455714Y-56189523D01*
X87455714Y-56094285D01*
X87503333Y-55999047D01*
X87598571Y-55951428D01*
X87836666Y-55951428D01*
X87931904Y-55903809D01*
X88312857Y-56332380D02*
X88836666Y-55665714D01*
X88312857Y-55665714D02*
X88836666Y-56332380D01*
X89931904Y-56284761D02*
X90074761Y-56332380D01*
X90312857Y-56332380D01*
X90408095Y-56284761D01*
X90455714Y-56237142D01*
X90503333Y-56141904D01*
X90503333Y-56046666D01*
X90455714Y-55951428D01*
X90408095Y-55903809D01*
X90312857Y-55856190D01*
X90122380Y-55808571D01*
X90027142Y-55760952D01*
X89979523Y-55713333D01*
X89931904Y-55618095D01*
X89931904Y-55522857D01*
X89979523Y-55427619D01*
X90027142Y-55380000D01*
X90122380Y-55332380D01*
X90360476Y-55332380D01*
X90503333Y-55380000D01*
X90931904Y-55665714D02*
X90931904Y-56665714D01*
X90931904Y-55713333D02*
X91027142Y-55665714D01*
X91217619Y-55665714D01*
X91312857Y-55713333D01*
X91360476Y-55760952D01*
X91408095Y-55856190D01*
X91408095Y-56141904D01*
X91360476Y-56237142D01*
X91312857Y-56284761D01*
X91217619Y-56332380D01*
X91027142Y-56332380D01*
X90931904Y-56284761D01*
X92217619Y-56284761D02*
X92122380Y-56332380D01*
X91931904Y-56332380D01*
X91836666Y-56284761D01*
X91789047Y-56189523D01*
X91789047Y-55808571D01*
X91836666Y-55713333D01*
X91931904Y-55665714D01*
X92122380Y-55665714D01*
X92217619Y-55713333D01*
X92265238Y-55808571D01*
X92265238Y-55903809D01*
X91789047Y-55999047D01*
X93074761Y-56284761D02*
X92979523Y-56332380D01*
X92789047Y-56332380D01*
X92693809Y-56284761D01*
X92646190Y-56189523D01*
X92646190Y-55808571D01*
X92693809Y-55713333D01*
X92789047Y-55665714D01*
X92979523Y-55665714D01*
X93074761Y-55713333D01*
X93122380Y-55808571D01*
X93122380Y-55903809D01*
X92646190Y-55999047D01*
X93979523Y-56332380D02*
X93979523Y-55332380D01*
X93979523Y-56284761D02*
X93884285Y-56332380D01*
X93693809Y-56332380D01*
X93598571Y-56284761D01*
X93550952Y-56237142D01*
X93503333Y-56141904D01*
X93503333Y-55856190D01*
X93550952Y-55760952D01*
X93598571Y-55713333D01*
X93693809Y-55665714D01*
X93884285Y-55665714D01*
X93979523Y-55713333D01*
X37393571Y-131127142D02*
X37393571Y-130793809D01*
X37917380Y-130650952D02*
X37917380Y-131127142D01*
X36917380Y-131127142D01*
X36917380Y-130650952D01*
X37250714Y-130365238D02*
X37250714Y-129984285D01*
X36917380Y-130222380D02*
X37774523Y-130222380D01*
X37869761Y-130174761D01*
X37917380Y-130079523D01*
X37917380Y-129984285D01*
X37917380Y-129650952D02*
X36917380Y-129650952D01*
X37917380Y-129222380D02*
X37393571Y-129222380D01*
X37298333Y-129270000D01*
X37250714Y-129365238D01*
X37250714Y-129508095D01*
X37298333Y-129603333D01*
X37345952Y-129650952D01*
X37869761Y-128365238D02*
X37917380Y-128460476D01*
X37917380Y-128650952D01*
X37869761Y-128746190D01*
X37774523Y-128793809D01*
X37393571Y-128793809D01*
X37298333Y-128746190D01*
X37250714Y-128650952D01*
X37250714Y-128460476D01*
X37298333Y-128365238D01*
X37393571Y-128317619D01*
X37488809Y-128317619D01*
X37584047Y-128793809D01*
X37917380Y-127889047D02*
X37250714Y-127889047D01*
X37441190Y-127889047D02*
X37345952Y-127841428D01*
X37298333Y-127793809D01*
X37250714Y-127698571D01*
X37250714Y-127603333D01*
X37250714Y-127270000D02*
X37917380Y-127270000D01*
X37345952Y-127270000D02*
X37298333Y-127222380D01*
X37250714Y-127127142D01*
X37250714Y-126984285D01*
X37298333Y-126889047D01*
X37393571Y-126841428D01*
X37917380Y-126841428D01*
X37869761Y-125984285D02*
X37917380Y-126079523D01*
X37917380Y-126270000D01*
X37869761Y-126365238D01*
X37774523Y-126412857D01*
X37393571Y-126412857D01*
X37298333Y-126365238D01*
X37250714Y-126270000D01*
X37250714Y-126079523D01*
X37298333Y-125984285D01*
X37393571Y-125936666D01*
X37488809Y-125936666D01*
X37584047Y-126412857D01*
X37250714Y-125650952D02*
X37250714Y-125270000D01*
X36917380Y-125508095D02*
X37774523Y-125508095D01*
X37869761Y-125460476D01*
X37917380Y-125365238D01*
X37917380Y-125270000D01*
X134320595Y-129357380D02*
X134320595Y-128357380D01*
X134653928Y-129071666D01*
X134987261Y-128357380D01*
X134987261Y-129357380D01*
X135606309Y-129357380D02*
X135511071Y-129309761D01*
X135463452Y-129262142D01*
X135415833Y-129166904D01*
X135415833Y-128881190D01*
X135463452Y-128785952D01*
X135511071Y-128738333D01*
X135606309Y-128690714D01*
X135749166Y-128690714D01*
X135844404Y-128738333D01*
X135892023Y-128785952D01*
X135939642Y-128881190D01*
X135939642Y-129166904D01*
X135892023Y-129262142D01*
X135844404Y-129309761D01*
X135749166Y-129357380D01*
X135606309Y-129357380D01*
X136225357Y-128690714D02*
X136606309Y-128690714D01*
X136368214Y-128357380D02*
X136368214Y-129214523D01*
X136415833Y-129309761D01*
X136511071Y-129357380D01*
X136606309Y-129357380D01*
X137082500Y-129357380D02*
X136987261Y-129309761D01*
X136939642Y-129262142D01*
X136892023Y-129166904D01*
X136892023Y-128881190D01*
X136939642Y-128785952D01*
X136987261Y-128738333D01*
X137082500Y-128690714D01*
X137225357Y-128690714D01*
X137320595Y-128738333D01*
X137368214Y-128785952D01*
X137415833Y-128881190D01*
X137415833Y-129166904D01*
X137368214Y-129262142D01*
X137320595Y-129309761D01*
X137225357Y-129357380D01*
X137082500Y-129357380D01*
X137844404Y-129357380D02*
X137844404Y-128690714D01*
X137844404Y-128881190D02*
X137892023Y-128785952D01*
X137939642Y-128738333D01*
X138034880Y-128690714D01*
X138130119Y-128690714D01*
X182911904Y-96877142D02*
X182864285Y-96924761D01*
X182721428Y-96972380D01*
X182626190Y-96972380D01*
X182483333Y-96924761D01*
X182388095Y-96829523D01*
X182340476Y-96734285D01*
X182292857Y-96543809D01*
X182292857Y-96400952D01*
X182340476Y-96210476D01*
X182388095Y-96115238D01*
X182483333Y-96020000D01*
X182626190Y-95972380D01*
X182721428Y-95972380D01*
X182864285Y-96020000D01*
X182911904Y-96067619D01*
X183483333Y-96972380D02*
X183388095Y-96924761D01*
X183340476Y-96829523D01*
X183340476Y-95972380D01*
X184007142Y-96972380D02*
X183911904Y-96924761D01*
X183864285Y-96877142D01*
X183816666Y-96781904D01*
X183816666Y-96496190D01*
X183864285Y-96400952D01*
X183911904Y-96353333D01*
X184007142Y-96305714D01*
X184150000Y-96305714D01*
X184245238Y-96353333D01*
X184292857Y-96400952D01*
X184340476Y-96496190D01*
X184340476Y-96781904D01*
X184292857Y-96877142D01*
X184245238Y-96924761D01*
X184150000Y-96972380D01*
X184007142Y-96972380D01*
X184721428Y-96924761D02*
X184816666Y-96972380D01*
X185007142Y-96972380D01*
X185102380Y-96924761D01*
X185150000Y-96829523D01*
X185150000Y-96781904D01*
X185102380Y-96686666D01*
X185007142Y-96639047D01*
X184864285Y-96639047D01*
X184769047Y-96591428D01*
X184721428Y-96496190D01*
X184721428Y-96448571D01*
X184769047Y-96353333D01*
X184864285Y-96305714D01*
X185007142Y-96305714D01*
X185102380Y-96353333D01*
X185959523Y-96924761D02*
X185864285Y-96972380D01*
X185673809Y-96972380D01*
X185578571Y-96924761D01*
X185530952Y-96829523D01*
X185530952Y-96448571D01*
X185578571Y-96353333D01*
X185673809Y-96305714D01*
X185864285Y-96305714D01*
X185959523Y-96353333D01*
X186007142Y-96448571D01*
X186007142Y-96543809D01*
X185530952Y-96639047D01*
X182721428Y-104862380D02*
X182911904Y-104862380D01*
X183007142Y-104910000D01*
X183102380Y-105005238D01*
X183150000Y-105195714D01*
X183150000Y-105529047D01*
X183102380Y-105719523D01*
X183007142Y-105814761D01*
X182911904Y-105862380D01*
X182721428Y-105862380D01*
X182626190Y-105814761D01*
X182530952Y-105719523D01*
X182483333Y-105529047D01*
X182483333Y-105195714D01*
X182530952Y-105005238D01*
X182626190Y-104910000D01*
X182721428Y-104862380D01*
X183578571Y-105195714D02*
X183578571Y-106195714D01*
X183578571Y-105243333D02*
X183673809Y-105195714D01*
X183864285Y-105195714D01*
X183959523Y-105243333D01*
X184007142Y-105290952D01*
X184054761Y-105386190D01*
X184054761Y-105671904D01*
X184007142Y-105767142D01*
X183959523Y-105814761D01*
X183864285Y-105862380D01*
X183673809Y-105862380D01*
X183578571Y-105814761D01*
X184864285Y-105814761D02*
X184769047Y-105862380D01*
X184578571Y-105862380D01*
X184483333Y-105814761D01*
X184435714Y-105719523D01*
X184435714Y-105338571D01*
X184483333Y-105243333D01*
X184578571Y-105195714D01*
X184769047Y-105195714D01*
X184864285Y-105243333D01*
X184911904Y-105338571D01*
X184911904Y-105433809D01*
X184435714Y-105529047D01*
X185340476Y-105195714D02*
X185340476Y-105862380D01*
X185340476Y-105290952D02*
X185388095Y-105243333D01*
X185483333Y-105195714D01*
X185626190Y-105195714D01*
X185721428Y-105243333D01*
X185769047Y-105338571D01*
X185769047Y-105862380D01*
X170981904Y-105576666D02*
X171458095Y-105576666D01*
X170886666Y-105862380D02*
X171220000Y-104862380D01*
X171553333Y-105862380D01*
X171886666Y-105862380D02*
X171886666Y-104862380D01*
X171886666Y-105243333D02*
X171981904Y-105195714D01*
X172172380Y-105195714D01*
X172267619Y-105243333D01*
X172315238Y-105290952D01*
X172362857Y-105386190D01*
X172362857Y-105671904D01*
X172315238Y-105767142D01*
X172267619Y-105814761D01*
X172172380Y-105862380D01*
X171981904Y-105862380D01*
X171886666Y-105814761D01*
X172934285Y-105862380D02*
X172839047Y-105814761D01*
X172791428Y-105767142D01*
X172743809Y-105671904D01*
X172743809Y-105386190D01*
X172791428Y-105290952D01*
X172839047Y-105243333D01*
X172934285Y-105195714D01*
X173077142Y-105195714D01*
X173172380Y-105243333D01*
X173220000Y-105290952D01*
X173267619Y-105386190D01*
X173267619Y-105671904D01*
X173220000Y-105767142D01*
X173172380Y-105814761D01*
X173077142Y-105862380D01*
X172934285Y-105862380D01*
X173696190Y-105862380D02*
X173696190Y-105195714D01*
X173696190Y-105386190D02*
X173743809Y-105290952D01*
X173791428Y-105243333D01*
X173886666Y-105195714D01*
X173981904Y-105195714D01*
X174172380Y-105195714D02*
X174553333Y-105195714D01*
X174315238Y-104862380D02*
X174315238Y-105719523D01*
X174362857Y-105814761D01*
X174458095Y-105862380D01*
X174553333Y-105862380D01*
X190897142Y-122340714D02*
X191135238Y-123007380D01*
X191373333Y-122340714D01*
X192278095Y-123007380D02*
X191706666Y-123007380D01*
X191992380Y-123007380D02*
X191992380Y-122007380D01*
X191897142Y-122150238D01*
X191801904Y-122245476D01*
X191706666Y-122293095D01*
X192706666Y-122912142D02*
X192754285Y-122959761D01*
X192706666Y-123007380D01*
X192659047Y-122959761D01*
X192706666Y-122912142D01*
X192706666Y-123007380D01*
X193706666Y-123007380D02*
X193135238Y-123007380D01*
X193420952Y-123007380D02*
X193420952Y-122007380D01*
X193325714Y-122150238D01*
X193230476Y-122245476D01*
X193135238Y-122293095D01*
X194135238Y-122912142D02*
X194182857Y-122959761D01*
X194135238Y-123007380D01*
X194087619Y-122959761D01*
X194135238Y-122912142D01*
X194135238Y-123007380D01*
X194563809Y-122102619D02*
X194611428Y-122055000D01*
X194706666Y-122007380D01*
X194944761Y-122007380D01*
X195040000Y-122055000D01*
X195087619Y-122102619D01*
X195135238Y-122197857D01*
X195135238Y-122293095D01*
X195087619Y-122435952D01*
X194516190Y-123007380D01*
X195135238Y-123007380D01*
X153066904Y-104157142D02*
X153019285Y-104204761D01*
X152876428Y-104252380D01*
X152781190Y-104252380D01*
X152638333Y-104204761D01*
X152543095Y-104109523D01*
X152495476Y-104014285D01*
X152447857Y-103823809D01*
X152447857Y-103680952D01*
X152495476Y-103490476D01*
X152543095Y-103395238D01*
X152638333Y-103300000D01*
X152781190Y-103252380D01*
X152876428Y-103252380D01*
X153019285Y-103300000D01*
X153066904Y-103347619D01*
X153638333Y-104252380D02*
X153543095Y-104204761D01*
X153495476Y-104109523D01*
X153495476Y-103252380D01*
X154162142Y-104252380D02*
X154066904Y-104204761D01*
X154019285Y-104157142D01*
X153971666Y-104061904D01*
X153971666Y-103776190D01*
X154019285Y-103680952D01*
X154066904Y-103633333D01*
X154162142Y-103585714D01*
X154305000Y-103585714D01*
X154400238Y-103633333D01*
X154447857Y-103680952D01*
X154495476Y-103776190D01*
X154495476Y-104061904D01*
X154447857Y-104157142D01*
X154400238Y-104204761D01*
X154305000Y-104252380D01*
X154162142Y-104252380D01*
X154876428Y-104204761D02*
X154971666Y-104252380D01*
X155162142Y-104252380D01*
X155257380Y-104204761D01*
X155305000Y-104109523D01*
X155305000Y-104061904D01*
X155257380Y-103966666D01*
X155162142Y-103919047D01*
X155019285Y-103919047D01*
X154924047Y-103871428D01*
X154876428Y-103776190D01*
X154876428Y-103728571D01*
X154924047Y-103633333D01*
X155019285Y-103585714D01*
X155162142Y-103585714D01*
X155257380Y-103633333D01*
X156114523Y-104204761D02*
X156019285Y-104252380D01*
X155828809Y-104252380D01*
X155733571Y-104204761D01*
X155685952Y-104109523D01*
X155685952Y-103728571D01*
X155733571Y-103633333D01*
X155828809Y-103585714D01*
X156019285Y-103585714D01*
X156114523Y-103633333D01*
X156162142Y-103728571D01*
X156162142Y-103823809D01*
X155685952Y-103919047D01*
X153185952Y-105862380D02*
X152709761Y-105862380D01*
X152709761Y-104862380D01*
X153519285Y-105862380D02*
X153519285Y-105195714D01*
X153519285Y-104862380D02*
X153471666Y-104910000D01*
X153519285Y-104957619D01*
X153566904Y-104910000D01*
X153519285Y-104862380D01*
X153519285Y-104957619D01*
X153995476Y-105862380D02*
X153995476Y-105195714D01*
X153995476Y-105290952D02*
X154043095Y-105243333D01*
X154138333Y-105195714D01*
X154281190Y-105195714D01*
X154376428Y-105243333D01*
X154424047Y-105338571D01*
X154424047Y-105862380D01*
X154424047Y-105338571D02*
X154471666Y-105243333D01*
X154566904Y-105195714D01*
X154709761Y-105195714D01*
X154805000Y-105243333D01*
X154852619Y-105338571D01*
X154852619Y-105862380D01*
X155328809Y-105862380D02*
X155328809Y-105195714D01*
X155328809Y-104862380D02*
X155281190Y-104910000D01*
X155328809Y-104957619D01*
X155376428Y-104910000D01*
X155328809Y-104862380D01*
X155328809Y-104957619D01*
X155662142Y-105195714D02*
X156043095Y-105195714D01*
X155805000Y-104862380D02*
X155805000Y-105719523D01*
X155852619Y-105814761D01*
X155947857Y-105862380D01*
X156043095Y-105862380D01*
X152090714Y-107424761D02*
X152233571Y-107472380D01*
X152471666Y-107472380D01*
X152566904Y-107424761D01*
X152614523Y-107377142D01*
X152662142Y-107281904D01*
X152662142Y-107186666D01*
X152614523Y-107091428D01*
X152566904Y-107043809D01*
X152471666Y-106996190D01*
X152281190Y-106948571D01*
X152185952Y-106900952D01*
X152138333Y-106853333D01*
X152090714Y-106758095D01*
X152090714Y-106662857D01*
X152138333Y-106567619D01*
X152185952Y-106520000D01*
X152281190Y-106472380D01*
X152519285Y-106472380D01*
X152662142Y-106520000D01*
X152995476Y-106805714D02*
X153185952Y-107472380D01*
X153376428Y-106996190D01*
X153566904Y-107472380D01*
X153757380Y-106805714D01*
X154138333Y-107472380D02*
X154138333Y-106805714D01*
X154138333Y-106472380D02*
X154090714Y-106520000D01*
X154138333Y-106567619D01*
X154185952Y-106520000D01*
X154138333Y-106472380D01*
X154138333Y-106567619D01*
X154471666Y-106805714D02*
X154852619Y-106805714D01*
X154614523Y-106472380D02*
X154614523Y-107329523D01*
X154662142Y-107424761D01*
X154757380Y-107472380D01*
X154852619Y-107472380D01*
X155614523Y-107424761D02*
X155519285Y-107472380D01*
X155328809Y-107472380D01*
X155233571Y-107424761D01*
X155185952Y-107377142D01*
X155138333Y-107281904D01*
X155138333Y-106996190D01*
X155185952Y-106900952D01*
X155233571Y-106853333D01*
X155328809Y-106805714D01*
X155519285Y-106805714D01*
X155614523Y-106853333D01*
X156043095Y-107472380D02*
X156043095Y-106472380D01*
X156471666Y-107472380D02*
X156471666Y-106948571D01*
X156424047Y-106853333D01*
X156328809Y-106805714D01*
X156185952Y-106805714D01*
X156090714Y-106853333D01*
X156043095Y-106900952D01*
X117293809Y-59972380D02*
X117293809Y-58972380D01*
X117531904Y-58972380D01*
X117674761Y-59020000D01*
X117770000Y-59115238D01*
X117817619Y-59210476D01*
X117865238Y-59400952D01*
X117865238Y-59543809D01*
X117817619Y-59734285D01*
X117770000Y-59829523D01*
X117674761Y-59924761D01*
X117531904Y-59972380D01*
X117293809Y-59972380D01*
X118722380Y-59972380D02*
X118722380Y-59448571D01*
X118674761Y-59353333D01*
X118579523Y-59305714D01*
X118389047Y-59305714D01*
X118293809Y-59353333D01*
X118722380Y-59924761D02*
X118627142Y-59972380D01*
X118389047Y-59972380D01*
X118293809Y-59924761D01*
X118246190Y-59829523D01*
X118246190Y-59734285D01*
X118293809Y-59639047D01*
X118389047Y-59591428D01*
X118627142Y-59591428D01*
X118722380Y-59543809D01*
X119198571Y-59972380D02*
X119198571Y-59305714D01*
X119198571Y-59496190D02*
X119246190Y-59400952D01*
X119293809Y-59353333D01*
X119389047Y-59305714D01*
X119484285Y-59305714D01*
X119817619Y-59972380D02*
X119817619Y-58972380D01*
X119912857Y-59591428D02*
X120198571Y-59972380D01*
X120198571Y-59305714D02*
X119817619Y-59686666D01*
X121389047Y-59972380D02*
X121389047Y-58972380D01*
X121627142Y-58972380D01*
X121770000Y-59020000D01*
X121865238Y-59115238D01*
X121912857Y-59210476D01*
X121960476Y-59400952D01*
X121960476Y-59543809D01*
X121912857Y-59734285D01*
X121865238Y-59829523D01*
X121770000Y-59924761D01*
X121627142Y-59972380D01*
X121389047Y-59972380D01*
X122389047Y-59972380D02*
X122389047Y-59305714D01*
X122389047Y-59496190D02*
X122436666Y-59400952D01*
X122484285Y-59353333D01*
X122579523Y-59305714D01*
X122674761Y-59305714D01*
X123436666Y-59972380D02*
X123436666Y-59448571D01*
X123389047Y-59353333D01*
X123293809Y-59305714D01*
X123103333Y-59305714D01*
X123008095Y-59353333D01*
X123436666Y-59924761D02*
X123341428Y-59972380D01*
X123103333Y-59972380D01*
X123008095Y-59924761D01*
X122960476Y-59829523D01*
X122960476Y-59734285D01*
X123008095Y-59639047D01*
X123103333Y-59591428D01*
X123341428Y-59591428D01*
X123436666Y-59543809D01*
X124341428Y-59305714D02*
X124341428Y-60115238D01*
X124293809Y-60210476D01*
X124246190Y-60258095D01*
X124150952Y-60305714D01*
X124008095Y-60305714D01*
X123912857Y-60258095D01*
X124341428Y-59924761D02*
X124246190Y-59972380D01*
X124055714Y-59972380D01*
X123960476Y-59924761D01*
X123912857Y-59877142D01*
X123865238Y-59781904D01*
X123865238Y-59496190D01*
X123912857Y-59400952D01*
X123960476Y-59353333D01*
X124055714Y-59305714D01*
X124246190Y-59305714D01*
X124341428Y-59353333D01*
X124960476Y-59972380D02*
X124865238Y-59924761D01*
X124817619Y-59877142D01*
X124770000Y-59781904D01*
X124770000Y-59496190D01*
X124817619Y-59400952D01*
X124865238Y-59353333D01*
X124960476Y-59305714D01*
X125103333Y-59305714D01*
X125198571Y-59353333D01*
X125246190Y-59400952D01*
X125293809Y-59496190D01*
X125293809Y-59781904D01*
X125246190Y-59877142D01*
X125198571Y-59924761D01*
X125103333Y-59972380D01*
X124960476Y-59972380D01*
X125722380Y-59305714D02*
X125722380Y-59972380D01*
X125722380Y-59400952D02*
X125770000Y-59353333D01*
X125865238Y-59305714D01*
X126008095Y-59305714D01*
X126103333Y-59353333D01*
X126150952Y-59448571D01*
X126150952Y-59972380D01*
X126579523Y-59924761D02*
X126674761Y-59972380D01*
X126865238Y-59972380D01*
X126960476Y-59924761D01*
X127008095Y-59829523D01*
X127008095Y-59781904D01*
X126960476Y-59686666D01*
X126865238Y-59639047D01*
X126722380Y-59639047D01*
X126627142Y-59591428D01*
X126579523Y-59496190D01*
X126579523Y-59448571D01*
X126627142Y-59353333D01*
X126722380Y-59305714D01*
X126865238Y-59305714D01*
X126960476Y-59353333D01*
X128150952Y-59686666D02*
X128627142Y-59686666D01*
X128055714Y-59972380D02*
X128389047Y-58972380D01*
X128722380Y-59972380D01*
X129008095Y-59924761D02*
X129103333Y-59972380D01*
X129293809Y-59972380D01*
X129389047Y-59924761D01*
X129436666Y-59829523D01*
X129436666Y-59781904D01*
X129389047Y-59686666D01*
X129293809Y-59639047D01*
X129150952Y-59639047D01*
X129055714Y-59591428D01*
X129008095Y-59496190D01*
X129008095Y-59448571D01*
X129055714Y-59353333D01*
X129150952Y-59305714D01*
X129293809Y-59305714D01*
X129389047Y-59353333D01*
X129722380Y-59305714D02*
X130103333Y-59305714D01*
X129865238Y-58972380D02*
X129865238Y-59829523D01*
X129912857Y-59924761D01*
X130008095Y-59972380D01*
X130103333Y-59972380D01*
X130436666Y-59972380D02*
X130436666Y-59305714D01*
X130436666Y-59496190D02*
X130484285Y-59400952D01*
X130531904Y-59353333D01*
X130627142Y-59305714D01*
X130722380Y-59305714D01*
X131198571Y-59972380D02*
X131103333Y-59924761D01*
X131055714Y-59877142D01*
X131008095Y-59781904D01*
X131008095Y-59496190D01*
X131055714Y-59400952D01*
X131103333Y-59353333D01*
X131198571Y-59305714D01*
X131341428Y-59305714D01*
X131436666Y-59353333D01*
X131484285Y-59400952D01*
X131531904Y-59496190D01*
X131531904Y-59781904D01*
X131484285Y-59877142D01*
X131436666Y-59924761D01*
X131341428Y-59972380D01*
X131198571Y-59972380D01*
X131960476Y-59305714D02*
X131960476Y-59972380D01*
X131960476Y-59400952D02*
X132008095Y-59353333D01*
X132103333Y-59305714D01*
X132246190Y-59305714D01*
X132341428Y-59353333D01*
X132389047Y-59448571D01*
X132389047Y-59972380D01*
X133008095Y-59972380D02*
X132912857Y-59924761D01*
X132865238Y-59877142D01*
X132817619Y-59781904D01*
X132817619Y-59496190D01*
X132865238Y-59400952D01*
X132912857Y-59353333D01*
X133008095Y-59305714D01*
X133150952Y-59305714D01*
X133246190Y-59353333D01*
X133293809Y-59400952D01*
X133341428Y-59496190D01*
X133341428Y-59781904D01*
X133293809Y-59877142D01*
X133246190Y-59924761D01*
X133150952Y-59972380D01*
X133008095Y-59972380D01*
X133770000Y-59972380D02*
X133770000Y-59305714D01*
X133770000Y-59400952D02*
X133817619Y-59353333D01*
X133912857Y-59305714D01*
X134055714Y-59305714D01*
X134150952Y-59353333D01*
X134198571Y-59448571D01*
X134198571Y-59972380D01*
X134198571Y-59448571D02*
X134246190Y-59353333D01*
X134341428Y-59305714D01*
X134484285Y-59305714D01*
X134579523Y-59353333D01*
X134627142Y-59448571D01*
X134627142Y-59972380D01*
X135008095Y-59305714D02*
X135246190Y-59972380D01*
X135484285Y-59305714D02*
X135246190Y-59972380D01*
X135150952Y-60210476D01*
X135103333Y-60258095D01*
X135008095Y-60305714D01*
X135912857Y-59924761D02*
X135912857Y-59972380D01*
X135865238Y-60067619D01*
X135817619Y-60115238D01*
X137579523Y-59972380D02*
X137103333Y-59972380D01*
X137103333Y-58972380D01*
X138389047Y-59972380D02*
X137912857Y-59972380D01*
X137912857Y-58972380D01*
X139293809Y-59877142D02*
X139246190Y-59924761D01*
X139103333Y-59972380D01*
X139008095Y-59972380D01*
X138865238Y-59924761D01*
X138770000Y-59829523D01*
X138722380Y-59734285D01*
X138674761Y-59543809D01*
X138674761Y-59400952D01*
X138722380Y-59210476D01*
X138770000Y-59115238D01*
X138865238Y-59020000D01*
X139008095Y-58972380D01*
X139103333Y-58972380D01*
X139246190Y-59020000D01*
X139293809Y-59067619D01*
X116555714Y-61582380D02*
X116555714Y-60582380D01*
X116793809Y-60582380D01*
X116936666Y-60630000D01*
X117031904Y-60725238D01*
X117079523Y-60820476D01*
X117127142Y-61010952D01*
X117127142Y-61153809D01*
X117079523Y-61344285D01*
X117031904Y-61439523D01*
X116936666Y-61534761D01*
X116793809Y-61582380D01*
X116555714Y-61582380D01*
X117555714Y-61582380D02*
X117555714Y-60915714D01*
X117555714Y-61106190D02*
X117603333Y-61010952D01*
X117650952Y-60963333D01*
X117746190Y-60915714D01*
X117841428Y-60915714D01*
X118603333Y-61582380D02*
X118603333Y-61058571D01*
X118555714Y-60963333D01*
X118460476Y-60915714D01*
X118270000Y-60915714D01*
X118174761Y-60963333D01*
X118603333Y-61534761D02*
X118508095Y-61582380D01*
X118270000Y-61582380D01*
X118174761Y-61534761D01*
X118127142Y-61439523D01*
X118127142Y-61344285D01*
X118174761Y-61249047D01*
X118270000Y-61201428D01*
X118508095Y-61201428D01*
X118603333Y-61153809D01*
X119508095Y-60915714D02*
X119508095Y-61725238D01*
X119460476Y-61820476D01*
X119412857Y-61868095D01*
X119317619Y-61915714D01*
X119174761Y-61915714D01*
X119079523Y-61868095D01*
X119508095Y-61534761D02*
X119412857Y-61582380D01*
X119222380Y-61582380D01*
X119127142Y-61534761D01*
X119079523Y-61487142D01*
X119031904Y-61391904D01*
X119031904Y-61106190D01*
X119079523Y-61010952D01*
X119127142Y-60963333D01*
X119222380Y-60915714D01*
X119412857Y-60915714D01*
X119508095Y-60963333D01*
X120127142Y-61582380D02*
X120031904Y-61534761D01*
X119984285Y-61487142D01*
X119936666Y-61391904D01*
X119936666Y-61106190D01*
X119984285Y-61010952D01*
X120031904Y-60963333D01*
X120127142Y-60915714D01*
X120270000Y-60915714D01*
X120365238Y-60963333D01*
X120412857Y-61010952D01*
X120460476Y-61106190D01*
X120460476Y-61391904D01*
X120412857Y-61487142D01*
X120365238Y-61534761D01*
X120270000Y-61582380D01*
X120127142Y-61582380D01*
X120889047Y-60915714D02*
X120889047Y-61582380D01*
X120889047Y-61010952D02*
X120936666Y-60963333D01*
X121031904Y-60915714D01*
X121174761Y-60915714D01*
X121270000Y-60963333D01*
X121317619Y-61058571D01*
X121317619Y-61582380D01*
X123031904Y-61582380D02*
X122555714Y-61582380D01*
X122555714Y-60582380D01*
X123793809Y-61582380D02*
X123793809Y-61058571D01*
X123746190Y-60963333D01*
X123650952Y-60915714D01*
X123460476Y-60915714D01*
X123365238Y-60963333D01*
X123793809Y-61534761D02*
X123698571Y-61582380D01*
X123460476Y-61582380D01*
X123365238Y-61534761D01*
X123317619Y-61439523D01*
X123317619Y-61344285D01*
X123365238Y-61249047D01*
X123460476Y-61201428D01*
X123698571Y-61201428D01*
X123793809Y-61153809D01*
X124270000Y-61582380D02*
X124270000Y-60915714D01*
X124270000Y-60582380D02*
X124222380Y-60630000D01*
X124270000Y-60677619D01*
X124317619Y-60630000D01*
X124270000Y-60582380D01*
X124270000Y-60677619D01*
X124746190Y-61582380D02*
X124746190Y-60915714D01*
X124746190Y-61106190D02*
X124793809Y-61010952D01*
X124841428Y-60963333D01*
X124936666Y-60915714D01*
X125031904Y-60915714D01*
X126127142Y-61582380D02*
X126127142Y-60582380D01*
X126365238Y-60582380D01*
X126508095Y-60630000D01*
X126603333Y-60725238D01*
X126650952Y-60820476D01*
X126698571Y-61010952D01*
X126698571Y-61153809D01*
X126650952Y-61344285D01*
X126603333Y-61439523D01*
X126508095Y-61534761D01*
X126365238Y-61582380D01*
X126127142Y-61582380D01*
X127698571Y-61487142D02*
X127650952Y-61534761D01*
X127508095Y-61582380D01*
X127412857Y-61582380D01*
X127270000Y-61534761D01*
X127174761Y-61439523D01*
X127127142Y-61344285D01*
X127079523Y-61153809D01*
X127079523Y-61010952D01*
X127127142Y-60820476D01*
X127174761Y-60725238D01*
X127270000Y-60630000D01*
X127412857Y-60582380D01*
X127508095Y-60582380D01*
X127650952Y-60630000D01*
X127698571Y-60677619D01*
X129460476Y-61582380D02*
X129127142Y-61106190D01*
X128889047Y-61582380D02*
X128889047Y-60582380D01*
X129270000Y-60582380D01*
X129365238Y-60630000D01*
X129412857Y-60677619D01*
X129460476Y-60772857D01*
X129460476Y-60915714D01*
X129412857Y-61010952D01*
X129365238Y-61058571D01*
X129270000Y-61106190D01*
X128889047Y-61106190D01*
X130031904Y-61582380D02*
X129936666Y-61534761D01*
X129889047Y-61487142D01*
X129841428Y-61391904D01*
X129841428Y-61106190D01*
X129889047Y-61010952D01*
X129936666Y-60963333D01*
X130031904Y-60915714D01*
X130174761Y-60915714D01*
X130270000Y-60963333D01*
X130317619Y-61010952D01*
X130365238Y-61106190D01*
X130365238Y-61391904D01*
X130317619Y-61487142D01*
X130270000Y-61534761D01*
X130174761Y-61582380D01*
X130031904Y-61582380D01*
X130936666Y-61582380D02*
X130841428Y-61534761D01*
X130793809Y-61487142D01*
X130746190Y-61391904D01*
X130746190Y-61106190D01*
X130793809Y-61010952D01*
X130841428Y-60963333D01*
X130936666Y-60915714D01*
X131079523Y-60915714D01*
X131174761Y-60963333D01*
X131222380Y-61010952D01*
X131270000Y-61106190D01*
X131270000Y-61391904D01*
X131222380Y-61487142D01*
X131174761Y-61534761D01*
X131079523Y-61582380D01*
X130936666Y-61582380D01*
X131555714Y-60915714D02*
X131936666Y-60915714D01*
X131698571Y-61582380D02*
X131698571Y-60725238D01*
X131746190Y-60630000D01*
X131841428Y-60582380D01*
X131936666Y-60582380D01*
X133603333Y-61487142D02*
X133555714Y-61534761D01*
X133412857Y-61582380D01*
X133317619Y-61582380D01*
X133174761Y-61534761D01*
X133079523Y-61439523D01*
X133031904Y-61344285D01*
X132984285Y-61153809D01*
X132984285Y-61010952D01*
X133031904Y-60820476D01*
X133079523Y-60725238D01*
X133174761Y-60630000D01*
X133317619Y-60582380D01*
X133412857Y-60582380D01*
X133555714Y-60630000D01*
X133603333Y-60677619D01*
X134174761Y-61582380D02*
X134079523Y-61534761D01*
X134031904Y-61487142D01*
X133984285Y-61391904D01*
X133984285Y-61106190D01*
X134031904Y-61010952D01*
X134079523Y-60963333D01*
X134174761Y-60915714D01*
X134317619Y-60915714D01*
X134412857Y-60963333D01*
X134460476Y-61010952D01*
X134508095Y-61106190D01*
X134508095Y-61391904D01*
X134460476Y-61487142D01*
X134412857Y-61534761D01*
X134317619Y-61582380D01*
X134174761Y-61582380D01*
X134936666Y-60915714D02*
X134936666Y-61582380D01*
X134936666Y-61010952D02*
X134984285Y-60963333D01*
X135079523Y-60915714D01*
X135222380Y-60915714D01*
X135317619Y-60963333D01*
X135365238Y-61058571D01*
X135365238Y-61582380D01*
X135698571Y-60915714D02*
X136079523Y-60915714D01*
X135841428Y-60582380D02*
X135841428Y-61439523D01*
X135889047Y-61534761D01*
X135984285Y-61582380D01*
X136079523Y-61582380D01*
X136412857Y-61582380D02*
X136412857Y-60915714D01*
X136412857Y-61106190D02*
X136460476Y-61010952D01*
X136508095Y-60963333D01*
X136603333Y-60915714D01*
X136698571Y-60915714D01*
X137174761Y-61582380D02*
X137079523Y-61534761D01*
X137031904Y-61487142D01*
X136984285Y-61391904D01*
X136984285Y-61106190D01*
X137031904Y-61010952D01*
X137079523Y-60963333D01*
X137174761Y-60915714D01*
X137317619Y-60915714D01*
X137412857Y-60963333D01*
X137460476Y-61010952D01*
X137508095Y-61106190D01*
X137508095Y-61391904D01*
X137460476Y-61487142D01*
X137412857Y-61534761D01*
X137317619Y-61582380D01*
X137174761Y-61582380D01*
X138079523Y-61582380D02*
X137984285Y-61534761D01*
X137936666Y-61439523D01*
X137936666Y-60582380D01*
X138603333Y-61582380D02*
X138508095Y-61534761D01*
X138460476Y-61439523D01*
X138460476Y-60582380D01*
X139365238Y-61534761D02*
X139270000Y-61582380D01*
X139079523Y-61582380D01*
X138984285Y-61534761D01*
X138936666Y-61439523D01*
X138936666Y-61058571D01*
X138984285Y-60963333D01*
X139079523Y-60915714D01*
X139270000Y-60915714D01*
X139365238Y-60963333D01*
X139412857Y-61058571D01*
X139412857Y-61153809D01*
X138936666Y-61249047D01*
X139841428Y-61582380D02*
X139841428Y-60915714D01*
X139841428Y-61106190D02*
X139889047Y-61010952D01*
X139936666Y-60963333D01*
X140031904Y-60915714D01*
X140127142Y-60915714D01*
X172696904Y-116657380D02*
X172696904Y-115657380D01*
X172696904Y-116133571D02*
X173268333Y-116133571D01*
X173268333Y-116657380D02*
X173268333Y-115657380D01*
X174173095Y-116657380D02*
X174173095Y-116133571D01*
X174125476Y-116038333D01*
X174030238Y-115990714D01*
X173839761Y-115990714D01*
X173744523Y-116038333D01*
X174173095Y-116609761D02*
X174077857Y-116657380D01*
X173839761Y-116657380D01*
X173744523Y-116609761D01*
X173696904Y-116514523D01*
X173696904Y-116419285D01*
X173744523Y-116324047D01*
X173839761Y-116276428D01*
X174077857Y-116276428D01*
X174173095Y-116228809D01*
X174649285Y-115990714D02*
X174649285Y-116657380D01*
X174649285Y-116085952D02*
X174696904Y-116038333D01*
X174792142Y-115990714D01*
X174935000Y-115990714D01*
X175030238Y-116038333D01*
X175077857Y-116133571D01*
X175077857Y-116657380D01*
X175982619Y-116657380D02*
X175982619Y-115657380D01*
X175982619Y-116609761D02*
X175887380Y-116657380D01*
X175696904Y-116657380D01*
X175601666Y-116609761D01*
X175554047Y-116562142D01*
X175506428Y-116466904D01*
X175506428Y-116181190D01*
X175554047Y-116085952D01*
X175601666Y-116038333D01*
X175696904Y-115990714D01*
X175887380Y-115990714D01*
X175982619Y-116038333D01*
X177792142Y-116562142D02*
X177744523Y-116609761D01*
X177601666Y-116657380D01*
X177506428Y-116657380D01*
X177363571Y-116609761D01*
X177268333Y-116514523D01*
X177220714Y-116419285D01*
X177173095Y-116228809D01*
X177173095Y-116085952D01*
X177220714Y-115895476D01*
X177268333Y-115800238D01*
X177363571Y-115705000D01*
X177506428Y-115657380D01*
X177601666Y-115657380D01*
X177744523Y-115705000D01*
X177792142Y-115752619D01*
X178363571Y-116657380D02*
X178268333Y-116609761D01*
X178220714Y-116562142D01*
X178173095Y-116466904D01*
X178173095Y-116181190D01*
X178220714Y-116085952D01*
X178268333Y-116038333D01*
X178363571Y-115990714D01*
X178506428Y-115990714D01*
X178601666Y-116038333D01*
X178649285Y-116085952D01*
X178696904Y-116181190D01*
X178696904Y-116466904D01*
X178649285Y-116562142D01*
X178601666Y-116609761D01*
X178506428Y-116657380D01*
X178363571Y-116657380D01*
X179125476Y-115990714D02*
X179125476Y-116657380D01*
X179125476Y-116085952D02*
X179173095Y-116038333D01*
X179268333Y-115990714D01*
X179411190Y-115990714D01*
X179506428Y-116038333D01*
X179554047Y-116133571D01*
X179554047Y-116657380D01*
X179887380Y-115990714D02*
X180268333Y-115990714D01*
X180030238Y-115657380D02*
X180030238Y-116514523D01*
X180077857Y-116609761D01*
X180173095Y-116657380D01*
X180268333Y-116657380D01*
X180601666Y-116657380D02*
X180601666Y-115990714D01*
X180601666Y-116181190D02*
X180649285Y-116085952D01*
X180696904Y-116038333D01*
X180792142Y-115990714D01*
X180887380Y-115990714D01*
X181363571Y-116657380D02*
X181268333Y-116609761D01*
X181220714Y-116562142D01*
X181173095Y-116466904D01*
X181173095Y-116181190D01*
X181220714Y-116085952D01*
X181268333Y-116038333D01*
X181363571Y-115990714D01*
X181506428Y-115990714D01*
X181601666Y-116038333D01*
X181649285Y-116085952D01*
X181696904Y-116181190D01*
X181696904Y-116466904D01*
X181649285Y-116562142D01*
X181601666Y-116609761D01*
X181506428Y-116657380D01*
X181363571Y-116657380D01*
X182268333Y-116657380D02*
X182173095Y-116609761D01*
X182125476Y-116514523D01*
X182125476Y-115657380D01*
X182792142Y-116657380D02*
X182696904Y-116609761D01*
X182649285Y-116514523D01*
X182649285Y-115657380D01*
X183554047Y-116609761D02*
X183458809Y-116657380D01*
X183268333Y-116657380D01*
X183173095Y-116609761D01*
X183125476Y-116514523D01*
X183125476Y-116133571D01*
X183173095Y-116038333D01*
X183268333Y-115990714D01*
X183458809Y-115990714D01*
X183554047Y-116038333D01*
X183601666Y-116133571D01*
X183601666Y-116228809D01*
X183125476Y-116324047D01*
X184030238Y-116657380D02*
X184030238Y-115990714D01*
X184030238Y-116181190D02*
X184077857Y-116085952D01*
X184125476Y-116038333D01*
X184220714Y-115990714D01*
X184315952Y-115990714D01*
X171656666Y-94532380D02*
X172228095Y-94532380D01*
X171942380Y-95532380D02*
X171942380Y-94532380D01*
X172704285Y-95532380D02*
X172609047Y-95484761D01*
X172561428Y-95437142D01*
X172513809Y-95341904D01*
X172513809Y-95056190D01*
X172561428Y-94960952D01*
X172609047Y-94913333D01*
X172704285Y-94865714D01*
X172847142Y-94865714D01*
X172942380Y-94913333D01*
X172990000Y-94960952D01*
X173037619Y-95056190D01*
X173037619Y-95341904D01*
X172990000Y-95437142D01*
X172942380Y-95484761D01*
X172847142Y-95532380D01*
X172704285Y-95532380D01*
X173894761Y-94865714D02*
X173894761Y-95675238D01*
X173847142Y-95770476D01*
X173799523Y-95818095D01*
X173704285Y-95865714D01*
X173561428Y-95865714D01*
X173466190Y-95818095D01*
X173894761Y-95484761D02*
X173799523Y-95532380D01*
X173609047Y-95532380D01*
X173513809Y-95484761D01*
X173466190Y-95437142D01*
X173418571Y-95341904D01*
X173418571Y-95056190D01*
X173466190Y-94960952D01*
X173513809Y-94913333D01*
X173609047Y-94865714D01*
X173799523Y-94865714D01*
X173894761Y-94913333D01*
X174799523Y-94865714D02*
X174799523Y-95675238D01*
X174751904Y-95770476D01*
X174704285Y-95818095D01*
X174609047Y-95865714D01*
X174466190Y-95865714D01*
X174370952Y-95818095D01*
X174799523Y-95484761D02*
X174704285Y-95532380D01*
X174513809Y-95532380D01*
X174418571Y-95484761D01*
X174370952Y-95437142D01*
X174323333Y-95341904D01*
X174323333Y-95056190D01*
X174370952Y-94960952D01*
X174418571Y-94913333D01*
X174513809Y-94865714D01*
X174704285Y-94865714D01*
X174799523Y-94913333D01*
X175418571Y-95532380D02*
X175323333Y-95484761D01*
X175275714Y-95389523D01*
X175275714Y-94532380D01*
X176180476Y-95484761D02*
X176085238Y-95532380D01*
X175894761Y-95532380D01*
X175799523Y-95484761D01*
X175751904Y-95389523D01*
X175751904Y-95008571D01*
X175799523Y-94913333D01*
X175894761Y-94865714D01*
X176085238Y-94865714D01*
X176180476Y-94913333D01*
X176228095Y-95008571D01*
X176228095Y-95103809D01*
X175751904Y-95199047D01*
X169990000Y-96142380D02*
X170180476Y-96142380D01*
X170275714Y-96190000D01*
X170370952Y-96285238D01*
X170418571Y-96475714D01*
X170418571Y-96809047D01*
X170370952Y-96999523D01*
X170275714Y-97094761D01*
X170180476Y-97142380D01*
X169990000Y-97142380D01*
X169894761Y-97094761D01*
X169799523Y-96999523D01*
X169751904Y-96809047D01*
X169751904Y-96475714D01*
X169799523Y-96285238D01*
X169894761Y-96190000D01*
X169990000Y-96142380D01*
X170847142Y-96475714D02*
X170847142Y-97475714D01*
X170847142Y-96523333D02*
X170942380Y-96475714D01*
X171132857Y-96475714D01*
X171228095Y-96523333D01*
X171275714Y-96570952D01*
X171323333Y-96666190D01*
X171323333Y-96951904D01*
X171275714Y-97047142D01*
X171228095Y-97094761D01*
X171132857Y-97142380D01*
X170942380Y-97142380D01*
X170847142Y-97094761D01*
X172132857Y-97094761D02*
X172037619Y-97142380D01*
X171847142Y-97142380D01*
X171751904Y-97094761D01*
X171704285Y-96999523D01*
X171704285Y-96618571D01*
X171751904Y-96523333D01*
X171847142Y-96475714D01*
X172037619Y-96475714D01*
X172132857Y-96523333D01*
X172180476Y-96618571D01*
X172180476Y-96713809D01*
X171704285Y-96809047D01*
X172609047Y-96475714D02*
X172609047Y-97142380D01*
X172609047Y-96570952D02*
X172656666Y-96523333D01*
X172751904Y-96475714D01*
X172894761Y-96475714D01*
X172990000Y-96523333D01*
X173037619Y-96618571D01*
X173037619Y-97142380D01*
X174228095Y-96094761D02*
X173370952Y-97380476D01*
X175132857Y-97047142D02*
X175085238Y-97094761D01*
X174942380Y-97142380D01*
X174847142Y-97142380D01*
X174704285Y-97094761D01*
X174609047Y-96999523D01*
X174561428Y-96904285D01*
X174513809Y-96713809D01*
X174513809Y-96570952D01*
X174561428Y-96380476D01*
X174609047Y-96285238D01*
X174704285Y-96190000D01*
X174847142Y-96142380D01*
X174942380Y-96142380D01*
X175085238Y-96190000D01*
X175132857Y-96237619D01*
X175704285Y-97142380D02*
X175609047Y-97094761D01*
X175561428Y-96999523D01*
X175561428Y-96142380D01*
X176228095Y-97142380D02*
X176132857Y-97094761D01*
X176085238Y-97047142D01*
X176037619Y-96951904D01*
X176037619Y-96666190D01*
X176085238Y-96570952D01*
X176132857Y-96523333D01*
X176228095Y-96475714D01*
X176370952Y-96475714D01*
X176466190Y-96523333D01*
X176513809Y-96570952D01*
X176561428Y-96666190D01*
X176561428Y-96951904D01*
X176513809Y-97047142D01*
X176466190Y-97094761D01*
X176370952Y-97142380D01*
X176228095Y-97142380D01*
X176942380Y-97094761D02*
X177037619Y-97142380D01*
X177228095Y-97142380D01*
X177323333Y-97094761D01*
X177370952Y-96999523D01*
X177370952Y-96951904D01*
X177323333Y-96856666D01*
X177228095Y-96809047D01*
X177085238Y-96809047D01*
X176990000Y-96761428D01*
X176942380Y-96666190D01*
X176942380Y-96618571D01*
X176990000Y-96523333D01*
X177085238Y-96475714D01*
X177228095Y-96475714D01*
X177323333Y-96523333D01*
X178180476Y-97094761D02*
X178085238Y-97142380D01*
X177894761Y-97142380D01*
X177799523Y-97094761D01*
X177751904Y-96999523D01*
X177751904Y-96618571D01*
X177799523Y-96523333D01*
X177894761Y-96475714D01*
X178085238Y-96475714D01*
X178180476Y-96523333D01*
X178228095Y-96618571D01*
X178228095Y-96713809D01*
X177751904Y-96809047D01*
X68874285Y-113899761D02*
X69017142Y-113947380D01*
X69255238Y-113947380D01*
X69350476Y-113899761D01*
X69398095Y-113852142D01*
X69445714Y-113756904D01*
X69445714Y-113661666D01*
X69398095Y-113566428D01*
X69350476Y-113518809D01*
X69255238Y-113471190D01*
X69064761Y-113423571D01*
X68969523Y-113375952D01*
X68921904Y-113328333D01*
X68874285Y-113233095D01*
X68874285Y-113137857D01*
X68921904Y-113042619D01*
X68969523Y-112995000D01*
X69064761Y-112947380D01*
X69302857Y-112947380D01*
X69445714Y-112995000D01*
X70302857Y-113947380D02*
X70302857Y-113423571D01*
X70255238Y-113328333D01*
X70160000Y-113280714D01*
X69969523Y-113280714D01*
X69874285Y-113328333D01*
X70302857Y-113899761D02*
X70207619Y-113947380D01*
X69969523Y-113947380D01*
X69874285Y-113899761D01*
X69826666Y-113804523D01*
X69826666Y-113709285D01*
X69874285Y-113614047D01*
X69969523Y-113566428D01*
X70207619Y-113566428D01*
X70302857Y-113518809D01*
X70636190Y-113280714D02*
X71017142Y-113280714D01*
X70779047Y-113947380D02*
X70779047Y-113090238D01*
X70826666Y-112995000D01*
X70921904Y-112947380D01*
X71017142Y-112947380D01*
X71731428Y-113899761D02*
X71636190Y-113947380D01*
X71445714Y-113947380D01*
X71350476Y-113899761D01*
X71302857Y-113804523D01*
X71302857Y-113423571D01*
X71350476Y-113328333D01*
X71445714Y-113280714D01*
X71636190Y-113280714D01*
X71731428Y-113328333D01*
X71779047Y-113423571D01*
X71779047Y-113518809D01*
X71302857Y-113614047D01*
X72826666Y-113280714D02*
X73207619Y-113280714D01*
X72969523Y-112947380D02*
X72969523Y-113804523D01*
X73017142Y-113899761D01*
X73112380Y-113947380D01*
X73207619Y-113947380D01*
X73683809Y-113947380D02*
X73588571Y-113899761D01*
X73540952Y-113852142D01*
X73493333Y-113756904D01*
X73493333Y-113471190D01*
X73540952Y-113375952D01*
X73588571Y-113328333D01*
X73683809Y-113280714D01*
X73826666Y-113280714D01*
X73921904Y-113328333D01*
X73969523Y-113375952D01*
X74017142Y-113471190D01*
X74017142Y-113756904D01*
X73969523Y-113852142D01*
X73921904Y-113899761D01*
X73826666Y-113947380D01*
X73683809Y-113947380D01*
X75207619Y-113947380D02*
X75207619Y-112947380D01*
X75540952Y-113661666D01*
X75874285Y-112947380D01*
X75874285Y-113947380D01*
X76493333Y-113947380D02*
X76398095Y-113899761D01*
X76350476Y-113852142D01*
X76302857Y-113756904D01*
X76302857Y-113471190D01*
X76350476Y-113375952D01*
X76398095Y-113328333D01*
X76493333Y-113280714D01*
X76636190Y-113280714D01*
X76731428Y-113328333D01*
X76779047Y-113375952D01*
X76826666Y-113471190D01*
X76826666Y-113756904D01*
X76779047Y-113852142D01*
X76731428Y-113899761D01*
X76636190Y-113947380D01*
X76493333Y-113947380D01*
X77160000Y-113280714D02*
X77398095Y-113947380D01*
X77636190Y-113280714D01*
X78398095Y-113899761D02*
X78302857Y-113947380D01*
X78112380Y-113947380D01*
X78017142Y-113899761D01*
X77969523Y-113804523D01*
X77969523Y-113423571D01*
X78017142Y-113328333D01*
X78112380Y-113280714D01*
X78302857Y-113280714D01*
X78398095Y-113328333D01*
X78445714Y-113423571D01*
X78445714Y-113518809D01*
X77969523Y-113614047D01*
X69088571Y-114652619D02*
X69136190Y-114605000D01*
X69231428Y-114557380D01*
X69469523Y-114557380D01*
X69564761Y-114605000D01*
X69612380Y-114652619D01*
X69660000Y-114747857D01*
X69660000Y-114843095D01*
X69612380Y-114985952D01*
X69040952Y-115557380D01*
X69660000Y-115557380D01*
X78231428Y-115557380D02*
X77660000Y-115557380D01*
X77945714Y-115557380D02*
X77945714Y-114557380D01*
X77850476Y-114700238D01*
X77755238Y-114795476D01*
X77660000Y-114843095D01*
%TO.C,BZ1*%
X77398571Y-74549047D02*
X77398571Y-75310952D01*
X77017619Y-74930000D02*
X77779523Y-74930000D01*
X77398571Y-92329047D02*
X77398571Y-93090952D01*
D11*
%TO.C,J15*%
X177406904Y-126454523D02*
X177406904Y-127361666D01*
X177346428Y-127543095D01*
X177225476Y-127664047D01*
X177044047Y-127724523D01*
X176923095Y-127724523D01*
X178676904Y-127724523D02*
X177951190Y-127724523D01*
X178314047Y-127724523D02*
X178314047Y-126454523D01*
X178193095Y-126635952D01*
X178072142Y-126756904D01*
X177951190Y-126817380D01*
X179825952Y-126454523D02*
X179221190Y-126454523D01*
X179160714Y-127059285D01*
X179221190Y-126998809D01*
X179342142Y-126938333D01*
X179644523Y-126938333D01*
X179765476Y-126998809D01*
X179825952Y-127059285D01*
X179886428Y-127180238D01*
X179886428Y-127482619D01*
X179825952Y-127603571D01*
X179765476Y-127664047D01*
X179644523Y-127724523D01*
X179342142Y-127724523D01*
X179221190Y-127664047D01*
X179160714Y-127603571D01*
D12*
%TO.C,BZ1*%
X92470000Y-83820000D02*
G75*
G03*
X92470000Y-83820000I-15000000J0D01*
G01*
%TO.C,R3*%
X98312500Y-70912258D02*
X98312500Y-70437742D01*
X97267500Y-70912258D02*
X97267500Y-70437742D01*
%TO.C,Q1*%
X141090000Y-98045000D02*
X141090000Y-96545000D01*
X130690000Y-98045000D02*
X130690000Y-96545000D01*
X141090000Y-96545000D02*
X140400000Y-96545000D01*
X130690000Y-96545000D02*
X131380000Y-96545000D01*
X131380000Y-96545000D02*
X131380000Y-95445000D01*
X140400000Y-96545000D02*
X140400000Y-91420000D01*
%TO.C,R14*%
X110092258Y-69962500D02*
X109617742Y-69962500D01*
X110092258Y-71007500D02*
X109617742Y-71007500D01*
%TO.C,R2*%
X62977500Y-110442742D02*
X62977500Y-110917258D01*
X64022500Y-110442742D02*
X64022500Y-110917258D01*
%TO.C,J5*%
X186130000Y-106770000D02*
X186130000Y-107520000D01*
X187930000Y-107520000D02*
X187930000Y-106770000D01*
X180320000Y-112730000D02*
X187940000Y-112730000D01*
X187180000Y-109020000D02*
X187180000Y-111970000D01*
X181080000Y-111970000D02*
X184130000Y-111970000D01*
X187940000Y-112730000D02*
X187940000Y-106760000D01*
X184630000Y-107520000D02*
X184630000Y-106770000D01*
X180330000Y-107520000D02*
X182130000Y-107520000D01*
X180030000Y-106470000D02*
X180030000Y-107720000D01*
X187930000Y-106770000D02*
X186130000Y-106770000D01*
X183630000Y-106770000D02*
X183630000Y-107520000D01*
X187180000Y-111970000D02*
X184130000Y-111970000D01*
X183630000Y-107520000D02*
X184630000Y-107520000D01*
X181280000Y-106470000D02*
X180030000Y-106470000D01*
X187930000Y-109020000D02*
X187180000Y-109020000D01*
X182130000Y-106770000D02*
X180330000Y-106770000D01*
X182130000Y-107520000D02*
X182130000Y-106770000D01*
X180330000Y-109020000D02*
X181080000Y-109020000D01*
X180330000Y-106770000D02*
X180330000Y-107520000D01*
X181080000Y-109020000D02*
X181080000Y-111970000D01*
X184630000Y-106770000D02*
X183630000Y-106770000D01*
X186130000Y-107520000D02*
X187930000Y-107520000D01*
X180320000Y-106760000D02*
X180320000Y-112730000D01*
X187940000Y-106760000D02*
X180320000Y-106760000D01*
%TO.C,J4*%
X184630000Y-98630000D02*
X184630000Y-97880000D01*
X180320000Y-97870000D02*
X180320000Y-103840000D01*
X180330000Y-98630000D02*
X182130000Y-98630000D01*
X187940000Y-103840000D02*
X187940000Y-97870000D01*
X187930000Y-100130000D02*
X187180000Y-100130000D01*
X187930000Y-98630000D02*
X187930000Y-97880000D01*
X180320000Y-103840000D02*
X187940000Y-103840000D01*
X181080000Y-100130000D02*
X181080000Y-103080000D01*
X183630000Y-98630000D02*
X184630000Y-98630000D01*
X182130000Y-98630000D02*
X182130000Y-97880000D01*
X187940000Y-97870000D02*
X180320000Y-97870000D01*
X180330000Y-100130000D02*
X181080000Y-100130000D01*
X184630000Y-97880000D02*
X183630000Y-97880000D01*
X186130000Y-97880000D02*
X186130000Y-98630000D01*
X187180000Y-100130000D02*
X187180000Y-103080000D01*
X180030000Y-97580000D02*
X180030000Y-98830000D01*
X182130000Y-97880000D02*
X180330000Y-97880000D01*
X187180000Y-103080000D02*
X184130000Y-103080000D01*
X181280000Y-97580000D02*
X180030000Y-97580000D01*
X181080000Y-103080000D02*
X184130000Y-103080000D01*
X186130000Y-98630000D02*
X187930000Y-98630000D01*
X180330000Y-97880000D02*
X180330000Y-98630000D01*
X187930000Y-97880000D02*
X186130000Y-97880000D01*
X183630000Y-97880000D02*
X183630000Y-98630000D01*
%TO.C,C2*%
X62990000Y-61594420D02*
X62990000Y-61875580D01*
X64010000Y-61594420D02*
X64010000Y-61875580D01*
%TO.C,R20*%
X65927500Y-110917258D02*
X65927500Y-110442742D01*
X64882500Y-110917258D02*
X64882500Y-110442742D01*
%TO.C,R13*%
X95362500Y-70912258D02*
X95362500Y-70437742D01*
X96407500Y-70912258D02*
X96407500Y-70437742D01*
%TO.C,R19*%
X66787500Y-110442742D02*
X66787500Y-110917258D01*
X67832500Y-110442742D02*
X67832500Y-110917258D01*
%TO.C,C5*%
X108075000Y-87770580D02*
X108075000Y-87489420D01*
X109095000Y-87770580D02*
X109095000Y-87489420D01*
D13*
%TO.C,J9*%
X168872500Y-116730000D02*
X168872500Y-130730000D01*
X166972500Y-130730000D02*
X166972500Y-134730000D01*
X160672500Y-116730000D02*
X168872500Y-116730000D01*
X160972500Y-134730000D02*
X160972500Y-130730000D01*
X168872500Y-130730000D02*
X166972500Y-130730000D01*
X166972500Y-134730000D02*
X160972500Y-134730000D01*
X160972500Y-130730000D02*
X160672500Y-130730000D01*
X160672500Y-130730000D02*
X160672500Y-116730000D01*
D14*
X160242500Y-129530000D02*
G75*
G03*
X160242500Y-129530000I-170000J0D01*
G01*
D12*
%TO.C,C9*%
X142365000Y-97295580D02*
X142365000Y-97014420D01*
X143385000Y-97295580D02*
X143385000Y-97014420D01*
%TO.C,R16*%
X136637500Y-87867258D02*
X136637500Y-87392742D01*
X137682500Y-87867258D02*
X137682500Y-87392742D01*
%TO.C,J2*%
X158085000Y-108790000D02*
X158085000Y-108040000D01*
X150475000Y-114000000D02*
X158095000Y-114000000D01*
X158085000Y-110290000D02*
X157335000Y-110290000D01*
X150185000Y-107740000D02*
X150185000Y-108990000D01*
X150485000Y-108040000D02*
X150485000Y-108790000D01*
X152285000Y-108040000D02*
X150485000Y-108040000D01*
X151235000Y-113240000D02*
X154285000Y-113240000D01*
X154785000Y-108040000D02*
X153785000Y-108040000D01*
X152285000Y-108790000D02*
X152285000Y-108040000D01*
X150485000Y-110290000D02*
X151235000Y-110290000D01*
X150475000Y-108030000D02*
X150475000Y-114000000D01*
X151435000Y-107740000D02*
X150185000Y-107740000D01*
X156285000Y-108790000D02*
X158085000Y-108790000D01*
X157335000Y-113240000D02*
X154285000Y-113240000D01*
X150485000Y-108790000D02*
X152285000Y-108790000D01*
X151235000Y-110290000D02*
X151235000Y-113240000D01*
X157335000Y-110290000D02*
X157335000Y-113240000D01*
X156285000Y-108040000D02*
X156285000Y-108790000D01*
X158095000Y-108030000D02*
X150475000Y-108030000D01*
X153785000Y-108790000D02*
X154785000Y-108790000D01*
X153785000Y-108040000D02*
X153785000Y-108790000D01*
X158085000Y-108040000D02*
X156285000Y-108040000D01*
X158095000Y-114000000D02*
X158095000Y-108030000D01*
X154785000Y-108790000D02*
X154785000Y-108040000D01*
%TO.C,C4*%
X99930000Y-79180563D02*
X98865563Y-80245000D01*
X100957500Y-78682500D02*
X100170000Y-78682500D01*
X99930000Y-74489437D02*
X98865563Y-73425000D01*
X99930000Y-74489437D02*
X99930000Y-75775000D01*
X98865563Y-73425000D02*
X93110000Y-73425000D01*
X93110000Y-73425000D02*
X93110000Y-75775000D01*
X99930000Y-79180563D02*
X99930000Y-77895000D01*
X93110000Y-80245000D02*
X93110000Y-77895000D01*
X100563750Y-79076250D02*
X100563750Y-78288750D01*
X98865563Y-80245000D02*
X93110000Y-80245000D01*
%TO.C,C14*%
X109980000Y-87770580D02*
X109980000Y-87489420D01*
X111000000Y-87770580D02*
X111000000Y-87489420D01*
%TO.C,R21*%
X66787500Y-113617742D02*
X66787500Y-114092258D01*
X67832500Y-113617742D02*
X67832500Y-114092258D01*
%TO.C,G\u002A\u002A\u002A*%
G36*
X178139299Y-68439817D02*
G01*
X178157326Y-68393089D01*
X178190252Y-68317176D01*
X178236258Y-68215932D01*
X178293526Y-68093208D01*
X178360236Y-67952859D01*
X178434569Y-67798737D01*
X178514708Y-67634695D01*
X178598833Y-67464585D01*
X178615132Y-67431866D01*
X178726438Y-67208300D01*
X178822474Y-67014346D01*
X178904773Y-66846621D01*
X178974866Y-66701741D01*
X179034284Y-66576322D01*
X179084560Y-66466983D01*
X179127224Y-66370338D01*
X179163808Y-66283006D01*
X179195844Y-66201602D01*
X179224864Y-66122744D01*
X179252398Y-66043047D01*
X179275378Y-65973353D01*
X179312710Y-65855490D01*
X179343668Y-65749624D01*
X179368951Y-65650395D01*
X179389254Y-65552443D01*
X179405274Y-65450407D01*
X179417708Y-65338928D01*
X179427253Y-65212644D01*
X179434605Y-65066196D01*
X179440462Y-64894223D01*
X179445355Y-64697930D01*
X180023154Y-64697930D01*
X180023369Y-64706092D01*
X180027999Y-64842982D01*
X180033945Y-64943570D01*
X180041924Y-65008577D01*
X180052655Y-65038725D01*
X180066857Y-65034733D01*
X180085248Y-64997322D01*
X180108547Y-64927212D01*
X180137472Y-64825124D01*
X180138457Y-64821491D01*
X180180651Y-64674605D01*
X180226489Y-64530484D01*
X180273262Y-64396731D01*
X180318260Y-64280954D01*
X180358771Y-64190760D01*
X180372520Y-64164606D01*
X180426301Y-64068322D01*
X180371528Y-63952506D01*
X180348645Y-63900798D01*
X180328791Y-63846831D01*
X180309906Y-63783217D01*
X180289930Y-63702567D01*
X180266803Y-63597493D01*
X180249751Y-63515736D01*
X180237049Y-63483251D01*
X180225173Y-63474082D01*
X180209174Y-63489700D01*
X180199754Y-63515736D01*
X180191381Y-63549669D01*
X180175724Y-63610497D01*
X180155085Y-63689353D01*
X180133652Y-63770292D01*
X180077704Y-64008135D01*
X180041858Y-64231672D01*
X180024285Y-64456429D01*
X180023154Y-64697930D01*
X179445355Y-64697930D01*
X179445519Y-64691364D01*
X179446231Y-64658921D01*
X179452208Y-64426592D01*
X179459767Y-64226954D01*
X179469605Y-64055681D01*
X179482416Y-63908450D01*
X179498897Y-63780936D01*
X179519743Y-63668814D01*
X179545651Y-63567759D01*
X179577315Y-63473446D01*
X179615432Y-63381551D01*
X179660697Y-63287750D01*
X179669601Y-63270437D01*
X179699656Y-63214742D01*
X179732557Y-63159147D01*
X179770777Y-63100431D01*
X179816790Y-63035372D01*
X179873067Y-62960749D01*
X179942083Y-62873340D01*
X180026310Y-62769923D01*
X180128223Y-62647277D01*
X180250293Y-62502180D01*
X180347814Y-62386999D01*
X180531482Y-62169706D01*
X180693123Y-61976664D01*
X180835348Y-61804490D01*
X180960770Y-61649796D01*
X181072000Y-61509198D01*
X181171650Y-61379310D01*
X181262332Y-61256745D01*
X181346657Y-61138119D01*
X181427237Y-61020045D01*
X181506684Y-60899138D01*
X181560634Y-60814774D01*
X181899511Y-60245621D01*
X182205891Y-59659779D01*
X182479130Y-59058929D01*
X182718584Y-58444748D01*
X182923611Y-57818915D01*
X183093568Y-57183109D01*
X183227811Y-56539009D01*
X183251535Y-56402070D01*
X183267328Y-56307304D01*
X183280697Y-56226575D01*
X183290567Y-56166404D01*
X183295866Y-56133313D01*
X183296473Y-56129002D01*
X183312099Y-56125211D01*
X183332920Y-56124373D01*
X183355035Y-56127826D01*
X183373392Y-56141813D01*
X183390559Y-56171779D01*
X183409105Y-56223167D01*
X183431600Y-56301422D01*
X183450863Y-56374300D01*
X183504569Y-56607898D01*
X183552585Y-56869958D01*
X183594144Y-57152242D01*
X183628484Y-57446517D01*
X183654838Y-57744545D01*
X183672443Y-58038092D01*
X183680535Y-58318921D01*
X183678347Y-58578796D01*
X183670530Y-58740353D01*
X183661012Y-58866742D01*
X183649408Y-59000568D01*
X183636934Y-59128914D01*
X183624805Y-59238865D01*
X183619915Y-59277907D01*
X183607738Y-59377801D01*
X183601998Y-59447151D01*
X183602531Y-59491846D01*
X183609173Y-59517776D01*
X183613075Y-59523708D01*
X183620807Y-59528205D01*
X183637471Y-59532148D01*
X183665172Y-59535563D01*
X183706019Y-59538474D01*
X183762118Y-59540908D01*
X183835577Y-59542889D01*
X183928503Y-59544443D01*
X184043002Y-59545594D01*
X184181181Y-59546369D01*
X184345149Y-59546791D01*
X184537011Y-59546888D01*
X184758875Y-59546683D01*
X185012848Y-59546202D01*
X185301038Y-59545470D01*
X185405096Y-59545175D01*
X185716119Y-59544330D01*
X185992954Y-59543756D01*
X186238439Y-59543534D01*
X186455414Y-59543742D01*
X186646716Y-59544459D01*
X186815184Y-59545766D01*
X186963655Y-59547742D01*
X187094969Y-59550465D01*
X187211962Y-59554017D01*
X187317475Y-59558475D01*
X187414344Y-59563920D01*
X187505409Y-59570431D01*
X187593506Y-59578088D01*
X187681476Y-59586969D01*
X187772155Y-59597155D01*
X187868383Y-59608725D01*
X187924825Y-59615722D01*
X188165353Y-59650356D01*
X188414436Y-59694570D01*
X188656210Y-59745330D01*
X188848829Y-59792602D01*
X189290642Y-59925634D01*
X189739773Y-60090712D01*
X190191180Y-60284977D01*
X190639823Y-60505572D01*
X191080663Y-60749638D01*
X191508659Y-61014319D01*
X191918771Y-61296755D01*
X192305958Y-61594090D01*
X192665180Y-61903465D01*
X192807403Y-62037176D01*
X192897555Y-62126601D01*
X192960859Y-62195434D01*
X192999128Y-62246523D01*
X193014176Y-62282717D01*
X193007814Y-62306865D01*
X192987333Y-62319892D01*
X192958939Y-62317263D01*
X192906284Y-62301156D01*
X192838276Y-62274548D01*
X192797574Y-62256522D01*
X192665348Y-62197985D01*
X192534771Y-62144687D01*
X192410981Y-62098339D01*
X192299117Y-62060652D01*
X192204320Y-62033337D01*
X192131729Y-62018105D01*
X192086483Y-62016666D01*
X192081362Y-62018109D01*
X192062151Y-62030188D01*
X192057043Y-62049877D01*
X192068072Y-62081803D01*
X192097273Y-62130595D01*
X192146681Y-62200881D01*
X192183884Y-62251287D01*
X192441587Y-62620072D01*
X192688526Y-63018890D01*
X192921563Y-63441542D01*
X193137557Y-63881828D01*
X193333369Y-64333548D01*
X193505858Y-64790503D01*
X193576720Y-65001414D01*
X193698737Y-65410216D01*
X193804267Y-65827083D01*
X193892324Y-66245978D01*
X193961920Y-66660866D01*
X194012067Y-67065711D01*
X194041779Y-67454476D01*
X194050068Y-67821127D01*
X194049105Y-67889461D01*
X194046743Y-67996061D01*
X194044122Y-68071158D01*
X194040302Y-68120268D01*
X194034342Y-68148908D01*
X194025303Y-68162594D01*
X194012243Y-68166843D01*
X194001767Y-68167157D01*
X193982007Y-68162385D01*
X193961888Y-68144612D01*
X193938018Y-68108652D01*
X193907006Y-68049320D01*
X193865460Y-67961431D01*
X193861291Y-67952383D01*
X193798764Y-67819919D01*
X193738661Y-67699002D01*
X193683299Y-67593833D01*
X193634994Y-67508612D01*
X193596063Y-67447540D01*
X193568821Y-67414819D01*
X193562745Y-67410940D01*
X193524998Y-67412251D01*
X193497323Y-67446233D01*
X193481633Y-67509444D01*
X193478761Y-67562289D01*
X193475584Y-67645027D01*
X193466754Y-67755270D01*
X193453324Y-67884105D01*
X193436348Y-68022624D01*
X193416879Y-68161916D01*
X193395968Y-68293070D01*
X193385399Y-68352289D01*
X193286876Y-68790145D01*
X193154504Y-69231969D01*
X192990402Y-69672944D01*
X192796690Y-70108253D01*
X192575487Y-70533078D01*
X192328914Y-70942603D01*
X192096736Y-71280874D01*
X191906543Y-71530549D01*
X191705790Y-71773488D01*
X191501351Y-72001866D01*
X191300097Y-72207859D01*
X191196290Y-72306001D01*
X191121008Y-72373986D01*
X191067244Y-72419529D01*
X191029978Y-72446013D01*
X191004192Y-72456818D01*
X190984868Y-72455325D01*
X190978761Y-72452555D01*
X190949692Y-72427003D01*
X190942464Y-72408324D01*
X190949876Y-72381896D01*
X190969870Y-72330378D01*
X190999078Y-72262096D01*
X191022660Y-72209959D01*
X191087399Y-72067057D01*
X191135597Y-71953857D01*
X191168251Y-71867454D01*
X191186358Y-71804942D01*
X191190915Y-71763414D01*
X191183581Y-71740728D01*
X191159009Y-71717302D01*
X191148469Y-71712443D01*
X191130070Y-71723472D01*
X191090042Y-71753117D01*
X191035166Y-71796244D01*
X190998003Y-71826398D01*
X190598910Y-72130667D01*
X190179255Y-72405977D01*
X189742094Y-72650703D01*
X189290479Y-72863223D01*
X188827466Y-73041915D01*
X188535470Y-73135162D01*
X188429012Y-73165449D01*
X188352922Y-73184445D01*
X188302599Y-73193031D01*
X188273443Y-73192089D01*
X188264012Y-73187140D01*
X188252935Y-73169218D01*
X188224913Y-73121215D01*
X188181177Y-73045310D01*
X188122960Y-72943678D01*
X188051491Y-72818498D01*
X187968003Y-72671947D01*
X187873727Y-72506203D01*
X187769895Y-72323442D01*
X187657737Y-72125842D01*
X187538485Y-71915581D01*
X187413370Y-71694836D01*
X187283625Y-71465784D01*
X187150479Y-71230603D01*
X187015165Y-70991469D01*
X186878914Y-70750561D01*
X186742957Y-70510056D01*
X186608525Y-70272130D01*
X186476851Y-70038963D01*
X186349164Y-69812730D01*
X186226698Y-69595609D01*
X186110682Y-69389777D01*
X186002349Y-69197413D01*
X185902930Y-69020693D01*
X185813655Y-68861794D01*
X185735757Y-68722895D01*
X185670467Y-68606172D01*
X185619016Y-68513803D01*
X185582636Y-68447965D01*
X185562558Y-68410835D01*
X185559696Y-68405206D01*
X185543609Y-68365864D01*
X185545065Y-68336456D01*
X185566588Y-68300281D01*
X185577887Y-68284871D01*
X185638612Y-68179987D01*
X185662979Y-68075543D01*
X185651411Y-67967712D01*
X185621753Y-67887294D01*
X185558374Y-67790420D01*
X185473577Y-67718261D01*
X185374073Y-67673572D01*
X185266573Y-67659108D01*
X185157786Y-67677623D01*
X185133378Y-67686798D01*
X185032505Y-67747512D01*
X184955148Y-67832446D01*
X184905731Y-67935089D01*
X184888674Y-68047004D01*
X184898166Y-68137361D01*
X184929814Y-68218095D01*
X184988375Y-68299498D01*
X185022669Y-68336912D01*
X185097098Y-68414100D01*
X184502189Y-70771387D01*
X184428776Y-71062196D01*
X184357377Y-71344862D01*
X184288568Y-71617113D01*
X184222923Y-71876679D01*
X184161020Y-72121289D01*
X184103433Y-72348671D01*
X184050738Y-72556556D01*
X184003512Y-72742673D01*
X183962329Y-72904749D01*
X183927765Y-73040515D01*
X183900396Y-73147700D01*
X183880799Y-73224032D01*
X183869547Y-73267241D01*
X183868229Y-73272150D01*
X183829177Y-73415627D01*
X181841141Y-73415627D01*
X181547596Y-73415475D01*
X181271031Y-73415029D01*
X181013343Y-73414305D01*
X180776428Y-73413319D01*
X180562184Y-73412088D01*
X180372507Y-73410625D01*
X180209294Y-73408949D01*
X180074443Y-73407074D01*
X179969849Y-73405016D01*
X179897410Y-73402791D01*
X179859023Y-73400416D01*
X179853105Y-73399005D01*
X179865967Y-73383542D01*
X179903124Y-73344310D01*
X179962430Y-73283460D01*
X180041740Y-73203144D01*
X180138909Y-73105514D01*
X180251791Y-72992720D01*
X180378242Y-72866915D01*
X180516116Y-72730250D01*
X180663268Y-72584877D01*
X180752964Y-72496490D01*
X181019935Y-72232987D01*
X181260778Y-71993816D01*
X181476408Y-71778017D01*
X181667737Y-71584630D01*
X181835681Y-71412695D01*
X181981152Y-71261253D01*
X182105066Y-71129344D01*
X182208335Y-71016007D01*
X182291875Y-70920283D01*
X182356598Y-70841212D01*
X182403419Y-70777834D01*
X182429996Y-70735274D01*
X182495282Y-70582472D01*
X182524696Y-70428035D01*
X182517749Y-70274546D01*
X182517494Y-70273025D01*
X182504140Y-70191576D01*
X182497106Y-70139532D01*
X182496094Y-70109866D01*
X182500807Y-70095553D01*
X182509738Y-70089978D01*
X182529017Y-70099653D01*
X182570131Y-70130623D01*
X182628014Y-70178738D01*
X182697601Y-70239851D01*
X182741152Y-70279456D01*
X182835930Y-70366236D01*
X182907940Y-70430550D01*
X182961312Y-70475377D01*
X183000174Y-70503694D01*
X183028657Y-70518482D01*
X183050890Y-70522718D01*
X183071003Y-70519382D01*
X183072941Y-70518783D01*
X183091748Y-70503781D01*
X183132979Y-70465044D01*
X183193585Y-70405711D01*
X183270521Y-70328924D01*
X183360739Y-70237821D01*
X183461193Y-70135541D01*
X183568835Y-70025225D01*
X183680619Y-69910012D01*
X183793498Y-69793041D01*
X183904425Y-69677453D01*
X184010353Y-69566386D01*
X184108235Y-69462981D01*
X184195024Y-69370378D01*
X184267674Y-69291714D01*
X184319138Y-69234657D01*
X184404162Y-69121306D01*
X184479244Y-68988508D01*
X184537742Y-68849823D01*
X184573010Y-68718809D01*
X184573608Y-68715327D01*
X184581993Y-68659225D01*
X184585638Y-68609864D01*
X184583888Y-68558232D01*
X184576090Y-68495318D01*
X184561590Y-68412109D01*
X184545610Y-68329373D01*
X184516704Y-68148018D01*
X184507855Y-67993145D01*
X184519997Y-67859529D01*
X184554061Y-67741947D01*
X184610980Y-67635177D01*
X184686563Y-67539558D01*
X184813860Y-67421216D01*
X184948669Y-67338185D01*
X185094630Y-67288952D01*
X185255383Y-67272005D01*
X185325653Y-67273989D01*
X185493848Y-67301803D01*
X185645733Y-67362033D01*
X185778726Y-67452711D01*
X185890247Y-67571866D01*
X185977715Y-67717529D01*
X186010545Y-67796689D01*
X186035408Y-67855253D01*
X186060316Y-67897567D01*
X186077956Y-67913438D01*
X186100870Y-67902855D01*
X186142276Y-67869981D01*
X186195990Y-67820135D01*
X186247379Y-67767681D01*
X186293123Y-67719445D01*
X186360714Y-67648706D01*
X186446229Y-67559546D01*
X186545743Y-67456046D01*
X186655330Y-67342288D01*
X186771068Y-67222354D01*
X186889031Y-67100324D01*
X186889527Y-67099812D01*
X187036792Y-66946774D01*
X187160259Y-66816287D01*
X187262607Y-66705023D01*
X187346516Y-66609653D01*
X187414666Y-66526847D01*
X187469737Y-66453277D01*
X187514409Y-66385613D01*
X187551362Y-66320526D01*
X187583276Y-66254688D01*
X187599007Y-66218484D01*
X187669444Y-66003522D01*
X187706285Y-65774510D01*
X187709616Y-65532775D01*
X187679525Y-65279644D01*
X187616098Y-65016441D01*
X187519421Y-64744495D01*
X187499628Y-64697355D01*
X187464360Y-64613548D01*
X187435215Y-64541190D01*
X187415006Y-64487498D01*
X187406550Y-64459689D01*
X187406458Y-64458507D01*
X187412466Y-64440591D01*
X187432267Y-64441455D01*
X187468526Y-64462844D01*
X187523908Y-64506505D01*
X187601080Y-64574183D01*
X187647128Y-64616157D01*
X187745167Y-64705301D01*
X187848449Y-64797482D01*
X187953072Y-64889385D01*
X188055130Y-64977699D01*
X188150722Y-65059109D01*
X188235944Y-65130303D01*
X188306891Y-65187968D01*
X188359661Y-65228791D01*
X188390350Y-65249459D01*
X188395516Y-65251341D01*
X188431994Y-65234531D01*
X188454059Y-65185218D01*
X188461535Y-65105081D01*
X188454246Y-64995798D01*
X188435078Y-64874760D01*
X188373949Y-64652693D01*
X188277728Y-64438412D01*
X188148040Y-64234941D01*
X187991648Y-64050596D01*
X187800461Y-63877614D01*
X187593475Y-63738096D01*
X187370763Y-63632082D01*
X187154253Y-63564706D01*
X187071430Y-63546743D01*
X186997358Y-63536068D01*
X186919027Y-63531678D01*
X186823426Y-63532571D01*
X186764653Y-63534703D01*
X186539394Y-63544090D01*
X186489410Y-63491918D01*
X186433232Y-63444546D01*
X186376002Y-63414649D01*
X186327603Y-63406609D01*
X186309676Y-63412232D01*
X186284092Y-63433729D01*
X186240488Y-63476628D01*
X186183491Y-63535807D01*
X186117724Y-63606145D01*
X186047814Y-63682522D01*
X185978384Y-63759818D01*
X185914060Y-63832911D01*
X185859466Y-63896680D01*
X185819229Y-63946006D01*
X185797972Y-63975767D01*
X185795816Y-63981172D01*
X185810446Y-64018785D01*
X185844944Y-64054962D01*
X185873799Y-64070897D01*
X185887529Y-64087826D01*
X185878758Y-64116687D01*
X185864132Y-64135678D01*
X185826606Y-64180402D01*
X185767877Y-64248918D01*
X185689645Y-64339287D01*
X185593608Y-64449566D01*
X185481464Y-64577815D01*
X185354912Y-64722094D01*
X185215649Y-64880462D01*
X185065374Y-65050977D01*
X184905786Y-65231700D01*
X184738583Y-65420690D01*
X184657260Y-65512486D01*
X184447879Y-65748704D01*
X184261682Y-65958761D01*
X184097319Y-66144230D01*
X183953442Y-66306684D01*
X183828705Y-66447695D01*
X183721757Y-66568837D01*
X183631253Y-66671682D01*
X183555843Y-66757805D01*
X183494179Y-66828777D01*
X183444914Y-66886171D01*
X183406699Y-66931561D01*
X183378186Y-66966519D01*
X183358028Y-66992620D01*
X183344877Y-67011434D01*
X183337383Y-67024536D01*
X183334200Y-67033499D01*
X183333980Y-67039895D01*
X183335373Y-67045297D01*
X183337033Y-67051279D01*
X183337285Y-67052731D01*
X183361066Y-67097887D01*
X183412220Y-67137330D01*
X183481101Y-67164606D01*
X183514100Y-67171031D01*
X183571703Y-67185299D01*
X183598738Y-67210299D01*
X183595168Y-67248653D01*
X183560958Y-67302981D01*
X183511496Y-67359713D01*
X183482286Y-67391442D01*
X183430744Y-67448128D01*
X183359235Y-67527147D01*
X183270125Y-67625872D01*
X183165781Y-67741675D01*
X183048569Y-67871931D01*
X182920853Y-68014013D01*
X182785001Y-68165295D01*
X182643378Y-68323151D01*
X182595117Y-68376977D01*
X182432057Y-68558986D01*
X182292081Y-68715573D01*
X182173463Y-68848801D01*
X182074475Y-68960735D01*
X181993393Y-69053437D01*
X181928490Y-69128971D01*
X181878040Y-69189399D01*
X181840317Y-69236787D01*
X181813595Y-69273196D01*
X181796147Y-69300690D01*
X181786248Y-69321332D01*
X181782172Y-69337187D01*
X181782040Y-69348916D01*
X181791822Y-69388822D01*
X181818033Y-69418632D01*
X181869895Y-69448977D01*
X181933251Y-69482793D01*
X181964742Y-69507033D01*
X181966451Y-69526901D01*
X181940462Y-69547600D01*
X181914892Y-69561340D01*
X181846857Y-69590894D01*
X181751214Y-69625521D01*
X181636574Y-69662613D01*
X181511549Y-69699563D01*
X181384753Y-69733763D01*
X181264797Y-69762606D01*
X181215184Y-69773175D01*
X181140683Y-69787325D01*
X181071262Y-69797887D01*
X180999520Y-69805347D01*
X180918055Y-69810192D01*
X180819464Y-69812908D01*
X180696347Y-69813981D01*
X180593630Y-69814019D01*
X180389176Y-69811636D01*
X180210463Y-69804399D01*
X180046384Y-69791085D01*
X179885829Y-69770471D01*
X179717693Y-69741334D01*
X179530868Y-69702451D01*
X179482843Y-69691720D01*
X179195379Y-69618048D01*
X178929659Y-69532189D01*
X178689736Y-69435705D01*
X178479662Y-69330164D01*
X178364645Y-69259847D01*
X178262322Y-69181820D01*
X178185394Y-69097306D01*
X178126904Y-69002404D01*
X178098386Y-68916817D01*
X178086223Y-68806949D01*
X178090219Y-68681642D01*
X178105797Y-68578699D01*
X178541501Y-68578699D01*
X178549169Y-68596111D01*
X178576432Y-68584082D01*
X178625284Y-68544278D01*
X178657053Y-68515735D01*
X178775432Y-68407865D01*
X178777132Y-68294567D01*
X178782243Y-68215204D01*
X178793847Y-68121956D01*
X178807184Y-68046491D01*
X178820019Y-67980775D01*
X178827914Y-67930839D01*
X178829413Y-67906121D01*
X178828974Y-67905150D01*
X178818478Y-67917355D01*
X178796470Y-67957067D01*
X178765983Y-68017740D01*
X178730050Y-68092831D01*
X178691702Y-68175796D01*
X178653974Y-68260091D01*
X178619898Y-68339172D01*
X178592507Y-68406495D01*
X178576975Y-68448899D01*
X178551435Y-68530183D01*
X178541501Y-68578699D01*
X178105797Y-68578699D01*
X178110180Y-68549735D01*
X178139299Y-68439817D01*
G37*
G36*
X185401407Y-68964700D02*
G01*
X185414346Y-68982396D01*
X185445095Y-69029479D01*
X185492287Y-69103713D01*
X185554554Y-69202861D01*
X185630528Y-69324686D01*
X185718843Y-69466951D01*
X185818132Y-69627421D01*
X185927026Y-69803858D01*
X186044158Y-69994026D01*
X186168162Y-70195688D01*
X186297670Y-70406608D01*
X186431314Y-70624549D01*
X186567728Y-70847275D01*
X186705543Y-71072549D01*
X186843393Y-71298133D01*
X186979911Y-71521793D01*
X187113728Y-71741291D01*
X187243478Y-71954391D01*
X187367793Y-72158855D01*
X187485306Y-72352448D01*
X187594650Y-72532933D01*
X187694457Y-72698073D01*
X187783361Y-72845631D01*
X187859992Y-72973372D01*
X187922986Y-73079058D01*
X187970973Y-73160453D01*
X188002587Y-73215320D01*
X188016460Y-73241424D01*
X188016998Y-73243133D01*
X188014135Y-73255974D01*
X188001227Y-73266648D01*
X187972581Y-73276844D01*
X187922500Y-73288253D01*
X187845288Y-73302564D01*
X187776720Y-73314416D01*
X187685835Y-73329877D01*
X187604077Y-73343429D01*
X187528405Y-73355212D01*
X187455777Y-73365362D01*
X187383151Y-73374019D01*
X187307486Y-73381320D01*
X187225740Y-73387403D01*
X187134872Y-73392407D01*
X187031840Y-73396469D01*
X186913602Y-73399729D01*
X186777117Y-73402323D01*
X186619343Y-73404390D01*
X186437239Y-73406069D01*
X186227763Y-73407496D01*
X185987873Y-73408812D01*
X185714528Y-73410153D01*
X185663347Y-73410399D01*
X185426498Y-73411348D01*
X185200984Y-73411883D01*
X184989504Y-73412019D01*
X184794760Y-73411770D01*
X184619450Y-73411152D01*
X184466274Y-73410180D01*
X184337934Y-73408868D01*
X184237128Y-73407233D01*
X184166556Y-73405289D01*
X184128920Y-73403051D01*
X184123268Y-73401788D01*
X184126784Y-73382181D01*
X184139593Y-73329556D01*
X184160969Y-73246539D01*
X184190184Y-73135755D01*
X184226510Y-72999833D01*
X184269219Y-72841396D01*
X184317585Y-72663072D01*
X184370879Y-72467487D01*
X184428374Y-72257267D01*
X184489343Y-72035038D01*
X184553058Y-71803426D01*
X184618791Y-71565057D01*
X184685816Y-71322558D01*
X184753404Y-71078555D01*
X184820827Y-70835673D01*
X184887359Y-70596539D01*
X184952272Y-70363779D01*
X185014838Y-70140020D01*
X185074330Y-69927886D01*
X185130020Y-69730006D01*
X185181181Y-69549003D01*
X185227085Y-69387506D01*
X185267005Y-69248140D01*
X185300213Y-69133530D01*
X185325981Y-69046304D01*
X185343582Y-68989087D01*
X185352289Y-68964506D01*
X185352732Y-68963842D01*
X185383533Y-68956437D01*
X185401407Y-68964700D01*
G37*
%TO.C,RV1*%
X85502500Y-57245000D02*
X95345000Y-57245000D01*
X95345000Y-57245000D02*
X95345000Y-67405000D01*
X95345000Y-67405000D02*
X85502500Y-67405000D01*
X85502500Y-67405000D02*
X85502500Y-57245000D01*
%TO.C,R18*%
X112917500Y-87867258D02*
X112917500Y-87392742D01*
X111872500Y-87867258D02*
X111872500Y-87392742D01*
%TO.C,D1*%
X81760000Y-62960000D02*
X81760000Y-59960000D01*
X78260000Y-59960000D02*
X78260000Y-63210000D01*
X81760000Y-59960000D02*
X78260000Y-59960000D01*
%TO.C,R9*%
X110092258Y-66152500D02*
X109617742Y-66152500D01*
X110092258Y-67197500D02*
X109617742Y-67197500D01*
%TO.C,R22*%
X65927500Y-114092258D02*
X65927500Y-113617742D01*
X64882500Y-114092258D02*
X64882500Y-113617742D01*
D13*
%TO.C,J10*%
X158712500Y-116730000D02*
X158712500Y-130730000D01*
X150512500Y-116730000D02*
X158712500Y-116730000D01*
X156812500Y-134730000D02*
X150812500Y-134730000D01*
X150812500Y-130730000D02*
X150512500Y-130730000D01*
X158712500Y-130730000D02*
X156812500Y-130730000D01*
X150512500Y-130730000D02*
X150512500Y-116730000D01*
X156812500Y-130730000D02*
X156812500Y-134730000D01*
X150812500Y-134730000D02*
X150812500Y-130730000D01*
D14*
X150082500Y-129530000D02*
G75*
G03*
X150082500Y-129530000I-170000J0D01*
G01*
D12*
%TO.C,R15*%
X135777500Y-87867258D02*
X135777500Y-87392742D01*
X134732500Y-87867258D02*
X134732500Y-87392742D01*
%TO.C,R12*%
X110092258Y-68057500D02*
X109617742Y-68057500D01*
X110092258Y-69102500D02*
X109617742Y-69102500D01*
%TO.C,C1*%
X83695000Y-64275580D02*
X83695000Y-63994420D01*
X82675000Y-64275580D02*
X82675000Y-63994420D01*
%TO.C,R6*%
X82662500Y-114092258D02*
X82662500Y-113617742D01*
X83707500Y-114092258D02*
X83707500Y-113617742D01*
D15*
%TO.C,J15*%
X186055000Y-118150000D02*
X186055000Y-126650000D01*
X170815000Y-136150000D02*
X186055000Y-136150000D01*
X170815000Y-118150000D02*
X186055000Y-118150000D01*
X186055000Y-136150000D02*
X186055000Y-130150000D01*
X170815000Y-126650000D02*
X170815000Y-118150000D01*
X170815000Y-130150000D02*
X170815000Y-136150000D01*
D12*
%TO.C,C6*%
X131955000Y-87770580D02*
X131955000Y-87489420D01*
X130935000Y-87770580D02*
X130935000Y-87489420D01*
%TO.C,J6*%
X176500000Y-109020000D02*
X175750000Y-109020000D01*
X174700000Y-106770000D02*
X174700000Y-107520000D01*
X176500000Y-106770000D02*
X174700000Y-106770000D01*
X170700000Y-107520000D02*
X170700000Y-106770000D01*
X173200000Y-107520000D02*
X173200000Y-106770000D01*
X172200000Y-106770000D02*
X172200000Y-107520000D01*
X168900000Y-109020000D02*
X169650000Y-109020000D01*
X170700000Y-106770000D02*
X168900000Y-106770000D01*
X168900000Y-107520000D02*
X170700000Y-107520000D01*
X175750000Y-111970000D02*
X172700000Y-111970000D01*
X168890000Y-112730000D02*
X176510000Y-112730000D01*
X173200000Y-106770000D02*
X172200000Y-106770000D01*
X176510000Y-106760000D02*
X168890000Y-106760000D01*
X172200000Y-107520000D02*
X173200000Y-107520000D01*
X168890000Y-106760000D02*
X168890000Y-112730000D01*
X175750000Y-109020000D02*
X175750000Y-111970000D01*
X176510000Y-112730000D02*
X176510000Y-106760000D01*
X174700000Y-107520000D02*
X176500000Y-107520000D01*
X169650000Y-111970000D02*
X172700000Y-111970000D01*
X168600000Y-106470000D02*
X168600000Y-107720000D01*
X168900000Y-106770000D02*
X168900000Y-107520000D01*
X176500000Y-107520000D02*
X176500000Y-106770000D01*
X169850000Y-106470000D02*
X168600000Y-106470000D01*
X169650000Y-109020000D02*
X169650000Y-111970000D01*
%TO.C,R11*%
X65802742Y-69327500D02*
X66277258Y-69327500D01*
X65802742Y-70372500D02*
X66277258Y-70372500D01*
%TO.C,C12*%
X139575000Y-87770580D02*
X139575000Y-87489420D01*
X138555000Y-87770580D02*
X138555000Y-87489420D01*
%TO.C,R5*%
X84567500Y-114092258D02*
X84567500Y-113617742D01*
X85612500Y-114092258D02*
X85612500Y-113617742D01*
%TO.C,J1*%
X179000000Y-97880000D02*
X177200000Y-97880000D01*
X169650000Y-100130000D02*
X169650000Y-103080000D01*
X178250000Y-100130000D02*
X178250000Y-103080000D01*
X172200000Y-98630000D02*
X175700000Y-98630000D01*
X169650000Y-103080000D02*
X173950000Y-103080000D01*
X168890000Y-103840000D02*
X179010000Y-103840000D01*
X170700000Y-98630000D02*
X170700000Y-97880000D01*
X179010000Y-103840000D02*
X179010000Y-97870000D01*
X178250000Y-103080000D02*
X173950000Y-103080000D01*
X168900000Y-97880000D02*
X168900000Y-98630000D01*
X179010000Y-97870000D02*
X168890000Y-97870000D01*
X175700000Y-97880000D02*
X172200000Y-97880000D01*
X177200000Y-98630000D02*
X179000000Y-98630000D01*
X168900000Y-98630000D02*
X170700000Y-98630000D01*
X177200000Y-97880000D02*
X177200000Y-98630000D01*
X179000000Y-98630000D02*
X179000000Y-97880000D01*
X175700000Y-98630000D02*
X175700000Y-97880000D01*
X179000000Y-100130000D02*
X178250000Y-100130000D01*
X170700000Y-97880000D02*
X168900000Y-97880000D01*
X168890000Y-97870000D02*
X168890000Y-103840000D01*
X168600000Y-97580000D02*
X168600000Y-98830000D01*
X168900000Y-100130000D02*
X169650000Y-100130000D01*
X169850000Y-97580000D02*
X168600000Y-97580000D01*
X172200000Y-97880000D02*
X172200000Y-98630000D01*
%TO.C,R10*%
X97902500Y-66912258D02*
X97902500Y-66437742D01*
X98947500Y-66912258D02*
X98947500Y-66437742D01*
%TO.C,J3*%
X159365000Y-114000000D02*
X166985000Y-114000000D01*
X166975000Y-110290000D02*
X166225000Y-110290000D01*
X160125000Y-110290000D02*
X160125000Y-113240000D01*
X159075000Y-107740000D02*
X159075000Y-108990000D01*
X163675000Y-108790000D02*
X163675000Y-108040000D01*
X166225000Y-113240000D02*
X163175000Y-113240000D01*
X161175000Y-108790000D02*
X161175000Y-108040000D01*
X166225000Y-110290000D02*
X166225000Y-113240000D01*
X163675000Y-108040000D02*
X162675000Y-108040000D01*
X159375000Y-108040000D02*
X159375000Y-108790000D01*
X166985000Y-108030000D02*
X159365000Y-108030000D01*
X159375000Y-108790000D02*
X161175000Y-108790000D01*
X165175000Y-108790000D02*
X166975000Y-108790000D01*
X160125000Y-113240000D02*
X163175000Y-113240000D01*
X160325000Y-107740000D02*
X159075000Y-107740000D01*
X159365000Y-108030000D02*
X159365000Y-114000000D01*
X165175000Y-108040000D02*
X165175000Y-108790000D01*
X166985000Y-114000000D02*
X166985000Y-108030000D01*
X162675000Y-108790000D02*
X163675000Y-108790000D01*
X161175000Y-108040000D02*
X159375000Y-108040000D01*
X162675000Y-108040000D02*
X162675000Y-108790000D01*
X166975000Y-108790000D02*
X166975000Y-108040000D01*
X166975000Y-108040000D02*
X165175000Y-108040000D01*
X159375000Y-110290000D02*
X160125000Y-110290000D01*
%TO.C,C7*%
X129415000Y-97014420D02*
X129415000Y-97295580D01*
X128395000Y-97014420D02*
X128395000Y-97295580D01*
%TO.C,R17*%
X113777500Y-87867258D02*
X113777500Y-87392742D01*
X114822500Y-87867258D02*
X114822500Y-87392742D01*
D13*
%TO.C,J8*%
X71087500Y-130730000D02*
X71087500Y-134730000D01*
X65087500Y-130730000D02*
X64787500Y-130730000D01*
X64787500Y-130730000D02*
X64787500Y-116730000D01*
X72987500Y-130730000D02*
X71087500Y-130730000D01*
X65087500Y-134730000D02*
X65087500Y-130730000D01*
X72987500Y-116730000D02*
X72987500Y-130730000D01*
X64787500Y-116730000D02*
X72987500Y-116730000D01*
X71087500Y-134730000D02*
X65087500Y-134730000D01*
D14*
X64357500Y-129530000D02*
G75*
G03*
X64357500Y-129530000I-170000J0D01*
G01*
D12*
%TO.C,F1*%
X97790000Y-87380000D02*
X102870000Y-87380000D01*
X102870000Y-87380000D02*
X102870000Y-106680000D01*
X102870000Y-106680000D02*
X97790000Y-106680000D01*
X97790000Y-106680000D02*
X97790000Y-87380000D01*
%TO.C,C11*%
X132840000Y-87770580D02*
X132840000Y-87489420D01*
X133860000Y-87770580D02*
X133860000Y-87489420D01*
%TO.C,Q2*%
X108520000Y-96545000D02*
X108520000Y-95445000D01*
X107830000Y-98045000D02*
X107830000Y-96545000D01*
X117540000Y-96545000D02*
X117540000Y-91420000D01*
X118230000Y-96545000D02*
X117540000Y-96545000D01*
X118230000Y-98045000D02*
X118230000Y-96545000D01*
X107830000Y-96545000D02*
X108520000Y-96545000D01*
%TO.C,R8*%
X97902500Y-63262742D02*
X97902500Y-63737258D01*
X98947500Y-63262742D02*
X98947500Y-63737258D01*
%TO.C,R7*%
X110092258Y-64247500D02*
X109617742Y-64247500D01*
X110092258Y-65292500D02*
X109617742Y-65292500D01*
%TO.C,U1*%
X38735000Y-132715000D02*
X61595000Y-132715000D01*
X61595000Y-132715000D02*
X61595000Y-57080000D01*
X61595000Y-57080000D02*
X38735000Y-57080000D01*
X38735000Y-57080000D02*
X38735000Y-132715000D01*
%TO.C,C13*%
X116715000Y-87770580D02*
X116715000Y-87489420D01*
X115695000Y-87770580D02*
X115695000Y-87489420D01*
%TO.C,C10*%
X119505000Y-97295580D02*
X119505000Y-97014420D01*
X120525000Y-97295580D02*
X120525000Y-97014420D01*
%TO.C,J11*%
X104481000Y-126905000D02*
X104481000Y-108490000D01*
X88606000Y-108490000D02*
X88606000Y-126905000D01*
X104481000Y-108490000D02*
X88606000Y-108490000D01*
X88606000Y-140240000D02*
X104481000Y-140240000D01*
X88606000Y-140240000D02*
X88606000Y-130715000D01*
X104481000Y-140240000D02*
X104481000Y-130715000D01*
%TO.C,U7*%
X103505000Y-70695000D02*
X101305000Y-70695000D01*
X103505000Y-63925000D02*
X99905000Y-63925000D01*
X103505000Y-63925000D02*
X105705000Y-63925000D01*
X103505000Y-70695000D02*
X105705000Y-70695000D01*
%TO.C,J13*%
X132421000Y-126905000D02*
X132421000Y-108490000D01*
X116546000Y-140240000D02*
X132421000Y-140240000D01*
X132421000Y-108490000D02*
X116546000Y-108490000D01*
X116546000Y-140240000D02*
X116546000Y-130715000D01*
X132421000Y-140240000D02*
X132421000Y-130715000D01*
X116546000Y-108490000D02*
X116546000Y-126905000D01*
%TO.C,R1*%
X64022500Y-113617742D02*
X64022500Y-114092258D01*
X62977500Y-113617742D02*
X62977500Y-114092258D01*
%TO.C,C3*%
X103645580Y-62355000D02*
X103364420Y-62355000D01*
X103645580Y-63375000D02*
X103364420Y-63375000D01*
%TO.C,C8*%
X106555000Y-97014420D02*
X106555000Y-97295580D01*
X105535000Y-97014420D02*
X105535000Y-97295580D01*
D13*
%TO.C,J7*%
X74947500Y-130730000D02*
X74947500Y-116730000D01*
X83147500Y-130730000D02*
X81247500Y-130730000D01*
X74947500Y-116730000D02*
X83147500Y-116730000D01*
X75247500Y-130730000D02*
X74947500Y-130730000D01*
X83147500Y-116730000D02*
X83147500Y-130730000D01*
X81247500Y-130730000D02*
X81247500Y-134730000D01*
X75247500Y-134730000D02*
X75247500Y-130730000D01*
X81247500Y-134730000D02*
X75247500Y-134730000D01*
D14*
X74517500Y-129530000D02*
G75*
G03*
X74517500Y-129530000I-170000J0D01*
G01*
D13*
%TO.C,PS1*%
X65320000Y-58660000D02*
X76920000Y-58660000D01*
X76920000Y-66660000D02*
X65320000Y-66660000D01*
X76920000Y-58660000D02*
X76920000Y-66660000D01*
X65320000Y-66660000D02*
X65320000Y-58660000D01*
D16*
X73760000Y-57960000D02*
G75*
G03*
X73760000Y-57960000I-100000J0D01*
G01*
%TD*%
M02*
