%TF.GenerationSoftware,KiCad,Pcbnew,6.0.2+dfsg-1*%
%TF.CreationDate,2022-12-07T15:13:49-05:00*%
%TF.ProjectId,dragon-lair-board,64726167-6f6e-42d6-9c61-69722d626f61,rev?*%
%TF.SameCoordinates,Original*%
%TF.FileFunction,Soldermask,Top*%
%TF.FilePolarity,Negative*%
%FSLAX46Y46*%
G04 Gerber Fmt 4.6, Leading zero omitted, Abs format (unit mm)*
G04 Created by KiCad (PCBNEW 6.0.2+dfsg-1) date 2022-12-07 15:13:49*
%MOMM*%
%LPD*%
G01*
G04 APERTURE LIST*
G04 Aperture macros list*
%AMRoundRect*
0 Rectangle with rounded corners*
0 $1 Rounding radius*
0 $2 $3 $4 $5 $6 $7 $8 $9 X,Y pos of 4 corners*
0 Add a 4 corners polygon primitive as box body*
4,1,4,$2,$3,$4,$5,$6,$7,$8,$9,$2,$3,0*
0 Add four circle primitives for the rounded corners*
1,1,$1+$1,$2,$3*
1,1,$1+$1,$4,$5*
1,1,$1+$1,$6,$7*
1,1,$1+$1,$8,$9*
0 Add four rect primitives between the rounded corners*
20,1,$1+$1,$2,$3,$4,$5,0*
20,1,$1+$1,$4,$5,$6,$7,0*
20,1,$1+$1,$6,$7,$8,$9,0*
20,1,$1+$1,$8,$9,$2,$3,0*%
G04 Aperture macros list end*
%ADD10C,1.651000*%
%ADD11RoundRect,0.200000X0.275000X-0.200000X0.275000X0.200000X-0.275000X0.200000X-0.275000X-0.200000X0*%
%ADD12R,0.800000X4.600000*%
%ADD13R,10.800000X9.400000*%
%ADD14RoundRect,0.200000X0.200000X0.275000X-0.200000X0.275000X-0.200000X-0.275000X0.200000X-0.275000X0*%
%ADD15RoundRect,0.200000X-0.275000X0.200000X-0.275000X-0.200000X0.275000X-0.200000X0.275000X0.200000X0*%
%ADD16RoundRect,0.250000X-0.600000X-0.750000X0.600000X-0.750000X0.600000X0.750000X-0.600000X0.750000X0*%
%ADD17O,1.700000X2.000000*%
%ADD18RoundRect,0.225000X-0.250000X0.225000X-0.250000X-0.225000X0.250000X-0.225000X0.250000X0.225000X0*%
%ADD19RoundRect,0.225000X0.250000X-0.225000X0.250000X0.225000X-0.250000X0.225000X-0.250000X-0.225000X0*%
%ADD20O,3.200000X1.600000*%
%ADD21C,5.600000*%
%ADD22RoundRect,0.250000X1.500000X0.550000X-1.500000X0.550000X-1.500000X-0.550000X1.500000X-0.550000X0*%
%ADD23C,1.524000*%
%ADD24RoundRect,0.400000X-1.000000X0.400000X-1.000000X-0.400000X1.000000X-0.400000X1.000000X0.400000X0*%
%ADD25C,3.350000*%
%ADD26C,1.303000*%
%ADD27RoundRect,0.200000X-0.200000X-0.275000X0.200000X-0.275000X0.200000X0.275000X-0.200000X0.275000X0*%
%ADD28RoundRect,0.250000X-0.600000X-0.725000X0.600000X-0.725000X0.600000X0.725000X-0.600000X0.725000X0*%
%ADD29O,1.700000X1.950000*%
%ADD30C,3.500000*%
%ADD31R,1.524000X1.524000*%
%ADD32C,2.500000*%
%ADD33O,7.000000X3.000000*%
%ADD34RoundRect,0.100000X-0.637500X-0.100000X0.637500X-0.100000X0.637500X0.100000X-0.637500X0.100000X0*%
%ADD35RoundRect,0.225000X0.225000X0.250000X-0.225000X0.250000X-0.225000X-0.250000X0.225000X-0.250000X0*%
%ADD36R,1.508000X1.508000*%
%ADD37C,1.508000*%
G04 APERTURE END LIST*
D10*
%TO.C,BZ1*%
X77470000Y-76320000D03*
X77470000Y-91320000D03*
%TD*%
D11*
%TO.C,R3*%
X97790000Y-71500000D03*
X97790000Y-69850000D03*
%TD*%
D12*
%TO.C,Q1*%
X139700000Y-93720000D03*
X138430000Y-93720000D03*
X137160000Y-93720000D03*
X135890000Y-93720000D03*
X134620000Y-93720000D03*
X133350000Y-93720000D03*
X132080000Y-93720000D03*
D13*
X135890000Y-102870000D03*
%TD*%
D14*
%TO.C,R14*%
X110680000Y-70485000D03*
X109030000Y-70485000D03*
%TD*%
D15*
%TO.C,R2*%
X63500000Y-109855000D03*
X63500000Y-111505000D03*
%TD*%
D16*
%TO.C,J5*%
X182880000Y-109220000D03*
D17*
X185380000Y-109220000D03*
%TD*%
D16*
%TO.C,J4*%
X182880000Y-100330000D03*
D17*
X185380000Y-100330000D03*
%TD*%
D18*
%TO.C,C2*%
X63500000Y-60960000D03*
X63500000Y-62510000D03*
%TD*%
D11*
%TO.C,R20*%
X65405000Y-111505000D03*
X65405000Y-109855000D03*
%TD*%
%TO.C,R13*%
X95885000Y-71500000D03*
X95885000Y-69850000D03*
%TD*%
D15*
%TO.C,R19*%
X67310000Y-109855000D03*
X67310000Y-111505000D03*
%TD*%
D19*
%TO.C,C5*%
X108585000Y-88405000D03*
X108585000Y-86855000D03*
%TD*%
D20*
%TO.C,J9*%
X164872500Y-129530000D03*
X162872500Y-127130000D03*
X162872500Y-121630000D03*
X164872500Y-117930000D03*
%TD*%
D21*
%TO.C,H4*%
X193040000Y-127000000D03*
%TD*%
D19*
%TO.C,C9*%
X142875000Y-97930000D03*
X142875000Y-96380000D03*
%TD*%
D21*
%TO.C,H2*%
X33020000Y-127000000D03*
%TD*%
D11*
%TO.C,R16*%
X137160000Y-88455000D03*
X137160000Y-86805000D03*
%TD*%
D16*
%TO.C,J2*%
X153035000Y-110490000D03*
D17*
X155535000Y-110490000D03*
%TD*%
D22*
%TO.C,C4*%
X99220000Y-76835000D03*
X93820000Y-76835000D03*
%TD*%
D19*
%TO.C,C14*%
X110490000Y-88405000D03*
X110490000Y-86855000D03*
%TD*%
D15*
%TO.C,R21*%
X67310000Y-113030000D03*
X67310000Y-114680000D03*
%TD*%
D21*
%TO.C,H3*%
X33020000Y-55880000D03*
%TD*%
D23*
%TO.C,RV1*%
X87725000Y-62325000D03*
X90265000Y-64865000D03*
X92805000Y-62325000D03*
%TD*%
D21*
%TO.C,H1*%
X193040000Y-55880000D03*
%TD*%
D11*
%TO.C,R18*%
X112395000Y-88455000D03*
X112395000Y-86805000D03*
%TD*%
D24*
%TO.C,D1*%
X80010000Y-60960000D03*
X80010000Y-64760000D03*
%TD*%
D14*
%TO.C,R9*%
X110680000Y-66675000D03*
X109030000Y-66675000D03*
%TD*%
D11*
%TO.C,R22*%
X65405000Y-114680000D03*
X65405000Y-113030000D03*
%TD*%
D20*
%TO.C,J10*%
X154712500Y-129530000D03*
X152712500Y-127130000D03*
X152712500Y-121630000D03*
X154712500Y-117930000D03*
%TD*%
D11*
%TO.C,R15*%
X135255000Y-88455000D03*
X135255000Y-86805000D03*
%TD*%
D14*
%TO.C,R12*%
X110680000Y-68580000D03*
X109030000Y-68580000D03*
%TD*%
D19*
%TO.C,C1*%
X83185000Y-64910000D03*
X83185000Y-63360000D03*
%TD*%
D11*
%TO.C,R6*%
X83185000Y-114680000D03*
X83185000Y-113030000D03*
%TD*%
D25*
%TO.C,J15*%
X172719000Y-128270000D03*
X184151000Y-128270000D03*
D26*
X173990000Y-121920000D03*
X175260000Y-119380000D03*
X176530000Y-121920000D03*
X177800000Y-119380000D03*
X179070000Y-121920000D03*
X180340000Y-119380000D03*
X181610000Y-121920000D03*
X182880000Y-119380000D03*
%TD*%
D19*
%TO.C,C6*%
X131445000Y-88405000D03*
X131445000Y-86855000D03*
%TD*%
D16*
%TO.C,J6*%
X171450000Y-109220000D03*
D17*
X173950000Y-109220000D03*
%TD*%
D27*
%TO.C,R11*%
X65215000Y-69850000D03*
X66865000Y-69850000D03*
%TD*%
D19*
%TO.C,C12*%
X139065000Y-88405000D03*
X139065000Y-86855000D03*
%TD*%
D11*
%TO.C,R5*%
X85090000Y-114680000D03*
X85090000Y-113030000D03*
%TD*%
D28*
%TO.C,J1*%
X171450000Y-100330000D03*
D29*
X173950000Y-100330000D03*
X176450000Y-100330000D03*
%TD*%
D11*
%TO.C,R10*%
X98425000Y-67500000D03*
X98425000Y-65850000D03*
%TD*%
D16*
%TO.C,J3*%
X161925000Y-110490000D03*
D17*
X164425000Y-110490000D03*
%TD*%
D18*
%TO.C,C7*%
X128905000Y-96380000D03*
X128905000Y-97930000D03*
%TD*%
D11*
%TO.C,R17*%
X114300000Y-88455000D03*
X114300000Y-86805000D03*
%TD*%
D20*
%TO.C,J8*%
X68987500Y-129530000D03*
X66987500Y-127130000D03*
X66987500Y-121630000D03*
X68987500Y-117930000D03*
%TD*%
D30*
%TO.C,F1*%
X100330000Y-104140000D03*
X100330000Y-99060000D03*
X100330000Y-95000000D03*
X100330000Y-89920000D03*
%TD*%
D19*
%TO.C,C11*%
X133350000Y-88405000D03*
X133350000Y-86855000D03*
%TD*%
D12*
%TO.C,Q2*%
X116840000Y-93720000D03*
X115570000Y-93720000D03*
X114300000Y-93720000D03*
X113030000Y-93720000D03*
X111760000Y-93720000D03*
X110490000Y-93720000D03*
X109220000Y-93720000D03*
D13*
X113030000Y-102870000D03*
%TD*%
D15*
%TO.C,R8*%
X98425000Y-62675000D03*
X98425000Y-64325000D03*
%TD*%
D14*
%TO.C,R7*%
X110680000Y-64770000D03*
X109030000Y-64770000D03*
%TD*%
D23*
%TO.C,U1*%
X41275000Y-58420000D03*
X41275000Y-60960000D03*
D31*
X41275000Y-63500000D03*
D23*
X41275000Y-66040000D03*
X41275000Y-68580000D03*
X41275000Y-71120000D03*
X41275000Y-73660000D03*
D31*
X41275000Y-76200000D03*
D23*
X41275000Y-78740000D03*
X41275000Y-81280000D03*
X41275000Y-83820000D03*
X41275000Y-86360000D03*
D31*
X41275000Y-88900000D03*
D23*
X41275000Y-91440000D03*
X41275000Y-93980000D03*
X41275000Y-96520000D03*
X41275000Y-99060000D03*
D31*
X41275000Y-101600000D03*
D23*
X41275000Y-104140000D03*
X41275000Y-106680000D03*
X59055000Y-106680000D03*
X59055000Y-104140000D03*
D31*
X59055000Y-101600000D03*
D23*
X59055000Y-99060000D03*
X59055000Y-96520000D03*
X59055000Y-93980000D03*
X59055000Y-91440000D03*
D31*
X59055000Y-88900000D03*
D23*
X59055000Y-86360000D03*
X59055000Y-83820000D03*
X59055000Y-81280000D03*
X59055000Y-78740000D03*
D31*
X59055000Y-76200000D03*
D23*
X59055000Y-73660000D03*
X59055000Y-71120000D03*
X59055000Y-68580000D03*
X59055000Y-66040000D03*
D31*
X59055000Y-63500000D03*
D23*
X59055000Y-60960000D03*
X59055000Y-58420000D03*
%TD*%
D19*
%TO.C,C13*%
X116205000Y-88405000D03*
X116205000Y-86855000D03*
%TD*%
%TO.C,C10*%
X120015000Y-97930000D03*
X120015000Y-96380000D03*
%TD*%
D32*
%TO.C,J11*%
X103846000Y-128838000D03*
X89114000Y-128838000D03*
D33*
X100417000Y-110550000D03*
X92416000Y-110550000D03*
%TD*%
D34*
%TO.C,U7*%
X100642500Y-64385000D03*
X100642500Y-65035000D03*
X100642500Y-65685000D03*
X100642500Y-66335000D03*
X100642500Y-66985000D03*
X100642500Y-67635000D03*
X100642500Y-68285000D03*
X100642500Y-68935000D03*
X100642500Y-69585000D03*
X100642500Y-70235000D03*
X106367500Y-70235000D03*
X106367500Y-69585000D03*
X106367500Y-68935000D03*
X106367500Y-68285000D03*
X106367500Y-67635000D03*
X106367500Y-66985000D03*
X106367500Y-66335000D03*
X106367500Y-65685000D03*
X106367500Y-65035000D03*
X106367500Y-64385000D03*
%TD*%
D32*
%TO.C,J13*%
X131786000Y-128838000D03*
X117054000Y-128838000D03*
D33*
X128357000Y-110550000D03*
X120356000Y-110550000D03*
%TD*%
D15*
%TO.C,R1*%
X63500000Y-113030000D03*
X63500000Y-114680000D03*
%TD*%
D35*
%TO.C,C3*%
X104280000Y-62865000D03*
X102730000Y-62865000D03*
%TD*%
D18*
%TO.C,C8*%
X106045000Y-96380000D03*
X106045000Y-97930000D03*
%TD*%
D20*
%TO.C,J7*%
X79147500Y-129530000D03*
X77147500Y-127130000D03*
X77147500Y-121630000D03*
X79147500Y-117930000D03*
%TD*%
D36*
%TO.C,PS1*%
X73660000Y-60960000D03*
D37*
X71120000Y-60960000D03*
X68580000Y-60960000D03*
%TD*%
M02*
